<?xml version="1.0" encoding="UTF-8" standalone="no"?><svg xmlns="http://www.w3.org/2000/svg" xmlns:xlink="http://www.w3.org/1999/xlink" contentScriptType="application/ecmascript" contentStyleType="text/css" height="353px" preserveAspectRatio="none" style="width:1297px;height:353px;" version="1.1" viewBox="0 0 1297 353" width="1297px" zoomAndPan="magnify"><defs><filter height="300%" id="f1cy7hkkao87ye" width="300%" x="-1" y="-1"><feGaussianBlur result="blurOut" stdDeviation="2.0"/><feColorMatrix in="blurOut" result="blurOut2" type="matrix" values="0 0 0 0 0 0 0 0 0 0 0 0 0 0 0 0 0 0 .4 0"/><feOffset dx="4.0" dy="4.0" in="blurOut2" result="blurOut3"/><feBlend in="SourceGraphic" in2="blurOut3" mode="normal"/></filter></defs><g><!--entity mastermind--><polygon fill="#FFFFFF" filter="url(#f1cy7hkkao87ye)" points="6,104,94,104,101,126.2969,118,126.2969,118,143.2969,6,143.2969,6,104" style="stroke: #000000; stroke-width: 1.5;"/><line style="stroke: #000000; stroke-width: 1.5;" x1="6" x2="101" y1="126.2969" y2="126.2969"/><text fill="#000000" font-family="sans-serif" font-size="14" lengthAdjust="spacingAndGlyphs" textLength="82" x="10" y="119.9951">mastermind</text><!--entity mastermind.controllers--><polygon fill="#FFFFFF" filter="url(#f1cy7hkkao87ye)" points="153.5,104,318.5,104,325.5,126.2969,342.5,126.2969,342.5,143.2969,153.5,143.2969,153.5,104" style="stroke: #000000; stroke-width: 1.5;"/><line style="stroke: #000000; stroke-width: 1.5;" x1="153.5" x2="325.5" y1="126.2969" y2="126.2969"/><text fill="#000000" font-family="sans-serif" font-size="14" lengthAdjust="spacingAndGlyphs" textLength="159" x="157.5" y="119.9951">mastermind.controllers</text><!--entity mastermind.controllers.implementation--><polygon fill="#FFFFFF" filter="url(#f1cy7hkkao87ye)" points="49,203,325,203,332,225.2969,349,225.2969,349,242.2969,49,242.2969,49,203" style="stroke: #000000; stroke-width: 1.5;"/><line style="stroke: #000000; stroke-width: 1.5;" x1="49" x2="332" y1="225.2969" y2="225.2969"/><text fill="#000000" font-family="sans-serif" font-size="14" lengthAdjust="spacingAndGlyphs" textLength="270" x="53" y="218.9951">mastermind.controllers.implementation</text><!--entity mastermind.distributed--><polygon fill="#FFFFFF" filter="url(#f1cy7hkkao87ye)" points="378,104,544,104,551,126.2969,568,126.2969,568,143.2969,378,143.2969,378,104" style="stroke: #000000; stroke-width: 1.5;"/><line style="stroke: #000000; stroke-width: 1.5;" x1="378" x2="551" y1="126.2969" y2="126.2969"/><text fill="#000000" font-family="sans-serif" font-size="14" lengthAdjust="spacingAndGlyphs" textLength="160" x="382" y="119.9951">mastermind.distributed</text><!--entity mastermind.distributed.dispatchers--><polygon fill="#FFFFFF" filter="url(#f1cy7hkkao87ye)" points="384.5,203,635.5,203,642.5,225.2969,659.5,225.2969,659.5,242.2969,384.5,242.2969,384.5,203" style="stroke: #000000; stroke-width: 1.5;"/><line style="stroke: #000000; stroke-width: 1.5;" x1="384.5" x2="642.5" y1="225.2969" y2="225.2969"/><text fill="#000000" font-family="sans-serif" font-size="14" lengthAdjust="spacingAndGlyphs" textLength="245" x="388.5" y="218.9951">mastermind.distributed.dispatchers</text><!--entity mastermind.distributed.dispatchers.undoredo--><polygon fill="#FFFFFF" filter="url(#f1cy7hkkao87ye)" points="348.5,302,671.5,302,678.5,324.2969,695.5,324.2969,695.5,341.2969,348.5,341.2969,348.5,302" style="stroke: #000000; stroke-width: 1.5;"/><line style="stroke: #000000; stroke-width: 1.5;" x1="348.5" x2="678.5" y1="324.2969" y2="324.2969"/><text fill="#000000" font-family="sans-serif" font-size="14" lengthAdjust="spacingAndGlyphs" textLength="317" x="352.5" y="317.9951">mastermind.distributed.dispatchers.undoredo</text><!--entity mastermind.models--><polygon fill="#FFFFFF" filter="url(#f1cy7hkkao87ye)" points="603.5,104,746.5,104,753.5,126.2969,770.5,126.2969,770.5,143.2969,603.5,143.2969,603.5,104" style="stroke: #000000; stroke-width: 1.5;"/><line style="stroke: #000000; stroke-width: 1.5;" x1="603.5" x2="753.5" y1="126.2969" y2="126.2969"/><text fill="#000000" font-family="sans-serif" font-size="14" lengthAdjust="spacingAndGlyphs" textLength="137" x="607.5" y="119.9951">mastermind.models</text><!--entity mastermind.views--><polygon fill="#FFFFFF" filter="url(#f1cy7hkkao87ye)" points="806,104,936,104,943,126.2969,960,126.2969,960,143.2969,806,143.2969,806,104" style="stroke: #000000; stroke-width: 1.5;"/><line style="stroke: #000000; stroke-width: 1.5;" x1="806" x2="943" y1="126.2969" y2="126.2969"/><text fill="#000000" font-family="sans-serif" font-size="14" lengthAdjust="spacingAndGlyphs" textLength="124" x="810" y="119.9951">mastermind.views</text><!--entity utils--><polygon fill="#FFFFFF" filter="url(#f1cy7hkkao87ye)" points="995,104,1029,104,1036,126.2969,1053,126.2969,1053,143.2969,995,143.2969,995,104" style="stroke: #000000; stroke-width: 1.5;"/><line style="stroke: #000000; stroke-width: 1.5;" x1="995" x2="1036" y1="126.2969" y2="126.2969"/><text fill="#000000" font-family="sans-serif" font-size="14" lengthAdjust="spacingAndGlyphs" textLength="28" x="999" y="119.9951">utils</text><!--entity java.io--><polygon fill="#FFFFFF" filter="url(#f1cy7hkkao87ye)" points="1088,104,1136,104,1143,126.2969,1160,126.2969,1160,143.2969,1088,143.2969,1088,104" style="stroke: #000000; stroke-width: 1.5;"/><line style="stroke: #000000; stroke-width: 1.5;" x1="1088" x2="1143" y1="126.2969" y2="126.2969"/><text fill="#000000" font-family="sans-serif" font-size="14" lengthAdjust="spacingAndGlyphs" textLength="42" x="1092" y="119.9951">java.io</text><!--entity java.util--><polygon fill="#FFFFFF" filter="url(#f1cy7hkkao87ye)" points="1195,104,1251,104,1258,126.2969,1275,126.2969,1275,143.2969,1195,143.2969,1195,104" style="stroke: #000000; stroke-width: 1.5;"/><line style="stroke: #000000; stroke-width: 1.5;" x1="1195" x2="1258" y1="126.2969" y2="126.2969"/><text fill="#000000" font-family="sans-serif" font-size="14" lengthAdjust="spacingAndGlyphs" textLength="50" x="1199" y="119.9951">java.util</text><!--entity jar--><rect fill="#FEFECE" filter="url(#f1cy7hkkao87ye)" height="36.2969" style="stroke: #A80036; stroke-width: 1.5;" width="122" x="724" y="8"/><rect fill="#FEFECE" height="5" style="stroke: #A80036; stroke-width: 1.5;" width="10" x="719" y="13"/><rect fill="#FEFECE" height="5" style="stroke: #A80036; stroke-width: 1.5;" width="10" x="719" y="34.2969"/><text fill="#000000" font-family="sans-serif" font-size="14" lengthAdjust="spacingAndGlyphs" textLength="102" x="734" y="30.9951">mastermind.jar</text><!--link jar to mastermind--><path d="M710.69,32.73 C589.62,42.75 342.53,66.09 136,104 C134.48,104.28 132.94,104.57 131.39,104.88 " fill="none" id="jar-mastermind" style="stroke: #A80036; stroke-width: 1.0;"/><polygon fill="#A80036" points="118.4,107.62,128.0324,109.6736,123.292,106.5866,126.379,101.8463,118.4,107.62" style="stroke: #A80036; stroke-width: 1.0;"/><line style="stroke: #A80036; stroke-width: 1.0;" x1="123.292" x2="131.12" y1="106.5866" y2="104.93"/><polygon fill="#A80036" points="723.77,31.66,717.4646,28.1612,711.8097,32.6358,718.1151,36.1347,723.77,31.66" style="stroke: #A80036; stroke-width: 1.0;"/><!--link jar to mastermind.controllers--><path d="M710.88,40.18 C618.85,56.55 461.16,84.59 355.76,103.34 " fill="none" id="jar-mastermind.controllers" style="stroke: #A80036; stroke-width: 1.0;"/><polygon fill="#A80036" points="342.86,105.63,352.4205,107.9959,347.7831,104.7564,351.0227,100.119,342.86,105.63" style="stroke: #A80036; stroke-width: 1.0;"/><line style="stroke: #A80036; stroke-width: 1.0;" x1="347.7831" x2="355.655" y1="104.7564" y2="103.35"/><polygon fill="#A80036" points="723.92,37.86,717.3134,34.9699,712.1046,39.9567,718.7112,42.8468,723.92,37.86" style="stroke: #A80036; stroke-width: 1.0;"/><!--link jar to mastermind.distributed--><path d="M716.51,47.96 C666.15,63.38 597.79,84.3 546.33,100.06 " fill="none" id="jar-mastermind.distributed" style="stroke: #A80036; stroke-width: 1.0;"/><polygon fill="#A80036" points="533.63,103.94,543.4075,105.1235,538.41,102.473,541.0604,97.4755,533.63,103.94" style="stroke: #A80036; stroke-width: 1.0;"/><line style="stroke: #A80036; stroke-width: 1.0;" x1="538.41" x2="546.055" y1="102.473" y2="100.14"/><polygon fill="#A80036" points="729.22,44.07,722.3127,41.9991,717.7444,47.5786,724.6517,49.6495,729.22,44.07" style="stroke: #A80036; stroke-width: 1.0;"/><!--link jar to mastermind.models--><path d="M757.85,53.46 C744.73,66.24 728.98,81.59 715.67,94.57 " fill="none" id="jar-mastermind.models" style="stroke: #A80036; stroke-width: 1.0;"/><polygon fill="#A80036" points="706.04,103.94,715.2783,100.5262,709.6219,100.4515,709.6966,94.7951,706.04,103.94" style="stroke: #A80036; stroke-width: 1.0;"/><line style="stroke: #A80036; stroke-width: 1.0;" x1="709.6219" x2="715.355" y1="100.4515" y2="94.87"/><polygon fill="#A80036" points="767.48,44.07,760.3909,45.3907,758.8834,52.4425,765.9725,51.1218,767.48,44.07" style="stroke: #A80036; stroke-width: 1.0;"/><!--link jar to mastermind.views--><path d="M812.15,53.46 C825.27,66.24 841.02,81.59 854.33,94.57 " fill="none" id="jar-mastermind.views" style="stroke: #A80036; stroke-width: 1.0;"/><polygon fill="#A80036" points="863.96,103.94,860.3034,94.7951,860.3781,100.4515,854.7217,100.5262,863.96,103.94" style="stroke: #A80036; stroke-width: 1.0;"/><line style="stroke: #A80036; stroke-width: 1.0;" x1="860.3781" x2="854.645" y1="100.4515" y2="94.87"/><polygon fill="#A80036" points="802.52,44.07,804.0275,51.1218,811.1166,52.4425,809.6091,45.3907,802.52,44.07" style="stroke: #A80036; stroke-width: 1.0;"/><!--link mastermind.controllers to mastermind.controllers.implementation--><path d="M232.59,155.01 C226.77,166.53 220.15,179.63 214.34,191.14 " fill="none" id="mastermind.controllers-mastermind.controllers.implementation" style="stroke: #A80036; stroke-width: 1.0;"/><polygon fill="#A80036" points="208.42,202.85,216.0472,196.619,210.6736,198.3867,208.9059,193.0131,208.42,202.85" style="stroke: #A80036; stroke-width: 1.0;"/><line style="stroke: #A80036; stroke-width: 1.0;" x1="210.6736" x2="214.28" y1="198.3867" y2="191.25"/><polygon fill="#A80036" points="238.55,143.2,232.2715,146.7469,233.1308,153.9066,239.4093,150.3597,238.55,143.2" style="stroke: #A80036; stroke-width: 1.0;"/><!--link mastermind.distributed to mastermind.distributed.dispatchers--><path d="M488.41,155.01 C494.23,166.53 500.85,179.63 506.66,191.14 " fill="none" id="mastermind.distributed-mastermind.distributed.dispatchers" style="stroke: #A80036; stroke-width: 1.0;"/><polygon fill="#A80036" points="512.58,202.85,512.0941,193.0131,510.3264,198.3867,504.9528,196.619,512.58,202.85" style="stroke: #A80036; stroke-width: 1.0;"/><line style="stroke: #A80036; stroke-width: 1.0;" x1="510.3264" x2="506.72" y1="198.3867" y2="191.25"/><polygon fill="#A80036" points="482.45,143.2,481.5907,150.3597,487.8692,153.9066,488.7285,146.7469,482.45,143.2" style="stroke: #A80036; stroke-width: 1.0;"/><!--link mastermind.distributed.dispatchers to mastermind.distributed.dispatchers.undoredo--><path d="M522,255.41 C522,266.11 522,278.03 522,288.72 " fill="none" id="mastermind.distributed.dispatchers-mastermind.distributed.dispatchers.undoredo" style="stroke: #A80036; stroke-width: 1.0;"/><polygon fill="#A80036" points="522,301.85,526,292.85,522,296.85,518,292.85,522,301.85" style="stroke: #A80036; stroke-width: 1.0;"/><line style="stroke: #A80036; stroke-width: 1.0;" x1="522" x2="522" y1="296.85" y2="288.85"/><polygon fill="#A80036" points="522,242.2,518,248.2,522,254.2,526,248.2,522,242.2" style="stroke: #A80036; stroke-width: 1.0;"/><!--link jar to utils--><path d="M840.21,48.98 C878.81,64.36 931.56,85.4 978,104 C979.53,104.61 981.08,105.24 982.66,105.87 " fill="none" id="jar-utils" style="stroke: #A80036; stroke-width: 1.0;"/><polygon fill="#A80036" points="994.8,110.74,987.9466,103.6668,990.1622,108.8717,984.9573,111.0873,994.8,110.74" style="stroke: #A80036; stroke-width: 1.0;"/><line style="stroke: #A80036; stroke-width: 1.0;" x1="990.1622" x2="982.74" y1="108.8717" y2="105.9"/><polygon fill="#A80036" points="827.94,44.09,832.0314,50.0281,839.0863,48.5353,834.9949,42.5972,827.94,44.09" style="stroke: #A80036; stroke-width: 1.0;"/><!--link jar to java.io--><path d="M858.9,45.32 C916.9,60.08 999.51,81.93 1071,104 C1072.46,104.45 1073.94,104.92 1075.43,105.39 " fill="none" id="jar-java.io" style="stroke: #A80036; stroke-width: 1.0;"/><polygon fill="#A80036" points="1087.91,109.51,1080.6137,102.8945,1083.1611,107.9453,1078.1103,110.4927,1087.91,109.51" style="stroke: #A80036; stroke-width: 1.0;"/><line style="stroke: #A80036; stroke-width: 1.0;" x1="1083.1611" x2="1075.565" y1="107.9453" y2="105.435"/><polygon fill="#A80036" points="846.18,42.1,851.0165,47.4487,857.8139,45.0415,852.9774,39.6928,846.18,42.1" style="stroke: #A80036; stroke-width: 1.0;"/><!--link jar to java.util--><path d="M859.38,38.83 C938.86,52.1 1068.25,75.55 1178,104 C1179.36,104.35 1180.73,104.72 1182.12,105.1 " fill="none" id="jar-java.util" style="stroke: #A80036; stroke-width: 1.0;"/><polygon fill="#A80036" points="1194.7,108.76,1187.1758,102.405,1189.8991,107.3632,1184.9409,110.0864,1194.7,108.76" style="stroke: #A80036; stroke-width: 1.0;"/><line style="stroke: #A80036; stroke-width: 1.0;" x1="1189.8991" x2="1182.21" y1="107.3632" y2="105.125"/><polygon fill="#A80036" points="846.1,36.63,851.3643,41.5582,857.9381,38.5942,852.6738,33.6661,846.1,36.63" style="stroke: #A80036; stroke-width: 1.0;"/><!--
@startuml

package "  "  as mastermind {
}
package "  "  as mastermind.controllers {
}
package "  "  as mastermind.controllers.implementation {
}
package "  "  as mastermind.distributed {
}
package "  "  as mastermind.distributed.dispatchers {
}
package "  "  as mastermind.distributed.dispatchers.undoredo {
}
package "  "  as mastermind.models {
}
package "  "  as mastermind.views {
}
package "  "  as utils {
}
package "  "  as java.io {
}
package "  "  as java.util {
}

[mastermind.jar] as jar

jar *- -> mastermind
jar *- -> mastermind.controllers
jar *- -> mastermind.distributed
jar *- -> mastermind.models
jar *- -> mastermind.views
mastermind.controllers *- -> mastermind.controllers.implementation
mastermind.distributed *- -> mastermind.distributed.dispatchers
mastermind.distributed.dispatchers *- -> mastermind.distributed.dispatchers.undoredo
jar *- -> utils
jar *- -> java.io
jar *- -> java.util
@enduml

PlantUML version 1.2019.05(Sat Apr 20 18:45:36 CEST 2019)
(GPL source distribution)
Java Runtime: OpenJDK Runtime Environment
JVM: OpenJDK 64-Bit Server VM
Java Version: 1.8.0_265-8u265-b01-0ubuntu2~20.04-b01
Operating System: Linux
OS Version: 5.4.0-52-generic
Default Encoding: UTF-8
Language: es
Country: ES
--></g></svg>