<?xml version="1.0" encoding="UTF-8" standalone="no"?><svg xmlns="http://www.w3.org/2000/svg" xmlns:xlink="http://www.w3.org/1999/xlink" contentScriptType="application/ecmascript" contentStyleType="text/css" height="254px" preserveAspectRatio="none" style="width:1157px;height:254px;" version="1.1" viewBox="0 0 1157 254" width="1157px" zoomAndPan="magnify"><defs><filter height="300%" id="fhk0h03xvjclm" width="300%" x="-1" y="-1"><feGaussianBlur result="blurOut" stdDeviation="2.0"/><feColorMatrix in="blurOut" result="blurOut2" type="matrix" values="0 0 0 0 0 0 0 0 0 0 0 0 0 0 0 0 0 0 .4 0"/><feOffset dx="4.0" dy="4.0" in="blurOut2" result="blurOut3"/><feBlend in="SourceGraphic" in2="blurOut3" mode="normal"/></filter></defs><g><!--entity mastermind--><polygon fill="#FFFFFF" filter="url(#fhk0h03xvjclm)" points="6,104,94,104,101,126.2969,118,126.2969,118,143.2969,6,143.2969,6,104" style="stroke: #000000; stroke-width: 1.5;"/><line style="stroke: #000000; stroke-width: 1.5;" x1="6" x2="101" y1="126.2969" y2="126.2969"/><text fill="#000000" font-family="sans-serif" font-size="14" lengthAdjust="spacingAndGlyphs" textLength="82" x="10" y="119.9951">mastermind</text><!--entity mastermind.controllers--><polygon fill="#FFFFFF" filter="url(#fhk0h03xvjclm)" points="153.5,104,318.5,104,325.5,126.2969,342.5,126.2969,342.5,143.2969,153.5,143.2969,153.5,104" style="stroke: #000000; stroke-width: 1.5;"/><line style="stroke: #000000; stroke-width: 1.5;" x1="153.5" x2="325.5" y1="126.2969" y2="126.2969"/><text fill="#000000" font-family="sans-serif" font-size="14" lengthAdjust="spacingAndGlyphs" textLength="159" x="157.5" y="119.9951">mastermind.controllers</text><!--entity mastermind.models--><polygon fill="#FFFFFF" filter="url(#fhk0h03xvjclm)" points="377.5,104,520.5,104,527.5,126.2969,544.5,126.2969,544.5,143.2969,377.5,143.2969,377.5,104" style="stroke: #000000; stroke-width: 1.5;"/><line style="stroke: #000000; stroke-width: 1.5;" x1="377.5" x2="527.5" y1="126.2969" y2="126.2969"/><text fill="#000000" font-family="sans-serif" font-size="14" lengthAdjust="spacingAndGlyphs" textLength="137" x="381.5" y="119.9951">mastermind.models</text><!--entity mastermind.views--><polygon fill="#FFFFFF" filter="url(#fhk0h03xvjclm)" points="580,104,710,104,717,126.2969,734,126.2969,734,143.2969,580,143.2969,580,104" style="stroke: #000000; stroke-width: 1.5;"/><line style="stroke: #000000; stroke-width: 1.5;" x1="580" x2="717" y1="126.2969" y2="126.2969"/><text fill="#000000" font-family="sans-serif" font-size="14" lengthAdjust="spacingAndGlyphs" textLength="124" x="584" y="119.9951">mastermind.views</text><!--entity mastermind.views.console--><polygon fill="#FFFFFF" filter="url(#fhk0h03xvjclm)" points="425.5,203,614.5,203,621.5,225.2969,638.5,225.2969,638.5,242.2969,425.5,242.2969,425.5,203" style="stroke: #000000; stroke-width: 1.5;"/><line style="stroke: #000000; stroke-width: 1.5;" x1="425.5" x2="621.5" y1="225.2969" y2="225.2969"/><text fill="#000000" font-family="sans-serif" font-size="14" lengthAdjust="spacingAndGlyphs" textLength="183" x="429.5" y="218.9951">mastermind.views.console</text><!--entity mastermind.views.graphics--><polygon fill="#FFFFFF" filter="url(#fhk0h03xvjclm)" points="673.5,203,866.5,203,873.5,225.2969,890.5,225.2969,890.5,242.2969,673.5,242.2969,673.5,203" style="stroke: #000000; stroke-width: 1.5;"/><line style="stroke: #000000; stroke-width: 1.5;" x1="673.5" x2="873.5" y1="225.2969" y2="225.2969"/><text fill="#000000" font-family="sans-serif" font-size="14" lengthAdjust="spacingAndGlyphs" textLength="187" x="677.5" y="218.9951">mastermind.views.graphics</text><!--entity mastermind.utils--><polygon fill="#FFFFFF" filter="url(#fhk0h03xvjclm)" points="769,104,889,104,896,126.2969,913,126.2969,913,143.2969,769,143.2969,769,104" style="stroke: #000000; stroke-width: 1.5;"/><line style="stroke: #000000; stroke-width: 1.5;" x1="769" x2="896" y1="126.2969" y2="126.2969"/><text fill="#000000" font-family="sans-serif" font-size="14" lengthAdjust="spacingAndGlyphs" textLength="114" x="773" y="119.9951">mastermind.utils</text><!--entity java.io--><polygon fill="#FFFFFF" filter="url(#fhk0h03xvjclm)" points="948,104,996,104,1003,126.2969,1020,126.2969,1020,143.2969,948,143.2969,948,104" style="stroke: #000000; stroke-width: 1.5;"/><line style="stroke: #000000; stroke-width: 1.5;" x1="948" x2="1003" y1="126.2969" y2="126.2969"/><text fill="#000000" font-family="sans-serif" font-size="14" lengthAdjust="spacingAndGlyphs" textLength="42" x="952" y="119.9951">java.io</text><!--entity java.util--><polygon fill="#FFFFFF" filter="url(#fhk0h03xvjclm)" points="1055,104,1111,104,1118,126.2969,1135,126.2969,1135,143.2969,1055,143.2969,1055,104" style="stroke: #000000; stroke-width: 1.5;"/><line style="stroke: #000000; stroke-width: 1.5;" x1="1055" x2="1118" y1="126.2969" y2="126.2969"/><text fill="#000000" font-family="sans-serif" font-size="14" lengthAdjust="spacingAndGlyphs" textLength="50" x="1059" y="119.9951">java.util</text><!--entity jar--><rect fill="#FEFECE" filter="url(#fhk0h03xvjclm)" height="36.2969" style="stroke: #A80036; stroke-width: 1.5;" width="122" x="596" y="8"/><rect fill="#FEFECE" height="5" style="stroke: #A80036; stroke-width: 1.5;" width="10" x="591" y="13"/><rect fill="#FEFECE" height="5" style="stroke: #A80036; stroke-width: 1.5;" width="10" x="591" y="34.2969"/><text fill="#000000" font-family="sans-serif" font-size="14" lengthAdjust="spacingAndGlyphs" textLength="102" x="606" y="30.9951">mastermind.jar</text><!--link jar to mastermind--><path d="M582.57,35.66 C481.11,48.01 293.93,72.67 136,104 C134.26,104.34 132.51,104.7 130.74,105.07 " fill="none" id="jar-mastermind" style="stroke: #A80036; stroke-width: 1.0;"/><polygon fill="#A80036" points="118.03,107.88,127.6801,109.8485,122.9127,106.8035,125.9577,102.0361,118.03,107.88" style="stroke: #A80036; stroke-width: 1.0;"/><line style="stroke: #A80036; stroke-width: 1.0;" x1="122.9127" x2="130.73" y1="106.8035" y2="105.075"/><polygon fill="#A80036" points="595.71,34.08,589.2703,30.8349,583.7981,35.5311,590.2377,38.7762,595.71,34.08" style="stroke: #A80036; stroke-width: 1.0;"/><!--link jar to mastermind.controllers--><path d="M582.75,44.34 C514.71,60.22 413.72,83.81 340.47,100.91 " fill="none" id="jar-mastermind.controllers" style="stroke: #A80036; stroke-width: 1.0;"/><polygon fill="#A80036" points="327.58,103.92,337.254,105.7675,332.4489,102.7825,335.434,97.9773,327.58,103.92" style="stroke: #A80036; stroke-width: 1.0;"/><line style="stroke: #A80036; stroke-width: 1.0;" x1="332.4489" x2="340.245" y1="102.7825" y2="100.96"/><polygon fill="#A80036" points="595.77,41.3,589.0173,38.7699,584.0847,44.0301,590.8374,46.5602,595.77,41.3" style="stroke: #A80036; stroke-width: 1.0;"/><!--link jar to mastermind.models--><path d="M610.01,49.9 C580.17,64.43 541.58,83.24 511.15,98.06 " fill="none" id="jar-mastermind.models" style="stroke: #A80036; stroke-width: 1.0;"/><polygon fill="#A80036" points="499.08,103.94,508.923,103.5992,503.5761,101.7524,505.4229,96.4055,499.08,103.94" style="stroke: #A80036; stroke-width: 1.0;"/><line style="stroke: #A80036; stroke-width: 1.0;" x1="503.5761" x2="510.77" y1="101.7524" y2="98.25"/><polygon fill="#A80036" points="621.96,44.07,614.8137,43.1053,611.1747,49.3308,618.3209,50.2955,621.96,44.07" style="stroke: #A80036; stroke-width: 1.0;"/><!--link jar to mastermind.views--><path d="M657,57.15 C657,67.82 657,79.86 657,90.66 " fill="none" id="jar-mastermind.views" style="stroke: #A80036; stroke-width: 1.0;"/><polygon fill="#A80036" points="657,103.94,661,94.94,657,98.94,653,94.94,657,103.94" style="stroke: #A80036; stroke-width: 1.0;"/><line style="stroke: #A80036; stroke-width: 1.0;" x1="657" x2="657" y1="98.94" y2="90.94"/><polygon fill="#A80036" points="657,44.07,653,50.07,657,56.07,661,50.07,657,44.07" style="stroke: #A80036; stroke-width: 1.0;"/><!--link mastermind.views to mastermind.views.console--><path d="M622.42,151.34 C604.94,164.9 583.79,181.31 566.35,194.85 " fill="none" id="mastermind.views-mastermind.views.console" style="stroke: #A80036; stroke-width: 1.0;"/><polygon fill="#A80036" points="556.03,202.85,565.5924,200.4921,559.98,199.7845,560.6876,194.1721,556.03,202.85" style="stroke: #A80036; stroke-width: 1.0;"/><line style="stroke: #A80036; stroke-width: 1.0;" x1="559.98" x2="566.3" y1="199.7845" y2="194.885"/><polygon fill="#A80036" points="632.9,143.2,625.7076,143.7186,623.42,150.5572,630.6124,150.0386,632.9,143.2" style="stroke: #A80036; stroke-width: 1.0;"/><!--link mastermind.views to mastermind.views.graphics--><path d="M691.58,151.34 C709.06,164.9 730.21,181.31 747.65,194.85 " fill="none" id="mastermind.views-mastermind.views.graphics" style="stroke: #A80036; stroke-width: 1.0;"/><polygon fill="#A80036" points="757.97,202.85,753.3124,194.1721,754.02,199.7845,748.4076,200.4921,757.97,202.85" style="stroke: #A80036; stroke-width: 1.0;"/><line style="stroke: #A80036; stroke-width: 1.0;" x1="754.02" x2="747.7" y1="199.7845" y2="194.885"/><polygon fill="#A80036" points="681.1,143.2,683.3876,150.0386,690.58,150.5572,688.2924,143.7186,681.1,143.2" style="stroke: #A80036; stroke-width: 1.0;"/><!--link jar to mastermind.utils--><path d="M701.53,50.11 C729.38,64.57 765.22,83.17 793.59,97.89 " fill="none" id="jar-mastermind.utils" style="stroke: #A80036; stroke-width: 1.0;"/><polygon fill="#A80036" points="805.25,103.94,799.1057,96.2428,800.8125,101.636,795.4193,103.3428,805.25,103.94" style="stroke: #A80036; stroke-width: 1.0;"/><line style="stroke: #A80036; stroke-width: 1.0;" x1="800.8125" x2="793.705" y1="101.636" y2="97.955"/><polygon fill="#A80036" points="689.9,44.07,693.385,50.383,700.5529,49.5942,697.0678,43.2811,689.9,44.07" style="stroke: #A80036; stroke-width: 1.0;"/><!--link jar to java.io--><path d="M731.13,46.5 C786.47,61.38 863.8,82.85 931,104 C932.46,104.46 933.93,104.93 935.42,105.41 " fill="none" id="jar-java.io" style="stroke: #A80036; stroke-width: 1.0;"/><polygon fill="#A80036" points="947.89,109.56,940.6121,102.9243,943.1455,107.9822,938.0876,110.5155,947.89,109.56" style="stroke: #A80036; stroke-width: 1.0;"/><line style="stroke: #A80036; stroke-width: 1.0;" x1="943.1455" x2="935.555" y1="107.9822" y2="105.455"/><polygon fill="#A80036" points="718.26,43.05,723.0176,48.469,729.8496,46.1616,725.092,40.7426,718.26,43.05" style="stroke: #A80036; stroke-width: 1.0;"/><!--link jar to java.util--><path d="M731.12,39.39 C808.31,52.89 932.49,76.31 1038,104 C1039.47,104.39 1040.96,104.79 1042.46,105.2 " fill="none" id="jar-java.util" style="stroke: #A80036; stroke-width: 1.0;"/><polygon fill="#A80036" points="1055,108.88,1047.4892,102.5091,1050.202,107.473,1045.2381,110.1858,1055,108.88" style="stroke: #A80036; stroke-width: 1.0;"/><line style="stroke: #A80036; stroke-width: 1.0;" x1="1050.202" x2="1042.52" y1="107.473" y2="105.225"/><polygon fill="#A80036" points="718.2,37.14,723.4259,42.1089,730.0225,39.1961,724.7966,34.2272,718.2,37.14" style="stroke: #A80036; stroke-width: 1.0;"/><!--
@startuml

package "  "  as mastermind {
}
package "  "  as mastermind.controllers {
}
package "  "  as mastermind.models {
}
package "  "  as mastermind.views {
}
package "  "  as mastermind.views.console {
}
package "  "  as mastermind.views.graphics {
}
package "  "  as mastermind.utils {
}
package "  "  as java.io {
}
package "  "  as java.util {
}

[mastermind.jar] as jar

jar *- -> mastermind
jar *- -> mastermind.controllers
jar *- -> mastermind.models
jar *- -> mastermind.views
mastermind.views *- -> mastermind.views.console
mastermind.views *- -> mastermind.views.graphics
jar *- -> mastermind.utils
jar *- -> java.io
jar *- -> java.util
@enduml

PlantUML version 1.2019.05(Sat Apr 20 18:45:36 CEST 2019)
(GPL source distribution)
Java Runtime: OpenJDK Runtime Environment
JVM: OpenJDK 64-Bit Server VM
Java Version: 1.8.0_265-8u265-b01-0ubuntu2~20.04-b01
Operating System: Linux
OS Version: 5.4.0-51-generic
Default Encoding: UTF-8
Language: es
Country: ES
--></g></svg>