<?xml version="1.0" encoding="UTF-8" standalone="no"?><svg xmlns="http://www.w3.org/2000/svg" xmlns:xlink="http://www.w3.org/1999/xlink" contentScriptType="application/ecmascript" contentStyleType="text/css" height="202px" preserveAspectRatio="none" style="width:220px;height:202px;" version="1.1" viewBox="0 0 220 202" width="220px" zoomAndPan="magnify"><defs><filter height="300%" id="f1ot7265da6ysq" width="300%" x="-1" y="-1"><feGaussianBlur result="blurOut" stdDeviation="2.0"/><feColorMatrix in="blurOut" result="blurOut2" type="matrix" values="0 0 0 0 0 0 0 0 0 0 0 0 0 0 0 0 0 0 .4 0"/><feOffset dx="4.0" dy="4.0" in="blurOut2" result="blurOut3"/><feBlend in="SourceGraphic" in2="blurOut3" mode="normal"/></filter></defs><g><!--entity node--><polygon fill="#DDDDDD" filter="url(#f1ot7265da6ysq)" points="6,18,16,8,198,8,198,84.8906,188,94.8906,6,94.8906,6,18" style="stroke: #000000; stroke-width: 1.5;"/><line style="stroke: #000000; stroke-width: 1.5;" x1="188" x2="197" y1="18" y2="9"/><line style="stroke: #000000; stroke-width: 1.5;" x1="6" x2="188" y1="18" y2="18"/><line style="stroke: #000000; stroke-width: 1.5;" x1="188" x2="188" y1="18" y2="94.8906"/><text fill="#000000" font-family="sans-serif" font-size="14" font-weight="bold" lengthAdjust="spacingAndGlyphs" textLength="152" x="21" y="40.9951">Personal Computer</text><line style="stroke: #000000; stroke-width: 1.0;" x1="6" x2="188" y1="44.2969" y2="44.2969"/><line style="stroke: #000000; stroke-width: 1.0;" x1="188" x2="198" y1="44.2969" y2="34.2969"/><text fill="#000000" font-family="sans-serif" font-size="14" lengthAdjust="spacingAndGlyphs" textLength="115" x="27" y="61.292">memory : xxx Mb</text><text fill="#000000" font-family="sans-serif" font-size="14" lengthAdjust="spacingAndGlyphs" textLength="93" x="27" y="77.5889">cpu : xxx GHz</text><!--entity component--><rect fill="#FEFECE" filter="url(#f1ot7265da6ysq)" height="36.2969" style="stroke: #A80036; stroke-width: 1.5;" width="122" x="41" y="155"/><rect fill="#FEFECE" height="5" style="stroke: #A80036; stroke-width: 1.5;" width="10" x="36" y="160"/><rect fill="#FEFECE" height="5" style="stroke: #A80036; stroke-width: 1.5;" width="10" x="36" y="181.2969"/><text fill="#000000" font-family="sans-serif" font-size="14" lengthAdjust="spacingAndGlyphs" textLength="102" x="51" y="177.9951">mastermind.jar</text><!--link node to component--><path d="M102,108.4 C102,119.92 102,131.63 102,141.81 " fill="none" id="node-component" style="stroke: #A80036; stroke-width: 1.0;"/><polygon fill="#A80036" points="102,155,106,146,102,150,98,146,102,155" style="stroke: #A80036; stroke-width: 1.0;"/><line style="stroke: #A80036; stroke-width: 1.0;" x1="102" x2="102" y1="150" y2="142"/><polygon fill="#A80036" points="102,95.3,98,101.3,102,107.3,106,101.3,102,95.3" style="stroke: #A80036; stroke-width: 1.0;"/><!--
@startuml

node node #DDDDDD [
<b>Personal Computer</b>
- - - -
memory : xxx Mb
cpu : xxx GHz
]

[ mastermind.jar ] as component

node *- -> component
@enduml

PlantUML version 1.2019.05(Sat Apr 20 18:45:36 CEST 2019)
(GPL source distribution)
Java Runtime: OpenJDK Runtime Environment
JVM: OpenJDK 64-Bit Server VM
Java Version: 1.8.0_265-8u265-b01-0ubuntu2~20.04-b01
Operating System: Linux
OS Version: 5.4.0-51-generic
Default Encoding: UTF-8
Language: es
Country: ES
--></g></svg>