<?xml version="1.0" encoding="UTF-8" standalone="no"?><svg xmlns="http://www.w3.org/2000/svg" xmlns:xlink="http://www.w3.org/1999/xlink" contentScriptType="application/ecmascript" contentStyleType="text/css" height="254px" preserveAspectRatio="none" style="width:1288px;height:254px;" version="1.1" viewBox="0 0 1288 254" width="1288px" zoomAndPan="magnify"><defs><filter height="300%" id="f153otnl7sb3bu" width="300%" x="-1" y="-1"><feGaussianBlur result="blurOut" stdDeviation="2.0"/><feColorMatrix in="blurOut" result="blurOut2" type="matrix" values="0 0 0 0 0 0 0 0 0 0 0 0 0 0 0 0 0 0 .4 0"/><feOffset dx="4.0" dy="4.0" in="blurOut2" result="blurOut3"/><feBlend in="SourceGraphic" in2="blurOut3" mode="normal"/></filter></defs><g><!--entity mastermind--><polygon fill="#FFFFFF" filter="url(#f153otnl7sb3bu)" points="137,104,225,104,232,126.2969,249,126.2969,249,143.2969,137,143.2969,137,104" style="stroke: #000000; stroke-width: 1.5;"/><line style="stroke: #000000; stroke-width: 1.5;" x1="137" x2="232" y1="126.2969" y2="126.2969"/><text fill="#000000" font-family="sans-serif" font-size="14" lengthAdjust="spacingAndGlyphs" textLength="82" x="141" y="119.9951">mastermind</text><!--entity mastermind.controllers--><polygon fill="#FFFFFF" filter="url(#f153otnl7sb3bu)" points="284.5,104,449.5,104,456.5,126.2969,473.5,126.2969,473.5,143.2969,284.5,143.2969,284.5,104" style="stroke: #000000; stroke-width: 1.5;"/><line style="stroke: #000000; stroke-width: 1.5;" x1="284.5" x2="456.5" y1="126.2969" y2="126.2969"/><text fill="#000000" font-family="sans-serif" font-size="14" lengthAdjust="spacingAndGlyphs" textLength="159" x="288.5" y="119.9951">mastermind.controllers</text><!--entity mastermind.controllers.console--><polygon fill="#FFFFFF" filter="url(#f153otnl7sb3bu)" points="6,203,230,203,237,225.2969,254,225.2969,254,242.2969,6,242.2969,6,203" style="stroke: #000000; stroke-width: 1.5;"/><line style="stroke: #000000; stroke-width: 1.5;" x1="6" x2="237" y1="225.2969" y2="225.2969"/><text fill="#000000" font-family="sans-serif" font-size="14" lengthAdjust="spacingAndGlyphs" textLength="218" x="10" y="218.9951">mastermind.controllers.console</text><!--entity mastermind.controllers.graphics--><polygon fill="#FFFFFF" filter="url(#f153otnl7sb3bu)" points="289,203,517,203,524,225.2969,541,225.2969,541,242.2969,289,242.2969,289,203" style="stroke: #000000; stroke-width: 1.5;"/><line style="stroke: #000000; stroke-width: 1.5;" x1="289" x2="524" y1="225.2969" y2="225.2969"/><text fill="#000000" font-family="sans-serif" font-size="14" lengthAdjust="spacingAndGlyphs" textLength="222" x="293" y="218.9951">mastermind.controllers.graphics</text><!--entity mastermind.models--><polygon fill="#FFFFFF" filter="url(#f153otnl7sb3bu)" points="508.5,104,651.5,104,658.5,126.2969,675.5,126.2969,675.5,143.2969,508.5,143.2969,508.5,104" style="stroke: #000000; stroke-width: 1.5;"/><line style="stroke: #000000; stroke-width: 1.5;" x1="508.5" x2="658.5" y1="126.2969" y2="126.2969"/><text fill="#000000" font-family="sans-serif" font-size="14" lengthAdjust="spacingAndGlyphs" textLength="137" x="512.5" y="119.9951">mastermind.models</text><!--entity mastermind.views--><polygon fill="#FFFFFF" filter="url(#f153otnl7sb3bu)" points="711,104,841,104,848,126.2969,865,126.2969,865,143.2969,711,143.2969,711,104" style="stroke: #000000; stroke-width: 1.5;"/><line style="stroke: #000000; stroke-width: 1.5;" x1="711" x2="848" y1="126.2969" y2="126.2969"/><text fill="#000000" font-family="sans-serif" font-size="14" lengthAdjust="spacingAndGlyphs" textLength="124" x="715" y="119.9951">mastermind.views</text><!--entity mastermind.views.console--><polygon fill="#FFFFFF" filter="url(#f153otnl7sb3bu)" points="646.5,203,835.5,203,842.5,225.2969,859.5,225.2969,859.5,242.2969,646.5,242.2969,646.5,203" style="stroke: #000000; stroke-width: 1.5;"/><line style="stroke: #000000; stroke-width: 1.5;" x1="646.5" x2="842.5" y1="225.2969" y2="225.2969"/><text fill="#000000" font-family="sans-serif" font-size="14" lengthAdjust="spacingAndGlyphs" textLength="183" x="650.5" y="218.9951">mastermind.views.console</text><!--entity mastermind.views.graphics--><polygon fill="#FFFFFF" filter="url(#f153otnl7sb3bu)" points="894.5,203,1087.5,203,1094.5,225.2969,1111.5,225.2969,1111.5,242.2969,894.5,242.2969,894.5,203" style="stroke: #000000; stroke-width: 1.5;"/><line style="stroke: #000000; stroke-width: 1.5;" x1="894.5" x2="1094.5" y1="225.2969" y2="225.2969"/><text fill="#000000" font-family="sans-serif" font-size="14" lengthAdjust="spacingAndGlyphs" textLength="187" x="898.5" y="218.9951">mastermind.views.graphics</text><!--entity mastermind.utils--><polygon fill="#FFFFFF" filter="url(#f153otnl7sb3bu)" points="900,104,1020,104,1027,126.2969,1044,126.2969,1044,143.2969,900,143.2969,900,104" style="stroke: #000000; stroke-width: 1.5;"/><line style="stroke: #000000; stroke-width: 1.5;" x1="900" x2="1027" y1="126.2969" y2="126.2969"/><text fill="#000000" font-family="sans-serif" font-size="14" lengthAdjust="spacingAndGlyphs" textLength="114" x="904" y="119.9951">mastermind.utils</text><!--entity java.io--><polygon fill="#FFFFFF" filter="url(#f153otnl7sb3bu)" points="1079,104,1127,104,1134,126.2969,1151,126.2969,1151,143.2969,1079,143.2969,1079,104" style="stroke: #000000; stroke-width: 1.5;"/><line style="stroke: #000000; stroke-width: 1.5;" x1="1079" x2="1134" y1="126.2969" y2="126.2969"/><text fill="#000000" font-family="sans-serif" font-size="14" lengthAdjust="spacingAndGlyphs" textLength="42" x="1083" y="119.9951">java.io</text><!--entity java.util--><polygon fill="#FFFFFF" filter="url(#f153otnl7sb3bu)" points="1186,104,1242,104,1249,126.2969,1266,126.2969,1266,143.2969,1186,143.2969,1186,104" style="stroke: #000000; stroke-width: 1.5;"/><line style="stroke: #000000; stroke-width: 1.5;" x1="1186" x2="1249" y1="126.2969" y2="126.2969"/><text fill="#000000" font-family="sans-serif" font-size="14" lengthAdjust="spacingAndGlyphs" textLength="50" x="1190" y="119.9951">java.util</text><!--entity jar--><rect fill="#FEFECE" filter="url(#f153otnl7sb3bu)" height="36.2969" style="stroke: #A80036; stroke-width: 1.5;" width="122" x="727" y="8"/><rect fill="#FEFECE" height="5" style="stroke: #A80036; stroke-width: 1.5;" width="10" x="722" y="13"/><rect fill="#FEFECE" height="5" style="stroke: #A80036; stroke-width: 1.5;" width="10" x="722" y="34.2969"/><text fill="#000000" font-family="sans-serif" font-size="14" lengthAdjust="spacingAndGlyphs" textLength="102" x="737" y="30.9951">mastermind.jar</text><!--link jar to mastermind--><path d="M713.57,35.66 C612.11,48.01 424.93,72.67 267,104 C265.26,104.34 263.51,104.7 261.74,105.07 " fill="none" id="jar-mastermind" style="stroke: #A80036; stroke-width: 1.0;"/><polygon fill="#A80036" points="249.03,107.88,258.6801,109.8485,253.9127,106.8035,256.9577,102.0361,249.03,107.88" style="stroke: #A80036; stroke-width: 1.0;"/><line style="stroke: #A80036; stroke-width: 1.0;" x1="253.9127" x2="261.73" y1="106.8035" y2="105.075"/><polygon fill="#A80036" points="726.71,34.08,720.2703,30.8349,714.7981,35.5311,721.2377,38.7762,726.71,34.08" style="stroke: #A80036; stroke-width: 1.0;"/><!--link jar to mastermind.controllers--><path d="M713.75,44.34 C645.71,60.22 544.72,83.81 471.47,100.91 " fill="none" id="jar-mastermind.controllers" style="stroke: #A80036; stroke-width: 1.0;"/><polygon fill="#A80036" points="458.58,103.92,468.254,105.7675,463.4489,102.7825,466.434,97.9773,458.58,103.92" style="stroke: #A80036; stroke-width: 1.0;"/><line style="stroke: #A80036; stroke-width: 1.0;" x1="463.4489" x2="471.245" y1="102.7825" y2="100.96"/><polygon fill="#A80036" points="726.77,41.3,720.0173,38.7699,715.0847,44.0301,721.8374,46.5602,726.77,41.3" style="stroke: #A80036; stroke-width: 1.0;"/><!--link mastermind.controllers to mastermind.controllers.console--><path d="M319.17,147.81 C280,163.07 229,182.93 189.83,198.19 " fill="none" id="mastermind.controllers-mastermind.controllers.console" style="stroke: #A80036; stroke-width: 1.0;"/><polygon fill="#A80036" points="177.55,202.98,187.3879,203.4438,182.2096,201.1667,184.4867,195.9884,177.55,202.98" style="stroke: #A80036; stroke-width: 1.0;"/><line style="stroke: #A80036; stroke-width: 1.0;" x1="182.2096" x2="189.67" y1="201.1667" y2="198.26"/><polygon fill="#A80036" points="331.28,143.09,324.2378,141.5383,320.0969,147.4419,327.1391,148.9936,331.28,143.09" style="stroke: #A80036; stroke-width: 1.0;"/><!--link mastermind.controllers to mastermind.controllers.graphics--><path d="M390.5,155.47 C394.65,166.68 399.35,179.33 403.51,190.54 " fill="none" id="mastermind.controllers-mastermind.controllers.graphics" style="stroke: #A80036; stroke-width: 1.0;"/><polygon fill="#A80036" points="408.08,202.85,408.6943,193.0203,406.3382,198.1632,401.1954,195.8071,408.08,202.85" style="stroke: #A80036; stroke-width: 1.0;"/><line style="stroke: #A80036; stroke-width: 1.0;" x1="406.3382" x2="403.555" y1="198.1632" y2="190.665"/><polygon fill="#A80036" points="385.94,143.2,384.2734,150.2159,390.1086,154.4527,391.7752,147.4368,385.94,143.2" style="stroke: #A80036; stroke-width: 1.0;"/><!--link jar to mastermind.models--><path d="M741.01,49.9 C711.17,64.43 672.58,83.24 642.15,98.06 " fill="none" id="jar-mastermind.models" style="stroke: #A80036; stroke-width: 1.0;"/><polygon fill="#A80036" points="630.08,103.94,639.923,103.5992,634.5761,101.7524,636.4229,96.4055,630.08,103.94" style="stroke: #A80036; stroke-width: 1.0;"/><line style="stroke: #A80036; stroke-width: 1.0;" x1="634.5761" x2="641.77" y1="101.7524" y2="98.25"/><polygon fill="#A80036" points="752.96,44.07,745.8137,43.1053,742.1747,49.3308,749.3209,50.2955,752.96,44.07" style="stroke: #A80036; stroke-width: 1.0;"/><!--link jar to mastermind.views--><path d="M788,57.15 C788,67.82 788,79.86 788,90.66 " fill="none" id="jar-mastermind.views" style="stroke: #A80036; stroke-width: 1.0;"/><polygon fill="#A80036" points="788,103.94,792,94.94,788,98.94,784,94.94,788,103.94" style="stroke: #A80036; stroke-width: 1.0;"/><line style="stroke: #A80036; stroke-width: 1.0;" x1="788" x2="788" y1="98.94" y2="90.94"/><polygon fill="#A80036" points="788,44.07,784,50.07,788,56.07,792,50.07,788,44.07" style="stroke: #A80036; stroke-width: 1.0;"/><!--link mastermind.views to mastermind.views.console--><path d="M776.82,155.47 C772.78,166.68 768.22,179.33 764.17,190.54 " fill="none" id="mastermind.views-mastermind.views.console" style="stroke: #A80036; stroke-width: 1.0;"/><polygon fill="#A80036" points="759.73,202.85,766.5482,195.7428,761.4277,198.147,759.0235,193.0265,759.73,202.85" style="stroke: #A80036; stroke-width: 1.0;"/><line style="stroke: #A80036; stroke-width: 1.0;" x1="761.4277" x2="764.14" y1="198.147" y2="190.625"/><polygon fill="#A80036" points="781.25,143.2,775.4504,147.4854,777.1756,154.4871,782.9752,150.2017,781.25,143.2" style="stroke: #A80036; stroke-width: 1.0;"/><!--link mastermind.views to mastermind.views.graphics--><path d="M841.36,148.57 C874.42,163.49 916.73,182.58 949.77,197.48 " fill="none" id="mastermind.views-mastermind.views.graphics" style="stroke: #A80036; stroke-width: 1.0;"/><polygon fill="#A80036" points="961.94,202.98,955.3778,195.6357,957.3814,200.9259,952.0913,202.9295,961.94,202.98" style="stroke: #A80036; stroke-width: 1.0;"/><line style="stroke: #A80036; stroke-width: 1.0;" x1="957.3814" x2="950.09" y1="200.9259" y2="197.63"/><polygon fill="#A80036" points="829.2,143.09,833.0242,149.2035,840.1384,148.0248,836.3141,141.9113,829.2,143.09" style="stroke: #A80036; stroke-width: 1.0;"/><!--link jar to mastermind.utils--><path d="M832.53,50.11 C860.38,64.57 896.22,83.17 924.59,97.89 " fill="none" id="jar-mastermind.utils" style="stroke: #A80036; stroke-width: 1.0;"/><polygon fill="#A80036" points="936.25,103.94,930.1057,96.2428,931.8125,101.636,926.4193,103.3428,936.25,103.94" style="stroke: #A80036; stroke-width: 1.0;"/><line style="stroke: #A80036; stroke-width: 1.0;" x1="931.8125" x2="924.705" y1="101.636" y2="97.955"/><polygon fill="#A80036" points="820.9,44.07,824.385,50.383,831.5529,49.5942,828.0678,43.2811,820.9,44.07" style="stroke: #A80036; stroke-width: 1.0;"/><!--link jar to java.io--><path d="M862.13,46.5 C917.47,61.38 994.8,82.85 1062,104 C1063.46,104.46 1064.93,104.93 1066.42,105.41 " fill="none" id="jar-java.io" style="stroke: #A80036; stroke-width: 1.0;"/><polygon fill="#A80036" points="1078.89,109.56,1071.6121,102.9243,1074.1455,107.9822,1069.0876,110.5155,1078.89,109.56" style="stroke: #A80036; stroke-width: 1.0;"/><line style="stroke: #A80036; stroke-width: 1.0;" x1="1074.1455" x2="1066.555" y1="107.9822" y2="105.455"/><polygon fill="#A80036" points="849.26,43.05,854.0176,48.469,860.8496,46.1616,856.092,40.7426,849.26,43.05" style="stroke: #A80036; stroke-width: 1.0;"/><!--link jar to java.util--><path d="M862.12,39.39 C939.31,52.89 1063.49,76.31 1169,104 C1170.47,104.39 1171.96,104.79 1173.46,105.2 " fill="none" id="jar-java.util" style="stroke: #A80036; stroke-width: 1.0;"/><polygon fill="#A80036" points="1186,108.88,1178.4892,102.5091,1181.202,107.473,1176.2381,110.1858,1186,108.88" style="stroke: #A80036; stroke-width: 1.0;"/><line style="stroke: #A80036; stroke-width: 1.0;" x1="1181.202" x2="1173.52" y1="107.473" y2="105.225"/><polygon fill="#A80036" points="849.2,37.14,854.4259,42.1089,861.0225,39.1961,855.7966,34.2272,849.2,37.14" style="stroke: #A80036; stroke-width: 1.0;"/><!--
@startuml

package "  "  as mastermind {
}
package "  "  as mastermind.controllers {
}
package "  "  as mastermind.controllers.console {
}
package "  "  as mastermind.controllers.graphics {
}
package "  "  as mastermind.models {
}
package "  "  as mastermind.views {
}
package "  "  as mastermind.views.console {
}
package "  "  as mastermind.views.graphics {
}
package "  "  as mastermind.utils {
}
package "  "  as java.io {
}
package "  "  as java.util {
}

[mastermind.jar] as jar

jar *- -> mastermind
jar *- -> mastermind.controllers
mastermind.controllers *- -> mastermind.controllers.console
mastermind.controllers *- -> mastermind.controllers.graphics
jar *- -> mastermind.models
jar *- -> mastermind.views
mastermind.views *- -> mastermind.views.console
mastermind.views *- -> mastermind.views.graphics
jar *- -> mastermind.utils
jar *- -> java.io
jar *- -> java.util
@enduml

PlantUML version 1.2019.05(Sat Apr 20 18:45:36 CEST 2019)
(GPL source distribution)
Java Runtime: OpenJDK Runtime Environment
JVM: OpenJDK 64-Bit Server VM
Java Version: 1.8.0_265-8u265-b01-0ubuntu2~20.04-b01
Operating System: Linux
OS Version: 5.4.0-52-generic
Default Encoding: UTF-8
Language: es
Country: ES
--></g></svg>