<?xml version="1.0" encoding="UTF-8" standalone="no"?><svg xmlns="http://www.w3.org/2000/svg" xmlns:xlink="http://www.w3.org/1999/xlink" contentScriptType="application/ecmascript" contentStyleType="text/css" height="717px" preserveAspectRatio="none" style="width:1982px;height:717px;" version="1.1" viewBox="0 0 1982 717" width="1982px" zoomAndPan="magnify"><defs><filter height="300%" id="ftua2cc0pkmlo" width="300%" x="-1" y="-1"><feGaussianBlur result="blurOut" stdDeviation="2.0"/><feColorMatrix in="blurOut" result="blurOut2" type="matrix" values="0 0 0 0 0 0 0 0 0 0 0 0 0 0 0 0 0 0 .4 0"/><feOffset dx="4.0" dy="4.0" in="blurOut2" result="blurOut3"/><feBlend in="SourceGraphic" in2="blurOut3" mode="normal"/></filter></defs><g><!--cluster amartinm.mastermind.controllers.implementation--><polygon fill="#FFFFFF" filter="url(#ftua2cc0pkmlo)" points="22,147,416,147,423,169.2969,1063,169.2969,1063,705,22,705,22,147" style="stroke: #000000; stroke-width: 1.5;"/><line style="stroke: #000000; stroke-width: 1.5;" x1="22" x2="423" y1="169.2969" y2="169.2969"/><text fill="#000000" font-family="sans-serif" font-size="14" font-weight="bold" lengthAdjust="spacingAndGlyphs" textLength="388" x="26" y="161.9951">amartinm.mastermind.controllers.implementation</text><!--cluster amartinm.mastermind.controllers--><polygon fill="#FFFFFF" filter="url(#ftua2cc0pkmlo)" points="278,24,546,24,553,46.2969,865,46.2969,865,123,278,123,278,24" style="stroke: #000000; stroke-width: 1.5;"/><line style="stroke: #000000; stroke-width: 1.5;" x1="278" x2="553" y1="46.2969" y2="46.2969"/><text fill="#000000" font-family="sans-serif" font-size="14" font-weight="bold" lengthAdjust="spacingAndGlyphs" textLength="262" x="282" y="38.9951">amartinm.mastermind.controllers</text><!--cluster amartinm.mastermind.models--><polygon fill="#FFFFFF" filter="url(#ftua2cc0pkmlo)" points="1087,606,1326,606,1333,628.2969,1960,628.2969,1960,705,1087,705,1087,606" style="stroke: #000000; stroke-width: 1.5;"/><line style="stroke: #000000; stroke-width: 1.5;" x1="1087" x2="1333" y1="628.2969" y2="628.2969"/><text fill="#000000" font-family="sans-serif" font-size="14" font-weight="bold" lengthAdjust="spacingAndGlyphs" textLength="233" x="1091" y="620.9951">amartinm.mastermind.models</text><!--class amartinm.mastermind.controllers.implementation.ResumeControllerImplementation--><rect fill="#FEFECE" filter="url(#ftua2cc0pkmlo)" height="86.4141" id="amartinm.mastermind.controllers.implementation.ResumeControllerImplementation" style="stroke: #A80036; stroke-width: 1.5;" width="301" x="409.5" y="418"/><ellipse cx="451.95" cy="434" fill="#ADD1B2" rx="11" ry="11" style="stroke: #A80036; stroke-width: 1.0;"/><path d="M454.9188,439.6406 Q454.3406,439.9375 453.7,440.0781 Q453.0594,440.2344 452.3563,440.2344 Q449.8563,440.2344 448.5281,438.5938 Q447.2156,436.9375 447.2156,433.8125 Q447.2156,430.6875 448.5281,429.0313 Q449.8563,427.375 452.3563,427.375 Q453.0594,427.375 453.7,427.5313 Q454.3563,427.6875 454.9188,427.9844 L454.9188,430.7031 Q454.2938,430.125 453.7,429.8594 Q453.1063,429.5781 452.4813,429.5781 Q451.1375,429.5781 450.45,430.6563 Q449.7625,431.7188 449.7625,433.8125 Q449.7625,435.9063 450.45,436.9844 Q451.1375,438.0469 452.4813,438.0469 Q453.1063,438.0469 453.7,437.7813 Q454.2938,437.5 454.9188,436.9219 L454.9188,439.6406 Z "/><text fill="#000000" font-family="sans-serif" font-size="12" lengthAdjust="spacingAndGlyphs" textLength="208" x="472.05" y="438.1543">ResumeControllerImplementation</text><line style="stroke: #A80036; stroke-width: 1.5;" x1="410.5" x2="709.5" y1="450" y2="450"/><rect fill="none" height="6" style="stroke: #C82930; stroke-width: 1.0;" width="6" x="417.5" y="458.9023"/><text fill="#000000" font-family="sans-serif" font-size="11" lengthAdjust="spacingAndGlyphs" textLength="275" x="429.5" y="464.2104">sessionImplementation: SessionImplementation</text><line style="stroke: #A80036; stroke-width: 1.5;" x1="410.5" x2="709.5" y1="470.8047" y2="470.8047"/><ellipse cx="420.5" cy="482.707" fill="#84BE84" rx="3" ry="3" style="stroke: #038048; stroke-width: 1.0;"/><text fill="#000000" font-family="sans-serif" font-size="11" lengthAdjust="spacingAndGlyphs" textLength="244" x="429.5" y="485.0151">ResumeControllerImplementation(Session)</text><ellipse cx="420.5" cy="495.5117" fill="#84BE84" rx="3" ry="3" style="stroke: #038048; stroke-width: 1.0;"/><text fill="#000000" font-family="sans-serif" font-size="11" lengthAdjust="spacingAndGlyphs" textLength="128" x="429.5" y="497.8198">resume(boolean): void</text><!--class amartinm.mastermind.controllers.implementation.StartControllerImplementation--><rect fill="#FEFECE" filter="url(#ftua2cc0pkmlo)" height="86.4141" id="amartinm.mastermind.controllers.implementation.StartControllerImplementation" style="stroke: #A80036; stroke-width: 1.5;" width="301" x="745.5" y="418"/><ellipse cx="797.25" cy="434" fill="#ADD1B2" rx="11" ry="11" style="stroke: #A80036; stroke-width: 1.0;"/><path d="M800.2188,439.6406 Q799.6406,439.9375 799,440.0781 Q798.3594,440.2344 797.6563,440.2344 Q795.1563,440.2344 793.8281,438.5938 Q792.5156,436.9375 792.5156,433.8125 Q792.5156,430.6875 793.8281,429.0313 Q795.1563,427.375 797.6563,427.375 Q798.3594,427.375 799,427.5313 Q799.6563,427.6875 800.2188,427.9844 L800.2188,430.7031 Q799.5938,430.125 799,429.8594 Q798.4063,429.5781 797.7813,429.5781 Q796.4375,429.5781 795.75,430.6563 Q795.0625,431.7188 795.0625,433.8125 Q795.0625,435.9063 795.75,436.9844 Q796.4375,438.0469 797.7813,438.0469 Q798.4063,438.0469 799,437.7813 Q799.5938,437.5 800.2188,436.9219 L800.2188,439.6406 Z "/><text fill="#000000" font-family="sans-serif" font-size="12" lengthAdjust="spacingAndGlyphs" textLength="189" x="817.75" y="438.1543">StartControllerImplementation</text><line style="stroke: #A80036; stroke-width: 1.5;" x1="746.5" x2="1045.5" y1="450" y2="450"/><polygon fill="none" points="756.5,457.9023,752.5,463.9023,760.5,463.9023" style="stroke: #1963A0; stroke-width: 1.0;"/><text fill="#000000" font-family="sans-serif" font-size="11" lengthAdjust="spacingAndGlyphs" textLength="275" x="765.5" y="464.2104">sessionImplementation: SessionImplementation</text><line style="stroke: #A80036; stroke-width: 1.5;" x1="746.5" x2="1045.5" y1="470.8047" y2="470.8047"/><ellipse cx="756.5" cy="482.707" fill="#84BE84" rx="3" ry="3" style="stroke: #038048; stroke-width: 1.0;"/><text fill="#000000" font-family="sans-serif" font-size="11" lengthAdjust="spacingAndGlyphs" textLength="226" x="765.5" y="485.0151">StartControllerImplementation(Session)</text><ellipse cx="756.5" cy="495.5117" fill="#84BE84" rx="3" ry="3" style="stroke: #038048; stroke-width: 1.0;"/><text fill="#000000" font-family="sans-serif" font-size="11" lengthAdjust="spacingAndGlyphs" textLength="66" x="765.5" y="497.8198">start(): void</text><!--class amartinm.mastermind.controllers.implementation.PlayControllerImplementation--><rect fill="#FEFECE" filter="url(#ftua2cc0pkmlo)" height="240.0703" id="amartinm.mastermind.controllers.implementation.PlayControllerImplementation" style="stroke: #A80036; stroke-width: 1.5;" width="336" x="38" y="341"/><ellipse cx="110.25" cy="357" fill="#ADD1B2" rx="11" ry="11" style="stroke: #A80036; stroke-width: 1.0;"/><path d="M113.2188,362.6406 Q112.6406,362.9375 112,363.0781 Q111.3594,363.2344 110.6563,363.2344 Q108.1563,363.2344 106.8281,361.5938 Q105.5156,359.9375 105.5156,356.8125 Q105.5156,353.6875 106.8281,352.0313 Q108.1563,350.375 110.6563,350.375 Q111.3594,350.375 112,350.5313 Q112.6563,350.6875 113.2188,350.9844 L113.2188,353.7031 Q112.5938,353.125 112,352.8594 Q111.4063,352.5781 110.7813,352.5781 Q109.4375,352.5781 108.75,353.6563 Q108.0625,354.7188 108.0625,356.8125 Q108.0625,358.9063 108.75,359.9844 Q109.4375,361.0469 110.7813,361.0469 Q111.4063,361.0469 112,360.7813 Q112.5938,360.5 113.2188,359.9219 L113.2188,362.6406 Z "/><text fill="#000000" font-family="sans-serif" font-size="12" lengthAdjust="spacingAndGlyphs" textLength="183" x="130.75" y="361.1543">PlayControllerImplementation</text><line style="stroke: #A80036; stroke-width: 1.5;" x1="39" x2="373" y1="373" y2="373"/><rect fill="none" height="6" style="stroke: #C82930; stroke-width: 1.0;" width="6" x="46" y="381.9023"/><text fill="#000000" font-family="sans-serif" font-size="11" lengthAdjust="spacingAndGlyphs" textLength="220" x="58" y="387.2104">proposalController: ProposalController</text><rect fill="none" height="6" style="stroke: #C82930; stroke-width: 1.0;" width="6" x="46" y="394.707"/><text fill="#000000" font-family="sans-serif" font-size="11" lengthAdjust="spacingAndGlyphs" textLength="177" x="58" y="400.0151">undoController: UndoController</text><rect fill="none" height="6" style="stroke: #C82930; stroke-width: 1.0;" width="6" x="46" y="407.5117"/><text fill="#000000" font-family="sans-serif" font-size="11" lengthAdjust="spacingAndGlyphs" textLength="174" x="58" y="412.8198">redoController: RedoController</text><line style="stroke: #A80036; stroke-width: 1.5;" x1="39" x2="373" y1="419.4141" y2="419.4141"/><ellipse cx="49" cy="431.3164" fill="#84BE84" rx="3" ry="3" style="stroke: #038048; stroke-width: 1.0;"/><text fill="#000000" font-family="sans-serif" font-size="11" lengthAdjust="spacingAndGlyphs" textLength="221" x="58" y="433.6245">PlayControllerImplementation(Session)</text><ellipse cx="49" cy="444.1211" fill="#84BE84" rx="3" ry="3" style="stroke: #038048; stroke-width: 1.0;"/><text fill="#000000" font-family="sans-serif" font-size="11" lengthAdjust="spacingAndGlyphs" textLength="187" x="58" y="446.4292">isCombinationValid(String): Error</text><ellipse cx="49" cy="456.9258" fill="#84BE84" rx="3" ry="3" style="stroke: #038048; stroke-width: 1.0;"/><text fill="#000000" font-family="sans-serif" font-size="11" lengthAdjust="spacingAndGlyphs" textLength="310" x="58" y="459.2339">addProposedCombination(ProposedCombination): void</text><ellipse cx="49" cy="469.7305" fill="#84BE84" rx="3" ry="3" style="stroke: #038048; stroke-width: 1.0;"/><text fill="#000000" font-family="sans-serif" font-size="11" lengthAdjust="spacingAndGlyphs" textLength="99" x="58" y="472.0386">getAttempts(): int</text><ellipse cx="49" cy="482.5352" fill="#84BE84" rx="3" ry="3" style="stroke: #038048; stroke-width: 1.0;"/><text fill="#000000" font-family="sans-serif" font-size="11" lengthAdjust="spacingAndGlyphs" textLength="298" x="58" y="484.8433">getProposedCombination(int): ProposedCombination</text><ellipse cx="49" cy="495.3398" fill="#84BE84" rx="3" ry="3" style="stroke: #038048; stroke-width: 1.0;"/><text fill="#000000" font-family="sans-serif" font-size="11" lengthAdjust="spacingAndGlyphs" textLength="118" x="58" y="497.6479">getResult(int): Result</text><ellipse cx="49" cy="508.1445" fill="#84BE84" rx="3" ry="3" style="stroke: #038048; stroke-width: 1.0;"/><text fill="#000000" font-family="sans-serif" font-size="11" lengthAdjust="spacingAndGlyphs" textLength="109" x="58" y="510.4526">isWinner(): boolean</text><ellipse cx="49" cy="520.9492" fill="#84BE84" rx="3" ry="3" style="stroke: #038048; stroke-width: 1.0;"/><text fill="#000000" font-family="sans-serif" font-size="11" lengthAdjust="spacingAndGlyphs" textLength="110" x="58" y="523.2573">isLooser(): boolean</text><ellipse cx="49" cy="533.7539" fill="#84BE84" rx="3" ry="3" style="stroke: #038048; stroke-width: 1.0;"/><text fill="#000000" font-family="sans-serif" font-size="11" lengthAdjust="spacingAndGlyphs" textLength="67" x="58" y="536.062">undo(): void</text><ellipse cx="49" cy="546.5586" fill="#84BE84" rx="3" ry="3" style="stroke: #038048; stroke-width: 1.0;"/><text fill="#000000" font-family="sans-serif" font-size="11" lengthAdjust="spacingAndGlyphs" textLength="113" x="58" y="548.8667">undoable(): boolean</text><ellipse cx="49" cy="559.3633" fill="#84BE84" rx="3" ry="3" style="stroke: #038048; stroke-width: 1.0;"/><text fill="#000000" font-family="sans-serif" font-size="11" lengthAdjust="spacingAndGlyphs" textLength="65" x="58" y="561.6714">redo(): void</text><ellipse cx="49" cy="572.168" fill="#84BE84" rx="3" ry="3" style="stroke: #038048; stroke-width: 1.0;"/><text fill="#000000" font-family="sans-serif" font-size="11" lengthAdjust="spacingAndGlyphs" textLength="111" x="58" y="574.4761">redoable(): boolean</text><!--class amartinm.mastermind.controllers.implementation.LogicImplementation--><rect fill="#FEFECE" filter="url(#ftua2cc0pkmlo)" height="99.2188" id="amartinm.mastermind.controllers.implementation.LogicImplementation" style="stroke: #A80036; stroke-width: 1.5;" width="412" x="635" y="182"/><ellipse cx="772.25" cy="198" fill="#ADD1B2" rx="11" ry="11" style="stroke: #A80036; stroke-width: 1.0;"/><path d="M775.2188,203.6406 Q774.6406,203.9375 774,204.0781 Q773.3594,204.2344 772.6563,204.2344 Q770.1563,204.2344 768.8281,202.5938 Q767.5156,200.9375 767.5156,197.8125 Q767.5156,194.6875 768.8281,193.0313 Q770.1563,191.375 772.6563,191.375 Q773.3594,191.375 774,191.5313 Q774.6563,191.6875 775.2188,191.9844 L775.2188,194.7031 Q774.5938,194.125 774,193.8594 Q773.4063,193.5781 772.7813,193.5781 Q771.4375,193.5781 770.75,194.6563 Q770.0625,195.7188 770.0625,197.8125 Q770.0625,199.9063 770.75,200.9844 Q771.4375,202.0469 772.7813,202.0469 Q773.4063,202.0469 774,201.7813 Q774.5938,201.5 775.2188,200.9219 L775.2188,203.6406 Z "/><text fill="#000000" font-family="sans-serif" font-size="12" lengthAdjust="spacingAndGlyphs" textLength="129" x="792.75" y="202.1543">LogicImplementation</text><line style="stroke: #A80036; stroke-width: 1.5;" x1="636" x2="1046" y1="214" y2="214"/><polygon fill="none" points="646,220.9023,650,224.9023,646,228.9023,642,224.9023" style="stroke: #B38D22; stroke-width: 1.0;"/><text fill="#000000" font-family="sans-serif" font-size="11" lengthAdjust="spacingAndGlyphs" textLength="351" x="655" y="228.2104">startControllerImplementation: StartControllerImplementation</text><polygon fill="none" points="646,233.707,650,237.707,646,241.707,642,237.707" style="stroke: #B38D22; stroke-width: 1.0;"/><text fill="#000000" font-family="sans-serif" font-size="11" lengthAdjust="spacingAndGlyphs" textLength="342" x="655" y="241.0151">playControllerImplementation: PlayControllerImplementation</text><polygon fill="none" points="646,246.5117,650,250.5117,646,254.5117,642,250.5117" style="stroke: #B38D22; stroke-width: 1.0;"/><text fill="#000000" font-family="sans-serif" font-size="11" lengthAdjust="spacingAndGlyphs" textLength="386" x="655" y="253.8198">resumeControllerImplementation: ResumeControllerImplementation</text><line style="stroke: #A80036; stroke-width: 1.5;" x1="636" x2="1046" y1="260.4141" y2="260.4141"/><ellipse cx="646" cy="272.3164" fill="#84BE84" rx="3" ry="3" style="stroke: #038048; stroke-width: 1.0;"/><text fill="#000000" font-family="sans-serif" font-size="11" lengthAdjust="spacingAndGlyphs" textLength="125" x="655" y="274.6245">LogicImplementation()</text><!--class amartinm.mastermind.controllers.implementation.ProposalController--><rect fill="#FEFECE" filter="url(#ftua2cc0pkmlo)" height="48" id="amartinm.mastermind.controllers.implementation.ProposalController" style="stroke: #A80036; stroke-width: 1.5;" width="148" x="38" y="641"/><ellipse cx="53" cy="657" fill="#ADD1B2" rx="11" ry="11" style="stroke: #A80036; stroke-width: 1.0;"/><path d="M55.9688,662.6406 Q55.3906,662.9375 54.75,663.0781 Q54.1094,663.2344 53.4063,663.2344 Q50.9063,663.2344 49.5781,661.5938 Q48.2656,659.9375 48.2656,656.8125 Q48.2656,653.6875 49.5781,652.0313 Q50.9063,650.375 53.4063,650.375 Q54.1094,650.375 54.75,650.5313 Q55.4063,650.6875 55.9688,650.9844 L55.9688,653.7031 Q55.3438,653.125 54.75,652.8594 Q54.1563,652.5781 53.5313,652.5781 Q52.1875,652.5781 51.5,653.6563 Q50.8125,654.7188 50.8125,656.8125 Q50.8125,658.9063 51.5,659.9844 Q52.1875,661.0469 53.5313,661.0469 Q54.1563,661.0469 54.75,660.7813 Q55.3438,660.5 55.9688,659.9219 L55.9688,662.6406 Z "/><text fill="#000000" font-family="sans-serif" font-size="12" lengthAdjust="spacingAndGlyphs" textLength="116" x="67" y="661.1543">ProposalController</text><line style="stroke: #A80036; stroke-width: 1.5;" x1="39" x2="185" y1="673" y2="673"/><line style="stroke: #A80036; stroke-width: 1.5;" x1="39" x2="185" y1="681" y2="681"/><!--class amartinm.mastermind.controllers.implementation.UndoController--><rect fill="#FEFECE" filter="url(#ftua2cc0pkmlo)" height="48" id="amartinm.mastermind.controllers.implementation.UndoController" style="stroke: #A80036; stroke-width: 1.5;" width="126" x="221" y="641"/><ellipse cx="236" cy="657" fill="#ADD1B2" rx="11" ry="11" style="stroke: #A80036; stroke-width: 1.0;"/><path d="M238.9688,662.6406 Q238.3906,662.9375 237.75,663.0781 Q237.1094,663.2344 236.4063,663.2344 Q233.9063,663.2344 232.5781,661.5938 Q231.2656,659.9375 231.2656,656.8125 Q231.2656,653.6875 232.5781,652.0313 Q233.9063,650.375 236.4063,650.375 Q237.1094,650.375 237.75,650.5313 Q238.4063,650.6875 238.9688,650.9844 L238.9688,653.7031 Q238.3438,653.125 237.75,652.8594 Q237.1563,652.5781 236.5313,652.5781 Q235.1875,652.5781 234.5,653.6563 Q233.8125,654.7188 233.8125,656.8125 Q233.8125,658.9063 234.5,659.9844 Q235.1875,661.0469 236.5313,661.0469 Q237.1563,661.0469 237.75,660.7813 Q238.3438,660.5 238.9688,659.9219 L238.9688,662.6406 Z "/><text fill="#000000" font-family="sans-serif" font-size="12" lengthAdjust="spacingAndGlyphs" textLength="94" x="250" y="661.1543">UndoController</text><line style="stroke: #A80036; stroke-width: 1.5;" x1="222" x2="346" y1="673" y2="673"/><line style="stroke: #A80036; stroke-width: 1.5;" x1="222" x2="346" y1="681" y2="681"/><!--class amartinm.mastermind.controllers.implementation.RedoController--><rect fill="#FEFECE" filter="url(#ftua2cc0pkmlo)" height="48" id="amartinm.mastermind.controllers.implementation.RedoController" style="stroke: #A80036; stroke-width: 1.5;" width="125" x="382.5" y="641"/><ellipse cx="397.5" cy="657" fill="#ADD1B2" rx="11" ry="11" style="stroke: #A80036; stroke-width: 1.0;"/><path d="M400.4688,662.6406 Q399.8906,662.9375 399.25,663.0781 Q398.6094,663.2344 397.9063,663.2344 Q395.4063,663.2344 394.0781,661.5938 Q392.7656,659.9375 392.7656,656.8125 Q392.7656,653.6875 394.0781,652.0313 Q395.4063,650.375 397.9063,650.375 Q398.6094,650.375 399.25,650.5313 Q399.9063,650.6875 400.4688,650.9844 L400.4688,653.7031 Q399.8438,653.125 399.25,652.8594 Q398.6563,652.5781 398.0313,652.5781 Q396.6875,652.5781 396,653.6563 Q395.3125,654.7188 395.3125,656.8125 Q395.3125,658.9063 396,659.9844 Q396.6875,661.0469 398.0313,661.0469 Q398.6563,661.0469 399.25,660.7813 Q399.8438,660.5 400.4688,659.9219 L400.4688,662.6406 Z "/><text fill="#000000" font-family="sans-serif" font-size="12" lengthAdjust="spacingAndGlyphs" textLength="93" x="411.5" y="661.1543">RedoController</text><line style="stroke: #A80036; stroke-width: 1.5;" x1="383.5" x2="506.5" y1="673" y2="673"/><line style="stroke: #A80036; stroke-width: 1.5;" x1="383.5" x2="506.5" y1="681" y2="681"/><!--class amartinm.mastermind.controllers.ResumeController--><rect fill="#FEFECE" filter="url(#ftua2cc0pkmlo)" height="48" id="amartinm.mastermind.controllers.ResumeController" style="stroke: #A80036; stroke-width: 1.5;" width="143" x="294.5" y="59"/><ellipse cx="309.5" cy="75" fill="#ADD1B2" rx="11" ry="11" style="stroke: #A80036; stroke-width: 1.0;"/><path d="M312.4688,80.6406 Q311.8906,80.9375 311.25,81.0781 Q310.6094,81.2344 309.9063,81.2344 Q307.4063,81.2344 306.0781,79.5938 Q304.7656,77.9375 304.7656,74.8125 Q304.7656,71.6875 306.0781,70.0313 Q307.4063,68.375 309.9063,68.375 Q310.6094,68.375 311.25,68.5313 Q311.9063,68.6875 312.4688,68.9844 L312.4688,71.7031 Q311.8438,71.125 311.25,70.8594 Q310.6563,70.5781 310.0313,70.5781 Q308.6875,70.5781 308,71.6563 Q307.3125,72.7188 307.3125,74.8125 Q307.3125,76.9063 308,77.9844 Q308.6875,79.0469 310.0313,79.0469 Q310.6563,79.0469 311.25,78.7813 Q311.8438,78.5 312.4688,77.9219 L312.4688,80.6406 Z "/><text fill="#000000" font-family="sans-serif" font-size="12" lengthAdjust="spacingAndGlyphs" textLength="111" x="323.5" y="79.1543">ResumeController</text><line style="stroke: #A80036; stroke-width: 1.5;" x1="295.5" x2="436.5" y1="91" y2="91"/><line style="stroke: #A80036; stroke-width: 1.5;" x1="295.5" x2="436.5" y1="99" y2="99"/><!--class amartinm.mastermind.controllers.StartController--><rect fill="#FEFECE" filter="url(#ftua2cc0pkmlo)" height="48" id="amartinm.mastermind.controllers.StartController" style="stroke: #A80036; stroke-width: 1.5;" width="124" x="473" y="59"/><ellipse cx="488" cy="75" fill="#ADD1B2" rx="11" ry="11" style="stroke: #A80036; stroke-width: 1.0;"/><path d="M490.9688,80.6406 Q490.3906,80.9375 489.75,81.0781 Q489.1094,81.2344 488.4063,81.2344 Q485.9063,81.2344 484.5781,79.5938 Q483.2656,77.9375 483.2656,74.8125 Q483.2656,71.6875 484.5781,70.0313 Q485.9063,68.375 488.4063,68.375 Q489.1094,68.375 489.75,68.5313 Q490.4063,68.6875 490.9688,68.9844 L490.9688,71.7031 Q490.3438,71.125 489.75,70.8594 Q489.1563,70.5781 488.5313,70.5781 Q487.1875,70.5781 486.5,71.6563 Q485.8125,72.7188 485.8125,74.8125 Q485.8125,76.9063 486.5,77.9844 Q487.1875,79.0469 488.5313,79.0469 Q489.1563,79.0469 489.75,78.7813 Q490.3438,78.5 490.9688,77.9219 L490.9688,80.6406 Z "/><text fill="#000000" font-family="sans-serif" font-size="12" lengthAdjust="spacingAndGlyphs" textLength="92" x="502" y="79.1543">StartController</text><line style="stroke: #A80036; stroke-width: 1.5;" x1="474" x2="596" y1="91" y2="91"/><line style="stroke: #A80036; stroke-width: 1.5;" x1="474" x2="596" y1="99" y2="99"/><!--class amartinm.mastermind.controllers.PlayController--><rect fill="#FEFECE" filter="url(#ftua2cc0pkmlo)" height="48" id="amartinm.mastermind.controllers.PlayController" style="stroke: #A80036; stroke-width: 1.5;" width="118" x="632" y="59"/><ellipse cx="647" cy="75" fill="#ADD1B2" rx="11" ry="11" style="stroke: #A80036; stroke-width: 1.0;"/><path d="M649.9688,80.6406 Q649.3906,80.9375 648.75,81.0781 Q648.1094,81.2344 647.4063,81.2344 Q644.9063,81.2344 643.5781,79.5938 Q642.2656,77.9375 642.2656,74.8125 Q642.2656,71.6875 643.5781,70.0313 Q644.9063,68.375 647.4063,68.375 Q648.1094,68.375 648.75,68.5313 Q649.4063,68.6875 649.9688,68.9844 L649.9688,71.7031 Q649.3438,71.125 648.75,70.8594 Q648.1563,70.5781 647.5313,70.5781 Q646.1875,70.5781 645.5,71.6563 Q644.8125,72.7188 644.8125,74.8125 Q644.8125,76.9063 645.5,77.9844 Q646.1875,79.0469 647.5313,79.0469 Q648.1563,79.0469 648.75,78.7813 Q649.3438,78.5 649.9688,77.9219 L649.9688,80.6406 Z "/><text fill="#000000" font-family="sans-serif" font-size="12" lengthAdjust="spacingAndGlyphs" textLength="86" x="661" y="79.1543">PlayController</text><line style="stroke: #A80036; stroke-width: 1.5;" x1="633" x2="749" y1="91" y2="91"/><line style="stroke: #A80036; stroke-width: 1.5;" x1="633" x2="749" y1="99" y2="99"/><!--class amartinm.mastermind.controllers.Logic--><rect fill="#FEFECE" filter="url(#ftua2cc0pkmlo)" height="48" id="amartinm.mastermind.controllers.Logic" style="stroke: #A80036; stroke-width: 1.5;" width="64" x="785" y="59"/><ellipse cx="800" cy="75" fill="#ADD1B2" rx="11" ry="11" style="stroke: #A80036; stroke-width: 1.0;"/><path d="M802.9688,80.6406 Q802.3906,80.9375 801.75,81.0781 Q801.1094,81.2344 800.4063,81.2344 Q797.9063,81.2344 796.5781,79.5938 Q795.2656,77.9375 795.2656,74.8125 Q795.2656,71.6875 796.5781,70.0313 Q797.9063,68.375 800.4063,68.375 Q801.1094,68.375 801.75,68.5313 Q802.4063,68.6875 802.9688,68.9844 L802.9688,71.7031 Q802.3438,71.125 801.75,70.8594 Q801.1563,70.5781 800.5313,70.5781 Q799.1875,70.5781 798.5,71.6563 Q797.8125,72.7188 797.8125,74.8125 Q797.8125,76.9063 798.5,77.9844 Q799.1875,79.0469 800.5313,79.0469 Q801.1563,79.0469 801.75,78.7813 Q802.3438,78.5 802.9688,77.9219 L802.9688,80.6406 Z "/><text fill="#000000" font-family="sans-serif" font-size="12" lengthAdjust="spacingAndGlyphs" textLength="32" x="814" y="79.1543">Logic</text><line style="stroke: #A80036; stroke-width: 1.5;" x1="786" x2="848" y1="91" y2="91"/><line style="stroke: #A80036; stroke-width: 1.5;" x1="786" x2="848" y1="99" y2="99"/><!--class amartinm.mastermind.models.SessionImplementation--><rect fill="#FEFECE" filter="url(#ftua2cc0pkmlo)" height="48" id="amartinm.mastermind.models.SessionImplementation" style="stroke: #A80036; stroke-width: 1.5;" width="178" x="1629" y="641"/><ellipse cx="1644" cy="657" fill="#ADD1B2" rx="11" ry="11" style="stroke: #A80036; stroke-width: 1.0;"/><path d="M1646.9688,662.6406 Q1646.3906,662.9375 1645.75,663.0781 Q1645.1094,663.2344 1644.4063,663.2344 Q1641.9063,663.2344 1640.5781,661.5938 Q1639.2656,659.9375 1639.2656,656.8125 Q1639.2656,653.6875 1640.5781,652.0313 Q1641.9063,650.375 1644.4063,650.375 Q1645.1094,650.375 1645.75,650.5313 Q1646.4063,650.6875 1646.9688,650.9844 L1646.9688,653.7031 Q1646.3438,653.125 1645.75,652.8594 Q1645.1563,652.5781 1644.5313,652.5781 Q1643.1875,652.5781 1642.5,653.6563 Q1641.8125,654.7188 1641.8125,656.8125 Q1641.8125,658.9063 1642.5,659.9844 Q1643.1875,661.0469 1644.5313,661.0469 Q1645.1563,661.0469 1645.75,660.7813 Q1646.3438,660.5 1646.9688,659.9219 L1646.9688,662.6406 Z "/><text fill="#000000" font-family="sans-serif" font-size="12" lengthAdjust="spacingAndGlyphs" textLength="146" x="1658" y="661.1543">SessionImplementation</text><line style="stroke: #A80036; stroke-width: 1.5;" x1="1630" x2="1806" y1="673" y2="673"/><line style="stroke: #A80036; stroke-width: 1.5;" x1="1630" x2="1806" y1="681" y2="681"/><!--class amartinm.mastermind.models.StateValue--><rect fill="#FEFECE" filter="url(#ftua2cc0pkmlo)" height="48" id="amartinm.mastermind.models.StateValue" style="stroke: #A80036; stroke-width: 1.5;" width="101" x="1842.5" y="641"/><ellipse cx="1857.5" cy="657" fill="#ADD1B2" rx="11" ry="11" style="stroke: #A80036; stroke-width: 1.0;"/><path d="M1860.4688,662.6406 Q1859.8906,662.9375 1859.25,663.0781 Q1858.6094,663.2344 1857.9063,663.2344 Q1855.4063,663.2344 1854.0781,661.5938 Q1852.7656,659.9375 1852.7656,656.8125 Q1852.7656,653.6875 1854.0781,652.0313 Q1855.4063,650.375 1857.9063,650.375 Q1858.6094,650.375 1859.25,650.5313 Q1859.9063,650.6875 1860.4688,650.9844 L1860.4688,653.7031 Q1859.8438,653.125 1859.25,652.8594 Q1858.6563,652.5781 1858.0313,652.5781 Q1856.6875,652.5781 1856,653.6563 Q1855.3125,654.7188 1855.3125,656.8125 Q1855.3125,658.9063 1856,659.9844 Q1856.6875,661.0469 1858.0313,661.0469 Q1858.6563,661.0469 1859.25,660.7813 Q1859.8438,660.5 1860.4688,659.9219 L1860.4688,662.6406 Z "/><text fill="#000000" font-family="sans-serif" font-size="12" lengthAdjust="spacingAndGlyphs" textLength="69" x="1871.5" y="661.1543">StateValue</text><line style="stroke: #A80036; stroke-width: 1.5;" x1="1843.5" x2="1942.5" y1="673" y2="673"/><line style="stroke: #A80036; stroke-width: 1.5;" x1="1843.5" x2="1942.5" y1="681" y2="681"/><!--class amartinm.mastermind.models.Error--><rect fill="#FEFECE" filter="url(#ftua2cc0pkmlo)" height="48" id="amartinm.mastermind.models.Error" style="stroke: #A80036; stroke-width: 1.5;" width="63" x="1308.5" y="641"/><ellipse cx="1323.5" cy="657" fill="#ADD1B2" rx="11" ry="11" style="stroke: #A80036; stroke-width: 1.0;"/><path d="M1326.4688,662.6406 Q1325.8906,662.9375 1325.25,663.0781 Q1324.6094,663.2344 1323.9063,663.2344 Q1321.4063,663.2344 1320.0781,661.5938 Q1318.7656,659.9375 1318.7656,656.8125 Q1318.7656,653.6875 1320.0781,652.0313 Q1321.4063,650.375 1323.9063,650.375 Q1324.6094,650.375 1325.25,650.5313 Q1325.9063,650.6875 1326.4688,650.9844 L1326.4688,653.7031 Q1325.8438,653.125 1325.25,652.8594 Q1324.6563,652.5781 1324.0313,652.5781 Q1322.6875,652.5781 1322,653.6563 Q1321.3125,654.7188 1321.3125,656.8125 Q1321.3125,658.9063 1322,659.9844 Q1322.6875,661.0469 1324.0313,661.0469 Q1324.6563,661.0469 1325.25,660.7813 Q1325.8438,660.5 1326.4688,659.9219 L1326.4688,662.6406 Z "/><text fill="#000000" font-family="sans-serif" font-size="12" lengthAdjust="spacingAndGlyphs" textLength="31" x="1337.5" y="661.1543">Error</text><line style="stroke: #A80036; stroke-width: 1.5;" x1="1309.5" x2="1370.5" y1="673" y2="673"/><line style="stroke: #A80036; stroke-width: 1.5;" x1="1309.5" x2="1370.5" y1="681" y2="681"/><!--class amartinm.mastermind.models.ProposedCombination--><rect fill="#FEFECE" filter="url(#ftua2cc0pkmlo)" height="48" id="amartinm.mastermind.models.ProposedCombination" style="stroke: #A80036; stroke-width: 1.5;" width="170" x="1103" y="641"/><ellipse cx="1118" cy="657" fill="#ADD1B2" rx="11" ry="11" style="stroke: #A80036; stroke-width: 1.0;"/><path d="M1120.9688,662.6406 Q1120.3906,662.9375 1119.75,663.0781 Q1119.1094,663.2344 1118.4063,663.2344 Q1115.9063,663.2344 1114.5781,661.5938 Q1113.2656,659.9375 1113.2656,656.8125 Q1113.2656,653.6875 1114.5781,652.0313 Q1115.9063,650.375 1118.4063,650.375 Q1119.1094,650.375 1119.75,650.5313 Q1120.4063,650.6875 1120.9688,650.9844 L1120.9688,653.7031 Q1120.3438,653.125 1119.75,652.8594 Q1119.1563,652.5781 1118.5313,652.5781 Q1117.1875,652.5781 1116.5,653.6563 Q1115.8125,654.7188 1115.8125,656.8125 Q1115.8125,658.9063 1116.5,659.9844 Q1117.1875,661.0469 1118.5313,661.0469 Q1119.1563,661.0469 1119.75,660.7813 Q1120.3438,660.5 1120.9688,659.9219 L1120.9688,662.6406 Z "/><text fill="#000000" font-family="sans-serif" font-size="12" lengthAdjust="spacingAndGlyphs" textLength="138" x="1132" y="661.1543">ProposedCombination</text><line style="stroke: #A80036; stroke-width: 1.5;" x1="1104" x2="1272" y1="673" y2="673"/><line style="stroke: #A80036; stroke-width: 1.5;" x1="1104" x2="1272" y1="681" y2="681"/><!--class amartinm.mastermind.models.Result--><rect fill="#FEFECE" filter="url(#ftua2cc0pkmlo)" height="48" id="amartinm.mastermind.models.Result" style="stroke: #A80036; stroke-width: 1.5;" width="71" x="1522.5" y="641"/><ellipse cx="1537.5" cy="657" fill="#ADD1B2" rx="11" ry="11" style="stroke: #A80036; stroke-width: 1.0;"/><path d="M1540.4688,662.6406 Q1539.8906,662.9375 1539.25,663.0781 Q1538.6094,663.2344 1537.9063,663.2344 Q1535.4063,663.2344 1534.0781,661.5938 Q1532.7656,659.9375 1532.7656,656.8125 Q1532.7656,653.6875 1534.0781,652.0313 Q1535.4063,650.375 1537.9063,650.375 Q1538.6094,650.375 1539.25,650.5313 Q1539.9063,650.6875 1540.4688,650.9844 L1540.4688,653.7031 Q1539.8438,653.125 1539.25,652.8594 Q1538.6563,652.5781 1538.0313,652.5781 Q1536.6875,652.5781 1536,653.6563 Q1535.3125,654.7188 1535.3125,656.8125 Q1535.3125,658.9063 1536,659.9844 Q1536.6875,661.0469 1538.0313,661.0469 Q1538.6563,661.0469 1539.25,660.7813 Q1539.8438,660.5 1540.4688,659.9219 L1540.4688,662.6406 Z "/><text fill="#000000" font-family="sans-serif" font-size="12" lengthAdjust="spacingAndGlyphs" textLength="39" x="1551.5" y="661.1543">Result</text><line style="stroke: #A80036; stroke-width: 1.5;" x1="1523.5" x2="1592.5" y1="673" y2="673"/><line style="stroke: #A80036; stroke-width: 1.5;" x1="1523.5" x2="1592.5" y1="681" y2="681"/><!--class amartinm.mastermind.models.Session--><rect fill="#FEFECE" filter="url(#ftua2cc0pkmlo)" height="48" id="amartinm.mastermind.models.Session" style="stroke: #A80036; stroke-width: 1.5;" width="81" x="1406.5" y="641"/><ellipse cx="1421.5" cy="657" fill="#ADD1B2" rx="11" ry="11" style="stroke: #A80036; stroke-width: 1.0;"/><path d="M1424.4688,662.6406 Q1423.8906,662.9375 1423.25,663.0781 Q1422.6094,663.2344 1421.9063,663.2344 Q1419.4063,663.2344 1418.0781,661.5938 Q1416.7656,659.9375 1416.7656,656.8125 Q1416.7656,653.6875 1418.0781,652.0313 Q1419.4063,650.375 1421.9063,650.375 Q1422.6094,650.375 1423.25,650.5313 Q1423.9063,650.6875 1424.4688,650.9844 L1424.4688,653.7031 Q1423.8438,653.125 1423.25,652.8594 Q1422.6563,652.5781 1422.0313,652.5781 Q1420.6875,652.5781 1420,653.6563 Q1419.3125,654.7188 1419.3125,656.8125 Q1419.3125,658.9063 1420,659.9844 Q1420.6875,661.0469 1422.0313,661.0469 Q1422.6563,661.0469 1423.25,660.7813 Q1423.8438,660.5 1424.4688,659.9219 L1424.4688,662.6406 Z "/><text fill="#000000" font-family="sans-serif" font-size="12" lengthAdjust="spacingAndGlyphs" textLength="49" x="1435.5" y="661.1543">Session</text><line style="stroke: #A80036; stroke-width: 1.5;" x1="1407.5" x2="1486.5" y1="673" y2="673"/><line style="stroke: #A80036; stroke-width: 1.5;" x1="1407.5" x2="1486.5" y1="681" y2="681"/><!--link amartinm.mastermind.controllers.ResumeController to amartinm.mastermind.controllers.implementation.ResumeControllerImplementation--><path d="M387.39,125.45 C424.6,197.58 500.88,345.42 538.31,417.96 " fill="none" id="amartinm.mastermind.controllers.ResumeController-amartinm.mastermind.controllers.implementation.ResumeControllerImplementation" style="stroke: #A80036; stroke-width: 1.0;"/><polygon fill="none" points="380.94,128.22,377.99,107.24,393.38,121.8,380.94,128.22" style="stroke: #A80036; stroke-width: 1.0;"/><!--link amartinm.mastermind.controllers.StartController to amartinm.mastermind.controllers.implementation.StartControllerImplementation--><path d="M544.2,126.74 C555.36,169.98 577.86,236.61 618,281 C655.35,322.31 680.75,311.52 728,341 C766.36,364.93 807.83,394.27 839.97,417.83 " fill="none" id="amartinm.mastermind.controllers.StartController-amartinm.mastermind.controllers.implementation.StartControllerImplementation" style="stroke: #A80036; stroke-width: 1.0;"/><polygon fill="none" points="537.33,128.12,539.48,107.04,550.95,124.86,537.33,128.12" style="stroke: #A80036; stroke-width: 1.0;"/><!--link amartinm.mastermind.controllers.PlayController to amartinm.mastermind.controllers.implementation.PlayControllerImplementation--><path d="M643.96,119.27 C635.31,125.8 626.37,132.59 618,139 C531.45,205.32 435.3,280.16 357.67,340.88 " fill="none" id="amartinm.mastermind.controllers.PlayController-amartinm.mastermind.controllers.implementation.PlayControllerImplementation" style="stroke: #A80036; stroke-width: 1.0;"/><polygon fill="none" points="639.83,113.61,660.01,107.17,648.25,124.8,639.83,113.61" style="stroke: #A80036; stroke-width: 1.0;"/><!--link amartinm.mastermind.controllers.Logic to amartinm.mastermind.controllers.implementation.LogicImplementation--><path d="M824.08,127.19 C826.89,144.38 830.15,164.24 833.04,181.93 " fill="none" id="amartinm.mastermind.controllers.Logic-amartinm.mastermind.controllers.implementation.LogicImplementation" style="stroke: #A80036; stroke-width: 1.0;"/><polygon fill="none" points="817.13,128.08,820.8,107.21,830.94,125.82,817.13,128.08" style="stroke: #A80036; stroke-width: 1.0;"/><!--link amartinm.mastermind.controllers.implementation.LogicImplementation to amartinm.mastermind.controllers.implementation.StartControllerImplementation--><path d="M855.84,293.87 C864.2,328.47 874.56,371.33 882.67,404.86 " fill="none" id="amartinm.mastermind.controllers.implementation.LogicImplementation-amartinm.mastermind.controllers.implementation.StartControllerImplementation" style="stroke: #A80036; stroke-width: 1.0;"/><polygon fill="#A80036" points="885.77,417.67,887.5401,407.9815,884.5936,412.8104,879.7647,409.8638,885.77,417.67" style="stroke: #A80036; stroke-width: 1.0;"/><line style="stroke: #A80036; stroke-width: 1.0;" x1="884.5936" x2="882.71" y1="412.8104" y2="405.04"/><polygon fill="#A80036" points="852.73,281.03,850.2523,287.8021,855.5504,292.6938,858.0282,285.9218,852.73,281.03" style="stroke: #A80036; stroke-width: 1.0;"/><!--link amartinm.mastermind.controllers.implementation.LogicImplementation to amartinm.mastermind.controllers.implementation.PlayControllerImplementation--><path d="M621.8,278.35 C529.87,299.04 434.54,322.86 392,341 C390.06,341.83 388.12,342.67 386.18,343.54 " fill="none" id="amartinm.mastermind.controllers.implementation.LogicImplementation-amartinm.mastermind.controllers.implementation.PlayControllerImplementation" style="stroke: #A80036; stroke-width: 1.0;"/><polygon fill="#A80036" points="374.24,349.06,384.0878,348.9128,378.7782,346.9612,380.7297,341.6517,374.24,349.06" style="stroke: #A80036; stroke-width: 1.0;"/><line style="stroke: #A80036; stroke-width: 1.0;" x1="378.7782" x2="386.04" y1="346.9612" y2="343.6"/><polygon fill="#A80036" points="634.74,275.45,628.0105,272.8589,623.0304,278.0741,629.7599,280.6652,634.74,275.45" style="stroke: #A80036; stroke-width: 1.0;"/><!--link amartinm.mastermind.controllers.implementation.LogicImplementation to amartinm.mastermind.controllers.implementation.ResumeControllerImplementation--><path d="M770.82,289.32 C725.28,326.18 666.48,373.8 622.55,409.36 " fill="none" id="amartinm.mastermind.controllers.implementation.LogicImplementation-amartinm.mastermind.controllers.implementation.ResumeControllerImplementation" style="stroke: #A80036; stroke-width: 1.0;"/><polygon fill="#A80036" points="612.28,417.67,621.7905,415.1108,616.1644,414.5218,616.7534,408.8957,612.28,417.67" style="stroke: #A80036; stroke-width: 1.0;"/><line style="stroke: #A80036; stroke-width: 1.0;" x1="616.1644" x2="622.385" y1="414.5218" y2="409.495"/><polygon fill="#A80036" points="781.06,281.03,773.8795,281.6942,771.7309,288.5777,778.9114,287.9136,781.06,281.03" style="stroke: #A80036; stroke-width: 1.0;"/><!--link amartinm.mastermind.controllers.implementation.LogicImplementation to amartinm.mastermind.models.SessionImplementation--><path d="M953.2,281.11 C1104.84,347.86 1382.51,473.79 1611,598 C1633.64,610.31 1658.16,625.3 1678,637.89 " fill="none" id="amartinm.mastermind.controllers.implementation.LogicImplementation-amartinm.mastermind.models.SessionImplementation" style="stroke: #A80036; stroke-width: 1.0; stroke-dasharray: 7.0,7.0;"/><polygon fill="#A80036" points="1682.42,640.7,1676.9601,632.5031,1678.197,638.023,1672.677,639.2599,1682.42,640.7" style="stroke: #A80036; stroke-width: 1.0;"/><!--link amartinm.mastermind.controllers.implementation.LogicImplementation to amartinm.mastermind.models.StateValue--><path d="M1047.17,260.87 C1144.3,277.91 1260.61,303.7 1361,341 C1581.98,423.11 1635.65,457.57 1825,598 C1840.45,609.46 1855.97,624.21 1868.27,636.87 " fill="none" id="amartinm.mastermind.controllers.implementation.LogicImplementation-amartinm.mastermind.models.StateValue" style="stroke: #A80036; stroke-width: 1.0; stroke-dasharray: 7.0,7.0;"/><polygon fill="#A80036" points="1871.98,640.72,1868.6312,631.4579,1868.5167,637.1136,1862.861,636.9991,1871.98,640.72" style="stroke: #A80036; stroke-width: 1.0;"/><!--link amartinm.mastermind.controllers.implementation.PlayControllerImplementation to amartinm.mastermind.controllers.implementation.ProposalController--><path d="M145,593.09 C138.96,606.06 133.27,618.29 128.36,628.83 " fill="none" id="amartinm.mastermind.controllers.implementation.PlayControllerImplementation-amartinm.mastermind.controllers.implementation.ProposalController" style="stroke: #A80036; stroke-width: 1.0;"/><polygon fill="#A80036" points="122.8,640.79,130.2243,634.3185,124.9099,636.257,122.9714,630.9426,122.8,640.79" style="stroke: #A80036; stroke-width: 1.0;"/><line style="stroke: #A80036; stroke-width: 1.0;" x1="124.9099" x2="128.285" y1="636.257" y2="629"/><polygon fill="#A80036" points="150.5,581.26,144.3434,585.0145,145.4412,592.1416,151.5978,588.387,150.5,581.26" style="stroke: #A80036; stroke-width: 1.0;"/><!--link amartinm.mastermind.controllers.implementation.PlayControllerImplementation to amartinm.mastermind.controllers.implementation.UndoController--><path d="M256.82,593.61 C261.72,606.29 266.34,618.26 270.34,628.61 " fill="none" id="amartinm.mastermind.controllers.implementation.PlayControllerImplementation-amartinm.mastermind.controllers.implementation.UndoController" style="stroke: #A80036; stroke-width: 1.0;"/><polygon fill="#A80036" points="275.04,640.79,275.5278,630.9532,273.2381,636.126,268.0654,633.8363,275.04,640.79" style="stroke: #A80036; stroke-width: 1.0;"/><line style="stroke: #A80036; stroke-width: 1.0;" x1="273.2381" x2="270.355" y1="636.126" y2="628.66"/><polygon fill="#A80036" points="252.05,581.26,250.481,588.2983,256.3745,592.4537,257.9435,585.4153,252.05,581.26" style="stroke: #A80036; stroke-width: 1.0;"/><!--link amartinm.mastermind.controllers.implementation.PlayControllerImplementation to amartinm.mastermind.controllers.implementation.RedoController--><path d="M357.1,589.71 C375.52,605.28 392.86,619.93 407.19,632.05 " fill="none" id="amartinm.mastermind.controllers.implementation.PlayControllerImplementation-amartinm.mastermind.controllers.implementation.RedoController" style="stroke: #A80036; stroke-width: 1.0;"/><polygon fill="#A80036" points="417.53,640.79,413.2353,631.9269,413.7102,637.5637,408.0733,638.0386,417.53,640.79" style="stroke: #A80036; stroke-width: 1.0;"/><line style="stroke: #A80036; stroke-width: 1.0;" x1="413.7102" x2="407.605" y1="637.5637" y2="632.395"/><polygon fill="#A80036" points="347.1,581.26,349.097,588.1891,356.2611,589.0107,354.2641,582.0816,347.1,581.26" style="stroke: #A80036; stroke-width: 1.0;"/><!--link amartinm.mastermind.controllers.implementation.PlayControllerImplementation to amartinm.mastermind.models.Error--><path d="M374.16,574.87 C380.08,577.14 386.04,579.19 392,581 C439.81,595.48 1246.59,575.13 1291,598 C1306.84,606.16 1318.89,622.06 1327.07,636.22 " fill="none" id="amartinm.mastermind.controllers.implementation.PlayControllerImplementation-amartinm.mastermind.models.Error" style="stroke: #A80036; stroke-width: 1.0; stroke-dasharray: 7.0,7.0;"/><polygon fill="#A80036" points="1329.7,640.93,1328.8014,631.1222,1327.2609,636.5653,1321.8178,635.0248,1329.7,640.93" style="stroke: #A80036; stroke-width: 1.0;"/><!--link amartinm.mastermind.controllers.implementation.PlayControllerImplementation to amartinm.mastermind.models.ProposedCombination--><path d="M374.17,574.82 C380.09,577.1 386.04,579.18 392,581 C534.62,624.69 918.69,560.29 1063,598 C1094.29,606.18 1126.5,623.43 1150.38,638.24 " fill="none" id="amartinm.mastermind.controllers.implementation.PlayControllerImplementation-amartinm.mastermind.models.ProposedCombination" style="stroke: #A80036; stroke-width: 1.0; stroke-dasharray: 7.0,7.0;"/><polygon fill="#A80036" points="1154.74,640.98,1149.2478,632.8047,1150.5064,638.3197,1144.9914,639.5784,1154.74,640.98" style="stroke: #A80036; stroke-width: 1.0;"/><!--link amartinm.mastermind.controllers.implementation.PlayControllerImplementation to amartinm.mastermind.models.Result--><path d="M374.15,574.9 C380.08,577.16 386.03,579.21 392,581 C451.22,598.81 1449.44,570.84 1505,598 C1521.63,606.13 1534.73,622.24 1543.74,636.51 " fill="none" id="amartinm.mastermind.controllers.implementation.PlayControllerImplementation-amartinm.mastermind.models.Result" style="stroke: #A80036; stroke-width: 1.0; stroke-dasharray: 7.0,7.0;"/><polygon fill="#A80036" points="1546.41,640.87,1545.1473,631.1024,1543.8103,636.599,1538.3137,635.262,1546.41,640.87" style="stroke: #A80036; stroke-width: 1.0;"/><!--link amartinm.mastermind.controllers.implementation.PlayControllerImplementation to amartinm.mastermind.models.Session--><path d="M374.15,574.89 C380.08,577.15 386.04,579.2 392,581 C445.03,597.01 1338.73,574.73 1389,598 C1406.44,606.07 1420.76,622.18 1430.81,636.46 " fill="none" id="amartinm.mastermind.controllers.implementation.PlayControllerImplementation-amartinm.mastermind.models.Session" style="stroke: #A80036; stroke-width: 1.0; stroke-dasharray: 7.0,7.0;"/><polygon fill="#A80036" points="1433.79,640.82,1432.0259,631.1304,1430.9738,636.6886,1425.4156,635.6364,1433.79,640.82" style="stroke: #A80036; stroke-width: 1.0;"/><!--link amartinm.mastermind.controllers.implementation.ResumeControllerImplementation to amartinm.mastermind.models.SessionImplementation--><path d="M613.7,512.7 C644.59,538.4 685.6,567.05 728,581 C821.22,611.66 1516.86,570.32 1611,598 C1635.51,605.21 1659.97,619.62 1679.3,633.14 " fill="none" id="amartinm.mastermind.controllers.implementation.ResumeControllerImplementation-amartinm.mastermind.models.SessionImplementation" style="stroke: #A80036; stroke-width: 1.0;"/><polygon fill="#A80036" points="1690.06,640.94,1685.1265,632.4159,1686.0137,638.0027,1680.4269,638.89,1690.06,640.94" style="stroke: #A80036; stroke-width: 1.0;"/><line style="stroke: #A80036; stroke-width: 1.0;" x1="1686.0137" x2="1679.535" y1="638.0027" y2="633.305"/><polygon fill="#A80036" points="603.62,504.12,605.5955,511.0552,612.7571,511.8991,610.7816,504.9638,603.62,504.12" style="stroke: #A80036; stroke-width: 1.0;"/><!--link amartinm.mastermind.controllers.implementation.StartControllerImplementation to amartinm.mastermind.models.SessionImplementation--><path d="M1053.28,507.44 C1148.02,533.04 1271.52,563.35 1383,581 C1483.36,596.89 1514.34,566.66 1611,598 C1634.95,605.77 1659.04,619.94 1678.29,633.16 " fill="none" id="amartinm.mastermind.controllers.implementation.StartControllerImplementation-amartinm.mastermind.models.SessionImplementation" style="stroke: #A80036; stroke-width: 1.0;"/><polygon fill="#A80036" points="1689.02,640.78,1683.991,632.3119,1684.941,637.8884,1679.3644,638.8383,1689.02,640.78" style="stroke: #A80036; stroke-width: 1.0;"/><line style="stroke: #A80036; stroke-width: 1.0;" x1="1684.941" x2="1678.42" y1="637.8884" y2="633.25"/><polygon fill="#A80036" points="1040.7,504.02,1045.4387,509.4555,1052.2787,507.1718,1047.54,501.7364,1040.7,504.02" style="stroke: #A80036; stroke-width: 1.0;"/><!--
@startuml

namespace amartinm.mastermind.controllers.implementation {

    amartinm.mastermind.controllers.ResumeController <|- - ResumeControllerImplementation
    amartinm.mastermind.controllers.StartController <|- - StartControllerImplementation
    amartinm.mastermind.controllers.PlayController <|- - PlayControllerImplementation

    class amartinm.mastermind.controllers.Logic
    amartinm.mastermind.controllers.Logic <|- - LogicImplementation

    class LogicImplementation {
        # startControllerImplementation: StartControllerImplementation
        # playControllerImplementation: PlayControllerImplementation
        # resumeControllerImplementation: ResumeControllerImplementation

        + LogicImplementation()
    }
    LogicImplementation *- -> StartControllerImplementation
    LogicImplementation *- -> PlayControllerImplementation
    LogicImplementation *- -> ResumeControllerImplementation
    LogicImplementation ..> amartinm.mastermind.models.SessionImplementation
    LogicImplementation ..> amartinm.mastermind.models.StateValue

    class PlayControllerImplementation {
        -proposalController: ProposalController
        -undoController: UndoController
        -redoController: RedoController
        +PlayControllerImplementation(Session)
        +isCombinationValid(String): Error
        +addProposedCombination(ProposedCombination): void
        +getAttempts(): int
        +getProposedCombination(int): ProposedCombination
        +getResult(int): Result
        +isWinner(): boolean
        +isLooser(): boolean
        +undo(): void
        +undoable(): boolean
        +redo(): void
        +redoable(): boolean
    }
    PlayControllerImplementation *- -> ProposalController
    PlayControllerImplementation *- -> UndoController
    PlayControllerImplementation *- -> RedoController
    PlayControllerImplementation ..> amartinm.mastermind.models.Error
    PlayControllerImplementation ..> amartinm.mastermind.models.ProposedCombination
    PlayControllerImplementation ..> amartinm.mastermind.models.Result
    PlayControllerImplementation ..> amartinm.mastermind.models.Session

    class ResumeControllerImplementation {
        -sessionImplementation: SessionImplementation
        +ResumeControllerImplementation(Session)
        +resume(boolean): void
    }
    ResumeControllerImplementation *- -> amartinm.mastermind.models.SessionImplementation

    class StartControllerImplementation {
        ~sessionImplementation: SessionImplementation
        +StartControllerImplementation(Session)
        +start(): void
    }
    StartControllerImplementation *- -> amartinm.mastermind.models.SessionImplementation
}
@enduml

PlantUML version 1.2019.05(Sat Apr 20 18:45:36 CEST 2019)
(GPL source distribution)
Java Runtime: OpenJDK Runtime Environment
JVM: OpenJDK 64-Bit Server VM
Java Version: 1.8.0_265-8u265-b01-0ubuntu2~20.04-b01
Operating System: Linux
OS Version: 5.4.0-52-generic
Default Encoding: UTF-8
Language: es
Country: ES
--></g></svg>