<?xml version="1.0" encoding="UTF-8" standalone="no"?><svg xmlns="http://www.w3.org/2000/svg" xmlns:xlink="http://www.w3.org/1999/xlink" contentScriptType="application/ecmascript" contentStyleType="text/css" height="481px" preserveAspectRatio="none" style="width:1764px;height:481px;" version="1.1" viewBox="0 0 1764 481" width="1764px" zoomAndPan="magnify"><defs><filter height="300%" id="f183i8qqt9wvc6" width="300%" x="-1" y="-1"><feGaussianBlur result="blurOut" stdDeviation="2.0"/><feColorMatrix in="blurOut" result="blurOut2" type="matrix" values="0 0 0 0 0 0 0 0 0 0 0 0 0 0 0 0 0 0 .4 0"/><feOffset dx="4.0" dy="4.0" in="blurOut2" result="blurOut3"/><feBlend in="SourceGraphic" in2="blurOut3" mode="normal"/></filter></defs><g><!--cluster mastermind.views.graphics--><polygon fill="#FFFFFF" filter="url(#f183i8qqt9wvc6)" points="22,319,245,319,252,341.2969,1742,341.2969,1742,469,22,469,22,319" style="stroke: #000000; stroke-width: 1.5;"/><line style="stroke: #000000; stroke-width: 1.5;" x1="22" x2="252" y1="341.2969" y2="341.2969"/><text fill="#000000" font-family="sans-serif" font-size="14" font-weight="bold" lengthAdjust="spacingAndGlyphs" textLength="217" x="26" y="333.9951">mastermind.views.graphics</text><!--cluster utils--><polygon fill="#FFFFFF" filter="url(#f183i8qqt9wvc6)" points="1121,183,1160,183,1167,205.2969,1291,205.2969,1291,295,1121,295,1121,183" style="stroke: #000000; stroke-width: 1.5;"/><line style="stroke: #000000; stroke-width: 1.5;" x1="1121" x2="1167" y1="205.2969" y2="205.2969"/><text fill="#000000" font-family="sans-serif" font-size="14" font-weight="bold" lengthAdjust="spacingAndGlyphs" textLength="33" x="1125" y="197.9951">utils</text><!--cluster mastermind.views--><polygon fill="#FFFFFF" filter="url(#f183i8qqt9wvc6)" points="492,24,642,24,649,46.2969,846,46.2969,846,295,492,295,492,24" style="stroke: #000000; stroke-width: 1.5;"/><line style="stroke: #000000; stroke-width: 1.5;" x1="492" x2="649" y1="46.2969" y2="46.2969"/><text fill="#000000" font-family="sans-serif" font-size="14" font-weight="bold" lengthAdjust="spacingAndGlyphs" textLength="144" x="496" y="38.9951">mastermind.views</text><!--class mastermind.views.graphics.ResumeView--><a href="ResumeView.html" target="_top" xlink:actuate="onRequest" xlink:show="new" xlink:title="ResumeView.html" xlink:type="simple"><rect fill="#FEFECE" filter="url(#f183i8qqt9wvc6)" height="73.6094" id="mastermind.views.graphics.ResumeView" style="stroke: #A80036; stroke-width: 1.5;" width="323" x="1402.5" y="366.5"/><ellipse cx="1520.75" cy="382.5" fill="#ADD1B2" rx="11" ry="11" style="stroke: #A80036; stroke-width: 1.0;"/><path d="M1523.7188,388.1406 Q1523.1406,388.4375 1522.5,388.5781 Q1521.8594,388.7344 1521.1563,388.7344 Q1518.6563,388.7344 1517.3281,387.0938 Q1516.0156,385.4375 1516.0156,382.3125 Q1516.0156,379.1875 1517.3281,377.5313 Q1518.6563,375.875 1521.1563,375.875 Q1521.8594,375.875 1522.5,376.0313 Q1523.1563,376.1875 1523.7188,376.4844 L1523.7188,379.2031 Q1523.0938,378.625 1522.5,378.3594 Q1521.9063,378.0781 1521.2813,378.0781 Q1519.9375,378.0781 1519.25,379.1563 Q1518.5625,380.2188 1518.5625,382.3125 Q1518.5625,384.4063 1519.25,385.4844 Q1519.9375,386.5469 1521.2813,386.5469 Q1521.9063,386.5469 1522.5,386.2813 Q1523.0938,386 1523.7188,385.4219 L1523.7188,388.1406 Z "/><text fill="#000000" font-family="sans-serif" font-size="12" lengthAdjust="spacingAndGlyphs" textLength="78" x="1541.25" y="386.6543">ResumeView</text><line style="stroke: #A80036; stroke-width: 1.5;" x1="1403.5" x2="1724.5" y1="398.5" y2="398.5"/><ellipse cx="1413.5" cy="410.4023" fill="none" rx="3" ry="3" style="stroke: #038048; stroke-width: 1.0;"/><text fill="#000000" font-family="sans-serif" font-size="11" lengthAdjust="spacingAndGlyphs" text-decoration="underline" textLength="104" x="1422.5" y="412.7104">NEW_GAME: String</text><line style="stroke: #A80036; stroke-width: 1.5;" x1="1403.5" x2="1724.5" y1="419.3047" y2="419.3047"/><ellipse cx="1413.5" cy="431.207" fill="#84BE84" rx="3" ry="3" style="stroke: #038048; stroke-width: 1.0;"/><text fill="#000000" font-family="sans-serif" font-size="11" lengthAdjust="spacingAndGlyphs" textLength="297" x="1422.5" y="433.5151">interact(Map&lt;String, Object&gt;): Map&lt;String, Object&gt;</text></a><!--class mastermind.views.graphics.StartView--><a href="StartView.html" target="_top" xlink:actuate="onRequest" xlink:show="new" xlink:title="StartView.html" xlink:type="simple"><rect fill="#FEFECE" filter="url(#f183i8qqt9wvc6)" height="60.8047" id="mastermind.views.graphics.StartView" style="stroke: #A80036; stroke-width: 1.5;" width="323" x="1044.5" y="373"/><ellipse cx="1172.25" cy="389" fill="#ADD1B2" rx="11" ry="11" style="stroke: #A80036; stroke-width: 1.0;"/><path d="M1175.2188,394.6406 Q1174.6406,394.9375 1174,395.0781 Q1173.3594,395.2344 1172.6563,395.2344 Q1170.1563,395.2344 1168.8281,393.5938 Q1167.5156,391.9375 1167.5156,388.8125 Q1167.5156,385.6875 1168.8281,384.0313 Q1170.1563,382.375 1172.6563,382.375 Q1173.3594,382.375 1174,382.5313 Q1174.6563,382.6875 1175.2188,382.9844 L1175.2188,385.7031 Q1174.5938,385.125 1174,384.8594 Q1173.4063,384.5781 1172.7813,384.5781 Q1171.4375,384.5781 1170.75,385.6563 Q1170.0625,386.7188 1170.0625,388.8125 Q1170.0625,390.9063 1170.75,391.9844 Q1171.4375,393.0469 1172.7813,393.0469 Q1173.4063,393.0469 1174,392.7813 Q1174.5938,392.5 1175.2188,391.9219 L1175.2188,394.6406 Z "/><text fill="#000000" font-family="sans-serif" font-size="12" lengthAdjust="spacingAndGlyphs" textLength="59" x="1192.75" y="393.1543">StartView</text><line style="stroke: #A80036; stroke-width: 1.5;" x1="1045.5" x2="1366.5" y1="405" y2="405"/><line style="stroke: #A80036; stroke-width: 1.5;" x1="1045.5" x2="1366.5" y1="413" y2="413"/><ellipse cx="1055.5" cy="424.9023" fill="#84BE84" rx="3" ry="3" style="stroke: #038048; stroke-width: 1.0;"/><text fill="#000000" font-family="sans-serif" font-size="11" lengthAdjust="spacingAndGlyphs" textLength="297" x="1064.5" y="427.2104">interact(Map&lt;String, Object&gt;): Map&lt;String, Object&gt;</text></a><!--class mastermind.views.graphics.ProposedCombinationView--><a href="ProposedCombinationView.html" target="_top" xlink:actuate="onRequest" xlink:show="new" xlink:title="ProposedCombinationView.html" xlink:type="simple"><rect fill="#FEFECE" filter="url(#f183i8qqt9wvc6)" height="86.4141" id="mastermind.views.graphics.ProposedCombinationView" style="stroke: #A80036; stroke-width: 1.5;" width="323" x="686.5" y="360.5"/><ellipse cx="760.75" cy="376.5" fill="#ADD1B2" rx="11" ry="11" style="stroke: #A80036; stroke-width: 1.0;"/><path d="M763.7188,382.1406 Q763.1406,382.4375 762.5,382.5781 Q761.8594,382.7344 761.1563,382.7344 Q758.6563,382.7344 757.3281,381.0938 Q756.0156,379.4375 756.0156,376.3125 Q756.0156,373.1875 757.3281,371.5313 Q758.6563,369.875 761.1563,369.875 Q761.8594,369.875 762.5,370.0313 Q763.1563,370.1875 763.7188,370.4844 L763.7188,373.2031 Q763.0938,372.625 762.5,372.3594 Q761.9063,372.0781 761.2813,372.0781 Q759.9375,372.0781 759.25,373.1563 Q758.5625,374.2188 758.5625,376.3125 Q758.5625,378.4063 759.25,379.4844 Q759.9375,380.5469 761.2813,380.5469 Q761.9063,380.5469 762.5,380.2813 Q763.0938,380 763.7188,379.4219 L763.7188,382.1406 Z "/><text fill="#000000" font-family="sans-serif" font-size="12" lengthAdjust="spacingAndGlyphs" textLength="166" x="781.25" y="380.6543">ProposedCombinationView</text><line style="stroke: #A80036; stroke-width: 1.5;" x1="687.5" x2="1008.5" y1="392.5" y2="392.5"/><ellipse cx="697.5" cy="404.4023" fill="none" rx="3" ry="3" style="stroke: #038048; stroke-width: 1.0;"/><text fill="#000000" font-family="sans-serif" font-size="11" lengthAdjust="spacingAndGlyphs" text-decoration="underline" textLength="189" x="706.5" y="406.7104">PROPOSED_COMBINATION: String</text><line style="stroke: #A80036; stroke-width: 1.5;" x1="687.5" x2="1008.5" y1="413.3047" y2="413.3047"/><ellipse cx="697.5" cy="425.207" fill="#84BE84" rx="3" ry="3" style="stroke: #038048; stroke-width: 1.0;"/><text fill="#000000" font-family="sans-serif" font-size="11" lengthAdjust="spacingAndGlyphs" text-decoration="underline" textLength="192" x="706.5" y="427.5151">write(ProposedCombination): void</text><ellipse cx="697.5" cy="438.0117" fill="#84BE84" rx="3" ry="3" style="stroke: #038048; stroke-width: 1.0;"/><text fill="#000000" font-family="sans-serif" font-size="11" lengthAdjust="spacingAndGlyphs" textLength="297" x="706.5" y="440.3198">interact(Map&lt;String, Object&gt;): Map&lt;String, Object&gt;</text></a><!--class mastermind.views.graphics.PlayView--><a href="PlayView.html" target="_top" xlink:actuate="onRequest" xlink:show="new" xlink:title="PlayView.html" xlink:type="simple"><rect fill="#FEFECE" filter="url(#f183i8qqt9wvc6)" height="73.6094" id="mastermind.views.graphics.PlayView" style="stroke: #A80036; stroke-width: 1.5;" width="323" x="328.5" y="366.5"/><ellipse cx="459.25" cy="382.5" fill="#ADD1B2" rx="11" ry="11" style="stroke: #A80036; stroke-width: 1.0;"/><path d="M462.2188,388.1406 Q461.6406,388.4375 461,388.5781 Q460.3594,388.7344 459.6563,388.7344 Q457.1563,388.7344 455.8281,387.0938 Q454.5156,385.4375 454.5156,382.3125 Q454.5156,379.1875 455.8281,377.5313 Q457.1563,375.875 459.6563,375.875 Q460.3594,375.875 461,376.0313 Q461.6563,376.1875 462.2188,376.4844 L462.2188,379.2031 Q461.5938,378.625 461,378.3594 Q460.4063,378.0781 459.7813,378.0781 Q458.4375,378.0781 457.75,379.1563 Q457.0625,380.2188 457.0625,382.3125 Q457.0625,384.4063 457.75,385.4844 Q458.4375,386.5469 459.7813,386.5469 Q460.4063,386.5469 461,386.2813 Q461.5938,386 462.2188,385.4219 L462.2188,388.1406 Z "/><text fill="#000000" font-family="sans-serif" font-size="12" lengthAdjust="spacingAndGlyphs" textLength="53" x="479.75" y="386.6543">PlayView</text><line style="stroke: #A80036; stroke-width: 1.5;" x1="329.5" x2="650.5" y1="398.5" y2="398.5"/><ellipse cx="339.5" cy="410.4023" fill="none" rx="3" ry="3" style="stroke: #038048; stroke-width: 1.0;"/><text fill="#000000" font-family="sans-serif" font-size="11" lengthAdjust="spacingAndGlyphs" text-decoration="underline" textLength="93" x="348.5" y="412.7104">RESULTS: String</text><line style="stroke: #A80036; stroke-width: 1.5;" x1="329.5" x2="650.5" y1="419.3047" y2="419.3047"/><ellipse cx="339.5" cy="431.207" fill="#84BE84" rx="3" ry="3" style="stroke: #038048; stroke-width: 1.0;"/><text fill="#000000" font-family="sans-serif" font-size="11" lengthAdjust="spacingAndGlyphs" textLength="297" x="348.5" y="433.5151">interact(Map&lt;String, Object&gt;): Map&lt;String, Object&gt;</text></a><!--class mastermind.views.graphics.GraphicsViewFactory--><rect fill="#FEFECE" filter="url(#f183i8qqt9wvc6)" height="99.2188" id="mastermind.views.graphics.GraphicsViewFactory" style="stroke: #A80036; stroke-width: 1.5;" width="255" x="38.5" y="354"/><ellipse cx="97.25" cy="370" fill="#ADD1B2" rx="11" ry="11" style="stroke: #A80036; stroke-width: 1.0;"/><path d="M100.2188,375.6406 Q99.6406,375.9375 99,376.0781 Q98.3594,376.2344 97.6563,376.2344 Q95.1563,376.2344 93.8281,374.5938 Q92.5156,372.9375 92.5156,369.8125 Q92.5156,366.6875 93.8281,365.0313 Q95.1563,363.375 97.6563,363.375 Q98.3594,363.375 99,363.5313 Q99.6563,363.6875 100.2188,363.9844 L100.2188,366.7031 Q99.5938,366.125 99,365.8594 Q98.4063,365.5781 97.7813,365.5781 Q96.4375,365.5781 95.75,366.6563 Q95.0625,367.7188 95.0625,369.8125 Q95.0625,371.9063 95.75,372.9844 Q96.4375,374.0469 97.7813,374.0469 Q98.4063,374.0469 99,373.7813 Q99.5938,373.5 100.2188,372.9219 L100.2188,375.6406 Z "/><text fill="#000000" font-family="sans-serif" font-size="12" lengthAdjust="spacingAndGlyphs" textLength="129" x="117.75" y="374.1543">GraphicsViewFactory</text><line style="stroke: #A80036; stroke-width: 1.5;" x1="39.5" x2="292.5" y1="386" y2="386"/><line style="stroke: #A80036; stroke-width: 1.5;" x1="39.5" x2="292.5" y1="394" y2="394"/><ellipse cx="49.5" cy="405.9023" fill="#84BE84" rx="3" ry="3" style="stroke: #038048; stroke-width: 1.0;"/><text fill="#000000" font-family="sans-serif" font-size="11" lengthAdjust="spacingAndGlyphs" textLength="132" x="58.5" y="408.2104">createStartView(): View</text><ellipse cx="49.5" cy="418.707" fill="#84BE84" rx="3" ry="3" style="stroke: #038048; stroke-width: 1.0;"/><text fill="#000000" font-family="sans-serif" font-size="11" lengthAdjust="spacingAndGlyphs" textLength="127" x="58.5" y="421.0151">createPlayView(): View</text><ellipse cx="49.5" cy="431.5117" fill="#84BE84" rx="3" ry="3" style="stroke: #038048; stroke-width: 1.0;"/><text fill="#000000" font-family="sans-serif" font-size="11" lengthAdjust="spacingAndGlyphs" textLength="229" x="58.5" y="433.8198">createProposedCombinationView(): View</text><ellipse cx="49.5" cy="444.3164" fill="#84BE84" rx="3" ry="3" style="stroke: #038048; stroke-width: 1.0;"/><text fill="#000000" font-family="sans-serif" font-size="11" lengthAdjust="spacingAndGlyphs" textLength="150" x="58.5" y="446.6245">createResumeView(): View</text><!--class utils.WithConsoleView--><a href="WithConsoleView.html" target="_top" xlink:actuate="onRequest" xlink:show="new" xlink:title="WithConsoleView.html" xlink:type="simple"><rect fill="#FEFECE" filter="url(#f183i8qqt9wvc6)" height="60.8047" id="utils.WithConsoleView" style="stroke: #A80036; stroke-width: 1.5;" width="138" x="1137" y="218"/><ellipse cx="1152" cy="234" fill="#A9DCDF" rx="11" ry="11" style="stroke: #A80036; stroke-width: 1.0;"/><path d="M1152.1094,229.3438 L1150.9531,234.4219 L1153.2813,234.4219 L1152.1094,229.3438 Z M1150.625,227.1094 L1153.6094,227.1094 L1156.9688,239.5 L1154.5156,239.5 L1153.75,236.4375 L1150.4688,236.4375 L1149.7188,239.5 L1147.2813,239.5 L1150.625,227.1094 Z "/><text fill="#000000" font-family="sans-serif" font-size="12" font-style="italic" lengthAdjust="spacingAndGlyphs" textLength="106" x="1166" y="238.1543">WithConsoleView</text><line style="stroke: #A80036; stroke-width: 1.5;" x1="1138" x2="1274" y1="250" y2="250"/><polygon fill="none" points="1148,256.9023,1152,260.9023,1148,264.9023,1144,260.9023" style="stroke: #B38D22; stroke-width: 1.0;"/><text fill="#000000" font-family="sans-serif" font-size="11" lengthAdjust="spacingAndGlyphs" textLength="98" x="1157" y="264.2104">console: Console</text><line style="stroke: #A80036; stroke-width: 1.5;" x1="1138" x2="1274" y1="270.8047" y2="270.8047"/></a><!--class mastermind.views.View--><rect fill="#FEFECE" filter="url(#f183i8qqt9wvc6)" height="60.8047" id="mastermind.views.View" style="stroke: #A80036; stroke-width: 1.5;" width="321" x="508.5" y="218"/><ellipse cx="650.25" cy="234" fill="#B4A7E5" rx="11" ry="11" style="stroke: #A80036; stroke-width: 1.0;"/><path d="M646.1719,229.7656 L646.1719,227.6094 L653.5625,227.6094 L653.5625,229.7656 L651.0938,229.7656 L651.0938,237.8438 L653.5625,237.8438 L653.5625,240 L646.1719,240 L646.1719,237.8438 L648.6406,237.8438 L648.6406,229.7656 L646.1719,229.7656 Z "/><text fill="#000000" font-family="sans-serif" font-size="12" font-style="italic" lengthAdjust="spacingAndGlyphs" textLength="29" x="670.75" y="238.1543">View</text><line style="stroke: #A80036; stroke-width: 1.5;" x1="509.5" x2="828.5" y1="250" y2="250"/><line style="stroke: #A80036; stroke-width: 1.5;" x1="509.5" x2="828.5" y1="258" y2="258"/><ellipse cx="519.5" cy="269.9023" fill="#84BE84" rx="3" ry="3" style="stroke: #038048; stroke-width: 1.0;"/><text fill="#000000" font-family="sans-serif" font-size="11" font-style="italic" lengthAdjust="spacingAndGlyphs" textLength="295" x="528.5" y="272.2104">interact(Map&lt;String, Object&gt;): Map&lt;String, Object&gt;</text><!--class mastermind.views.ViewFactory--><rect fill="#FEFECE" filter="url(#f183i8qqt9wvc6)" height="99.2188" id="mastermind.views.ViewFactory" style="stroke: #A80036; stroke-width: 1.5;" width="256" x="557" y="59"/><ellipse cx="642.75" cy="75" fill="#B4A7E5" rx="11" ry="11" style="stroke: #A80036; stroke-width: 1.0;"/><path d="M638.6719,70.7656 L638.6719,68.6094 L646.0625,68.6094 L646.0625,70.7656 L643.5938,70.7656 L643.5938,78.8438 L646.0625,78.8438 L646.0625,81 L638.6719,81 L638.6719,78.8438 L641.1406,78.8438 L641.1406,70.7656 L638.6719,70.7656 Z "/><text fill="#000000" font-family="sans-serif" font-size="12" font-style="italic" lengthAdjust="spacingAndGlyphs" textLength="76" x="663.25" y="79.1543">ViewFactory</text><line style="stroke: #A80036; stroke-width: 1.5;" x1="558" x2="812" y1="91" y2="91"/><line style="stroke: #A80036; stroke-width: 1.5;" x1="558" x2="812" y1="99" y2="99"/><ellipse cx="568" cy="110.9023" fill="#84BE84" rx="3" ry="3" style="stroke: #038048; stroke-width: 1.0;"/><text fill="#000000" font-family="sans-serif" font-size="11" font-style="italic" lengthAdjust="spacingAndGlyphs" textLength="133" x="577" y="113.2104">createStartView(): View</text><ellipse cx="568" cy="123.707" fill="#84BE84" rx="3" ry="3" style="stroke: #038048; stroke-width: 1.0;"/><text fill="#000000" font-family="sans-serif" font-size="11" font-style="italic" lengthAdjust="spacingAndGlyphs" textLength="130" x="577" y="126.0151">createPlayView(): View</text><ellipse cx="568" cy="136.5117" fill="#84BE84" rx="3" ry="3" style="stroke: #038048; stroke-width: 1.0;"/><text fill="#000000" font-family="sans-serif" font-size="11" font-style="italic" lengthAdjust="spacingAndGlyphs" textLength="230" x="577" y="138.8198">createProposedCombinationView(): View</text><ellipse cx="568" cy="149.3164" fill="#84BE84" rx="3" ry="3" style="stroke: #038048; stroke-width: 1.0;"/><text fill="#000000" font-family="sans-serif" font-size="11" font-style="italic" lengthAdjust="spacingAndGlyphs" textLength="152" x="577" y="151.6245">createResumeView(): View</text><!--link utils.WithConsoleView to mastermind.views.graphics.ResumeView--><path d="M1294.07,282.65 C1318.24,291.23 1344.26,300.91 1368,311 C1406.55,327.38 1448.29,348.51 1483.51,366.33 " fill="none" id="utils.WithConsoleView-mastermind.views.graphics.ResumeView" style="stroke: #A80036; stroke-width: 1.0;"/><polygon fill="none" points="1291.71,289.24,1275.16,276.02,1296.35,276.03,1291.71,289.24" style="stroke: #A80036; stroke-width: 1.0;"/><!--link utils.WithConsoleView to mastermind.views.graphics.ResumeView--><path d="M1294.51,271.69 C1329.1,282.5 1368.46,296.32 1403,311 C1441.55,327.38 1483.29,348.51 1514.9,366.33 " fill="none" id="utils.WithConsoleView-mastermind.views.graphics.ResumeView-1" style="stroke: #A80036; stroke-width: 1.0;"/><polygon fill="none" points="1292.41,278.37,1275.31,265.85,1296.48,264.97,1292.41,278.37" style="stroke: #A80036; stroke-width: 1.0;"/><!--link mastermind.views.View to mastermind.views.graphics.ResumeView--><path d="M849.81,274.57 C932.35,285.07 1031.45,296.36 1121,303 C1179.53,307.34 1328.15,296.4 1385,311 C1429.28,322.37 1475.12,346.07 1509.32,366.49 " fill="none" id="mastermind.views.View-mastermind.views.graphics.ResumeView" style="stroke: #A80036; stroke-width: 1.0; stroke-dasharray: 7.0,7.0;"/><polygon fill="none" points="848.69,281.49,829.75,271.99,850.48,267.6,848.69,281.49" style="stroke: #A80036; stroke-width: 1.0;"/><!--link utils.WithConsoleView to mastermind.views.graphics.StartView--><path d="M1206,299.39 C1206,323.71 1206,352.14 1206,372.97 " fill="none" id="utils.WithConsoleView-mastermind.views.graphics.StartView" style="stroke: #A80036; stroke-width: 1.0;"/><polygon fill="none" points="1199,299.36,1206,279.36,1213,299.36,1199,299.36" style="stroke: #A80036; stroke-width: 1.0;"/><!--link mastermind.views.View to mastermind.views.graphics.StartView--><path d="M849.8,269.68 C907.35,278.97 970.67,292.25 1027,311 C1073.53,326.49 1122.9,352.54 1157.98,372.89 " fill="none" id="mastermind.views.View-mastermind.views.graphics.StartView" style="stroke: #A80036; stroke-width: 1.0; stroke-dasharray: 7.0,7.0;"/><polygon fill="none" points="848.39,276.54,829.71,266.55,850.54,262.71,848.39,276.54" style="stroke: #A80036; stroke-width: 1.0;"/><!--link utils.WithConsoleView to mastermind.views.graphics.ProposedCombinationView--><path d="M1117.59,277.11 C1088.41,286.95 1056.01,298.67 1027,311 C992.63,325.6 955.72,343.98 924.4,360.43 " fill="none" id="utils.WithConsoleView-mastermind.views.graphics.ProposedCombinationView" style="stroke: #A80036; stroke-width: 1.0;"/><polygon fill="none" points="1115.53,270.42,1136.72,270.77,1119.94,283.71,1115.53,270.42" style="stroke: #A80036; stroke-width: 1.0;"/><!--link mastermind.views.View to mastermind.views.graphics.ProposedCombinationView--><path d="M719.4,292.58 C744.18,313.76 773.94,339.2 798.59,360.27 " fill="none" id="mastermind.views.View-mastermind.views.graphics.ProposedCombinationView" style="stroke: #A80036; stroke-width: 1.0; stroke-dasharray: 7.0,7.0;"/><polygon fill="none" points="714.59,297.68,703.94,279.36,723.69,287.04,714.59,297.68" style="stroke: #A80036; stroke-width: 1.0;"/><!--link utils.WithConsoleView to mastermind.views.graphics.PlayView--><path d="M1116.91,269.03 C1058.17,281.05 979.37,295.53 909,303 C855.94,308.63 720.67,297.65 669,311 C624.9,322.4 579.25,345.95 545.08,366.31 " fill="none" id="utils.WithConsoleView-mastermind.views.graphics.PlayView" style="stroke: #A80036; stroke-width: 1.0;"/><polygon fill="none" points="1115.79,262.12,1136.8,264.9,1118.64,275.82,1115.79,262.12" style="stroke: #A80036; stroke-width: 1.0;"/><!--link mastermind.views.View to mastermind.views.graphics.PlayView--><path d="M618.84,292.38 C591.62,315.64 558.34,344.09 532.42,366.24 " fill="none" id="mastermind.views.View-mastermind.views.graphics.PlayView" style="stroke: #A80036; stroke-width: 1.0; stroke-dasharray: 7.0,7.0;"/><polygon fill="none" points="614.31,287.04,634.06,279.36,623.41,297.68,614.31,287.04" style="stroke: #A80036; stroke-width: 1.0;"/><!--link mastermind.views.ViewFactory to mastermind.views.View--><path d="M679.36,158.15 C677.27,176.16 674.95,196.19 673.03,212.72 " fill="none" id="mastermind.views.ViewFactory-mastermind.views.View" style="stroke: #A80036; stroke-width: 1.0; stroke-dasharray: 7.0,7.0;"/><polygon fill="#A80036" points="672.45,217.73,677.4516,209.2456,673.021,212.7627,669.5039,208.3321,672.45,217.73" style="stroke: #A80036; stroke-width: 1.0;"/><!--link mastermind.views.ViewFactory to mastermind.views.graphics.GraphicsViewFactory--><path d="M829.38,155.24 C836.05,161.06 842.02,167.61 847,175 C878.81,222.17 886.93,262.47 847,303 C836.55,313.61 325.27,306.76 311,311 C281.04,319.91 251.26,336.9 226.56,353.85 " fill="none" id="mastermind.views.ViewFactory-mastermind.views.graphics.GraphicsViewFactory" style="stroke: #A80036; stroke-width: 1.0; stroke-dasharray: 7.0,7.0;"/><polygon fill="none" points="825.17,160.83,813.25,143.32,833.49,149.58,825.17,160.83" style="stroke: #A80036; stroke-width: 1.0;"/><!--link mastermind.views.graphics.GraphicsViewFactory to mastermind.views.View--><path d="M230.95,353.86 C255.01,337.96 283.21,321.67 311,311 C371.56,287.75 441.25,273.26 502.95,264.24 " fill="none" id="mastermind.views.graphics.GraphicsViewFactory-mastermind.views.View" style="stroke: #A80036; stroke-width: 1.0; stroke-dasharray: 7.0,7.0;"/><polygon fill="#A80036" points="508.14,263.49,498.6615,260.8145,503.1911,264.2031,499.8025,268.7327,508.14,263.49" style="stroke: #A80036; stroke-width: 1.0;"/><!--
@startuml

class mastermind.views.graphics.ResumeView [[ResumeView.html]] {
    {static} +NEW_GAME: String
    +interact(Map<String, Object>): Map<String, Object>
}

class mastermind.views.graphics.StartView [[StartView.html]] {
    +interact(Map<String, Object>): Map<String, Object>
}

class mastermind.views.graphics.ProposedCombinationView [[ProposedCombinationView.html]] {
    {static} +PROPOSED_COMBINATION: String
    {static} +write(ProposedCombination): void
    +interact(Map<String, Object>): Map<String, Object>
}

class mastermind.views.graphics.PlayView [[PlayView.html]] {
    {static} +RESULTS: String
    +interact(Map<String, Object>): Map<String, Object>
}

abstract class utils.WithConsoleView [[WithConsoleView.html]] {
    #console: Console
}
utils.WithConsoleView <|- - mastermind.views.graphics.ResumeView

interface mastermind.views.View {
    {abstract} +interact(Map<String, Object>): Map<String, Object>
}
mastermind.views.View <|.. mastermind.views.graphics.ResumeView

utils.WithConsoleView <|- - mastermind.views.graphics.ResumeView

utils.WithConsoleView <|- - mastermind.views.graphics.StartView

mastermind.views.View <|.. mastermind.views.graphics.StartView

utils.WithConsoleView <|- - mastermind.views.graphics.ProposedCombinationView

mastermind.views.View <|.. mastermind.views.graphics.ProposedCombinationView

utils.WithConsoleView <|- - mastermind.views.graphics.PlayView

mastermind.views.View <|.. mastermind.views.graphics.PlayView

interface mastermind.views.ViewFactory {
    +{abstract} createStartView(): View
    +{abstract} createPlayView(): View
    +{abstract} createProposedCombinationView(): View
    +{abstract} createResumeView(): View
}
mastermind.views.ViewFactory ..> mastermind.views.View

class mastermind.views.graphics.GraphicsViewFactory implements mastermind.views.ViewFactory {
    + createStartView(): View
    + createPlayView(): View
    + createProposedCombinationView(): View
    + createResumeView(): View
}
mastermind.views.graphics.GraphicsViewFactory ..> mastermind.views.View
@enduml

PlantUML version 1.2019.05(Sat Apr 20 18:45:36 CEST 2019)
(GPL source distribution)
Java Runtime: OpenJDK Runtime Environment
JVM: OpenJDK 64-Bit Server VM
Java Version: 1.8.0_265-8u265-b01-0ubuntu2~20.04-b01
Operating System: Linux
OS Version: 5.4.0-52-generic
Default Encoding: UTF-8
Language: es
Country: ES
--></g></svg>