<?xml version="1.0" encoding="UTF-8" standalone="no"?><svg xmlns="http://www.w3.org/2000/svg" xmlns:xlink="http://www.w3.org/1999/xlink" contentScriptType="application/ecmascript" contentStyleType="text/css" height="840px" preserveAspectRatio="none" style="width:4930px;height:840px;" version="1.1" viewBox="0 0 4930 840" width="4930px" zoomAndPan="magnify"><defs><filter height="300%" id="fd1akk2na9w5c" width="300%" x="-1" y="-1"><feGaussianBlur result="blurOut" stdDeviation="2.0"/><feColorMatrix in="blurOut" result="blurOut2" type="matrix" values="0 0 0 0 0 0 0 0 0 0 0 0 0 0 0 0 0 0 .4 0"/><feOffset dx="4.0" dy="4.0" in="blurOut2" result="blurOut3"/><feBlend in="SourceGraphic" in2="blurOut3" mode="normal"/></filter></defs><g><!--cluster amartinm.mastermind.distributed--><polygon fill="#FFFFFF" filter="url(#fd1akk2na9w5c)" points="240.76,147,508.76,147,515.76,169.2969,3869.76,169.2969,3869.76,705,240.76,705,240.76,147" style="stroke: #000000; stroke-width: 1.5;"/><line style="stroke: #000000; stroke-width: 1.5;" x1="240.76" x2="515.76" y1="169.2969" y2="169.2969"/><text fill="#000000" font-family="sans-serif" font-size="14" font-weight="bold" lengthAdjust="spacingAndGlyphs" textLength="262" x="244.76" y="161.9951">amartinm.mastermind.distributed</text><!--cluster amartinm.mastermind.controllers.implementation--><polygon fill="#FFFFFF" filter="url(#fd1akk2na9w5c)" points="3893.76,172.5,4287.76,172.5,4294.76,194.7969,4297.76,194.7969,4297.76,271.5,3893.76,271.5,3893.76,172.5" style="stroke: #000000; stroke-width: 1.5;"/><line style="stroke: #000000; stroke-width: 1.5;" x1="3893.76" x2="4294.76" y1="194.7969" y2="194.7969"/><text fill="#000000" font-family="sans-serif" font-size="14" font-weight="bold" lengthAdjust="spacingAndGlyphs" textLength="388" x="3897.76" y="187.4951">amartinm.mastermind.controllers.implementation</text><!--cluster amartinm.mastermind.distributed.dispatchers--><polygon fill="#FFFFFF" filter="url(#fd1akk2na9w5c)" points="2813.76,729,3179.76,729,3186.76,751.2969,3243.76,751.2969,3243.76,828,2813.76,828,2813.76,729" style="stroke: #000000; stroke-width: 1.5;"/><line style="stroke: #000000; stroke-width: 1.5;" x1="2813.76" x2="3186.76" y1="751.2969" y2="751.2969"/><text fill="#000000" font-family="sans-serif" font-size="14" font-weight="bold" lengthAdjust="spacingAndGlyphs" textLength="360" x="2817.76" y="743.9951">amartinm.mastermind.distributed.dispatchers</text><!--cluster amartinm.mastermind.controllers--><polygon fill="#FFFFFF" filter="url(#fd1akk2na9w5c)" points="4321.76,172.5,4589.76,172.5,4596.76,194.7969,4908.76,194.7969,4908.76,271.5,4321.76,271.5,4321.76,172.5" style="stroke: #000000; stroke-width: 1.5;"/><line style="stroke: #000000; stroke-width: 1.5;" x1="4321.76" x2="4596.76" y1="194.7969" y2="194.7969"/><text fill="#000000" font-family="sans-serif" font-size="14" font-weight="bold" lengthAdjust="spacingAndGlyphs" textLength="262" x="4325.76" y="187.4951">amartinm.mastermind.controllers</text><!--cluster amartinm.mastermind.models--><polygon fill="#FFFFFF" filter="url(#fd1akk2na9w5c)" points="3384.76,729,3623.76,729,3630.76,751.2969,4044.76,751.2969,4044.76,828,3384.76,828,3384.76,729" style="stroke: #000000; stroke-width: 1.5;"/><line style="stroke: #000000; stroke-width: 1.5;" x1="3384.76" x2="3630.76" y1="751.2969" y2="751.2969"/><text fill="#000000" font-family="sans-serif" font-size="14" font-weight="bold" lengthAdjust="spacingAndGlyphs" textLength="233" x="3388.76" y="743.9951">amartinm.mastermind.models</text><!--cluster amartinm.mastermind--><polygon fill="#FFFFFF" filter="url(#fd1akk2na9w5c)" points="3273.76,24,3450.76,24,3457.76,46.2969,3460.76,46.2969,3460.76,123,3273.76,123,3273.76,24" style="stroke: #000000; stroke-width: 1.5;"/><line style="stroke: #000000; stroke-width: 1.5;" x1="3273.76" x2="3457.76" y1="46.2969" y2="46.2969"/><text fill="#000000" font-family="sans-serif" font-size="14" font-weight="bold" lengthAdjust="spacingAndGlyphs" textLength="171" x="3277.76" y="38.9951">amartinm.mastermind</text><!--cluster amartinm.utils--><polygon fill="#FFFFFF" filter="url(#fd1akk2na9w5c)" points="1451.76,729,1568.76,729,1575.76,751.2969,1578.76,751.2969,1578.76,828,1451.76,828,1451.76,729" style="stroke: #000000; stroke-width: 1.5;"/><line style="stroke: #000000; stroke-width: 1.5;" x1="1451.76" x2="1575.76" y1="751.2969" y2="751.2969"/><text fill="#000000" font-family="sans-serif" font-size="14" font-weight="bold" lengthAdjust="spacingAndGlyphs" textLength="111" x="1455.76" y="743.9951">amartinm.utils</text><!--class amartinm.mastermind.distributed.LogicImplementationServer--><rect fill="#FEFECE" filter="url(#fd1akk2na9w5c)" height="60.8047" id="amartinm.mastermind.distributed.LogicImplementationServer" style="stroke: #A80036; stroke-width: 1.5;" width="284" x="1246.76" y="353.5"/><ellipse cx="1300.01" cy="369.5" fill="#ADD1B2" rx="11" ry="11" style="stroke: #A80036; stroke-width: 1.0;"/><path d="M1302.9788,375.1406 Q1302.4006,375.4375 1301.76,375.5781 Q1301.1194,375.7344 1300.4163,375.7344 Q1297.9163,375.7344 1296.5881,374.0938 Q1295.2756,372.4375 1295.2756,369.3125 Q1295.2756,366.1875 1296.5881,364.5313 Q1297.9163,362.875 1300.4163,362.875 Q1301.1194,362.875 1301.76,363.0313 Q1302.4163,363.1875 1302.9788,363.4844 L1302.9788,366.2031 Q1302.3538,365.625 1301.76,365.3594 Q1301.1663,365.0781 1300.5413,365.0781 Q1299.1975,365.0781 1298.51,366.1563 Q1297.8225,367.2188 1297.8225,369.3125 Q1297.8225,371.4063 1298.51,372.4844 Q1299.1975,373.5469 1300.5413,373.5469 Q1301.1663,373.5469 1301.76,373.2813 Q1302.3538,373 1302.9788,372.4219 L1302.9788,375.1406 Z "/><text fill="#000000" font-family="sans-serif" font-size="12" lengthAdjust="spacingAndGlyphs" textLength="169" x="1320.51" y="373.6543">LogicImplementationServer</text><line style="stroke: #A80036; stroke-width: 1.5;" x1="1247.76" x2="1529.76" y1="385.5" y2="385.5"/><line style="stroke: #A80036; stroke-width: 1.5;" x1="1247.76" x2="1529.76" y1="393.5" y2="393.5"/><ellipse cx="1257.76" cy="405.4023" fill="#84BE84" rx="3" ry="3" style="stroke: #038048; stroke-width: 1.0;"/><text fill="#000000" font-family="sans-serif" font-size="11" lengthAdjust="spacingAndGlyphs" textLength="258" x="1266.76" y="407.7104">createDispatchers(DispatcherPrototype): void</text><!--class amartinm.mastermind.distributed.StartDispatcher--><rect fill="#FEFECE" filter="url(#fd1akk2na9w5c)" height="48" id="amartinm.mastermind.distributed.StartDispatcher" style="stroke: #A80036; stroke-width: 1.5;" width="131" x="818.26" y="564"/><ellipse cx="833.26" cy="580" fill="#ADD1B2" rx="11" ry="11" style="stroke: #A80036; stroke-width: 1.0;"/><path d="M836.2288,585.6406 Q835.6506,585.9375 835.01,586.0781 Q834.3694,586.2344 833.6663,586.2344 Q831.1663,586.2344 829.8381,584.5938 Q828.5256,582.9375 828.5256,579.8125 Q828.5256,576.6875 829.8381,575.0313 Q831.1663,573.375 833.6663,573.375 Q834.3694,573.375 835.01,573.5313 Q835.6663,573.6875 836.2288,573.9844 L836.2288,576.7031 Q835.6038,576.125 835.01,575.8594 Q834.4163,575.5781 833.7913,575.5781 Q832.4475,575.5781 831.76,576.6563 Q831.0725,577.7188 831.0725,579.8125 Q831.0725,581.9063 831.76,582.9844 Q832.4475,584.0469 833.7913,584.0469 Q834.4163,584.0469 835.01,583.7813 Q835.6038,583.5 836.2288,582.9219 L836.2288,585.6406 Z "/><text fill="#000000" font-family="sans-serif" font-size="12" lengthAdjust="spacingAndGlyphs" textLength="99" x="847.26" y="584.1543">StartDispatcher</text><line style="stroke: #A80036; stroke-width: 1.5;" x1="819.26" x2="948.26" y1="596" y2="596"/><line style="stroke: #A80036; stroke-width: 1.5;" x1="819.26" x2="948.26" y1="604" y2="604"/><!--class amartinm.mastermind.distributed.StateDispatcher--><rect fill="#FEFECE" filter="url(#fd1akk2na9w5c)" height="48" id="amartinm.mastermind.distributed.StateDispatcher" style="stroke: #A80036; stroke-width: 1.5;" width="134" x="984.76" y="564"/><ellipse cx="999.76" cy="580" fill="#ADD1B2" rx="11" ry="11" style="stroke: #A80036; stroke-width: 1.0;"/><path d="M1002.7288,585.6406 Q1002.1506,585.9375 1001.51,586.0781 Q1000.8694,586.2344 1000.1663,586.2344 Q997.6663,586.2344 996.3381,584.5938 Q995.0256,582.9375 995.0256,579.8125 Q995.0256,576.6875 996.3381,575.0313 Q997.6663,573.375 1000.1663,573.375 Q1000.8694,573.375 1001.51,573.5313 Q1002.1663,573.6875 1002.7288,573.9844 L1002.7288,576.7031 Q1002.1038,576.125 1001.51,575.8594 Q1000.9163,575.5781 1000.2913,575.5781 Q998.9475,575.5781 998.26,576.6563 Q997.5725,577.7188 997.5725,579.8125 Q997.5725,581.9063 998.26,582.9844 Q998.9475,584.0469 1000.2913,584.0469 Q1000.9163,584.0469 1001.51,583.7813 Q1002.1038,583.5 1002.7288,582.9219 L1002.7288,585.6406 Z "/><text fill="#000000" font-family="sans-serif" font-size="12" lengthAdjust="spacingAndGlyphs" textLength="102" x="1013.76" y="584.1543">StateDispatcher</text><line style="stroke: #A80036; stroke-width: 1.5;" x1="985.76" x2="1117.76" y1="596" y2="596"/><line style="stroke: #A80036; stroke-width: 1.5;" x1="985.76" x2="1117.76" y1="604" y2="604"/><!--class amartinm.mastermind.distributed.UndoDispatcher--><rect fill="#FEFECE" filter="url(#fd1akk2na9w5c)" height="48" id="amartinm.mastermind.distributed.UndoDispatcher" style="stroke: #A80036; stroke-width: 1.5;" width="133" x="1154.26" y="564"/><ellipse cx="1169.26" cy="580" fill="#ADD1B2" rx="11" ry="11" style="stroke: #A80036; stroke-width: 1.0;"/><path d="M1172.2288,585.6406 Q1171.6506,585.9375 1171.01,586.0781 Q1170.3694,586.2344 1169.6663,586.2344 Q1167.1663,586.2344 1165.8381,584.5938 Q1164.5256,582.9375 1164.5256,579.8125 Q1164.5256,576.6875 1165.8381,575.0313 Q1167.1663,573.375 1169.6663,573.375 Q1170.3694,573.375 1171.01,573.5313 Q1171.6663,573.6875 1172.2288,573.9844 L1172.2288,576.7031 Q1171.6038,576.125 1171.01,575.8594 Q1170.4163,575.5781 1169.7913,575.5781 Q1168.4475,575.5781 1167.76,576.6563 Q1167.0725,577.7188 1167.0725,579.8125 Q1167.0725,581.9063 1167.76,582.9844 Q1168.4475,584.0469 1169.7913,584.0469 Q1170.4163,584.0469 1171.01,583.7813 Q1171.6038,583.5 1172.2288,582.9219 L1172.2288,585.6406 Z "/><text fill="#000000" font-family="sans-serif" font-size="12" lengthAdjust="spacingAndGlyphs" textLength="101" x="1183.26" y="584.1543">UndoDispatcher</text><line style="stroke: #A80036; stroke-width: 1.5;" x1="1155.26" x2="1286.26" y1="596" y2="596"/><line style="stroke: #A80036; stroke-width: 1.5;" x1="1155.26" x2="1286.26" y1="604" y2="604"/><!--class amartinm.mastermind.distributed.RedoDispatcher--><rect fill="#FEFECE" filter="url(#fd1akk2na9w5c)" height="48" id="amartinm.mastermind.distributed.RedoDispatcher" style="stroke: #A80036; stroke-width: 1.5;" width="132" x="1322.76" y="564"/><ellipse cx="1337.76" cy="580" fill="#ADD1B2" rx="11" ry="11" style="stroke: #A80036; stroke-width: 1.0;"/><path d="M1340.7288,585.6406 Q1340.1506,585.9375 1339.51,586.0781 Q1338.8694,586.2344 1338.1663,586.2344 Q1335.6663,586.2344 1334.3381,584.5938 Q1333.0256,582.9375 1333.0256,579.8125 Q1333.0256,576.6875 1334.3381,575.0313 Q1335.6663,573.375 1338.1663,573.375 Q1338.8694,573.375 1339.51,573.5313 Q1340.1663,573.6875 1340.7288,573.9844 L1340.7288,576.7031 Q1340.1038,576.125 1339.51,575.8594 Q1338.9163,575.5781 1338.2913,575.5781 Q1336.9475,575.5781 1336.26,576.6563 Q1335.5725,577.7188 1335.5725,579.8125 Q1335.5725,581.9063 1336.26,582.9844 Q1336.9475,584.0469 1338.2913,584.0469 Q1338.9163,584.0469 1339.51,583.7813 Q1340.1038,583.5 1340.7288,582.9219 L1340.7288,585.6406 Z "/><text fill="#000000" font-family="sans-serif" font-size="12" lengthAdjust="spacingAndGlyphs" textLength="100" x="1351.76" y="584.1543">RedoDispatcher</text><line style="stroke: #A80036; stroke-width: 1.5;" x1="1323.76" x2="1453.76" y1="596" y2="596"/><line style="stroke: #A80036; stroke-width: 1.5;" x1="1323.76" x2="1453.76" y1="604" y2="604"/><!--class amartinm.mastermind.distributed.UndoableDispatcher--><rect fill="#FEFECE" filter="url(#fd1akk2na9w5c)" height="48" id="amartinm.mastermind.distributed.UndoableDispatcher" style="stroke: #A80036; stroke-width: 1.5;" width="160" x="1489.76" y="564"/><ellipse cx="1504.76" cy="580" fill="#ADD1B2" rx="11" ry="11" style="stroke: #A80036; stroke-width: 1.0;"/><path d="M1507.7288,585.6406 Q1507.1506,585.9375 1506.51,586.0781 Q1505.8694,586.2344 1505.1663,586.2344 Q1502.6663,586.2344 1501.3381,584.5938 Q1500.0256,582.9375 1500.0256,579.8125 Q1500.0256,576.6875 1501.3381,575.0313 Q1502.6663,573.375 1505.1663,573.375 Q1505.8694,573.375 1506.51,573.5313 Q1507.1663,573.6875 1507.7288,573.9844 L1507.7288,576.7031 Q1507.1038,576.125 1506.51,575.8594 Q1505.9163,575.5781 1505.2913,575.5781 Q1503.9475,575.5781 1503.26,576.6563 Q1502.5725,577.7188 1502.5725,579.8125 Q1502.5725,581.9063 1503.26,582.9844 Q1503.9475,584.0469 1505.2913,584.0469 Q1505.9163,584.0469 1506.51,583.7813 Q1507.1038,583.5 1507.7288,582.9219 L1507.7288,585.6406 Z "/><text fill="#000000" font-family="sans-serif" font-size="12" lengthAdjust="spacingAndGlyphs" textLength="128" x="1518.76" y="584.1543">UndoableDispatcher</text><line style="stroke: #A80036; stroke-width: 1.5;" x1="1490.76" x2="1648.76" y1="596" y2="596"/><line style="stroke: #A80036; stroke-width: 1.5;" x1="1490.76" x2="1648.76" y1="604" y2="604"/><!--class amartinm.mastermind.distributed.RedoableDispatcher--><rect fill="#FEFECE" filter="url(#fd1akk2na9w5c)" height="48" id="amartinm.mastermind.distributed.RedoableDispatcher" style="stroke: #A80036; stroke-width: 1.5;" width="159" x="1685.26" y="564"/><ellipse cx="1700.26" cy="580" fill="#ADD1B2" rx="11" ry="11" style="stroke: #A80036; stroke-width: 1.0;"/><path d="M1703.2288,585.6406 Q1702.6506,585.9375 1702.01,586.0781 Q1701.3694,586.2344 1700.6663,586.2344 Q1698.1663,586.2344 1696.8381,584.5938 Q1695.5256,582.9375 1695.5256,579.8125 Q1695.5256,576.6875 1696.8381,575.0313 Q1698.1663,573.375 1700.6663,573.375 Q1701.3694,573.375 1702.01,573.5313 Q1702.6663,573.6875 1703.2288,573.9844 L1703.2288,576.7031 Q1702.6038,576.125 1702.01,575.8594 Q1701.4163,575.5781 1700.7913,575.5781 Q1699.4475,575.5781 1698.76,576.6563 Q1698.0725,577.7188 1698.0725,579.8125 Q1698.0725,581.9063 1698.76,582.9844 Q1699.4475,584.0469 1700.7913,584.0469 Q1701.4163,584.0469 1702.01,583.7813 Q1702.6038,583.5 1703.2288,582.9219 L1703.2288,585.6406 Z "/><text fill="#000000" font-family="sans-serif" font-size="12" lengthAdjust="spacingAndGlyphs" textLength="127" x="1714.26" y="584.1543">RedoableDispatcher</text><line style="stroke: #A80036; stroke-width: 1.5;" x1="1686.26" x2="1843.26" y1="596" y2="596"/><line style="stroke: #A80036; stroke-width: 1.5;" x1="1686.26" x2="1843.26" y1="604" y2="604"/><!--class amartinm.mastermind.distributed.CombinationValidDispatcher--><rect fill="#FEFECE" filter="url(#fd1akk2na9w5c)" height="48" id="amartinm.mastermind.distributed.CombinationValidDispatcher" style="stroke: #A80036; stroke-width: 1.5;" width="208" x="1879.76" y="564"/><ellipse cx="1894.76" cy="580" fill="#ADD1B2" rx="11" ry="11" style="stroke: #A80036; stroke-width: 1.0;"/><path d="M1897.7288,585.6406 Q1897.1506,585.9375 1896.51,586.0781 Q1895.8694,586.2344 1895.1663,586.2344 Q1892.6663,586.2344 1891.3381,584.5938 Q1890.0256,582.9375 1890.0256,579.8125 Q1890.0256,576.6875 1891.3381,575.0313 Q1892.6663,573.375 1895.1663,573.375 Q1895.8694,573.375 1896.51,573.5313 Q1897.1663,573.6875 1897.7288,573.9844 L1897.7288,576.7031 Q1897.1038,576.125 1896.51,575.8594 Q1895.9163,575.5781 1895.2913,575.5781 Q1893.9475,575.5781 1893.26,576.6563 Q1892.5725,577.7188 1892.5725,579.8125 Q1892.5725,581.9063 1893.26,582.9844 Q1893.9475,584.0469 1895.2913,584.0469 Q1895.9163,584.0469 1896.51,583.7813 Q1897.1038,583.5 1897.7288,582.9219 L1897.7288,585.6406 Z "/><text fill="#000000" font-family="sans-serif" font-size="12" lengthAdjust="spacingAndGlyphs" textLength="176" x="1908.76" y="584.1543">CombinationValidDispatcher</text><line style="stroke: #A80036; stroke-width: 1.5;" x1="1880.76" x2="2086.76" y1="596" y2="596"/><line style="stroke: #A80036; stroke-width: 1.5;" x1="1880.76" x2="2086.76" y1="604" y2="604"/><!--class amartinm.mastermind.distributed.AddProposalDispatcher--><rect fill="#FEFECE" filter="url(#fd1akk2na9w5c)" height="48" id="amartinm.mastermind.distributed.AddProposalDispatcher" style="stroke: #A80036; stroke-width: 1.5;" width="179" x="2123.26" y="564"/><ellipse cx="2138.26" cy="580" fill="#ADD1B2" rx="11" ry="11" style="stroke: #A80036; stroke-width: 1.0;"/><path d="M2141.2288,585.6406 Q2140.6506,585.9375 2140.01,586.0781 Q2139.3694,586.2344 2138.6663,586.2344 Q2136.1663,586.2344 2134.8381,584.5938 Q2133.5256,582.9375 2133.5256,579.8125 Q2133.5256,576.6875 2134.8381,575.0313 Q2136.1663,573.375 2138.6663,573.375 Q2139.3694,573.375 2140.01,573.5313 Q2140.6663,573.6875 2141.2288,573.9844 L2141.2288,576.7031 Q2140.6038,576.125 2140.01,575.8594 Q2139.4163,575.5781 2138.7913,575.5781 Q2137.4475,575.5781 2136.76,576.6563 Q2136.0725,577.7188 2136.0725,579.8125 Q2136.0725,581.9063 2136.76,582.9844 Q2137.4475,584.0469 2138.7913,584.0469 Q2139.4163,584.0469 2140.01,583.7813 Q2140.6038,583.5 2141.2288,582.9219 L2141.2288,585.6406 Z "/><text fill="#000000" font-family="sans-serif" font-size="12" lengthAdjust="spacingAndGlyphs" textLength="147" x="2152.26" y="584.1543">AddProposalDispatcher</text><line style="stroke: #A80036; stroke-width: 1.5;" x1="2124.26" x2="2301.26" y1="596" y2="596"/><line style="stroke: #A80036; stroke-width: 1.5;" x1="2124.26" x2="2301.26" y1="604" y2="604"/><!--class amartinm.mastermind.distributed.GetAttemptsDispatcher--><rect fill="#FEFECE" filter="url(#fd1akk2na9w5c)" height="48" id="amartinm.mastermind.distributed.GetAttemptsDispatcher" style="stroke: #A80036; stroke-width: 1.5;" width="179" x="2337.26" y="564"/><ellipse cx="2352.26" cy="580" fill="#ADD1B2" rx="11" ry="11" style="stroke: #A80036; stroke-width: 1.0;"/><path d="M2355.2288,585.6406 Q2354.6506,585.9375 2354.01,586.0781 Q2353.3694,586.2344 2352.6663,586.2344 Q2350.1663,586.2344 2348.8381,584.5938 Q2347.5256,582.9375 2347.5256,579.8125 Q2347.5256,576.6875 2348.8381,575.0313 Q2350.1663,573.375 2352.6663,573.375 Q2353.3694,573.375 2354.01,573.5313 Q2354.6663,573.6875 2355.2288,573.9844 L2355.2288,576.7031 Q2354.6038,576.125 2354.01,575.8594 Q2353.4163,575.5781 2352.7913,575.5781 Q2351.4475,575.5781 2350.76,576.6563 Q2350.0725,577.7188 2350.0725,579.8125 Q2350.0725,581.9063 2350.76,582.9844 Q2351.4475,584.0469 2352.7913,584.0469 Q2353.4163,584.0469 2354.01,583.7813 Q2354.6038,583.5 2355.2288,582.9219 L2355.2288,585.6406 Z "/><text fill="#000000" font-family="sans-serif" font-size="12" lengthAdjust="spacingAndGlyphs" textLength="147" x="2366.26" y="584.1543">GetAttemptsDispatcher</text><line style="stroke: #A80036; stroke-width: 1.5;" x1="2338.26" x2="2515.26" y1="596" y2="596"/><line style="stroke: #A80036; stroke-width: 1.5;" x1="2338.26" x2="2515.26" y1="604" y2="604"/><!--class amartinm.mastermind.distributed.GetProposalDispatcher--><rect fill="#FEFECE" filter="url(#fd1akk2na9w5c)" height="48" id="amartinm.mastermind.distributed.GetProposalDispatcher" style="stroke: #A80036; stroke-width: 1.5;" width="177" x="2551.26" y="564"/><ellipse cx="2566.26" cy="580" fill="#ADD1B2" rx="11" ry="11" style="stroke: #A80036; stroke-width: 1.0;"/><path d="M2569.2288,585.6406 Q2568.6506,585.9375 2568.01,586.0781 Q2567.3694,586.2344 2566.6663,586.2344 Q2564.1663,586.2344 2562.8381,584.5938 Q2561.5256,582.9375 2561.5256,579.8125 Q2561.5256,576.6875 2562.8381,575.0313 Q2564.1663,573.375 2566.6663,573.375 Q2567.3694,573.375 2568.01,573.5313 Q2568.6663,573.6875 2569.2288,573.9844 L2569.2288,576.7031 Q2568.6038,576.125 2568.01,575.8594 Q2567.4163,575.5781 2566.7913,575.5781 Q2565.4475,575.5781 2564.76,576.6563 Q2564.0725,577.7188 2564.0725,579.8125 Q2564.0725,581.9063 2564.76,582.9844 Q2565.4475,584.0469 2566.7913,584.0469 Q2567.4163,584.0469 2568.01,583.7813 Q2568.6038,583.5 2569.2288,582.9219 L2569.2288,585.6406 Z "/><text fill="#000000" font-family="sans-serif" font-size="12" lengthAdjust="spacingAndGlyphs" textLength="145" x="2580.26" y="584.1543">GetProposalDispatcher</text><line style="stroke: #A80036; stroke-width: 1.5;" x1="2552.26" x2="2727.26" y1="596" y2="596"/><line style="stroke: #A80036; stroke-width: 1.5;" x1="2552.26" x2="2727.26" y1="604" y2="604"/><!--class amartinm.mastermind.distributed.GetResultDispatcher--><rect fill="#FEFECE" filter="url(#fd1akk2na9w5c)" height="48" id="amartinm.mastermind.distributed.GetResultDispatcher" style="stroke: #A80036; stroke-width: 1.5;" width="161" x="2763.26" y="564"/><ellipse cx="2778.26" cy="580" fill="#ADD1B2" rx="11" ry="11" style="stroke: #A80036; stroke-width: 1.0;"/><path d="M2781.2288,585.6406 Q2780.6506,585.9375 2780.01,586.0781 Q2779.3694,586.2344 2778.6663,586.2344 Q2776.1663,586.2344 2774.8381,584.5938 Q2773.5256,582.9375 2773.5256,579.8125 Q2773.5256,576.6875 2774.8381,575.0313 Q2776.1663,573.375 2778.6663,573.375 Q2779.3694,573.375 2780.01,573.5313 Q2780.6663,573.6875 2781.2288,573.9844 L2781.2288,576.7031 Q2780.6038,576.125 2780.01,575.8594 Q2779.4163,575.5781 2778.7913,575.5781 Q2777.4475,575.5781 2776.76,576.6563 Q2776.0725,577.7188 2776.0725,579.8125 Q2776.0725,581.9063 2776.76,582.9844 Q2777.4475,584.0469 2778.7913,584.0469 Q2779.4163,584.0469 2780.01,583.7813 Q2780.6038,583.5 2781.2288,582.9219 L2781.2288,585.6406 Z "/><text fill="#000000" font-family="sans-serif" font-size="12" lengthAdjust="spacingAndGlyphs" textLength="129" x="2792.26" y="584.1543">GetResultDispatcher</text><line style="stroke: #A80036; stroke-width: 1.5;" x1="2764.26" x2="2923.26" y1="596" y2="596"/><line style="stroke: #A80036; stroke-width: 1.5;" x1="2764.26" x2="2923.26" y1="604" y2="604"/><!--class amartinm.mastermind.distributed.IsWinnerDispatcher--><rect fill="#FEFECE" filter="url(#fd1akk2na9w5c)" height="48" id="amartinm.mastermind.distributed.IsWinnerDispatcher" style="stroke: #A80036; stroke-width: 1.5;" width="153" x="257.26" y="564"/><ellipse cx="272.26" cy="580" fill="#ADD1B2" rx="11" ry="11" style="stroke: #A80036; stroke-width: 1.0;"/><path d="M275.2288,585.6406 Q274.6506,585.9375 274.01,586.0781 Q273.3694,586.2344 272.6663,586.2344 Q270.1663,586.2344 268.8381,584.5938 Q267.5256,582.9375 267.5256,579.8125 Q267.5256,576.6875 268.8381,575.0313 Q270.1663,573.375 272.6663,573.375 Q273.3694,573.375 274.01,573.5313 Q274.6663,573.6875 275.2288,573.9844 L275.2288,576.7031 Q274.6038,576.125 274.01,575.8594 Q273.4163,575.5781 272.7913,575.5781 Q271.4475,575.5781 270.76,576.6563 Q270.0725,577.7188 270.0725,579.8125 Q270.0725,581.9063 270.76,582.9844 Q271.4475,584.0469 272.7913,584.0469 Q273.4163,584.0469 274.01,583.7813 Q274.6038,583.5 275.2288,582.9219 L275.2288,585.6406 Z "/><text fill="#000000" font-family="sans-serif" font-size="12" lengthAdjust="spacingAndGlyphs" textLength="121" x="286.26" y="584.1543">IsWinnerDispatcher</text><line style="stroke: #A80036; stroke-width: 1.5;" x1="258.26" x2="409.26" y1="596" y2="596"/><line style="stroke: #A80036; stroke-width: 1.5;" x1="258.26" x2="409.26" y1="604" y2="604"/><!--class amartinm.mastermind.distributed.IsLooserDispatcher--><rect fill="#FEFECE" filter="url(#fd1akk2na9w5c)" height="48" id="amartinm.mastermind.distributed.IsLooserDispatcher" style="stroke: #A80036; stroke-width: 1.5;" width="152" x="445.76" y="564"/><ellipse cx="460.76" cy="580" fill="#ADD1B2" rx="11" ry="11" style="stroke: #A80036; stroke-width: 1.0;"/><path d="M463.7288,585.6406 Q463.1506,585.9375 462.51,586.0781 Q461.8694,586.2344 461.1663,586.2344 Q458.6663,586.2344 457.3381,584.5938 Q456.0256,582.9375 456.0256,579.8125 Q456.0256,576.6875 457.3381,575.0313 Q458.6663,573.375 461.1663,573.375 Q461.8694,573.375 462.51,573.5313 Q463.1663,573.6875 463.7288,573.9844 L463.7288,576.7031 Q463.1038,576.125 462.51,575.8594 Q461.9163,575.5781 461.2913,575.5781 Q459.9475,575.5781 459.26,576.6563 Q458.5725,577.7188 458.5725,579.8125 Q458.5725,581.9063 459.26,582.9844 Q459.9475,584.0469 461.2913,584.0469 Q461.9163,584.0469 462.51,583.7813 Q463.1038,583.5 463.7288,582.9219 L463.7288,585.6406 Z "/><text fill="#000000" font-family="sans-serif" font-size="12" lengthAdjust="spacingAndGlyphs" textLength="120" x="474.76" y="584.1543">IsLooserDispatcher</text><line style="stroke: #A80036; stroke-width: 1.5;" x1="446.76" x2="596.76" y1="596" y2="596"/><line style="stroke: #A80036; stroke-width: 1.5;" x1="446.76" x2="596.76" y1="604" y2="604"/><!--class amartinm.mastermind.distributed.ResumeDispatcher--><rect fill="#FEFECE" filter="url(#fd1akk2na9w5c)" height="48" id="amartinm.mastermind.distributed.ResumeDispatcher" style="stroke: #A80036; stroke-width: 1.5;" width="150" x="632.76" y="564"/><ellipse cx="647.76" cy="580" fill="#ADD1B2" rx="11" ry="11" style="stroke: #A80036; stroke-width: 1.0;"/><path d="M650.7288,585.6406 Q650.1506,585.9375 649.51,586.0781 Q648.8694,586.2344 648.1663,586.2344 Q645.6663,586.2344 644.3381,584.5938 Q643.0256,582.9375 643.0256,579.8125 Q643.0256,576.6875 644.3381,575.0313 Q645.6663,573.375 648.1663,573.375 Q648.8694,573.375 649.51,573.5313 Q650.1663,573.6875 650.7288,573.9844 L650.7288,576.7031 Q650.1038,576.125 649.51,575.8594 Q648.9163,575.5781 648.2913,575.5781 Q646.9475,575.5781 646.26,576.6563 Q645.5725,577.7188 645.5725,579.8125 Q645.5725,581.9063 646.26,582.9844 Q646.9475,584.0469 648.2913,584.0469 Q648.9163,584.0469 649.51,583.7813 Q650.1038,583.5 650.7288,582.9219 L650.7288,585.6406 Z "/><text fill="#000000" font-family="sans-serif" font-size="12" lengthAdjust="spacingAndGlyphs" textLength="118" x="661.76" y="584.1543">ResumeDispatcher</text><line style="stroke: #A80036; stroke-width: 1.5;" x1="633.76" x2="781.76" y1="596" y2="596"/><line style="stroke: #A80036; stroke-width: 1.5;" x1="633.76" x2="781.76" y1="604" y2="604"/><!--class amartinm.mastermind.distributed.LogicProxy--><rect fill="#FEFECE" filter="url(#fd1akk2na9w5c)" height="86.4141" id="amartinm.mastermind.distributed.LogicProxy" style="stroke: #A80036; stroke-width: 1.5;" width="97" x="3318.26" y="341"/><ellipse cx="3333.26" cy="357" fill="#ADD1B2" rx="11" ry="11" style="stroke: #A80036; stroke-width: 1.0;"/><path d="M3336.2288,362.6406 Q3335.6506,362.9375 3335.01,363.0781 Q3334.3694,363.2344 3333.6663,363.2344 Q3331.1663,363.2344 3329.8381,361.5938 Q3328.5256,359.9375 3328.5256,356.8125 Q3328.5256,353.6875 3329.8381,352.0313 Q3331.1663,350.375 3333.6663,350.375 Q3334.3694,350.375 3335.01,350.5313 Q3335.6663,350.6875 3336.2288,350.9844 L3336.2288,353.7031 Q3335.6038,353.125 3335.01,352.8594 Q3334.4163,352.5781 3333.7913,352.5781 Q3332.4475,352.5781 3331.76,353.6563 Q3331.0725,354.7188 3331.0725,356.8125 Q3331.0725,358.9063 3331.76,359.9844 Q3332.4475,361.0469 3333.7913,361.0469 Q3334.4163,361.0469 3335.01,360.7813 Q3335.6038,360.5 3336.2288,359.9219 L3336.2288,362.6406 Z "/><text fill="#000000" font-family="sans-serif" font-size="12" lengthAdjust="spacingAndGlyphs" textLength="65" x="3347.26" y="361.1543">LogicProxy</text><line style="stroke: #A80036; stroke-width: 1.5;" x1="3319.26" x2="3414.26" y1="373" y2="373"/><rect fill="none" height="6" style="stroke: #C82930; stroke-width: 1.0;" width="6" x="3326.26" y="381.9023"/><text fill="#000000" font-family="sans-serif" font-size="11" lengthAdjust="spacingAndGlyphs" textLength="67" x="3338.26" y="387.2104">tcpip: TCPIP</text><line style="stroke: #A80036; stroke-width: 1.5;" x1="3319.26" x2="3414.26" y1="393.8047" y2="393.8047"/><ellipse cx="3329.26" cy="405.707" fill="#84BE84" rx="3" ry="3" style="stroke: #038048; stroke-width: 1.0;"/><text fill="#000000" font-family="sans-serif" font-size="11" lengthAdjust="spacingAndGlyphs" textLength="68" x="3338.26" y="408.0151">LogicProxy()</text><ellipse cx="3329.26" cy="418.5117" fill="#84BE84" rx="3" ry="3" style="stroke: #038048; stroke-width: 1.0;"/><text fill="#000000" font-family="sans-serif" font-size="11" lengthAdjust="spacingAndGlyphs" textLength="69" x="3338.26" y="420.8198">close(): void</text><!--class amartinm.mastermind.distributed.StartControllerProxy--><rect fill="#FEFECE" filter="url(#fd1akk2na9w5c)" height="86.4141" id="amartinm.mastermind.distributed.StartControllerProxy" style="stroke: #A80036; stroke-width: 1.5;" width="235" x="2959.26" y="545"/><ellipse cx="3010.01" cy="561" fill="#ADD1B2" rx="11" ry="11" style="stroke: #A80036; stroke-width: 1.0;"/><path d="M3012.9788,566.6406 Q3012.4006,566.9375 3011.76,567.0781 Q3011.1194,567.2344 3010.4163,567.2344 Q3007.9163,567.2344 3006.5881,565.5938 Q3005.2756,563.9375 3005.2756,560.8125 Q3005.2756,557.6875 3006.5881,556.0313 Q3007.9163,554.375 3010.4163,554.375 Q3011.1194,554.375 3011.76,554.5313 Q3012.4163,554.6875 3012.9788,554.9844 L3012.9788,557.7031 Q3012.3538,557.125 3011.76,556.8594 Q3011.1663,556.5781 3010.5413,556.5781 Q3009.1975,556.5781 3008.51,557.6563 Q3007.8225,558.7188 3007.8225,560.8125 Q3007.8225,562.9063 3008.51,563.9844 Q3009.1975,565.0469 3010.5413,565.0469 Q3011.1663,565.0469 3011.76,564.7813 Q3012.3538,564.5 3012.9788,563.9219 L3012.9788,566.6406 Z "/><text fill="#000000" font-family="sans-serif" font-size="12" lengthAdjust="spacingAndGlyphs" textLength="125" x="3030.51" y="565.1543">StartControllerProxy</text><line style="stroke: #A80036; stroke-width: 1.5;" x1="2960.26" x2="3193.26" y1="577" y2="577"/><rect fill="none" height="6" style="stroke: #C82930; stroke-width: 1.0;" width="6" x="2967.26" y="585.9023"/><text fill="#000000" font-family="sans-serif" font-size="11" lengthAdjust="spacingAndGlyphs" textLength="67" x="2979.26" y="591.2104">tcpip: TCPIP</text><line style="stroke: #A80036; stroke-width: 1.5;" x1="2960.26" x2="3193.26" y1="597.8047" y2="597.8047"/><ellipse cx="2970.26" cy="609.707" fill="#84BE84" rx="3" ry="3" style="stroke: #038048; stroke-width: 1.0;"/><text fill="#000000" font-family="sans-serif" font-size="11" lengthAdjust="spacingAndGlyphs" textLength="209" x="2979.26" y="612.0151">StartControllerProxy(Session, TCPIP)</text><ellipse cx="2970.26" cy="622.5117" fill="#84BE84" rx="3" ry="3" style="stroke: #038048; stroke-width: 1.0;"/><text fill="#000000" font-family="sans-serif" font-size="11" lengthAdjust="spacingAndGlyphs" textLength="66" x="2979.26" y="624.8198">start(): void</text><!--class amartinm.mastermind.distributed.PlayControllerProxy--><rect fill="#FEFECE" filter="url(#fd1akk2na9w5c)" height="201.6563" id="amartinm.mastermind.distributed.PlayControllerProxy" style="stroke: #A80036; stroke-width: 1.5;" width="336" x="3517.76" y="487"/><ellipse cx="3622.01" cy="503" fill="#ADD1B2" rx="11" ry="11" style="stroke: #A80036; stroke-width: 1.0;"/><path d="M3624.9788,508.6406 Q3624.4006,508.9375 3623.76,509.0781 Q3623.1194,509.2344 3622.4163,509.2344 Q3619.9163,509.2344 3618.5881,507.5938 Q3617.2756,505.9375 3617.2756,502.8125 Q3617.2756,499.6875 3618.5881,498.0313 Q3619.9163,496.375 3622.4163,496.375 Q3623.1194,496.375 3623.76,496.5313 Q3624.4163,496.6875 3624.9788,496.9844 L3624.9788,499.7031 Q3624.3538,499.125 3623.76,498.8594 Q3623.1663,498.5781 3622.5413,498.5781 Q3621.1975,498.5781 3620.51,499.6563 Q3619.8225,500.7188 3619.8225,502.8125 Q3619.8225,504.9063 3620.51,505.9844 Q3621.1975,507.0469 3622.5413,507.0469 Q3623.1663,507.0469 3623.76,506.7813 Q3624.3538,506.5 3624.9788,505.9219 L3624.9788,508.6406 Z "/><text fill="#000000" font-family="sans-serif" font-size="12" lengthAdjust="spacingAndGlyphs" textLength="119" x="3642.51" y="507.1543">PlayControllerProxy</text><line style="stroke: #A80036; stroke-width: 1.5;" x1="3518.76" x2="3852.76" y1="519" y2="519"/><rect fill="none" height="6" style="stroke: #C82930; stroke-width: 1.0;" width="6" x="3525.76" y="527.9023"/><text fill="#000000" font-family="sans-serif" font-size="11" lengthAdjust="spacingAndGlyphs" textLength="67" x="3537.76" y="533.2104">tcpip: TCPIP</text><line style="stroke: #A80036; stroke-width: 1.5;" x1="3518.76" x2="3852.76" y1="539.8047" y2="539.8047"/><ellipse cx="3528.76" cy="551.707" fill="#84BE84" rx="3" ry="3" style="stroke: #038048; stroke-width: 1.0;"/><text fill="#000000" font-family="sans-serif" font-size="11" lengthAdjust="spacingAndGlyphs" textLength="187" x="3537.76" y="554.0151">isCombinationValid(String): Error</text><ellipse cx="3528.76" cy="564.5117" fill="#84BE84" rx="3" ry="3" style="stroke: #038048; stroke-width: 1.0;"/><text fill="#000000" font-family="sans-serif" font-size="11" lengthAdjust="spacingAndGlyphs" textLength="310" x="3537.76" y="566.8198">addProposedCombination(ProposedCombination): void</text><ellipse cx="3528.76" cy="577.3164" fill="#84BE84" rx="3" ry="3" style="stroke: #038048; stroke-width: 1.0;"/><text fill="#000000" font-family="sans-serif" font-size="11" lengthAdjust="spacingAndGlyphs" textLength="99" x="3537.76" y="579.6245">getAttempts(): int</text><ellipse cx="3528.76" cy="590.1211" fill="#84BE84" rx="3" ry="3" style="stroke: #038048; stroke-width: 1.0;"/><text fill="#000000" font-family="sans-serif" font-size="11" lengthAdjust="spacingAndGlyphs" textLength="298" x="3537.76" y="592.4292">getProposedCombination(int): ProposedCombination</text><ellipse cx="3528.76" cy="602.9258" fill="#84BE84" rx="3" ry="3" style="stroke: #038048; stroke-width: 1.0;"/><text fill="#000000" font-family="sans-serif" font-size="11" lengthAdjust="spacingAndGlyphs" textLength="118" x="3537.76" y="605.2339">getResult(int): Result</text><ellipse cx="3528.76" cy="615.7305" fill="#84BE84" rx="3" ry="3" style="stroke: #038048; stroke-width: 1.0;"/><text fill="#000000" font-family="sans-serif" font-size="11" lengthAdjust="spacingAndGlyphs" textLength="109" x="3537.76" y="618.0386">isWinner(): boolean</text><ellipse cx="3528.76" cy="628.5352" fill="#84BE84" rx="3" ry="3" style="stroke: #038048; stroke-width: 1.0;"/><text fill="#000000" font-family="sans-serif" font-size="11" lengthAdjust="spacingAndGlyphs" textLength="110" x="3537.76" y="630.8433">isLooser(): boolean</text><ellipse cx="3528.76" cy="641.3398" fill="#84BE84" rx="3" ry="3" style="stroke: #038048; stroke-width: 1.0;"/><text fill="#000000" font-family="sans-serif" font-size="11" lengthAdjust="spacingAndGlyphs" textLength="67" x="3537.76" y="643.6479">undo(): void</text><ellipse cx="3528.76" cy="654.1445" fill="#84BE84" rx="3" ry="3" style="stroke: #038048; stroke-width: 1.0;"/><text fill="#000000" font-family="sans-serif" font-size="11" lengthAdjust="spacingAndGlyphs" textLength="113" x="3537.76" y="656.4526">undoable(): boolean</text><ellipse cx="3528.76" cy="666.9492" fill="#84BE84" rx="3" ry="3" style="stroke: #038048; stroke-width: 1.0;"/><text fill="#000000" font-family="sans-serif" font-size="11" lengthAdjust="spacingAndGlyphs" textLength="65" x="3537.76" y="669.2573">redo(): void</text><ellipse cx="3528.76" cy="679.7539" fill="#84BE84" rx="3" ry="3" style="stroke: #038048; stroke-width: 1.0;"/><text fill="#000000" font-family="sans-serif" font-size="11" lengthAdjust="spacingAndGlyphs" textLength="111" x="3537.76" y="682.062">redoable(): boolean</text><!--class amartinm.mastermind.distributed.ResumeControllerProxy--><rect fill="#FEFECE" filter="url(#fd1akk2na9w5c)" height="86.4141" id="amartinm.mastermind.distributed.ResumeControllerProxy" style="stroke: #A80036; stroke-width: 1.5;" width="253" x="3229.26" y="545"/><ellipse cx="3279.51" cy="561" fill="#ADD1B2" rx="11" ry="11" style="stroke: #A80036; stroke-width: 1.0;"/><path d="M3282.4788,566.6406 Q3281.9006,566.9375 3281.26,567.0781 Q3280.6194,567.2344 3279.9163,567.2344 Q3277.4163,567.2344 3276.0881,565.5938 Q3274.7756,563.9375 3274.7756,560.8125 Q3274.7756,557.6875 3276.0881,556.0313 Q3277.4163,554.375 3279.9163,554.375 Q3280.6194,554.375 3281.26,554.5313 Q3281.9163,554.6875 3282.4788,554.9844 L3282.4788,557.7031 Q3281.8538,557.125 3281.26,556.8594 Q3280.6663,556.5781 3280.0413,556.5781 Q3278.6975,556.5781 3278.01,557.6563 Q3277.3225,558.7188 3277.3225,560.8125 Q3277.3225,562.9063 3278.01,563.9844 Q3278.6975,565.0469 3280.0413,565.0469 Q3280.6663,565.0469 3281.26,564.7813 Q3281.8538,564.5 3282.4788,563.9219 L3282.4788,566.6406 Z "/><text fill="#000000" font-family="sans-serif" font-size="12" lengthAdjust="spacingAndGlyphs" textLength="144" x="3300.01" y="565.1543">ResumeControllerProxy</text><line style="stroke: #A80036; stroke-width: 1.5;" x1="3230.26" x2="3481.26" y1="577" y2="577"/><rect fill="none" height="6" style="stroke: #C82930; stroke-width: 1.0;" width="6" x="3237.26" y="585.9023"/><text fill="#000000" font-family="sans-serif" font-size="11" lengthAdjust="spacingAndGlyphs" textLength="67" x="3249.26" y="591.2104">tcpip: TCPIP</text><line style="stroke: #A80036; stroke-width: 1.5;" x1="3230.26" x2="3481.26" y1="597.8047" y2="597.8047"/><ellipse cx="3240.26" cy="609.707" fill="#84BE84" rx="3" ry="3" style="stroke: #038048; stroke-width: 1.0;"/><text fill="#000000" font-family="sans-serif" font-size="11" lengthAdjust="spacingAndGlyphs" textLength="227" x="3249.26" y="612.0151">ResumeControllerProxy(Session, TCPIP)</text><ellipse cx="3240.26" cy="622.5117" fill="#84BE84" rx="3" ry="3" style="stroke: #038048; stroke-width: 1.0;"/><text fill="#000000" font-family="sans-serif" font-size="11" lengthAdjust="spacingAndGlyphs" textLength="128" x="3249.26" y="624.8198">resume(boolean): void</text><!--class amartinm.mastermind.distributed.MastermindClient--><rect fill="#FEFECE" filter="url(#fd1akk2na9w5c)" height="99.2188" id="amartinm.mastermind.distributed.MastermindClient" style="stroke: #A80036; stroke-width: 1.5;" width="151" x="3291.26" y="182"/><ellipse cx="3311.21" cy="198" fill="#ADD1B2" rx="11" ry="11" style="stroke: #A80036; stroke-width: 1.0;"/><path d="M3314.1788,203.6406 Q3313.6006,203.9375 3312.96,204.0781 Q3312.3194,204.2344 3311.6163,204.2344 Q3309.1163,204.2344 3307.7881,202.5938 Q3306.4756,200.9375 3306.4756,197.8125 Q3306.4756,194.6875 3307.7881,193.0313 Q3309.1163,191.375 3311.6163,191.375 Q3312.3194,191.375 3312.96,191.5313 Q3313.6163,191.6875 3314.1788,191.9844 L3314.1788,194.7031 Q3313.5538,194.125 3312.96,193.8594 Q3312.3663,193.5781 3311.7413,193.5781 Q3310.3975,193.5781 3309.71,194.6563 Q3309.0225,195.7188 3309.0225,197.8125 Q3309.0225,199.9063 3309.71,200.9844 Q3310.3975,202.0469 3311.7413,202.0469 Q3312.3663,202.0469 3312.96,201.7813 Q3313.5538,201.5 3314.1788,200.9219 L3314.1788,203.6406 Z "/><text fill="#000000" font-family="sans-serif" font-size="12" lengthAdjust="spacingAndGlyphs" textLength="108" x="3326.31" y="202.1543">MastermindClient</text><line style="stroke: #A80036; stroke-width: 1.5;" x1="3292.26" x2="3441.26" y1="214" y2="214"/><rect fill="none" height="6" style="stroke: #C82930; stroke-width: 1.0;" width="6" x="3299.26" y="222.9023"/><text fill="#000000" font-family="sans-serif" font-size="11" lengthAdjust="spacingAndGlyphs" textLength="125" x="3311.26" y="228.2104">logicProxy: LogicProxy</text><line style="stroke: #A80036; stroke-width: 1.5;" x1="3292.26" x2="3441.26" y1="234.8047" y2="234.8047"/><polygon fill="#FFFF44" points="3302.26,241.707,3306.26,245.707,3302.26,249.707,3298.26,245.707" style="stroke: #B38D22; stroke-width: 1.0;"/><text fill="#000000" font-family="sans-serif" font-size="11" lengthAdjust="spacingAndGlyphs" textLength="110" x="3311.26" y="249.0151">createLogic(): Logic</text><polygon fill="#FFFF44" points="3302.26,254.5117,3306.26,258.5117,3302.26,262.5117,3298.26,258.5117" style="stroke: #B38D22; stroke-width: 1.0;"/><text fill="#000000" font-family="sans-serif" font-size="11" lengthAdjust="spacingAndGlyphs" textLength="62" x="3311.26" y="261.8198">play(): void</text><ellipse cx="3302.26" cy="272.3164" fill="#84BE84" rx="3" ry="3" style="stroke: #038048; stroke-width: 1.0;"/><text fill="#000000" font-family="sans-serif" font-size="11" lengthAdjust="spacingAndGlyphs" text-decoration="underline" textLength="109" x="3311.26" y="274.6245">main(String[]): void</text><!--class amartinm.mastermind.distributed.MastermindServer--><rect fill="#FEFECE" filter="url(#fd1akk2na9w5c)" height="99.2188" id="amartinm.mastermind.distributed.MastermindServer" style="stroke: #A80036; stroke-width: 1.5;" width="263" x="757.26" y="182"/><ellipse cx="828.01" cy="198" fill="#ADD1B2" rx="11" ry="11" style="stroke: #A80036; stroke-width: 1.0;"/><path d="M830.9788,203.6406 Q830.4006,203.9375 829.76,204.0781 Q829.1194,204.2344 828.4163,204.2344 Q825.9163,204.2344 824.5881,202.5938 Q823.2756,200.9375 823.2756,197.8125 Q823.2756,194.6875 824.5881,193.0313 Q825.9163,191.375 828.4163,191.375 Q829.1194,191.375 829.76,191.5313 Q830.4163,191.6875 830.9788,191.9844 L830.9788,194.7031 Q830.3538,194.125 829.76,193.8594 Q829.1663,193.5781 828.5413,193.5781 Q827.1975,193.5781 826.51,194.6563 Q825.8225,195.7188 825.8225,197.8125 Q825.8225,199.9063 826.51,200.9844 Q827.1975,202.0469 828.5413,202.0469 Q829.1663,202.0469 829.76,201.7813 Q830.3538,201.5 830.9788,200.9219 L830.9788,203.6406 Z "/><text fill="#000000" font-family="sans-serif" font-size="12" lengthAdjust="spacingAndGlyphs" textLength="113" x="848.51" y="202.1543">MastermindServer</text><line style="stroke: #A80036; stroke-width: 1.5;" x1="758.26" x2="1019.26" y1="214" y2="214"/><rect fill="none" height="6" style="stroke: #C82930; stroke-width: 1.0;" width="6" x="765.26" y="222.9023"/><text fill="#000000" font-family="sans-serif" font-size="11" lengthAdjust="spacingAndGlyphs" textLength="237" x="777.26" y="228.2104">dispatcherPrototype: DispatcherPrototype</text><line style="stroke: #A80036; stroke-width: 1.5;" x1="758.26" x2="1019.26" y1="234.8047" y2="234.8047"/><rect fill="#F24D5C" height="6" style="stroke: #C82930; stroke-width: 1.0;" width="6" x="765.26" y="243.707"/><text fill="#000000" font-family="sans-serif" font-size="11" lengthAdjust="spacingAndGlyphs" textLength="113" x="777.26" y="249.0151">MastermindServer()</text><rect fill="#F24D5C" height="6" style="stroke: #C82930; stroke-width: 1.0;" width="6" x="765.26" y="256.5117"/><text fill="#000000" font-family="sans-serif" font-size="11" lengthAdjust="spacingAndGlyphs" textLength="71" x="777.26" y="261.8198">serve(): void</text><ellipse cx="768.26" cy="272.3164" fill="#84BE84" rx="3" ry="3" style="stroke: #038048; stroke-width: 1.0;"/><text fill="#000000" font-family="sans-serif" font-size="11" lengthAdjust="spacingAndGlyphs" text-decoration="underline" textLength="109" x="777.26" y="274.6245">main(String[]): void</text><!--class amartinm.mastermind.distributed.SessionProxy--><rect fill="#FEFECE" filter="url(#fd1akk2na9w5c)" height="86.4141" id="amartinm.mastermind.distributed.SessionProxy" style="stroke: #A80036; stroke-width: 1.5;" width="182" x="3579.76" y="188.5"/><ellipse cx="3625.51" cy="204.5" fill="#ADD1B2" rx="11" ry="11" style="stroke: #A80036; stroke-width: 1.0;"/><path d="M3628.4788,210.1406 Q3627.9006,210.4375 3627.26,210.5781 Q3626.6194,210.7344 3625.9163,210.7344 Q3623.4163,210.7344 3622.0881,209.0938 Q3620.7756,207.4375 3620.7756,204.3125 Q3620.7756,201.1875 3622.0881,199.5313 Q3623.4163,197.875 3625.9163,197.875 Q3626.6194,197.875 3627.26,198.0313 Q3627.9163,198.1875 3628.4788,198.4844 L3628.4788,201.2031 Q3627.8538,200.625 3627.26,200.3594 Q3626.6663,200.0781 3626.0413,200.0781 Q3624.6975,200.0781 3624.01,201.1563 Q3623.3225,202.2188 3623.3225,204.3125 Q3623.3225,206.4063 3624.01,207.4844 Q3624.6975,208.5469 3626.0413,208.5469 Q3626.6663,208.5469 3627.26,208.2813 Q3627.8538,208 3628.4788,207.4219 L3628.4788,210.1406 Z "/><text fill="#000000" font-family="sans-serif" font-size="12" lengthAdjust="spacingAndGlyphs" textLength="82" x="3646.01" y="208.6543">SessionProxy</text><line style="stroke: #A80036; stroke-width: 1.5;" x1="3580.76" x2="3760.76" y1="220.5" y2="220.5"/><rect fill="none" height="6" style="stroke: #C82930; stroke-width: 1.0;" width="6" x="3587.76" y="229.4023"/><text fill="#000000" font-family="sans-serif" font-size="11" lengthAdjust="spacingAndGlyphs" textLength="67" x="3599.76" y="234.7104">tcpip: TCPIP</text><line style="stroke: #A80036; stroke-width: 1.5;" x1="3580.76" x2="3760.76" y1="241.3047" y2="241.3047"/><ellipse cx="3590.76" cy="253.207" fill="#84BE84" rx="3" ry="3" style="stroke: #038048; stroke-width: 1.0;"/><text fill="#000000" font-family="sans-serif" font-size="11" lengthAdjust="spacingAndGlyphs" textLength="117" x="3599.76" y="255.5151">SessionProxy(TCPIP)</text><ellipse cx="3590.76" cy="266.0117" fill="#84BE84" rx="3" ry="3" style="stroke: #038048; stroke-width: 1.0;"/><text fill="#000000" font-family="sans-serif" font-size="11" lengthAdjust="spacingAndGlyphs" textLength="156" x="3599.76" y="268.3198">getValueState(): StateValue</text><!--class amartinm.mastermind.controllers.implementation.LogicImplementation--><rect fill="#FEFECE" filter="url(#fd1akk2na9w5c)" height="48" id="amartinm.mastermind.controllers.implementation.LogicImplementation" style="stroke: #A80036; stroke-width: 1.5;" width="161" x="3910.26" y="207.5"/><ellipse cx="3925.26" cy="223.5" fill="#ADD1B2" rx="11" ry="11" style="stroke: #A80036; stroke-width: 1.0;"/><path d="M3928.2288,229.1406 Q3927.6506,229.4375 3927.01,229.5781 Q3926.3694,229.7344 3925.6663,229.7344 Q3923.1663,229.7344 3921.8381,228.0938 Q3920.5256,226.4375 3920.5256,223.3125 Q3920.5256,220.1875 3921.8381,218.5313 Q3923.1663,216.875 3925.6663,216.875 Q3926.3694,216.875 3927.01,217.0313 Q3927.6663,217.1875 3928.2288,217.4844 L3928.2288,220.2031 Q3927.6038,219.625 3927.01,219.3594 Q3926.4163,219.0781 3925.7913,219.0781 Q3924.4475,219.0781 3923.76,220.1563 Q3923.0725,221.2188 3923.0725,223.3125 Q3923.0725,225.4063 3923.76,226.4844 Q3924.4475,227.5469 3925.7913,227.5469 Q3926.4163,227.5469 3927.01,227.2813 Q3927.6038,227 3928.2288,226.4219 L3928.2288,229.1406 Z "/><text fill="#000000" font-family="sans-serif" font-size="12" lengthAdjust="spacingAndGlyphs" textLength="129" x="3939.26" y="227.6543">LogicImplementation</text><line style="stroke: #A80036; stroke-width: 1.5;" x1="3911.26" x2="4070.26" y1="239.5" y2="239.5"/><line style="stroke: #A80036; stroke-width: 1.5;" x1="3911.26" x2="4070.26" y1="247.5" y2="247.5"/><!--class amartinm.mastermind.distributed.dispatchers.FrameType--><rect fill="#FEFECE" filter="url(#fd1akk2na9w5c)" height="48" id="amartinm.mastermind.distributed.dispatchers.FrameType" style="stroke: #A80036; stroke-width: 1.5;" width="100" x="3026.76" y="764"/><ellipse cx="3041.76" cy="780" fill="#ADD1B2" rx="11" ry="11" style="stroke: #A80036; stroke-width: 1.0;"/><path d="M3044.7288,785.6406 Q3044.1506,785.9375 3043.51,786.0781 Q3042.8694,786.2344 3042.1663,786.2344 Q3039.6663,786.2344 3038.3381,784.5938 Q3037.0256,782.9375 3037.0256,779.8125 Q3037.0256,776.6875 3038.3381,775.0313 Q3039.6663,773.375 3042.1663,773.375 Q3042.8694,773.375 3043.51,773.5313 Q3044.1663,773.6875 3044.7288,773.9844 L3044.7288,776.7031 Q3044.1038,776.125 3043.51,775.8594 Q3042.9163,775.5781 3042.2913,775.5781 Q3040.9475,775.5781 3040.26,776.6563 Q3039.5725,777.7188 3039.5725,779.8125 Q3039.5725,781.9063 3040.26,782.9844 Q3040.9475,784.0469 3042.2913,784.0469 Q3042.9163,784.0469 3043.51,783.7813 Q3044.1038,783.5 3044.7288,782.9219 L3044.7288,785.6406 Z "/><text fill="#000000" font-family="sans-serif" font-size="12" lengthAdjust="spacingAndGlyphs" textLength="68" x="3055.76" y="784.1543">FrameType</text><line style="stroke: #A80036; stroke-width: 1.5;" x1="3027.76" x2="3125.76" y1="796" y2="796"/><line style="stroke: #A80036; stroke-width: 1.5;" x1="3027.76" x2="3125.76" y1="804" y2="804"/><!--class amartinm.mastermind.distributed.dispatchers.TCPIP--><rect fill="#FEFECE" filter="url(#fd1akk2na9w5c)" height="48" id="amartinm.mastermind.distributed.dispatchers.TCPIP" style="stroke: #A80036; stroke-width: 1.5;" width="66" x="3161.76" y="764"/><ellipse cx="3176.76" cy="780" fill="#ADD1B2" rx="11" ry="11" style="stroke: #A80036; stroke-width: 1.0;"/><path d="M3179.7288,785.6406 Q3179.1506,785.9375 3178.51,786.0781 Q3177.8694,786.2344 3177.1663,786.2344 Q3174.6663,786.2344 3173.3381,784.5938 Q3172.0256,782.9375 3172.0256,779.8125 Q3172.0256,776.6875 3173.3381,775.0313 Q3174.6663,773.375 3177.1663,773.375 Q3177.8694,773.375 3178.51,773.5313 Q3179.1663,773.6875 3179.7288,773.9844 L3179.7288,776.7031 Q3179.1038,776.125 3178.51,775.8594 Q3177.9163,775.5781 3177.2913,775.5781 Q3175.9475,775.5781 3175.26,776.6563 Q3174.5725,777.7188 3174.5725,779.8125 Q3174.5725,781.9063 3175.26,782.9844 Q3175.9475,784.0469 3177.2913,784.0469 Q3177.9163,784.0469 3178.51,783.7813 Q3179.1038,783.5 3179.7288,782.9219 L3179.7288,785.6406 Z "/><text fill="#000000" font-family="sans-serif" font-size="12" lengthAdjust="spacingAndGlyphs" textLength="34" x="3190.76" y="784.1543">TCPIP</text><line style="stroke: #A80036; stroke-width: 1.5;" x1="3162.76" x2="3226.76" y1="796" y2="796"/><line style="stroke: #A80036; stroke-width: 1.5;" x1="3162.76" x2="3226.76" y1="804" y2="804"/><!--class amartinm.mastermind.distributed.dispatchers.DispatcherPrototype--><rect fill="#FEFECE" filter="url(#fd1akk2na9w5c)" height="48" id="amartinm.mastermind.distributed.dispatchers.DispatcherPrototype" style="stroke: #A80036; stroke-width: 1.5;" width="161" x="2830.26" y="764"/><ellipse cx="2845.26" cy="780" fill="#ADD1B2" rx="11" ry="11" style="stroke: #A80036; stroke-width: 1.0;"/><path d="M2848.2288,785.6406 Q2847.6506,785.9375 2847.01,786.0781 Q2846.3694,786.2344 2845.6663,786.2344 Q2843.1663,786.2344 2841.8381,784.5938 Q2840.5256,782.9375 2840.5256,779.8125 Q2840.5256,776.6875 2841.8381,775.0313 Q2843.1663,773.375 2845.6663,773.375 Q2846.3694,773.375 2847.01,773.5313 Q2847.6663,773.6875 2848.2288,773.9844 L2848.2288,776.7031 Q2847.6038,776.125 2847.01,775.8594 Q2846.4163,775.5781 2845.7913,775.5781 Q2844.4475,775.5781 2843.76,776.6563 Q2843.0725,777.7188 2843.0725,779.8125 Q2843.0725,781.9063 2843.76,782.9844 Q2844.4475,784.0469 2845.7913,784.0469 Q2846.4163,784.0469 2847.01,783.7813 Q2847.6038,783.5 2848.2288,782.9219 L2848.2288,785.6406 Z "/><text fill="#000000" font-family="sans-serif" font-size="12" lengthAdjust="spacingAndGlyphs" textLength="129" x="2859.26" y="784.1543">DispatcherPrototype</text><line style="stroke: #A80036; stroke-width: 1.5;" x1="2831.26" x2="2990.26" y1="796" y2="796"/><line style="stroke: #A80036; stroke-width: 1.5;" x1="2831.26" x2="2990.26" y1="804" y2="804"/><!--class amartinm.mastermind.controllers.Logic--><rect fill="#FEFECE" filter="url(#fd1akk2na9w5c)" height="48" id="amartinm.mastermind.controllers.Logic" style="stroke: #A80036; stroke-width: 1.5;" width="64" x="4337.76" y="207.5"/><ellipse cx="4352.76" cy="223.5" fill="#ADD1B2" rx="11" ry="11" style="stroke: #A80036; stroke-width: 1.0;"/><path d="M4355.7288,229.1406 Q4355.1506,229.4375 4354.51,229.5781 Q4353.8694,229.7344 4353.1663,229.7344 Q4350.6663,229.7344 4349.3381,228.0938 Q4348.0256,226.4375 4348.0256,223.3125 Q4348.0256,220.1875 4349.3381,218.5313 Q4350.6663,216.875 4353.1663,216.875 Q4353.8694,216.875 4354.51,217.0313 Q4355.1663,217.1875 4355.7288,217.4844 L4355.7288,220.2031 Q4355.1038,219.625 4354.51,219.3594 Q4353.9163,219.0781 4353.2913,219.0781 Q4351.9475,219.0781 4351.26,220.1563 Q4350.5725,221.2188 4350.5725,223.3125 Q4350.5725,225.4063 4351.26,226.4844 Q4351.9475,227.5469 4353.2913,227.5469 Q4353.9163,227.5469 4354.51,227.2813 Q4355.1038,227 4355.7288,226.4219 L4355.7288,229.1406 Z "/><text fill="#000000" font-family="sans-serif" font-size="12" lengthAdjust="spacingAndGlyphs" textLength="32" x="4366.76" y="227.6543">Logic</text><line style="stroke: #A80036; stroke-width: 1.5;" x1="4338.76" x2="4400.76" y1="239.5" y2="239.5"/><line style="stroke: #A80036; stroke-width: 1.5;" x1="4338.76" x2="4400.76" y1="247.5" y2="247.5"/><!--class amartinm.mastermind.controllers.PlayController--><rect fill="#FEFECE" filter="url(#fd1akk2na9w5c)" height="48" id="amartinm.mastermind.controllers.PlayController" style="stroke: #A80036; stroke-width: 1.5;" width="118" x="4774.76" y="207.5"/><ellipse cx="4789.76" cy="223.5" fill="#ADD1B2" rx="11" ry="11" style="stroke: #A80036; stroke-width: 1.0;"/><path d="M4792.7288,229.1406 Q4792.1506,229.4375 4791.51,229.5781 Q4790.8694,229.7344 4790.1663,229.7344 Q4787.6663,229.7344 4786.3381,228.0938 Q4785.0256,226.4375 4785.0256,223.3125 Q4785.0256,220.1875 4786.3381,218.5313 Q4787.6663,216.875 4790.1663,216.875 Q4790.8694,216.875 4791.51,217.0313 Q4792.1663,217.1875 4792.7288,217.4844 L4792.7288,220.2031 Q4792.1038,219.625 4791.51,219.3594 Q4790.9163,219.0781 4790.2913,219.0781 Q4788.9475,219.0781 4788.26,220.1563 Q4787.5725,221.2188 4787.5725,223.3125 Q4787.5725,225.4063 4788.26,226.4844 Q4788.9475,227.5469 4790.2913,227.5469 Q4790.9163,227.5469 4791.51,227.2813 Q4792.1038,227 4792.7288,226.4219 L4792.7288,229.1406 Z "/><text fill="#000000" font-family="sans-serif" font-size="12" lengthAdjust="spacingAndGlyphs" textLength="86" x="4803.76" y="227.6543">PlayController</text><line style="stroke: #A80036; stroke-width: 1.5;" x1="4775.76" x2="4891.76" y1="239.5" y2="239.5"/><line style="stroke: #A80036; stroke-width: 1.5;" x1="4775.76" x2="4891.76" y1="247.5" y2="247.5"/><!--class amartinm.mastermind.controllers.ResumeController--><rect fill="#FEFECE" filter="url(#fd1akk2na9w5c)" height="48" id="amartinm.mastermind.controllers.ResumeController" style="stroke: #A80036; stroke-width: 1.5;" width="143" x="4596.26" y="207.5"/><ellipse cx="4611.26" cy="223.5" fill="#ADD1B2" rx="11" ry="11" style="stroke: #A80036; stroke-width: 1.0;"/><path d="M4614.2288,229.1406 Q4613.6506,229.4375 4613.01,229.5781 Q4612.3694,229.7344 4611.6663,229.7344 Q4609.1663,229.7344 4607.8381,228.0938 Q4606.5256,226.4375 4606.5256,223.3125 Q4606.5256,220.1875 4607.8381,218.5313 Q4609.1663,216.875 4611.6663,216.875 Q4612.3694,216.875 4613.01,217.0313 Q4613.6663,217.1875 4614.2288,217.4844 L4614.2288,220.2031 Q4613.6038,219.625 4613.01,219.3594 Q4612.4163,219.0781 4611.7913,219.0781 Q4610.4475,219.0781 4609.76,220.1563 Q4609.0725,221.2188 4609.0725,223.3125 Q4609.0725,225.4063 4609.76,226.4844 Q4610.4475,227.5469 4611.7913,227.5469 Q4612.4163,227.5469 4613.01,227.2813 Q4613.6038,227 4614.2288,226.4219 L4614.2288,229.1406 Z "/><text fill="#000000" font-family="sans-serif" font-size="12" lengthAdjust="spacingAndGlyphs" textLength="111" x="4625.26" y="227.6543">ResumeController</text><line style="stroke: #A80036; stroke-width: 1.5;" x1="4597.26" x2="4738.26" y1="239.5" y2="239.5"/><line style="stroke: #A80036; stroke-width: 1.5;" x1="4597.26" x2="4738.26" y1="247.5" y2="247.5"/><!--class amartinm.mastermind.controllers.StartController--><rect fill="#FEFECE" filter="url(#fd1akk2na9w5c)" height="48" id="amartinm.mastermind.controllers.StartController" style="stroke: #A80036; stroke-width: 1.5;" width="124" x="4436.76" y="207.5"/><ellipse cx="4451.76" cy="223.5" fill="#ADD1B2" rx="11" ry="11" style="stroke: #A80036; stroke-width: 1.0;"/><path d="M4454.7288,229.1406 Q4454.1506,229.4375 4453.51,229.5781 Q4452.8694,229.7344 4452.1663,229.7344 Q4449.6663,229.7344 4448.3381,228.0938 Q4447.0256,226.4375 4447.0256,223.3125 Q4447.0256,220.1875 4448.3381,218.5313 Q4449.6663,216.875 4452.1663,216.875 Q4452.8694,216.875 4453.51,217.0313 Q4454.1663,217.1875 4454.7288,217.4844 L4454.7288,220.2031 Q4454.1038,219.625 4453.51,219.3594 Q4452.9163,219.0781 4452.2913,219.0781 Q4450.9475,219.0781 4450.26,220.1563 Q4449.5725,221.2188 4449.5725,223.3125 Q4449.5725,225.4063 4450.26,226.4844 Q4450.9475,227.5469 4452.2913,227.5469 Q4452.9163,227.5469 4453.51,227.2813 Q4454.1038,227 4454.7288,226.4219 L4454.7288,229.1406 Z "/><text fill="#000000" font-family="sans-serif" font-size="12" lengthAdjust="spacingAndGlyphs" textLength="92" x="4465.76" y="227.6543">StartController</text><line style="stroke: #A80036; stroke-width: 1.5;" x1="4437.76" x2="4559.76" y1="239.5" y2="239.5"/><line style="stroke: #A80036; stroke-width: 1.5;" x1="4437.76" x2="4559.76" y1="247.5" y2="247.5"/><!--class amartinm.mastermind.models.StateValue--><rect fill="#FEFECE" filter="url(#fd1akk2na9w5c)" height="48" id="amartinm.mastermind.models.StateValue" style="stroke: #A80036; stroke-width: 1.5;" width="101" x="3927.26" y="764"/><ellipse cx="3942.26" cy="780" fill="#ADD1B2" rx="11" ry="11" style="stroke: #A80036; stroke-width: 1.0;"/><path d="M3945.2288,785.6406 Q3944.6506,785.9375 3944.01,786.0781 Q3943.3694,786.2344 3942.6663,786.2344 Q3940.1663,786.2344 3938.8381,784.5938 Q3937.5256,782.9375 3937.5256,779.8125 Q3937.5256,776.6875 3938.8381,775.0313 Q3940.1663,773.375 3942.6663,773.375 Q3943.3694,773.375 3944.01,773.5313 Q3944.6663,773.6875 3945.2288,773.9844 L3945.2288,776.7031 Q3944.6038,776.125 3944.01,775.8594 Q3943.4163,775.5781 3942.7913,775.5781 Q3941.4475,775.5781 3940.76,776.6563 Q3940.0725,777.7188 3940.0725,779.8125 Q3940.0725,781.9063 3940.76,782.9844 Q3941.4475,784.0469 3942.7913,784.0469 Q3943.4163,784.0469 3944.01,783.7813 Q3944.6038,783.5 3945.2288,782.9219 L3945.2288,785.6406 Z "/><text fill="#000000" font-family="sans-serif" font-size="12" lengthAdjust="spacingAndGlyphs" textLength="69" x="3956.26" y="784.1543">StateValue</text><line style="stroke: #A80036; stroke-width: 1.5;" x1="3928.26" x2="4027.26" y1="796" y2="796"/><line style="stroke: #A80036; stroke-width: 1.5;" x1="3928.26" x2="4027.26" y1="804" y2="804"/><!--class amartinm.mastermind.models.Session--><rect fill="#FEFECE" filter="url(#fd1akk2na9w5c)" height="48" id="amartinm.mastermind.models.Session" style="stroke: #A80036; stroke-width: 1.5;" width="81" x="3401.26" y="764"/><ellipse cx="3416.26" cy="780" fill="#ADD1B2" rx="11" ry="11" style="stroke: #A80036; stroke-width: 1.0;"/><path d="M3419.2288,785.6406 Q3418.6506,785.9375 3418.01,786.0781 Q3417.3694,786.2344 3416.6663,786.2344 Q3414.1663,786.2344 3412.8381,784.5938 Q3411.5256,782.9375 3411.5256,779.8125 Q3411.5256,776.6875 3412.8381,775.0313 Q3414.1663,773.375 3416.6663,773.375 Q3417.3694,773.375 3418.01,773.5313 Q3418.6663,773.6875 3419.2288,773.9844 L3419.2288,776.7031 Q3418.6038,776.125 3418.01,775.8594 Q3417.4163,775.5781 3416.7913,775.5781 Q3415.4475,775.5781 3414.76,776.6563 Q3414.0725,777.7188 3414.0725,779.8125 Q3414.0725,781.9063 3414.76,782.9844 Q3415.4475,784.0469 3416.7913,784.0469 Q3417.4163,784.0469 3418.01,783.7813 Q3418.6038,783.5 3419.2288,782.9219 L3419.2288,785.6406 Z "/><text fill="#000000" font-family="sans-serif" font-size="12" lengthAdjust="spacingAndGlyphs" textLength="49" x="3430.26" y="784.1543">Session</text><line style="stroke: #A80036; stroke-width: 1.5;" x1="3402.26" x2="3481.26" y1="796" y2="796"/><line style="stroke: #A80036; stroke-width: 1.5;" x1="3402.26" x2="3481.26" y1="804" y2="804"/><!--class amartinm.mastermind.models.Error--><rect fill="#FEFECE" filter="url(#fd1akk2na9w5c)" height="48" id="amartinm.mastermind.models.Error" style="stroke: #A80036; stroke-width: 1.5;" width="63" x="3723.26" y="764"/><ellipse cx="3738.26" cy="780" fill="#ADD1B2" rx="11" ry="11" style="stroke: #A80036; stroke-width: 1.0;"/><path d="M3741.2288,785.6406 Q3740.6506,785.9375 3740.01,786.0781 Q3739.3694,786.2344 3738.6663,786.2344 Q3736.1663,786.2344 3734.8381,784.5938 Q3733.5256,782.9375 3733.5256,779.8125 Q3733.5256,776.6875 3734.8381,775.0313 Q3736.1663,773.375 3738.6663,773.375 Q3739.3694,773.375 3740.01,773.5313 Q3740.6663,773.6875 3741.2288,773.9844 L3741.2288,776.7031 Q3740.6038,776.125 3740.01,775.8594 Q3739.4163,775.5781 3738.7913,775.5781 Q3737.4475,775.5781 3736.76,776.6563 Q3736.0725,777.7188 3736.0725,779.8125 Q3736.0725,781.9063 3736.76,782.9844 Q3737.4475,784.0469 3738.7913,784.0469 Q3739.4163,784.0469 3740.01,783.7813 Q3740.6038,783.5 3741.2288,782.9219 L3741.2288,785.6406 Z "/><text fill="#000000" font-family="sans-serif" font-size="12" lengthAdjust="spacingAndGlyphs" textLength="31" x="3752.26" y="784.1543">Error</text><line style="stroke: #A80036; stroke-width: 1.5;" x1="3724.26" x2="3785.26" y1="796" y2="796"/><line style="stroke: #A80036; stroke-width: 1.5;" x1="3724.26" x2="3785.26" y1="804" y2="804"/><!--class amartinm.mastermind.models.ProposedCombination--><rect fill="#FEFECE" filter="url(#fd1akk2na9w5c)" height="48" id="amartinm.mastermind.models.ProposedCombination" style="stroke: #A80036; stroke-width: 1.5;" width="170" x="3517.76" y="764"/><ellipse cx="3532.76" cy="780" fill="#ADD1B2" rx="11" ry="11" style="stroke: #A80036; stroke-width: 1.0;"/><path d="M3535.7288,785.6406 Q3535.1506,785.9375 3534.51,786.0781 Q3533.8694,786.2344 3533.1663,786.2344 Q3530.6663,786.2344 3529.3381,784.5938 Q3528.0256,782.9375 3528.0256,779.8125 Q3528.0256,776.6875 3529.3381,775.0313 Q3530.6663,773.375 3533.1663,773.375 Q3533.8694,773.375 3534.51,773.5313 Q3535.1663,773.6875 3535.7288,773.9844 L3535.7288,776.7031 Q3535.1038,776.125 3534.51,775.8594 Q3533.9163,775.5781 3533.2913,775.5781 Q3531.9475,775.5781 3531.26,776.6563 Q3530.5725,777.7188 3530.5725,779.8125 Q3530.5725,781.9063 3531.26,782.9844 Q3531.9475,784.0469 3533.2913,784.0469 Q3533.9163,784.0469 3534.51,783.7813 Q3535.1038,783.5 3535.7288,782.9219 L3535.7288,785.6406 Z "/><text fill="#000000" font-family="sans-serif" font-size="12" lengthAdjust="spacingAndGlyphs" textLength="138" x="3546.76" y="784.1543">ProposedCombination</text><line style="stroke: #A80036; stroke-width: 1.5;" x1="3518.76" x2="3686.76" y1="796" y2="796"/><line style="stroke: #A80036; stroke-width: 1.5;" x1="3518.76" x2="3686.76" y1="804" y2="804"/><!--class amartinm.mastermind.models.Result--><rect fill="#FEFECE" filter="url(#fd1akk2na9w5c)" height="48" id="amartinm.mastermind.models.Result" style="stroke: #A80036; stroke-width: 1.5;" width="71" x="3821.26" y="764"/><ellipse cx="3836.26" cy="780" fill="#ADD1B2" rx="11" ry="11" style="stroke: #A80036; stroke-width: 1.0;"/><path d="M3839.2288,785.6406 Q3838.6506,785.9375 3838.01,786.0781 Q3837.3694,786.2344 3836.6663,786.2344 Q3834.1663,786.2344 3832.8381,784.5938 Q3831.5256,782.9375 3831.5256,779.8125 Q3831.5256,776.6875 3832.8381,775.0313 Q3834.1663,773.375 3836.6663,773.375 Q3837.3694,773.375 3838.01,773.5313 Q3838.6663,773.6875 3839.2288,773.9844 L3839.2288,776.7031 Q3838.6038,776.125 3838.01,775.8594 Q3837.4163,775.5781 3836.7913,775.5781 Q3835.4475,775.5781 3834.76,776.6563 Q3834.0725,777.7188 3834.0725,779.8125 Q3834.0725,781.9063 3834.76,782.9844 Q3835.4475,784.0469 3836.7913,784.0469 Q3837.4163,784.0469 3838.01,783.7813 Q3838.6038,783.5 3839.2288,782.9219 L3839.2288,785.6406 Z "/><text fill="#000000" font-family="sans-serif" font-size="12" lengthAdjust="spacingAndGlyphs" textLength="39" x="3850.26" y="784.1543">Result</text><line style="stroke: #A80036; stroke-width: 1.5;" x1="3822.26" x2="3891.26" y1="796" y2="796"/><line style="stroke: #A80036; stroke-width: 1.5;" x1="3822.26" x2="3891.26" y1="804" y2="804"/><!--class amartinm.mastermind.Mastermind--><rect fill="#FEFECE" filter="url(#fd1akk2na9w5c)" height="48" id="amartinm.mastermind.Mastermind" style="stroke: #A80036; stroke-width: 1.5;" width="105" x="3314.26" y="59"/><ellipse cx="3329.26" cy="75" fill="#ADD1B2" rx="11" ry="11" style="stroke: #A80036; stroke-width: 1.0;"/><path d="M3332.2288,80.6406 Q3331.6506,80.9375 3331.01,81.0781 Q3330.3694,81.2344 3329.6663,81.2344 Q3327.1663,81.2344 3325.8381,79.5938 Q3324.5256,77.9375 3324.5256,74.8125 Q3324.5256,71.6875 3325.8381,70.0313 Q3327.1663,68.375 3329.6663,68.375 Q3330.3694,68.375 3331.01,68.5313 Q3331.6663,68.6875 3332.2288,68.9844 L3332.2288,71.7031 Q3331.6038,71.125 3331.01,70.8594 Q3330.4163,70.5781 3329.7913,70.5781 Q3328.4475,70.5781 3327.76,71.6563 Q3327.0725,72.7188 3327.0725,74.8125 Q3327.0725,76.9063 3327.76,77.9844 Q3328.4475,79.0469 3329.7913,79.0469 Q3330.4163,79.0469 3331.01,78.7813 Q3331.6038,78.5 3332.2288,77.9219 L3332.2288,80.6406 Z "/><text fill="#000000" font-family="sans-serif" font-size="12" lengthAdjust="spacingAndGlyphs" textLength="73" x="3343.26" y="79.1543">Mastermind</text><line style="stroke: #A80036; stroke-width: 1.5;" x1="3315.26" x2="3418.26" y1="91" y2="91"/><line style="stroke: #A80036; stroke-width: 1.5;" x1="3315.26" x2="3418.26" y1="99" y2="99"/><!--class amartinm.utils.TCPIP--><rect fill="#FEFECE" filter="url(#fd1akk2na9w5c)" height="48" id="amartinm.utils.TCPIP" style="stroke: #A80036; stroke-width: 1.5;" width="66" x="1481.76" y="764"/><ellipse cx="1496.76" cy="780" fill="#ADD1B2" rx="11" ry="11" style="stroke: #A80036; stroke-width: 1.0;"/><path d="M1499.7288,785.6406 Q1499.1506,785.9375 1498.51,786.0781 Q1497.8694,786.2344 1497.1663,786.2344 Q1494.6663,786.2344 1493.3381,784.5938 Q1492.0256,782.9375 1492.0256,779.8125 Q1492.0256,776.6875 1493.3381,775.0313 Q1494.6663,773.375 1497.1663,773.375 Q1497.8694,773.375 1498.51,773.5313 Q1499.1663,773.6875 1499.7288,773.9844 L1499.7288,776.7031 Q1499.1038,776.125 1498.51,775.8594 Q1497.9163,775.5781 1497.2913,775.5781 Q1495.9475,775.5781 1495.26,776.6563 Q1494.5725,777.7188 1494.5725,779.8125 Q1494.5725,781.9063 1495.26,782.9844 Q1495.9475,784.0469 1497.2913,784.0469 Q1497.9163,784.0469 1498.51,783.7813 Q1499.1038,783.5 1499.7288,782.9219 L1499.7288,785.6406 Z "/><text fill="#000000" font-family="sans-serif" font-size="12" lengthAdjust="spacingAndGlyphs" textLength="34" x="1510.76" y="784.1543">TCPIP</text><line style="stroke: #A80036; stroke-width: 1.5;" x1="1482.76" x2="1546.76" y1="796" y2="796"/><line style="stroke: #A80036; stroke-width: 1.5;" x1="1482.76" x2="1546.76" y1="804" y2="804"/><!--link amartinm.mastermind.controllers.implementation.LogicImplementation to amartinm.mastermind.distributed.LogicImplementationServer--><path d="M3925.24,263.46 C3907.6,270.48 3888.27,277.03 3869.76,281 C3641.55,329.92 2023.98,369.07 1531.01,379.97 " fill="none" id="amartinm.mastermind.controllers.implementation.LogicImplementation-amartinm.mastermind.distributed.LogicImplementationServer" style="stroke: #A80036; stroke-width: 1.0;"/><polygon fill="none" points="3922.8,256.89,3943.95,255.59,3928.22,269.8,3922.8,256.89" style="stroke: #A80036; stroke-width: 1.0;"/><!--link amartinm.mastermind.distributed.LogicImplementationServer to amartinm.mastermind.distributed.dispatchers.FrameType--><path d="M1246.65,386.43 C942.4,390.96 249.79,409.74 178.76,487 C110.79,560.95 107.84,641.87 178.76,713 C192.64,726.92 2990.56,713.59 3008.76,721 C3028.26,728.94 3045.26,745.43 3057.38,759.95 " fill="none" id="amartinm.mastermind.distributed.LogicImplementationServer-amartinm.mastermind.distributed.dispatchers.FrameType" style="stroke: #A80036; stroke-width: 1.0; stroke-dasharray: 7.0,7.0;"/><polygon fill="#A80036" points="3060.67,763.98,3058.0991,754.4726,3057.517,760.0994,3051.8902,759.5173,3060.67,763.98" style="stroke: #A80036; stroke-width: 1.0;"/><!--link amartinm.mastermind.distributed.LogicImplementationServer to amartinm.mastermind.distributed.StartDispatcher--><path d="M1246.53,396.94 C1160.6,409.41 1051.82,434.9 967.76,487 C938.68,505.03 914.69,536.56 899.9,559.41 " fill="none" id="amartinm.mastermind.distributed.LogicImplementationServer-amartinm.mastermind.distributed.StartDispatcher" style="stroke: #A80036; stroke-width: 1.0; stroke-dasharray: 7.0,7.0;"/><polygon fill="#A80036" points="897.06,563.85,905.2618,558.3974,899.7407,559.6293,898.5087,554.1083,897.06,563.85" style="stroke: #A80036; stroke-width: 1.0;"/><!--link amartinm.mastermind.distributed.LogicImplementationServer to amartinm.mastermind.distributed.StateDispatcher--><path d="M1284.3,414.61 C1236.57,431.2 1180.96,455.08 1136.76,487 C1109.23,506.89 1084.94,537.52 1069.45,559.64 " fill="none" id="amartinm.mastermind.distributed.LogicImplementationServer-amartinm.mastermind.distributed.StateDispatcher" style="stroke: #A80036; stroke-width: 1.0; stroke-dasharray: 7.0,7.0;"/><polygon fill="#A80036" points="1066.47,563.94,1074.877,558.8095,1069.3123,559.8265,1068.2954,554.2618,1066.47,563.94" style="stroke: #A80036; stroke-width: 1.0;"/><!--link amartinm.mastermind.distributed.LogicImplementationServer to amartinm.mastermind.distributed.UndoDispatcher--><path d="M1363.97,414.81 C1331.39,453.98 1274.62,522.24 1243.23,559.98 " fill="none" id="amartinm.mastermind.distributed.LogicImplementationServer-amartinm.mastermind.distributed.UndoDispatcher" style="stroke: #A80036; stroke-width: 1.0; stroke-dasharray: 7.0,7.0;"/><polygon fill="#A80036" points="1239.91,563.98,1248.743,559.6235,1243.1095,560.1377,1242.5953,554.5043,1239.91,563.98" style="stroke: #A80036; stroke-width: 1.0;"/><!--link amartinm.mastermind.distributed.LogicImplementationServer to amartinm.mastermind.distributed.RedoDispatcher--><path d="M1388.76,414.81 C1388.76,453.51 1388.76,520.59 1388.76,558.59 " fill="none" id="amartinm.mastermind.distributed.LogicImplementationServer-amartinm.mastermind.distributed.RedoDispatcher" style="stroke: #A80036; stroke-width: 1.0; stroke-dasharray: 7.0,7.0;"/><polygon fill="#A80036" points="1388.76,563.98,1392.76,554.98,1388.76,558.98,1384.76,554.98,1388.76,563.98" style="stroke: #A80036; stroke-width: 1.0;"/><!--link amartinm.mastermind.distributed.LogicImplementationServer to amartinm.mastermind.distributed.UndoableDispatcher--><path d="M1415.47,414.81 C1450.57,453.98 1511.74,522.24 1545.55,559.98 " fill="none" id="amartinm.mastermind.distributed.LogicImplementationServer-amartinm.mastermind.distributed.UndoableDispatcher" style="stroke: #A80036; stroke-width: 1.0; stroke-dasharray: 7.0,7.0;"/><polygon fill="#A80036" points="1549.14,563.98,1546.0925,554.6145,1545.7952,560.2635,1540.1461,559.9662,1549.14,563.98" style="stroke: #A80036; stroke-width: 1.0;"/><!--link amartinm.mastermind.distributed.LogicImplementationServer to amartinm.mastermind.distributed.RedoableDispatcher--><path d="M1504.85,414.58 C1557.19,431.06 1618.23,454.86 1667.76,487 C1698.13,506.71 1726.15,537.56 1744.18,559.78 " fill="none" id="amartinm.mastermind.distributed.LogicImplementationServer-amartinm.mastermind.distributed.RedoableDispatcher" style="stroke: #A80036; stroke-width: 1.0; stroke-dasharray: 7.0,7.0;"/><polygon fill="#A80036" points="1747.43,563.82,1744.9185,554.2968,1744.3013,559.9198,1738.6782,559.3027,1747.43,563.82" style="stroke: #A80036; stroke-width: 1.0;"/><!--link amartinm.mastermind.distributed.LogicImplementationServer to amartinm.mastermind.distributed.CombinationValidDispatcher--><path d="M1530.79,397.89 C1627.83,410.88 1757.26,436.58 1861.76,487 C1899.46,505.19 1935.62,537.3 1958.65,560.23 " fill="none" id="amartinm.mastermind.distributed.LogicImplementationServer-amartinm.mastermind.distributed.CombinationValidDispatcher" style="stroke: #A80036; stroke-width: 1.0; stroke-dasharray: 7.0,7.0;"/><polygon fill="#A80036" points="1962.24,563.82,1958.723,554.6205,1958.7116,560.2773,1953.0548,560.2659,1962.24,563.82" style="stroke: #A80036; stroke-width: 1.0;"/><!--link amartinm.mastermind.distributed.LogicImplementationServer to amartinm.mastermind.distributed.AddProposalDispatcher--><path d="M1530.8,395.06 C1710.04,409.49 2006.88,439.67 2105.76,487 C2140.88,503.81 2172.28,536.3 2191.83,559.68 " fill="none" id="amartinm.mastermind.distributed.LogicImplementationServer-amartinm.mastermind.distributed.AddProposalDispatcher" style="stroke: #A80036; stroke-width: 1.0; stroke-dasharray: 7.0,7.0;"/><polygon fill="#A80036" points="2195.11,563.65,2192.4628,554.1636,2191.926,559.7949,2186.2946,559.258,2195.11,563.65" style="stroke: #A80036; stroke-width: 1.0;"/><!--link amartinm.mastermind.distributed.LogicImplementationServer to amartinm.mastermind.distributed.GetAttemptsDispatcher--><path d="M1530.97,389.65 C1756.02,398.82 2182.8,424.12 2319.76,487 C2355.37,503.35 2386.88,536.24 2406.32,559.84 " fill="none" id="amartinm.mastermind.distributed.LogicImplementationServer-amartinm.mastermind.distributed.GetAttemptsDispatcher" style="stroke: #A80036; stroke-width: 1.0; stroke-dasharray: 7.0,7.0;"/><polygon fill="#A80036" points="2409.57,563.84,2406.982,554.3373,2406.41,559.9651,2400.7822,559.3932,2409.57,563.84" style="stroke: #A80036; stroke-width: 1.0;"/><!--link amartinm.mastermind.distributed.LogicImplementationServer to amartinm.mastermind.distributed.GetProposalDispatcher--><path d="M1531.01,386.15 C1796.89,390.16 2358.17,408.05 2533.76,487 C2569.32,502.99 2600.47,535.96 2619.64,559.67 " fill="none" id="amartinm.mastermind.distributed.LogicImplementationServer-amartinm.mastermind.distributed.GetProposalDispatcher" style="stroke: #A80036; stroke-width: 1.0; stroke-dasharray: 7.0,7.0;"/><polygon fill="#A80036" points="2622.85,563.69,2620.3555,554.1623,2619.7283,559.7843,2614.1063,559.1571,2622.85,563.69" style="stroke: #A80036; stroke-width: 1.0;"/><!--link amartinm.mastermind.distributed.LogicImplementationServer to amartinm.mastermind.distributed.GetResultDispatcher--><path d="M1530.89,390.02 C1856.68,402.33 2637.68,436.74 2745.76,487 C2779.59,502.73 2808.07,535.53 2825.47,559.29 " fill="none" id="amartinm.mastermind.distributed.LogicImplementationServer-amartinm.mastermind.distributed.GetResultDispatcher" style="stroke: #A80036; stroke-width: 1.0; stroke-dasharray: 7.0,7.0;"/><polygon fill="#A80036" points="2828.58,563.61,2826.5558,553.9714,2825.6536,559.5559,2820.0691,558.6537,2828.58,563.61" style="stroke: #A80036; stroke-width: 1.0;"/><!--link amartinm.mastermind.distributed.LogicImplementationServer to amartinm.mastermind.distributed.IsWinnerDispatcher--><path d="M1246.37,388.16 C1014.96,395.28 569.01,417.79 428.76,487 C395.81,503.26 368.23,535.96 351.42,559.54 " fill="none" id="amartinm.mastermind.distributed.LogicImplementationServer-amartinm.mastermind.distributed.IsWinnerDispatcher" style="stroke: #A80036; stroke-width: 1.0; stroke-dasharray: 7.0,7.0;"/><polygon fill="#A80036" points="348.41,563.84,356.8576,558.7766,351.285,559.7492,350.3124,554.1766,348.41,563.84" style="stroke: #A80036; stroke-width: 1.0;"/><!--link amartinm.mastermind.distributed.LogicImplementationServer to amartinm.mastermind.distributed.IsLooserDispatcher--><path d="M1246.66,392.35 C1054.34,404.23 722.89,432.07 615.76,487 C583.43,503.58 556.26,535.89 539.57,559.31 " fill="none" id="amartinm.mastermind.distributed.LogicImplementationServer-amartinm.mastermind.distributed.IsLooserDispatcher" style="stroke: #A80036; stroke-width: 1.0; stroke-dasharray: 7.0,7.0;"/><polygon fill="#A80036" points="536.58,563.58,545.0193,558.5027,539.4483,559.4845,538.4665,553.9135,536.58,563.58" style="stroke: #A80036; stroke-width: 1.0;"/><!--link amartinm.mastermind.distributed.LogicImplementationServer to amartinm.mastermind.distributed.ResumeDispatcher--><path d="M1246.5,399.14 C1097.78,415.76 875.8,446.33 800.76,487 C768.97,504.23 742.06,536.42 725.49,559.63 " fill="none" id="amartinm.mastermind.distributed.LogicImplementationServer-amartinm.mastermind.distributed.ResumeDispatcher" style="stroke: #A80036; stroke-width: 1.0; stroke-dasharray: 7.0,7.0;"/><polygon fill="#A80036" points="722.51,563.86,730.9576,558.7966,725.385,559.7692,724.4124,554.1966,722.51,563.86" style="stroke: #A80036; stroke-width: 1.0;"/><!--link amartinm.mastermind.controllers.Logic to amartinm.mastermind.distributed.LogicProxy--><path d="M4317.99,242.42 C4261.54,253 4168.47,269.74 4087.76,281 C3840.29,315.53 3774.58,296.19 3528.76,341 C3490.32,348.01 3447.55,359.25 3415.62,368.33 " fill="none" id="amartinm.mastermind.controllers.Logic-amartinm.mastermind.distributed.LogicProxy" style="stroke: #A80036; stroke-width: 1.0;"/><polygon fill="none" points="4316.77,235.52,4337.72,238.69,4319.37,249.28,4316.77,235.52" style="stroke: #A80036; stroke-width: 1.0;"/><!--link amartinm.mastermind.distributed.LogicProxy to amartinm.mastermind.distributed.dispatchers.TCPIP--><path d="M3304.95,386.43 C2868.5,396.6 267.45,458.4 239.76,487 C169.9,559.17 168.84,641.88 239.76,713 C254.01,727.28 3126.71,712 3144.76,721 C3158.31,727.76 3169.18,740.13 3177.27,752.35 " fill="none" id="amartinm.mastermind.distributed.LogicProxy-amartinm.mastermind.distributed.dispatchers.TCPIP" style="stroke: #A80036; stroke-width: 1.0;"/><polygon fill="#A80036" points="3184.18,763.83,3182.9703,754.0557,3181.6035,759.545,3176.1142,758.1781,3184.18,763.83" style="stroke: #A80036; stroke-width: 1.0;"/><line style="stroke: #A80036; stroke-width: 1.0;" x1="3181.6035" x2="3177.48" y1="759.545" y2="752.695"/><polygon fill="#A80036" points="3318.11,386.12,3312.0151,382.2662,3306.1135,386.41,3312.2084,390.2638,3318.11,386.12" style="stroke: #A80036; stroke-width: 1.0;"/><!--link amartinm.mastermind.distributed.LogicProxy to amartinm.mastermind.models.StateValue--><path d="M3415.59,388.79 C3528.57,398.5 3803.56,427.76 3871.76,487 C3954.14,558.56 3972.5,698.31 3976.59,758.41 " fill="none" id="amartinm.mastermind.distributed.LogicProxy-amartinm.mastermind.models.StateValue" style="stroke: #A80036; stroke-width: 1.0; stroke-dasharray: 7.0,7.0;"/><polygon fill="#A80036" points="3976.92,763.62,3980.3195,754.3764,3976.5912,758.6308,3972.3368,754.9025,3976.92,763.62" style="stroke: #A80036; stroke-width: 1.0;"/><!--link amartinm.mastermind.distributed.LogicProxy to amartinm.mastermind.distributed.StartControllerProxy--><path d="M3318.13,416.02 C3287.35,435.89 3246.88,462.46 3211.76,487 C3186.67,504.53 3159.47,524.49 3136.1,541.94 " fill="none" id="amartinm.mastermind.distributed.LogicProxy-amartinm.mastermind.distributed.StartControllerProxy" style="stroke: #A80036; stroke-width: 1.0; stroke-dasharray: 7.0,7.0;"/><polygon fill="#A80036" points="3132.09,544.94,3141.69,542.74,3136.09,541.94,3136.89,536.34,3132.09,544.94" style="stroke: #A80036; stroke-width: 1.0;"/><!--link amartinm.mastermind.distributed.LogicProxy to amartinm.mastermind.distributed.PlayControllerProxy--><path d="M3415.56,415.9 C3444.86,434.45 3484,459.24 3523.37,484.17 " fill="none" id="amartinm.mastermind.distributed.LogicProxy-amartinm.mastermind.distributed.PlayControllerProxy" style="stroke: #A80036; stroke-width: 1.0; stroke-dasharray: 7.0,7.0;"/><polygon fill="#A80036" points="3527.67,486.89,3522.2174,478.6882,3523.4493,484.2093,3517.9283,485.4413,3527.67,486.89" style="stroke: #A80036; stroke-width: 1.0;"/><!--link amartinm.mastermind.distributed.LogicProxy to amartinm.mastermind.distributed.ResumeControllerProxy--><path d="M3364.46,427.35 C3362.67,460.07 3360.21,505.37 3358.36,539.36 " fill="none" id="amartinm.mastermind.distributed.LogicProxy-amartinm.mastermind.distributed.ResumeControllerProxy" style="stroke: #A80036; stroke-width: 1.0; stroke-dasharray: 7.0,7.0;"/><polygon fill="#A80036" points="3358.07,544.71,3362.5533,535.9408,3358.3418,539.7174,3354.5652,535.5059,3358.07,544.71" style="stroke: #A80036; stroke-width: 1.0;"/><!--link amartinm.mastermind.Mastermind to amartinm.mastermind.distributed.MastermindClient--><path d="M3366.76,127.48 C3366.76,144.6 3366.76,164.34 3366.76,181.93 " fill="none" id="amartinm.mastermind.Mastermind-amartinm.mastermind.distributed.MastermindClient" style="stroke: #A80036; stroke-width: 1.0;"/><polygon fill="none" points="3359.76,127.21,3366.76,107.21,3373.76,127.21,3359.76,127.21" style="stroke: #A80036; stroke-width: 1.0;"/><!--link amartinm.mastermind.distributed.MastermindClient to amartinm.mastermind.distributed.LogicProxy--><path d="M3366.76,294.77 C3366.76,305.7 3366.76,317.02 3366.76,327.75 " fill="none" id="amartinm.mastermind.distributed.MastermindClient-amartinm.mastermind.distributed.LogicProxy" style="stroke: #A80036; stroke-width: 1.0;"/><polygon fill="#A80036" points="3366.76,340.95,3370.76,331.95,3366.76,335.95,3362.76,331.95,3366.76,340.95" style="stroke: #A80036; stroke-width: 1.0;"/><line style="stroke: #A80036; stroke-width: 1.0;" x1="3366.76" x2="3366.76" y1="335.95" y2="327.95"/><polygon fill="#A80036" points="3366.76,281.36,3362.76,287.36,3366.76,293.36,3370.76,287.36,3366.76,281.36" style="stroke: #A80036; stroke-width: 1.0;"/><!--link amartinm.mastermind.distributed.MastermindServer to amartinm.mastermind.distributed.dispatchers.DispatcherPrototype--><path d="M744.07,246.66 C576.98,264.66 313.58,298.54 223.76,341 C60.08,418.37 -69.92,584.64 57.76,713 C65.14,720.41 1553.31,720.72 1563.76,721 C2034.82,733.79 2597.76,767.26 2816.96,780.99 " fill="none" id="amartinm.mastermind.distributed.MastermindServer-amartinm.mastermind.distributed.dispatchers.DispatcherPrototype" style="stroke: #A80036; stroke-width: 1.0;"/><polygon fill="#A80036" points="2829.96,781.81,2821.2283,777.254,2824.9698,781.4967,2820.7271,785.2383,2829.96,781.81" style="stroke: #A80036; stroke-width: 1.0;"/><line style="stroke: #A80036; stroke-width: 1.0;" x1="2824.9698" x2="2816.985" y1="781.4967" y2="780.99"/><polygon fill="#A80036" points="757.18,245.26,750.7879,241.9222,745.2483,246.5389,751.6405,249.8767,757.18,245.26" style="stroke: #A80036; stroke-width: 1.0;"/><!--link amartinm.mastermind.distributed.MastermindServer to amartinm.mastermind.distributed.LogicImplementationServer--><path d="M1020.46,272.14 C1103.27,297.07 1208.59,328.77 1285.38,351.88 " fill="none" id="amartinm.mastermind.distributed.MastermindServer-amartinm.mastermind.distributed.LogicImplementationServer" style="stroke: #A80036; stroke-width: 1.0; stroke-dasharray: 7.0,7.0;"/><polygon fill="#A80036" points="1290.39,353.39,1282.9277,346.9623,1285.6028,351.9467,1280.6185,354.6218,1290.39,353.39" style="stroke: #A80036; stroke-width: 1.0;"/><!--link amartinm.mastermind.controllers.PlayController to amartinm.mastermind.distributed.PlayControllerProxy--><path d="M4784.53,266.37 C4775.53,271.72 4766.05,276.85 4756.76,281 C4451.32,417.47 4069.6,509.24 3854.18,554.4 " fill="none" id="amartinm.mastermind.controllers.PlayController-amartinm.mastermind.distributed.PlayControllerProxy" style="stroke: #A80036; stroke-width: 1.0;"/><polygon fill="none" points="4780.9,260.38,4801.56,255.66,4788.36,272.23,4780.9,260.38" style="stroke: #A80036; stroke-width: 1.0;"/><!--link amartinm.mastermind.distributed.PlayControllerProxy to amartinm.mastermind.distributed.dispatchers.TCPIP--><path d="M3541.1,695.31 C3527.56,702.19 3513.68,708.25 3499.76,713 C3451.27,729.54 3434.96,710.73 3384.76,721 C3333.89,731.41 3278.02,751.99 3240.11,767.42 " fill="none" id="amartinm.mastermind.distributed.PlayControllerProxy-amartinm.mastermind.distributed.dispatchers.TCPIP" style="stroke: #A80036; stroke-width: 1.0;"/><polygon fill="#A80036" points="3227.98,772.43,3237.8253,772.6949,3232.602,770.5229,3234.774,765.2997,3227.98,772.43" style="stroke: #A80036; stroke-width: 1.0;"/><line style="stroke: #A80036; stroke-width: 1.0;" x1="3232.602" x2="3239.995" y1="770.5229" y2="767.465"/><polygon fill="#A80036" points="3552.9,689.07,3545.7255,688.3446,3542.2965,694.6883,3549.471,695.4137,3552.9,689.07" style="stroke: #A80036; stroke-width: 1.0;"/><!--link amartinm.mastermind.distributed.PlayControllerProxy to amartinm.mastermind.models.Session--><path d="M3528.51,697.44 C3518.94,705.18 3509.61,713.07 3500.76,721 C3489.66,730.95 3478.5,742.83 3468.92,753.76 " fill="none" id="amartinm.mastermind.distributed.PlayControllerProxy-amartinm.mastermind.models.Session" style="stroke: #A80036; stroke-width: 1.0;"/><polygon fill="#A80036" points="3460.27,763.85,3469.1667,759.6252,3463.5262,760.0557,3463.0957,754.4152,3460.27,763.85" style="stroke: #A80036; stroke-width: 1.0;"/><line style="stroke: #A80036; stroke-width: 1.0;" x1="3463.5262" x2="3468.735" y1="760.0557" y2="753.975"/><polygon fill="#A80036" points="3538.97,689.09,3531.7856,689.7098,3529.5944,696.5799,3536.7789,695.9601,3538.97,689.09" style="stroke: #A80036; stroke-width: 1.0;"/><!--link amartinm.mastermind.distributed.PlayControllerProxy to amartinm.mastermind.distributed.dispatchers.FrameType--><path d="M3554.76,689.04 C3537.01,698.72 3518.46,707.11 3499.76,713 C3462.13,724.86 3181.16,705.76 3144.76,721 C3125.48,729.07 3108.59,745.39 3096.46,759.78 " fill="none" id="amartinm.mastermind.distributed.PlayControllerProxy-amartinm.mastermind.distributed.dispatchers.FrameType" style="stroke: #A80036; stroke-width: 1.0; stroke-dasharray: 7.0,7.0;"/><polygon fill="#A80036" points="3093.17,763.78,3101.9854,759.388,3096.354,759.9249,3095.8172,754.2936,3093.17,763.78" style="stroke: #A80036; stroke-width: 1.0;"/><!--link amartinm.mastermind.distributed.PlayControllerProxy to amartinm.mastermind.models.Error--><path d="M3720.67,689.16 C3729.59,714.76 3738.47,740.26 3744.94,758.8 " fill="none" id="amartinm.mastermind.distributed.PlayControllerProxy-amartinm.mastermind.models.Error" style="stroke: #A80036; stroke-width: 1.0; stroke-dasharray: 7.0,7.0;"/><polygon fill="#A80036" points="3746.69,763.84,3747.5055,754.025,3745.0446,759.1185,3739.9511,756.6576,3746.69,763.84" style="stroke: #A80036; stroke-width: 1.0;"/><!--link amartinm.mastermind.distributed.PlayControllerProxy to amartinm.mastermind.models.ProposedCombination--><path d="M3643.78,689.16 C3633.04,714.76 3622.36,740.26 3614.58,758.8 " fill="none" id="amartinm.mastermind.distributed.PlayControllerProxy-amartinm.mastermind.models.ProposedCombination" style="stroke: #A80036; stroke-width: 1.0; stroke-dasharray: 7.0,7.0;"/><polygon fill="#A80036" points="3612.47,763.84,3619.6313,757.0786,3614.3981,759.2267,3612.25,753.9936,3612.47,763.84" style="stroke: #A80036; stroke-width: 1.0;"/><!--link amartinm.mastermind.distributed.PlayControllerProxy to amartinm.mastermind.models.Result--><path d="M3776.2,689.05 C3785.58,699.77 3794.92,710.56 3803.76,721 C3814.43,733.59 3825.94,747.84 3835.5,759.86 " fill="none" id="amartinm.mastermind.distributed.PlayControllerProxy-amartinm.mastermind.models.Result" style="stroke: #A80036; stroke-width: 1.0; stroke-dasharray: 7.0,7.0;"/><polygon fill="#A80036" points="3838.66,763.85,3836.1867,754.3167,3835.547,759.9373,3829.9264,759.2976,3838.66,763.85" style="stroke: #A80036; stroke-width: 1.0;"/><!--link amartinm.mastermind.controllers.ResumeController to amartinm.mastermind.distributed.ResumeControllerProxy--><path d="M4613.37,265.57 C4602.21,271.37 4590.33,276.86 4578.76,281 C4119.54,445.45 3950.74,298.72 3500.76,487 C3466.63,501.28 3432.37,524.4 3405.73,544.82 " fill="none" id="amartinm.mastermind.controllers.ResumeController-amartinm.mastermind.distributed.ResumeControllerProxy" style="stroke: #A80036; stroke-width: 1.0;"/><polygon fill="none" points="4610.39,259.22,4631.29,255.71,4617.14,271.49,4610.39,259.22" style="stroke: #A80036; stroke-width: 1.0;"/><!--link amartinm.mastermind.distributed.ResumeControllerProxy to amartinm.mastermind.distributed.dispatchers.TCPIP--><path d="M3312.84,641.79 C3283.96,677.3 3246.76,723.05 3221.91,753.61 " fill="none" id="amartinm.mastermind.distributed.ResumeControllerProxy-amartinm.mastermind.distributed.dispatchers.TCPIP" style="stroke: #A80036; stroke-width: 1.0;"/><polygon fill="#A80036" points="3213.67,763.75,3222.4512,759.2902,3216.8242,759.8704,3216.2439,754.2434,3213.67,763.75" style="stroke: #A80036; stroke-width: 1.0;"/><line style="stroke: #A80036; stroke-width: 1.0;" x1="3216.8242" x2="3221.87" y1="759.8704" y2="753.66"/><polygon fill="#A80036" points="3321.22,631.48,3314.3313,633.6121,3313.6499,640.7909,3320.5386,638.6588,3321.22,631.48" style="stroke: #A80036; stroke-width: 1.0;"/><!--link amartinm.mastermind.distributed.ResumeControllerProxy to amartinm.mastermind.models.Session--><path d="M3379.46,643.57 C3394.47,678.11 3413.43,721.76 3426.47,751.78 " fill="none" id="amartinm.mastermind.distributed.ResumeControllerProxy-amartinm.mastermind.models.Session" style="stroke: #A80036; stroke-width: 1.0;"/><polygon fill="#A80036" points="3431.66,763.75,3431.7402,753.9015,3429.6666,759.1646,3424.4035,757.091,3431.66,763.75" style="stroke: #A80036; stroke-width: 1.0;"/><line style="stroke: #A80036; stroke-width: 1.0;" x1="3429.6666" x2="3426.485" y1="759.1646" y2="751.825"/><polygon fill="#A80036" points="3374.21,631.48,3372.9297,638.5765,3378.988,642.4878,3380.2682,635.3912,3374.21,631.48" style="stroke: #A80036; stroke-width: 1.0;"/><!--link amartinm.mastermind.distributed.ResumeControllerProxy to amartinm.mastermind.distributed.dispatchers.FrameType--><path d="M3319.61,631.14 C3292.86,659.3 3253.88,694.45 3211.76,713 C3184.32,725.09 3171.84,708.1 3144.76,721 C3126.16,729.86 3109.49,745.85 3097.31,759.87 " fill="none" id="amartinm.mastermind.distributed.ResumeControllerProxy-amartinm.mastermind.distributed.dispatchers.FrameType" style="stroke: #A80036; stroke-width: 1.0; stroke-dasharray: 7.0,7.0;"/><polygon fill="#A80036" points="3093.99,763.76,3102.8671,759.4941,3097.2287,759.9507,3096.7721,754.3123,3093.99,763.76" style="stroke: #A80036; stroke-width: 1.0;"/><!--link amartinm.mastermind.models.Session to amartinm.mastermind.distributed.SessionProxy--><path d="M3467.48,747.83 C3476.61,737.17 3487.88,726.93 3500.76,721 C3519.49,712.38 3857.34,727.73 3871.76,713 C3997.47,584.56 3806.83,365.93 3715.28,274.57 " fill="none" id="amartinm.mastermind.models.Session-amartinm.mastermind.distributed.SessionProxy" style="stroke: #A80036; stroke-width: 1.0; stroke-dasharray: 7.0,7.0;"/><polygon fill="none" points="3472.98,752.15,3455.31,763.84,3461.84,743.68,3472.98,752.15" style="stroke: #A80036; stroke-width: 1.0;"/><!--link amartinm.mastermind.distributed.SessionProxy to amartinm.utils.TCPIP--><path d="M3566.81,260.9 C3532.94,268.94 3494.99,276.67 3459.76,281 C3281.3,302.92 391.41,275.98 223.76,341 C132.16,376.53 98.25,397.48 57.76,487 C16.37,578.52 -11.44,640.2 57.76,713 C107.51,765.34 1225.06,783.15 1468.3,786.42 " fill="none" id="amartinm.mastermind.distributed.SessionProxy-amartinm.utils.TCPIP" style="stroke: #A80036; stroke-width: 1.0;"/><polygon fill="#A80036" points="1481.47,786.59,1472.5235,782.4717,1476.4704,786.5241,1472.418,790.471,1481.47,786.59" style="stroke: #A80036; stroke-width: 1.0;"/><line style="stroke: #A80036; stroke-width: 1.0;" x1="1476.4704" x2="1468.47" y1="786.5241" y2="786.42"/><polygon fill="#A80036" points="3579.58,257.81,3572.8079,255.3323,3567.9162,260.6304,3574.6882,263.1082,3579.58,257.81" style="stroke: #A80036; stroke-width: 1.0;"/><!--link amartinm.mastermind.distributed.SessionProxy to amartinm.mastermind.distributed.dispatchers.FrameType--><path d="M3579.56,257.64 C3542.66,266.71 3499.47,275.95 3459.76,281 C3090.69,327.91 363.11,207.33 117.76,487 C51.52,562.51 46.84,641.88 117.76,713 C131.94,727.22 2990.17,713.43 3008.76,721 C3028.26,728.94 3045.26,745.43 3057.38,759.94 " fill="none" id="amartinm.mastermind.distributed.SessionProxy-amartinm.mastermind.distributed.dispatchers.FrameType" style="stroke: #A80036; stroke-width: 1.0; stroke-dasharray: 7.0,7.0;"/><polygon fill="#A80036" points="3060.67,763.98,3058.0991,754.4726,3057.517,760.0994,3051.8902,759.5173,3060.67,763.98" style="stroke: #A80036; stroke-width: 1.0;"/><!--link amartinm.mastermind.distributed.SessionProxy to amartinm.mastermind.models.StateValue--><path d="M3746.14,274.54 C3775.73,292.9 3808.95,315.96 3835.76,341 C3895.34,396.63 3916.79,411.2 3946.76,487 C3983.97,581.11 3982.67,704.11 3979.79,758.74 " fill="none" id="amartinm.mastermind.distributed.SessionProxy-amartinm.mastermind.models.StateValue" style="stroke: #A80036; stroke-width: 1.0; stroke-dasharray: 7.0,7.0;"/><polygon fill="#A80036" points="3979.51,763.81,3983.992,755.0401,3979.781,758.8174,3976.0037,754.6064,3979.51,763.81" style="stroke: #A80036; stroke-width: 1.0;"/><!--link amartinm.mastermind.controllers.StartController to amartinm.mastermind.distributed.StartControllerProxy--><path d="M4451.48,266.42 C4441.43,272.21 4430.57,277.48 4419.76,281 C4100.56,385.03 3994.7,269.09 3666.76,341 C3558.53,364.73 3538.33,393.34 3432.76,427 C3335.79,457.92 3303.35,442.61 3211.76,487 C3180.4,502.2 3148.9,525 3124.22,544.99 " fill="none" id="amartinm.mastermind.controllers.StartController-amartinm.mastermind.distributed.StartControllerProxy" style="stroke: #A80036; stroke-width: 1.0;"/><polygon fill="none" points="4447.88,260.42,4468.54,255.72,4455.32,272.28,4447.88,260.42" style="stroke: #A80036; stroke-width: 1.0;"/><!--link amartinm.mastermind.distributed.StartControllerProxy to amartinm.utils.TCPIP--><path d="M3035.72,641.07 C3011.5,667.67 2978.45,697.6 2941.76,713 C2933.61,716.42 1806.14,772.54 1561.32,784.69 " fill="none" id="amartinm.mastermind.distributed.StartControllerProxy-amartinm.utils.TCPIP" style="stroke: #A80036; stroke-width: 1.0;"/><polygon fill="#A80036" points="1548.07,785.35,1557.2568,788.9001,1553.0639,785.1028,1556.8612,780.9099,1548.07,785.35" style="stroke: #A80036; stroke-width: 1.0;"/><line style="stroke: #A80036; stroke-width: 1.0;" x1="1553.0639" x2="1561.055" y1="785.1028" y2="784.705"/><polygon fill="#A80036" points="3044.56,631.07,3037.5877,632.9104,3036.6048,640.0542,3043.5771,638.2138,3044.56,631.07" style="stroke: #A80036; stroke-width: 1.0;"/><!--link amartinm.mastermind.distributed.StartControllerProxy to amartinm.mastermind.models.Session--><path d="M3121.22,640.55 C3145.59,665.81 3177.72,694.67 3211.76,713 C3224.67,719.95 3229.69,716.9 3243.76,721 C3293.36,735.44 3349.13,754.27 3388.81,768.12 " fill="none" id="amartinm.mastermind.distributed.StartControllerProxy-amartinm.mastermind.models.Session" style="stroke: #A80036; stroke-width: 1.0;"/><polygon fill="#A80036" points="3401.1,772.43,3393.9291,765.6788,3396.3813,770.7765,3391.2836,773.2287,3401.1,772.43" style="stroke: #A80036; stroke-width: 1.0;"/><line style="stroke: #A80036; stroke-width: 1.0;" x1="3396.3813" x2="3388.825" y1="770.7765" y2="768.125"/><polygon fill="#A80036" points="3112.27,631.07,3113.4858,638.1779,3120.5145,639.7894,3119.2987,632.6815,3112.27,631.07" style="stroke: #A80036; stroke-width: 1.0;"/><!--link amartinm.mastermind.distributed.StartControllerProxy to amartinm.mastermind.distributed.dispatchers.FrameType--><path d="M3076.76,631.48 C3076.76,669.87 3076.76,725.33 3076.76,758.61 " fill="none" id="amartinm.mastermind.distributed.StartControllerProxy-amartinm.mastermind.distributed.dispatchers.FrameType" style="stroke: #A80036; stroke-width: 1.0; stroke-dasharray: 7.0,7.0;"/><polygon fill="#A80036" points="3076.76,763.75,3080.76,754.75,3076.76,758.75,3072.76,754.75,3076.76,763.75" style="stroke: #A80036; stroke-width: 1.0;"/><!--
@startuml

namespace amartinm.mastermind.distributed {
    amartinm.mastermind.controllers.implementation.LogicImplementation <|- - LogicImplementationServer
    class LogicImplementationServer {
        +createDispatchers(DispatcherPrototype): void
    }
    LogicImplementationServer ..> amartinm.mastermind.distributed.dispatchers.FrameType
    LogicImplementationServer ..> StartDispatcher
    LogicImplementationServer ..> StateDispatcher
    LogicImplementationServer ..> UndoDispatcher
    LogicImplementationServer ..> RedoDispatcher
    LogicImplementationServer ..> UndoableDispatcher
    LogicImplementationServer ..> RedoableDispatcher
    LogicImplementationServer ..> CombinationValidDispatcher
    LogicImplementationServer ..> AddProposalDispatcher
    LogicImplementationServer ..> GetAttemptsDispatcher
    LogicImplementationServer ..> GetProposalDispatcher
    LogicImplementationServer ..> GetResultDispatcher
    LogicImplementationServer ..> IsWinnerDispatcher
    LogicImplementationServer ..> IsLooserDispatcher
    LogicImplementationServer ..> ResumeDispatcher

    amartinm.mastermind.controllers.Logic <|- - LogicProxy
    class LogicProxy {
        -tcpip: TCPIP
        + LogicProxy()
        +close(): void
    }
    LogicProxy *- -> amartinm.mastermind.distributed.dispatchers.TCPIP
    LogicProxy ..> amartinm.mastermind.models.StateValue
    LogicProxy ..> StartControllerProxy
    LogicProxy ..> PlayControllerProxy
    LogicProxy ..> ResumeControllerProxy

    amartinm.mastermind.Mastermind <|- - MastermindClient
    class MastermindClient {
        - logicProxy: LogicProxy
        #createLogic(): Logic
        #play(): void
        {static} +main(String[]): void
    }
    MastermindClient *- -> LogicProxy

    class MastermindServer {
        - dispatcherPrototype: DispatcherPrototype
        - MastermindServer()
        - serve(): void
        {static} +main(String[]): void
    }
    MastermindServer *- -> amartinm.mastermind.distributed.dispatchers.DispatcherPrototype
    MastermindServer ..> LogicImplementationServer

    amartinm.mastermind.controllers.PlayController <|- - PlayControllerProxy
    class PlayControllerProxy {
        -tcpip: TCPIP
        +isCombinationValid(String): Error
        +addProposedCombination(ProposedCombination): void
        +getAttempts(): int
        +getProposedCombination(int): ProposedCombination
        +getResult(int): Result
        +isWinner(): boolean
        +isLooser(): boolean
        +undo(): void
        +undoable(): boolean
        +redo(): void
        +redoable(): boolean
    }
    PlayControllerProxy *- -> amartinm.mastermind.distributed.dispatchers.TCPIP
    PlayControllerProxy *- -> amartinm.mastermind.models.Session
    PlayControllerProxy .down.> amartinm.mastermind.distributed.dispatchers.FrameType
    PlayControllerProxy .down.> amartinm.mastermind.models.Error
    PlayControllerProxy .down.> amartinm.mastermind.models.ProposedCombination
    PlayControllerProxy .down.> amartinm.mastermind.models.Result

    amartinm.mastermind.controllers.ResumeController <|- - ResumeControllerProxy
    class ResumeControllerProxy {
        -tcpip: TCPIP
        +ResumeControllerProxy(Session, TCPIP)
        +resume(boolean): void
    }
    ResumeControllerProxy *- -> amartinm.mastermind.distributed.dispatchers.TCPIP
    ResumeControllerProxy *- -> amartinm.mastermind.models.Session
    ResumeControllerProxy .down.> amartinm.mastermind.distributed.dispatchers.FrameType

    amartinm.mastermind.models.Session <|.. SessionProxy
    class SessionProxy {
        -tcpip: TCPIP
        +SessionProxy(TCPIP)
        +getValueState(): StateValue
    }
    SessionProxy *- -> amartinm.utils.TCPIP
    SessionProxy ..> amartinm.mastermind.distributed.dispatchers.FrameType
    SessionProxy ..> amartinm.mastermind.models.StateValue

    amartinm.mastermind.controllers.StartController <|- - StartControllerProxy
    class StartControllerProxy {
        -tcpip: TCPIP
        +StartControllerProxy(Session, TCPIP)
        +start(): void
    }
    StartControllerProxy *- -> amartinm.utils.TCPIP
    StartControllerProxy *- -> amartinm.mastermind.models.Session
    StartControllerProxy ..> amartinm.mastermind.distributed.dispatchers.FrameType
}

@enduml

PlantUML version 1.2019.05(Sat Apr 20 18:45:36 CEST 2019)
(GPL source distribution)
Java Runtime: OpenJDK Runtime Environment
JVM: OpenJDK 64-Bit Server VM
Java Version: 1.8.0_265-8u265-b01-0ubuntu2~20.04-b01
Operating System: Linux
OS Version: 5.4.0-52-generic
Default Encoding: UTF-8
Language: es
Country: ES
--></g></svg>