<?xml version="1.0" encoding="UTF-8" standalone="no"?><svg xmlns="http://www.w3.org/2000/svg" xmlns:xlink="http://www.w3.org/1999/xlink" contentScriptType="application/ecmascript" contentStyleType="text/css" height="420px" preserveAspectRatio="none" style="width:1040px;height:420px;" version="1.1" viewBox="0 0 1040 420" width="1040px" zoomAndPan="magnify"><defs><filter height="300%" id="fm6kp643nlcck" width="300%" x="-1" y="-1"><feGaussianBlur result="blurOut" stdDeviation="2.0"/><feColorMatrix in="blurOut" result="blurOut2" type="matrix" values="0 0 0 0 0 0 0 0 0 0 0 0 0 0 0 0 0 0 .4 0"/><feOffset dx="4.0" dy="4.0" in="blurOut2" result="blurOut3"/><feBlend in="SourceGraphic" in2="blurOut3" mode="normal"/></filter></defs><g><!--cluster amartinm.mastermind.distributed.dispatchers.undoredo--><polygon fill="#FFFFFF" filter="url(#fm6kp643nlcck)" points="22,160,470,160,477,182.2969,1018,182.2969,1018,285,22,285,22,160" style="stroke: #000000; stroke-width: 1.5;"/><line style="stroke: #000000; stroke-width: 1.5;" x1="22" x2="477" y1="182.2969" y2="182.2969"/><text fill="#000000" font-family="sans-serif" font-size="14" font-weight="bold" lengthAdjust="spacingAndGlyphs" textLength="442" x="26" y="174.9951">amartinm.mastermind.distributed.dispatchers.undoredo</text><!--cluster amartinm.mastermind.controllers--><polygon fill="#FFFFFF" filter="url(#fm6kp643nlcck)" points="382,309,650,309,657,331.2969,660,331.2969,660,408,382,408,382,309" style="stroke: #000000; stroke-width: 1.5;"/><line style="stroke: #000000; stroke-width: 1.5;" x1="382" x2="657" y1="331.2969" y2="331.2969"/><text fill="#000000" font-family="sans-serif" font-size="14" font-weight="bold" lengthAdjust="spacingAndGlyphs" textLength="262" x="386" y="323.9951">amartinm.mastermind.controllers</text><!--cluster amartinm.mastermind.distributed.dispatchers--><polygon fill="#FFFFFF" filter="url(#fm6kp643nlcck)" points="333,24,699,24,706,46.2969,709,46.2969,709,136,333,136,333,24" style="stroke: #000000; stroke-width: 1.5;"/><line style="stroke: #000000; stroke-width: 1.5;" x1="333" x2="706" y1="46.2969" y2="46.2969"/><text fill="#000000" font-family="sans-serif" font-size="14" font-weight="bold" lengthAdjust="spacingAndGlyphs" textLength="360" x="337" y="38.9951">amartinm.mastermind.distributed.dispatchers</text><!--class amartinm.mastermind.distributed.dispatchers.undoredo.RedoableDispatcher--><a href="RedoableDispatcher.html" target="_top" xlink:actuate="onRequest" xlink:show="new" xlink:title="RedoableDispatcher.html" xlink:type="simple"><rect fill="#FEFECE" filter="url(#fm6kp643nlcck)" height="73.6094" id="amartinm.mastermind.distributed.dispatchers.undoredo.RedoableDispatcher" style="stroke: #A80036; stroke-width: 1.5;" width="226" x="776" y="195"/><ellipse cx="821.25" cy="211" fill="#ADD1B2" rx="11" ry="11" style="stroke: #A80036; stroke-width: 1.0;"/><path d="M824.2188,216.6406 Q823.6406,216.9375 823,217.0781 Q822.3594,217.2344 821.6563,217.2344 Q819.1563,217.2344 817.8281,215.5938 Q816.5156,213.9375 816.5156,210.8125 Q816.5156,207.6875 817.8281,206.0313 Q819.1563,204.375 821.6563,204.375 Q822.3594,204.375 823,204.5313 Q823.6563,204.6875 824.2188,204.9844 L824.2188,207.7031 Q823.5938,207.125 823,206.8594 Q822.4063,206.5781 821.7813,206.5781 Q820.4375,206.5781 819.75,207.6563 Q819.0625,208.7188 819.0625,210.8125 Q819.0625,212.9063 819.75,213.9844 Q820.4375,215.0469 821.7813,215.0469 Q822.4063,215.0469 823,214.7813 Q823.5938,214.5 824.2188,213.9219 L824.2188,216.6406 Z "/><text fill="#000000" font-family="sans-serif" font-size="12" lengthAdjust="spacingAndGlyphs" textLength="127" x="841.75" y="215.1543">RedoableDispatcher</text><line style="stroke: #A80036; stroke-width: 1.5;" x1="777" x2="1001" y1="227" y2="227"/><line style="stroke: #A80036; stroke-width: 1.5;" x1="777" x2="1001" y1="235" y2="235"/><ellipse cx="787" cy="246.9023" fill="#84BE84" rx="3" ry="3" style="stroke: #038048; stroke-width: 1.0;"/><text fill="#000000" font-family="sans-serif" font-size="11" lengthAdjust="spacingAndGlyphs" textLength="200" x="796" y="249.2104">RedoableDispatcher(PlayController)</text><ellipse cx="787" cy="259.707" fill="#84BE84" rx="3" ry="3" style="stroke: #038048; stroke-width: 1.0;"/><text fill="#000000" font-family="sans-serif" font-size="11" lengthAdjust="spacingAndGlyphs" textLength="87" x="796" y="262.0151">dispatch(): void</text></a><!--class amartinm.mastermind.distributed.dispatchers.undoredo.RedoDispatcher--><a href="RedoDispatcher.html" target="_top" xlink:actuate="onRequest" xlink:show="new" xlink:title="RedoDispatcher.html" xlink:type="simple"><rect fill="#FEFECE" filter="url(#fm6kp643nlcck)" height="73.6094" id="amartinm.mastermind.distributed.dispatchers.undoredo.RedoDispatcher" style="stroke: #A80036; stroke-width: 1.5;" width="202" x="539" y="195"/><ellipse cx="585.75" cy="211" fill="#ADD1B2" rx="11" ry="11" style="stroke: #A80036; stroke-width: 1.0;"/><path d="M588.7188,216.6406 Q588.1406,216.9375 587.5,217.0781 Q586.8594,217.2344 586.1563,217.2344 Q583.6563,217.2344 582.3281,215.5938 Q581.0156,213.9375 581.0156,210.8125 Q581.0156,207.6875 582.3281,206.0313 Q583.6563,204.375 586.1563,204.375 Q586.8594,204.375 587.5,204.5313 Q588.1563,204.6875 588.7188,204.9844 L588.7188,207.7031 Q588.0938,207.125 587.5,206.8594 Q586.9063,206.5781 586.2813,206.5781 Q584.9375,206.5781 584.25,207.6563 Q583.5625,208.7188 583.5625,210.8125 Q583.5625,212.9063 584.25,213.9844 Q584.9375,215.0469 586.2813,215.0469 Q586.9063,215.0469 587.5,214.7813 Q588.0938,214.5 588.7188,213.9219 L588.7188,216.6406 Z "/><text fill="#000000" font-family="sans-serif" font-size="12" lengthAdjust="spacingAndGlyphs" textLength="100" x="606.25" y="215.1543">RedoDispatcher</text><line style="stroke: #A80036; stroke-width: 1.5;" x1="540" x2="740" y1="227" y2="227"/><line style="stroke: #A80036; stroke-width: 1.5;" x1="540" x2="740" y1="235" y2="235"/><ellipse cx="550" cy="246.9023" fill="#84BE84" rx="3" ry="3" style="stroke: #038048; stroke-width: 1.0;"/><text fill="#000000" font-family="sans-serif" font-size="11" lengthAdjust="spacingAndGlyphs" textLength="176" x="559" y="249.2104">RedoDispatcher(PlayController)</text><ellipse cx="550" cy="259.707" fill="#84BE84" rx="3" ry="3" style="stroke: #038048; stroke-width: 1.0;"/><text fill="#000000" font-family="sans-serif" font-size="11" lengthAdjust="spacingAndGlyphs" textLength="87" x="559" y="262.0151">dispatch(): void</text></a><!--class amartinm.mastermind.distributed.dispatchers.undoredo.UndoDispatcher--><a href="UndoDispatcher.html" target="_top" xlink:actuate="onRequest" xlink:show="new" xlink:title="UndoDispatcher.html" xlink:type="simple"><rect fill="#FEFECE" filter="url(#fm6kp643nlcck)" height="73.6094" id="amartinm.mastermind.distributed.dispatchers.undoredo.UndoDispatcher" style="stroke: #A80036; stroke-width: 1.5;" width="203" x="300.5" y="195"/><ellipse cx="347.25" cy="211" fill="#ADD1B2" rx="11" ry="11" style="stroke: #A80036; stroke-width: 1.0;"/><path d="M350.2188,216.6406 Q349.6406,216.9375 349,217.0781 Q348.3594,217.2344 347.6563,217.2344 Q345.1563,217.2344 343.8281,215.5938 Q342.5156,213.9375 342.5156,210.8125 Q342.5156,207.6875 343.8281,206.0313 Q345.1563,204.375 347.6563,204.375 Q348.3594,204.375 349,204.5313 Q349.6563,204.6875 350.2188,204.9844 L350.2188,207.7031 Q349.5938,207.125 349,206.8594 Q348.4063,206.5781 347.7813,206.5781 Q346.4375,206.5781 345.75,207.6563 Q345.0625,208.7188 345.0625,210.8125 Q345.0625,212.9063 345.75,213.9844 Q346.4375,215.0469 347.7813,215.0469 Q348.4063,215.0469 349,214.7813 Q349.5938,214.5 350.2188,213.9219 L350.2188,216.6406 Z "/><text fill="#000000" font-family="sans-serif" font-size="12" lengthAdjust="spacingAndGlyphs" textLength="101" x="367.75" y="215.1543">UndoDispatcher</text><line style="stroke: #A80036; stroke-width: 1.5;" x1="301.5" x2="502.5" y1="227" y2="227"/><line style="stroke: #A80036; stroke-width: 1.5;" x1="301.5" x2="502.5" y1="235" y2="235"/><ellipse cx="311.5" cy="246.9023" fill="#84BE84" rx="3" ry="3" style="stroke: #038048; stroke-width: 1.0;"/><text fill="#000000" font-family="sans-serif" font-size="11" lengthAdjust="spacingAndGlyphs" textLength="177" x="320.5" y="249.2104">UndoDispatcher(PlayController)</text><ellipse cx="311.5" cy="259.707" fill="#84BE84" rx="3" ry="3" style="stroke: #038048; stroke-width: 1.0;"/><text fill="#000000" font-family="sans-serif" font-size="11" lengthAdjust="spacingAndGlyphs" textLength="87" x="320.5" y="262.0151">dispatch(): void</text></a><!--class amartinm.mastermind.distributed.dispatchers.undoredo.UndoableDispatcher--><a href="UndoableDispatcher.html" target="_top" xlink:actuate="onRequest" xlink:show="new" xlink:title="UndoableDispatcher.html" xlink:type="simple"><rect fill="#FEFECE" filter="url(#fm6kp643nlcck)" height="73.6094" id="amartinm.mastermind.distributed.dispatchers.undoredo.UndoableDispatcher" style="stroke: #A80036; stroke-width: 1.5;" width="227" x="38.5" y="195"/><ellipse cx="83.75" cy="211" fill="#ADD1B2" rx="11" ry="11" style="stroke: #A80036; stroke-width: 1.0;"/><path d="M86.7188,216.6406 Q86.1406,216.9375 85.5,217.0781 Q84.8594,217.2344 84.1563,217.2344 Q81.6563,217.2344 80.3281,215.5938 Q79.0156,213.9375 79.0156,210.8125 Q79.0156,207.6875 80.3281,206.0313 Q81.6563,204.375 84.1563,204.375 Q84.8594,204.375 85.5,204.5313 Q86.1563,204.6875 86.7188,204.9844 L86.7188,207.7031 Q86.0938,207.125 85.5,206.8594 Q84.9063,206.5781 84.2813,206.5781 Q82.9375,206.5781 82.25,207.6563 Q81.5625,208.7188 81.5625,210.8125 Q81.5625,212.9063 82.25,213.9844 Q82.9375,215.0469 84.2813,215.0469 Q84.9063,215.0469 85.5,214.7813 Q86.0938,214.5 86.7188,213.9219 L86.7188,216.6406 Z "/><text fill="#000000" font-family="sans-serif" font-size="12" lengthAdjust="spacingAndGlyphs" textLength="128" x="104.25" y="215.1543">UndoableDispatcher</text><line style="stroke: #A80036; stroke-width: 1.5;" x1="39.5" x2="264.5" y1="227" y2="227"/><line style="stroke: #A80036; stroke-width: 1.5;" x1="39.5" x2="264.5" y1="235" y2="235"/><ellipse cx="49.5" cy="246.9023" fill="#84BE84" rx="3" ry="3" style="stroke: #038048; stroke-width: 1.0;"/><text fill="#000000" font-family="sans-serif" font-size="11" lengthAdjust="spacingAndGlyphs" textLength="201" x="58.5" y="249.2104">UndoableDispatcher(PlayController)</text><ellipse cx="49.5" cy="259.707" fill="#84BE84" rx="3" ry="3" style="stroke: #038048; stroke-width: 1.0;"/><text fill="#000000" font-family="sans-serif" font-size="11" lengthAdjust="spacingAndGlyphs" textLength="87" x="58.5" y="262.0151">dispatch(): void</text></a><!--class amartinm.mastermind.controllers.PlayController--><rect fill="#FEFECE" filter="url(#fm6kp643nlcck)" height="48" id="amartinm.mastermind.controllers.PlayController" style="stroke: #A80036; stroke-width: 1.5;" width="118" x="462" y="344"/><ellipse cx="477" cy="360" fill="#ADD1B2" rx="11" ry="11" style="stroke: #A80036; stroke-width: 1.0;"/><path d="M479.9688,365.6406 Q479.3906,365.9375 478.75,366.0781 Q478.1094,366.2344 477.4063,366.2344 Q474.9063,366.2344 473.5781,364.5938 Q472.2656,362.9375 472.2656,359.8125 Q472.2656,356.6875 473.5781,355.0313 Q474.9063,353.375 477.4063,353.375 Q478.1094,353.375 478.75,353.5313 Q479.4063,353.6875 479.9688,353.9844 L479.9688,356.7031 Q479.3438,356.125 478.75,355.8594 Q478.1563,355.5781 477.5313,355.5781 Q476.1875,355.5781 475.5,356.6563 Q474.8125,357.7188 474.8125,359.8125 Q474.8125,361.9063 475.5,362.9844 Q476.1875,364.0469 477.5313,364.0469 Q478.1563,364.0469 478.75,363.7813 Q479.3438,363.5 479.9688,362.9219 L479.9688,365.6406 Z "/><text fill="#000000" font-family="sans-serif" font-size="12" lengthAdjust="spacingAndGlyphs" textLength="86" x="491" y="364.1543">PlayController</text><line style="stroke: #A80036; stroke-width: 1.5;" x1="463" x2="579" y1="376" y2="376"/><line style="stroke: #A80036; stroke-width: 1.5;" x1="463" x2="579" y1="384" y2="384"/><!--class amartinm.mastermind.distributed.dispatchers.Dispatcher--><rect fill="#FEFECE" filter="url(#fm6kp643nlcck)" height="60.8047" id="amartinm.mastermind.distributed.dispatchers.Dispatcher" style="stroke: #A80036; stroke-width: 1.5;" width="113" x="464.5" y="59"/><ellipse cx="485.8" cy="75" fill="#A9DCDF" rx="11" ry="11" style="stroke: #A80036; stroke-width: 1.0;"/><path d="M485.9094,70.3438 L484.7531,75.4219 L487.0813,75.4219 L485.9094,70.3438 Z M484.425,68.1094 L487.4094,68.1094 L490.7688,80.5 L488.3156,80.5 L487.55,77.4375 L484.2688,77.4375 L483.5188,80.5 L481.0813,80.5 L484.425,68.1094 Z "/><text fill="#000000" font-family="sans-serif" font-size="12" font-style="italic" lengthAdjust="spacingAndGlyphs" textLength="67" x="501.2" y="79.1543">Dispatcher</text><line style="stroke: #A80036; stroke-width: 1.5;" x1="465.5" x2="576.5" y1="91" y2="91"/><line style="stroke: #A80036; stroke-width: 1.5;" x1="465.5" x2="576.5" y1="99" y2="99"/><ellipse cx="475.5" cy="110.9023" fill="#84BE84" rx="3" ry="3" style="stroke: #038048; stroke-width: 1.0;"/><text fill="#000000" font-family="sans-serif" font-size="11" font-style="italic" lengthAdjust="spacingAndGlyphs" textLength="87" x="484.5" y="113.2104">dispatch(): void</text><!--link amartinm.mastermind.distributed.dispatchers.undoredo.RedoableDispatcher to amartinm.mastermind.controllers.PlayController--><path d="M815.13,269.12 C796.97,277.44 777.45,285.91 759,293 C701.21,315.21 633.67,335.71 585.33,349.47 " fill="none" id="amartinm.mastermind.distributed.dispatchers.undoredo.RedoableDispatcher-amartinm.mastermind.controllers.PlayController" style="stroke: #A80036; stroke-width: 1.0; stroke-dasharray: 7.0,7.0;"/><polygon fill="#A80036" points="580.42,350.87,590.1715,352.2513,585.2287,349.5002,587.9798,344.5573,580.42,350.87" style="stroke: #A80036; stroke-width: 1.0;"/><!--link amartinm.mastermind.distributed.dispatchers.undoredo.RedoDispatcher to amartinm.mastermind.controllers.PlayController--><path d="M607.8,269.26 C588.05,291.5 563.18,319.5 545.13,339.83 " fill="none" id="amartinm.mastermind.distributed.dispatchers.undoredo.RedoDispatcher-amartinm.mastermind.controllers.PlayController" style="stroke: #A80036; stroke-width: 1.0; stroke-dasharray: 7.0,7.0;"/><polygon fill="#A80036" points="541.62,343.78,550.5899,339.7129,544.9427,340.0437,544.6119,334.3966,541.62,343.78" style="stroke: #A80036; stroke-width: 1.0;"/><!--link amartinm.mastermind.distributed.dispatchers.undoredo.UndoDispatcher to amartinm.mastermind.controllers.PlayController--><path d="M434.2,269.26 C453.95,291.5 478.82,319.5 496.87,339.83 " fill="none" id="amartinm.mastermind.distributed.dispatchers.undoredo.UndoDispatcher-amartinm.mastermind.controllers.PlayController" style="stroke: #A80036; stroke-width: 1.0; stroke-dasharray: 7.0,7.0;"/><polygon fill="#A80036" points="500.38,343.78,497.3881,334.3966,497.0573,340.0437,491.4101,339.7129,500.38,343.78" style="stroke: #A80036; stroke-width: 1.0;"/><!--link amartinm.mastermind.distributed.dispatchers.undoredo.UndoableDispatcher to amartinm.mastermind.controllers.PlayController--><path d="M226.46,269.1 C244.76,277.41 264.43,285.89 283,293 C340.83,315.13 408.36,335.64 456.69,349.43 " fill="none" id="amartinm.mastermind.distributed.dispatchers.undoredo.UndoableDispatcher-amartinm.mastermind.controllers.PlayController" style="stroke: #A80036; stroke-width: 1.0; stroke-dasharray: 7.0,7.0;"/><polygon fill="#A80036" points="461.6,350.82,454.0402,344.5073,456.7913,349.4502,451.8485,352.2013,461.6,350.82" style="stroke: #A80036; stroke-width: 1.0;"/><!--link amartinm.mastermind.distributed.dispatchers.Dispatcher to amartinm.mastermind.distributed.dispatchers.undoredo.RedoableDispatcher--><path d="M597.61,104.33 C645.2,114.36 707,130.05 759,152 C786.13,163.45 814.29,179.92 837.43,194.85 " fill="none" id="amartinm.mastermind.distributed.dispatchers.Dispatcher-amartinm.mastermind.distributed.dispatchers.undoredo.RedoableDispatcher" style="stroke: #A80036; stroke-width: 1.0;"/><polygon fill="none" points="596.03,111.15,577.82,100.31,598.81,97.43,596.03,111.15" style="stroke: #A80036; stroke-width: 1.0;"/><!--link amartinm.mastermind.distributed.dispatchers.Dispatcher to amartinm.mastermind.distributed.dispatchers.undoredo.RedoDispatcher--><path d="M559.4,135.83 C575.55,154.9 594.08,176.79 609.31,194.76 " fill="none" id="amartinm.mastermind.distributed.dispatchers.Dispatcher-amartinm.mastermind.distributed.dispatchers.undoredo.RedoDispatcher" style="stroke: #A80036; stroke-width: 1.0;"/><polygon fill="none" points="553.82,140.08,546.24,120.3,564.5,131.03,553.82,140.08" style="stroke: #A80036; stroke-width: 1.0;"/><!--link amartinm.mastermind.distributed.dispatchers.Dispatcher to amartinm.mastermind.distributed.dispatchers.undoredo.UndoDispatcher--><path d="M482.6,135.83 C466.45,154.9 447.92,176.79 432.69,194.76 " fill="none" id="amartinm.mastermind.distributed.dispatchers.Dispatcher-amartinm.mastermind.distributed.dispatchers.undoredo.UndoDispatcher" style="stroke: #A80036; stroke-width: 1.0;"/><polygon fill="none" points="477.5,131.03,495.76,120.3,488.18,140.08,477.5,131.03" style="stroke: #A80036; stroke-width: 1.0;"/><!--link amartinm.mastermind.distributed.dispatchers.Dispatcher to amartinm.mastermind.distributed.dispatchers.undoredo.UndoableDispatcher--><path d="M444.42,104.39 C396.84,114.45 335.04,130.13 283,152 C255.7,163.47 227.33,179.94 204,194.87 " fill="none" id="amartinm.mastermind.distributed.dispatchers.Dispatcher-amartinm.mastermind.distributed.dispatchers.undoredo.UndoableDispatcher" style="stroke: #A80036; stroke-width: 1.0;"/><polygon fill="none" points="443.21,97.49,464.2,100.36,446,111.21,443.21,97.49" style="stroke: #A80036; stroke-width: 1.0;"/><!--
@startuml

namespace amartinm.mastermind.distributed.dispatchers.undoredo {

    class RedoableDispatcher [[RedoableDispatcher.html]] {
        +RedoableDispatcher(PlayController)
        +dispatch(): void
    }
    RedoableDispatcher .down.> amartinm.mastermind.controllers.PlayController

    class RedoDispatcher [[RedoDispatcher.html]] {
        +RedoDispatcher(PlayController)
        +dispatch(): void
    }
    RedoDispatcher .down.> amartinm.mastermind.controllers.PlayController

    class UndoDispatcher [[UndoDispatcher.html]] {
        +UndoDispatcher(PlayController)
        +dispatch(): void
    }
    UndoDispatcher .down.> amartinm.mastermind.controllers.PlayController

    class UndoableDispatcher [[UndoableDispatcher.html]] {
        +UndoableDispatcher(PlayController)
        +dispatch(): void
    }
    UndoableDispatcher .down.> amartinm.mastermind.controllers.PlayController

    abstract class amartinm.mastermind.distributed.dispatchers.Dispatcher {
        {abstract} +dispatch(): void
    }
    amartinm.mastermind.distributed.dispatchers.Dispatcher <|- - RedoableDispatcher
    amartinm.mastermind.distributed.dispatchers.Dispatcher <|- - RedoDispatcher
    amartinm.mastermind.distributed.dispatchers.Dispatcher <|- - UndoDispatcher
    amartinm.mastermind.distributed.dispatchers.Dispatcher <|- - UndoableDispatcher

}
@enduml

PlantUML version 1.2019.05(Sat Apr 20 18:45:36 CEST 2019)
(GPL source distribution)
Java Runtime: OpenJDK Runtime Environment
JVM: OpenJDK 64-Bit Server VM
Java Version: 1.8.0_265-8u265-b01-0ubuntu2~20.04-b01
Operating System: Linux
OS Version: 5.4.0-52-generic
Default Encoding: UTF-8
Language: es
Country: ES
--></g></svg>