<?xml version="1.0" encoding="UTF-8" standalone="no"?><svg xmlns="http://www.w3.org/2000/svg" xmlns:xlink="http://www.w3.org/1999/xlink" contentScriptType="application/ecmascript" contentStyleType="text/css" height="575px" preserveAspectRatio="none" style="width:987px;height:575px;" version="1.1" viewBox="0 0 987 575" width="987px" zoomAndPan="magnify"><defs><filter height="300%" id="f6ndeldrqghdh" width="300%" x="-1" y="-1"><feGaussianBlur result="blurOut" stdDeviation="2.0"/><feColorMatrix in="blurOut" result="blurOut2" type="matrix" values="0 0 0 0 0 0 0 0 0 0 0 0 0 0 0 0 0 0 .4 0"/><feOffset dx="4.0" dy="4.0" in="blurOut2" result="blurOut3"/><feBlend in="SourceGraphic" in2="blurOut3" mode="normal"/></filter></defs><g><!--cluster utils--><polygon fill="#FFFFFF" filter="url(#f6ndeldrqghdh)" points="22,24,61,24,68,46.2969,965,46.2969,965,563,22,563,22,24" style="stroke: #000000; stroke-width: 1.5;"/><line style="stroke: #000000; stroke-width: 1.5;" x1="22" x2="68" y1="46.2969" y2="46.2969"/><text fill="#000000" font-family="sans-serif" font-size="14" font-weight="bold" lengthAdjust="spacingAndGlyphs" textLength="33" x="26" y="38.9951">utils</text><!--class utils.Console--><rect fill="#FEFECE" filter="url(#f6ndeldrqghdh)" height="214.4609" id="utils.Console" style="stroke: #A80036; stroke-width: 1.5;" width="239" x="710.5" y="333"/><ellipse cx="800.75" cy="349" fill="#ADD1B2" rx="11" ry="11" style="stroke: #A80036; stroke-width: 1.0;"/><path d="M803.7188,354.6406 Q803.1406,354.9375 802.5,355.0781 Q801.8594,355.2344 801.1563,355.2344 Q798.6563,355.2344 797.3281,353.5938 Q796.0156,351.9375 796.0156,348.8125 Q796.0156,345.6875 797.3281,344.0313 Q798.6563,342.375 801.1563,342.375 Q801.8594,342.375 802.5,342.5313 Q803.1563,342.6875 803.7188,342.9844 L803.7188,345.7031 Q803.0938,345.125 802.5,344.8594 Q801.9063,344.5781 801.2813,344.5781 Q799.9375,344.5781 799.25,345.6563 Q798.5625,346.7188 798.5625,348.8125 Q798.5625,350.9063 799.25,351.9844 Q799.9375,353.0469 801.2813,353.0469 Q801.9063,353.0469 802.5,352.7813 Q803.0938,352.5 803.7188,351.9219 L803.7188,354.6406 Z "/><text fill="#000000" font-family="sans-serif" font-size="12" lengthAdjust="spacingAndGlyphs" textLength="50" x="821.25" y="353.1543">Console</text><line style="stroke: #A80036; stroke-width: 1.5;" x1="711.5" x2="948.5" y1="365" y2="365"/><ellipse cx="721.5" cy="376.9023" fill="none" rx="3" ry="3" style="stroke: #038048; stroke-width: 1.0;"/><text fill="#000000" font-family="sans-serif" font-size="11" lengthAdjust="spacingAndGlyphs" text-decoration="underline" textLength="98" x="730.5" y="379.2104">console: Console</text><text fill="#000000" font-family="sans-serif" font-size="11" lengthAdjust="spacingAndGlyphs" textLength="0" x="734.5" y="392.0151"/><rect fill="none" height="6" style="stroke: #C82930; stroke-width: 1.0;" width="6" x="718.5" y="399.5117"/><text fill="#000000" font-family="sans-serif" font-size="11" lengthAdjust="spacingAndGlyphs" textLength="213" x="730.5" y="404.8198">final bufferedReader: BufferedReader</text><line style="stroke: #A80036; stroke-width: 1.5;" x1="711.5" x2="948.5" y1="411.4141" y2="411.4141"/><ellipse cx="721.5" cy="423.3164" fill="#84BE84" rx="3" ry="3" style="stroke: #038048; stroke-width: 1.0;"/><text fill="#000000" font-family="sans-serif" font-size="11" lengthAdjust="spacingAndGlyphs" text-decoration="underline" textLength="110" x="730.5" y="425.6245">instance(): Console</text><ellipse cx="721.5" cy="436.1211" fill="#84BE84" rx="3" ry="3" style="stroke: #038048; stroke-width: 1.0;"/><text fill="#000000" font-family="sans-serif" font-size="11" lengthAdjust="spacingAndGlyphs" textLength="169" x="730.5" y="438.4292">readString(String title): String</text><ellipse cx="721.5" cy="448.9258" fill="#84BE84" rx="3" ry="3" style="stroke: #038048; stroke-width: 1.0;"/><text fill="#000000" font-family="sans-serif" font-size="11" lengthAdjust="spacingAndGlyphs" textLength="110" x="730.5" y="451.2339">readString(): String</text><ellipse cx="721.5" cy="461.7305" fill="#84BE84" rx="3" ry="3" style="stroke: #038048; stroke-width: 1.0;"/><text fill="#000000" font-family="sans-serif" font-size="11" lengthAdjust="spacingAndGlyphs" textLength="129" x="730.5" y="464.0386">readInt(String title): int</text><ellipse cx="721.5" cy="474.5352" fill="#84BE84" rx="3" ry="3" style="stroke: #038048; stroke-width: 1.0;"/><text fill="#000000" font-family="sans-serif" font-size="11" lengthAdjust="spacingAndGlyphs" textLength="153" x="730.5" y="476.8433">readChar(String title): char</text><ellipse cx="721.5" cy="487.3398" fill="#84BE84" rx="3" ry="3" style="stroke: #038048; stroke-width: 1.0;"/><text fill="#000000" font-family="sans-serif" font-size="11" lengthAdjust="spacingAndGlyphs" textLength="77" x="730.5" y="489.6479">writeln(): void</text><ellipse cx="721.5" cy="500.1445" fill="#84BE84" rx="3" ry="3" style="stroke: #038048; stroke-width: 1.0;"/><text fill="#000000" font-family="sans-serif" font-size="11" lengthAdjust="spacingAndGlyphs" textLength="138" x="730.5" y="502.4526">write(String string): void</text><ellipse cx="721.5" cy="512.9492" fill="#84BE84" rx="3" ry="3" style="stroke: #038048; stroke-width: 1.0;"/><text fill="#000000" font-family="sans-serif" font-size="11" lengthAdjust="spacingAndGlyphs" textLength="148" x="730.5" y="515.2573">writeln(String string): void</text><ellipse cx="721.5" cy="525.7539" fill="#84BE84" rx="3" ry="3" style="stroke: #038048; stroke-width: 1.0;"/><text fill="#000000" font-family="sans-serif" font-size="11" lengthAdjust="spacingAndGlyphs" textLength="150" x="730.5" y="528.062">write(char character): void</text><rect fill="#F24D5C" height="6" style="stroke: #C82930; stroke-width: 1.0;" width="6" x="718.5" y="535.5586"/><text fill="#000000" font-family="sans-serif" font-size="11" lengthAdjust="spacingAndGlyphs" textLength="172" x="730.5" y="540.8667">writeError(String format): void</text><!--class utils.YesNoDialog--><rect fill="#FEFECE" filter="url(#f6ndeldrqghdh)" height="150.4375" id="utils.YesNoDialog" style="stroke: #A80036; stroke-width: 1.5;" width="179" x="769.5" y="91"/><ellipse cx="815.75" cy="107" fill="#ADD1B2" rx="11" ry="11" style="stroke: #A80036; stroke-width: 1.0;"/><path d="M818.7188,112.6406 Q818.1406,112.9375 817.5,113.0781 Q816.8594,113.2344 816.1563,113.2344 Q813.6563,113.2344 812.3281,111.5938 Q811.0156,109.9375 811.0156,106.8125 Q811.0156,103.6875 812.3281,102.0313 Q813.6563,100.375 816.1563,100.375 Q816.8594,100.375 817.5,100.5313 Q818.1563,100.6875 818.7188,100.9844 L818.7188,103.7031 Q818.0938,103.125 817.5,102.8594 Q816.9063,102.5781 816.2813,102.5781 Q814.9375,102.5781 814.25,103.6563 Q813.5625,104.7188 813.5625,106.8125 Q813.5625,108.9063 814.25,109.9844 Q814.9375,111.0469 816.2813,111.0469 Q816.9063,111.0469 817.5,110.7813 Q818.0938,110.5 818.7188,109.9219 L818.7188,112.6406 Z "/><text fill="#000000" font-family="sans-serif" font-size="12" lengthAdjust="spacingAndGlyphs" textLength="78" x="836.25" y="111.1543">YesNoDialog</text><line style="stroke: #A80036; stroke-width: 1.5;" x1="770.5" x2="947.5" y1="123" y2="123"/><rect fill="none" height="6" style="stroke: #C82930; stroke-width: 1.0;" width="6" x="777.5" y="131.9023"/><text fill="#000000" font-family="sans-serif" font-size="11" lengthAdjust="spacingAndGlyphs" text-decoration="underline" textLength="96" x="789.5" y="137.2104">AFIRMATIVE: char</text><rect fill="none" height="6" style="stroke: #C82930; stroke-width: 1.0;" width="6" x="777.5" y="144.707"/><text fill="#000000" font-family="sans-serif" font-size="11" lengthAdjust="spacingAndGlyphs" text-decoration="underline" textLength="88" x="789.5" y="150.0151">NEGATIVE: char</text><rect fill="none" height="6" style="stroke: #C82930; stroke-width: 1.0;" width="6" x="777.5" y="157.5117"/><text fill="#000000" font-family="sans-serif" font-size="11" lengthAdjust="spacingAndGlyphs" text-decoration="underline" textLength="101" x="789.5" y="162.8198">QUESTION: String</text><rect fill="none" height="6" style="stroke: #C82930; stroke-width: 1.0;" width="6" x="777.5" y="170.3164"/><text fill="#000000" font-family="sans-serif" font-size="11" lengthAdjust="spacingAndGlyphs" text-decoration="underline" textLength="97" x="789.5" y="175.6245">MESSAGE: String</text><line style="stroke: #A80036; stroke-width: 1.5;" x1="770.5" x2="947.5" y1="182.2188" y2="182.2188"/><ellipse cx="780.5" cy="194.1211" fill="#84BE84" rx="3" ry="3" style="stroke: #038048; stroke-width: 1.0;"/><text fill="#000000" font-family="sans-serif" font-size="11" lengthAdjust="spacingAndGlyphs" textLength="121" x="789.5" y="196.4292">read(String): boolean</text><ellipse cx="780.5" cy="206.9258" fill="#84BE84" rx="3" ry="3" style="stroke: #038048; stroke-width: 1.0;"/><text fill="#000000" font-family="sans-serif" font-size="11" lengthAdjust="spacingAndGlyphs" textLength="87" x="789.5" y="209.2339">read(): boolean</text><rect fill="#F24D5C" height="6" style="stroke: #C82930; stroke-width: 1.0;" width="6" x="777.5" y="216.7305"/><text fill="#000000" font-family="sans-serif" font-size="11" lengthAdjust="spacingAndGlyphs" text-decoration="underline" textLength="153" x="789.5" y="222.0386">isAfirmative(char): boolean</text><rect fill="#F24D5C" height="6" style="stroke: #C82930; stroke-width: 1.0;" width="6" x="777.5" y="229.5352"/><text fill="#000000" font-family="sans-serif" font-size="11" lengthAdjust="spacingAndGlyphs" text-decoration="underline" textLength="145" x="789.5" y="234.8433">isNegative(char): boolean</text><!--class utils.Menu--><rect fill="#FEFECE" filter="url(#f6ndeldrqghdh)" height="112.0234" id="utils.Menu" style="stroke: #A80036; stroke-width: 1.5;" width="234" x="500" y="110"/><ellipse cx="595.75" cy="126" fill="#A9DCDF" rx="11" ry="11" style="stroke: #A80036; stroke-width: 1.0;"/><path d="M595.8594,121.3438 L594.7031,126.4219 L597.0313,126.4219 L595.8594,121.3438 Z M594.375,119.1094 L597.3594,119.1094 L600.7188,131.5 L598.2656,131.5 L597.5,128.4375 L594.2188,128.4375 L593.4688,131.5 L591.0313,131.5 L594.375,119.1094 Z "/><text fill="#000000" font-family="sans-serif" font-size="12" font-style="italic" lengthAdjust="spacingAndGlyphs" textLength="34" x="616.25" y="130.1543">Menu</text><line style="stroke: #A80036; stroke-width: 1.5;" x1="501" x2="733" y1="142" y2="142"/><rect fill="none" height="6" style="stroke: #C82930; stroke-width: 1.0;" width="6" x="508" y="150.9023"/><text fill="#000000" font-family="sans-serif" font-size="11" lengthAdjust="spacingAndGlyphs" text-decoration="underline" textLength="113" x="520" y="156.2104">final OPTION: String</text><rect fill="none" height="6" style="stroke: #C82930; stroke-width: 1.0;" width="6" x="508" y="163.707"/><text fill="#000000" font-family="sans-serif" font-size="11" lengthAdjust="spacingAndGlyphs" textLength="208" x="520" y="169.0151">final commandList: List&lt;Command&gt;</text><line style="stroke: #A80036; stroke-width: 1.5;" x1="501" x2="733" y1="175.6094" y2="175.6094"/><ellipse cx="511" cy="187.5117" fill="#84BE84" rx="3" ry="3" style="stroke: #038048; stroke-width: 1.0;"/><text fill="#000000" font-family="sans-serif" font-size="11" lengthAdjust="spacingAndGlyphs" textLength="38" x="520" y="189.8198">Menu()</text><ellipse cx="511" cy="200.3164" fill="#84BE84" rx="3" ry="3" style="stroke: #038048; stroke-width: 1.0;"/><text fill="#000000" font-family="sans-serif" font-size="11" lengthAdjust="spacingAndGlyphs" textLength="83" x="520" y="202.6245">execute(): void</text><polygon fill="#FFFF44" points="511,208.1211,515,212.1211,511,216.1211,507,212.1211" style="stroke: #B38D22; stroke-width: 1.0;"/><text fill="#000000" font-family="sans-serif" font-size="11" lengthAdjust="spacingAndGlyphs" textLength="178" x="520" y="215.4292">add(Command command): void</text><!--class utils.Command--><rect fill="#FEFECE" filter="url(#f6ndeldrqghdh)" height="112.0234" id="utils.Command" style="stroke: #A80036; stroke-width: 1.5;" width="151" x="524.5" y="384"/><ellipse cx="565.15" cy="400" fill="#A9DCDF" rx="11" ry="11" style="stroke: #A80036; stroke-width: 1.0;"/><path d="M565.2594,395.3438 L564.1031,400.4219 L566.4313,400.4219 L565.2594,395.3438 Z M563.775,393.1094 L566.7594,393.1094 L570.1188,405.5 L567.6656,405.5 L566.9,402.4375 L563.6188,402.4375 L562.8688,405.5 L560.4313,405.5 L563.775,393.1094 Z "/><text fill="#000000" font-family="sans-serif" font-size="12" font-style="italic" lengthAdjust="spacingAndGlyphs" textLength="62" x="584.85" y="404.1543">Command</text><line style="stroke: #A80036; stroke-width: 1.5;" x1="525.5" x2="674.5" y1="416" y2="416"/><polygon fill="none" points="535.5,422.9023,539.5,426.9023,535.5,430.9023,531.5,426.9023" style="stroke: #B38D22; stroke-width: 1.0;"/><text fill="#000000" font-family="sans-serif" font-size="11" lengthAdjust="spacingAndGlyphs" textLength="91" x="544.5" y="430.2104">final title: String</text><line style="stroke: #A80036; stroke-width: 1.5;" x1="525.5" x2="674.5" y1="436.8047" y2="436.8047"/><polygon fill="#FFFF44" points="535.5,443.707,539.5,447.707,535.5,451.707,531.5,447.707" style="stroke: #B38D22; stroke-width: 1.0;"/><text fill="#000000" font-family="sans-serif" font-size="11" lengthAdjust="spacingAndGlyphs" textLength="125" x="544.5" y="451.0151">Command(String title)</text><polygon fill="#FFFF44" points="535.5,456.5117,539.5,460.5117,535.5,464.5117,531.5,460.5117" style="stroke: #B38D22; stroke-width: 1.0;"/><text fill="#000000" font-family="sans-serif" font-size="11" font-style="italic" lengthAdjust="spacingAndGlyphs" textLength="85" x="544.5" y="463.8198">execute(): void</text><polygon fill="#FFFF44" points="535.5,469.3164,539.5,473.3164,535.5,477.3164,531.5,473.3164" style="stroke: #B38D22; stroke-width: 1.0;"/><text fill="#000000" font-family="sans-serif" font-size="11" font-style="italic" lengthAdjust="spacingAndGlyphs" textLength="105" x="544.5" y="476.6245">isActive(): boolean</text><text fill="#000000" font-family="sans-serif" font-size="11" lengthAdjust="spacingAndGlyphs" textLength="88" x="544.5" y="489.4292">getTitle():String</text><!--class utils.ClosedInterval--><rect fill="#FEFECE" filter="url(#f6ndeldrqghdh)" height="112.0234" id="utils.ClosedInterval" style="stroke: #A80036; stroke-width: 1.5;" width="204" x="261" y="110"/><ellipse cx="314.75" cy="126" fill="#ADD1B2" rx="11" ry="11" style="stroke: #A80036; stroke-width: 1.0;"/><path d="M317.7188,131.6406 Q317.1406,131.9375 316.5,132.0781 Q315.8594,132.2344 315.1563,132.2344 Q312.6563,132.2344 311.3281,130.5938 Q310.0156,128.9375 310.0156,125.8125 Q310.0156,122.6875 311.3281,121.0313 Q312.6563,119.375 315.1563,119.375 Q315.8594,119.375 316.5,119.5313 Q317.1563,119.6875 317.7188,119.9844 L317.7188,122.7031 Q317.0938,122.125 316.5,121.8594 Q315.9063,121.5781 315.2813,121.5781 Q313.9375,121.5781 313.25,122.6563 Q312.5625,123.7188 312.5625,125.8125 Q312.5625,127.9063 313.25,128.9844 Q313.9375,130.0469 315.2813,130.0469 Q315.9063,130.0469 316.5,129.7813 Q317.0938,129.5 317.7188,128.9219 L317.7188,131.6406 Z "/><text fill="#000000" font-family="sans-serif" font-size="12" lengthAdjust="spacingAndGlyphs" textLength="88" x="335.25" y="130.1543">ClosedInterval</text><line style="stroke: #A80036; stroke-width: 1.5;" x1="262" x2="464" y1="142" y2="142"/><rect fill="none" height="6" style="stroke: #C82930; stroke-width: 1.0;" width="6" x="269" y="150.9023"/><text fill="#000000" font-family="sans-serif" font-size="11" lengthAdjust="spacingAndGlyphs" textLength="71" x="281" y="156.2104">final min: int</text><rect fill="none" height="6" style="stroke: #C82930; stroke-width: 1.0;" width="6" x="269" y="163.707"/><text fill="#000000" font-family="sans-serif" font-size="11" lengthAdjust="spacingAndGlyphs" textLength="74" x="281" y="169.0151">final max: int</text><line style="stroke: #A80036; stroke-width: 1.5;" x1="262" x2="464" y1="175.6094" y2="175.6094"/><ellipse cx="272" cy="187.5117" fill="#84BE84" rx="3" ry="3" style="stroke: #038048; stroke-width: 1.0;"/><text fill="#000000" font-family="sans-serif" font-size="11" lengthAdjust="spacingAndGlyphs" textLength="178" x="281" y="189.8198">ClosedInterval(int min, int max)</text><ellipse cx="272" cy="200.3164" fill="#84BE84" rx="3" ry="3" style="stroke: #038048; stroke-width: 1.0;"/><text fill="#000000" font-family="sans-serif" font-size="11" lengthAdjust="spacingAndGlyphs" textLength="166" x="281" y="202.6245">isIncluded(int value): boolean</text><ellipse cx="272" cy="213.1211" fill="#84BE84" rx="3" ry="3" style="stroke: #038048; stroke-width: 1.0;"/><text fill="#000000" font-family="sans-serif" font-size="11" lengthAdjust="spacingAndGlyphs" textLength="95" x="281" y="215.4292">toString(): String</text><!--class utils.TCPIP--><rect fill="#FEFECE" filter="url(#f6ndeldrqghdh)" height="214.4609" id="utils.TCPIP" style="stroke: #A80036; stroke-width: 1.5;" width="188" x="38" y="59"/><ellipse cx="110.75" cy="75" fill="#ADD1B2" rx="11" ry="11" style="stroke: #A80036; stroke-width: 1.0;"/><path d="M113.7188,80.6406 Q113.1406,80.9375 112.5,81.0781 Q111.8594,81.2344 111.1563,81.2344 Q108.6563,81.2344 107.3281,79.5938 Q106.0156,77.9375 106.0156,74.8125 Q106.0156,71.6875 107.3281,70.0313 Q108.6563,68.375 111.1563,68.375 Q111.8594,68.375 112.5,68.5313 Q113.1563,68.6875 113.7188,68.9844 L113.7188,71.7031 Q113.0938,71.125 112.5,70.8594 Q111.9063,70.5781 111.2813,70.5781 Q109.9375,70.5781 109.25,71.6563 Q108.5625,72.7188 108.5625,74.8125 Q108.5625,76.9063 109.25,77.9844 Q109.9375,79.0469 111.2813,79.0469 Q111.9063,79.0469 112.5,78.7813 Q113.0938,78.5 113.7188,77.9219 L113.7188,80.6406 Z "/><text fill="#000000" font-family="sans-serif" font-size="12" lengthAdjust="spacingAndGlyphs" textLength="34" x="131.25" y="79.1543">TCPIP</text><line style="stroke: #A80036; stroke-width: 1.5;" x1="39" x2="225" y1="91" y2="91"/><rect fill="none" height="6" style="stroke: #C82930; stroke-width: 1.0;" width="6" x="46" y="99.9023"/><text fill="#000000" font-family="sans-serif" font-size="11" lengthAdjust="spacingAndGlyphs" textLength="83" x="58" y="105.2104">socket: Socket</text><rect fill="none" height="6" style="stroke: #C82930; stroke-width: 1.0;" width="6" x="46" y="112.707"/><text fill="#000000" font-family="sans-serif" font-size="11" lengthAdjust="spacingAndGlyphs" textLength="159" x="58" y="118.0151">serverSocket: ServerSocket</text><rect fill="none" height="6" style="stroke: #C82930; stroke-width: 1.0;" width="6" x="46" y="125.5117"/><text fill="#000000" font-family="sans-serif" font-size="11" lengthAdjust="spacingAndGlyphs" textLength="85" x="58" y="130.8198">out: PrintWriter</text><rect fill="none" height="6" style="stroke: #C82930; stroke-width: 1.0;" width="6" x="46" y="138.3164"/><text fill="#000000" font-family="sans-serif" font-size="11" lengthAdjust="spacingAndGlyphs" textLength="107" x="58" y="143.6245">in: BufferedReader</text><line style="stroke: #A80036; stroke-width: 1.5;" x1="39" x2="225" y1="150.2188" y2="150.2188"/><ellipse cx="49" cy="162.1211" fill="#84BE84" rx="3" ry="3" style="stroke: #038048; stroke-width: 1.0;"/><text fill="#000000" font-family="sans-serif" font-size="11" lengthAdjust="spacingAndGlyphs" textLength="78" x="58" y="164.4292">TCPIP(Socket)</text><ellipse cx="49" cy="174.9258" fill="#84BE84" rx="3" ry="3" style="stroke: #038048; stroke-width: 1.0;"/><text fill="#000000" font-family="sans-serif" font-size="11" lengthAdjust="spacingAndGlyphs" textLength="162" x="58" y="177.2339">TCPIP(ServerSocket, Socket)</text><ellipse cx="49" cy="187.7305" fill="#84BE84" rx="3" ry="3" style="stroke: #038048; stroke-width: 1.0;"/><text fill="#000000" font-family="sans-serif" font-size="11" lengthAdjust="spacingAndGlyphs" textLength="101" x="58" y="190.0386">send(String): void</text><ellipse cx="49" cy="200.5352" fill="#84BE84" rx="3" ry="3" style="stroke: #038048; stroke-width: 1.0;"/><text fill="#000000" font-family="sans-serif" font-size="11" lengthAdjust="spacingAndGlyphs" textLength="81" x="58" y="202.8433">send(int): void</text><ellipse cx="49" cy="213.3398" fill="#84BE84" rx="3" ry="3" style="stroke: #038048; stroke-width: 1.0;"/><text fill="#000000" font-family="sans-serif" font-size="11" lengthAdjust="spacingAndGlyphs" textLength="112" x="58" y="215.6479">send(boolean): void</text><ellipse cx="49" cy="226.1445" fill="#84BE84" rx="3" ry="3" style="stroke: #038048; stroke-width: 1.0;"/><text fill="#000000" font-family="sans-serif" font-size="11" lengthAdjust="spacingAndGlyphs" textLength="114" x="58" y="228.4526">receiveLine(): String</text><ellipse cx="49" cy="238.9492" fill="#84BE84" rx="3" ry="3" style="stroke: #038048; stroke-width: 1.0;"/><text fill="#000000" font-family="sans-serif" font-size="11" lengthAdjust="spacingAndGlyphs" textLength="148" x="58" y="241.2573">receiveBoolean(): boolean</text><ellipse cx="49" cy="251.7539" fill="#84BE84" rx="3" ry="3" style="stroke: #038048; stroke-width: 1.0;"/><text fill="#000000" font-family="sans-serif" font-size="11" lengthAdjust="spacingAndGlyphs" textLength="85" x="58" y="254.062">receiveInt(): int</text><ellipse cx="49" cy="264.5586" fill="#84BE84" rx="3" ry="3" style="stroke: #038048; stroke-width: 1.0;"/><text fill="#000000" font-family="sans-serif" font-size="11" lengthAdjust="spacingAndGlyphs" textLength="69" x="58" y="266.8667">close(): void</text><!--link utils.YesNoDialog to utils.Console--><path d="M851.08,241.33 C848.23,268.02 844.96,298.73 841.85,327.86 " fill="none" id="utils.YesNoDialog-utils.Console" style="stroke: #A80036; stroke-width: 1.0; stroke-dasharray: 7.0,7.0;"/><polygon fill="#A80036" points="841.31,332.9,846.2391,324.3733,841.8386,327.928,838.284,323.5275,841.31,332.9" style="stroke: #A80036; stroke-width: 1.0;"/><!--link utils.Menu to utils.Command--><path d="M612.74,235.18 C610.15,276.54 606.87,329.14 604.28,370.55 " fill="none" id="utils.Menu-utils.Command" style="stroke: #A80036; stroke-width: 1.0;"/><polygon fill="#A80036" points="603.46,383.57,608.0154,374.838,603.7729,378.5798,600.0311,374.3373,603.46,383.57" style="stroke: #A80036; stroke-width: 1.0;"/><line style="stroke: #A80036; stroke-width: 1.0;" x1="603.7729" x2="604.275" y1="378.5798" y2="370.595"/><polygon fill="#A80036" points="613.56,222.04,609.1919,227.7776,612.8082,234.0164,617.1762,228.2788,613.56,222.04" style="stroke: #A80036; stroke-width: 1.0;"/><!--
@startuml

class utils.Console {
+ {static} console: Console

+ {static} instance(): Console
- final bufferedReader: BufferedReader
+ readString(String title): String
+ readString(): String
+ readInt(String title): int
+ readChar(String title): char
+ writeln(): void
+ write(String string): void
+ writeln(String string): void
+ write(char character): void
- writeError(String format): void
}

class  utils.YesNoDialog{
- {static} AFIRMATIVE: char
- {static} NEGATIVE: char
- {static} QUESTION: String
- {static} MESSAGE: String
+ read(String): boolean
+ read(): boolean
- {static} isAfirmative(char): boolean
- {static} isNegative(char): boolean
}

utils.YesNoDialog .down.> utils.Console

abstract class utils.Menu {

- {static} final OPTION: String
- final commandList: List<Command>

+ Menu()
+ execute(): void
# add(Command command): void
}

utils.Menu *-down-> utils.Command

abstract class utils.Command {
# final title: String
# Command(String title)
# {abstract} execute(): void
# {abstract} isActive(): boolean
getTitle():String
}

class utils.ClosedInterval {
- final min: int
- final max: int

+ ClosedInterval(int min, int max)
+ isIncluded(int value): boolean
+ toString(): String
}

class utils.TCPIP {
    -socket: Socket
    -serverSocket: ServerSocket
    -out: PrintWriter
    -in: BufferedReader
    +TCPIP(Socket)
    +TCPIP(ServerSocket, Socket)
    +send(String): void
    +send(int): void
    +send(boolean): void
    +receiveLine(): String
    +receiveBoolean(): boolean
    +receiveInt(): int
    +close(): void
}
@enduml

PlantUML version 1.2019.05(Sat Apr 20 18:45:36 CEST 2019)
(GPL source distribution)
Java Runtime: OpenJDK Runtime Environment
JVM: OpenJDK 64-Bit Server VM
Java Version: 1.8.0_265-8u265-b01-0ubuntu2~20.04-b01
Operating System: Linux
OS Version: 5.4.0-52-generic
Default Encoding: UTF-8
Language: es
Country: ES
--></g></svg>