<?xml version="1.0" encoding="UTF-8" standalone="no"?><svg xmlns="http://www.w3.org/2000/svg" xmlns:xlink="http://www.w3.org/1999/xlink" contentScriptType="application/ecmascript" contentStyleType="text/css" height="511px" preserveAspectRatio="none" style="width:764px;height:511px;" version="1.1" viewBox="0 0 764 511" width="764px" zoomAndPan="magnify"><defs><filter height="300%" id="fq8famps2lryt" width="300%" x="-1" y="-1"><feGaussianBlur result="blurOut" stdDeviation="2.0"/><feColorMatrix in="blurOut" result="blurOut2" type="matrix" values="0 0 0 0 0 0 0 0 0 0 0 0 0 0 0 0 0 0 .4 0"/><feOffset dx="4.0" dy="4.0" in="blurOut2" result="blurOut3"/><feBlend in="SourceGraphic" in2="blurOut3" mode="normal"/></filter></defs><g><!--cluster utils--><polygon fill="#FFFFFF" filter="url(#fq8famps2lryt)" points="22,24,61,24,68,46.2969,742,46.2969,742,499,22,499,22,24" style="stroke: #000000; stroke-width: 1.5;"/><line style="stroke: #000000; stroke-width: 1.5;" x1="22" x2="68" y1="46.2969" y2="46.2969"/><text fill="#000000" font-family="sans-serif" font-size="14" font-weight="bold" lengthAdjust="spacingAndGlyphs" textLength="33" x="26" y="38.9951">utils</text><!--class utils.Console--><rect fill="#FEFECE" filter="url(#fq8famps2lryt)" height="214.4609" id="utils.Console" style="stroke: #A80036; stroke-width: 1.5;" width="239" x="487.5" y="269"/><ellipse cx="577.75" cy="285" fill="#ADD1B2" rx="11" ry="11" style="stroke: #A80036; stroke-width: 1.0;"/><path d="M580.7188,290.6406 Q580.1406,290.9375 579.5,291.0781 Q578.8594,291.2344 578.1563,291.2344 Q575.6563,291.2344 574.3281,289.5938 Q573.0156,287.9375 573.0156,284.8125 Q573.0156,281.6875 574.3281,280.0313 Q575.6563,278.375 578.1563,278.375 Q578.8594,278.375 579.5,278.5313 Q580.1563,278.6875 580.7188,278.9844 L580.7188,281.7031 Q580.0938,281.125 579.5,280.8594 Q578.9063,280.5781 578.2813,280.5781 Q576.9375,280.5781 576.25,281.6563 Q575.5625,282.7188 575.5625,284.8125 Q575.5625,286.9063 576.25,287.9844 Q576.9375,289.0469 578.2813,289.0469 Q578.9063,289.0469 579.5,288.7813 Q580.0938,288.5 580.7188,287.9219 L580.7188,290.6406 Z "/><text fill="#000000" font-family="sans-serif" font-size="12" lengthAdjust="spacingAndGlyphs" textLength="50" x="598.25" y="289.1543">Console</text><line style="stroke: #A80036; stroke-width: 1.5;" x1="488.5" x2="725.5" y1="301" y2="301"/><ellipse cx="498.5" cy="312.9023" fill="none" rx="3" ry="3" style="stroke: #038048; stroke-width: 1.0;"/><text fill="#000000" font-family="sans-serif" font-size="11" lengthAdjust="spacingAndGlyphs" text-decoration="underline" textLength="98" x="507.5" y="315.2104">console: Console</text><text fill="#000000" font-family="sans-serif" font-size="11" lengthAdjust="spacingAndGlyphs" textLength="0" x="511.5" y="328.0151"/><rect fill="none" height="6" style="stroke: #C82930; stroke-width: 1.0;" width="6" x="495.5" y="335.5117"/><text fill="#000000" font-family="sans-serif" font-size="11" lengthAdjust="spacingAndGlyphs" textLength="213" x="507.5" y="340.8198">final bufferedReader: BufferedReader</text><line style="stroke: #A80036; stroke-width: 1.5;" x1="488.5" x2="725.5" y1="347.4141" y2="347.4141"/><ellipse cx="498.5" cy="359.3164" fill="#84BE84" rx="3" ry="3" style="stroke: #038048; stroke-width: 1.0;"/><text fill="#000000" font-family="sans-serif" font-size="11" lengthAdjust="spacingAndGlyphs" text-decoration="underline" textLength="110" x="507.5" y="361.6245">instance(): Console</text><ellipse cx="498.5" cy="372.1211" fill="#84BE84" rx="3" ry="3" style="stroke: #038048; stroke-width: 1.0;"/><text fill="#000000" font-family="sans-serif" font-size="11" lengthAdjust="spacingAndGlyphs" textLength="169" x="507.5" y="374.4292">readString(String title): String</text><ellipse cx="498.5" cy="384.9258" fill="#84BE84" rx="3" ry="3" style="stroke: #038048; stroke-width: 1.0;"/><text fill="#000000" font-family="sans-serif" font-size="11" lengthAdjust="spacingAndGlyphs" textLength="110" x="507.5" y="387.2339">readString(): String</text><ellipse cx="498.5" cy="397.7305" fill="#84BE84" rx="3" ry="3" style="stroke: #038048; stroke-width: 1.0;"/><text fill="#000000" font-family="sans-serif" font-size="11" lengthAdjust="spacingAndGlyphs" textLength="129" x="507.5" y="400.0386">readInt(String title): int</text><ellipse cx="498.5" cy="410.5352" fill="#84BE84" rx="3" ry="3" style="stroke: #038048; stroke-width: 1.0;"/><text fill="#000000" font-family="sans-serif" font-size="11" lengthAdjust="spacingAndGlyphs" textLength="153" x="507.5" y="412.8433">readChar(String title): char</text><ellipse cx="498.5" cy="423.3398" fill="#84BE84" rx="3" ry="3" style="stroke: #038048; stroke-width: 1.0;"/><text fill="#000000" font-family="sans-serif" font-size="11" lengthAdjust="spacingAndGlyphs" textLength="77" x="507.5" y="425.6479">writeln(): void</text><ellipse cx="498.5" cy="436.1445" fill="#84BE84" rx="3" ry="3" style="stroke: #038048; stroke-width: 1.0;"/><text fill="#000000" font-family="sans-serif" font-size="11" lengthAdjust="spacingAndGlyphs" textLength="138" x="507.5" y="438.4526">write(String string): void</text><ellipse cx="498.5" cy="448.9492" fill="#84BE84" rx="3" ry="3" style="stroke: #038048; stroke-width: 1.0;"/><text fill="#000000" font-family="sans-serif" font-size="11" lengthAdjust="spacingAndGlyphs" textLength="148" x="507.5" y="451.2573">writeln(String string): void</text><ellipse cx="498.5" cy="461.7539" fill="#84BE84" rx="3" ry="3" style="stroke: #038048; stroke-width: 1.0;"/><text fill="#000000" font-family="sans-serif" font-size="11" lengthAdjust="spacingAndGlyphs" textLength="150" x="507.5" y="464.062">write(char character): void</text><rect fill="#F24D5C" height="6" style="stroke: #C82930; stroke-width: 1.0;" width="6" x="495.5" y="471.5586"/><text fill="#000000" font-family="sans-serif" font-size="11" lengthAdjust="spacingAndGlyphs" textLength="172" x="507.5" y="476.8667">writeError(String format): void</text><!--class utils.YesNoDialog--><rect fill="#FEFECE" filter="url(#fq8famps2lryt)" height="150.4375" id="utils.YesNoDialog" style="stroke: #A80036; stroke-width: 1.5;" width="179" x="546.5" y="59"/><ellipse cx="592.75" cy="75" fill="#ADD1B2" rx="11" ry="11" style="stroke: #A80036; stroke-width: 1.0;"/><path d="M595.7188,80.6406 Q595.1406,80.9375 594.5,81.0781 Q593.8594,81.2344 593.1563,81.2344 Q590.6563,81.2344 589.3281,79.5938 Q588.0156,77.9375 588.0156,74.8125 Q588.0156,71.6875 589.3281,70.0313 Q590.6563,68.375 593.1563,68.375 Q593.8594,68.375 594.5,68.5313 Q595.1563,68.6875 595.7188,68.9844 L595.7188,71.7031 Q595.0938,71.125 594.5,70.8594 Q593.9063,70.5781 593.2813,70.5781 Q591.9375,70.5781 591.25,71.6563 Q590.5625,72.7188 590.5625,74.8125 Q590.5625,76.9063 591.25,77.9844 Q591.9375,79.0469 593.2813,79.0469 Q593.9063,79.0469 594.5,78.7813 Q595.0938,78.5 595.7188,77.9219 L595.7188,80.6406 Z "/><text fill="#000000" font-family="sans-serif" font-size="12" lengthAdjust="spacingAndGlyphs" textLength="78" x="613.25" y="79.1543">YesNoDialog</text><line style="stroke: #A80036; stroke-width: 1.5;" x1="547.5" x2="724.5" y1="91" y2="91"/><rect fill="none" height="6" style="stroke: #C82930; stroke-width: 1.0;" width="6" x="554.5" y="99.9023"/><text fill="#000000" font-family="sans-serif" font-size="11" lengthAdjust="spacingAndGlyphs" text-decoration="underline" textLength="96" x="566.5" y="105.2104">AFIRMATIVE: char</text><rect fill="none" height="6" style="stroke: #C82930; stroke-width: 1.0;" width="6" x="554.5" y="112.707"/><text fill="#000000" font-family="sans-serif" font-size="11" lengthAdjust="spacingAndGlyphs" text-decoration="underline" textLength="88" x="566.5" y="118.0151">NEGATIVE: char</text><rect fill="none" height="6" style="stroke: #C82930; stroke-width: 1.0;" width="6" x="554.5" y="125.5117"/><text fill="#000000" font-family="sans-serif" font-size="11" lengthAdjust="spacingAndGlyphs" text-decoration="underline" textLength="101" x="566.5" y="130.8198">QUESTION: String</text><rect fill="none" height="6" style="stroke: #C82930; stroke-width: 1.0;" width="6" x="554.5" y="138.3164"/><text fill="#000000" font-family="sans-serif" font-size="11" lengthAdjust="spacingAndGlyphs" text-decoration="underline" textLength="97" x="566.5" y="143.6245">MESSAGE: String</text><line style="stroke: #A80036; stroke-width: 1.5;" x1="547.5" x2="724.5" y1="150.2188" y2="150.2188"/><ellipse cx="557.5" cy="162.1211" fill="#84BE84" rx="3" ry="3" style="stroke: #038048; stroke-width: 1.0;"/><text fill="#000000" font-family="sans-serif" font-size="11" lengthAdjust="spacingAndGlyphs" textLength="121" x="566.5" y="164.4292">read(String): boolean</text><ellipse cx="557.5" cy="174.9258" fill="#84BE84" rx="3" ry="3" style="stroke: #038048; stroke-width: 1.0;"/><text fill="#000000" font-family="sans-serif" font-size="11" lengthAdjust="spacingAndGlyphs" textLength="87" x="566.5" y="177.2339">read(): boolean</text><rect fill="#F24D5C" height="6" style="stroke: #C82930; stroke-width: 1.0;" width="6" x="554.5" y="184.7305"/><text fill="#000000" font-family="sans-serif" font-size="11" lengthAdjust="spacingAndGlyphs" text-decoration="underline" textLength="153" x="566.5" y="190.0386">isAfirmative(char): boolean</text><rect fill="#F24D5C" height="6" style="stroke: #C82930; stroke-width: 1.0;" width="6" x="554.5" y="197.5352"/><text fill="#000000" font-family="sans-serif" font-size="11" lengthAdjust="spacingAndGlyphs" text-decoration="underline" textLength="145" x="566.5" y="202.8433">isNegative(char): boolean</text><!--class utils.Menu--><rect fill="#FEFECE" filter="url(#fq8famps2lryt)" height="112.0234" id="utils.Menu" style="stroke: #A80036; stroke-width: 1.5;" width="234" x="277" y="78"/><ellipse cx="372.75" cy="94" fill="#A9DCDF" rx="11" ry="11" style="stroke: #A80036; stroke-width: 1.0;"/><path d="M372.8594,89.3438 L371.7031,94.4219 L374.0313,94.4219 L372.8594,89.3438 Z M371.375,87.1094 L374.3594,87.1094 L377.7188,99.5 L375.2656,99.5 L374.5,96.4375 L371.2188,96.4375 L370.4688,99.5 L368.0313,99.5 L371.375,87.1094 Z "/><text fill="#000000" font-family="sans-serif" font-size="12" font-style="italic" lengthAdjust="spacingAndGlyphs" textLength="34" x="393.25" y="98.1543">Menu</text><line style="stroke: #A80036; stroke-width: 1.5;" x1="278" x2="510" y1="110" y2="110"/><rect fill="none" height="6" style="stroke: #C82930; stroke-width: 1.0;" width="6" x="285" y="118.9023"/><text fill="#000000" font-family="sans-serif" font-size="11" lengthAdjust="spacingAndGlyphs" text-decoration="underline" textLength="113" x="297" y="124.2104">final OPTION: String</text><rect fill="none" height="6" style="stroke: #C82930; stroke-width: 1.0;" width="6" x="285" y="131.707"/><text fill="#000000" font-family="sans-serif" font-size="11" lengthAdjust="spacingAndGlyphs" textLength="208" x="297" y="137.0151">final commandList: List&lt;Command&gt;</text><line style="stroke: #A80036; stroke-width: 1.5;" x1="278" x2="510" y1="143.6094" y2="143.6094"/><ellipse cx="288" cy="155.5117" fill="#84BE84" rx="3" ry="3" style="stroke: #038048; stroke-width: 1.0;"/><text fill="#000000" font-family="sans-serif" font-size="11" lengthAdjust="spacingAndGlyphs" textLength="38" x="297" y="157.8198">Menu()</text><ellipse cx="288" cy="168.3164" fill="#84BE84" rx="3" ry="3" style="stroke: #038048; stroke-width: 1.0;"/><text fill="#000000" font-family="sans-serif" font-size="11" lengthAdjust="spacingAndGlyphs" textLength="83" x="297" y="170.6245">execute(): void</text><polygon fill="#FFFF44" points="288,176.1211,292,180.1211,288,184.1211,284,180.1211" style="stroke: #B38D22; stroke-width: 1.0;"/><text fill="#000000" font-family="sans-serif" font-size="11" lengthAdjust="spacingAndGlyphs" textLength="178" x="297" y="183.4292">add(Command command): void</text><!--class utils.Command--><rect fill="#FEFECE" filter="url(#fq8famps2lryt)" height="112.0234" id="utils.Command" style="stroke: #A80036; stroke-width: 1.5;" width="151" x="301.5" y="320"/><ellipse cx="342.15" cy="336" fill="#A9DCDF" rx="11" ry="11" style="stroke: #A80036; stroke-width: 1.0;"/><path d="M342.2594,331.3438 L341.1031,336.4219 L343.4313,336.4219 L342.2594,331.3438 Z M340.775,329.1094 L343.7594,329.1094 L347.1188,341.5 L344.6656,341.5 L343.9,338.4375 L340.6188,338.4375 L339.8688,341.5 L337.4313,341.5 L340.775,329.1094 Z "/><text fill="#000000" font-family="sans-serif" font-size="12" font-style="italic" lengthAdjust="spacingAndGlyphs" textLength="62" x="361.85" y="340.1543">Command</text><line style="stroke: #A80036; stroke-width: 1.5;" x1="302.5" x2="451.5" y1="352" y2="352"/><polygon fill="none" points="312.5,358.9023,316.5,362.9023,312.5,366.9023,308.5,362.9023" style="stroke: #B38D22; stroke-width: 1.0;"/><text fill="#000000" font-family="sans-serif" font-size="11" lengthAdjust="spacingAndGlyphs" textLength="91" x="321.5" y="366.2104">final title: String</text><line style="stroke: #A80036; stroke-width: 1.5;" x1="302.5" x2="451.5" y1="372.8047" y2="372.8047"/><polygon fill="#FFFF44" points="312.5,379.707,316.5,383.707,312.5,387.707,308.5,383.707" style="stroke: #B38D22; stroke-width: 1.0;"/><text fill="#000000" font-family="sans-serif" font-size="11" lengthAdjust="spacingAndGlyphs" textLength="125" x="321.5" y="387.0151">Command(String title)</text><polygon fill="#FFFF44" points="312.5,392.5117,316.5,396.5117,312.5,400.5117,308.5,396.5117" style="stroke: #B38D22; stroke-width: 1.0;"/><text fill="#000000" font-family="sans-serif" font-size="11" font-style="italic" lengthAdjust="spacingAndGlyphs" textLength="85" x="321.5" y="399.8198">execute(): void</text><polygon fill="#FFFF44" points="312.5,405.3164,316.5,409.3164,312.5,413.3164,308.5,409.3164" style="stroke: #B38D22; stroke-width: 1.0;"/><text fill="#000000" font-family="sans-serif" font-size="11" font-style="italic" lengthAdjust="spacingAndGlyphs" textLength="105" x="321.5" y="412.6245">isActive(): boolean</text><text fill="#000000" font-family="sans-serif" font-size="11" lengthAdjust="spacingAndGlyphs" textLength="88" x="321.5" y="425.4292">getTitle():String</text><!--class utils.ClosedInterval--><rect fill="#FEFECE" filter="url(#fq8famps2lryt)" height="112.0234" id="utils.ClosedInterval" style="stroke: #A80036; stroke-width: 1.5;" width="204" x="38" y="78"/><ellipse cx="91.75" cy="94" fill="#ADD1B2" rx="11" ry="11" style="stroke: #A80036; stroke-width: 1.0;"/><path d="M94.7188,99.6406 Q94.1406,99.9375 93.5,100.0781 Q92.8594,100.2344 92.1563,100.2344 Q89.6563,100.2344 88.3281,98.5938 Q87.0156,96.9375 87.0156,93.8125 Q87.0156,90.6875 88.3281,89.0313 Q89.6563,87.375 92.1563,87.375 Q92.8594,87.375 93.5,87.5313 Q94.1563,87.6875 94.7188,87.9844 L94.7188,90.7031 Q94.0938,90.125 93.5,89.8594 Q92.9063,89.5781 92.2813,89.5781 Q90.9375,89.5781 90.25,90.6563 Q89.5625,91.7188 89.5625,93.8125 Q89.5625,95.9063 90.25,96.9844 Q90.9375,98.0469 92.2813,98.0469 Q92.9063,98.0469 93.5,97.7813 Q94.0938,97.5 94.7188,96.9219 L94.7188,99.6406 Z "/><text fill="#000000" font-family="sans-serif" font-size="12" lengthAdjust="spacingAndGlyphs" textLength="88" x="112.25" y="98.1543">ClosedInterval</text><line style="stroke: #A80036; stroke-width: 1.5;" x1="39" x2="241" y1="110" y2="110"/><rect fill="none" height="6" style="stroke: #C82930; stroke-width: 1.0;" width="6" x="46" y="118.9023"/><text fill="#000000" font-family="sans-serif" font-size="11" lengthAdjust="spacingAndGlyphs" textLength="71" x="58" y="124.2104">final min: int</text><rect fill="none" height="6" style="stroke: #C82930; stroke-width: 1.0;" width="6" x="46" y="131.707"/><text fill="#000000" font-family="sans-serif" font-size="11" lengthAdjust="spacingAndGlyphs" textLength="74" x="58" y="137.0151">final max: int</text><line style="stroke: #A80036; stroke-width: 1.5;" x1="39" x2="241" y1="143.6094" y2="143.6094"/><ellipse cx="49" cy="155.5117" fill="#84BE84" rx="3" ry="3" style="stroke: #038048; stroke-width: 1.0;"/><text fill="#000000" font-family="sans-serif" font-size="11" lengthAdjust="spacingAndGlyphs" textLength="178" x="58" y="157.8198">ClosedInterval(int min, int max)</text><ellipse cx="49" cy="168.3164" fill="#84BE84" rx="3" ry="3" style="stroke: #038048; stroke-width: 1.0;"/><text fill="#000000" font-family="sans-serif" font-size="11" lengthAdjust="spacingAndGlyphs" textLength="166" x="58" y="170.6245">isIncluded(int value): boolean</text><ellipse cx="49" cy="181.1211" fill="#84BE84" rx="3" ry="3" style="stroke: #038048; stroke-width: 1.0;"/><text fill="#000000" font-family="sans-serif" font-size="11" lengthAdjust="spacingAndGlyphs" textLength="95" x="58" y="183.4292">toString(): String</text><!--link utils.YesNoDialog to utils.Console--><path d="M627.02,209.29 C624.94,226.53 622.68,245.25 620.45,263.7 " fill="none" id="utils.YesNoDialog-utils.Console" style="stroke: #A80036; stroke-width: 1.0; stroke-dasharray: 7.0,7.0;"/><polygon fill="#A80036" points="619.82,268.89,624.8696,260.4341,620.4191,263.926,616.9272,259.4756,619.82,268.89" style="stroke: #A80036; stroke-width: 1.0;"/><!--link utils.Menu to utils.Command--><path d="M389.17,203.25 C386.87,235.68 384.13,274.34 381.83,306.77 " fill="none" id="utils.Menu-utils.Command" style="stroke: #A80036; stroke-width: 1.0;"/><polygon fill="#A80036" points="380.91,319.78,385.5329,311.0835,381.2616,314.7924,377.5527,310.521,380.91,319.78" style="stroke: #A80036; stroke-width: 1.0;"/><line style="stroke: #A80036; stroke-width: 1.0;" x1="381.2616" x2="381.83" y1="314.7924" y2="306.81"/><polygon fill="#A80036" points="390.1,190.06,385.688,195.7639,389.2563,202.0303,393.6682,196.3264,390.1,190.06" style="stroke: #A80036; stroke-width: 1.0;"/><!--
@startuml

class utils.Console {
+ {static} console: Console

+ {static} instance(): Console
- final bufferedReader: BufferedReader
+ readString(String title): String
+ readString(): String
+ readInt(String title): int
+ readChar(String title): char
+ writeln(): void
+ write(String string): void
+ writeln(String string): void
+ write(char character): void
- writeError(String format): void
}

class  utils.YesNoDialog{
- {static} AFIRMATIVE: char
- {static} NEGATIVE: char
- {static} QUESTION: String
- {static} MESSAGE: String
+ read(String): boolean
+ read(): boolean
- {static} isAfirmative(char): boolean
- {static} isNegative(char): boolean
}

utils.YesNoDialog .down.> utils.Console

abstract class utils.Menu {

- {static} final OPTION: String
- final commandList: List<Command>

+ Menu()
+ execute(): void
# add(Command command): void
}

utils.Menu *-down-> utils.Command

abstract class utils.Command {
# final title: String
# Command(String title)
# {abstract} execute(): void
# {abstract} isActive(): boolean
getTitle():String
}

class utils.ClosedInterval {
- final min: int
- final max: int

+ ClosedInterval(int min, int max)
+ isIncluded(int value): boolean
+ toString(): String
}
@enduml

PlantUML version 1.2019.05(Sat Apr 20 18:45:36 CEST 2019)
(GPL source distribution)
Java Runtime: OpenJDK Runtime Environment
JVM: OpenJDK 64-Bit Server VM
Java Version: 1.8.0_265-8u265-b01-0ubuntu2~20.04-b01
Operating System: Linux
OS Version: 5.4.0-52-generic
Default Encoding: UTF-8
Language: es
Country: ES
--></g></svg>