<?xml version="1.0" encoding="UTF-8" standalone="no"?><svg xmlns="http://www.w3.org/2000/svg" xmlns:xlink="http://www.w3.org/1999/xlink" contentScriptType="application/ecmascript" contentStyleType="text/css" height="322px" preserveAspectRatio="none" style="width:1474px;height:322px;" version="1.1" viewBox="0 0 1474 322" width="1474px" zoomAndPan="magnify"><defs><filter height="300%" id="flydeul6vlyyh" width="300%" x="-1" y="-1"><feGaussianBlur result="blurOut" stdDeviation="2.0"/><feColorMatrix in="blurOut" result="blurOut2" type="matrix" values="0 0 0 0 0 0 0 0 0 0 0 0 0 0 0 0 0 0 .4 0"/><feOffset dx="4.0" dy="4.0" in="blurOut2" result="blurOut3"/><feBlend in="SourceGraphic" in2="blurOut3" mode="normal"/></filter></defs><g><!--cluster mastermind.views--><polygon fill="#FFFFFF" filter="url(#flydeul6vlyyh)" points="417,24,567,24,574,46.2969,771,46.2969,771,149,417,149,417,24" style="stroke: #000000; stroke-width: 1.5;"/><line style="stroke: #000000; stroke-width: 1.5;" x1="417" x2="574" y1="46.2969" y2="46.2969"/><text fill="#000000" font-family="sans-serif" font-size="14" font-weight="bold" lengthAdjust="spacingAndGlyphs" textLength="144" x="421" y="38.9951">mastermind.views</text><!--cluster mastermind.views.graphics--><polygon fill="#FFFFFF" filter="url(#flydeul6vlyyh)" points="22,173,245,173,252,195.2969,1452,195.2969,1452,310,22,310,22,173" style="stroke: #000000; stroke-width: 1.5;"/><line style="stroke: #000000; stroke-width: 1.5;" x1="22" x2="252" y1="195.2969" y2="195.2969"/><text fill="#000000" font-family="sans-serif" font-size="14" font-weight="bold" lengthAdjust="spacingAndGlyphs" textLength="217" x="26" y="187.9951">mastermind.views.graphics</text><!--cluster utils--><polygon fill="#FFFFFF" filter="url(#flydeul6vlyyh)" points="831,30.5,870,30.5,877,52.7969,1001,52.7969,1001,142.5,831,142.5,831,30.5" style="stroke: #000000; stroke-width: 1.5;"/><line style="stroke: #000000; stroke-width: 1.5;" x1="831" x2="877" y1="52.7969" y2="52.7969"/><text fill="#000000" font-family="sans-serif" font-size="14" font-weight="bold" lengthAdjust="spacingAndGlyphs" textLength="33" x="835" y="45.4951">utils</text><!--class mastermind.views.View--><a href="View.html" target="_top" xlink:actuate="onRequest" xlink:show="new" xlink:title="View.html" xlink:type="simple"><rect fill="#FEFECE" filter="url(#flydeul6vlyyh)" height="73.6094" id="mastermind.views.View" style="stroke: #A80036; stroke-width: 1.5;" width="321" x="433.5" y="59"/><ellipse cx="575.25" cy="75" fill="#B4A7E5" rx="11" ry="11" style="stroke: #A80036; stroke-width: 1.0;"/><path d="M571.1719,70.7656 L571.1719,68.6094 L578.5625,68.6094 L578.5625,70.7656 L576.0938,70.7656 L576.0938,78.8438 L578.5625,78.8438 L578.5625,81 L571.1719,81 L571.1719,78.8438 L573.6406,78.8438 L573.6406,70.7656 L571.1719,70.7656 Z "/><text fill="#000000" font-family="sans-serif" font-size="12" font-style="italic" lengthAdjust="spacingAndGlyphs" textLength="29" x="595.75" y="79.1543">View</text><line style="stroke: #A80036; stroke-width: 1.5;" x1="434.5" x2="753.5" y1="91" y2="91"/><line style="stroke: #A80036; stroke-width: 1.5;" x1="434.5" x2="753.5" y1="99" y2="99"/><ellipse cx="444.5" cy="110.9023" fill="#84BE84" rx="3" ry="3" style="stroke: #038048; stroke-width: 1.0;"/><text fill="#000000" font-family="sans-serif" font-size="11" font-style="italic" lengthAdjust="spacingAndGlyphs" textLength="295" x="453.5" y="113.2104">interact(Map&lt;String, Object&gt;): Map&lt;String, Object&gt;</text><ellipse cx="444.5" cy="123.707" fill="#84BE84" rx="3" ry="3" style="stroke: #038048; stroke-width: 1.0;"/><text fill="#000000" font-family="sans-serif" font-size="11" font-style="italic" lengthAdjust="spacingAndGlyphs" textLength="295" x="453.5" y="126.0151">interact(Map&lt;String, Object&gt;): Map&lt;String, Object&gt;</text></a><!--class mastermind.views.graphics.ResumeView--><a href="ResumeView.html" target="_top" xlink:actuate="onRequest" xlink:show="new" xlink:title="ResumeView.html" xlink:type="simple"><rect fill="#FEFECE" filter="url(#flydeul6vlyyh)" height="73.6094" id="mastermind.views.graphics.ResumeView" style="stroke: #A80036; stroke-width: 1.5;" width="323" x="1112.5" y="214"/><ellipse cx="1230.75" cy="230" fill="#ADD1B2" rx="11" ry="11" style="stroke: #A80036; stroke-width: 1.0;"/><path d="M1233.7188,235.6406 Q1233.1406,235.9375 1232.5,236.0781 Q1231.8594,236.2344 1231.1563,236.2344 Q1228.6563,236.2344 1227.3281,234.5938 Q1226.0156,232.9375 1226.0156,229.8125 Q1226.0156,226.6875 1227.3281,225.0313 Q1228.6563,223.375 1231.1563,223.375 Q1231.8594,223.375 1232.5,223.5313 Q1233.1563,223.6875 1233.7188,223.9844 L1233.7188,226.7031 Q1233.0938,226.125 1232.5,225.8594 Q1231.9063,225.5781 1231.2813,225.5781 Q1229.9375,225.5781 1229.25,226.6563 Q1228.5625,227.7188 1228.5625,229.8125 Q1228.5625,231.9063 1229.25,232.9844 Q1229.9375,234.0469 1231.2813,234.0469 Q1231.9063,234.0469 1232.5,233.7813 Q1233.0938,233.5 1233.7188,232.9219 L1233.7188,235.6406 Z "/><text fill="#000000" font-family="sans-serif" font-size="12" lengthAdjust="spacingAndGlyphs" textLength="78" x="1251.25" y="234.1543">ResumeView</text><line style="stroke: #A80036; stroke-width: 1.5;" x1="1113.5" x2="1434.5" y1="246" y2="246"/><ellipse cx="1123.5" cy="257.9023" fill="none" rx="3" ry="3" style="stroke: #038048; stroke-width: 1.0;"/><text fill="#000000" font-family="sans-serif" font-size="11" lengthAdjust="spacingAndGlyphs" text-decoration="underline" textLength="104" x="1132.5" y="260.2104">NEW_GAME: String</text><line style="stroke: #A80036; stroke-width: 1.5;" x1="1113.5" x2="1434.5" y1="266.8047" y2="266.8047"/><ellipse cx="1123.5" cy="278.707" fill="#84BE84" rx="3" ry="3" style="stroke: #038048; stroke-width: 1.0;"/><text fill="#000000" font-family="sans-serif" font-size="11" lengthAdjust="spacingAndGlyphs" textLength="297" x="1132.5" y="281.0151">interact(Map&lt;String, Object&gt;): Map&lt;String, Object&gt;</text></a><!--class mastermind.views.graphics.StartView--><a href="StartView.html" target="_top" xlink:actuate="onRequest" xlink:show="new" xlink:title="StartView.html" xlink:type="simple"><rect fill="#FEFECE" filter="url(#flydeul6vlyyh)" height="60.8047" id="mastermind.views.graphics.StartView" style="stroke: #A80036; stroke-width: 1.5;" width="323" x="38.5" y="220.5"/><ellipse cx="166.25" cy="236.5" fill="#ADD1B2" rx="11" ry="11" style="stroke: #A80036; stroke-width: 1.0;"/><path d="M169.2188,242.1406 Q168.6406,242.4375 168,242.5781 Q167.3594,242.7344 166.6563,242.7344 Q164.1563,242.7344 162.8281,241.0938 Q161.5156,239.4375 161.5156,236.3125 Q161.5156,233.1875 162.8281,231.5313 Q164.1563,229.875 166.6563,229.875 Q167.3594,229.875 168,230.0313 Q168.6563,230.1875 169.2188,230.4844 L169.2188,233.2031 Q168.5938,232.625 168,232.3594 Q167.4063,232.0781 166.7813,232.0781 Q165.4375,232.0781 164.75,233.1563 Q164.0625,234.2188 164.0625,236.3125 Q164.0625,238.4063 164.75,239.4844 Q165.4375,240.5469 166.7813,240.5469 Q167.4063,240.5469 168,240.2813 Q168.5938,240 169.2188,239.4219 L169.2188,242.1406 Z "/><text fill="#000000" font-family="sans-serif" font-size="12" lengthAdjust="spacingAndGlyphs" textLength="59" x="186.75" y="240.6543">StartView</text><line style="stroke: #A80036; stroke-width: 1.5;" x1="39.5" x2="360.5" y1="252.5" y2="252.5"/><line style="stroke: #A80036; stroke-width: 1.5;" x1="39.5" x2="360.5" y1="260.5" y2="260.5"/><ellipse cx="49.5" cy="272.4023" fill="#84BE84" rx="3" ry="3" style="stroke: #038048; stroke-width: 1.0;"/><text fill="#000000" font-family="sans-serif" font-size="11" lengthAdjust="spacingAndGlyphs" textLength="297" x="58.5" y="274.7104">interact(Map&lt;String, Object&gt;): Map&lt;String, Object&gt;</text></a><!--class mastermind.views.graphics.ProposedCombinationView--><a href="ProposedCombinationView.html" target="_top" xlink:actuate="onRequest" xlink:show="new" xlink:title="ProposedCombinationView.html" xlink:type="simple"><rect fill="#FEFECE" filter="url(#flydeul6vlyyh)" height="86.4141" id="mastermind.views.graphics.ProposedCombinationView" style="stroke: #A80036; stroke-width: 1.5;" width="323" x="754.5" y="208"/><ellipse cx="828.75" cy="224" fill="#ADD1B2" rx="11" ry="11" style="stroke: #A80036; stroke-width: 1.0;"/><path d="M831.7188,229.6406 Q831.1406,229.9375 830.5,230.0781 Q829.8594,230.2344 829.1563,230.2344 Q826.6563,230.2344 825.3281,228.5938 Q824.0156,226.9375 824.0156,223.8125 Q824.0156,220.6875 825.3281,219.0313 Q826.6563,217.375 829.1563,217.375 Q829.8594,217.375 830.5,217.5313 Q831.1563,217.6875 831.7188,217.9844 L831.7188,220.7031 Q831.0938,220.125 830.5,219.8594 Q829.9063,219.5781 829.2813,219.5781 Q827.9375,219.5781 827.25,220.6563 Q826.5625,221.7188 826.5625,223.8125 Q826.5625,225.9063 827.25,226.9844 Q827.9375,228.0469 829.2813,228.0469 Q829.9063,228.0469 830.5,227.7813 Q831.0938,227.5 831.7188,226.9219 L831.7188,229.6406 Z "/><text fill="#000000" font-family="sans-serif" font-size="12" lengthAdjust="spacingAndGlyphs" textLength="166" x="849.25" y="228.1543">ProposedCombinationView</text><line style="stroke: #A80036; stroke-width: 1.5;" x1="755.5" x2="1076.5" y1="240" y2="240"/><ellipse cx="765.5" cy="251.9023" fill="none" rx="3" ry="3" style="stroke: #038048; stroke-width: 1.0;"/><text fill="#000000" font-family="sans-serif" font-size="11" lengthAdjust="spacingAndGlyphs" text-decoration="underline" textLength="189" x="774.5" y="254.2104">PROPOSED_COMBINATION: String</text><line style="stroke: #A80036; stroke-width: 1.5;" x1="755.5" x2="1076.5" y1="260.8047" y2="260.8047"/><ellipse cx="765.5" cy="272.707" fill="#84BE84" rx="3" ry="3" style="stroke: #038048; stroke-width: 1.0;"/><text fill="#000000" font-family="sans-serif" font-size="11" lengthAdjust="spacingAndGlyphs" text-decoration="underline" textLength="192" x="774.5" y="275.0151">write(ProposedCombination): void</text><ellipse cx="765.5" cy="285.5117" fill="#84BE84" rx="3" ry="3" style="stroke: #038048; stroke-width: 1.0;"/><text fill="#000000" font-family="sans-serif" font-size="11" lengthAdjust="spacingAndGlyphs" textLength="297" x="774.5" y="287.8198">interact(Map&lt;String, Object&gt;): Map&lt;String, Object&gt;</text></a><!--class mastermind.views.graphics.PlayView--><a href="PlayView.html" target="_top" xlink:actuate="onRequest" xlink:show="new" xlink:title="PlayView.html" xlink:type="simple"><rect fill="#FEFECE" filter="url(#flydeul6vlyyh)" height="73.6094" id="mastermind.views.graphics.PlayView" style="stroke: #A80036; stroke-width: 1.5;" width="323" x="396.5" y="214"/><ellipse cx="527.25" cy="230" fill="#ADD1B2" rx="11" ry="11" style="stroke: #A80036; stroke-width: 1.0;"/><path d="M530.2188,235.6406 Q529.6406,235.9375 529,236.0781 Q528.3594,236.2344 527.6563,236.2344 Q525.1563,236.2344 523.8281,234.5938 Q522.5156,232.9375 522.5156,229.8125 Q522.5156,226.6875 523.8281,225.0313 Q525.1563,223.375 527.6563,223.375 Q528.3594,223.375 529,223.5313 Q529.6563,223.6875 530.2188,223.9844 L530.2188,226.7031 Q529.5938,226.125 529,225.8594 Q528.4063,225.5781 527.7813,225.5781 Q526.4375,225.5781 525.75,226.6563 Q525.0625,227.7188 525.0625,229.8125 Q525.0625,231.9063 525.75,232.9844 Q526.4375,234.0469 527.7813,234.0469 Q528.4063,234.0469 529,233.7813 Q529.5938,233.5 530.2188,232.9219 L530.2188,235.6406 Z "/><text fill="#000000" font-family="sans-serif" font-size="12" lengthAdjust="spacingAndGlyphs" textLength="53" x="547.75" y="234.1543">PlayView</text><line style="stroke: #A80036; stroke-width: 1.5;" x1="397.5" x2="718.5" y1="246" y2="246"/><ellipse cx="407.5" cy="257.9023" fill="none" rx="3" ry="3" style="stroke: #038048; stroke-width: 1.0;"/><text fill="#000000" font-family="sans-serif" font-size="11" lengthAdjust="spacingAndGlyphs" text-decoration="underline" textLength="93" x="416.5" y="260.2104">RESULTS: String</text><line style="stroke: #A80036; stroke-width: 1.5;" x1="397.5" x2="718.5" y1="266.8047" y2="266.8047"/><ellipse cx="407.5" cy="278.707" fill="#84BE84" rx="3" ry="3" style="stroke: #038048; stroke-width: 1.0;"/><text fill="#000000" font-family="sans-serif" font-size="11" lengthAdjust="spacingAndGlyphs" textLength="297" x="416.5" y="281.0151">interact(Map&lt;String, Object&gt;): Map&lt;String, Object&gt;</text></a><!--class utils.WithConsoleView--><a href="WithConsoleView.html" target="_top" xlink:actuate="onRequest" xlink:show="new" xlink:title="WithConsoleView.html" xlink:type="simple"><rect fill="#FEFECE" filter="url(#flydeul6vlyyh)" height="60.8047" id="utils.WithConsoleView" style="stroke: #A80036; stroke-width: 1.5;" width="138" x="847" y="65.5"/><ellipse cx="862" cy="81.5" fill="#A9DCDF" rx="11" ry="11" style="stroke: #A80036; stroke-width: 1.0;"/><path d="M862.1094,76.8438 L860.9531,81.9219 L863.2813,81.9219 L862.1094,76.8438 Z M860.625,74.6094 L863.6094,74.6094 L866.9688,87 L864.5156,87 L863.75,83.9375 L860.4688,83.9375 L859.7188,87 L857.2813,87 L860.625,74.6094 Z "/><text fill="#000000" font-family="sans-serif" font-size="12" font-style="italic" lengthAdjust="spacingAndGlyphs" textLength="106" x="876" y="85.6543">WithConsoleView</text><line style="stroke: #A80036; stroke-width: 1.5;" x1="848" x2="984" y1="97.5" y2="97.5"/><polygon fill="none" points="858,104.4023,862,108.4023,858,112.4023,854,108.4023" style="stroke: #B38D22; stroke-width: 1.0;"/><text fill="#000000" font-family="sans-serif" font-size="11" lengthAdjust="spacingAndGlyphs" textLength="98" x="867" y="111.7104">console: Console</text><line style="stroke: #A80036; stroke-width: 1.5;" x1="848" x2="984" y1="118.3047" y2="118.3047"/></a><!--link utils.WithConsoleView to mastermind.views.graphics.ResumeView--><path d="M1001.14,133.97 C1026.03,143.67 1053.15,154.4 1078,165 C1113.44,180.12 1152.13,198.28 1185.87,213.92 " fill="none" id="utils.WithConsoleView-mastermind.views.graphics.ResumeView" style="stroke: #A80036; stroke-width: 1.0;"/><polygon fill="none" points="998.28,140.37,982.18,126.61,1003.35,127.32,998.28,140.37" style="stroke: #A80036; stroke-width: 1.0;"/><!--link utils.WithConsoleView to mastermind.views.graphics.ResumeView--><path d="M1004.16,122.76 C1038.68,134.96 1078.07,150.1 1113,165 C1148.44,180.12 1187.13,198.28 1217.94,213.92 " fill="none" id="utils.WithConsoleView-mastermind.views.graphics.ResumeView-1" style="stroke: #A80036; stroke-width: 1.0;"/><polygon fill="none" points="1001.61,129.29,985.01,116.12,1006.2,116.06,1001.61,129.29" style="stroke: #A80036; stroke-width: 1.0;"/><!--link mastermind.views.View to mastermind.views.graphics.ResumeView--><path d="M734.87,138.01 C766.26,145.65 799.56,152.6 831,157 C889.13,165.14 1037.94,151.23 1095,165 C1136.8,175.09 1180.46,195.59 1214.19,213.93 " fill="none" id="mastermind.views.View-mastermind.views.graphics.ResumeView" style="stroke: #A80036; stroke-width: 1.0; stroke-dasharray: 7.0,7.0;"/><polygon fill="none" points="732.78,144.7,715.08,133.05,736.19,131.12,732.78,144.7" style="stroke: #A80036; stroke-width: 1.0;"/><!--link utils.WithConsoleView to mastermind.views.graphics.StartView--><path d="M840.2,134.57 C818.38,143.66 794.2,152.14 771,157 C685.72,174.85 463.8,144.98 379,165 C331.96,176.11 282.64,200.63 247.7,220.49 " fill="none" id="utils.WithConsoleView-mastermind.views.graphics.StartView" style="stroke: #A80036; stroke-width: 1.0;"/><polygon fill="none" points="837.54,128.09,858.67,126.5,843.14,140.92,837.54,128.09" style="stroke: #A80036; stroke-width: 1.0;"/><!--link mastermind.views.View to mastermind.views.graphics.StartView--><path d="M450.71,139.3 C426.57,147.29 401.93,155.98 379,165 C337.38,181.37 291.87,203.04 257.16,220.4 " fill="none" id="mastermind.views.View-mastermind.views.graphics.StartView" style="stroke: #A80036; stroke-width: 1.0; stroke-dasharray: 7.0,7.0;"/><polygon fill="none" points="448.73,132.59,469.91,133.06,453.05,145.9,448.73,132.59" style="stroke: #A80036; stroke-width: 1.0;"/><!--link utils.WithConsoleView to mastermind.views.graphics.ProposedCombinationView--><path d="M916,146.87 C916,166.54 916,188.91 916,207.77 " fill="none" id="utils.WithConsoleView-mastermind.views.graphics.ProposedCombinationView" style="stroke: #A80036; stroke-width: 1.0;"/><polygon fill="none" points="909,146.86,916,126.86,923,146.86,909,146.86" style="stroke: #A80036; stroke-width: 1.0;"/><!--link mastermind.views.View to mastermind.views.graphics.ProposedCombinationView--><path d="M688.21,141.76 C732.18,162.66 784.24,187.39 827.48,207.94 " fill="none" id="mastermind.views.View-mastermind.views.graphics.ProposedCombinationView" style="stroke: #A80036; stroke-width: 1.0; stroke-dasharray: 7.0,7.0;"/><polygon fill="none" points="684.96,147.97,669.9,133.07,690.97,135.33,684.96,147.97" style="stroke: #A80036; stroke-width: 1.0;"/><!--link utils.WithConsoleView to mastermind.views.graphics.PlayView--><path d="M832.27,134.33 C812.41,142.43 791.14,150.51 771,157 C756.22,161.76 751.65,159.86 737,165 C699.02,178.32 658.36,197.22 625.41,213.81 " fill="none" id="utils.WithConsoleView-mastermind.views.graphics.PlayView" style="stroke: #A80036; stroke-width: 1.0;"/><polygon fill="none" points="829.64,127.85,850.79,126.61,835.02,140.77,829.64,127.85" style="stroke: #A80036; stroke-width: 1.0;"/><!--link mastermind.views.View to mastermind.views.graphics.PlayView--><path d="M580.83,152.99 C576.06,173.26 570.8,195.61 566.53,213.74 " fill="none" id="mastermind.views.View-mastermind.views.graphics.PlayView" style="stroke: #A80036; stroke-width: 1.0; stroke-dasharray: 7.0,7.0;"/><polygon fill="none" points="574.07,151.12,585.47,133.26,587.7,154.33,574.07,151.12" style="stroke: #A80036; stroke-width: 1.0;"/><!--
@startuml

interface mastermind.views.View [[View.html]] {
    {abstract} +interact(Map<String, Object>): Map<String, Object>
}

class mastermind.views.graphics.ResumeView [[ResumeView.html]] {
    {static} +NEW_GAME: String
    +interact(Map<String, Object>): Map<String, Object>
}

class mastermind.views.graphics.StartView [[StartView.html]] {
    +interact(Map<String, Object>): Map<String, Object>
}

class mastermind.views.graphics.ProposedCombinationView [[ProposedCombinationView.html]] {
    {static} +PROPOSED_COMBINATION: String
    {static} +write(ProposedCombination): void
    +interact(Map<String, Object>): Map<String, Object>
}

class mastermind.views.graphics.PlayView [[PlayView.html]] {
    {static} +RESULTS: String
    +interact(Map<String, Object>): Map<String, Object>
}

abstract class utils.WithConsoleView [[WithConsoleView.html]] {
    #console: Console
}
utils.WithConsoleView <|- - mastermind.views.graphics.ResumeView

interface mastermind.views.View {
    {abstract} +interact(Map<String, Object>): Map<String, Object>
}
mastermind.views.View <|.. mastermind.views.graphics.ResumeView

utils.WithConsoleView <|- - mastermind.views.graphics.ResumeView

utils.WithConsoleView <|- - mastermind.views.graphics.StartView

mastermind.views.View <|.. mastermind.views.graphics.StartView

utils.WithConsoleView <|- - mastermind.views.graphics.ProposedCombinationView

mastermind.views.View <|.. mastermind.views.graphics.ProposedCombinationView

utils.WithConsoleView <|- - mastermind.views.graphics.PlayView

mastermind.views.View <|.. mastermind.views.graphics.PlayView

@enduml

PlantUML version 1.2019.05(Sat Apr 20 18:45:36 CEST 2019)
(GPL source distribution)
Java Runtime: OpenJDK Runtime Environment
JVM: OpenJDK 64-Bit Server VM
Java Version: 1.8.0_265-8u265-b01-0ubuntu2~20.04-b01
Operating System: Linux
OS Version: 5.4.0-52-generic
Default Encoding: UTF-8
Language: es
Country: ES
--></g></svg>