<?xml version="1.0" encoding="UTF-8" standalone="no"?><svg xmlns="http://www.w3.org/2000/svg" xmlns:xlink="http://www.w3.org/1999/xlink" contentScriptType="application/ecmascript" contentStyleType="text/css" height="397px" preserveAspectRatio="none" style="width:529px;height:397px;" version="1.1" viewBox="0 0 529 397" width="529px" zoomAndPan="magnify"><defs><filter height="300%" id="fek89kr2j6k14" width="300%" x="-1" y="-1"><feGaussianBlur result="blurOut" stdDeviation="2.0"/><feColorMatrix in="blurOut" result="blurOut2" type="matrix" values="0 0 0 0 0 0 0 0 0 0 0 0 0 0 0 0 0 0 .4 0"/><feOffset dx="4.0" dy="4.0" in="blurOut2" result="blurOut3"/><feBlend in="SourceGraphic" in2="blurOut3" mode="normal"/></filter></defs><g><!--cluster mastermind.utils--><polygon fill="#FFFFFF" filter="url(#fek89kr2j6k14)" points="22,24,159,24,166,46.2969,507,46.2969,507,385,22,385,22,24" style="stroke: #000000; stroke-width: 1.5;"/><line style="stroke: #000000; stroke-width: 1.5;" x1="22" x2="166" y1="46.2969" y2="46.2969"/><text fill="#000000" font-family="sans-serif" font-size="14" font-weight="bold" lengthAdjust="spacingAndGlyphs" textLength="131" x="26" y="38.9951">mastermind.utils</text><!--class mastermind.utils.Console--><rect fill="#FEFECE" filter="url(#fek89kr2j6k14)" height="176.0469" id="mastermind.utils.Console" style="stroke: #A80036; stroke-width: 1.5;" width="239" x="37.5" y="193"/><ellipse cx="127.75" cy="209" fill="#ADD1B2" rx="11" ry="11" style="stroke: #A80036; stroke-width: 1.0;"/><path d="M130.7188,214.6406 Q130.1406,214.9375 129.5,215.0781 Q128.8594,215.2344 128.1563,215.2344 Q125.6563,215.2344 124.3281,213.5938 Q123.0156,211.9375 123.0156,208.8125 Q123.0156,205.6875 124.3281,204.0313 Q125.6563,202.375 128.1563,202.375 Q128.8594,202.375 129.5,202.5313 Q130.1563,202.6875 130.7188,202.9844 L130.7188,205.7031 Q130.0938,205.125 129.5,204.8594 Q128.9063,204.5781 128.2813,204.5781 Q126.9375,204.5781 126.25,205.6563 Q125.5625,206.7188 125.5625,208.8125 Q125.5625,210.9063 126.25,211.9844 Q126.9375,213.0469 128.2813,213.0469 Q128.9063,213.0469 129.5,212.7813 Q130.0938,212.5 130.7188,211.9219 L130.7188,214.6406 Z "/><text fill="#000000" font-family="sans-serif" font-size="12" lengthAdjust="spacingAndGlyphs" textLength="50" x="148.25" y="213.1543">Console</text><line style="stroke: #A80036; stroke-width: 1.5;" x1="38.5" x2="275.5" y1="225" y2="225"/><rect fill="none" height="6" style="stroke: #C82930; stroke-width: 1.0;" width="6" x="45.5" y="233.9023"/><text fill="#000000" font-family="sans-serif" font-size="11" lengthAdjust="spacingAndGlyphs" textLength="213" x="57.5" y="239.2104">final bufferedReader: BufferedReader</text><line style="stroke: #A80036; stroke-width: 1.5;" x1="38.5" x2="275.5" y1="245.8047" y2="245.8047"/><ellipse cx="48.5" cy="257.707" fill="#84BE84" rx="3" ry="3" style="stroke: #038048; stroke-width: 1.0;"/><text fill="#000000" font-family="sans-serif" font-size="11" lengthAdjust="spacingAndGlyphs" textLength="169" x="57.5" y="260.0151">readString(String title): String</text><ellipse cx="48.5" cy="270.5117" fill="#84BE84" rx="3" ry="3" style="stroke: #038048; stroke-width: 1.0;"/><text fill="#000000" font-family="sans-serif" font-size="11" lengthAdjust="spacingAndGlyphs" textLength="110" x="57.5" y="272.8198">readString(): String</text><ellipse cx="48.5" cy="283.3164" fill="#84BE84" rx="3" ry="3" style="stroke: #038048; stroke-width: 1.0;"/><text fill="#000000" font-family="sans-serif" font-size="11" lengthAdjust="spacingAndGlyphs" textLength="129" x="57.5" y="285.6245">readInt(String title): int</text><ellipse cx="48.5" cy="296.1211" fill="#84BE84" rx="3" ry="3" style="stroke: #038048; stroke-width: 1.0;"/><text fill="#000000" font-family="sans-serif" font-size="11" lengthAdjust="spacingAndGlyphs" textLength="153" x="57.5" y="298.4292">readChar(String title): char</text><ellipse cx="48.5" cy="308.9258" fill="#84BE84" rx="3" ry="3" style="stroke: #038048; stroke-width: 1.0;"/><text fill="#000000" font-family="sans-serif" font-size="11" lengthAdjust="spacingAndGlyphs" textLength="77" x="57.5" y="311.2339">writeln(): void</text><ellipse cx="48.5" cy="321.7305" fill="#84BE84" rx="3" ry="3" style="stroke: #038048; stroke-width: 1.0;"/><text fill="#000000" font-family="sans-serif" font-size="11" lengthAdjust="spacingAndGlyphs" textLength="138" x="57.5" y="324.0386">write(String string): void</text><ellipse cx="48.5" cy="334.5352" fill="#84BE84" rx="3" ry="3" style="stroke: #038048; stroke-width: 1.0;"/><text fill="#000000" font-family="sans-serif" font-size="11" lengthAdjust="spacingAndGlyphs" textLength="148" x="57.5" y="336.8433">writeln(String string): void</text><ellipse cx="48.5" cy="347.3398" fill="#84BE84" rx="3" ry="3" style="stroke: #038048; stroke-width: 1.0;"/><text fill="#000000" font-family="sans-serif" font-size="11" lengthAdjust="spacingAndGlyphs" textLength="150" x="57.5" y="349.6479">write(char character): void</text><rect fill="#F24D5C" height="6" style="stroke: #C82930; stroke-width: 1.0;" width="6" x="45.5" y="357.1445"/><text fill="#000000" font-family="sans-serif" font-size="11" lengthAdjust="spacingAndGlyphs" textLength="172" x="57.5" y="362.4526">writeError(String format): void</text><!--class mastermind.utils.WithConsoleView--><rect fill="#FEFECE" filter="url(#fek89kr2j6k14)" height="73.6094" id="mastermind.utils.WithConsoleView" style="stroke: #A80036; stroke-width: 1.5;" width="138" x="210" y="59"/><ellipse cx="225" cy="75" fill="#A9DCDF" rx="11" ry="11" style="stroke: #A80036; stroke-width: 1.0;"/><path d="M225.1094,70.3438 L223.9531,75.4219 L226.2813,75.4219 L225.1094,70.3438 Z M223.625,68.1094 L226.6094,68.1094 L229.9688,80.5 L227.5156,80.5 L226.75,77.4375 L223.4688,77.4375 L222.7188,80.5 L220.2813,80.5 L223.625,68.1094 Z "/><text fill="#000000" font-family="sans-serif" font-size="12" font-style="italic" lengthAdjust="spacingAndGlyphs" textLength="106" x="239" y="79.1543">WithConsoleView</text><line style="stroke: #A80036; stroke-width: 1.5;" x1="211" x2="347" y1="91" y2="91"/><polygon fill="none" points="221,97.9023,225,101.9023,221,105.9023,217,101.9023" style="stroke: #B38D22; stroke-width: 1.0;"/><text fill="#000000" font-family="sans-serif" font-size="11" lengthAdjust="spacingAndGlyphs" textLength="98" x="230" y="105.2104">console: Console</text><line style="stroke: #A80036; stroke-width: 1.5;" x1="211" x2="347" y1="111.8047" y2="111.8047"/><polygon fill="#FFFF44" points="221,118.707,225,122.707,221,126.707,217,122.707" style="stroke: #B38D22; stroke-width: 1.0;"/><text fill="#000000" font-family="sans-serif" font-size="11" lengthAdjust="spacingAndGlyphs" textLength="103" x="230" y="126.0151">WithConsoleView()</text><!--class mastermind.utils.YesNoDialog--><rect fill="#FEFECE" filter="url(#fek89kr2j6k14)" height="150.4375" id="mastermind.utils.YesNoDialog" style="stroke: #A80036; stroke-width: 1.5;" width="179" x="311.5" y="206"/><ellipse cx="357.75" cy="222" fill="#ADD1B2" rx="11" ry="11" style="stroke: #A80036; stroke-width: 1.0;"/><path d="M360.7188,227.6406 Q360.1406,227.9375 359.5,228.0781 Q358.8594,228.2344 358.1563,228.2344 Q355.6563,228.2344 354.3281,226.5938 Q353.0156,224.9375 353.0156,221.8125 Q353.0156,218.6875 354.3281,217.0313 Q355.6563,215.375 358.1563,215.375 Q358.8594,215.375 359.5,215.5313 Q360.1563,215.6875 360.7188,215.9844 L360.7188,218.7031 Q360.0938,218.125 359.5,217.8594 Q358.9063,217.5781 358.2813,217.5781 Q356.9375,217.5781 356.25,218.6563 Q355.5625,219.7188 355.5625,221.8125 Q355.5625,223.9063 356.25,224.9844 Q356.9375,226.0469 358.2813,226.0469 Q358.9063,226.0469 359.5,225.7813 Q360.0938,225.5 360.7188,224.9219 L360.7188,227.6406 Z "/><text fill="#000000" font-family="sans-serif" font-size="12" lengthAdjust="spacingAndGlyphs" textLength="78" x="378.25" y="226.1543">YesNoDialog</text><line style="stroke: #A80036; stroke-width: 1.5;" x1="312.5" x2="489.5" y1="238" y2="238"/><rect fill="none" height="6" style="stroke: #C82930; stroke-width: 1.0;" width="6" x="319.5" y="246.9023"/><text fill="#000000" font-family="sans-serif" font-size="11" lengthAdjust="spacingAndGlyphs" text-decoration="underline" textLength="96" x="331.5" y="252.2104">AFIRMATIVE: char</text><rect fill="none" height="6" style="stroke: #C82930; stroke-width: 1.0;" width="6" x="319.5" y="259.707"/><text fill="#000000" font-family="sans-serif" font-size="11" lengthAdjust="spacingAndGlyphs" text-decoration="underline" textLength="88" x="331.5" y="265.0151">NEGATIVE: char</text><rect fill="none" height="6" style="stroke: #C82930; stroke-width: 1.0;" width="6" x="319.5" y="272.5117"/><text fill="#000000" font-family="sans-serif" font-size="11" lengthAdjust="spacingAndGlyphs" text-decoration="underline" textLength="101" x="331.5" y="277.8198">QUESTION: String</text><rect fill="none" height="6" style="stroke: #C82930; stroke-width: 1.0;" width="6" x="319.5" y="285.3164"/><text fill="#000000" font-family="sans-serif" font-size="11" lengthAdjust="spacingAndGlyphs" text-decoration="underline" textLength="97" x="331.5" y="290.6245">MESSAGE: String</text><line style="stroke: #A80036; stroke-width: 1.5;" x1="312.5" x2="489.5" y1="297.2188" y2="297.2188"/><ellipse cx="322.5" cy="309.1211" fill="#84BE84" rx="3" ry="3" style="stroke: #038048; stroke-width: 1.0;"/><text fill="#000000" font-family="sans-serif" font-size="11" lengthAdjust="spacingAndGlyphs" textLength="121" x="331.5" y="311.4292">read(String): boolean</text><ellipse cx="322.5" cy="321.9258" fill="#84BE84" rx="3" ry="3" style="stroke: #038048; stroke-width: 1.0;"/><text fill="#000000" font-family="sans-serif" font-size="11" lengthAdjust="spacingAndGlyphs" textLength="87" x="331.5" y="324.2339">read(): boolean</text><rect fill="#F24D5C" height="6" style="stroke: #C82930; stroke-width: 1.0;" width="6" x="319.5" y="331.7305"/><text fill="#000000" font-family="sans-serif" font-size="11" lengthAdjust="spacingAndGlyphs" text-decoration="underline" textLength="153" x="331.5" y="337.0386">isAfirmative(char): boolean</text><rect fill="#F24D5C" height="6" style="stroke: #C82930; stroke-width: 1.0;" width="6" x="319.5" y="344.5352"/><text fill="#000000" font-family="sans-serif" font-size="11" lengthAdjust="spacingAndGlyphs" text-decoration="underline" textLength="145" x="331.5" y="349.8433">isNegative(char): boolean</text><!--link mastermind.utils.WithConsoleView to mastermind.utils.Console--><path d="M247.6,144.11 C239.83,155.75 231.23,168.65 222.5,181.74 " fill="none" id="mastermind.utils.WithConsoleView-mastermind.utils.Console" style="stroke: #A80036; stroke-width: 1.0;"/><polygon fill="#A80036" points="215.16,192.76,223.4821,187.4929,217.9348,188.6006,216.8271,183.0533,215.16,192.76" style="stroke: #A80036; stroke-width: 1.0;"/><line style="stroke: #A80036; stroke-width: 1.0;" x1="217.9348" x2="222.375" y1="188.6006" y2="181.945"/><polygon fill="#A80036" points="254.9,133.15,248.2428,135.9215,248.2406,143.1326,254.8978,140.3611,254.9,133.15" style="stroke: #A80036; stroke-width: 1.0;"/><!--link mastermind.utils.WithConsoleView to mastermind.utils.YesNoDialog--><path d="M314.33,149.99 C325.92,167.38 339.02,187.03 351.47,205.7 " fill="none" id="mastermind.utils.WithConsoleView-mastermind.utils.YesNoDialog" style="stroke: #A80036; stroke-width: 1.0;"/><polygon fill="none" points="308.37,153.68,303.1,133.15,320.02,145.91,308.37,153.68" style="stroke: #A80036; stroke-width: 1.0;"/><!--
@startuml

class mastermind.utils.Console {
- final bufferedReader: BufferedReader
+ readString(String title): String
+ readString(): String
+ readInt(String title): int
+ readChar(String title): char
+ writeln(): void
+ write(String string): void
+ writeln(String string): void
+ write(char character): void
- writeError(String format): void
}

abstract class mastermind.utils.WithConsoleView{
# console: Console
# WithConsoleView()
}
mastermind.utils.WithConsoleView *-down-> mastermind.utils.Console

class  mastermind.utils.YesNoDialog extends mastermind.utils.WithConsoleView{
- {static} AFIRMATIVE: char
- {static} NEGATIVE: char
- {static} QUESTION: String
- {static} MESSAGE: String
+ read(String): boolean
+ read(): boolean
- {static} isAfirmative(char): boolean
- {static} isNegative(char): boolean
}
@enduml

PlantUML version 1.2019.05(Sat Apr 20 18:45:36 CEST 2019)
(GPL source distribution)
Java Runtime: OpenJDK Runtime Environment
JVM: OpenJDK 64-Bit Server VM
Java Version: 1.8.0_265-8u265-b01-0ubuntu2~20.04-b01
Operating System: Linux
OS Version: 5.4.0-51-generic
Default Encoding: UTF-8
Language: es
Country: ES
--></g></svg>