<?xml version="1.0" encoding="UTF-8" standalone="no"?><svg xmlns="http://www.w3.org/2000/svg" xmlns:xlink="http://www.w3.org/1999/xlink" contentScriptType="application/ecmascript" contentStyleType="text/css" height="704px" preserveAspectRatio="none" style="width:2107px;height:704px;" version="1.1" viewBox="0 0 2107 704" width="2107px" zoomAndPan="magnify"><defs><filter height="300%" id="f45pf78ife4lw" width="300%" x="-1" y="-1"><feGaussianBlur result="blurOut" stdDeviation="2.0"/><feColorMatrix in="blurOut" result="blurOut2" type="matrix" values="0 0 0 0 0 0 0 0 0 0 0 0 0 0 0 0 0 0 .4 0"/><feOffset dx="4.0" dy="4.0" in="blurOut2" result="blurOut3"/><feBlend in="SourceGraphic" in2="blurOut3" mode="normal"/></filter></defs><g><!--cluster mastermind.controllers--><polygon fill="#FFFFFF" filter="url(#f45pf78ife4lw)" points="22,24,212,24,219,46.2969,1490,46.2969,1490,569,22,569,22,24" style="stroke: #000000; stroke-width: 1.5;"/><line style="stroke: #000000; stroke-width: 1.5;" x1="22" x2="219" y1="46.2969" y2="46.2969"/><text fill="#000000" font-family="sans-serif" font-size="14" font-weight="bold" lengthAdjust="spacingAndGlyphs" textLength="184" x="26" y="38.9951">mastermind.controllers</text><!--cluster mastermind.models--><polygon fill="#FFFFFF" filter="url(#f45pf78ife4lw)" points="1514,221.5,1675,221.5,1682,243.7969,2057,243.7969,2057,320.5,1514,320.5,1514,221.5" style="stroke: #000000; stroke-width: 1.5;"/><line style="stroke: #000000; stroke-width: 1.5;" x1="1514" x2="1682" y1="243.7969" y2="243.7969"/><text fill="#000000" font-family="sans-serif" font-size="14" font-weight="bold" lengthAdjust="spacingAndGlyphs" textLength="155" x="1518" y="236.4951">mastermind.models</text><!--cluster mastermind.views--><polygon fill="#FFFFFF" filter="url(#f45pf78ife4lw)" points="735,593,885,593,892,615.2969,895,615.2969,895,692,735,692,735,593" style="stroke: #000000; stroke-width: 1.5;"/><line style="stroke: #000000; stroke-width: 1.5;" x1="735" x2="892" y1="615.2969" y2="615.2969"/><text fill="#000000" font-family="sans-serif" font-size="14" font-weight="bold" lengthAdjust="spacingAndGlyphs" textLength="144" x="739" y="607.9951">mastermind.views</text><!--class mastermind.controllers.AddProposalController--><a href="AddProposalController.html" target="_top" xlink:actuate="onRequest" xlink:show="new" xlink:title="AddProposalController.html" xlink:type="simple"><rect fill="#FEFECE" filter="url(#f45pf78ife4lw)" height="99.2188" id="mastermind.controllers.AddProposalController" style="stroke: #A80036; stroke-width: 1.5;" width="465" x="1008.5" y="428.5"/><ellipse cx="1166.75" cy="444.5" fill="#ADD1B2" rx="11" ry="11" style="stroke: #A80036; stroke-width: 1.0;"/><path d="M1169.7188,450.1406 Q1169.1406,450.4375 1168.5,450.5781 Q1167.8594,450.7344 1167.1563,450.7344 Q1164.6563,450.7344 1163.3281,449.0938 Q1162.0156,447.4375 1162.0156,444.3125 Q1162.0156,441.1875 1163.3281,439.5313 Q1164.6563,437.875 1167.1563,437.875 Q1167.8594,437.875 1168.5,438.0313 Q1169.1563,438.1875 1169.7188,438.4844 L1169.7188,441.2031 Q1169.0938,440.625 1168.5,440.3594 Q1167.9063,440.0781 1167.2813,440.0781 Q1165.9375,440.0781 1165.25,441.1563 Q1164.5625,442.2188 1164.5625,444.3125 Q1164.5625,446.4063 1165.25,447.4844 Q1165.9375,448.5469 1167.2813,448.5469 Q1167.9063,448.5469 1168.5,448.2813 Q1169.0938,448 1169.7188,447.4219 L1169.7188,450.1406 Z "/><text fill="#000000" font-family="sans-serif" font-size="12" lengthAdjust="spacingAndGlyphs" textLength="140" x="1187.25" y="448.6543">AddProposalController</text><line style="stroke: #A80036; stroke-width: 1.5;" x1="1009.5" x2="1472.5" y1="460.5" y2="460.5"/><rect fill="none" height="6" style="stroke: #C82930; stroke-width: 1.0;" width="6" x="1016.5" y="469.4023"/><text fill="#000000" font-family="sans-serif" font-size="11" lengthAdjust="spacingAndGlyphs" text-decoration="underline" textLength="217" x="1028.5" y="474.7104">final PROPOSED_COMBINATION: String</text><line style="stroke: #A80036; stroke-width: 1.5;" x1="1009.5" x2="1472.5" y1="481.3047" y2="481.3047"/><ellipse cx="1019.5" cy="493.207" fill="#84BE84" rx="3" ry="3" style="stroke: #038048; stroke-width: 1.0;"/><text fill="#000000" font-family="sans-serif" font-size="11" lengthAdjust="spacingAndGlyphs" textLength="352" x="1028.5" y="495.5151">AddProposalController(Game, State, ViewFactory viewFactory)</text><rect fill="#F24D5C" height="6" style="stroke: #C82930; stroke-width: 1.0;" width="6" x="1016.5" y="503.0117"/><text fill="#000000" font-family="sans-serif" font-size="11" lengthAdjust="spacingAndGlyphs" textLength="439" x="1028.5" y="508.3198">addProposedCombination(ProposedCombination proposedCombination): void</text><ellipse cx="1019.5" cy="518.8164" fill="#84BE84" rx="3" ry="3" style="stroke: #038048; stroke-width: 1.0;"/><text fill="#000000" font-family="sans-serif" font-size="11" lengthAdjust="spacingAndGlyphs" textLength="83" x="1028.5" y="521.1245">execute(): void</text></a><!--class mastermind.controllers.UseCaseController--><a href="UseCaseController.html" target="_top" xlink:actuate="onRequest" xlink:show="new" xlink:title="UseCaseController.html" xlink:type="simple"><rect fill="#FEFECE" filter="url(#f45pf78ife4lw)" height="124.8281" id="mastermind.controllers.UseCaseController" style="stroke: #A80036; stroke-width: 1.5;" width="146" x="742" y="218"/><ellipse cx="757" cy="234" fill="#A9DCDF" rx="11" ry="11" style="stroke: #A80036; stroke-width: 1.0;"/><path d="M757.1094,229.3438 L755.9531,234.4219 L758.2813,234.4219 L757.1094,229.3438 Z M755.625,227.1094 L758.6094,227.1094 L761.9688,239.5 L759.5156,239.5 L758.75,236.4375 L755.4688,236.4375 L754.7188,239.5 L752.2813,239.5 L755.625,227.1094 Z "/><text fill="#000000" font-family="sans-serif" font-size="12" font-style="italic" lengthAdjust="spacingAndGlyphs" textLength="114" x="771" y="238.1543">UseCaseController</text><line style="stroke: #A80036; stroke-width: 1.5;" x1="743" x2="887" y1="250" y2="250"/><polygon fill="none" points="753,256.9023,757,260.9023,753,264.9023,749,260.9023" style="stroke: #B38D22; stroke-width: 1.0;"/><text fill="#000000" font-family="sans-serif" font-size="11" lengthAdjust="spacingAndGlyphs" textLength="74" x="762" y="264.2104">game: Game</text><polygon fill="none" points="753,269.707,757,273.707,753,277.707,749,273.707" style="stroke: #B38D22; stroke-width: 1.0;"/><text fill="#000000" font-family="sans-serif" font-size="11" lengthAdjust="spacingAndGlyphs" textLength="67" x="762" y="277.0151">state: State</text><polygon fill="none" points="753,282.5117,757,286.5117,753,290.5117,749,286.5117" style="stroke: #B38D22; stroke-width: 1.0;"/><text fill="#000000" font-family="sans-serif" font-size="11" lengthAdjust="spacingAndGlyphs" textLength="59" x="762" y="289.8198">view: View</text><line style="stroke: #A80036; stroke-width: 1.5;" x1="743" x2="887" y1="296.4141" y2="296.4141"/><ellipse cx="753" cy="308.3164" fill="#84BE84" rx="3" ry="3" style="stroke: #038048; stroke-width: 1.0;"/><text fill="#000000" font-family="sans-serif" font-size="11" lengthAdjust="spacingAndGlyphs" textLength="63" x="762" y="310.6245">next(): void</text><ellipse cx="753" cy="321.1211" fill="#84BE84" rx="3" ry="3" style="stroke: #038048; stroke-width: 1.0;"/><text fill="#000000" font-family="sans-serif" font-size="11" font-style="italic" lengthAdjust="spacingAndGlyphs" textLength="106" x="762" y="323.4292">createView(): View</text><ellipse cx="753" cy="333.9258" fill="#84BE84" rx="3" ry="3" style="stroke: #038048; stroke-width: 1.0;"/><text fill="#000000" font-family="sans-serif" font-size="11" font-style="italic" lengthAdjust="spacingAndGlyphs" textLength="85" x="762" y="336.2339">execute(): void</text></a><!--class mastermind.controllers.Logic--><a href="Logic.html" target="_top" xlink:actuate="onRequest" xlink:show="new" xlink:title="Logic.html" xlink:type="simple"><rect fill="#FEFECE" filter="url(#f45pf78ife4lw)" height="99.2188" id="mastermind.controllers.Logic" style="stroke: #A80036; stroke-width: 1.5;" width="340" x="1039" y="59"/><ellipse cx="1188.75" cy="75" fill="#ADD1B2" rx="11" ry="11" style="stroke: #A80036; stroke-width: 1.0;"/><path d="M1191.7188,80.6406 Q1191.1406,80.9375 1190.5,81.0781 Q1189.8594,81.2344 1189.1563,81.2344 Q1186.6563,81.2344 1185.3281,79.5938 Q1184.0156,77.9375 1184.0156,74.8125 Q1184.0156,71.6875 1185.3281,70.0313 Q1186.6563,68.375 1189.1563,68.375 Q1189.8594,68.375 1190.5,68.5313 Q1191.1563,68.6875 1191.7188,68.9844 L1191.7188,71.7031 Q1191.0938,71.125 1190.5,70.8594 Q1189.9063,70.5781 1189.2813,70.5781 Q1187.9375,70.5781 1187.25,71.6563 Q1186.5625,72.7188 1186.5625,74.8125 Q1186.5625,76.9063 1187.25,77.9844 Q1187.9375,79.0469 1189.2813,79.0469 Q1189.9063,79.0469 1190.5,78.7813 Q1191.0938,78.5 1191.7188,77.9219 L1191.7188,80.6406 Z "/><text fill="#000000" font-family="sans-serif" font-size="12" lengthAdjust="spacingAndGlyphs" textLength="32" x="1209.25" y="79.1543">Logic</text><line style="stroke: #A80036; stroke-width: 1.5;" x1="1040" x2="1378" y1="91" y2="91"/><rect fill="none" height="6" style="stroke: #C82930; stroke-width: 1.0;" width="6" x="1047" y="99.9023"/><text fill="#000000" font-family="sans-serif" font-size="11" lengthAdjust="spacingAndGlyphs" textLength="95" x="1059" y="105.2104">final state: State</text><rect fill="none" height="6" style="stroke: #C82930; stroke-width: 1.0;" width="6" x="1047" y="112.707"/><text fill="#000000" font-family="sans-serif" font-size="11" lengthAdjust="spacingAndGlyphs" textLength="314" x="1059" y="118.0151">final controllers: Map&lt;StateValue, UseCaseController&gt;</text><line style="stroke: #A80036; stroke-width: 1.5;" x1="1040" x2="1378" y1="124.6094" y2="124.6094"/><ellipse cx="1050" cy="136.5117" fill="#84BE84" rx="3" ry="3" style="stroke: #038048; stroke-width: 1.0;"/><text fill="#000000" font-family="sans-serif" font-size="11" lengthAdjust="spacingAndGlyphs" textLength="174" x="1059" y="138.8198">Logic(ViewFactory viewFactory)</text><ellipse cx="1050" cy="149.3164" fill="#84BE84" rx="3" ry="3" style="stroke: #038048; stroke-width: 1.0;"/><text fill="#000000" font-family="sans-serif" font-size="11" lengthAdjust="spacingAndGlyphs" textLength="197" x="1059" y="151.6245">getController(): UseCaseController</text></a><!--class mastermind.controllers.StartController--><a href="StartController.html" target="_top" xlink:actuate="onRequest" xlink:show="new" xlink:title="StartController.html" xlink:type="simple"><rect fill="#FEFECE" filter="url(#f45pf78ife4lw)" height="73.6094" id="mastermind.controllers.StartController" style="stroke: #A80036; stroke-width: 1.5;" width="265" x="38.5" y="441"/><ellipse cx="120.75" cy="457" fill="#ADD1B2" rx="11" ry="11" style="stroke: #A80036; stroke-width: 1.0;"/><path d="M123.7188,462.6406 Q123.1406,462.9375 122.5,463.0781 Q121.8594,463.2344 121.1563,463.2344 Q118.6563,463.2344 117.3281,461.5938 Q116.0156,459.9375 116.0156,456.8125 Q116.0156,453.6875 117.3281,452.0313 Q118.6563,450.375 121.1563,450.375 Q121.8594,450.375 122.5,450.5313 Q123.1563,450.6875 123.7188,450.9844 L123.7188,453.7031 Q123.0938,453.125 122.5,452.8594 Q121.9063,452.5781 121.2813,452.5781 Q119.9375,452.5781 119.25,453.6563 Q118.5625,454.7188 118.5625,456.8125 Q118.5625,458.9063 119.25,459.9844 Q119.9375,461.0469 121.2813,461.0469 Q121.9063,461.0469 122.5,460.7813 Q123.0938,460.5 123.7188,459.9219 L123.7188,462.6406 Z "/><text fill="#000000" font-family="sans-serif" font-size="12" lengthAdjust="spacingAndGlyphs" textLength="92" x="141.25" y="461.1543">StartController</text><line style="stroke: #A80036; stroke-width: 1.5;" x1="39.5" x2="302.5" y1="473" y2="473"/><line style="stroke: #A80036; stroke-width: 1.5;" x1="39.5" x2="302.5" y1="481" y2="481"/><ellipse cx="49.5" cy="492.9023" fill="#84BE84" rx="3" ry="3" style="stroke: #038048; stroke-width: 1.0;"/><text fill="#000000" font-family="sans-serif" font-size="11" lengthAdjust="spacingAndGlyphs" textLength="239" x="58.5" y="495.2104">StartController(Game, State, ViewFactory)</text><ellipse cx="49.5" cy="505.707" fill="#84BE84" rx="3" ry="3" style="stroke: #038048; stroke-width: 1.0;"/><text fill="#000000" font-family="sans-serif" font-size="11" lengthAdjust="spacingAndGlyphs" textLength="83" x="58.5" y="508.0151">execute(): void</text></a><!--class mastermind.controllers.PlayController--><a href="PlayController.html" target="_top" xlink:actuate="onRequest" xlink:show="new" xlink:title="PlayController.html" xlink:type="simple"><rect fill="#FEFECE" filter="url(#f45pf78ife4lw)" height="150.4375" id="mastermind.controllers.PlayController" style="stroke: #A80036; stroke-width: 1.5;" width="316" x="657" y="403"/><ellipse cx="767.75" cy="419" fill="#ADD1B2" rx="11" ry="11" style="stroke: #A80036; stroke-width: 1.0;"/><path d="M770.7188,424.6406 Q770.1406,424.9375 769.5,425.0781 Q768.8594,425.2344 768.1563,425.2344 Q765.6563,425.2344 764.3281,423.5938 Q763.0156,421.9375 763.0156,418.8125 Q763.0156,415.6875 764.3281,414.0313 Q765.6563,412.375 768.1563,412.375 Q768.8594,412.375 769.5,412.5313 Q770.1563,412.6875 770.7188,412.9844 L770.7188,415.7031 Q770.0938,415.125 769.5,414.8594 Q768.9063,414.5781 768.2813,414.5781 Q766.9375,414.5781 766.25,415.6563 Q765.5625,416.7188 765.5625,418.8125 Q765.5625,420.9063 766.25,421.9844 Q766.9375,423.0469 768.2813,423.0469 Q768.9063,423.0469 769.5,422.7813 Q770.0938,422.5 770.7188,421.9219 L770.7188,424.6406 Z "/><text fill="#000000" font-family="sans-serif" font-size="12" lengthAdjust="spacingAndGlyphs" textLength="86" x="788.25" y="423.1543">PlayController</text><line style="stroke: #A80036; stroke-width: 1.5;" x1="658" x2="972" y1="435" y2="435"/><rect fill="none" height="6" style="stroke: #C82930; stroke-width: 1.0;" width="6" x="665" y="443.9023"/><text fill="#000000" font-family="sans-serif" font-size="11" lengthAdjust="spacingAndGlyphs" text-decoration="underline" textLength="167" x="677" y="449.2104">final String ATTEMPTS: String</text><rect fill="none" height="6" style="stroke: #C82930; stroke-width: 1.0;" width="6" x="665" y="456.707"/><text fill="#000000" font-family="sans-serif" font-size="11" lengthAdjust="spacingAndGlyphs" text-decoration="underline" textLength="263" x="677" y="462.0151">final String PROPOSED_COMBINATIONS: String</text><rect fill="none" height="6" style="stroke: #C82930; stroke-width: 1.0;" width="6" x="665" y="469.5117"/><text fill="#000000" font-family="sans-serif" font-size="11" lengthAdjust="spacingAndGlyphs" text-decoration="underline" textLength="159" x="677" y="474.8198">final String RESULTS: String</text><rect fill="none" height="6" style="stroke: #C82930; stroke-width: 1.0;" width="6" x="665" y="482.3164"/><text fill="#000000" font-family="sans-serif" font-size="11" lengthAdjust="spacingAndGlyphs" text-decoration="underline" textLength="167" x="677" y="487.6245">final String IS_WINNER: String</text><rect fill="none" height="6" style="stroke: #C82930; stroke-width: 1.0;" width="6" x="665" y="495.1211"/><text fill="#000000" font-family="sans-serif" font-size="11" lengthAdjust="spacingAndGlyphs" text-decoration="underline" textLength="171" x="677" y="500.4292">final String IS_LOOSER: String</text><polygon fill="none" points="668,505.9258,672,509.9258,668,513.9258,664,509.9258" style="stroke: #B38D22; stroke-width: 1.0;"/><text fill="#000000" font-family="sans-serif" font-size="11" lengthAdjust="spacingAndGlyphs" textLength="290" x="677" y="513.2339">final addProposalController: AddProposalController</text><line style="stroke: #A80036; stroke-width: 1.5;" x1="658" x2="972" y1="519.8281" y2="519.8281"/><ellipse cx="668" cy="531.7305" fill="#84BE84" rx="3" ry="3" style="stroke: #038048; stroke-width: 1.0;"/><text fill="#000000" font-family="sans-serif" font-size="11" lengthAdjust="spacingAndGlyphs" textLength="234" x="677" y="534.0386">PlayController(Game, State, ViewFactory)</text><ellipse cx="668" cy="544.5352" fill="#84BE84" rx="3" ry="3" style="stroke: #038048; stroke-width: 1.0;"/><text fill="#000000" font-family="sans-serif" font-size="11" lengthAdjust="spacingAndGlyphs" textLength="83" x="677" y="546.8433">execute(): void</text></a><!--class mastermind.controllers.ResumeController--><a href="ResumeController.html" target="_top" xlink:actuate="onRequest" xlink:show="new" xlink:title="ResumeController.html" xlink:type="simple"><rect fill="#FEFECE" filter="url(#f45pf78ife4lw)" height="99.2188" id="mastermind.controllers.ResumeController" style="stroke: #A80036; stroke-width: 1.5;" width="283" x="338.5" y="428.5"/><ellipse cx="420.25" cy="444.5" fill="#ADD1B2" rx="11" ry="11" style="stroke: #A80036; stroke-width: 1.0;"/><path d="M423.2188,450.1406 Q422.6406,450.4375 422,450.5781 Q421.3594,450.7344 420.6563,450.7344 Q418.1563,450.7344 416.8281,449.0938 Q415.5156,447.4375 415.5156,444.3125 Q415.5156,441.1875 416.8281,439.5313 Q418.1563,437.875 420.6563,437.875 Q421.3594,437.875 422,438.0313 Q422.6563,438.1875 423.2188,438.4844 L423.2188,441.2031 Q422.5938,440.625 422,440.3594 Q421.4063,440.0781 420.7813,440.0781 Q419.4375,440.0781 418.75,441.1563 Q418.0625,442.2188 418.0625,444.3125 Q418.0625,446.4063 418.75,447.4844 Q419.4375,448.5469 420.7813,448.5469 Q421.4063,448.5469 422,448.2813 Q422.5938,448 423.2188,447.4219 L423.2188,450.1406 Z "/><text fill="#000000" font-family="sans-serif" font-size="12" lengthAdjust="spacingAndGlyphs" textLength="111" x="440.75" y="448.6543">ResumeController</text><line style="stroke: #A80036; stroke-width: 1.5;" x1="339.5" x2="620.5" y1="460.5" y2="460.5"/><rect fill="none" height="6" style="stroke: #C82930; stroke-width: 1.0;" width="6" x="346.5" y="469.4023"/><text fill="#000000" font-family="sans-serif" font-size="11" lengthAdjust="spacingAndGlyphs" text-decoration="underline" textLength="132" x="358.5" y="474.7104">final NEW_GAME: String</text><line style="stroke: #A80036; stroke-width: 1.5;" x1="339.5" x2="620.5" y1="481.3047" y2="481.3047"/><ellipse cx="349.5" cy="493.207" fill="#84BE84" rx="3" ry="3" style="stroke: #038048; stroke-width: 1.0;"/><text fill="#000000" font-family="sans-serif" font-size="11" lengthAdjust="spacingAndGlyphs" textLength="257" x="358.5" y="495.5151">ResumeController(Game, State, ViewFactory)</text><rect fill="#F24D5C" height="6" style="stroke: #C82930; stroke-width: 1.0;" width="6" x="346.5" y="503.0117"/><text fill="#000000" font-family="sans-serif" font-size="11" lengthAdjust="spacingAndGlyphs" textLength="83" x="358.5" y="508.3198">resume(): void</text><ellipse cx="349.5" cy="518.8164" fill="#84BE84" rx="3" ry="3" style="stroke: #038048; stroke-width: 1.0;"/><text fill="#000000" font-family="sans-serif" font-size="11" lengthAdjust="spacingAndGlyphs" textLength="83" x="358.5" y="521.1245">execute(): void</text></a><!--class mastermind.models.ProposedCombination--><rect fill="#FEFECE" filter="url(#f45pf78ife4lw)" height="48" id="mastermind.models.ProposedCombination" style="stroke: #A80036; stroke-width: 1.5;" width="170" x="1667" y="256.5"/><ellipse cx="1682" cy="272.5" fill="#ADD1B2" rx="11" ry="11" style="stroke: #A80036; stroke-width: 1.0;"/><path d="M1684.9688,278.1406 Q1684.3906,278.4375 1683.75,278.5781 Q1683.1094,278.7344 1682.4063,278.7344 Q1679.9063,278.7344 1678.5781,277.0938 Q1677.2656,275.4375 1677.2656,272.3125 Q1677.2656,269.1875 1678.5781,267.5313 Q1679.9063,265.875 1682.4063,265.875 Q1683.1094,265.875 1683.75,266.0313 Q1684.4063,266.1875 1684.9688,266.4844 L1684.9688,269.2031 Q1684.3438,268.625 1683.75,268.3594 Q1683.1563,268.0781 1682.5313,268.0781 Q1681.1875,268.0781 1680.5,269.1563 Q1679.8125,270.2188 1679.8125,272.3125 Q1679.8125,274.4063 1680.5,275.4844 Q1681.1875,276.5469 1682.5313,276.5469 Q1683.1563,276.5469 1683.75,276.2813 Q1684.3438,276 1684.9688,275.4219 L1684.9688,278.1406 Z "/><text fill="#000000" font-family="sans-serif" font-size="12" lengthAdjust="spacingAndGlyphs" textLength="138" x="1696" y="276.6543">ProposedCombination</text><line style="stroke: #A80036; stroke-width: 1.5;" x1="1668" x2="1836" y1="288.5" y2="288.5"/><line style="stroke: #A80036; stroke-width: 1.5;" x1="1668" x2="1836" y1="296.5" y2="296.5"/><!--class mastermind.models.State--><rect fill="#FEFECE" filter="url(#f45pf78ife4lw)" height="48" id="mastermind.models.State" style="stroke: #A80036; stroke-width: 1.5;" width="66" x="1975" y="256.5"/><ellipse cx="1990" cy="272.5" fill="#ADD1B2" rx="11" ry="11" style="stroke: #A80036; stroke-width: 1.0;"/><path d="M1992.9688,278.1406 Q1992.3906,278.4375 1991.75,278.5781 Q1991.1094,278.7344 1990.4063,278.7344 Q1987.9063,278.7344 1986.5781,277.0938 Q1985.2656,275.4375 1985.2656,272.3125 Q1985.2656,269.1875 1986.5781,267.5313 Q1987.9063,265.875 1990.4063,265.875 Q1991.1094,265.875 1991.75,266.0313 Q1992.4063,266.1875 1992.9688,266.4844 L1992.9688,269.2031 Q1992.3438,268.625 1991.75,268.3594 Q1991.1563,268.0781 1990.5313,268.0781 Q1989.1875,268.0781 1988.5,269.1563 Q1987.8125,270.2188 1987.8125,272.3125 Q1987.8125,274.4063 1988.5,275.4844 Q1989.1875,276.5469 1990.5313,276.5469 Q1991.1563,276.5469 1991.75,276.2813 Q1992.3438,276 1992.9688,275.4219 L1992.9688,278.1406 Z "/><text fill="#000000" font-family="sans-serif" font-size="12" lengthAdjust="spacingAndGlyphs" textLength="34" x="2004" y="276.6543">State</text><line style="stroke: #A80036; stroke-width: 1.5;" x1="1976" x2="2040" y1="288.5" y2="288.5"/><line style="stroke: #A80036; stroke-width: 1.5;" x1="1976" x2="2040" y1="296.5" y2="296.5"/><!--class mastermind.models.StateValue--><rect fill="#FEFECE" filter="url(#f45pf78ife4lw)" height="48" id="mastermind.models.StateValue" style="stroke: #A80036; stroke-width: 1.5;" width="101" x="1530.5" y="256.5"/><ellipse cx="1545.5" cy="272.5" fill="#ADD1B2" rx="11" ry="11" style="stroke: #A80036; stroke-width: 1.0;"/><path d="M1548.4688,278.1406 Q1547.8906,278.4375 1547.25,278.5781 Q1546.6094,278.7344 1545.9063,278.7344 Q1543.4063,278.7344 1542.0781,277.0938 Q1540.7656,275.4375 1540.7656,272.3125 Q1540.7656,269.1875 1542.0781,267.5313 Q1543.4063,265.875 1545.9063,265.875 Q1546.6094,265.875 1547.25,266.0313 Q1547.9063,266.1875 1548.4688,266.4844 L1548.4688,269.2031 Q1547.8438,268.625 1547.25,268.3594 Q1546.6563,268.0781 1546.0313,268.0781 Q1544.6875,268.0781 1544,269.1563 Q1543.3125,270.2188 1543.3125,272.3125 Q1543.3125,274.4063 1544,275.4844 Q1544.6875,276.5469 1546.0313,276.5469 Q1546.6563,276.5469 1547.25,276.2813 Q1547.8438,276 1548.4688,275.4219 L1548.4688,278.1406 Z "/><text fill="#000000" font-family="sans-serif" font-size="12" lengthAdjust="spacingAndGlyphs" textLength="69" x="1559.5" y="276.6543">StateValue</text><line style="stroke: #A80036; stroke-width: 1.5;" x1="1531.5" x2="1630.5" y1="288.5" y2="288.5"/><line style="stroke: #A80036; stroke-width: 1.5;" x1="1531.5" x2="1630.5" y1="296.5" y2="296.5"/><!--class mastermind.models.Game--><rect fill="#FEFECE" filter="url(#f45pf78ife4lw)" height="48" id="mastermind.models.Game" style="stroke: #A80036; stroke-width: 1.5;" width="68" x="1872" y="256.5"/><ellipse cx="1887" cy="272.5" fill="#ADD1B2" rx="11" ry="11" style="stroke: #A80036; stroke-width: 1.0;"/><path d="M1889.9688,278.1406 Q1889.3906,278.4375 1888.75,278.5781 Q1888.1094,278.7344 1887.4063,278.7344 Q1884.9063,278.7344 1883.5781,277.0938 Q1882.2656,275.4375 1882.2656,272.3125 Q1882.2656,269.1875 1883.5781,267.5313 Q1884.9063,265.875 1887.4063,265.875 Q1888.1094,265.875 1888.75,266.0313 Q1889.4063,266.1875 1889.9688,266.4844 L1889.9688,269.2031 Q1889.3438,268.625 1888.75,268.3594 Q1888.1563,268.0781 1887.5313,268.0781 Q1886.1875,268.0781 1885.5,269.1563 Q1884.8125,270.2188 1884.8125,272.3125 Q1884.8125,274.4063 1885.5,275.4844 Q1886.1875,276.5469 1887.5313,276.5469 Q1888.1563,276.5469 1888.75,276.2813 Q1889.3438,276 1889.9688,275.4219 L1889.9688,278.1406 Z "/><text fill="#000000" font-family="sans-serif" font-size="12" lengthAdjust="spacingAndGlyphs" textLength="36" x="1901" y="276.6543">Game</text><line style="stroke: #A80036; stroke-width: 1.5;" x1="1873" x2="1939" y1="288.5" y2="288.5"/><line style="stroke: #A80036; stroke-width: 1.5;" x1="1873" x2="1939" y1="296.5" y2="296.5"/><!--class mastermind.views.ViewFactory--><rect fill="#FEFECE" filter="url(#f45pf78ife4lw)" height="48" id="mastermind.views.ViewFactory" style="stroke: #A80036; stroke-width: 1.5;" width="106" x="762" y="628"/><ellipse cx="777" cy="644" fill="#ADD1B2" rx="11" ry="11" style="stroke: #A80036; stroke-width: 1.0;"/><path d="M779.9688,649.6406 Q779.3906,649.9375 778.75,650.0781 Q778.1094,650.2344 777.4063,650.2344 Q774.9063,650.2344 773.5781,648.5938 Q772.2656,646.9375 772.2656,643.8125 Q772.2656,640.6875 773.5781,639.0313 Q774.9063,637.375 777.4063,637.375 Q778.1094,637.375 778.75,637.5313 Q779.4063,637.6875 779.9688,637.9844 L779.9688,640.7031 Q779.3438,640.125 778.75,639.8594 Q778.1563,639.5781 777.5313,639.5781 Q776.1875,639.5781 775.5,640.6563 Q774.8125,641.7188 774.8125,643.8125 Q774.8125,645.9063 775.5,646.9844 Q776.1875,648.0469 777.5313,648.0469 Q778.1563,648.0469 778.75,647.7813 Q779.3438,647.5 779.9688,646.9219 L779.9688,649.6406 Z "/><text fill="#000000" font-family="sans-serif" font-size="12" lengthAdjust="spacingAndGlyphs" textLength="74" x="791" y="648.1543">ViewFactory</text><line style="stroke: #A80036; stroke-width: 1.5;" x1="763" x2="867" y1="660" y2="660"/><line style="stroke: #A80036; stroke-width: 1.5;" x1="763" x2="867" y1="668" y2="668"/><!--link mastermind.controllers.UseCaseController to mastermind.controllers.AddProposalController--><path d="M906.49,323.49 C973.63,354.3 1064.98,396.22 1135.25,428.47 " fill="none" id="mastermind.controllers.UseCaseController-mastermind.controllers.AddProposalController" style="stroke: #A80036; stroke-width: 1.0;"/><polygon fill="none" points="903.49,329.81,888.23,315.11,909.33,317.09,903.49,329.81" style="stroke: #A80036; stroke-width: 1.0;"/><!--link mastermind.controllers.AddProposalController to mastermind.models.ProposedCombination--><path d="M1417.2,428.46 C1490.31,405.95 1575.14,376.68 1649,343 C1671.01,332.96 1694.25,319.37 1713.08,307.52 " fill="none" id="mastermind.controllers.AddProposalController-mastermind.models.ProposedCombination" style="stroke: #A80036; stroke-width: 1.0; stroke-dasharray: 7.0,7.0;"/><polygon fill="#A80036" points="1717.76,304.55,1708.017,305.9901,1713.537,307.227,1712.3001,312.7469,1717.76,304.55" style="stroke: #A80036; stroke-width: 1.0;"/><!--link mastermind.controllers.AddProposalController to mastermind.views.ViewFactory--><path d="M1120.63,527.6 C1039.58,560.32 936.31,602.02 872.96,627.6 " fill="none" id="mastermind.controllers.AddProposalController-mastermind.views.ViewFactory" style="stroke: #A80036; stroke-width: 1.0; stroke-dasharray: 7.0,7.0;"/><polygon fill="#A80036" points="868.09,629.56,877.9328,629.9053,872.7274,627.6908,874.942,622.4854,868.09,629.56" style="stroke: #A80036; stroke-width: 1.0;"/><!--link mastermind.controllers.Logic to mastermind.views.ViewFactory--><path d="M1379.1,118.46 C1613.73,132.58 2012.89,163.65 2057,213.5 C2095.14,256.6 2088.99,295.16 2057,343 C1905.69,569.28 1754.71,509.52 1491,577 C1267.57,634.18 991.51,647.18 873.23,650.14 " fill="none" id="mastermind.controllers.Logic-mastermind.views.ViewFactory" style="stroke: #A80036; stroke-width: 1.0; stroke-dasharray: 7.0,7.0;"/><polygon fill="#A80036" points="868.06,650.26,877.1598,654.0273,873.0583,650.1315,876.9542,646.03,868.06,650.26" style="stroke: #A80036; stroke-width: 1.0;"/><!--link mastermind.models.State to mastermind.controllers.Logic--><path d="M1989.65,245.26 C1981.53,233.33 1970.88,221.05 1958,213.5 C1864.91,158.93 1582.52,131.56 1392.34,118.96 " fill="none" id="mastermind.models.State-mastermind.controllers.Logic" style="stroke: #A80036; stroke-width: 1.0;"/><polygon fill="#A80036" points="1379.09,118.09,1384.818,122.4706,1391.0647,118.8681,1385.3367,114.4875,1379.09,118.09" style="stroke: #A80036; stroke-width: 1.0;"/><polygon fill="#A80036" points="1996.65,256.43,1995.2618,246.6795,1993.9956,252.1928,1988.4822,250.9266,1996.65,256.43" style="stroke: #A80036; stroke-width: 1.0;"/><line style="stroke: #A80036; stroke-width: 1.0;" x1="1993.9956" x2="1989.745" y1="252.1928" y2="245.415"/><!--link mastermind.models.StateValue to mastermind.controllers.Logic--><path d="M1542.87,248.27 C1527.14,236.35 1508.32,223.29 1490,213.5 C1454.19,194.36 1414.1,177.22 1375.66,162.64 " fill="none" id="mastermind.models.StateValue-mastermind.controllers.Logic" style="stroke: #A80036; stroke-width: 1.0;"/><polygon fill="#A80036" points="1363.25,158,1367.4687,163.8483,1374.4897,162.2034,1370.271,156.3551,1363.25,158" style="stroke: #A80036; stroke-width: 1.0;"/><polygon fill="#A80036" points="1553.23,256.28,1548.559,247.6092,1549.2753,253.2206,1543.6639,253.9368,1553.23,256.28" style="stroke: #A80036; stroke-width: 1.0;"/><line style="stroke: #A80036; stroke-width: 1.0;" x1="1549.2753" x2="1542.945" y1="253.2206" y2="248.33"/><!--link mastermind.controllers.Logic to mastermind.controllers.UseCaseController--><path d="M1084.05,163.41 C1024.21,189.23 954.1,219.48 900.45,242.63 " fill="none" id="mastermind.controllers.Logic-mastermind.controllers.UseCaseController" style="stroke: #A80036; stroke-width: 1.0;"/><polygon fill="#A80036" points="888.22,247.91,898.0682,248.02,892.8114,245.9305,894.901,240.6737,888.22,247.91" style="stroke: #A80036; stroke-width: 1.0;"/><line style="stroke: #A80036; stroke-width: 1.0;" x1="892.8114" x2="900.16" y1="245.9305" y2="242.755"/><polygon fill="#A80036" points="1096.36,158.1,1089.2659,156.8064,1085.3433,162.8572,1092.4374,164.1509,1096.36,158.1" style="stroke: #A80036; stroke-width: 1.0;"/><!--link mastermind.controllers.Logic to mastermind.controllers.StartController--><path d="M1025.4,118.98 C894.92,130.57 717.56,156.31 571,213.5 C434.03,266.95 295.46,372.26 222.83,432.3 " fill="none" id="mastermind.controllers.Logic-mastermind.controllers.StartController" style="stroke: #A80036; stroke-width: 1.0;"/><polygon fill="#A80036" points="212.6,440.81,222.0736,438.1172,216.4398,437.6075,216.9495,431.9736,212.6,440.81" style="stroke: #A80036; stroke-width: 1.0;"/><line style="stroke: #A80036; stroke-width: 1.0;" x1="216.4398" x2="222.595" y1="437.6075" y2="432.495"/><polygon fill="#A80036" points="1038.68,117.84,1032.3593,114.3688,1026.7241,118.8682,1033.0448,122.3394,1038.68,117.84" style="stroke: #A80036; stroke-width: 1.0;"/><!--link mastermind.controllers.Logic to mastermind.controllers.PlayController--><path d="M1146.93,167.4 C1081.64,228.29 978.3,324.68 904.27,393.73 " fill="none" id="mastermind.controllers.Logic-mastermind.controllers.PlayController" style="stroke: #A80036; stroke-width: 1.0;"/><polygon fill="#A80036" points="894.48,402.86,903.7905,399.6483,898.1371,399.4504,898.3351,393.797,894.48,402.86" style="stroke: #A80036; stroke-width: 1.0;"/><line style="stroke: #A80036; stroke-width: 1.0;" x1="898.1371" x2="903.99" y1="399.4504" y2="393.995"/><polygon fill="#A80036" points="1156.68,158.3,1149.5638,159.4663,1147.9034,166.4836,1155.0196,165.3173,1156.68,158.3" style="stroke: #A80036; stroke-width: 1.0;"/><!--link mastermind.controllers.Logic to mastermind.controllers.ResumeController--><path d="M1025.94,122.24 C930.88,135.21 815.76,161.26 724,213.5 C635.88,263.66 561.25,356.43 518.53,417.43 " fill="none" id="mastermind.controllers.Logic-mastermind.controllers.ResumeController" style="stroke: #A80036; stroke-width: 1.0;"/><polygon fill="#A80036" points="510.93,428.43,519.3345,423.2954,513.7703,424.3151,512.7507,418.7509,510.93,428.43" style="stroke: #A80036; stroke-width: 1.0;"/><line style="stroke: #A80036; stroke-width: 1.0;" x1="513.7703" x2="518.325" y1="424.3151" y2="417.735"/><polygon fill="#A80036" points="1038.91,120.53,1032.4388,117.3482,1027.0129,122.0978,1033.484,125.2796,1038.91,120.53" style="stroke: #A80036; stroke-width: 1.0;"/><!--link mastermind.controllers.Logic to mastermind.models.Game--><path d="M1379.29,122.71 C1542.97,137.92 1776.7,166.96 1855,213.5 C1870.21,222.54 1882.52,237.99 1891.23,251.66 " fill="none" id="mastermind.controllers.Logic-mastermind.models.Game" style="stroke: #A80036; stroke-width: 1.0; stroke-dasharray: 7.0,7.0;"/><polygon fill="#A80036" points="1894.05,256.22,1892.7252,246.4607,1891.4231,251.9656,1885.9182,250.6636,1894.05,256.22" style="stroke: #A80036; stroke-width: 1.0;"/><!--link mastermind.controllers.PlayController to mastermind.views.ViewFactory--><path d="M815,553.19 C815,577.79 815,603.71 815,622.67 " fill="none" id="mastermind.controllers.PlayController-mastermind.views.ViewFactory" style="stroke: #A80036; stroke-width: 1.0; stroke-dasharray: 7.0,7.0;"/><polygon fill="#A80036" points="815,627.83,819,618.83,815,622.83,811,618.83,815,627.83" style="stroke: #A80036; stroke-width: 1.0;"/><!--link mastermind.controllers.UseCaseController to mastermind.controllers.PlayController--><path d="M815,363.2 C815,376.29 815,389.78 815,402.69 " fill="none" id="mastermind.controllers.UseCaseController-mastermind.controllers.PlayController" style="stroke: #A80036; stroke-width: 1.0;"/><polygon fill="none" points="808,363.09,815,343.09,822,363.09,808,363.09" style="stroke: #A80036; stroke-width: 1.0;"/><!--link mastermind.controllers.PlayController to mastermind.controllers.AddProposalController--><path d="M986.33,478 C989.32,478 992.31,478 995.3,478 " fill="none" id="mastermind.controllers.PlayController-mastermind.controllers.AddProposalController" style="stroke: #A80036; stroke-width: 1.0;"/><polygon fill="#A80036" points="1008.41,478,999.41,474,1003.41,478,999.41,482,1008.41,478" style="stroke: #A80036; stroke-width: 1.0;"/><line style="stroke: #A80036; stroke-width: 1.0;" x1="1003.41" x2="995.41" y1="478" y2="478"/><polygon fill="#A80036" points="973.09,478,979.09,482,985.09,478,979.09,474,973.09,478" style="stroke: #A80036; stroke-width: 1.0;"/><!--link mastermind.controllers.ResumeController to mastermind.views.ViewFactory--><path d="M553.45,527.55 C579.9,544.15 610.31,562.24 639,577 C677.21,596.66 721.85,615.38 756.61,629.08 " fill="none" id="mastermind.controllers.ResumeController-mastermind.views.ViewFactory" style="stroke: #A80036; stroke-width: 1.0; stroke-dasharray: 7.0,7.0;"/><polygon fill="#A80036" points="761.66,631.06,754.7445,624.0474,757.0059,629.2326,751.8207,631.494,761.66,631.06" style="stroke: #A80036; stroke-width: 1.0;"/><!--link mastermind.controllers.UseCaseController to mastermind.controllers.ResumeController--><path d="M724.33,334.41 C674.15,363.7 612.22,399.84 563.27,428.41 " fill="none" id="mastermind.controllers.UseCaseController-mastermind.controllers.ResumeController" style="stroke: #A80036; stroke-width: 1.0;"/><polygon fill="none" points="721.09,328.2,741.9,324.16,728.15,340.29,721.09,328.2" style="stroke: #A80036; stroke-width: 1.0;"/><!--link mastermind.controllers.StartController to mastermind.views.ViewFactory--><path d="M215.15,515.18 C243.65,536.6 282.48,562.34 321,577 C470.94,634.07 662.16,647.3 756.69,650.25 " fill="none" id="mastermind.controllers.StartController-mastermind.views.ViewFactory" style="stroke: #A80036; stroke-width: 1.0; stroke-dasharray: 7.0,7.0;"/><polygon fill="#A80036" points="761.94,650.41,753.0701,646.1293,756.9425,650.2529,752.8188,654.1253,761.94,650.41" style="stroke: #A80036; stroke-width: 1.0;"/><!--link mastermind.controllers.UseCaseController to mastermind.controllers.StartController--><path d="M722.09,298.08 C621.45,317.48 457.04,353.38 321,403 C292.49,413.4 262.26,427.64 236.47,440.85 " fill="none" id="mastermind.controllers.UseCaseController-mastermind.controllers.StartController" style="stroke: #A80036; stroke-width: 1.0;"/><polygon fill="none" points="721,291.17,741.96,294.31,723.62,304.92,721,291.17" style="stroke: #A80036; stroke-width: 1.0;"/><!--
@startuml
class mastermind.controllers.AddProposalController [[AddProposalController.html]] {
    - {static} final PROPOSED_COMBINATION: String
    +AddProposalController(Game, State, ViewFactory viewFactory)
    - addProposedCombination(ProposedCombination proposedCombination): void
    +execute(): void
}

mastermind.controllers.UseCaseController <|- - mastermind.controllers.AddProposalController
mastermind.controllers.AddProposalController ..> mastermind.models.ProposedCombination
mastermind.controllers.AddProposalController ..> mastermind.views.ViewFactory

class mastermind.controllers.Logic [[Logic.html]] {
    - final state: State
    - final controllers: Map<StateValue, UseCaseController>
    + Logic(ViewFactory viewFactory)
    + getController(): UseCaseController
}
mastermind.controllers.Logic ..> mastermind.views.ViewFactory

mastermind.controllers.Logic *-up-> mastermind.models.State
mastermind.controllers.Logic *-up-> mastermind.models.StateValue
mastermind.controllers.Logic *-down-> mastermind.controllers.UseCaseController
mastermind.controllers.Logic *-down-> mastermind.controllers.StartController
mastermind.controllers.Logic *-down-> mastermind.controllers.PlayController
mastermind.controllers.Logic *-down-> mastermind.controllers.ResumeController
mastermind.controllers.Logic .down.> mastermind.models.Game

class mastermind.controllers.PlayController [[PlayController.html]] {
    -{static} final String ATTEMPTS: String
    -{static} final String PROPOSED_COMBINATIONS: String
    -{static} final String RESULTS: String
    -{static} final String IS_WINNER: String
    -{static} final String IS_LOOSER: String
    #final addProposalController: AddProposalController
    +PlayController(Game, State, ViewFactory)
    +execute(): void
}
mastermind.controllers.PlayController ..> mastermind.views.ViewFactory

mastermind.controllers.UseCaseController <|- - mastermind.controllers.PlayController
mastermind.controllers.PlayController *-> mastermind.controllers.AddProposalController

class mastermind.controllers.ResumeController [[ResumeController.html]] {
    - {static} final NEW_GAME: String
    +ResumeController(Game, State, ViewFactory)
    - resume(): void
    +execute(): void
}
mastermind.controllers.ResumeController ..> mastermind.views.ViewFactory
mastermind.controllers.UseCaseController <|- - mastermind.controllers.ResumeController

class mastermind.controllers.StartController [[StartController.html]] {
    +StartController(Game, State, ViewFactory)
    +execute(): void
}
mastermind.controllers.StartController ..> mastermind.views.ViewFactory

mastermind.controllers.UseCaseController <|- - mastermind.controllers.StartController

abstract class mastermind.controllers.UseCaseController [[UseCaseController.html]] {
    #game: Game
    #state: State
    #view: View
    +next(): void
    {abstract} +createView(): View
    {abstract} +execute(): void
}



@enduml

PlantUML version 1.2019.05(Sat Apr 20 18:45:36 CEST 2019)
(GPL source distribution)
Java Runtime: OpenJDK Runtime Environment
JVM: OpenJDK 64-Bit Server VM
Java Version: 1.8.0_265-8u265-b01-0ubuntu2~20.04-b01
Operating System: Linux
OS Version: 5.4.0-52-generic
Default Encoding: UTF-8
Language: es
Country: ES
--></g></svg>