<?xml version="1.0" encoding="UTF-8" standalone="no"?><svg xmlns="http://www.w3.org/2000/svg" xmlns:xlink="http://www.w3.org/1999/xlink" contentScriptType="application/ecmascript" contentStyleType="text/css" height="837px" preserveAspectRatio="none" style="width:1514px;height:837px;" version="1.1" viewBox="0 0 1514 837" width="1514px" zoomAndPan="magnify"><defs><filter height="300%" id="f8dcze6gwl6sk" width="300%" x="-1" y="-1"><feGaussianBlur result="blurOut" stdDeviation="2.0"/><feColorMatrix in="blurOut" result="blurOut2" type="matrix" values="0 0 0 0 0 0 0 0 0 0 0 0 0 0 0 0 0 0 .4 0"/><feOffset dx="4.0" dy="4.0" in="blurOut2" result="blurOut3"/><feBlend in="SourceGraphic" in2="blurOut3" mode="normal"/></filter></defs><g><!--cluster mastermind.controllers--><polygon fill="#FFFFFF" filter="url(#f8dcze6gwl6sk)" points="22,24,212,24,219,46.2969,1166,46.2969,1166,702,22,702,22,24" style="stroke: #000000; stroke-width: 1.5;"/><line style="stroke: #000000; stroke-width: 1.5;" x1="22" x2="219" y1="46.2969" y2="46.2969"/><text fill="#000000" font-family="sans-serif" font-size="14" font-weight="bold" lengthAdjust="spacingAndGlyphs" textLength="184" x="26" y="38.9951">mastermind.controllers</text><!--cluster mastermind.models--><polygon fill="#FFFFFF" filter="url(#f8dcze6gwl6sk)" points="842,726,1003,726,1010,748.2969,1492,748.2969,1492,825,842,825,842,726" style="stroke: #000000; stroke-width: 1.5;"/><line style="stroke: #000000; stroke-width: 1.5;" x1="842" x2="1010" y1="748.2969" y2="748.2969"/><text fill="#000000" font-family="sans-serif" font-size="14" font-weight="bold" lengthAdjust="spacingAndGlyphs" textLength="155" x="846" y="740.9951">mastermind.models</text><!--class mastermind.controllers.ControllerVisitor--><rect fill="#FEFECE" filter="url(#f8dcze6gwl6sk)" height="86.4141" id="mastermind.controllers.ControllerVisitor" style="stroke: #A80036; stroke-width: 1.5;" width="294" x="647" y="390"/><ellipse cx="740.25" cy="406" fill="#B4A7E5" rx="11" ry="11" style="stroke: #A80036; stroke-width: 1.0;"/><path d="M736.1719,401.7656 L736.1719,399.6094 L743.5625,399.6094 L743.5625,401.7656 L741.0938,401.7656 L741.0938,409.8438 L743.5625,409.8438 L743.5625,412 L736.1719,412 L736.1719,409.8438 L738.6406,409.8438 L738.6406,401.7656 L736.1719,401.7656 Z "/><text fill="#000000" font-family="sans-serif" font-size="12" font-style="italic" lengthAdjust="spacingAndGlyphs" textLength="99" x="760.75" y="410.1543">ControllerVisitor</text><line style="stroke: #A80036; stroke-width: 1.5;" x1="648" x2="940" y1="422" y2="422"/><line style="stroke: #A80036; stroke-width: 1.5;" x1="648" x2="940" y1="430" y2="430"/><ellipse cx="658" cy="441.9023" fill="#84BE84" rx="3" ry="3" style="stroke: #038048; stroke-width: 1.0;"/><text fill="#000000" font-family="sans-serif" font-size="11" lengthAdjust="spacingAndGlyphs" textLength="233" x="667" y="444.2104">visit(StartController startController): void</text><ellipse cx="658" cy="454.707" fill="#84BE84" rx="3" ry="3" style="stroke: #038048; stroke-width: 1.0;"/><text fill="#000000" font-family="sans-serif" font-size="11" lengthAdjust="spacingAndGlyphs" textLength="224" x="667" y="457.0151">visit(PlayController playController): void</text><ellipse cx="658" cy="467.5117" fill="#84BE84" rx="3" ry="3" style="stroke: #038048; stroke-width: 1.0;"/><text fill="#000000" font-family="sans-serif" font-size="11" lengthAdjust="spacingAndGlyphs" textLength="268" x="667" y="469.8198">visit(ResumeController resumeController): void</text><!--class mastermind.controllers.StartController--><rect fill="#FEFECE" filter="url(#f8dcze6gwl6sk)" height="73.6094" id="mastermind.controllers.StartController" style="stroke: #A80036; stroke-width: 1.5;" width="288" x="38" y="574"/><ellipse cx="131.75" cy="590" fill="#ADD1B2" rx="11" ry="11" style="stroke: #A80036; stroke-width: 1.0;"/><path d="M134.7188,595.6406 Q134.1406,595.9375 133.5,596.0781 Q132.8594,596.2344 132.1563,596.2344 Q129.6563,596.2344 128.3281,594.5938 Q127.0156,592.9375 127.0156,589.8125 Q127.0156,586.6875 128.3281,585.0313 Q129.6563,583.375 132.1563,583.375 Q132.8594,583.375 133.5,583.5313 Q134.1563,583.6875 134.7188,583.9844 L134.7188,586.7031 Q134.0938,586.125 133.5,585.8594 Q132.9063,585.5781 132.2813,585.5781 Q130.9375,585.5781 130.25,586.6563 Q129.5625,587.7188 129.5625,589.8125 Q129.5625,591.9063 130.25,592.9844 Q130.9375,594.0469 132.2813,594.0469 Q132.9063,594.0469 133.5,593.7813 Q134.0938,593.5 134.7188,592.9219 L134.7188,595.6406 Z "/><text fill="#000000" font-family="sans-serif" font-size="12" lengthAdjust="spacingAndGlyphs" textLength="92" x="152.25" y="594.1543">StartController</text><line style="stroke: #A80036; stroke-width: 1.5;" x1="39" x2="325" y1="606" y2="606"/><line style="stroke: #A80036; stroke-width: 1.5;" x1="39" x2="325" y1="614" y2="614"/><ellipse cx="49" cy="625.9023" fill="#84BE84" rx="3" ry="3" style="stroke: #038048; stroke-width: 1.0;"/><text fill="#000000" font-family="sans-serif" font-size="11" lengthAdjust="spacingAndGlyphs" textLength="233" x="58" y="628.2104">StartController(Game game, State state)</text><ellipse cx="49" cy="638.707" fill="#84BE84" rx="3" ry="3" style="stroke: #038048; stroke-width: 1.0;"/><text fill="#000000" font-family="sans-serif" font-size="11" lengthAdjust="spacingAndGlyphs" textLength="262" x="58" y="641.0151">accept(ControllerVisitor controllerVisitor): void</text><!--class mastermind.controllers.PlayController--><rect fill="#FEFECE" filter="url(#f8dcze6gwl6sk)" height="150.4375" id="mastermind.controllers.PlayController" style="stroke: #A80036; stroke-width: 1.5;" width="465" x="361.5" y="536"/><ellipse cx="546.75" cy="552" fill="#ADD1B2" rx="11" ry="11" style="stroke: #A80036; stroke-width: 1.0;"/><path d="M549.7188,557.6406 Q549.1406,557.9375 548.5,558.0781 Q547.8594,558.2344 547.1563,558.2344 Q544.6563,558.2344 543.3281,556.5938 Q542.0156,554.9375 542.0156,551.8125 Q542.0156,548.6875 543.3281,547.0313 Q544.6563,545.375 547.1563,545.375 Q547.8594,545.375 548.5,545.5313 Q549.1563,545.6875 549.7188,545.9844 L549.7188,548.7031 Q549.0938,548.125 548.5,547.8594 Q547.9063,547.5781 547.2813,547.5781 Q545.9375,547.5781 545.25,548.6563 Q544.5625,549.7188 544.5625,551.8125 Q544.5625,553.9063 545.25,554.9844 Q545.9375,556.0469 547.2813,556.0469 Q547.9063,556.0469 548.5,555.7813 Q549.0938,555.5 549.7188,554.9219 L549.7188,557.6406 Z "/><text fill="#000000" font-family="sans-serif" font-size="12" lengthAdjust="spacingAndGlyphs" textLength="86" x="567.25" y="556.1543">PlayController</text><line style="stroke: #A80036; stroke-width: 1.5;" x1="362.5" x2="825.5" y1="568" y2="568"/><line style="stroke: #A80036; stroke-width: 1.5;" x1="362.5" x2="825.5" y1="576" y2="576"/><ellipse cx="372.5" cy="587.9023" fill="#84BE84" rx="3" ry="3" style="stroke: #038048; stroke-width: 1.0;"/><text fill="#000000" font-family="sans-serif" font-size="11" lengthAdjust="spacingAndGlyphs" textLength="228" x="381.5" y="590.2104">PlayController(Game game, State state)</text><ellipse cx="372.5" cy="600.707" fill="#84BE84" rx="3" ry="3" style="stroke: #038048; stroke-width: 1.0;"/><text fill="#000000" font-family="sans-serif" font-size="11" lengthAdjust="spacingAndGlyphs" textLength="439" x="381.5" y="603.0151">addProposedCombination(ProposedCombination proposedCombination): void</text><ellipse cx="372.5" cy="613.5117" fill="#84BE84" rx="3" ry="3" style="stroke: #038048; stroke-width: 1.0;"/><text fill="#000000" font-family="sans-serif" font-size="11" lengthAdjust="spacingAndGlyphs" textLength="99" x="381.5" y="615.8198">getAttempts(): int</text><ellipse cx="372.5" cy="626.3164" fill="#84BE84" rx="3" ry="3" style="stroke: #038048; stroke-width: 1.0;"/><text fill="#000000" font-family="sans-serif" font-size="11" lengthAdjust="spacingAndGlyphs" textLength="347" x="381.5" y="628.6245">getProposedCombination(int position): ProposedCombination</text><ellipse cx="372.5" cy="639.1211" fill="#84BE84" rx="3" ry="3" style="stroke: #038048; stroke-width: 1.0;"/><text fill="#000000" font-family="sans-serif" font-size="11" lengthAdjust="spacingAndGlyphs" textLength="167" x="381.5" y="641.4292">getResult(int position): Result</text><ellipse cx="372.5" cy="651.9258" fill="#84BE84" rx="3" ry="3" style="stroke: #038048; stroke-width: 1.0;"/><text fill="#000000" font-family="sans-serif" font-size="11" lengthAdjust="spacingAndGlyphs" textLength="109" x="381.5" y="654.2339">isWinner(): boolean</text><ellipse cx="372.5" cy="664.7305" fill="#84BE84" rx="3" ry="3" style="stroke: #038048; stroke-width: 1.0;"/><text fill="#000000" font-family="sans-serif" font-size="11" lengthAdjust="spacingAndGlyphs" textLength="110" x="381.5" y="667.0386">isLooser(): boolean</text><ellipse cx="372.5" cy="677.5352" fill="#84BE84" rx="3" ry="3" style="stroke: #038048; stroke-width: 1.0;"/><text fill="#000000" font-family="sans-serif" font-size="11" lengthAdjust="spacingAndGlyphs" textLength="262" x="381.5" y="679.8433">accept(ControllerVisitor controllerVisitor): void</text><!--class mastermind.controllers.ResumeController--><rect fill="#FEFECE" filter="url(#f8dcze6gwl6sk)" height="86.4141" id="mastermind.controllers.ResumeController" style="stroke: #A80036; stroke-width: 1.5;" width="288" x="862" y="568"/><ellipse cx="946.25" cy="584" fill="#ADD1B2" rx="11" ry="11" style="stroke: #A80036; stroke-width: 1.0;"/><path d="M949.2188,589.6406 Q948.6406,589.9375 948,590.0781 Q947.3594,590.2344 946.6563,590.2344 Q944.1563,590.2344 942.8281,588.5938 Q941.5156,586.9375 941.5156,583.8125 Q941.5156,580.6875 942.8281,579.0313 Q944.1563,577.375 946.6563,577.375 Q947.3594,577.375 948,577.5313 Q948.6563,577.6875 949.2188,577.9844 L949.2188,580.7031 Q948.5938,580.125 948,579.8594 Q947.4063,579.5781 946.7813,579.5781 Q945.4375,579.5781 944.75,580.6563 Q944.0625,581.7188 944.0625,583.8125 Q944.0625,585.9063 944.75,586.9844 Q945.4375,588.0469 946.7813,588.0469 Q947.4063,588.0469 948,587.7813 Q948.5938,587.5 949.2188,586.9219 L949.2188,589.6406 Z "/><text fill="#000000" font-family="sans-serif" font-size="12" lengthAdjust="spacingAndGlyphs" textLength="111" x="966.75" y="588.1543">ResumeController</text><line style="stroke: #A80036; stroke-width: 1.5;" x1="863" x2="1149" y1="600" y2="600"/><line style="stroke: #A80036; stroke-width: 1.5;" x1="863" x2="1149" y1="608" y2="608"/><ellipse cx="873" cy="619.9023" fill="#84BE84" rx="3" ry="3" style="stroke: #038048; stroke-width: 1.0;"/><text fill="#000000" font-family="sans-serif" font-size="11" lengthAdjust="spacingAndGlyphs" textLength="251" x="882" y="622.2104">ResumeController(Game game, State state)</text><ellipse cx="873" cy="632.707" fill="#84BE84" rx="3" ry="3" style="stroke: #038048; stroke-width: 1.0;"/><text fill="#000000" font-family="sans-serif" font-size="11" lengthAdjust="spacingAndGlyphs" textLength="83" x="882" y="635.0151">resume(): void</text><ellipse cx="873" cy="645.5117" fill="#84BE84" rx="3" ry="3" style="stroke: #038048; stroke-width: 1.0;"/><text fill="#000000" font-family="sans-serif" font-size="11" lengthAdjust="spacingAndGlyphs" textLength="262" x="882" y="647.8198">accept(ControllerVisitor controllerVisitor): void</text><!--class mastermind.controllers.Logic--><rect fill="#FEFECE" filter="url(#f8dcze6gwl6sk)" height="99.2188" id="mastermind.controllers.Logic" style="stroke: #A80036; stroke-width: 1.5;" width="340" x="810" y="59"/><ellipse cx="959.75" cy="75" fill="#ADD1B2" rx="11" ry="11" style="stroke: #A80036; stroke-width: 1.0;"/><path d="M962.7188,80.6406 Q962.1406,80.9375 961.5,81.0781 Q960.8594,81.2344 960.1563,81.2344 Q957.6563,81.2344 956.3281,79.5938 Q955.0156,77.9375 955.0156,74.8125 Q955.0156,71.6875 956.3281,70.0313 Q957.6563,68.375 960.1563,68.375 Q960.8594,68.375 961.5,68.5313 Q962.1563,68.6875 962.7188,68.9844 L962.7188,71.7031 Q962.0938,71.125 961.5,70.8594 Q960.9063,70.5781 960.2813,70.5781 Q958.9375,70.5781 958.25,71.6563 Q957.5625,72.7188 957.5625,74.8125 Q957.5625,76.9063 958.25,77.9844 Q958.9375,79.0469 960.2813,79.0469 Q960.9063,79.0469 961.5,78.7813 Q962.0938,78.5 962.7188,77.9219 L962.7188,80.6406 Z "/><text fill="#000000" font-family="sans-serif" font-size="12" lengthAdjust="spacingAndGlyphs" textLength="32" x="980.25" y="79.1543">Logic</text><line style="stroke: #A80036; stroke-width: 1.5;" x1="811" x2="1149" y1="91" y2="91"/><rect fill="none" height="6" style="stroke: #C82930; stroke-width: 1.0;" width="6" x="818" y="99.9023"/><text fill="#000000" font-family="sans-serif" font-size="11" lengthAdjust="spacingAndGlyphs" textLength="95" x="830" y="105.2104">final state: State</text><rect fill="none" height="6" style="stroke: #C82930; stroke-width: 1.0;" width="6" x="818" y="112.707"/><text fill="#000000" font-family="sans-serif" font-size="11" lengthAdjust="spacingAndGlyphs" textLength="314" x="830" y="118.0151">final controllers: Map&lt;StateValue, UseCaseController&gt;</text><line style="stroke: #A80036; stroke-width: 1.5;" x1="811" x2="1149" y1="124.6094" y2="124.6094"/><ellipse cx="821" cy="136.5117" fill="#84BE84" rx="3" ry="3" style="stroke: #038048; stroke-width: 1.0;"/><text fill="#000000" font-family="sans-serif" font-size="11" lengthAdjust="spacingAndGlyphs" textLength="37" x="830" y="138.8198">Logic()</text><ellipse cx="821" cy="149.3164" fill="#84BE84" rx="3" ry="3" style="stroke: #038048; stroke-width: 1.0;"/><text fill="#000000" font-family="sans-serif" font-size="11" lengthAdjust="spacingAndGlyphs" textLength="197" x="830" y="151.6245">getController(): UseCaseController</text><!--class mastermind.controllers.UseCaseController--><rect fill="#FEFECE" filter="url(#f8dcze6gwl6sk)" height="112.0234" id="mastermind.controllers.UseCaseController" style="stroke: #A80036; stroke-width: 1.5;" width="289" x="835.5" y="218"/><ellipse cx="918.75" cy="234" fill="#A9DCDF" rx="11" ry="11" style="stroke: #A80036; stroke-width: 1.0;"/><path d="M918.8594,229.3438 L917.7031,234.4219 L920.0313,234.4219 L918.8594,229.3438 Z M917.375,227.1094 L920.3594,227.1094 L923.7188,239.5 L921.2656,239.5 L920.5,236.4375 L917.2188,236.4375 L916.4688,239.5 L914.0313,239.5 L917.375,227.1094 Z "/><text fill="#000000" font-family="sans-serif" font-size="12" font-style="italic" lengthAdjust="spacingAndGlyphs" textLength="114" x="939.25" y="238.1543">UseCaseController</text><line style="stroke: #A80036; stroke-width: 1.5;" x1="836.5" x2="1123.5" y1="250" y2="250"/><polygon fill="none" points="846.5,256.9023,850.5,260.9023,846.5,264.9023,842.5,260.9023" style="stroke: #B38D22; stroke-width: 1.0;"/><text fill="#000000" font-family="sans-serif" font-size="11" lengthAdjust="spacingAndGlyphs" textLength="102" x="855.5" y="264.2104">final game: Game</text><polygon fill="none" points="846.5,269.707,850.5,273.707,846.5,277.707,842.5,273.707" style="stroke: #B38D22; stroke-width: 1.0;"/><text fill="#000000" font-family="sans-serif" font-size="11" lengthAdjust="spacingAndGlyphs" textLength="95" x="855.5" y="277.0151">final state: State</text><line style="stroke: #A80036; stroke-width: 1.5;" x1="836.5" x2="1123.5" y1="283.6094" y2="283.6094"/><text fill="#000000" font-family="sans-serif" font-size="11" lengthAdjust="spacingAndGlyphs" textLength="256" x="855.5" y="297.8198">UseCaseController(Game game, State state)</text><ellipse cx="846.5" cy="308.3164" fill="#84BE84" rx="3" ry="3" style="stroke: #038048; stroke-width: 1.0;"/><text fill="#000000" font-family="sans-serif" font-size="11" lengthAdjust="spacingAndGlyphs" textLength="63" x="855.5" y="310.6245">next(): void</text><ellipse cx="846.5" cy="321.1211" fill="#84BE84" rx="3" ry="3" style="stroke: #038048; stroke-width: 1.0;"/><text fill="#000000" font-family="sans-serif" font-size="11" font-style="italic" lengthAdjust="spacingAndGlyphs" textLength="263" x="855.5" y="323.4292">accept(ControllerVisitor controllerVisitor): void</text><!--class mastermind.models.State--><rect fill="#FEFECE" filter="url(#f8dcze6gwl6sk)" height="48" id="mastermind.models.State" style="stroke: #A80036; stroke-width: 1.5;" width="66" x="1170" y="761"/><ellipse cx="1185" cy="777" fill="#ADD1B2" rx="11" ry="11" style="stroke: #A80036; stroke-width: 1.0;"/><path d="M1187.9688,782.6406 Q1187.3906,782.9375 1186.75,783.0781 Q1186.1094,783.2344 1185.4063,783.2344 Q1182.9063,783.2344 1181.5781,781.5938 Q1180.2656,779.9375 1180.2656,776.8125 Q1180.2656,773.6875 1181.5781,772.0313 Q1182.9063,770.375 1185.4063,770.375 Q1186.1094,770.375 1186.75,770.5313 Q1187.4063,770.6875 1187.9688,770.9844 L1187.9688,773.7031 Q1187.3438,773.125 1186.75,772.8594 Q1186.1563,772.5781 1185.5313,772.5781 Q1184.1875,772.5781 1183.5,773.6563 Q1182.8125,774.7188 1182.8125,776.8125 Q1182.8125,778.9063 1183.5,779.9844 Q1184.1875,781.0469 1185.5313,781.0469 Q1186.1563,781.0469 1186.75,780.7813 Q1187.3438,780.5 1187.9688,779.9219 L1187.9688,782.6406 Z "/><text fill="#000000" font-family="sans-serif" font-size="12" lengthAdjust="spacingAndGlyphs" textLength="34" x="1199" y="781.1543">State</text><line style="stroke: #A80036; stroke-width: 1.5;" x1="1171" x2="1235" y1="793" y2="793"/><line style="stroke: #A80036; stroke-width: 1.5;" x1="1171" x2="1235" y1="801" y2="801"/><!--class mastermind.models.StateValue--><rect fill="#FEFECE" filter="url(#f8dcze6gwl6sk)" height="48" id="mastermind.models.StateValue" style="stroke: #A80036; stroke-width: 1.5;" width="101" x="1374.5" y="761"/><ellipse cx="1389.5" cy="777" fill="#ADD1B2" rx="11" ry="11" style="stroke: #A80036; stroke-width: 1.0;"/><path d="M1392.4688,782.6406 Q1391.8906,782.9375 1391.25,783.0781 Q1390.6094,783.2344 1389.9063,783.2344 Q1387.4063,783.2344 1386.0781,781.5938 Q1384.7656,779.9375 1384.7656,776.8125 Q1384.7656,773.6875 1386.0781,772.0313 Q1387.4063,770.375 1389.9063,770.375 Q1390.6094,770.375 1391.25,770.5313 Q1391.9063,770.6875 1392.4688,770.9844 L1392.4688,773.7031 Q1391.8438,773.125 1391.25,772.8594 Q1390.6563,772.5781 1390.0313,772.5781 Q1388.6875,772.5781 1388,773.6563 Q1387.3125,774.7188 1387.3125,776.8125 Q1387.3125,778.9063 1388,779.9844 Q1388.6875,781.0469 1390.0313,781.0469 Q1390.6563,781.0469 1391.25,780.7813 Q1391.8438,780.5 1392.4688,779.9219 L1392.4688,782.6406 Z "/><text fill="#000000" font-family="sans-serif" font-size="12" lengthAdjust="spacingAndGlyphs" textLength="69" x="1403.5" y="781.1543">StateValue</text><line style="stroke: #A80036; stroke-width: 1.5;" x1="1375.5" x2="1474.5" y1="793" y2="793"/><line style="stroke: #A80036; stroke-width: 1.5;" x1="1375.5" x2="1474.5" y1="801" y2="801"/><!--class mastermind.models.Game--><rect fill="#FEFECE" filter="url(#f8dcze6gwl6sk)" height="48" id="mastermind.models.Game" style="stroke: #A80036; stroke-width: 1.5;" width="68" x="1271" y="761"/><ellipse cx="1286" cy="777" fill="#ADD1B2" rx="11" ry="11" style="stroke: #A80036; stroke-width: 1.0;"/><path d="M1288.9688,782.6406 Q1288.3906,782.9375 1287.75,783.0781 Q1287.1094,783.2344 1286.4063,783.2344 Q1283.9063,783.2344 1282.5781,781.5938 Q1281.2656,779.9375 1281.2656,776.8125 Q1281.2656,773.6875 1282.5781,772.0313 Q1283.9063,770.375 1286.4063,770.375 Q1287.1094,770.375 1287.75,770.5313 Q1288.4063,770.6875 1288.9688,770.9844 L1288.9688,773.7031 Q1288.3438,773.125 1287.75,772.8594 Q1287.1563,772.5781 1286.5313,772.5781 Q1285.1875,772.5781 1284.5,773.6563 Q1283.8125,774.7188 1283.8125,776.8125 Q1283.8125,778.9063 1284.5,779.9844 Q1285.1875,781.0469 1286.5313,781.0469 Q1287.1563,781.0469 1287.75,780.7813 Q1288.3438,780.5 1288.9688,779.9219 L1288.9688,782.6406 Z "/><text fill="#000000" font-family="sans-serif" font-size="12" lengthAdjust="spacingAndGlyphs" textLength="36" x="1300" y="781.1543">Game</text><line style="stroke: #A80036; stroke-width: 1.5;" x1="1272" x2="1338" y1="793" y2="793"/><line style="stroke: #A80036; stroke-width: 1.5;" x1="1272" x2="1338" y1="801" y2="801"/><!--class mastermind.models.ProposedCombination--><rect fill="#FEFECE" filter="url(#f8dcze6gwl6sk)" height="48" id="mastermind.models.ProposedCombination" style="stroke: #A80036; stroke-width: 1.5;" width="170" x="965" y="761"/><ellipse cx="980" cy="777" fill="#ADD1B2" rx="11" ry="11" style="stroke: #A80036; stroke-width: 1.0;"/><path d="M982.9688,782.6406 Q982.3906,782.9375 981.75,783.0781 Q981.1094,783.2344 980.4063,783.2344 Q977.9063,783.2344 976.5781,781.5938 Q975.2656,779.9375 975.2656,776.8125 Q975.2656,773.6875 976.5781,772.0313 Q977.9063,770.375 980.4063,770.375 Q981.1094,770.375 981.75,770.5313 Q982.4063,770.6875 982.9688,770.9844 L982.9688,773.7031 Q982.3438,773.125 981.75,772.8594 Q981.1563,772.5781 980.5313,772.5781 Q979.1875,772.5781 978.5,773.6563 Q977.8125,774.7188 977.8125,776.8125 Q977.8125,778.9063 978.5,779.9844 Q979.1875,781.0469 980.5313,781.0469 Q981.1563,781.0469 981.75,780.7813 Q982.3438,780.5 982.9688,779.9219 L982.9688,782.6406 Z "/><text fill="#000000" font-family="sans-serif" font-size="12" lengthAdjust="spacingAndGlyphs" textLength="138" x="994" y="781.1543">ProposedCombination</text><line style="stroke: #A80036; stroke-width: 1.5;" x1="966" x2="1134" y1="793" y2="793"/><line style="stroke: #A80036; stroke-width: 1.5;" x1="966" x2="1134" y1="801" y2="801"/><!--class mastermind.models.Result--><rect fill="#FEFECE" filter="url(#f8dcze6gwl6sk)" height="48" id="mastermind.models.Result" style="stroke: #A80036; stroke-width: 1.5;" width="71" x="858.5" y="761"/><ellipse cx="873.5" cy="777" fill="#ADD1B2" rx="11" ry="11" style="stroke: #A80036; stroke-width: 1.0;"/><path d="M876.4688,782.6406 Q875.8906,782.9375 875.25,783.0781 Q874.6094,783.2344 873.9063,783.2344 Q871.4063,783.2344 870.0781,781.5938 Q868.7656,779.9375 868.7656,776.8125 Q868.7656,773.6875 870.0781,772.0313 Q871.4063,770.375 873.9063,770.375 Q874.6094,770.375 875.25,770.5313 Q875.9063,770.6875 876.4688,770.9844 L876.4688,773.7031 Q875.8438,773.125 875.25,772.8594 Q874.6563,772.5781 874.0313,772.5781 Q872.6875,772.5781 872,773.6563 Q871.3125,774.7188 871.3125,776.8125 Q871.3125,778.9063 872,779.9844 Q872.6875,781.0469 874.0313,781.0469 Q874.6563,781.0469 875.25,780.7813 Q875.8438,780.5 876.4688,779.9219 L876.4688,782.6406 Z "/><text fill="#000000" font-family="sans-serif" font-size="12" lengthAdjust="spacingAndGlyphs" textLength="39" x="887.5" y="781.1543">Result</text><line style="stroke: #A80036; stroke-width: 1.5;" x1="859.5" x2="928.5" y1="793" y2="793"/><line style="stroke: #A80036; stroke-width: 1.5;" x1="859.5" x2="928.5" y1="801" y2="801"/><!--link mastermind.controllers.ControllerVisitor to mastermind.controllers.StartController--><path d="M646.74,459.44 C557.83,476.75 442.95,502.58 344,536 C314.92,545.82 284.04,559.15 257.12,571.79 " fill="none" id="mastermind.controllers.ControllerVisitor-mastermind.controllers.StartController" style="stroke: #A80036; stroke-width: 1.0; stroke-dasharray: 7.0,7.0;"/><polygon fill="#A80036" points="252.49,573.98,262.3367,573.7716,257.0151,571.8531,258.9336,566.5315,252.49,573.98" style="stroke: #A80036; stroke-width: 1.0;"/><!--link mastermind.controllers.ControllerVisitor to mastermind.controllers.PlayController--><path d="M746.1,476.16 C726.87,493.08 704.08,513.13 682.07,532.5 " fill="none" id="mastermind.controllers.ControllerVisitor-mastermind.controllers.PlayController" style="stroke: #A80036; stroke-width: 1.0; stroke-dasharray: 7.0,7.0;"/><polygon fill="#A80036" points="678.26,535.85,687.6498,532.8782,682.0033,532.5353,682.3462,526.8888,678.26,535.85" style="stroke: #A80036; stroke-width: 1.0;"/><!--link mastermind.controllers.ControllerVisitor to mastermind.controllers.ResumeController--><path d="M844.78,476.16 C876.91,502.83 918.44,537.31 951.3,564.59 " fill="none" id="mastermind.controllers.ControllerVisitor-mastermind.controllers.ResumeController" style="stroke: #A80036; stroke-width: 1.0; stroke-dasharray: 7.0,7.0;"/><polygon fill="#A80036" points="955.27,567.88,950.8974,559.055,951.4219,564.6875,945.7894,565.212,955.27,567.88" style="stroke: #A80036; stroke-width: 1.0;"/><!--link mastermind.controllers.Logic to mastermind.models.State--><path d="M1089.53,165.78 C1109.5,180.39 1128.32,197.81 1142,218 C1256.69,387.21 1225.88,652.45 1209.81,748.1 " fill="none" id="mastermind.controllers.Logic-mastermind.models.State" style="stroke: #A80036; stroke-width: 1.0;"/><polygon fill="#A80036" points="1207.56,760.95,1213.0445,752.7695,1208.4176,756.0241,1205.163,751.3973,1207.56,760.95" style="stroke: #A80036; stroke-width: 1.0;"/><line style="stroke: #A80036; stroke-width: 1.0;" x1="1208.4176" x2="1209.8" y1="756.0241" y2="748.15"/><polygon fill="#A80036" points="1078.67,158.18,1081.2885,164.8989,1088.4977,165.066,1085.8792,158.3471,1078.67,158.18" style="stroke: #A80036; stroke-width: 1.0;"/><!--link mastermind.controllers.Logic to mastermind.models.StateValue--><path d="M1162.18,157.94 C1194.81,173.04 1226.26,192.64 1251,218 C1400.17,370.89 1421.82,648.46 1424.68,747.6 " fill="none" id="mastermind.controllers.Logic-mastermind.models.StateValue" style="stroke: #A80036; stroke-width: 1.0;"/><polygon fill="#A80036" points="1424.98,760.89,1428.7713,751.8001,1424.8646,755.8913,1420.7734,751.9847,1424.98,760.89" style="stroke: #A80036; stroke-width: 1.0;"/><line style="stroke: #A80036; stroke-width: 1.0;" x1="1424.8646" x2="1424.69" y1="755.8913" y2="747.895"/><polygon fill="#A80036" points="1150.11,152.58,1153.9731,158.6691,1161.0795,157.4451,1157.2165,151.356,1150.11,152.58" style="stroke: #A80036; stroke-width: 1.0;"/><!--link mastermind.controllers.Logic to mastermind.controllers.UseCaseController--><path d="M980,171.28 C980,182.2 980,193.61 980,204.69 " fill="none" id="mastermind.controllers.Logic-mastermind.controllers.UseCaseController" style="stroke: #A80036; stroke-width: 1.0;"/><polygon fill="#A80036" points="980,217.98,984,208.98,980,212.98,976,208.98,980,217.98" style="stroke: #A80036; stroke-width: 1.0;"/><line style="stroke: #A80036; stroke-width: 1.0;" x1="980" x2="980" y1="212.98" y2="204.98"/><polygon fill="#A80036" points="980,158.11,976,164.11,980,170.11,984,164.11,980,158.11" style="stroke: #A80036; stroke-width: 1.0;"/><!--link mastermind.controllers.Logic to mastermind.models.Game--><path d="M1116.72,158.12 C1145.16,173.55 1172.63,193.25 1193,218 C1328.74,382.94 1316.05,665.84 1308.03,755.72 " fill="none" id="mastermind.controllers.Logic-mastermind.models.Game" style="stroke: #A80036; stroke-width: 1.0; stroke-dasharray: 7.0,7.0;"/><polygon fill="#A80036" points="1307.56,760.86,1312.3651,752.2628,1308.0165,755.8809,1304.3985,751.5324,1307.56,760.86" style="stroke: #A80036; stroke-width: 1.0;"/><!--link mastermind.controllers.UseCaseController to mastermind.models.Game--><path d="M1080.32,338.12 C1100.28,353.53 1119.99,371.08 1136,390 C1230.38,501.52 1279.38,673.65 1297.11,747.89 " fill="none" id="mastermind.controllers.UseCaseController-mastermind.models.Game" style="stroke: #A80036; stroke-width: 1.0;"/><polygon fill="#A80036" points="1300.06,760.58,1301.9203,750.9084,1298.9289,755.7096,1294.1277,752.7182,1300.06,760.58" style="stroke: #A80036; stroke-width: 1.0;"/><line style="stroke: #A80036; stroke-width: 1.0;" x1="1298.9289" x2="1297.115" y1="755.7096" y2="747.91"/><polygon fill="#A80036" points="1069.88,330.27,1072.2695,337.0737,1079.4689,337.4848,1077.0794,330.6811,1069.88,330.27" style="stroke: #A80036; stroke-width: 1.0;"/><!--link mastermind.controllers.UseCaseController to mastermind.models.State--><path d="M1040.86,340.19 C1083.66,389.96 1138.38,462.32 1168,536 C1196.62,607.21 1202.42,698.11 1203.25,747.7 " fill="none" id="mastermind.controllers.UseCaseController-mastermind.models.State" style="stroke: #A80036; stroke-width: 1.0;"/><polygon fill="#A80036" points="1203.37,760.83,1207.2907,751.7952,1203.326,755.8302,1199.291,751.8655,1203.37,760.83" style="stroke: #A80036; stroke-width: 1.0;"/><line style="stroke: #A80036; stroke-width: 1.0;" x1="1203.326" x2="1203.25" y1="755.8302" y2="747.83"/><polygon fill="#A80036" points="1032.2,330.23,1033.1274,337.3812,1040.0852,339.2756,1039.1578,332.1244,1032.2,330.23" style="stroke: #A80036; stroke-width: 1.0;"/><!--link mastermind.controllers.UseCaseController to mastermind.controllers.ControllerVisitor--><path d="M914.68,330.13 C892.81,348.6 868.68,368.96 847.79,386.6 " fill="none" id="mastermind.controllers.UseCaseController-mastermind.controllers.ControllerVisitor" style="stroke: #A80036; stroke-width: 1.0; stroke-dasharray: 7.0,7.0;"/><polygon fill="#A80036" points="843.93,389.86,853.3889,387.1159,847.7523,386.6367,848.2316,381.0002,843.93,389.86" style="stroke: #A80036; stroke-width: 1.0;"/><!--link mastermind.controllers.UseCaseController to mastermind.controllers.PlayController--><path d="M815.49,291.46 C748.24,306.65 675.48,335.48 629,390 C595.06,429.81 587.22,488.96 587.36,535.9 " fill="none" id="mastermind.controllers.UseCaseController-mastermind.controllers.PlayController" style="stroke: #A80036; stroke-width: 1.0;"/><polygon fill="none" points="814.21,284.58,835.22,287.35,817.06,298.28,814.21,284.58" style="stroke: #A80036; stroke-width: 1.0;"/><!--link mastermind.controllers.PlayController to mastermind.models.ProposedCombination--><path d="M764.04,686.07 C790.73,695.45 818.33,703.89 845,710 C889.32,720.16 903.89,703.52 947,718 C972.83,726.68 998.64,743.23 1017.96,757.59 " fill="none" id="mastermind.controllers.PlayController-mastermind.models.ProposedCombination" style="stroke: #A80036; stroke-width: 1.0; stroke-dasharray: 7.0,7.0;"/><polygon fill="#A80036" points="1022.23,760.81,1017.4496,752.1991,1018.2369,757.8009,1012.635,758.5881,1022.23,760.81" style="stroke: #A80036; stroke-width: 1.0;"/><!--link mastermind.controllers.PlayController to mastermind.models.Result--><path d="M723.4,686.19 C770.45,713.17 820.26,741.72 853.83,760.97 " fill="none" id="mastermind.controllers.PlayController-mastermind.models.Result" style="stroke: #A80036; stroke-width: 1.0; stroke-dasharray: 7.0,7.0;"/><polygon fill="#A80036" points="858.25,763.5,852.4373,755.5494,853.9141,761.0101,848.4534,762.4869,858.25,763.5" style="stroke: #A80036; stroke-width: 1.0;"/><!--link mastermind.controllers.UseCaseController to mastermind.controllers.ResumeController--><path d="M985.87,350.6 C991.08,417.75 998.51,513.45 1002.73,567.87 " fill="none" id="mastermind.controllers.UseCaseController-mastermind.controllers.ResumeController" style="stroke: #A80036; stroke-width: 1.0;"/><polygon fill="none" points="978.86,350.8,984.29,330.32,992.82,349.72,978.86,350.8" style="stroke: #A80036; stroke-width: 1.0;"/><!--link mastermind.controllers.UseCaseController to mastermind.controllers.StartController--><path d="M815.81,314.46 C744.04,333.86 659.61,359.63 586,390 C456.8,443.31 315.45,526.54 238.94,573.87 " fill="none" id="mastermind.controllers.UseCaseController-mastermind.controllers.StartController" style="stroke: #A80036; stroke-width: 1.0;"/><polygon fill="none" points="814.08,307.67,835.21,309.29,817.69,321.2,814.08,307.67" style="stroke: #A80036; stroke-width: 1.0;"/><!--
@startuml

interface mastermind.controllers.ControllerVisitor {
+ visit(StartController startController): void
+ visit(PlayController playController): void
+ visit(ResumeController resumeController): void
}

mastermind.controllers.ControllerVisitor .down.> mastermind.controllers.StartController
mastermind.controllers.ControllerVisitor .down.> mastermind.controllers.PlayController
mastermind.controllers.ControllerVisitor .down.> mastermind.controllers.ResumeController

class mastermind.controllers.Logic {
- final state: State
- final controllers: Map<StateValue, UseCaseController>
+ Logic()
+ getController(): UseCaseController
}

mastermind.controllers.Logic *-down-> mastermind.models.State
mastermind.controllers.Logic *-down-> mastermind.models.StateValue
mastermind.controllers.Logic *-down-> mastermind.controllers.UseCaseController
mastermind.controllers.Logic .down.> mastermind.models.Game

abstract class mastermind.controllers.UseCaseController {
# final game: Game
# final state: State
UseCaseController(Game game, State state)
+ next(): void
+ {abstract} accept(ControllerVisitor controllerVisitor): void
}

mastermind.controllers.UseCaseController *-down-> mastermind.models.Game
mastermind.controllers.UseCaseController *-down-> mastermind.models.State
mastermind.controllers.UseCaseController .down.> mastermind.controllers.ControllerVisitor

class mastermind.controllers.PlayController extends mastermind.controllers.UseCaseController {
+ PlayController(Game game, State state)
+ addProposedCombination(ProposedCombination proposedCombination): void
+ getAttempts(): int
+ getProposedCombination(int position): ProposedCombination
+ getResult(int position): Result
+ isWinner(): boolean
+ isLooser(): boolean
+ accept(ControllerVisitor controllerVisitor): void
}

mastermind.controllers.PlayController .down.> mastermind.models.ProposedCombination
mastermind.controllers.PlayController .down.> mastermind.models.Result

class mastermind.controllers.ResumeController extends mastermind.controllers.UseCaseController {
+ ResumeController(Game game, State state)
+ resume(): void
+ accept(ControllerVisitor controllerVisitor): void
}

class mastermind.controllers.StartController extends mastermind.controllers.UseCaseController {
+StartController(Game game, State state)
+ accept(ControllerVisitor controllerVisitor): void
}
@enduml

PlantUML version 1.2019.05(Sat Apr 20 18:45:36 CEST 2019)
(GPL source distribution)
Java Runtime: OpenJDK Runtime Environment
JVM: OpenJDK 64-Bit Server VM
Java Version: 1.8.0_265-8u265-b01-0ubuntu2~20.04-b01
Operating System: Linux
OS Version: 5.4.0-51-generic
Default Encoding: UTF-8
Language: es
Country: ES
--></g></svg>