<?xml version="1.0" encoding="UTF-8" standalone="no"?><svg xmlns="http://www.w3.org/2000/svg" xmlns:xlink="http://www.w3.org/1999/xlink" contentScriptType="application/ecmascript" contentStyleType="text/css" height="504px" preserveAspectRatio="none" style="width:1783px;height:504px;" version="1.1" viewBox="0 0 1783 504" width="1783px" zoomAndPan="magnify"><defs><filter height="300%" id="f19wklecqihlz8" width="300%" x="-1" y="-1"><feGaussianBlur result="blurOut" stdDeviation="2.0"/><feColorMatrix in="blurOut" result="blurOut2" type="matrix" values="0 0 0 0 0 0 0 0 0 0 0 0 0 0 0 0 0 0 .4 0"/><feOffset dx="4.0" dy="4.0" in="blurOut2" result="blurOut3"/><feBlend in="SourceGraphic" in2="blurOut3" mode="normal"/></filter></defs><g><!--cluster mastermind.controllers--><polygon fill="#FFFFFF" filter="url(#f19wklecqihlz8)" points="22,24,212,24,219,46.2969,1194,46.2969,1194,492,22,492,22,24" style="stroke: #000000; stroke-width: 1.5;"/><line style="stroke: #000000; stroke-width: 1.5;" x1="22" x2="219" y1="46.2969" y2="46.2969"/><text fill="#000000" font-family="sans-serif" font-size="14" font-weight="bold" lengthAdjust="spacingAndGlyphs" textLength="184" x="26" y="38.9951">mastermind.controllers</text><!--cluster mastermind.models--><polygon fill="#FFFFFF" filter="url(#f19wklecqihlz8)" points="1218,208.5,1379,208.5,1386,230.7969,1761,230.7969,1761,307.5,1218,307.5,1218,208.5" style="stroke: #000000; stroke-width: 1.5;"/><line style="stroke: #000000; stroke-width: 1.5;" x1="1218" x2="1386" y1="230.7969" y2="230.7969"/><text fill="#000000" font-family="sans-serif" font-size="14" font-weight="bold" lengthAdjust="spacingAndGlyphs" textLength="155" x="1222" y="223.4951">mastermind.models</text><!--class mastermind.controllers.AddProposalController--><a href="AddProposalController.html" target="_top" xlink:actuate="onRequest" xlink:show="new" xlink:title="AddProposalController.html" xlink:type="simple"><rect fill="#FEFECE" filter="url(#f19wklecqihlz8)" height="73.6094" id="mastermind.controllers.AddProposalController" style="stroke: #A80036; stroke-width: 1.5;" width="233" x="945.5" y="396"/><ellipse cx="988.85" cy="412" fill="#A9DCDF" rx="11" ry="11" style="stroke: #A80036; stroke-width: 1.0;"/><path d="M988.9594,407.3438 L987.8031,412.4219 L990.1313,412.4219 L988.9594,407.3438 Z M987.475,405.1094 L990.4594,405.1094 L993.8188,417.5 L991.3656,417.5 L990.6,414.4375 L987.3188,414.4375 L986.5688,417.5 L984.1313,417.5 L987.475,405.1094 Z "/><text fill="#000000" font-family="sans-serif" font-size="12" font-style="italic" lengthAdjust="spacingAndGlyphs" textLength="138" x="1009.15" y="416.1543">AddProposalController</text><line style="stroke: #A80036; stroke-width: 1.5;" x1="946.5" x2="1177.5" y1="428" y2="428"/><line style="stroke: #A80036; stroke-width: 1.5;" x1="946.5" x2="1177.5" y1="436" y2="436"/><ellipse cx="956.5" cy="447.9023" fill="#84BE84" rx="3" ry="3" style="stroke: #038048; stroke-width: 1.0;"/><text fill="#000000" font-family="sans-serif" font-size="11" lengthAdjust="spacingAndGlyphs" textLength="207" x="965.5" y="450.2104">AddProposalController(Game, State)</text><ellipse cx="956.5" cy="460.707" fill="#84BE84" rx="3" ry="3" style="stroke: #038048; stroke-width: 1.0;"/><text fill="#000000" font-family="sans-serif" font-size="11" lengthAdjust="spacingAndGlyphs" textLength="83" x="965.5" y="463.0151">execute(): void</text></a><!--class mastermind.controllers.UseCaseController--><a href="UseCaseController.html" target="_top" xlink:actuate="onRequest" xlink:show="new" xlink:title="UseCaseController.html" xlink:type="simple"><rect fill="#FEFECE" filter="url(#f19wklecqihlz8)" height="124.8281" id="mastermind.controllers.UseCaseController" style="stroke: #A80036; stroke-width: 1.5;" width="146" x="678" y="205"/><ellipse cx="693" cy="221" fill="#A9DCDF" rx="11" ry="11" style="stroke: #A80036; stroke-width: 1.0;"/><path d="M693.1094,216.3438 L691.9531,221.4219 L694.2813,221.4219 L693.1094,216.3438 Z M691.625,214.1094 L694.6094,214.1094 L697.9688,226.5 L695.5156,226.5 L694.75,223.4375 L691.4688,223.4375 L690.7188,226.5 L688.2813,226.5 L691.625,214.1094 Z "/><text fill="#000000" font-family="sans-serif" font-size="12" font-style="italic" lengthAdjust="spacingAndGlyphs" textLength="114" x="707" y="225.1543">UseCaseController</text><line style="stroke: #A80036; stroke-width: 1.5;" x1="679" x2="823" y1="237" y2="237"/><polygon fill="none" points="689,243.9023,693,247.9023,689,251.9023,685,247.9023" style="stroke: #B38D22; stroke-width: 1.0;"/><text fill="#000000" font-family="sans-serif" font-size="11" lengthAdjust="spacingAndGlyphs" textLength="74" x="698" y="251.2104">game: Game</text><polygon fill="none" points="689,256.707,693,260.707,689,264.707,685,260.707" style="stroke: #B38D22; stroke-width: 1.0;"/><text fill="#000000" font-family="sans-serif" font-size="11" lengthAdjust="spacingAndGlyphs" textLength="67" x="698" y="264.0151">state: State</text><polygon fill="none" points="689,269.5117,693,273.5117,689,277.5117,685,273.5117" style="stroke: #B38D22; stroke-width: 1.0;"/><text fill="#000000" font-family="sans-serif" font-size="11" lengthAdjust="spacingAndGlyphs" textLength="59" x="698" y="276.8198">view: View</text><line style="stroke: #A80036; stroke-width: 1.5;" x1="679" x2="823" y1="283.4141" y2="283.4141"/><ellipse cx="689" cy="295.3164" fill="#84BE84" rx="3" ry="3" style="stroke: #038048; stroke-width: 1.0;"/><text fill="#000000" font-family="sans-serif" font-size="11" lengthAdjust="spacingAndGlyphs" textLength="63" x="698" y="297.6245">next(): void</text><ellipse cx="689" cy="308.1211" fill="#84BE84" rx="3" ry="3" style="stroke: #038048; stroke-width: 1.0;"/><text fill="#000000" font-family="sans-serif" font-size="11" font-style="italic" lengthAdjust="spacingAndGlyphs" textLength="106" x="698" y="310.4292">createView(): View</text><ellipse cx="689" cy="320.9258" fill="#84BE84" rx="3" ry="3" style="stroke: #038048; stroke-width: 1.0;"/><text fill="#000000" font-family="sans-serif" font-size="11" font-style="italic" lengthAdjust="spacingAndGlyphs" textLength="85" x="698" y="323.2339">execute(): void</text></a><!--class mastermind.controllers.Logic--><a href="Logic.html" target="_top" xlink:actuate="onRequest" xlink:show="new" xlink:title="Logic.html" xlink:type="simple"><rect fill="#FEFECE" filter="url(#f19wklecqihlz8)" height="86.4141" id="mastermind.controllers.Logic" style="stroke: #A80036; stroke-width: 1.5;" width="353" x="683.5" y="59"/><ellipse cx="839.25" cy="75" fill="#A9DCDF" rx="11" ry="11" style="stroke: #A80036; stroke-width: 1.0;"/><path d="M839.3594,70.3438 L838.2031,75.4219 L840.5313,75.4219 L839.3594,70.3438 Z M837.875,68.1094 L840.8594,68.1094 L844.2188,80.5 L841.7656,80.5 L841,77.4375 L837.7188,77.4375 L836.9688,80.5 L834.5313,80.5 L837.875,68.1094 Z "/><text fill="#000000" font-family="sans-serif" font-size="12" font-style="italic" lengthAdjust="spacingAndGlyphs" textLength="33" x="859.75" y="79.1543">Logic</text><line style="stroke: #A80036; stroke-width: 1.5;" x1="684.5" x2="1035.5" y1="91" y2="91"/><line style="stroke: #A80036; stroke-width: 1.5;" x1="684.5" x2="1035.5" y1="99" y2="99"/><ellipse cx="694.5" cy="110.9023" fill="#84BE84" rx="3" ry="3" style="stroke: #038048; stroke-width: 1.0;"/><text fill="#000000" font-family="sans-serif" font-size="11" font-style="italic" lengthAdjust="spacingAndGlyphs" textLength="289" x="703.5" y="113.2104">createStartController(Game, State): StartController</text><ellipse cx="694.5" cy="123.707" fill="#84BE84" rx="3" ry="3" style="stroke: #038048; stroke-width: 1.0;"/><text fill="#000000" font-family="sans-serif" font-size="11" font-style="italic" lengthAdjust="spacingAndGlyphs" textLength="283" x="703.5" y="126.0151">createPlayController(Game, State): PlayController</text><ellipse cx="694.5" cy="136.5117" fill="#84BE84" rx="3" ry="3" style="stroke: #038048; stroke-width: 1.0;"/><text fill="#000000" font-family="sans-serif" font-size="11" font-style="italic" lengthAdjust="spacingAndGlyphs" textLength="327" x="703.5" y="138.8198">createResumeController(Game, State): ResumeController</text></a><!--class mastermind.controllers.StartController--><a href="StartController.html" target="_top" xlink:actuate="onRequest" xlink:show="new" xlink:title="StartController.html" xlink:type="simple"><rect fill="#FEFECE" filter="url(#f19wklecqihlz8)" height="73.6094" id="mastermind.controllers.StartController" style="stroke: #A80036; stroke-width: 1.5;" width="190" x="477" y="396"/><ellipse cx="521.75" cy="412" fill="#A9DCDF" rx="11" ry="11" style="stroke: #A80036; stroke-width: 1.0;"/><path d="M521.8594,407.3438 L520.7031,412.4219 L523.0313,412.4219 L521.8594,407.3438 Z M520.375,405.1094 L523.3594,405.1094 L526.7188,417.5 L524.2656,417.5 L523.5,414.4375 L520.2188,414.4375 L519.4688,417.5 L517.0313,417.5 L520.375,405.1094 Z "/><text fill="#000000" font-family="sans-serif" font-size="12" font-style="italic" lengthAdjust="spacingAndGlyphs" textLength="92" x="542.25" y="416.1543">StartController</text><line style="stroke: #A80036; stroke-width: 1.5;" x1="478" x2="666" y1="428" y2="428"/><line style="stroke: #A80036; stroke-width: 1.5;" x1="478" x2="666" y1="436" y2="436"/><ellipse cx="488" cy="447.9023" fill="#84BE84" rx="3" ry="3" style="stroke: #038048; stroke-width: 1.0;"/><text fill="#000000" font-family="sans-serif" font-size="11" lengthAdjust="spacingAndGlyphs" textLength="164" x="497" y="450.2104">StartController(Game, State)</text><ellipse cx="488" cy="460.707" fill="#84BE84" rx="3" ry="3" style="stroke: #038048; stroke-width: 1.0;"/><text fill="#000000" font-family="sans-serif" font-size="11" lengthAdjust="spacingAndGlyphs" textLength="83" x="497" y="463.0151">execute(): void</text></a><!--class mastermind.controllers.PlayController--><a href="PlayController.html" target="_top" xlink:actuate="onRequest" xlink:show="new" xlink:title="PlayController.html" xlink:type="simple"><rect fill="#FEFECE" filter="url(#f19wklecqihlz8)" height="86.4141" id="mastermind.controllers.PlayController" style="stroke: #A80036; stroke-width: 1.5;" width="403" x="38.5" y="390"/><ellipse cx="192.75" cy="406" fill="#A9DCDF" rx="11" ry="11" style="stroke: #A80036; stroke-width: 1.0;"/><path d="M192.8594,401.3438 L191.7031,406.4219 L194.0313,406.4219 L192.8594,401.3438 Z M191.375,399.1094 L194.3594,399.1094 L197.7188,411.5 L195.2656,411.5 L194.5,408.4375 L191.2188,408.4375 L190.4688,411.5 L188.0313,411.5 L191.375,399.1094 Z "/><text fill="#000000" font-family="sans-serif" font-size="12" font-style="italic" lengthAdjust="spacingAndGlyphs" textLength="86" x="213.25" y="410.1543">PlayController</text><line style="stroke: #A80036; stroke-width: 1.5;" x1="39.5" x2="440.5" y1="422" y2="422"/><line style="stroke: #A80036; stroke-width: 1.5;" x1="39.5" x2="440.5" y1="430" y2="430"/><ellipse cx="49.5" cy="441.9023" fill="#84BE84" rx="3" ry="3" style="stroke: #038048; stroke-width: 1.0;"/><text fill="#000000" font-family="sans-serif" font-size="11" lengthAdjust="spacingAndGlyphs" textLength="159" x="58.5" y="444.2104">PlayController(Game, State)</text><ellipse cx="49.5" cy="454.707" fill="#84BE84" rx="3" ry="3" style="stroke: #038048; stroke-width: 1.0;"/><text fill="#000000" font-family="sans-serif" font-size="11" lengthAdjust="spacingAndGlyphs" textLength="83" x="58.5" y="457.0151">execute(): void</text><ellipse cx="49.5" cy="467.5117" fill="#84BE84" rx="3" ry="3" style="stroke: #038048; stroke-width: 1.0;"/><text fill="#000000" font-family="sans-serif" font-size="11" font-style="italic" lengthAdjust="spacingAndGlyphs" textLength="377" x="58.5" y="469.8198">createAddProposalController(Game, State): AddProposalController</text></a><!--class mastermind.controllers.ResumeController--><a href="ResumeController.html" target="_top" xlink:actuate="onRequest" xlink:show="new" xlink:title="ResumeController.html" xlink:type="simple"><rect fill="#FEFECE" filter="url(#f19wklecqihlz8)" height="73.6094" id="mastermind.controllers.ResumeController" style="stroke: #A80036; stroke-width: 1.5;" width="208" x="702" y="396"/><ellipse cx="746.75" cy="412" fill="#A9DCDF" rx="11" ry="11" style="stroke: #A80036; stroke-width: 1.0;"/><path d="M746.8594,407.3438 L745.7031,412.4219 L748.0313,412.4219 L746.8594,407.3438 Z M745.375,405.1094 L748.3594,405.1094 L751.7188,417.5 L749.2656,417.5 L748.5,414.4375 L745.2188,414.4375 L744.4688,417.5 L742.0313,417.5 L745.375,405.1094 Z "/><text fill="#000000" font-family="sans-serif" font-size="12" font-style="italic" lengthAdjust="spacingAndGlyphs" textLength="110" x="767.25" y="416.1543">ResumeController</text><line style="stroke: #A80036; stroke-width: 1.5;" x1="703" x2="909" y1="428" y2="428"/><line style="stroke: #A80036; stroke-width: 1.5;" x1="703" x2="909" y1="436" y2="436"/><ellipse cx="713" cy="447.9023" fill="#84BE84" rx="3" ry="3" style="stroke: #038048; stroke-width: 1.0;"/><text fill="#000000" font-family="sans-serif" font-size="11" lengthAdjust="spacingAndGlyphs" textLength="182" x="722" y="450.2104">ResumeController(Game, State)</text><ellipse cx="713" cy="460.707" fill="#84BE84" rx="3" ry="3" style="stroke: #038048; stroke-width: 1.0;"/><text fill="#000000" font-family="sans-serif" font-size="11" lengthAdjust="spacingAndGlyphs" textLength="83" x="722" y="463.0151">execute(): void</text></a><!--class mastermind.models.ProposedCombination--><rect fill="#FEFECE" filter="url(#f19wklecqihlz8)" height="48" id="mastermind.models.ProposedCombination" style="stroke: #A80036; stroke-width: 1.5;" width="170" x="1371" y="243.5"/><ellipse cx="1386" cy="259.5" fill="#ADD1B2" rx="11" ry="11" style="stroke: #A80036; stroke-width: 1.0;"/><path d="M1388.9688,265.1406 Q1388.3906,265.4375 1387.75,265.5781 Q1387.1094,265.7344 1386.4063,265.7344 Q1383.9063,265.7344 1382.5781,264.0938 Q1381.2656,262.4375 1381.2656,259.3125 Q1381.2656,256.1875 1382.5781,254.5313 Q1383.9063,252.875 1386.4063,252.875 Q1387.1094,252.875 1387.75,253.0313 Q1388.4063,253.1875 1388.9688,253.4844 L1388.9688,256.2031 Q1388.3438,255.625 1387.75,255.3594 Q1387.1563,255.0781 1386.5313,255.0781 Q1385.1875,255.0781 1384.5,256.1563 Q1383.8125,257.2188 1383.8125,259.3125 Q1383.8125,261.4063 1384.5,262.4844 Q1385.1875,263.5469 1386.5313,263.5469 Q1387.1563,263.5469 1387.75,263.2813 Q1388.3438,263 1388.9688,262.4219 L1388.9688,265.1406 Z "/><text fill="#000000" font-family="sans-serif" font-size="12" lengthAdjust="spacingAndGlyphs" textLength="138" x="1400" y="263.6543">ProposedCombination</text><line style="stroke: #A80036; stroke-width: 1.5;" x1="1372" x2="1540" y1="275.5" y2="275.5"/><line style="stroke: #A80036; stroke-width: 1.5;" x1="1372" x2="1540" y1="283.5" y2="283.5"/><!--class mastermind.models.State--><rect fill="#FEFECE" filter="url(#f19wklecqihlz8)" height="48" id="mastermind.models.State" style="stroke: #A80036; stroke-width: 1.5;" width="66" x="1679" y="243.5"/><ellipse cx="1694" cy="259.5" fill="#ADD1B2" rx="11" ry="11" style="stroke: #A80036; stroke-width: 1.0;"/><path d="M1696.9688,265.1406 Q1696.3906,265.4375 1695.75,265.5781 Q1695.1094,265.7344 1694.4063,265.7344 Q1691.9063,265.7344 1690.5781,264.0938 Q1689.2656,262.4375 1689.2656,259.3125 Q1689.2656,256.1875 1690.5781,254.5313 Q1691.9063,252.875 1694.4063,252.875 Q1695.1094,252.875 1695.75,253.0313 Q1696.4063,253.1875 1696.9688,253.4844 L1696.9688,256.2031 Q1696.3438,255.625 1695.75,255.3594 Q1695.1563,255.0781 1694.5313,255.0781 Q1693.1875,255.0781 1692.5,256.1563 Q1691.8125,257.2188 1691.8125,259.3125 Q1691.8125,261.4063 1692.5,262.4844 Q1693.1875,263.5469 1694.5313,263.5469 Q1695.1563,263.5469 1695.75,263.2813 Q1696.3438,263 1696.9688,262.4219 L1696.9688,265.1406 Z "/><text fill="#000000" font-family="sans-serif" font-size="12" lengthAdjust="spacingAndGlyphs" textLength="34" x="1708" y="263.6543">State</text><line style="stroke: #A80036; stroke-width: 1.5;" x1="1680" x2="1744" y1="275.5" y2="275.5"/><line style="stroke: #A80036; stroke-width: 1.5;" x1="1680" x2="1744" y1="283.5" y2="283.5"/><!--class mastermind.models.StateValue--><rect fill="#FEFECE" filter="url(#f19wklecqihlz8)" height="48" id="mastermind.models.StateValue" style="stroke: #A80036; stroke-width: 1.5;" width="101" x="1234.5" y="243.5"/><ellipse cx="1249.5" cy="259.5" fill="#ADD1B2" rx="11" ry="11" style="stroke: #A80036; stroke-width: 1.0;"/><path d="M1252.4688,265.1406 Q1251.8906,265.4375 1251.25,265.5781 Q1250.6094,265.7344 1249.9063,265.7344 Q1247.4063,265.7344 1246.0781,264.0938 Q1244.7656,262.4375 1244.7656,259.3125 Q1244.7656,256.1875 1246.0781,254.5313 Q1247.4063,252.875 1249.9063,252.875 Q1250.6094,252.875 1251.25,253.0313 Q1251.9063,253.1875 1252.4688,253.4844 L1252.4688,256.2031 Q1251.8438,255.625 1251.25,255.3594 Q1250.6563,255.0781 1250.0313,255.0781 Q1248.6875,255.0781 1248,256.1563 Q1247.3125,257.2188 1247.3125,259.3125 Q1247.3125,261.4063 1248,262.4844 Q1248.6875,263.5469 1250.0313,263.5469 Q1250.6563,263.5469 1251.25,263.2813 Q1251.8438,263 1252.4688,262.4219 L1252.4688,265.1406 Z "/><text fill="#000000" font-family="sans-serif" font-size="12" lengthAdjust="spacingAndGlyphs" textLength="69" x="1263.5" y="263.6543">StateValue</text><line style="stroke: #A80036; stroke-width: 1.5;" x1="1235.5" x2="1334.5" y1="275.5" y2="275.5"/><line style="stroke: #A80036; stroke-width: 1.5;" x1="1235.5" x2="1334.5" y1="283.5" y2="283.5"/><!--class mastermind.models.Game--><rect fill="#FEFECE" filter="url(#f19wklecqihlz8)" height="48" id="mastermind.models.Game" style="stroke: #A80036; stroke-width: 1.5;" width="68" x="1576" y="243.5"/><ellipse cx="1591" cy="259.5" fill="#ADD1B2" rx="11" ry="11" style="stroke: #A80036; stroke-width: 1.0;"/><path d="M1593.9688,265.1406 Q1593.3906,265.4375 1592.75,265.5781 Q1592.1094,265.7344 1591.4063,265.7344 Q1588.9063,265.7344 1587.5781,264.0938 Q1586.2656,262.4375 1586.2656,259.3125 Q1586.2656,256.1875 1587.5781,254.5313 Q1588.9063,252.875 1591.4063,252.875 Q1592.1094,252.875 1592.75,253.0313 Q1593.4063,253.1875 1593.9688,253.4844 L1593.9688,256.2031 Q1593.3438,255.625 1592.75,255.3594 Q1592.1563,255.0781 1591.5313,255.0781 Q1590.1875,255.0781 1589.5,256.1563 Q1588.8125,257.2188 1588.8125,259.3125 Q1588.8125,261.4063 1589.5,262.4844 Q1590.1875,263.5469 1591.5313,263.5469 Q1592.1563,263.5469 1592.75,263.2813 Q1593.3438,263 1593.9688,262.4219 L1593.9688,265.1406 Z "/><text fill="#000000" font-family="sans-serif" font-size="12" lengthAdjust="spacingAndGlyphs" textLength="36" x="1605" y="263.6543">Game</text><line style="stroke: #A80036; stroke-width: 1.5;" x1="1577" x2="1643" y1="275.5" y2="275.5"/><line style="stroke: #A80036; stroke-width: 1.5;" x1="1577" x2="1643" y1="283.5" y2="283.5"/><!--link mastermind.controllers.UseCaseController to mastermind.controllers.AddProposalController--><path d="M842.29,316.5 C890.63,341.91 949.02,372.6 993.44,395.96 " fill="none" id="mastermind.controllers.UseCaseController-mastermind.controllers.AddProposalController" style="stroke: #A80036; stroke-width: 1.0;"/><polygon fill="none" points="838.75,322.54,824.31,307.04,845.27,310.15,838.75,322.54" style="stroke: #A80036; stroke-width: 1.0;"/><!--link mastermind.controllers.AddProposalController to mastermind.models.ProposedCombination--><path d="M1178.84,397.01 C1232.85,379.33 1297.24,356.09 1353,330 C1374.74,319.83 1397.78,306.35 1416.54,294.61 " fill="none" id="mastermind.controllers.AddProposalController-mastermind.models.ProposedCombination" style="stroke: #A80036; stroke-width: 1.0; stroke-dasharray: 7.0,7.0;"/><polygon fill="#A80036" points="1421.21,291.66,1411.4648,293.0852,1416.9829,294.3305,1415.7376,299.8486,1421.21,291.66" style="stroke: #A80036; stroke-width: 1.0;"/><!--link mastermind.models.State to mastermind.controllers.Logic--><path d="M1693.72,232.15 C1685.61,220.2 1674.94,207.94 1662,200.5 C1561.01,142.45 1253.43,118.68 1049.87,109.15 " fill="none" id="mastermind.models.State-mastermind.controllers.Logic" style="stroke: #A80036; stroke-width: 1.0;"/><polygon fill="#A80036" points="1036.62,108.54,1042.4337,112.8063,1048.6078,109.0807,1042.7941,104.8144,1036.62,108.54" style="stroke: #A80036; stroke-width: 1.0;"/><polygon fill="#A80036" points="1700.7,243.34,1699.3265,233.5874,1698.052,239.0988,1692.5406,237.8242,1700.7,243.34" style="stroke: #A80036; stroke-width: 1.0;"/><line style="stroke: #A80036; stroke-width: 1.0;" x1="1698.052" x2="1693.82" y1="239.0988" y2="232.31"/><!--link mastermind.models.StateValue to mastermind.controllers.Logic--><path d="M1247.93,235.15 C1232.1,222.99 1212.94,209.78 1194,200.5 C1148.84,178.37 1097.73,160.32 1049.32,146.04 " fill="none" id="mastermind.models.StateValue-mastermind.controllers.Logic" style="stroke: #A80036; stroke-width: 1.0;"/><polygon fill="#A80036" points="1036.74,142.39,1041.3912,147.9006,1048.2668,145.7267,1043.6156,140.2161,1036.74,142.39" style="stroke: #A80036; stroke-width: 1.0;"/><polygon fill="#A80036" points="1258.31,243.34,1253.727,234.6224,1254.3864,240.2407,1248.7681,240.9001,1258.31,243.34" style="stroke: #A80036; stroke-width: 1.0;"/><line style="stroke: #A80036; stroke-width: 1.0;" x1="1254.3864" x2="1248.1" y1="240.2407" y2="235.29"/><!--link mastermind.controllers.Logic to mastermind.controllers.UseCaseController--><path d="M824.6,156.11 C816.58,168.13 807.94,181.1 799.49,193.77 " fill="none" id="mastermind.controllers.Logic-mastermind.controllers.UseCaseController" style="stroke: #A80036; stroke-width: 1.0;"/><polygon fill="#A80036" points="792.13,204.8,800.4521,199.5329,794.9048,200.6406,793.7971,195.0933,792.13,204.8" style="stroke: #A80036; stroke-width: 1.0;"/><line style="stroke: #A80036; stroke-width: 1.0;" x1="794.9048" x2="799.345" y1="200.6406" y2="193.985"/><polygon fill="#A80036" points="831.93,145.11,825.2728,147.8815,825.2706,155.0926,831.9278,152.3211,831.93,145.11" style="stroke: #A80036; stroke-width: 1.0;"/><!--link mastermind.controllers.Logic to mastermind.controllers.StartController--><path d="M726.11,151.25 C702.18,164.42 679.14,180.68 661,200.5 C613.63,252.26 590.51,331.91 579.95,382.98 " fill="none" id="mastermind.controllers.Logic-mastermind.controllers.StartController" style="stroke: #A80036; stroke-width: 1.0;"/><polygon fill="#A80036" points="577.42,395.95,583.0761,387.8872,578.3816,391.0433,575.2255,386.3488,577.42,395.95" style="stroke: #A80036; stroke-width: 1.0;"/><line style="stroke: #A80036; stroke-width: 1.0;" x1="578.3816" x2="579.915" y1="391.0433" y2="383.195"/><polygon fill="#A80036" points="737.91,145.03,730.7373,144.287,727.2927,150.6222,734.4654,151.3652,737.91,145.03" style="stroke: #A80036; stroke-width: 1.0;"/><!--link mastermind.controllers.Logic to mastermind.controllers.PlayController--><path d="M707.58,149.41 C666.9,163.84 623.55,181.12 585,200.5 C481.01,252.78 371.04,331.14 303.95,381.92 " fill="none" id="mastermind.controllers.Logic-mastermind.controllers.PlayController" style="stroke: #A80036; stroke-width: 1.0;"/><polygon fill="#A80036" points="293.55,389.82,303.1358,387.5589,297.5308,386.7946,298.2951,381.1896,293.55,389.82" style="stroke: #A80036; stroke-width: 1.0;"/><line style="stroke: #A80036; stroke-width: 1.0;" x1="297.5308" x2="303.905" y1="386.7946" y2="381.955"/><polygon fill="#A80036" points="720.11,145.02,713.1267,143.222,708.781,148.9766,715.7644,150.7746,720.11,145.02" style="stroke: #A80036; stroke-width: 1.0;"/><!--link mastermind.controllers.Logic to mastermind.controllers.ResumeController--><path d="M859.61,158.37 C858.34,204.69 854.26,272.28 842,330 C838.21,347.86 832.1,366.86 825.99,383.57 " fill="none" id="mastermind.controllers.Logic-mastermind.controllers.ResumeController" style="stroke: #A80036; stroke-width: 1.0;"/><polygon fill="#A80036" points="821.35,395.84,828.2735,388.8353,823.1176,391.1629,820.7901,386.0071,821.35,395.84" style="stroke: #A80036; stroke-width: 1.0;"/><line style="stroke: #A80036; stroke-width: 1.0;" x1="823.1176" x2="825.95" y1="391.1629" y2="383.68"/><polygon fill="#A80036" points="859.91,145.31,855.7725,151.216,859.6328,157.3068,863.7704,151.4008,859.91,145.31" style="stroke: #A80036; stroke-width: 1.0;"/><!--link mastermind.controllers.Logic to mastermind.models.Game--><path d="M1036.75,112.5 C1214.06,124.68 1472.82,150.5 1559,200.5 C1574.42,209.45 1586.8,225.05 1595.5,238.83 " fill="none" id="mastermind.controllers.Logic-mastermind.models.Game" style="stroke: #A80036; stroke-width: 1.0; stroke-dasharray: 7.0,7.0;"/><polygon fill="#A80036" points="1598.31,243.43,1597.0089,233.6675,1595.6935,239.1693,1590.1917,237.8539,1598.31,243.43" style="stroke: #A80036; stroke-width: 1.0;"/><!--link mastermind.controllers.UseCaseController to mastermind.controllers.PlayController--><path d="M658.74,298.02 C578.53,323.68 461.41,361.16 371.41,389.95 " fill="none" id="mastermind.controllers.UseCaseController-mastermind.controllers.PlayController" style="stroke: #A80036; stroke-width: 1.0;"/><polygon fill="none" points="656.6,291.35,677.79,291.93,660.87,304.69,656.6,291.35" style="stroke: #A80036; stroke-width: 1.0;"/><!--link mastermind.controllers.PlayController to mastermind.controllers.AddProposalController--><path d="M368.29,385.94 C403.23,375.23 441.41,365.42 477.5,360 C667.81,331.41 722.89,317.16 910.5,360 C937.41,366.14 965.1,377.71 989.33,389.84 " fill="none" id="mastermind.controllers.PlayController-mastermind.controllers.AddProposalController" style="stroke: #A80036; stroke-width: 1.0;"/><polygon fill="#A80036" points="1000.93,395.83,994.7629,388.151,996.4857,393.5392,991.0975,395.262,1000.93,395.83" style="stroke: #A80036; stroke-width: 1.0;"/><line style="stroke: #A80036; stroke-width: 1.0;" x1="996.4857" x2="989.375" y1="393.5392" y2="389.865"/><polygon fill="#A80036" points="355.57,389.92,362.4916,391.9428,367.0209,386.3317,360.0994,384.3089,355.57,389.92" style="stroke: #A80036; stroke-width: 1.0;"/><!--link mastermind.controllers.UseCaseController to mastermind.controllers.ResumeController--><path d="M778.26,349.53 C783.71,365.74 789.18,381.99 793.8,395.72 " fill="none" id="mastermind.controllers.UseCaseController-mastermind.controllers.ResumeController" style="stroke: #A80036; stroke-width: 1.0;"/><polygon fill="none" points="771.54,351.5,771.79,330.31,784.8,347.04,771.54,351.5" style="stroke: #A80036; stroke-width: 1.0;"/><!--link mastermind.controllers.UseCaseController to mastermind.controllers.StartController--><path d="M668.57,343.8 C648.72,361.92 628.42,380.47 611.58,395.85 " fill="none" id="mastermind.controllers.UseCaseController-mastermind.controllers.StartController" style="stroke: #A80036; stroke-width: 1.0;"/><polygon fill="none" points="664.09,338.4,683.58,330.08,673.54,348.74,664.09,338.4" style="stroke: #A80036; stroke-width: 1.0;"/><!--
@startuml
abstract class mastermind.controllers.AddProposalController [[AddProposalController.html]] {
    +AddProposalController(Game, State)
    +execute(): void
}

mastermind.controllers.UseCaseController <|- - mastermind.controllers.AddProposalController
mastermind.controllers.AddProposalController ..> mastermind.models.ProposedCombination

abstract class mastermind.controllers.Logic [[Logic.html]] {
    {abstract} +createStartController(Game, State): StartController
    {abstract} +createPlayController(Game, State): PlayController
    {abstract} +createResumeController(Game, State): ResumeController
}

mastermind.controllers.Logic *-up-> mastermind.models.State
mastermind.controllers.Logic *-up-> mastermind.models.StateValue
mastermind.controllers.Logic *-down-> mastermind.controllers.UseCaseController
mastermind.controllers.Logic *-down-> mastermind.controllers.StartController
mastermind.controllers.Logic *-down-> mastermind.controllers.PlayController
mastermind.controllers.Logic *-down-> mastermind.controllers.ResumeController
mastermind.controllers.Logic .down.> mastermind.models.Game

abstract class mastermind.controllers.PlayController [[PlayController.html]] {
    +PlayController(Game, State)
    +execute(): void
    {abstract} +createAddProposalController(Game, State): AddProposalController
}

mastermind.controllers.UseCaseController <|- - mastermind.controllers.PlayController
mastermind.controllers.PlayController *-> mastermind.controllers.AddProposalController

abstract class mastermind.controllers.ResumeController [[ResumeController.html]] {
    +ResumeController(Game, State)
    +execute(): void
}

mastermind.controllers.UseCaseController <|- - mastermind.controllers.ResumeController

abstract class mastermind.controllers.StartController [[StartController.html]] {
    +StartController(Game, State)
    +execute(): void
}

mastermind.controllers.UseCaseController <|- - mastermind.controllers.StartController

abstract class mastermind.controllers.UseCaseController [[UseCaseController.html]] {
    #game: Game
    #state: State
    #view: View
    +next(): void
    {abstract} +createView(): View
    {abstract} +execute(): void
}



@enduml

PlantUML version 1.2019.05(Sat Apr 20 18:45:36 CEST 2019)
(GPL source distribution)
Java Runtime: OpenJDK Runtime Environment
JVM: OpenJDK 64-Bit Server VM
Java Version: 1.8.0_265-8u265-b01-0ubuntu2~20.04-b01
Operating System: Linux
OS Version: 5.4.0-52-generic
Default Encoding: UTF-8
Language: es
Country: ES
--></g></svg>