<?xml version="1.0" encoding="UTF-8" standalone="no"?><svg xmlns="http://www.w3.org/2000/svg" xmlns:xlink="http://www.w3.org/1999/xlink" contentScriptType="application/ecmascript" contentStyleType="text/css" height="591px" preserveAspectRatio="none" style="width:1655px;height:591px;" version="1.1" viewBox="0 0 1655 591" width="1655px" zoomAndPan="magnify"><defs><filter height="300%" id="fkhfmayk4okhm" width="300%" x="-1" y="-1"><feGaussianBlur result="blurOut" stdDeviation="2.0"/><feColorMatrix in="blurOut" result="blurOut2" type="matrix" values="0 0 0 0 0 0 0 0 0 0 0 0 0 0 0 0 0 0 .4 0"/><feOffset dx="4.0" dy="4.0" in="blurOut2" result="blurOut3"/><feBlend in="SourceGraphic" in2="blurOut3" mode="normal"/></filter></defs><g><!--cluster mastermind.controllers.console--><polygon fill="#FFFFFF" filter="url(#fkhfmayk4okhm)" points="477,185,734,185,741,207.2969,1633,207.2969,1633,456,477,456,477,185" style="stroke: #000000; stroke-width: 1.5;"/><line style="stroke: #000000; stroke-width: 1.5;" x1="477" x2="741" y1="207.2969" y2="207.2969"/><text fill="#000000" font-family="sans-serif" font-size="14" font-weight="bold" lengthAdjust="spacingAndGlyphs" textLength="251" x="481" y="199.9951">mastermind.controllers.console</text><!--cluster mastermind.controllers--><polygon fill="#FFFFFF" filter="url(#fkhfmayk4okhm)" points="22,24,212,24,219,46.2969,1570,46.2969,1570,161,22,161,22,24" style="stroke: #000000; stroke-width: 1.5;"/><line style="stroke: #000000; stroke-width: 1.5;" x1="22" x2="219" y1="46.2969" y2="46.2969"/><text fill="#000000" font-family="sans-serif" font-size="14" font-weight="bold" lengthAdjust="spacingAndGlyphs" textLength="184" x="26" y="38.9951">mastermind.controllers</text><!--cluster mastermind.views.console--><polygon fill="#FFFFFF" filter="url(#fkhfmayk4okhm)" points="748,480,965,480,972,502.2969,1370,502.2969,1370,579,748,579,748,480" style="stroke: #000000; stroke-width: 1.5;"/><line style="stroke: #000000; stroke-width: 1.5;" x1="748" x2="972" y1="502.2969" y2="502.2969"/><text fill="#000000" font-family="sans-serif" font-size="14" font-weight="bold" lengthAdjust="spacingAndGlyphs" textLength="211" x="752" y="494.9951">mastermind.views.console</text><!--class mastermind.controllers.console.AddProposalControllerImplementation--><a href="AddProposalControllerImplementation.html" target="_top" xlink:actuate="onRequest" xlink:show="new" xlink:title="AddProposalControllerImplementation.html" xlink:type="simple"><rect fill="#FEFECE" filter="url(#fkhfmayk4okhm)" height="73.6094" id="mastermind.controllers.console.AddProposalControllerImplementation" style="stroke: #A80036; stroke-width: 1.5;" width="321" x="513.5" y="366"/><ellipse cx="551.9" cy="382" fill="#ADD1B2" rx="11" ry="11" style="stroke: #A80036; stroke-width: 1.0;"/><path d="M554.8688,387.6406 Q554.2906,387.9375 553.65,388.0781 Q553.0094,388.2344 552.3063,388.2344 Q549.8063,388.2344 548.4781,386.5938 Q547.1656,384.9375 547.1656,381.8125 Q547.1656,378.6875 548.4781,377.0313 Q549.8063,375.375 552.3063,375.375 Q553.0094,375.375 553.65,375.5313 Q554.3063,375.6875 554.8688,375.9844 L554.8688,378.7031 Q554.2438,378.125 553.65,377.8594 Q553.0563,377.5781 552.4313,377.5781 Q551.0875,377.5781 550.4,378.6563 Q549.7125,379.7188 549.7125,381.8125 Q549.7125,383.9063 550.4,384.9844 Q551.0875,386.0469 552.4313,386.0469 Q553.0563,386.0469 553.65,385.7813 Q554.2438,385.5 554.8688,384.9219 L554.8688,387.6406 Z "/><text fill="#000000" font-family="sans-serif" font-size="12" lengthAdjust="spacingAndGlyphs" textLength="237" x="571.1" y="386.1543">AddProposalControllerImplementation</text><line style="stroke: #A80036; stroke-width: 1.5;" x1="514.5" x2="833.5" y1="398" y2="398"/><line style="stroke: #A80036; stroke-width: 1.5;" x1="514.5" x2="833.5" y1="406" y2="406"/><ellipse cx="524.5" cy="417.9023" fill="#84BE84" rx="3" ry="3" style="stroke: #038048; stroke-width: 1.0;"/><text fill="#000000" font-family="sans-serif" font-size="11" lengthAdjust="spacingAndGlyphs" textLength="295" x="533.5" y="420.2104">AddProposalControllerImplementation(Game, State)</text><ellipse cx="524.5" cy="430.707" fill="#84BE84" rx="3" ry="3" style="stroke: #038048; stroke-width: 1.0;"/><text fill="#000000" font-family="sans-serif" font-size="11" lengthAdjust="spacingAndGlyphs" textLength="104" x="533.5" y="433.0151">createView(): View</text></a><!--class mastermind.controllers.console.LogicConsole--><a href="LogicConsole.html" target="_top" xlink:actuate="onRequest" xlink:show="new" xlink:title="LogicConsole.html" xlink:type="simple"><rect fill="#FEFECE" filter="url(#fkhfmayk4okhm)" height="86.4141" id="mastermind.controllers.console.LogicConsole" style="stroke: #A80036; stroke-width: 1.5;" width="354" x="932" y="220"/><ellipse cx="1063.75" cy="236" fill="#ADD1B2" rx="11" ry="11" style="stroke: #A80036; stroke-width: 1.0;"/><path d="M1066.7188,241.6406 Q1066.1406,241.9375 1065.5,242.0781 Q1064.8594,242.2344 1064.1563,242.2344 Q1061.6563,242.2344 1060.3281,240.5938 Q1059.0156,238.9375 1059.0156,235.8125 Q1059.0156,232.6875 1060.3281,231.0313 Q1061.6563,229.375 1064.1563,229.375 Q1064.8594,229.375 1065.5,229.5313 Q1066.1563,229.6875 1066.7188,229.9844 L1066.7188,232.7031 Q1066.0938,232.125 1065.5,231.8594 Q1064.9063,231.5781 1064.2813,231.5781 Q1062.9375,231.5781 1062.25,232.6563 Q1061.5625,233.7188 1061.5625,235.8125 Q1061.5625,237.9063 1062.25,238.9844 Q1062.9375,240.0469 1064.2813,240.0469 Q1064.9063,240.0469 1065.5,239.7813 Q1066.0938,239.5 1066.7188,238.9219 L1066.7188,241.6406 Z "/><text fill="#000000" font-family="sans-serif" font-size="12" lengthAdjust="spacingAndGlyphs" textLength="82" x="1084.25" y="240.1543">LogicConsole</text><line style="stroke: #A80036; stroke-width: 1.5;" x1="933" x2="1285" y1="252" y2="252"/><line style="stroke: #A80036; stroke-width: 1.5;" x1="933" x2="1285" y1="260" y2="260"/><ellipse cx="943" cy="271.9023" fill="#84BE84" rx="3" ry="3" style="stroke: #038048; stroke-width: 1.0;"/><text fill="#000000" font-family="sans-serif" font-size="11" lengthAdjust="spacingAndGlyphs" textLength="292" x="952" y="274.2104">createStartController(Game, State): StartController</text><ellipse cx="943" cy="284.707" fill="#84BE84" rx="3" ry="3" style="stroke: #038048; stroke-width: 1.0;"/><text fill="#000000" font-family="sans-serif" font-size="11" lengthAdjust="spacingAndGlyphs" textLength="282" x="952" y="287.0151">createPlayController(Game, State): PlayController</text><ellipse cx="943" cy="297.5117" fill="#84BE84" rx="3" ry="3" style="stroke: #038048; stroke-width: 1.0;"/><text fill="#000000" font-family="sans-serif" font-size="11" lengthAdjust="spacingAndGlyphs" textLength="328" x="952" y="299.8198">createResumeController(Game, State): ResumeController</text></a><!--class mastermind.controllers.console.StartControllerImplementation--><a href="StartControllerImplementation.html" target="_top" xlink:actuate="onRequest" xlink:show="new" xlink:title="StartControllerImplementation.html" xlink:type="simple"><rect fill="#FEFECE" filter="url(#fkhfmayk4okhm)" height="73.6094" id="mastermind.controllers.console.StartControllerImplementation" style="stroke: #A80036; stroke-width: 1.5;" width="278" x="870" y="366"/><ellipse cx="910.65" cy="382" fill="#ADD1B2" rx="11" ry="11" style="stroke: #A80036; stroke-width: 1.0;"/><path d="M913.6188,387.6406 Q913.0406,387.9375 912.4,388.0781 Q911.7594,388.2344 911.0563,388.2344 Q908.5563,388.2344 907.2281,386.5938 Q905.9156,384.9375 905.9156,381.8125 Q905.9156,378.6875 907.2281,377.0313 Q908.5563,375.375 911.0563,375.375 Q911.7594,375.375 912.4,375.5313 Q913.0563,375.6875 913.6188,375.9844 L913.6188,378.7031 Q912.9938,378.125 912.4,377.8594 Q911.8063,377.5781 911.1813,377.5781 Q909.8375,377.5781 909.15,378.6563 Q908.4625,379.7188 908.4625,381.8125 Q908.4625,383.9063 909.15,384.9844 Q909.8375,386.0469 911.1813,386.0469 Q911.8063,386.0469 912.4,385.7813 Q912.9938,385.5 913.6188,384.9219 L913.6188,387.6406 Z "/><text fill="#000000" font-family="sans-serif" font-size="12" lengthAdjust="spacingAndGlyphs" textLength="189" x="930.35" y="386.1543">StartControllerImplementation</text><line style="stroke: #A80036; stroke-width: 1.5;" x1="871" x2="1147" y1="398" y2="398"/><line style="stroke: #A80036; stroke-width: 1.5;" x1="871" x2="1147" y1="406" y2="406"/><ellipse cx="881" cy="417.9023" fill="#84BE84" rx="3" ry="3" style="stroke: #038048; stroke-width: 1.0;"/><text fill="#000000" font-family="sans-serif" font-size="11" lengthAdjust="spacingAndGlyphs" textLength="252" x="890" y="420.2104">StartControllerImplementation(Game, State)</text><ellipse cx="881" cy="430.707" fill="#84BE84" rx="3" ry="3" style="stroke: #038048; stroke-width: 1.0;"/><text fill="#000000" font-family="sans-serif" font-size="11" lengthAdjust="spacingAndGlyphs" textLength="104" x="890" y="433.0151">createView(): View</text></a><!--class mastermind.controllers.console.PlayControllerImplementation--><a href="PlayControllerImplementation.html" target="_top" xlink:actuate="onRequest" xlink:show="new" xlink:title="PlayControllerImplementation.html" xlink:type="simple"><rect fill="#FEFECE" filter="url(#fkhfmayk4okhm)" height="86.4141" id="mastermind.controllers.console.PlayControllerImplementation" style="stroke: #A80036; stroke-width: 1.5;" width="404" x="493" y="220"/><ellipse cx="599.25" cy="236" fill="#ADD1B2" rx="11" ry="11" style="stroke: #A80036; stroke-width: 1.0;"/><path d="M602.2188,241.6406 Q601.6406,241.9375 601,242.0781 Q600.3594,242.2344 599.6563,242.2344 Q597.1563,242.2344 595.8281,240.5938 Q594.5156,238.9375 594.5156,235.8125 Q594.5156,232.6875 595.8281,231.0313 Q597.1563,229.375 599.6563,229.375 Q600.3594,229.375 601,229.5313 Q601.6563,229.6875 602.2188,229.9844 L602.2188,232.7031 Q601.5938,232.125 601,231.8594 Q600.4063,231.5781 599.7813,231.5781 Q598.4375,231.5781 597.75,232.6563 Q597.0625,233.7188 597.0625,235.8125 Q597.0625,237.9063 597.75,238.9844 Q598.4375,240.0469 599.7813,240.0469 Q600.4063,240.0469 601,239.7813 Q601.5938,239.5 602.2188,238.9219 L602.2188,241.6406 Z "/><text fill="#000000" font-family="sans-serif" font-size="12" lengthAdjust="spacingAndGlyphs" textLength="183" x="619.75" y="240.1543">PlayControllerImplementation</text><line style="stroke: #A80036; stroke-width: 1.5;" x1="494" x2="896" y1="252" y2="252"/><line style="stroke: #A80036; stroke-width: 1.5;" x1="494" x2="896" y1="260" y2="260"/><ellipse cx="504" cy="271.9023" fill="#84BE84" rx="3" ry="3" style="stroke: #038048; stroke-width: 1.0;"/><text fill="#000000" font-family="sans-serif" font-size="11" lengthAdjust="spacingAndGlyphs" textLength="247" x="513" y="274.2104">PlayControllerImplementation(Game, State)</text><ellipse cx="504" cy="284.707" fill="#84BE84" rx="3" ry="3" style="stroke: #038048; stroke-width: 1.0;"/><text fill="#000000" font-family="sans-serif" font-size="11" lengthAdjust="spacingAndGlyphs" textLength="104" x="513" y="287.0151">createView(): View</text><ellipse cx="504" cy="297.5117" fill="#84BE84" rx="3" ry="3" style="stroke: #038048; stroke-width: 1.0;"/><text fill="#000000" font-family="sans-serif" font-size="11" lengthAdjust="spacingAndGlyphs" textLength="378" x="513" y="299.8198">createAddProposalController(Game, State): AddProposalController</text></a><!--class mastermind.controllers.console.ResumeControllerImplementation--><a href="ResumeControllerImplementation.html" target="_top" xlink:actuate="onRequest" xlink:show="new" xlink:title="ResumeControllerImplementation.html" xlink:type="simple"><rect fill="#FEFECE" filter="url(#fkhfmayk4okhm)" height="73.6094" id="mastermind.controllers.console.ResumeControllerImplementation" style="stroke: #A80036; stroke-width: 1.5;" width="296" x="1321" y="226"/><ellipse cx="1361.2" cy="242" fill="#ADD1B2" rx="11" ry="11" style="stroke: #A80036; stroke-width: 1.0;"/><path d="M1364.1688,247.6406 Q1363.5906,247.9375 1362.95,248.0781 Q1362.3094,248.2344 1361.6063,248.2344 Q1359.1063,248.2344 1357.7781,246.5938 Q1356.4656,244.9375 1356.4656,241.8125 Q1356.4656,238.6875 1357.7781,237.0313 Q1359.1063,235.375 1361.6063,235.375 Q1362.3094,235.375 1362.95,235.5313 Q1363.6063,235.6875 1364.1688,235.9844 L1364.1688,238.7031 Q1363.5438,238.125 1362.95,237.8594 Q1362.3563,237.5781 1361.7313,237.5781 Q1360.3875,237.5781 1359.7,238.6563 Q1359.0125,239.7188 1359.0125,241.8125 Q1359.0125,243.9063 1359.7,244.9844 Q1360.3875,246.0469 1361.7313,246.0469 Q1362.3563,246.0469 1362.95,245.7813 Q1363.5438,245.5 1364.1688,244.9219 L1364.1688,247.6406 Z "/><text fill="#000000" font-family="sans-serif" font-size="12" lengthAdjust="spacingAndGlyphs" textLength="208" x="1380.8" y="246.1543">ResumeControllerImplementation</text><line style="stroke: #A80036; stroke-width: 1.5;" x1="1322" x2="1616" y1="258" y2="258"/><line style="stroke: #A80036; stroke-width: 1.5;" x1="1322" x2="1616" y1="266" y2="266"/><ellipse cx="1332" cy="277.9023" fill="#84BE84" rx="3" ry="3" style="stroke: #038048; stroke-width: 1.0;"/><text fill="#000000" font-family="sans-serif" font-size="11" lengthAdjust="spacingAndGlyphs" textLength="270" x="1341" y="280.2104">ResumeControllerImplementation(Game, State)</text><ellipse cx="1332" cy="290.707" fill="#84BE84" rx="3" ry="3" style="stroke: #038048; stroke-width: 1.0;"/><text fill="#000000" font-family="sans-serif" font-size="11" lengthAdjust="spacingAndGlyphs" textLength="104" x="1341" y="293.0151">createView(): View</text></a><!--class mastermind.controllers.AddProposalController--><rect fill="#FEFECE" filter="url(#fkhfmayk4okhm)" height="48" id="mastermind.controllers.AddProposalController" style="stroke: #A80036; stroke-width: 1.5;" width="170" x="38" y="78"/><ellipse cx="53" cy="94" fill="#A9DCDF" rx="11" ry="11" style="stroke: #A80036; stroke-width: 1.0;"/><path d="M53.1094,89.3438 L51.9531,94.4219 L54.2813,94.4219 L53.1094,89.3438 Z M51.625,87.1094 L54.6094,87.1094 L57.9688,99.5 L55.5156,99.5 L54.75,96.4375 L51.4688,96.4375 L50.7188,99.5 L48.2813,99.5 L51.625,87.1094 Z "/><text fill="#000000" font-family="sans-serif" font-size="12" font-style="italic" lengthAdjust="spacingAndGlyphs" textLength="138" x="67" y="98.1543">AddProposalController</text><line style="stroke: #A80036; stroke-width: 1.5;" x1="39" x2="207" y1="110" y2="110"/><line style="stroke: #A80036; stroke-width: 1.5;" x1="39" x2="207" y1="118" y2="118"/><!--class mastermind.controllers.Logic--><rect fill="#FEFECE" filter="url(#fkhfmayk4okhm)" height="86.4141" id="mastermind.controllers.Logic" style="stroke: #A80036; stroke-width: 1.5;" width="353" x="1023.5" y="59"/><ellipse cx="1179.25" cy="75" fill="#A9DCDF" rx="11" ry="11" style="stroke: #A80036; stroke-width: 1.0;"/><path d="M1179.3594,70.3438 L1178.2031,75.4219 L1180.5313,75.4219 L1179.3594,70.3438 Z M1177.875,68.1094 L1180.8594,68.1094 L1184.2188,80.5 L1181.7656,80.5 L1181,77.4375 L1177.7188,77.4375 L1176.9688,80.5 L1174.5313,80.5 L1177.875,68.1094 Z "/><text fill="#000000" font-family="sans-serif" font-size="12" font-style="italic" lengthAdjust="spacingAndGlyphs" textLength="33" x="1199.75" y="79.1543">Logic</text><line style="stroke: #A80036; stroke-width: 1.5;" x1="1024.5" x2="1375.5" y1="91" y2="91"/><line style="stroke: #A80036; stroke-width: 1.5;" x1="1024.5" x2="1375.5" y1="99" y2="99"/><ellipse cx="1034.5" cy="110.9023" fill="#84BE84" rx="3" ry="3" style="stroke: #038048; stroke-width: 1.0;"/><text fill="#000000" font-family="sans-serif" font-size="11" font-style="italic" lengthAdjust="spacingAndGlyphs" textLength="289" x="1043.5" y="113.2104">createStartController(Game, State): StartController</text><ellipse cx="1034.5" cy="123.707" fill="#84BE84" rx="3" ry="3" style="stroke: #038048; stroke-width: 1.0;"/><text fill="#000000" font-family="sans-serif" font-size="11" font-style="italic" lengthAdjust="spacingAndGlyphs" textLength="283" x="1043.5" y="126.0151">createPlayController(Game, State): PlayController</text><ellipse cx="1034.5" cy="136.5117" fill="#84BE84" rx="3" ry="3" style="stroke: #038048; stroke-width: 1.0;"/><text fill="#000000" font-family="sans-serif" font-size="11" font-style="italic" lengthAdjust="spacingAndGlyphs" textLength="327" x="1043.5" y="138.8198">createResumeController(Game, State): ResumeController</text><!--class mastermind.controllers.PlayController--><rect fill="#FEFECE" filter="url(#fkhfmayk4okhm)" height="60.8047" id="mastermind.controllers.PlayController" style="stroke: #A80036; stroke-width: 1.5;" width="586" x="402" y="71.5"/><ellipse cx="647.75" cy="87.5" fill="#A9DCDF" rx="11" ry="11" style="stroke: #A80036; stroke-width: 1.0;"/><path d="M647.8594,82.8438 L646.7031,87.9219 L649.0313,87.9219 L647.8594,82.8438 Z M646.375,80.6094 L649.3594,80.6094 L652.7188,93 L650.2656,93 L649.5,89.9375 L646.2188,89.9375 L645.4688,93 L643.0313,93 L646.375,80.6094 Z "/><text fill="#000000" font-family="sans-serif" font-size="12" font-style="italic" lengthAdjust="spacingAndGlyphs" textLength="86" x="668.25" y="91.6543">PlayController</text><line style="stroke: #A80036; stroke-width: 1.5;" x1="403" x2="987" y1="103.5" y2="103.5"/><line style="stroke: #A80036; stroke-width: 1.5;" x1="403" x2="987" y1="111.5" y2="111.5"/><ellipse cx="413" cy="123.4023" fill="#84BE84" rx="3" ry="3" style="stroke: #038048; stroke-width: 1.0;"/><text fill="#000000" font-family="sans-serif" font-size="11" font-style="italic" lengthAdjust="spacingAndGlyphs" textLength="560" x="422" y="125.7104">createAddProposalController(Game, State): mastermind.controllers.console.AddProposalController</text><!--class mastermind.controllers.ResumeController--><rect fill="#FEFECE" filter="url(#fkhfmayk4okhm)" height="48" id="mastermind.controllers.ResumeController" style="stroke: #A80036; stroke-width: 1.5;" width="142" x="1412" y="78"/><ellipse cx="1427" cy="94" fill="#A9DCDF" rx="11" ry="11" style="stroke: #A80036; stroke-width: 1.0;"/><path d="M1427.1094,89.3438 L1425.9531,94.4219 L1428.2813,94.4219 L1427.1094,89.3438 Z M1425.625,87.1094 L1428.6094,87.1094 L1431.9688,99.5 L1429.5156,99.5 L1428.75,96.4375 L1425.4688,96.4375 L1424.7188,99.5 L1422.2813,99.5 L1425.625,87.1094 Z "/><text fill="#000000" font-family="sans-serif" font-size="12" font-style="italic" lengthAdjust="spacingAndGlyphs" textLength="110" x="1441" y="98.1543">ResumeController</text><line style="stroke: #A80036; stroke-width: 1.5;" x1="1413" x2="1553" y1="110" y2="110"/><line style="stroke: #A80036; stroke-width: 1.5;" x1="1413" x2="1553" y1="118" y2="118"/><!--class mastermind.controllers.StartController--><rect fill="#FEFECE" filter="url(#fkhfmayk4okhm)" height="48" id="mastermind.controllers.StartController" style="stroke: #A80036; stroke-width: 1.5;" width="124" x="243" y="78"/><ellipse cx="258" cy="94" fill="#A9DCDF" rx="11" ry="11" style="stroke: #A80036; stroke-width: 1.0;"/><path d="M258.1094,89.3438 L256.9531,94.4219 L259.2813,94.4219 L258.1094,89.3438 Z M256.625,87.1094 L259.6094,87.1094 L262.9688,99.5 L260.5156,99.5 L259.75,96.4375 L256.4688,96.4375 L255.7188,99.5 L253.2813,99.5 L256.625,87.1094 Z "/><text fill="#000000" font-family="sans-serif" font-size="12" font-style="italic" lengthAdjust="spacingAndGlyphs" textLength="92" x="272" y="98.1543">StartController</text><line style="stroke: #A80036; stroke-width: 1.5;" x1="244" x2="366" y1="110" y2="110"/><line style="stroke: #A80036; stroke-width: 1.5;" x1="244" x2="366" y1="118" y2="118"/><!--class mastermind.views.console.ProposedCombinationView--><rect fill="#FEFECE" filter="url(#fkhfmayk4okhm)" height="48" id="mastermind.views.console.ProposedCombinationView" style="stroke: #A80036; stroke-width: 1.5;" width="198" x="764" y="515"/><ellipse cx="779" cy="531" fill="#ADD1B2" rx="11" ry="11" style="stroke: #A80036; stroke-width: 1.0;"/><path d="M781.9688,536.6406 Q781.3906,536.9375 780.75,537.0781 Q780.1094,537.2344 779.4063,537.2344 Q776.9063,537.2344 775.5781,535.5938 Q774.2656,533.9375 774.2656,530.8125 Q774.2656,527.6875 775.5781,526.0313 Q776.9063,524.375 779.4063,524.375 Q780.1094,524.375 780.75,524.5313 Q781.4063,524.6875 781.9688,524.9844 L781.9688,527.7031 Q781.3438,527.125 780.75,526.8594 Q780.1563,526.5781 779.5313,526.5781 Q778.1875,526.5781 777.5,527.6563 Q776.8125,528.7188 776.8125,530.8125 Q776.8125,532.9063 777.5,533.9844 Q778.1875,535.0469 779.5313,535.0469 Q780.1563,535.0469 780.75,534.7813 Q781.3438,534.5 781.9688,533.9219 L781.9688,536.6406 Z "/><text fill="#000000" font-family="sans-serif" font-size="12" lengthAdjust="spacingAndGlyphs" textLength="166" x="793" y="535.1543">ProposedCombinationView</text><line style="stroke: #A80036; stroke-width: 1.5;" x1="765" x2="961" y1="547" y2="547"/><line style="stroke: #A80036; stroke-width: 1.5;" x1="765" x2="961" y1="555" y2="555"/><!--class mastermind.views.console.PlayView--><rect fill="#FEFECE" filter="url(#fkhfmayk4okhm)" height="48" id="mastermind.views.console.PlayView" style="stroke: #A80036; stroke-width: 1.5;" width="85" x="1123.5" y="515"/><ellipse cx="1138.5" cy="531" fill="#ADD1B2" rx="11" ry="11" style="stroke: #A80036; stroke-width: 1.0;"/><path d="M1141.4688,536.6406 Q1140.8906,536.9375 1140.25,537.0781 Q1139.6094,537.2344 1138.9063,537.2344 Q1136.4063,537.2344 1135.0781,535.5938 Q1133.7656,533.9375 1133.7656,530.8125 Q1133.7656,527.6875 1135.0781,526.0313 Q1136.4063,524.375 1138.9063,524.375 Q1139.6094,524.375 1140.25,524.5313 Q1140.9063,524.6875 1141.4688,524.9844 L1141.4688,527.7031 Q1140.8438,527.125 1140.25,526.8594 Q1139.6563,526.5781 1139.0313,526.5781 Q1137.6875,526.5781 1137,527.6563 Q1136.3125,528.7188 1136.3125,530.8125 Q1136.3125,532.9063 1137,533.9844 Q1137.6875,535.0469 1139.0313,535.0469 Q1139.6563,535.0469 1140.25,534.7813 Q1140.8438,534.5 1141.4688,533.9219 L1141.4688,536.6406 Z "/><text fill="#000000" font-family="sans-serif" font-size="12" lengthAdjust="spacingAndGlyphs" textLength="53" x="1152.5" y="535.1543">PlayView</text><line style="stroke: #A80036; stroke-width: 1.5;" x1="1124.5" x2="1207.5" y1="547" y2="547"/><line style="stroke: #A80036; stroke-width: 1.5;" x1="1124.5" x2="1207.5" y1="555" y2="555"/><!--class mastermind.views.console.ResumeView--><rect fill="#FEFECE" filter="url(#fkhfmayk4okhm)" height="48" id="mastermind.views.console.ResumeView" style="stroke: #A80036; stroke-width: 1.5;" width="110" x="1244" y="515"/><ellipse cx="1259" cy="531" fill="#ADD1B2" rx="11" ry="11" style="stroke: #A80036; stroke-width: 1.0;"/><path d="M1261.9688,536.6406 Q1261.3906,536.9375 1260.75,537.0781 Q1260.1094,537.2344 1259.4063,537.2344 Q1256.9063,537.2344 1255.5781,535.5938 Q1254.2656,533.9375 1254.2656,530.8125 Q1254.2656,527.6875 1255.5781,526.0313 Q1256.9063,524.375 1259.4063,524.375 Q1260.1094,524.375 1260.75,524.5313 Q1261.4063,524.6875 1261.9688,524.9844 L1261.9688,527.7031 Q1261.3438,527.125 1260.75,526.8594 Q1260.1563,526.5781 1259.5313,526.5781 Q1258.1875,526.5781 1257.5,527.6563 Q1256.8125,528.7188 1256.8125,530.8125 Q1256.8125,532.9063 1257.5,533.9844 Q1258.1875,535.0469 1259.5313,535.0469 Q1260.1563,535.0469 1260.75,534.7813 Q1261.3438,534.5 1261.9688,533.9219 L1261.9688,536.6406 Z "/><text fill="#000000" font-family="sans-serif" font-size="12" lengthAdjust="spacingAndGlyphs" textLength="78" x="1273" y="535.1543">ResumeView</text><line style="stroke: #A80036; stroke-width: 1.5;" x1="1245" x2="1353" y1="547" y2="547"/><line style="stroke: #A80036; stroke-width: 1.5;" x1="1245" x2="1353" y1="555" y2="555"/><!--class mastermind.views.console.StartView--><rect fill="#FEFECE" filter="url(#fkhfmayk4okhm)" height="48" id="mastermind.views.console.StartView" style="stroke: #A80036; stroke-width: 1.5;" width="91" x="997.5" y="515"/><ellipse cx="1012.5" cy="531" fill="#ADD1B2" rx="11" ry="11" style="stroke: #A80036; stroke-width: 1.0;"/><path d="M1015.4688,536.6406 Q1014.8906,536.9375 1014.25,537.0781 Q1013.6094,537.2344 1012.9063,537.2344 Q1010.4063,537.2344 1009.0781,535.5938 Q1007.7656,533.9375 1007.7656,530.8125 Q1007.7656,527.6875 1009.0781,526.0313 Q1010.4063,524.375 1012.9063,524.375 Q1013.6094,524.375 1014.25,524.5313 Q1014.9063,524.6875 1015.4688,524.9844 L1015.4688,527.7031 Q1014.8438,527.125 1014.25,526.8594 Q1013.6563,526.5781 1013.0313,526.5781 Q1011.6875,526.5781 1011,527.6563 Q1010.3125,528.7188 1010.3125,530.8125 Q1010.3125,532.9063 1011,533.9844 Q1011.6875,535.0469 1013.0313,535.0469 Q1013.6563,535.0469 1014.25,534.7813 Q1014.8438,534.5 1015.4688,533.9219 L1015.4688,536.6406 Z "/><text fill="#000000" font-family="sans-serif" font-size="12" lengthAdjust="spacingAndGlyphs" textLength="59" x="1026.5" y="535.1543">StartView</text><line style="stroke: #A80036; stroke-width: 1.5;" x1="998.5" x2="1087.5" y1="547" y2="547"/><line style="stroke: #A80036; stroke-width: 1.5;" x1="998.5" x2="1087.5" y1="555" y2="555"/><!--link mastermind.controllers.AddProposalController to mastermind.controllers.console.AddProposalControllerImplementation--><path d="M155.24,141.5 C195.43,187.11 268.34,262.4 346,306 C397.35,334.83 458.18,355.74 513.43,370.53 " fill="none" id="mastermind.controllers.AddProposalController-mastermind.controllers.console.AddProposalControllerImplementation" style="stroke: #A80036; stroke-width: 1.0;"/><polygon fill="none" points="149.75,145.85,141.97,126.15,160.34,136.7,149.75,145.85" style="stroke: #A80036; stroke-width: 1.0;"/><!--link mastermind.controllers.console.AddProposalControllerImplementation to mastermind.views.console.ProposedCombinationView--><path d="M725.15,440.26 C757.13,462.94 797.59,491.62 826.38,512.04 " fill="none" id="mastermind.controllers.console.AddProposalControllerImplementation-mastermind.views.console.ProposedCombinationView" style="stroke: #A80036; stroke-width: 1.0; stroke-dasharray: 7.0,7.0;"/><polygon fill="#A80036" points="830.54,514.99,825.5103,506.5223,826.4607,512.0987,820.8843,513.0491,830.54,514.99" style="stroke: #A80036; stroke-width: 1.0;"/><!--link mastermind.controllers.Logic to mastermind.controllers.console.LogicConsole--><path d="M1165.79,162.77 C1154.91,181.78 1143.11,202.4 1133.1,219.89 " fill="none" id="mastermind.controllers.Logic-mastermind.controllers.console.LogicConsole" style="stroke: #A80036; stroke-width: 1.0;"/><polygon fill="none" points="1159.84,159.07,1175.85,145.19,1171.99,166.03,1159.84,159.07" style="stroke: #A80036; stroke-width: 1.0;"/><!--link mastermind.controllers.console.LogicConsole to mastermind.controllers.console.StartControllerImplementation--><path d="M1078.45,306.15 C1065.75,323.69 1051.05,343.97 1038.46,361.35 " fill="none" id="mastermind.controllers.console.LogicConsole-mastermind.controllers.console.StartControllerImplementation" style="stroke: #A80036; stroke-width: 1.0;"/><polygon fill="#A80036" points="1035.31,365.7,1043.8323,360.7633,1038.2458,361.6526,1037.3565,356.0661,1035.31,365.7" style="stroke: #A80036; stroke-width: 1.0;"/><!--link mastermind.controllers.PlayController to mastermind.controllers.console.PlayControllerImplementation--><path d="M695,152.63 C695,174.16 695,199.11 695,219.73 " fill="none" id="mastermind.controllers.PlayController-mastermind.controllers.console.PlayControllerImplementation" style="stroke: #A80036; stroke-width: 1.0;"/><polygon fill="none" points="688,152.53,695,132.53,702,152.53,688,152.53" style="stroke: #A80036; stroke-width: 1.0;"/><!--link mastermind.controllers.console.PlayControllerImplementation to mastermind.views.console.PlayView--><path d="M897.02,304.83 C1022.72,330.7 1161.43,360.34 1166,366 C1199.01,406.93 1186.61,472.93 1175.65,510.15 " fill="none" id="mastermind.controllers.console.PlayControllerImplementation-mastermind.views.console.PlayView" style="stroke: #A80036; stroke-width: 1.0; stroke-dasharray: 7.0,7.0;"/><polygon fill="#A80036" points="1174.19,514.99,1180.638,507.5453,1175.6464,510.2068,1172.9849,505.2151,1174.19,514.99" style="stroke: #A80036; stroke-width: 1.0;"/><!--link mastermind.controllers.console.PlayControllerImplementation to mastermind.controllers.console.AddProposalControllerImplementation--><path d="M688.59,306.15 C685.96,323.39 682.94,343.28 680.32,360.46 " fill="none" id="mastermind.controllers.console.PlayControllerImplementation-mastermind.controllers.console.AddProposalControllerImplementation" style="stroke: #A80036; stroke-width: 1.0; stroke-dasharray: 7.0,7.0;"/><polygon fill="#A80036" points="679.52,365.7,684.8366,357.4094,680.2771,360.7576,676.9288,356.1981,679.52,365.7" style="stroke: #A80036; stroke-width: 1.0;"/><!--link mastermind.controllers.ResumeController to mastermind.controllers.console.ResumeControllerImplementation--><path d="M1479.2,146.17 C1477,171.15 1474.26,202.23 1472.18,225.91 " fill="none" id="mastermind.controllers.ResumeController-mastermind.controllers.console.ResumeControllerImplementation" style="stroke: #A80036; stroke-width: 1.0;"/><polygon fill="none" points="1472.24,145.43,1480.96,126.12,1486.18,146.66,1472.24,145.43" style="stroke: #A80036; stroke-width: 1.0;"/><!--link mastermind.controllers.console.ResumeControllerImplementation to mastermind.views.console.ResumeView--><path d="M1446.6,300.1 C1412.21,355.54 1347.12,460.44 1316.18,510.31 " fill="none" id="mastermind.controllers.console.ResumeControllerImplementation-mastermind.views.console.ResumeView" style="stroke: #A80036; stroke-width: 1.0; stroke-dasharray: 7.0,7.0;"/><polygon fill="#A80036" points="1313.47,514.68,1321.6236,509.1557,1316.1136,510.436,1314.8332,504.9259,1313.47,514.68" style="stroke: #A80036; stroke-width: 1.0;"/><!--link mastermind.controllers.StartController to mastermind.controllers.console.StartControllerImplementation--><path d="M327.05,143.65 C355.04,190.97 407.98,267.55 476,306 C623.32,389.28 685.88,333.74 852,366 C857.9,367.15 863.92,368.35 869.99,369.6 " fill="none" id="mastermind.controllers.StartController-mastermind.controllers.console.StartControllerImplementation" style="stroke: #A80036; stroke-width: 1.0;"/><polygon fill="none" points="320.94,147.05,317.09,126.22,333.09,140.11,320.94,147.05" style="stroke: #A80036; stroke-width: 1.0;"/><!--link mastermind.controllers.console.StartControllerImplementation to mastermind.views.console.StartView--><path d="M1018.2,440.26 C1023.75,462.13 1030.71,489.57 1035.85,509.8 " fill="none" id="mastermind.controllers.console.StartControllerImplementation-mastermind.views.console.StartView" style="stroke: #A80036; stroke-width: 1.0; stroke-dasharray: 7.0,7.0;"/><polygon fill="#A80036" points="1037.11,514.78,1038.7809,505.0739,1035.8839,509.9327,1031.0252,507.0357,1037.11,514.78" style="stroke: #A80036; stroke-width: 1.0;"/><!--
@startuml
class mastermind.controllers.console.AddProposalControllerImplementation [[AddProposalControllerImplementation.html]] {
    +AddProposalControllerImplementation(Game, State)
    +createView(): View
}

abstract class mastermind.controllers.AddProposalController
mastermind.controllers.AddProposalController <|- - mastermind.controllers.console.AddProposalControllerImplementation
mastermind.controllers.console.AddProposalControllerImplementation ..> mastermind.views.console.ProposedCombinationView


class mastermind.controllers.console.LogicConsole [[LogicConsole.html]] {
    +createStartController(Game, State): StartController
    +createPlayController(Game, State): PlayController
    +createResumeController(Game, State): ResumeController
}

abstract class mastermind.controllers.Logic {
    {abstract} +createStartController(Game, State): StartController
    {abstract} +createPlayController(Game, State): PlayController
    {abstract} +createResumeController(Game, State): ResumeController
}

mastermind.controllers.Logic <|- - mastermind.controllers.console.LogicConsole
mastermind.controllers.console.LogicConsole - -> mastermind.controllers.console.StartControllerImplementation


class mastermind.controllers.console.PlayControllerImplementation [[PlayControllerImplementation.html]] {
    +PlayControllerImplementation(Game, State)
    +createView(): View
    +createAddProposalController(Game, State): AddProposalController
}

mastermind.controllers.PlayController <|- - mastermind.controllers.console.PlayControllerImplementation
mastermind.controllers.console.PlayControllerImplementation ..> mastermind.views.console.PlayView
mastermind.controllers.console.PlayControllerImplementation ..> mastermind.controllers.console.AddProposalControllerImplementation

class mastermind.controllers.console.ResumeControllerImplementation [[ResumeControllerImplementation.html]] {
    +ResumeControllerImplementation(Game, State)
    +createView(): View
}

abstract class mastermind.controllers.ResumeController
mastermind.controllers.ResumeController <|- - mastermind.controllers.console.ResumeControllerImplementation
mastermind.controllers.console.ResumeControllerImplementation ..> mastermind.views.console.ResumeView

class mastermind.controllers.console.StartControllerImplementation [[StartControllerImplementation.html]] {
    +StartControllerImplementation(Game, State)
    +createView(): View
}

abstract mastermind.controllers.StartController
mastermind.controllers.StartController <|- - mastermind.controllers.console.StartControllerImplementation
mastermind.controllers.console.StartControllerImplementation ..> mastermind.views.console.StartView

abstract class mastermind.controllers.PlayController {
    {abstract} +createAddProposalController(Game, State): mastermind.controllers.console.AddProposalController
}

@enduml

PlantUML version 1.2019.05(Sat Apr 20 18:45:36 CEST 2019)
(GPL source distribution)
Java Runtime: OpenJDK Runtime Environment
JVM: OpenJDK 64-Bit Server VM
Java Version: 1.8.0_265-8u265-b01-0ubuntu2~20.04-b01
Operating System: Linux
OS Version: 5.4.0-52-generic
Default Encoding: UTF-8
Language: es
Country: ES
--></g></svg>