<?xml version="1.0" encoding="UTF-8" standalone="no"?><svg xmlns="http://www.w3.org/2000/svg" xmlns:xlink="http://www.w3.org/1999/xlink" contentScriptType="application/ecmascript" contentStyleType="text/css" height="1148px" preserveAspectRatio="none" style="width:974px;height:1148px;" version="1.1" viewBox="0 0 974 1148" width="974px" zoomAndPan="magnify"><defs><filter height="300%" id="f1ryl5hfhe2eac" width="300%" x="-1" y="-1"><feGaussianBlur result="blurOut" stdDeviation="2.0"/><feColorMatrix in="blurOut" result="blurOut2" type="matrix" values="0 0 0 0 0 0 0 0 0 0 0 0 0 0 0 0 0 0 .4 0"/><feOffset dx="4.0" dy="4.0" in="blurOut2" result="blurOut3"/><feBlend in="SourceGraphic" in2="blurOut3" mode="normal"/></filter></defs><g><!--cluster mastermind.models--><polygon fill="#FFFFFF" filter="url(#f1ryl5hfhe2eac)" points="22,24,183,24,190,46.2969,952,46.2969,952,1136,22,1136,22,24" style="stroke: #000000; stroke-width: 1.5;"/><line style="stroke: #000000; stroke-width: 1.5;" x1="22" x2="190" y1="46.2969" y2="46.2969"/><text fill="#000000" font-family="sans-serif" font-size="14" font-weight="bold" lengthAdjust="spacingAndGlyphs" textLength="155" x="26" y="38.9951">mastermind.models</text><!--class mastermind.models.Color--><rect fill="#FEFECE" filter="url(#f1ryl5hfhe2eac)" height="137.6328" id="mastermind.models.Color" style="stroke: #A80036; stroke-width: 1.5;" width="111" x="377.5" y="982"/><ellipse cx="413.65" cy="998" fill="#EB937F" rx="11" ry="11" style="stroke: #A80036; stroke-width: 1.0;"/><path d="M417.7594,1004 L410.0406,1004 L410.0406,991.6094 L417.7594,991.6094 L417.7594,993.7656 L412.4938,993.7656 L412.4938,996.4375 L417.2594,996.4375 L417.2594,998.5938 L412.4938,998.5938 L412.4938,1001.8438 L417.7594,1001.8438 L417.7594,1004 Z "/><text fill="#000000" font-family="sans-serif" font-size="12" lengthAdjust="spacingAndGlyphs" textLength="32" x="432.35" y="1002.1543">Color</text><line style="stroke: #A80036; stroke-width: 1.5;" x1="378.5" x2="487.5" y1="1014" y2="1014"/><ellipse cx="388.5" cy="1025.9023" fill="none" rx="3" ry="3" style="stroke: #038048; stroke-width: 1.0;"/><text fill="#000000" font-family="sans-serif" font-size="11" lengthAdjust="spacingAndGlyphs" text-decoration="underline" textLength="60" x="397.5" y="1028.2104">RED: Color</text><ellipse cx="388.5" cy="1038.707" fill="none" rx="3" ry="3" style="stroke: #038048; stroke-width: 1.0;"/><text fill="#000000" font-family="sans-serif" font-size="11" lengthAdjust="spacingAndGlyphs" text-decoration="underline" textLength="67" x="397.5" y="1041.0151">BLUE: Color</text><ellipse cx="388.5" cy="1051.5117" fill="none" rx="3" ry="3" style="stroke: #038048; stroke-width: 1.0;"/><text fill="#000000" font-family="sans-serif" font-size="11" lengthAdjust="spacingAndGlyphs" text-decoration="underline" textLength="82" x="397.5" y="1053.8198">YELLOW: Color</text><ellipse cx="388.5" cy="1064.3164" fill="none" rx="3" ry="3" style="stroke: #038048; stroke-width: 1.0;"/><text fill="#000000" font-family="sans-serif" font-size="11" lengthAdjust="spacingAndGlyphs" text-decoration="underline" textLength="76" x="397.5" y="1066.6245">GREEN: Color</text><ellipse cx="388.5" cy="1077.1211" fill="none" rx="3" ry="3" style="stroke: #038048; stroke-width: 1.0;"/><text fill="#000000" font-family="sans-serif" font-size="11" lengthAdjust="spacingAndGlyphs" text-decoration="underline" textLength="85" x="397.5" y="1079.4292">ORANGE: Color</text><ellipse cx="388.5" cy="1089.9258" fill="none" rx="3" ry="3" style="stroke: #038048; stroke-width: 1.0;"/><text fill="#000000" font-family="sans-serif" font-size="11" lengthAdjust="spacingAndGlyphs" text-decoration="underline" textLength="80" x="397.5" y="1092.2339">PURPLE: Color</text><line style="stroke: #A80036; stroke-width: 1.5;" x1="378.5" x2="487.5" y1="1098.8281" y2="1098.8281"/><text fill="#000000" font-family="sans-serif" font-size="11" lengthAdjust="spacingAndGlyphs" text-decoration="underline" textLength="65" x="383.5" y="1113.0386">length(): int</text><!--class mastermind.models.Game--><rect fill="#FEFECE" filter="url(#f1ryl5hfhe2eac)" height="214.4609" id="mastermind.models.Game" style="stroke: #A80036; stroke-width: 1.5;" width="465" x="470.5" y="59"/><ellipse cx="680.75" cy="75" fill="#ADD1B2" rx="11" ry="11" style="stroke: #A80036; stroke-width: 1.0;"/><path d="M683.7188,80.6406 Q683.1406,80.9375 682.5,81.0781 Q681.8594,81.2344 681.1563,81.2344 Q678.6563,81.2344 677.3281,79.5938 Q676.0156,77.9375 676.0156,74.8125 Q676.0156,71.6875 677.3281,70.0313 Q678.6563,68.375 681.1563,68.375 Q681.8594,68.375 682.5,68.5313 Q683.1563,68.6875 683.7188,68.9844 L683.7188,71.7031 Q683.0938,71.125 682.5,70.8594 Q681.9063,70.5781 681.2813,70.5781 Q679.9375,70.5781 679.25,71.6563 Q678.5625,72.7188 678.5625,74.8125 Q678.5625,76.9063 679.25,77.9844 Q679.9375,79.0469 681.2813,79.0469 Q681.9063,79.0469 682.5,78.7813 Q683.0938,78.5 683.7188,77.9219 L683.7188,80.6406 Z "/><text fill="#000000" font-family="sans-serif" font-size="12" lengthAdjust="spacingAndGlyphs" textLength="36" x="701.25" y="79.1543">Game</text><line style="stroke: #A80036; stroke-width: 1.5;" x1="471.5" x2="934.5" y1="91" y2="91"/><rect fill="none" height="6" style="stroke: #C82930; stroke-width: 1.0;" width="6" x="478.5" y="99.9023"/><text fill="#000000" font-family="sans-serif" font-size="11" lengthAdjust="spacingAndGlyphs" text-decoration="underline" textLength="111" x="490.5" y="105.2104">final MAX_LONG: int</text><rect fill="none" height="6" style="stroke: #C82930; stroke-width: 1.0;" width="6" x="478.5" y="112.707"/><text fill="#000000" font-family="sans-serif" font-size="11" lengthAdjust="spacingAndGlyphs" textLength="223" x="490.5" y="118.0151">secretCombination: SecretCombination</text><rect fill="none" height="6" style="stroke: #C82930; stroke-width: 1.0;" width="6" x="478.5" y="125.5117"/><text fill="#000000" font-family="sans-serif" font-size="11" lengthAdjust="spacingAndGlyphs" textLength="303" x="490.5" y="130.8198">proposedCombinations: List&lt;ProposedCombination&gt;</text><rect fill="none" height="6" style="stroke: #C82930; stroke-width: 1.0;" width="6" x="478.5" y="138.3164"/><text fill="#000000" font-family="sans-serif" font-size="11" lengthAdjust="spacingAndGlyphs" textLength="121" x="490.5" y="143.6245">results: List&lt;Result&gt;</text><rect fill="none" height="6" style="stroke: #C82930; stroke-width: 1.0;" width="6" x="478.5" y="151.1211"/><text fill="#000000" font-family="sans-serif" font-size="11" lengthAdjust="spacingAndGlyphs" textLength="73" x="490.5" y="156.4292">attempts: int</text><line style="stroke: #A80036; stroke-width: 1.5;" x1="471.5" x2="934.5" y1="163.0234" y2="163.0234"/><ellipse cx="481.5" cy="174.9258" fill="#84BE84" rx="3" ry="3" style="stroke: #038048; stroke-width: 1.0;"/><text fill="#000000" font-family="sans-serif" font-size="11" lengthAdjust="spacingAndGlyphs" textLength="42" x="490.5" y="177.2339">Game()</text><ellipse cx="481.5" cy="187.7305" fill="#84BE84" rx="3" ry="3" style="stroke: #038048; stroke-width: 1.0;"/><text fill="#000000" font-family="sans-serif" font-size="11" lengthAdjust="spacingAndGlyphs" textLength="329" x="490.5" y="190.0386">getProposedCombinations(): List&lt;ProposedCombination&gt;</text><ellipse cx="481.5" cy="200.5352" fill="#84BE84" rx="3" ry="3" style="stroke: #038048; stroke-width: 1.0;"/><text fill="#000000" font-family="sans-serif" font-size="11" lengthAdjust="spacingAndGlyphs" textLength="149" x="490.5" y="202.8433">getResults(): List&lt;Result&gt;</text><ellipse cx="481.5" cy="213.3398" fill="#84BE84" rx="3" ry="3" style="stroke: #038048; stroke-width: 1.0;"/><text fill="#000000" font-family="sans-serif" font-size="11" lengthAdjust="spacingAndGlyphs" textLength="99" x="490.5" y="215.6479">getAttempts(): int</text><ellipse cx="481.5" cy="226.1445" fill="#84BE84" rx="3" ry="3" style="stroke: #038048; stroke-width: 1.0;"/><text fill="#000000" font-family="sans-serif" font-size="11" lengthAdjust="spacingAndGlyphs" textLength="67" x="490.5" y="228.4526">clear(): void</text><ellipse cx="481.5" cy="238.9492" fill="#84BE84" rx="3" ry="3" style="stroke: #038048; stroke-width: 1.0;"/><text fill="#000000" font-family="sans-serif" font-size="11" lengthAdjust="spacingAndGlyphs" textLength="439" x="490.5" y="241.2573">addProposedCombination(ProposedCombination proposedCombination): void</text><ellipse cx="481.5" cy="251.7539" fill="#84BE84" rx="3" ry="3" style="stroke: #038048; stroke-width: 1.0;"/><text fill="#000000" font-family="sans-serif" font-size="11" lengthAdjust="spacingAndGlyphs" textLength="110" x="490.5" y="254.062">isLooser(): boolean</text><ellipse cx="481.5" cy="264.5586" fill="#84BE84" rx="3" ry="3" style="stroke: #038048; stroke-width: 1.0;"/><text fill="#000000" font-family="sans-serif" font-size="11" lengthAdjust="spacingAndGlyphs" textLength="109" x="490.5" y="266.8667">isWinner(): boolean</text><!--class mastermind.models.SecretCombination--><rect fill="#FEFECE" filter="url(#f1ryl5hfhe2eac)" height="73.6094" id="mastermind.models.SecretCombination" style="stroke: #A80036; stroke-width: 1.5;" width="241" x="439.5" y="345.5"/><ellipse cx="496.25" cy="361.5" fill="#ADD1B2" rx="11" ry="11" style="stroke: #A80036; stroke-width: 1.0;"/><path d="M499.2188,367.1406 Q498.6406,367.4375 498,367.5781 Q497.3594,367.7344 496.6563,367.7344 Q494.1563,367.7344 492.8281,366.0938 Q491.5156,364.4375 491.5156,361.3125 Q491.5156,358.1875 492.8281,356.5313 Q494.1563,354.875 496.6563,354.875 Q497.3594,354.875 498,355.0313 Q498.6563,355.1875 499.2188,355.4844 L499.2188,358.2031 Q498.5938,357.625 498,357.3594 Q497.4063,357.0781 496.7813,357.0781 Q495.4375,357.0781 494.75,358.1563 Q494.0625,359.2188 494.0625,361.3125 Q494.0625,363.4063 494.75,364.4844 Q495.4375,365.5469 496.7813,365.5469 Q497.4063,365.5469 498,365.2813 Q498.5938,365 499.2188,364.4219 L499.2188,367.1406 Z "/><text fill="#000000" font-family="sans-serif" font-size="12" lengthAdjust="spacingAndGlyphs" textLength="119" x="516.75" y="365.6543">SecretCombination</text><line style="stroke: #A80036; stroke-width: 1.5;" x1="440.5" x2="679.5" y1="377.5" y2="377.5"/><line style="stroke: #A80036; stroke-width: 1.5;" x1="440.5" x2="679.5" y1="385.5" y2="385.5"/><text fill="#000000" font-family="sans-serif" font-size="11" lengthAdjust="spacingAndGlyphs" textLength="116" x="445.5" y="399.7104">SecretCombination()</text><text fill="#000000" font-family="sans-serif" font-size="11" lengthAdjust="spacingAndGlyphs" textLength="229" x="445.5" y="412.5151">getResult(ProposedCombination): Result</text><!--class mastermind.models.Result--><rect fill="#FEFECE" filter="url(#f1ryl5hfhe2eac)" height="124.8281" id="mastermind.models.Result" style="stroke: #A80036; stroke-width: 1.5;" width="135" x="622.5" y="492"/><ellipse cx="666.3" cy="508" fill="#ADD1B2" rx="11" ry="11" style="stroke: #A80036; stroke-width: 1.0;"/><path d="M669.2688,513.6406 Q668.6906,513.9375 668.05,514.0781 Q667.4094,514.2344 666.7063,514.2344 Q664.2063,514.2344 662.8781,512.5938 Q661.5656,510.9375 661.5656,507.8125 Q661.5656,504.6875 662.8781,503.0313 Q664.2063,501.375 666.7063,501.375 Q667.4094,501.375 668.05,501.5313 Q668.7063,501.6875 669.2688,501.9844 L669.2688,504.7031 Q668.6438,504.125 668.05,503.8594 Q667.4563,503.5781 666.8313,503.5781 Q665.4875,503.5781 664.8,504.6563 Q664.1125,505.7188 664.1125,507.8125 Q664.1125,509.9063 664.8,510.9844 Q665.4875,512.0469 666.8313,512.0469 Q667.4563,512.0469 668.05,511.7813 Q668.6438,511.5 669.2688,510.9219 L669.2688,513.6406 Z "/><text fill="#000000" font-family="sans-serif" font-size="12" lengthAdjust="spacingAndGlyphs" textLength="39" x="686.7" y="512.1543">Result</text><line style="stroke: #A80036; stroke-width: 1.5;" x1="623.5" x2="756.5" y1="524" y2="524"/><rect fill="none" height="6" style="stroke: #C82930; stroke-width: 1.0;" width="6" x="630.5" y="532.9023"/><text fill="#000000" font-family="sans-serif" font-size="11" lengthAdjust="spacingAndGlyphs" textLength="58" x="642.5" y="538.2104">blacks: int</text><rect fill="none" height="6" style="stroke: #C82930; stroke-width: 1.0;" width="6" x="630.5" y="545.707"/><text fill="#000000" font-family="sans-serif" font-size="11" lengthAdjust="spacingAndGlyphs" textLength="59" x="642.5" y="551.0151">whites: int</text><line style="stroke: #A80036; stroke-width: 1.5;" x1="623.5" x2="756.5" y1="557.6094" y2="557.6094"/><text fill="#000000" font-family="sans-serif" font-size="11" lengthAdjust="spacingAndGlyphs" textLength="79" x="642.5" y="571.8198">Result(int, int)</text><text fill="#000000" font-family="sans-serif" font-size="11" lengthAdjust="spacingAndGlyphs" textLength="109" x="642.5" y="584.6245">isWinner(): boolean</text><ellipse cx="633.5" cy="595.1211" fill="#84BE84" rx="3" ry="3" style="stroke: #038048; stroke-width: 1.0;"/><text fill="#000000" font-family="sans-serif" font-size="11" lengthAdjust="spacingAndGlyphs" textLength="85" x="642.5" y="597.4292">getBlacks(): int</text><ellipse cx="633.5" cy="607.9258" fill="#84BE84" rx="3" ry="3" style="stroke: #038048; stroke-width: 1.0;"/><text fill="#000000" font-family="sans-serif" font-size="11" lengthAdjust="spacingAndGlyphs" textLength="85" x="642.5" y="610.2339">getWhites(): int</text><!--class mastermind.models.ProposedCombination--><rect fill="#FEFECE" filter="url(#f1ryl5hfhe2eac)" height="86.4141" id="mastermind.models.ProposedCombination" style="stroke: #A80036; stroke-width: 1.5;" width="268" x="469" y="836"/><ellipse cx="529.75" cy="852" fill="#ADD1B2" rx="11" ry="11" style="stroke: #A80036; stroke-width: 1.0;"/><path d="M532.7188,857.6406 Q532.1406,857.9375 531.5,858.0781 Q530.8594,858.2344 530.1563,858.2344 Q527.6563,858.2344 526.3281,856.5938 Q525.0156,854.9375 525.0156,851.8125 Q525.0156,848.6875 526.3281,847.0313 Q527.6563,845.375 530.1563,845.375 Q530.8594,845.375 531.5,845.5313 Q532.1563,845.6875 532.7188,845.9844 L532.7188,848.7031 Q532.0938,848.125 531.5,847.8594 Q530.9063,847.5781 530.2813,847.5781 Q528.9375,847.5781 528.25,848.6563 Q527.5625,849.7188 527.5625,851.8125 Q527.5625,853.9063 528.25,854.9844 Q528.9375,856.0469 530.2813,856.0469 Q530.9063,856.0469 531.5,855.7813 Q532.0938,855.5 532.7188,854.9219 L532.7188,857.6406 Z "/><text fill="#000000" font-family="sans-serif" font-size="12" lengthAdjust="spacingAndGlyphs" textLength="138" x="550.25" y="856.1543">ProposedCombination</text><line style="stroke: #A80036; stroke-width: 1.5;" x1="470" x2="736" y1="868" y2="868"/><line style="stroke: #A80036; stroke-width: 1.5;" x1="470" x2="736" y1="876" y2="876"/><text fill="#000000" font-family="sans-serif" font-size="11" lengthAdjust="spacingAndGlyphs" textLength="242" x="489" y="890.2104">contains(Color color, int position): boolean</text><text fill="#000000" font-family="sans-serif" font-size="11" lengthAdjust="spacingAndGlyphs" textLength="171" x="489" y="903.0151">contains(Color color): boolean</text><ellipse cx="480" cy="913.5117" fill="#84BE84" rx="3" ry="3" style="stroke: #038048; stroke-width: 1.0;"/><text fill="#000000" font-family="sans-serif" font-size="11" lengthAdjust="spacingAndGlyphs" textLength="139" x="489" y="915.8198">getColors(): List&lt;Color&gt;</text><!--class mastermind.models.Combination--><rect fill="#FEFECE" filter="url(#f1ryl5hfhe2eac)" height="99.2188" id="mastermind.models.Combination" style="stroke: #A80036; stroke-width: 1.5;" width="137" x="429.5" y="677"/><ellipse cx="456.65" cy="693" fill="#A9DCDF" rx="11" ry="11" style="stroke: #A80036; stroke-width: 1.0;"/><path d="M456.7594,688.3438 L455.6031,693.4219 L457.9313,693.4219 L456.7594,688.3438 Z M455.275,686.1094 L458.2594,686.1094 L461.6188,698.5 L459.1656,698.5 L458.4,695.4375 L455.1188,695.4375 L454.3688,698.5 L451.9313,698.5 L455.275,686.1094 Z "/><text fill="#000000" font-family="sans-serif" font-size="12" font-style="italic" lengthAdjust="spacingAndGlyphs" textLength="78" x="473.35" y="697.1543">Combination</text><line style="stroke: #A80036; stroke-width: 1.5;" x1="430.5" x2="565.5" y1="709" y2="709"/><rect fill="none" height="6" style="stroke: #C82930; stroke-width: 1.0;" width="6" x="437.5" y="717.9023"/><text fill="#000000" font-family="sans-serif" font-size="11" lengthAdjust="spacingAndGlyphs" text-decoration="underline" textLength="57" x="449.5" y="723.2104">WIDTH: int</text><polygon fill="none" points="440.5,728.707,444.5,732.707,440.5,736.707,436.5,732.707" style="stroke: #B38D22; stroke-width: 1.0;"/><text fill="#000000" font-family="sans-serif" font-size="11" lengthAdjust="spacingAndGlyphs" textLength="111" x="449.5" y="736.0151">colors: List&lt;Color&gt;</text><line style="stroke: #A80036; stroke-width: 1.5;" x1="430.5" x2="565.5" y1="742.6094" y2="742.6094"/><polygon fill="#FFFF44" points="440.5,749.5117,444.5,753.5117,440.5,757.5117,436.5,753.5117" style="stroke: #B38D22; stroke-width: 1.0;"/><text fill="#000000" font-family="sans-serif" font-size="11" lengthAdjust="spacingAndGlyphs" textLength="79" x="449.5" y="756.8198">Combination()</text><ellipse cx="440.5" cy="767.3164" fill="#84BE84" rx="3" ry="3" style="stroke: #038048; stroke-width: 1.0;"/><text fill="#000000" font-family="sans-serif" font-size="11" lengthAdjust="spacingAndGlyphs" text-decoration="underline" textLength="78" x="449.5" y="769.6245">getWidth(): int</text><!--class mastermind.models.State--><rect fill="#FEFECE" filter="url(#f1ryl5hfhe2eac)" height="112.0234" id="mastermind.models.State" style="stroke: #A80036; stroke-width: 1.5;" width="178" x="257" y="110"/><ellipse cx="324.75" cy="126" fill="#ADD1B2" rx="11" ry="11" style="stroke: #A80036; stroke-width: 1.0;"/><path d="M327.7188,131.6406 Q327.1406,131.9375 326.5,132.0781 Q325.8594,132.2344 325.1563,132.2344 Q322.6563,132.2344 321.3281,130.5938 Q320.0156,128.9375 320.0156,125.8125 Q320.0156,122.6875 321.3281,121.0313 Q322.6563,119.375 325.1563,119.375 Q325.8594,119.375 326.5,119.5313 Q327.1563,119.6875 327.7188,119.9844 L327.7188,122.7031 Q327.0938,122.125 326.5,121.8594 Q325.9063,121.5781 325.2813,121.5781 Q323.9375,121.5781 323.25,122.6563 Q322.5625,123.7188 322.5625,125.8125 Q322.5625,127.9063 323.25,128.9844 Q323.9375,130.0469 325.2813,130.0469 Q325.9063,130.0469 326.5,129.7813 Q327.0938,129.5 327.7188,128.9219 L327.7188,131.6406 Z "/><text fill="#000000" font-family="sans-serif" font-size="12" lengthAdjust="spacingAndGlyphs" textLength="34" x="345.25" y="130.1543">State</text><line style="stroke: #A80036; stroke-width: 1.5;" x1="258" x2="434" y1="142" y2="142"/><rect fill="none" height="6" style="stroke: #C82930; stroke-width: 1.0;" width="6" x="265" y="150.9023"/><text fill="#000000" font-family="sans-serif" font-size="11" lengthAdjust="spacingAndGlyphs" textLength="129" x="277" y="156.2104">stateValue: StateValue</text><line style="stroke: #A80036; stroke-width: 1.5;" x1="258" x2="434" y1="162.8047" y2="162.8047"/><ellipse cx="268" cy="174.707" fill="#84BE84" rx="3" ry="3" style="stroke: #038048; stroke-width: 1.0;"/><text fill="#000000" font-family="sans-serif" font-size="11" lengthAdjust="spacingAndGlyphs" textLength="38" x="277" y="177.0151">State()</text><ellipse cx="268" cy="187.5117" fill="#84BE84" rx="3" ry="3" style="stroke: #038048; stroke-width: 1.0;"/><text fill="#000000" font-family="sans-serif" font-size="11" lengthAdjust="spacingAndGlyphs" textLength="69" x="277" y="189.8198">reset(): void</text><ellipse cx="268" cy="200.3164" fill="#84BE84" rx="3" ry="3" style="stroke: #038048; stroke-width: 1.0;"/><text fill="#000000" font-family="sans-serif" font-size="11" lengthAdjust="spacingAndGlyphs" textLength="63" x="277" y="202.6245">next(): void</text><ellipse cx="268" cy="213.1211" fill="#84BE84" rx="3" ry="3" style="stroke: #038048; stroke-width: 1.0;"/><text fill="#000000" font-family="sans-serif" font-size="11" lengthAdjust="spacingAndGlyphs" textLength="152" x="277" y="215.4292">getValueState():StateValue</text><!--class mastermind.models.StateValue--><rect fill="#FEFECE" filter="url(#f1ryl5hfhe2eac)" height="99.2188" id="mastermind.models.StateValue" style="stroke: #A80036; stroke-width: 1.5;" width="144" x="260" y="333"/><ellipse cx="294.35" cy="349" fill="#EB937F" rx="11" ry="11" style="stroke: #A80036; stroke-width: 1.0;"/><path d="M298.4594,355 L290.7406,355 L290.7406,342.6094 L298.4594,342.6094 L298.4594,344.7656 L293.1938,344.7656 L293.1938,347.4375 L297.9594,347.4375 L297.9594,349.5938 L293.1938,349.5938 L293.1938,352.8438 L298.4594,352.8438 L298.4594,355 Z "/><text fill="#000000" font-family="sans-serif" font-size="12" lengthAdjust="spacingAndGlyphs" textLength="69" x="312.65" y="353.1543">StateValue</text><line style="stroke: #A80036; stroke-width: 1.5;" x1="261" x2="403" y1="365" y2="365"/><ellipse cx="271" cy="376.9023" fill="none" rx="3" ry="3" style="stroke: #038048; stroke-width: 1.0;"/><text fill="#000000" font-family="sans-serif" font-size="11" lengthAdjust="spacingAndGlyphs" text-decoration="underline" textLength="106" x="280" y="379.2104">INITIAL: StateValue</text><ellipse cx="271" cy="389.707" fill="none" rx="3" ry="3" style="stroke: #038048; stroke-width: 1.0;"/><text fill="#000000" font-family="sans-serif" font-size="11" lengthAdjust="spacingAndGlyphs" text-decoration="underline" textLength="118" x="280" y="392.0151">IN_GAME: StateValue</text><ellipse cx="271" cy="402.5117" fill="none" rx="3" ry="3" style="stroke: #038048; stroke-width: 1.0;"/><text fill="#000000" font-family="sans-serif" font-size="11" lengthAdjust="spacingAndGlyphs" text-decoration="underline" textLength="115" x="280" y="404.8198">RESUME: StateValue</text><ellipse cx="271" cy="415.3164" fill="none" rx="3" ry="3" style="stroke: #038048; stroke-width: 1.0;"/><text fill="#000000" font-family="sans-serif" font-size="11" lengthAdjust="spacingAndGlyphs" text-decoration="underline" textLength="93" x="280" y="417.6245">EXIT: StateValue</text><line style="stroke: #A80036; stroke-width: 1.5;" x1="261" x2="403" y1="424.2188" y2="424.2188"/><!--class mastermind.models.Error--><rect fill="#FEFECE" filter="url(#f1ryl5hfhe2eac)" height="86.4141" id="mastermind.models.Error" style="stroke: #A80036; stroke-width: 1.5;" width="185" x="37.5" y="123"/><ellipse cx="110.25" cy="139" fill="#EB937F" rx="11" ry="11" style="stroke: #A80036; stroke-width: 1.0;"/><path d="M114.3594,145 L106.6406,145 L106.6406,132.6094 L114.3594,132.6094 L114.3594,134.7656 L109.0938,134.7656 L109.0938,137.4375 L113.8594,137.4375 L113.8594,139.5938 L109.0938,139.5938 L109.0938,142.8438 L114.3594,142.8438 L114.3594,145 Z "/><text fill="#000000" font-family="sans-serif" font-size="12" lengthAdjust="spacingAndGlyphs" textLength="31" x="130.75" y="143.1543">Error</text><line style="stroke: #A80036; stroke-width: 1.5;" x1="38.5" x2="221.5" y1="155" y2="155"/><ellipse cx="48.5" cy="166.9023" fill="none" rx="3" ry="3" style="stroke: #038048; stroke-width: 1.0;"/><text fill="#000000" font-family="sans-serif" font-size="11" lengthAdjust="spacingAndGlyphs" text-decoration="underline" textLength="106" x="57.5" y="169.2104">DUPLICATED: Error</text><ellipse cx="48.5" cy="179.707" fill="none" rx="3" ry="3" style="stroke: #038048; stroke-width: 1.0;"/><text fill="#000000" font-family="sans-serif" font-size="11" lengthAdjust="spacingAndGlyphs" text-decoration="underline" textLength="159" x="57.5" y="182.0151">WRONG_CHARACTERS: Error</text><ellipse cx="48.5" cy="192.5117" fill="none" rx="3" ry="3" style="stroke: #038048; stroke-width: 1.0;"/><text fill="#000000" font-family="sans-serif" font-size="11" lengthAdjust="spacingAndGlyphs" text-decoration="underline" textLength="130" x="57.5" y="194.8198">WRONG_LENGTH: Error</text><line style="stroke: #A80036; stroke-width: 1.5;" x1="38.5" x2="221.5" y1="201.4141" y2="201.4141"/><!--link mastermind.models.Game to mastermind.models.SecretCombination--><path d="M624.85,284.23 C613.06,301.91 601.52,319.22 591.52,334.23 " fill="none" id="mastermind.models.Game-mastermind.models.SecretCombination" style="stroke: #A80036; stroke-width: 1.0;"/><polygon fill="#A80036" points="584.19,345.22,592.5121,339.9529,586.9648,341.0606,585.8571,335.5133,584.19,345.22" style="stroke: #A80036; stroke-width: 1.0;"/><line style="stroke: #A80036; stroke-width: 1.0;" x1="586.9648" x2="591.395" y1="341.0606" y2="334.405"/><polygon fill="#A80036" points="632.13,273.31,625.4728,276.0815,625.4706,283.2926,632.1278,280.5211,632.13,273.31" style="stroke: #A80036; stroke-width: 1.0;"/><!--link mastermind.models.Game to mastermind.models.Result--><path d="M701.94,286.38 C701.22,331.96 700.01,384.4 698,432 C697.36,447.03 696.46,463.09 695.49,478.45 " fill="none" id="mastermind.models.Game-mastermind.models.Result" style="stroke: #A80036; stroke-width: 1.0;"/><polygon fill="#A80036" points="694.63,491.72,699.2045,482.998,694.9539,486.7305,691.2213,482.4798,694.63,491.72" style="stroke: #A80036; stroke-width: 1.0;"/><line style="stroke: #A80036; stroke-width: 1.0;" x1="694.9539" x2="695.475" y1="486.7305" y2="478.745"/><polygon fill="#A80036" points="702.13,273.09,698.0382,279.0278,701.9454,285.0886,706.0372,279.1508,702.13,273.09" style="stroke: #A80036; stroke-width: 1.0;"/><!--link mastermind.models.Game to mastermind.models.ProposedCombination--><path d="M750.55,285.76 C780.54,377.62 807.92,507.23 775,617 C750.84,697.56 692.9,776.23 650.93,825.78 " fill="none" id="mastermind.models.Game-mastermind.models.ProposedCombination" style="stroke: #A80036; stroke-width: 1.0;"/><polygon fill="#A80036" points="642.23,835.9,651.1267,831.6752,645.4862,832.1057,645.0557,826.4652,642.23,835.9" style="stroke: #A80036; stroke-width: 1.0;"/><line style="stroke: #A80036; stroke-width: 1.0;" x1="645.4862" x2="650.705" y1="832.1057" y2="826.035"/><polygon fill="#A80036" points="746.41,273.34,744.5151,280.2977,750.2087,284.7229,752.1036,277.7652,746.41,273.34" style="stroke: #A80036; stroke-width: 1.0;"/><!--link mastermind.models.Combination to mastermind.models.ProposedCombination--><path d="M543.75,793.08 C553.9,807.62 564.38,822.65 573.66,835.95 " fill="none" id="mastermind.models.Combination-mastermind.models.ProposedCombination" style="stroke: #A80036; stroke-width: 1.0;"/><polygon fill="none" points="537.79,796.77,532.09,776.36,549.28,788.76,537.79,796.77" style="stroke: #A80036; stroke-width: 1.0;"/><!--link mastermind.models.ProposedCombination to mastermind.models.Color--><path d="M560.98,922.02 C540.26,942.74 514.92,968.08 492.26,990.74 " fill="none" id="mastermind.models.ProposedCombination-mastermind.models.Color" style="stroke: #A80036; stroke-width: 1.0; stroke-dasharray: 7.0,7.0;"/><polygon fill="#A80036" points="488.65,994.35,497.8424,990.8145,492.1855,990.8145,492.1855,985.1576,488.65,994.35" style="stroke: #A80036; stroke-width: 1.0;"/><!--link mastermind.models.Result to mastermind.models.Combination--><path d="M622.31,615.44 C600.96,634.33 577.57,655.05 556.89,673.36 " fill="none" id="mastermind.models.Result-mastermind.models.Combination" style="stroke: #A80036; stroke-width: 1.0; stroke-dasharray: 7.0,7.0;"/><polygon fill="#A80036" points="553.06,676.75,562.4498,673.7782,556.8033,673.4353,557.1462,667.7888,553.06,676.75" style="stroke: #A80036; stroke-width: 1.0;"/><!--link mastermind.models.Combination to mastermind.models.SecretCombination--><path d="M510.46,656.75 C523.43,585.24 543.23,476.03 553.42,419.78 " fill="none" id="mastermind.models.Combination-mastermind.models.SecretCombination" style="stroke: #A80036; stroke-width: 1.0;"/><polygon fill="none" points="517.3,658.31,506.84,676.74,503.52,655.81,517.3,658.31" style="stroke: #A80036; stroke-width: 1.0;"/><!--link mastermind.models.SecretCombination to mastermind.models.Result--><path d="M587.57,419.55 C602.72,439.36 621.98,464.55 639.7,487.73 " fill="none" id="mastermind.models.SecretCombination-mastermind.models.Result" style="stroke: #A80036; stroke-width: 1.0; stroke-dasharray: 7.0,7.0;"/><polygon fill="#A80036" points="642.76,491.73,640.4614,482.1531,639.719,487.761,634.1111,487.0187,642.76,491.73" style="stroke: #A80036; stroke-width: 1.0;"/><!--link mastermind.models.SecretCombination to mastermind.models.ProposedCombination--><path d="M563.16,419.86 C570.81,507.84 590.32,732.17 598.87,830.55 " fill="none" id="mastermind.models.SecretCombination-mastermind.models.ProposedCombination" style="stroke: #A80036; stroke-width: 1.0; stroke-dasharray: 7.0,7.0;"/><polygon fill="#A80036" points="599.32,835.71,602.5057,826.3906,598.8764,830.7297,594.5372,827.1004,599.32,835.71" style="stroke: #A80036; stroke-width: 1.0;"/><!--link mastermind.models.SecretCombination to mastermind.models.Color--><path d="M534.6,419.77 C498.93,473.14 435.7,577.35 412,677 C387.73,779.03 402.5,900.98 416.67,976.98 " fill="none" id="mastermind.models.SecretCombination-mastermind.models.Color" style="stroke: #A80036; stroke-width: 1.0; stroke-dasharray: 7.0,7.0;"/><polygon fill="#A80036" points="417.6,981.92,419.8863,972.3402,416.6855,977.0043,412.0213,973.8035,417.6,981.92" style="stroke: #A80036; stroke-width: 1.0;"/><!--link mastermind.models.Combination to mastermind.models.Color--><path d="M468.41,788.04 C462.02,803.37 455.99,820.02 452,836 C441.26,879.01 436.39,928.21 434.27,968.58 " fill="none" id="mastermind.models.Combination-mastermind.models.Color" style="stroke: #A80036; stroke-width: 1.0;"/><polygon fill="#A80036" points="433.66,981.64,438.0711,972.8342,433.8908,976.6453,430.0797,972.465,433.66,981.64" style="stroke: #A80036; stroke-width: 1.0;"/><line style="stroke: #A80036; stroke-width: 1.0;" x1="433.8908" x2="434.265" y1="976.6453" y2="968.65"/><polygon fill="#A80036" points="473.58,776.07,467.5274,779.99,468.818,787.0847,474.8705,783.1647,473.58,776.07" style="stroke: #A80036; stroke-width: 1.0;"/><!--link mastermind.models.State to mastermind.models.StateValue--><path d="M341.53,235.44 C339.78,262.37 337.77,293.08 336.06,319.36 " fill="none" id="mastermind.models.State-mastermind.models.StateValue" style="stroke: #A80036; stroke-width: 1.0;"/><polygon fill="#A80036" points="335.19,332.66,339.7747,323.9433,335.5197,327.6709,331.7921,323.4158,335.19,332.66" style="stroke: #A80036; stroke-width: 1.0;"/><line style="stroke: #A80036; stroke-width: 1.0;" x1="335.5197" x2="336.03" y1="327.6709" y2="319.69"/><polygon fill="#A80036" points="342.39,222.24,338.0094,227.968,341.6119,234.2147,345.9925,228.4867,342.39,222.24" style="stroke: #A80036; stroke-width: 1.0;"/><!--
@startuml

enum mastermind.models.Color{
+ {static} RED: Color
+ {static} BLUE: Color
+ {static} YELLOW: Color
+ {static} GREEN: Color
+ {static} ORANGE: Color
+ {static} PURPLE: Color
{static} length(): int
}

class  mastermind.models.Game{
- {static} final MAX_LONG: int
- secretCombination: SecretCombination
- proposedCombinations: List<ProposedCombination>
- results: List<Result>
- attempts: int
+ Game()
+ getProposedCombinations(): List<ProposedCombination>
+ getResults(): List<Result>
+ getAttempts(): int
+ clear(): void
+ addProposedCombination(ProposedCombination proposedCombination): void
+ isLooser(): boolean
+ isWinner(): boolean
}
mastermind.models.Game *-down-> mastermind.models.SecretCombination
mastermind.models.Game *-down-> mastermind.models.Result
mastermind.models.Game *-down-> mastermind.models.ProposedCombination

class  mastermind.models.ProposedCombination extends mastermind.models.Combination {
contains(Color color, int position): boolean
contains(Color color): boolean
+ getColors(): List<Color>
}

mastermind.models.ProposedCombination .down.> mastermind.models.Color

class mastermind.models.Result{
- blacks: int
- whites: int
Result(int, int)
isWinner(): boolean
+ getBlacks(): int
+ getWhites(): int
}

mastermind.models.Result .down.> mastermind.models.Combination

class  mastermind.models.SecretCombination extends mastermind.models.Combination{
SecretCombination()
getResult(ProposedCombination): Result
}

mastermind.models.SecretCombination .down.> mastermind.models.Result
mastermind.models.SecretCombination .down.> mastermind.models.ProposedCombination
mastermind.models.SecretCombination .down.> mastermind.models.Color

abstract class mastermind.models.Combination{
- {static} WIDTH: int
# colors: List<Color>
# Combination()
+ {static} getWidth(): int
}
mastermind.models.Combination *-down-> mastermind.models.Color

class mastermind.models.State {
- stateValue: StateValue
+ State()
+ reset(): void
+ next(): void
+ getValueState():StateValue
}

mastermind.models.State *-down-> mastermind.models.StateValue

enum mastermind.models.StateValue {
+ {static} INITIAL: StateValue
+ {static} IN_GAME: StateValue
+ {static} RESUME: StateValue
+ {static} EXIT: StateValue
}

enum mastermind.models.Error{
+ {static} DUPLICATED: Error
+ {static} WRONG_CHARACTERS: Error
+ {static} WRONG_LENGTH: Error
}
@enduml

PlantUML version 1.2019.05(Sat Apr 20 18:45:36 CEST 2019)
(GPL source distribution)
Java Runtime: OpenJDK Runtime Environment
JVM: OpenJDK 64-Bit Server VM
Java Version: 1.8.0_265-8u265-b01-0ubuntu2~20.04-b01
Operating System: Linux
OS Version: 5.4.0-52-generic
Default Encoding: UTF-8
Language: es
Country: ES
--></g></svg>