<?xml version="1.0" encoding="UTF-8" standalone="no"?><svg xmlns="http://www.w3.org/2000/svg" xmlns:xlink="http://www.w3.org/1999/xlink" contentScriptType="application/ecmascript" contentStyleType="text/css" height="756px" preserveAspectRatio="none" style="width:1861px;height:756px;" version="1.1" viewBox="0 0 1861 756" width="1861px" zoomAndPan="magnify"><defs><filter height="300%" id="f1164pthf7o8pn" width="300%" x="-1" y="-1"><feGaussianBlur result="blurOut" stdDeviation="2.0"/><feColorMatrix in="blurOut" result="blurOut2" type="matrix" values="0 0 0 0 0 0 0 0 0 0 0 0 0 0 0 0 0 0 .4 0"/><feOffset dx="4.0" dy="4.0" in="blurOut2" result="blurOut3"/><feBlend in="SourceGraphic" in2="blurOut3" mode="normal"/></filter></defs><g><!--cluster mastermind.controllers--><polygon fill="#FFFFFF" filter="url(#f1164pthf7o8pn)" points="695,66,885,66,892,88.2969,1839,88.2969,1839,744,695,744,695,66" style="stroke: #000000; stroke-width: 1.5;"/><line style="stroke: #000000; stroke-width: 1.5;" x1="695" x2="892" y1="88.2969" y2="88.2969"/><text fill="#000000" font-family="sans-serif" font-size="14" font-weight="bold" lengthAdjust="spacingAndGlyphs" textLength="184" x="699" y="80.9951">mastermind.controllers</text><!--cluster mastermind.models--><polygon fill="#FFFFFF" filter="url(#f1164pthf7o8pn)" points="22,91.5,183,91.5,190,113.7969,671,113.7969,671,190.5,22,190.5,22,91.5" style="stroke: #000000; stroke-width: 1.5;"/><line style="stroke: #000000; stroke-width: 1.5;" x1="22" x2="190" y1="113.7969" y2="113.7969"/><text fill="#000000" font-family="sans-serif" font-size="14" font-weight="bold" lengthAdjust="spacingAndGlyphs" textLength="155" x="26" y="106.4951">mastermind.models</text><!--class mastermind.controllers.ControllerVisitor--><rect fill="#FEFECE" filter="url(#f1164pthf7o8pn)" height="86.4141" id="mastermind.controllers.ControllerVisitor" style="stroke: #A80036; stroke-width: 1.5;" width="294" x="1026" y="432"/><ellipse cx="1119.25" cy="448" fill="#B4A7E5" rx="11" ry="11" style="stroke: #A80036; stroke-width: 1.0;"/><path d="M1115.1719,443.7656 L1115.1719,441.6094 L1122.5625,441.6094 L1122.5625,443.7656 L1120.0938,443.7656 L1120.0938,451.8438 L1122.5625,451.8438 L1122.5625,454 L1115.1719,454 L1115.1719,451.8438 L1117.6406,451.8438 L1117.6406,443.7656 L1115.1719,443.7656 Z "/><text fill="#000000" font-family="sans-serif" font-size="12" font-style="italic" lengthAdjust="spacingAndGlyphs" textLength="99" x="1139.75" y="452.1543">ControllerVisitor</text><line style="stroke: #A80036; stroke-width: 1.5;" x1="1027" x2="1319" y1="464" y2="464"/><line style="stroke: #A80036; stroke-width: 1.5;" x1="1027" x2="1319" y1="472" y2="472"/><ellipse cx="1037" cy="483.9023" fill="#84BE84" rx="3" ry="3" style="stroke: #038048; stroke-width: 1.0;"/><text fill="#000000" font-family="sans-serif" font-size="11" lengthAdjust="spacingAndGlyphs" textLength="233" x="1046" y="486.2104">visit(StartController startController): void</text><ellipse cx="1037" cy="496.707" fill="#84BE84" rx="3" ry="3" style="stroke: #038048; stroke-width: 1.0;"/><text fill="#000000" font-family="sans-serif" font-size="11" lengthAdjust="spacingAndGlyphs" textLength="224" x="1046" y="499.0151">visit(PlayController playController): void</text><ellipse cx="1037" cy="509.5117" fill="#84BE84" rx="3" ry="3" style="stroke: #038048; stroke-width: 1.0;"/><text fill="#000000" font-family="sans-serif" font-size="11" lengthAdjust="spacingAndGlyphs" textLength="268" x="1046" y="511.8198">visit(ResumeController resumeController): void</text><!--class mastermind.controllers.StartController--><rect fill="#FEFECE" filter="url(#f1164pthf7o8pn)" height="73.6094" id="mastermind.controllers.StartController" style="stroke: #A80036; stroke-width: 1.5;" width="288" x="1535" y="616"/><ellipse cx="1628.75" cy="632" fill="#ADD1B2" rx="11" ry="11" style="stroke: #A80036; stroke-width: 1.0;"/><path d="M1631.7188,637.6406 Q1631.1406,637.9375 1630.5,638.0781 Q1629.8594,638.2344 1629.1563,638.2344 Q1626.6563,638.2344 1625.3281,636.5938 Q1624.0156,634.9375 1624.0156,631.8125 Q1624.0156,628.6875 1625.3281,627.0313 Q1626.6563,625.375 1629.1563,625.375 Q1629.8594,625.375 1630.5,625.5313 Q1631.1563,625.6875 1631.7188,625.9844 L1631.7188,628.7031 Q1631.0938,628.125 1630.5,627.8594 Q1629.9063,627.5781 1629.2813,627.5781 Q1627.9375,627.5781 1627.25,628.6563 Q1626.5625,629.7188 1626.5625,631.8125 Q1626.5625,633.9063 1627.25,634.9844 Q1627.9375,636.0469 1629.2813,636.0469 Q1629.9063,636.0469 1630.5,635.7813 Q1631.0938,635.5 1631.7188,634.9219 L1631.7188,637.6406 Z "/><text fill="#000000" font-family="sans-serif" font-size="12" lengthAdjust="spacingAndGlyphs" textLength="92" x="1649.25" y="636.1543">StartController</text><line style="stroke: #A80036; stroke-width: 1.5;" x1="1536" x2="1822" y1="648" y2="648"/><line style="stroke: #A80036; stroke-width: 1.5;" x1="1536" x2="1822" y1="656" y2="656"/><ellipse cx="1546" cy="667.9023" fill="#84BE84" rx="3" ry="3" style="stroke: #038048; stroke-width: 1.0;"/><text fill="#000000" font-family="sans-serif" font-size="11" lengthAdjust="spacingAndGlyphs" textLength="233" x="1555" y="670.2104">StartController(Game game, State state)</text><ellipse cx="1546" cy="680.707" fill="#84BE84" rx="3" ry="3" style="stroke: #038048; stroke-width: 1.0;"/><text fill="#000000" font-family="sans-serif" font-size="11" lengthAdjust="spacingAndGlyphs" textLength="262" x="1555" y="683.0151">accept(ControllerVisitor controllerVisitor): void</text><!--class mastermind.controllers.PlayController--><rect fill="#FEFECE" filter="url(#f1164pthf7o8pn)" height="150.4375" id="mastermind.controllers.PlayController" style="stroke: #A80036; stroke-width: 1.5;" width="465" x="711.5" y="578"/><ellipse cx="896.75" cy="594" fill="#ADD1B2" rx="11" ry="11" style="stroke: #A80036; stroke-width: 1.0;"/><path d="M899.7188,599.6406 Q899.1406,599.9375 898.5,600.0781 Q897.8594,600.2344 897.1563,600.2344 Q894.6563,600.2344 893.3281,598.5938 Q892.0156,596.9375 892.0156,593.8125 Q892.0156,590.6875 893.3281,589.0313 Q894.6563,587.375 897.1563,587.375 Q897.8594,587.375 898.5,587.5313 Q899.1563,587.6875 899.7188,587.9844 L899.7188,590.7031 Q899.0938,590.125 898.5,589.8594 Q897.9063,589.5781 897.2813,589.5781 Q895.9375,589.5781 895.25,590.6563 Q894.5625,591.7188 894.5625,593.8125 Q894.5625,595.9063 895.25,596.9844 Q895.9375,598.0469 897.2813,598.0469 Q897.9063,598.0469 898.5,597.7813 Q899.0938,597.5 899.7188,596.9219 L899.7188,599.6406 Z "/><text fill="#000000" font-family="sans-serif" font-size="12" lengthAdjust="spacingAndGlyphs" textLength="86" x="917.25" y="598.1543">PlayController</text><line style="stroke: #A80036; stroke-width: 1.5;" x1="712.5" x2="1175.5" y1="610" y2="610"/><line style="stroke: #A80036; stroke-width: 1.5;" x1="712.5" x2="1175.5" y1="618" y2="618"/><ellipse cx="722.5" cy="629.9023" fill="#84BE84" rx="3" ry="3" style="stroke: #038048; stroke-width: 1.0;"/><text fill="#000000" font-family="sans-serif" font-size="11" lengthAdjust="spacingAndGlyphs" textLength="228" x="731.5" y="632.2104">PlayController(Game game, State state)</text><ellipse cx="722.5" cy="642.707" fill="#84BE84" rx="3" ry="3" style="stroke: #038048; stroke-width: 1.0;"/><text fill="#000000" font-family="sans-serif" font-size="11" lengthAdjust="spacingAndGlyphs" textLength="439" x="731.5" y="645.0151">addProposedCombination(ProposedCombination proposedCombination): void</text><ellipse cx="722.5" cy="655.5117" fill="#84BE84" rx="3" ry="3" style="stroke: #038048; stroke-width: 1.0;"/><text fill="#000000" font-family="sans-serif" font-size="11" lengthAdjust="spacingAndGlyphs" textLength="99" x="731.5" y="657.8198">getAttempts(): int</text><ellipse cx="722.5" cy="668.3164" fill="#84BE84" rx="3" ry="3" style="stroke: #038048; stroke-width: 1.0;"/><text fill="#000000" font-family="sans-serif" font-size="11" lengthAdjust="spacingAndGlyphs" textLength="347" x="731.5" y="670.6245">getProposedCombination(int position): ProposedCombination</text><ellipse cx="722.5" cy="681.1211" fill="#84BE84" rx="3" ry="3" style="stroke: #038048; stroke-width: 1.0;"/><text fill="#000000" font-family="sans-serif" font-size="11" lengthAdjust="spacingAndGlyphs" textLength="167" x="731.5" y="683.4292">getResult(int position): Result</text><ellipse cx="722.5" cy="693.9258" fill="#84BE84" rx="3" ry="3" style="stroke: #038048; stroke-width: 1.0;"/><text fill="#000000" font-family="sans-serif" font-size="11" lengthAdjust="spacingAndGlyphs" textLength="109" x="731.5" y="696.2339">isWinner(): boolean</text><ellipse cx="722.5" cy="706.7305" fill="#84BE84" rx="3" ry="3" style="stroke: #038048; stroke-width: 1.0;"/><text fill="#000000" font-family="sans-serif" font-size="11" lengthAdjust="spacingAndGlyphs" textLength="110" x="731.5" y="709.0386">isLooser(): boolean</text><ellipse cx="722.5" cy="719.5352" fill="#84BE84" rx="3" ry="3" style="stroke: #038048; stroke-width: 1.0;"/><text fill="#000000" font-family="sans-serif" font-size="11" lengthAdjust="spacingAndGlyphs" textLength="262" x="731.5" y="721.8433">accept(ControllerVisitor controllerVisitor): void</text><!--class mastermind.controllers.ResumeController--><rect fill="#FEFECE" filter="url(#f1164pthf7o8pn)" height="86.4141" id="mastermind.controllers.ResumeController" style="stroke: #A80036; stroke-width: 1.5;" width="288" x="1212" y="610"/><ellipse cx="1296.25" cy="626" fill="#ADD1B2" rx="11" ry="11" style="stroke: #A80036; stroke-width: 1.0;"/><path d="M1299.2188,631.6406 Q1298.6406,631.9375 1298,632.0781 Q1297.3594,632.2344 1296.6563,632.2344 Q1294.1563,632.2344 1292.8281,630.5938 Q1291.5156,628.9375 1291.5156,625.8125 Q1291.5156,622.6875 1292.8281,621.0313 Q1294.1563,619.375 1296.6563,619.375 Q1297.3594,619.375 1298,619.5313 Q1298.6563,619.6875 1299.2188,619.9844 L1299.2188,622.7031 Q1298.5938,622.125 1298,621.8594 Q1297.4063,621.5781 1296.7813,621.5781 Q1295.4375,621.5781 1294.75,622.6563 Q1294.0625,623.7188 1294.0625,625.8125 Q1294.0625,627.9063 1294.75,628.9844 Q1295.4375,630.0469 1296.7813,630.0469 Q1297.4063,630.0469 1298,629.7813 Q1298.5938,629.5 1299.2188,628.9219 L1299.2188,631.6406 Z "/><text fill="#000000" font-family="sans-serif" font-size="12" lengthAdjust="spacingAndGlyphs" textLength="111" x="1316.75" y="630.1543">ResumeController</text><line style="stroke: #A80036; stroke-width: 1.5;" x1="1213" x2="1499" y1="642" y2="642"/><line style="stroke: #A80036; stroke-width: 1.5;" x1="1213" x2="1499" y1="650" y2="650"/><ellipse cx="1223" cy="661.9023" fill="#84BE84" rx="3" ry="3" style="stroke: #038048; stroke-width: 1.0;"/><text fill="#000000" font-family="sans-serif" font-size="11" lengthAdjust="spacingAndGlyphs" textLength="251" x="1232" y="664.2104">ResumeController(Game game, State state)</text><ellipse cx="1223" cy="674.707" fill="#84BE84" rx="3" ry="3" style="stroke: #038048; stroke-width: 1.0;"/><text fill="#000000" font-family="sans-serif" font-size="11" lengthAdjust="spacingAndGlyphs" textLength="83" x="1232" y="677.0151">resume(): void</text><ellipse cx="1223" cy="687.5117" fill="#84BE84" rx="3" ry="3" style="stroke: #038048; stroke-width: 1.0;"/><text fill="#000000" font-family="sans-serif" font-size="11" lengthAdjust="spacingAndGlyphs" textLength="262" x="1232" y="689.8198">accept(ControllerVisitor controllerVisitor): void</text><!--class mastermind.controllers.Logic--><rect fill="#FEFECE" filter="url(#f1164pthf7o8pn)" height="99.2188" id="mastermind.controllers.Logic" style="stroke: #A80036; stroke-width: 1.5;" width="340" x="711" y="101"/><ellipse cx="860.75" cy="117" fill="#ADD1B2" rx="11" ry="11" style="stroke: #A80036; stroke-width: 1.0;"/><path d="M863.7188,122.6406 Q863.1406,122.9375 862.5,123.0781 Q861.8594,123.2344 861.1563,123.2344 Q858.6563,123.2344 857.3281,121.5938 Q856.0156,119.9375 856.0156,116.8125 Q856.0156,113.6875 857.3281,112.0313 Q858.6563,110.375 861.1563,110.375 Q861.8594,110.375 862.5,110.5313 Q863.1563,110.6875 863.7188,110.9844 L863.7188,113.7031 Q863.0938,113.125 862.5,112.8594 Q861.9063,112.5781 861.2813,112.5781 Q859.9375,112.5781 859.25,113.6563 Q858.5625,114.7188 858.5625,116.8125 Q858.5625,118.9063 859.25,119.9844 Q859.9375,121.0469 861.2813,121.0469 Q861.9063,121.0469 862.5,120.7813 Q863.0938,120.5 863.7188,119.9219 L863.7188,122.6406 Z "/><text fill="#000000" font-family="sans-serif" font-size="12" lengthAdjust="spacingAndGlyphs" textLength="32" x="881.25" y="121.1543">Logic</text><line style="stroke: #A80036; stroke-width: 1.5;" x1="712" x2="1050" y1="133" y2="133"/><rect fill="none" height="6" style="stroke: #C82930; stroke-width: 1.0;" width="6" x="719" y="141.9023"/><text fill="#000000" font-family="sans-serif" font-size="11" lengthAdjust="spacingAndGlyphs" textLength="95" x="731" y="147.2104">final state: State</text><rect fill="none" height="6" style="stroke: #C82930; stroke-width: 1.0;" width="6" x="719" y="154.707"/><text fill="#000000" font-family="sans-serif" font-size="11" lengthAdjust="spacingAndGlyphs" textLength="314" x="731" y="160.0151">final controllers: Map&lt;StateValue, UseCaseController&gt;</text><line style="stroke: #A80036; stroke-width: 1.5;" x1="712" x2="1050" y1="166.6094" y2="166.6094"/><ellipse cx="722" cy="178.5117" fill="#84BE84" rx="3" ry="3" style="stroke: #038048; stroke-width: 1.0;"/><text fill="#000000" font-family="sans-serif" font-size="11" lengthAdjust="spacingAndGlyphs" textLength="37" x="731" y="180.8198">Logic()</text><ellipse cx="722" cy="191.3164" fill="#84BE84" rx="3" ry="3" style="stroke: #038048; stroke-width: 1.0;"/><text fill="#000000" font-family="sans-serif" font-size="11" lengthAdjust="spacingAndGlyphs" textLength="197" x="731" y="193.6245">getController(): UseCaseController</text><!--class mastermind.controllers.UseCaseController--><rect fill="#FEFECE" filter="url(#f1164pthf7o8pn)" height="112.0234" id="mastermind.controllers.UseCaseController" style="stroke: #A80036; stroke-width: 1.5;" width="289" x="799.5" y="260"/><ellipse cx="882.75" cy="276" fill="#A9DCDF" rx="11" ry="11" style="stroke: #A80036; stroke-width: 1.0;"/><path d="M882.8594,271.3438 L881.7031,276.4219 L884.0313,276.4219 L882.8594,271.3438 Z M881.375,269.1094 L884.3594,269.1094 L887.7188,281.5 L885.2656,281.5 L884.5,278.4375 L881.2188,278.4375 L880.4688,281.5 L878.0313,281.5 L881.375,269.1094 Z "/><text fill="#000000" font-family="sans-serif" font-size="12" font-style="italic" lengthAdjust="spacingAndGlyphs" textLength="114" x="903.25" y="280.1543">UseCaseController</text><line style="stroke: #A80036; stroke-width: 1.5;" x1="800.5" x2="1087.5" y1="292" y2="292"/><polygon fill="none" points="810.5,298.9023,814.5,302.9023,810.5,306.9023,806.5,302.9023" style="stroke: #B38D22; stroke-width: 1.0;"/><text fill="#000000" font-family="sans-serif" font-size="11" lengthAdjust="spacingAndGlyphs" textLength="102" x="819.5" y="306.2104">final game: Game</text><polygon fill="none" points="810.5,311.707,814.5,315.707,810.5,319.707,806.5,315.707" style="stroke: #B38D22; stroke-width: 1.0;"/><text fill="#000000" font-family="sans-serif" font-size="11" lengthAdjust="spacingAndGlyphs" textLength="95" x="819.5" y="319.0151">final state: State</text><line style="stroke: #A80036; stroke-width: 1.5;" x1="800.5" x2="1087.5" y1="325.6094" y2="325.6094"/><text fill="#000000" font-family="sans-serif" font-size="11" lengthAdjust="spacingAndGlyphs" textLength="256" x="819.5" y="339.8198">UseCaseController(Game game, State state)</text><ellipse cx="810.5" cy="350.3164" fill="#84BE84" rx="3" ry="3" style="stroke: #038048; stroke-width: 1.0;"/><text fill="#000000" font-family="sans-serif" font-size="11" lengthAdjust="spacingAndGlyphs" textLength="63" x="819.5" y="352.6245">next(): void</text><ellipse cx="810.5" cy="363.1211" fill="#84BE84" rx="3" ry="3" style="stroke: #038048; stroke-width: 1.0;"/><text fill="#000000" font-family="sans-serif" font-size="11" font-style="italic" lengthAdjust="spacingAndGlyphs" textLength="263" x="819.5" y="365.4292">accept(ControllerVisitor controllerVisitor): void</text><!--class mastermind.models.State--><rect fill="#FEFECE" filter="url(#f1164pthf7o8pn)" height="48" id="mastermind.models.State" style="stroke: #A80036; stroke-width: 1.5;" width="66" x="486" y="126.5"/><ellipse cx="501" cy="142.5" fill="#ADD1B2" rx="11" ry="11" style="stroke: #A80036; stroke-width: 1.0;"/><path d="M503.9688,148.1406 Q503.3906,148.4375 502.75,148.5781 Q502.1094,148.7344 501.4063,148.7344 Q498.9063,148.7344 497.5781,147.0938 Q496.2656,145.4375 496.2656,142.3125 Q496.2656,139.1875 497.5781,137.5313 Q498.9063,135.875 501.4063,135.875 Q502.1094,135.875 502.75,136.0313 Q503.4063,136.1875 503.9688,136.4844 L503.9688,139.2031 Q503.3438,138.625 502.75,138.3594 Q502.1563,138.0781 501.5313,138.0781 Q500.1875,138.0781 499.5,139.1563 Q498.8125,140.2188 498.8125,142.3125 Q498.8125,144.4063 499.5,145.4844 Q500.1875,146.5469 501.5313,146.5469 Q502.1563,146.5469 502.75,146.2813 Q503.3438,146 503.9688,145.4219 L503.9688,148.1406 Z "/><text fill="#000000" font-family="sans-serif" font-size="12" lengthAdjust="spacingAndGlyphs" textLength="34" x="515" y="146.6543">State</text><line style="stroke: #A80036; stroke-width: 1.5;" x1="487" x2="551" y1="158.5" y2="158.5"/><line style="stroke: #A80036; stroke-width: 1.5;" x1="487" x2="551" y1="166.5" y2="166.5"/><!--class mastermind.models.StateValue--><rect fill="#FEFECE" filter="url(#f1164pthf7o8pn)" height="48" id="mastermind.models.StateValue" style="stroke: #A80036; stroke-width: 1.5;" width="101" x="349.5" y="126.5"/><ellipse cx="364.5" cy="142.5" fill="#ADD1B2" rx="11" ry="11" style="stroke: #A80036; stroke-width: 1.0;"/><path d="M367.4688,148.1406 Q366.8906,148.4375 366.25,148.5781 Q365.6094,148.7344 364.9063,148.7344 Q362.4063,148.7344 361.0781,147.0938 Q359.7656,145.4375 359.7656,142.3125 Q359.7656,139.1875 361.0781,137.5313 Q362.4063,135.875 364.9063,135.875 Q365.6094,135.875 366.25,136.0313 Q366.9063,136.1875 367.4688,136.4844 L367.4688,139.2031 Q366.8438,138.625 366.25,138.3594 Q365.6563,138.0781 365.0313,138.0781 Q363.6875,138.0781 363,139.1563 Q362.3125,140.2188 362.3125,142.3125 Q362.3125,144.4063 363,145.4844 Q363.6875,146.5469 365.0313,146.5469 Q365.6563,146.5469 366.25,146.2813 Q366.8438,146 367.4688,145.4219 L367.4688,148.1406 Z "/><text fill="#000000" font-family="sans-serif" font-size="12" lengthAdjust="spacingAndGlyphs" textLength="69" x="378.5" y="146.6543">StateValue</text><line style="stroke: #A80036; stroke-width: 1.5;" x1="350.5" x2="449.5" y1="158.5" y2="158.5"/><line style="stroke: #A80036; stroke-width: 1.5;" x1="350.5" x2="449.5" y1="166.5" y2="166.5"/><!--class mastermind.models.Game--><rect fill="#FEFECE" filter="url(#f1164pthf7o8pn)" height="48" id="mastermind.models.Game" style="stroke: #A80036; stroke-width: 1.5;" width="68" x="587" y="126.5"/><ellipse cx="602" cy="142.5" fill="#ADD1B2" rx="11" ry="11" style="stroke: #A80036; stroke-width: 1.0;"/><path d="M604.9688,148.1406 Q604.3906,148.4375 603.75,148.5781 Q603.1094,148.7344 602.4063,148.7344 Q599.9063,148.7344 598.5781,147.0938 Q597.2656,145.4375 597.2656,142.3125 Q597.2656,139.1875 598.5781,137.5313 Q599.9063,135.875 602.4063,135.875 Q603.1094,135.875 603.75,136.0313 Q604.4063,136.1875 604.9688,136.4844 L604.9688,139.2031 Q604.3438,138.625 603.75,138.3594 Q603.1563,138.0781 602.5313,138.0781 Q601.1875,138.0781 600.5,139.1563 Q599.8125,140.2188 599.8125,142.3125 Q599.8125,144.4063 600.5,145.4844 Q601.1875,146.5469 602.5313,146.5469 Q603.1563,146.5469 603.75,146.2813 Q604.3438,146 604.9688,145.4219 L604.9688,148.1406 Z "/><text fill="#000000" font-family="sans-serif" font-size="12" lengthAdjust="spacingAndGlyphs" textLength="36" x="616" y="146.6543">Game</text><line style="stroke: #A80036; stroke-width: 1.5;" x1="588" x2="654" y1="158.5" y2="158.5"/><line style="stroke: #A80036; stroke-width: 1.5;" x1="588" x2="654" y1="166.5" y2="166.5"/><!--class mastermind.models.ProposedCombination--><rect fill="#FEFECE" filter="url(#f1164pthf7o8pn)" height="48" id="mastermind.models.ProposedCombination" style="stroke: #A80036; stroke-width: 1.5;" width="170" x="38" y="126.5"/><ellipse cx="53" cy="142.5" fill="#ADD1B2" rx="11" ry="11" style="stroke: #A80036; stroke-width: 1.0;"/><path d="M55.9688,148.1406 Q55.3906,148.4375 54.75,148.5781 Q54.1094,148.7344 53.4063,148.7344 Q50.9063,148.7344 49.5781,147.0938 Q48.2656,145.4375 48.2656,142.3125 Q48.2656,139.1875 49.5781,137.5313 Q50.9063,135.875 53.4063,135.875 Q54.1094,135.875 54.75,136.0313 Q55.4063,136.1875 55.9688,136.4844 L55.9688,139.2031 Q55.3438,138.625 54.75,138.3594 Q54.1563,138.0781 53.5313,138.0781 Q52.1875,138.0781 51.5,139.1563 Q50.8125,140.2188 50.8125,142.3125 Q50.8125,144.4063 51.5,145.4844 Q52.1875,146.5469 53.5313,146.5469 Q54.1563,146.5469 54.75,146.2813 Q55.3438,146 55.9688,145.4219 L55.9688,148.1406 Z "/><text fill="#000000" font-family="sans-serif" font-size="12" lengthAdjust="spacingAndGlyphs" textLength="138" x="67" y="146.6543">ProposedCombination</text><line style="stroke: #A80036; stroke-width: 1.5;" x1="39" x2="207" y1="158.5" y2="158.5"/><line style="stroke: #A80036; stroke-width: 1.5;" x1="39" x2="207" y1="166.5" y2="166.5"/><!--class mastermind.models.Result--><rect fill="#FEFECE" filter="url(#f1164pthf7o8pn)" height="48" id="mastermind.models.Result" style="stroke: #A80036; stroke-width: 1.5;" width="71" x="243.5" y="126.5"/><ellipse cx="258.5" cy="142.5" fill="#ADD1B2" rx="11" ry="11" style="stroke: #A80036; stroke-width: 1.0;"/><path d="M261.4688,148.1406 Q260.8906,148.4375 260.25,148.5781 Q259.6094,148.7344 258.9063,148.7344 Q256.4063,148.7344 255.0781,147.0938 Q253.7656,145.4375 253.7656,142.3125 Q253.7656,139.1875 255.0781,137.5313 Q256.4063,135.875 258.9063,135.875 Q259.6094,135.875 260.25,136.0313 Q260.9063,136.1875 261.4688,136.4844 L261.4688,139.2031 Q260.8438,138.625 260.25,138.3594 Q259.6563,138.0781 259.0313,138.0781 Q257.6875,138.0781 257,139.1563 Q256.3125,140.2188 256.3125,142.3125 Q256.3125,144.4063 257,145.4844 Q257.6875,146.5469 259.0313,146.5469 Q259.6563,146.5469 260.25,146.2813 Q260.8438,146 261.4688,145.4219 L261.4688,148.1406 Z "/><text fill="#000000" font-family="sans-serif" font-size="12" lengthAdjust="spacingAndGlyphs" textLength="39" x="272.5" y="146.6543">Result</text><line style="stroke: #A80036; stroke-width: 1.5;" x1="244.5" x2="313.5" y1="158.5" y2="158.5"/><line style="stroke: #A80036; stroke-width: 1.5;" x1="244.5" x2="313.5" y1="166.5" y2="166.5"/><!--link mastermind.controllers.ControllerVisitor to mastermind.controllers.StartController--><path d="M1316.66,518.02 C1374.47,534.87 1441.36,555.61 1501,578 C1528.77,588.43 1558.46,601.5 1585.59,613.74 " fill="none" id="mastermind.controllers.ControllerVisitor-mastermind.controllers.StartController" style="stroke: #A80036; stroke-width: 1.0; stroke-dasharray: 7.0,7.0;"/><polygon fill="#A80036" points="1590.28,615.85,1583.7228,608.5013,1585.7228,613.7928,1580.4313,615.7929,1590.28,615.85" style="stroke: #A80036; stroke-width: 1.0;"/><!--link mastermind.controllers.ControllerVisitor to mastermind.controllers.StartController--><path d="M1325.19,511.31 C1391,529.21 1468.18,552.54 1536,578 C1565.38,589.03 1596.9,603.02 1623.06,615.85 " fill="none" id="mastermind.controllers.ControllerVisitor-mastermind.controllers.StartController-1" style="stroke: #A80036; stroke-width: 1.0; stroke-dasharray: 7.0,7.0;"/><polygon fill="#A80036" points="1320.07,509.93,1327.7206,516.1322,1324.8981,511.2299,1329.8004,508.4073,1320.07,509.93" style="stroke: #A80036; stroke-width: 1.0;"/><!--link mastermind.controllers.ControllerVisitor to mastermind.controllers.PlayController--><path d="M1107.08,518.16 C1083.6,535.15 1056.85,555.3 1031.86,574.74 " fill="none" id="mastermind.controllers.ControllerVisitor-mastermind.controllers.PlayController" style="stroke: #A80036; stroke-width: 1.0; stroke-dasharray: 7.0,7.0;"/><polygon fill="#A80036" points="1027.87,577.85,1037.4281,575.4748,1031.8145,574.7773,1032.5119,569.1636,1027.87,577.85" style="stroke: #A80036; stroke-width: 1.0;"/><!--link mastermind.controllers.ControllerVisitor to mastermind.controllers.PlayController--><path d="M1125.99,521.34 C1104.91,538.56 1079.22,558.66 1053.82,577.85 " fill="none" id="mastermind.controllers.ControllerVisitor-mastermind.controllers.PlayController-1" style="stroke: #A80036; stroke-width: 1.0; stroke-dasharray: 7.0,7.0;"/><polygon fill="#A80036" points="1129.87,518.16,1120.373,520.769,1126.0021,521.3285,1125.4426,526.9576,1129.87,518.16" style="stroke: #A80036; stroke-width: 1.0;"/><!--link mastermind.controllers.ControllerVisitor to mastermind.controllers.ResumeController--><path d="M1205.77,518.16 C1231.24,544.73 1266.82,579.03 1297.1,606.26 " fill="none" id="mastermind.controllers.ControllerVisitor-mastermind.controllers.ResumeController" style="stroke: #A80036; stroke-width: 1.0; stroke-dasharray: 7.0,7.0;"/><polygon fill="#A80036" points="1301.14,609.88,1297.1091,600.8938,1297.4172,606.5423,1291.7687,606.8504,1301.14,609.88" style="stroke: #A80036; stroke-width: 1.0;"/><!--link mastermind.controllers.ControllerVisitor to mastermind.controllers.ResumeController--><path d="M1232.61,521.78 C1263.01,549.02 1298.58,583.32 1323.92,609.88 " fill="none" id="mastermind.controllers.ControllerVisitor-mastermind.controllers.ResumeController-1" style="stroke: #A80036; stroke-width: 1.0; stroke-dasharray: 7.0,7.0;"/><polygon fill="#A80036" points="1228.55,518.16,1232.6001,527.1376,1232.2799,521.4898,1237.9277,521.1697,1228.55,518.16" style="stroke: #A80036; stroke-width: 1.0;"/><!--link mastermind.models.State to mastermind.controllers.Logic--><path d="M528.37,113.76 C537.94,84.69 555.98,46.1 587.5,28 C612.94,13.39 625.06,20.83 653.5,28 C705.2,41.03 757.93,68.37 799.59,93.92 " fill="none" id="mastermind.models.State-mastermind.controllers.Logic" style="stroke: #A80036; stroke-width: 1.0;"/><polygon fill="#A80036" points="810.76,100.89,807.7889,94.3194,800.5811,94.5348,803.5521,101.1054,810.76,100.89" style="stroke: #A80036; stroke-width: 1.0;"/><polygon fill="#A80036" points="524.55,126.33,530.9886,118.8772,526.0003,121.545,523.3326,116.5567,524.55,126.33" style="stroke: #A80036; stroke-width: 1.0;"/><line style="stroke: #A80036; stroke-width: 1.0;" x1="526.0003" x2="528.325" y1="121.545" y2="113.89"/><!--link mastermind.models.StateValue to mastermind.controllers.Logic--><path d="M414.3,114.28 C428,85.07 451.76,46 486.5,28 C552.4,-6.14 581.53,9.86 653.5,28 C705.2,41.03 757.93,68.37 799.59,93.92 " fill="none" id="mastermind.models.StateValue-mastermind.controllers.Logic" style="stroke: #A80036; stroke-width: 1.0;"/><polygon fill="#A80036" points="810.76,100.89,807.7889,94.3194,800.5811,94.5348,803.5521,101.1054,810.76,100.89" style="stroke: #A80036; stroke-width: 1.0;"/><polygon fill="#A80036" points="408.88,126.5,416.1853,119.8945,410.9071,121.9294,408.8723,116.6511,408.88,126.5" style="stroke: #A80036; stroke-width: 1.0;"/><line style="stroke: #A80036; stroke-width: 1.0;" x1="410.9071" x2="414.15" y1="121.9294" y2="114.615"/><!--link mastermind.controllers.Logic to mastermind.controllers.UseCaseController--><path d="M904.45,212.36 C908.87,223.82 913.51,235.88 918,247.54 " fill="none" id="mastermind.controllers.Logic-mastermind.controllers.UseCaseController" style="stroke: #A80036; stroke-width: 1.0;"/><polygon fill="#A80036" points="922.8,259.98,923.2878,250.1432,920.9981,255.316,915.8254,253.0263,922.8,259.98" style="stroke: #A80036; stroke-width: 1.0;"/><line style="stroke: #A80036; stroke-width: 1.0;" x1="920.9981" x2="918.125" y1="255.316" y2="247.85"/><polygon fill="#A80036" points="899.73,200.11,898.1538,207.1467,904.0431,211.3081,905.6192,204.2714,899.73,200.11" style="stroke: #A80036; stroke-width: 1.0;"/><!--link mastermind.controllers.Logic to mastermind.models.Game--><path d="M710.63,150.5 C693.84,150.5 677.04,150.5 660.24,150.5 " fill="none" id="mastermind.controllers.Logic-mastermind.models.Game" style="stroke: #A80036; stroke-width: 1.0; stroke-dasharray: 7.0,7.0;"/><polygon fill="#A80036" points="655.02,150.5,664.02,154.5,660.02,150.5,664.02,146.5,655.02,150.5" style="stroke: #A80036; stroke-width: 1.0;"/><!--link mastermind.models.Game to mastermind.controllers.UseCaseController--><path d="M664.94,181.82 C674.67,188.1 685.06,194.48 695,200 C729.32,219.04 767.36,237.74 803.16,254.35 " fill="none" id="mastermind.models.Game-mastermind.controllers.UseCaseController" style="stroke: #A80036; stroke-width: 1.0;"/><polygon fill="#A80036" points="815.21,259.9,811.4281,253.7602,804.306,254.8897,808.0879,261.0295,815.21,259.9" style="stroke: #A80036; stroke-width: 1.0;"/><polygon fill="#A80036" points="653.88,174.54,659.2053,182.825,658.0587,177.2856,663.5982,176.139,653.88,174.54" style="stroke: #A80036; stroke-width: 1.0;"/><line style="stroke: #A80036; stroke-width: 1.0;" x1="658.0587" x2="664.74" y1="177.2856" y2="181.685"/><!--link mastermind.models.State to mastermind.controllers.UseCaseController--><path d="M548.71,184.05 C555.28,189.96 562.53,195.63 570,200 C636.24,238.75 716.85,265.69 786.24,283.71 " fill="none" id="mastermind.models.State-mastermind.controllers.UseCaseController" style="stroke: #A80036; stroke-width: 1.0;"/><polygon fill="#A80036" points="799.07,286.97,794.2392,281.6162,787.4392,284.0162,792.27,289.37,799.07,286.97" style="stroke: #A80036; stroke-width: 1.0;"/><polygon fill="#A80036" points="539.01,174.71,542.7234,183.832,542.6135,178.1762,548.2693,178.0663,539.01,174.71" style="stroke: #A80036; stroke-width: 1.0;"/><line style="stroke: #A80036; stroke-width: 1.0;" x1="542.6135" x2="548.375" y1="178.1762" y2="183.72"/><!--link mastermind.controllers.UseCaseController to mastermind.controllers.ControllerVisitor--><path d="M1024.41,372.13 C1051.46,390.67 1081.3,411.13 1107.09,428.82 " fill="none" id="mastermind.controllers.UseCaseController-mastermind.controllers.ControllerVisitor" style="stroke: #A80036; stroke-width: 1.0; stroke-dasharray: 7.0,7.0;"/><polygon fill="#A80036" points="1111.53,431.86,1106.3797,423.4651,1107.4098,429.0274,1101.8475,430.0574,1111.53,431.86" style="stroke: #A80036; stroke-width: 1.0;"/><!--link mastermind.controllers.UseCaseController to mastermind.controllers.PlayController--><path d="M944,392.51 C944,447.88 944,522.7 944,577.77 " fill="none" id="mastermind.controllers.UseCaseController-mastermind.controllers.PlayController" style="stroke: #A80036; stroke-width: 1.0;"/><polygon fill="none" points="937,392.32,944,372.32,951,392.32,937,392.32" style="stroke: #A80036; stroke-width: 1.0;"/><!--link mastermind.controllers.PlayController to mastermind.models.ProposedCombination--><path d="M773.89,577.85 C734.06,559.27 692.14,538.7 654,518 C454.04,409.47 237.11,242.44 156.02,178.06 " fill="none" id="mastermind.controllers.PlayController-mastermind.models.ProposedCombination" style="stroke: #A80036; stroke-width: 1.0; stroke-dasharray: 7.0,7.0;"/><polygon fill="#A80036" points="151.8,174.71,156.3524,183.4436,155.7127,177.823,161.3333,177.1833,151.8,174.71" style="stroke: #A80036; stroke-width: 1.0;"/><!--link mastermind.controllers.PlayController to mastermind.models.Result--><path d="M850.67,577.81 C748.22,497.21 578.05,365.81 426,260 C385.32,231.69 371.32,230.18 332,200 C323.33,193.34 314.38,185.56 306.36,178.2 " fill="none" id="mastermind.controllers.PlayController-mastermind.models.Result" style="stroke: #A80036; stroke-width: 1.0; stroke-dasharray: 7.0,7.0;"/><polygon fill="#A80036" points="302.51,174.63,306.4145,183.6718,306.1857,178.0196,311.8379,177.7908,302.51,174.63" style="stroke: #A80036; stroke-width: 1.0;"/><!--link mastermind.controllers.UseCaseController to mastermind.controllers.ResumeController--><path d="M1108.35,345.62 C1202.59,365.6 1308.01,395.23 1338,432 C1378.69,481.89 1373.73,561.05 1365.51,609.57 " fill="none" id="mastermind.controllers.UseCaseController-mastermind.controllers.ResumeController" style="stroke: #A80036; stroke-width: 1.0;"/><polygon fill="none" points="1106.91,352.47,1088.74,341.57,1109.75,338.76,1106.91,352.47" style="stroke: #A80036; stroke-width: 1.0;"/><!--link mastermind.controllers.UseCaseController to mastermind.controllers.StartController--><path d="M1108.24,348.63 C1187.2,367.21 1281.87,394.51 1362,432 C1468.79,481.96 1578.58,567.21 1636.76,615.61 " fill="none" id="mastermind.controllers.UseCaseController-mastermind.controllers.StartController" style="stroke: #A80036; stroke-width: 1.0;"/><polygon fill="none" points="1106.45,355.4,1088.52,344.1,1109.58,341.76,1106.45,355.4" style="stroke: #A80036; stroke-width: 1.0;"/><!--
@startuml

interface mastermind.controllers.ControllerVisitor {
+ visit(StartController startController): void
+ visit(PlayController playController): void
+ visit(ResumeController resumeController): void
}

mastermind.controllers.ControllerVisitor .down.> mastermind.controllers.StartController
mastermind.controllers.ControllerVisitor .down.> mastermind.controllers.PlayController
mastermind.controllers.ControllerVisitor .down.> mastermind.controllers.ResumeController

class mastermind.controllers.Logic {
- final state: State
- final controllers: Map<StateValue, UseCaseController>
+ Logic()
+ getController(): UseCaseController
}

mastermind.controllers.Logic *-up-> mastermind.models.State
mastermind.controllers.Logic *-up-> mastermind.models.StateValue
mastermind.controllers.Logic *-down-> mastermind.controllers.UseCaseController
mastermind.controllers.Logic .down.> mastermind.models.Game

abstract class mastermind.controllers.UseCaseController {
# final game: Game
# final state: State
UseCaseController(Game game, State state)
+ next(): void
+ {abstract} accept(ControllerVisitor controllerVisitor): void
}

mastermind.controllers.UseCaseController *-up-> mastermind.models.Game
mastermind.controllers.UseCaseController *-up-> mastermind.models.State
mastermind.controllers.UseCaseController .down.> mastermind.controllers.ControllerVisitor

class mastermind.controllers.PlayController extends mastermind.controllers.UseCaseController {
+ PlayController(Game game, State state)
+ addProposedCombination(ProposedCombination proposedCombination): void
+ getAttempts(): int
+ getProposedCombination(int position): ProposedCombination
+ getResult(int position): Result
+ isWinner(): boolean
+ isLooser(): boolean
+ accept(ControllerVisitor controllerVisitor): void
}

mastermind.controllers.PlayController .up.> mastermind.controllers.ControllerVisitor
mastermind.controllers.PlayController .down.> mastermind.models.ProposedCombination
mastermind.controllers.PlayController .down.> mastermind.models.Result

class mastermind.controllers.ResumeController extends mastermind.controllers.UseCaseController {
+ ResumeController(Game game, State state)
+ resume(): void
+ accept(ControllerVisitor controllerVisitor): void
}

mastermind.controllers.ResumeController .up.> mastermind.controllers.ControllerVisitor

class mastermind.controllers.StartController extends mastermind.controllers.UseCaseController {
+StartController(Game game, State state)
+ accept(ControllerVisitor controllerVisitor): void
}

mastermind.controllers.StartController .up.> mastermind.controllers.ControllerVisitor
@enduml

PlantUML version 1.2019.05(Sat Apr 20 18:45:36 CEST 2019)
(GPL source distribution)
Java Runtime: OpenJDK Runtime Environment
JVM: OpenJDK 64-Bit Server VM
Java Version: 1.8.0_265-8u265-b01-0ubuntu2~20.04-b01
Operating System: Linux
OS Version: 5.4.0-51-generic
Default Encoding: UTF-8
Language: es
Country: ES
--></g></svg>