<?xml version="1.0" encoding="UTF-8" standalone="no"?><svg xmlns="http://www.w3.org/2000/svg" xmlns:xlink="http://www.w3.org/1999/xlink" contentScriptType="application/ecmascript" contentStyleType="text/css" height="737px" preserveAspectRatio="none" style="width:1596px;height:737px;" version="1.1" viewBox="0 0 1596 737" width="1596px" zoomAndPan="magnify"><defs><filter height="300%" id="fzq0ydcfntiyt" width="300%" x="-1" y="-1"><feGaussianBlur result="blurOut" stdDeviation="2.0"/><feColorMatrix in="blurOut" result="blurOut2" type="matrix" values="0 0 0 0 0 0 0 0 0 0 0 0 0 0 0 0 0 0 .4 0"/><feOffset dx="4.0" dy="4.0" in="blurOut2" result="blurOut3"/><feBlend in="SourceGraphic" in2="blurOut3" mode="normal"/></filter></defs><g><!--cluster mastermind.controllers.graphics--><polygon fill="#FFFFFF" filter="url(#fzq0ydcfntiyt)" points="350,185,613,185,620,207.2969,1430,207.2969,1430,602,350,602,350,185" style="stroke: #000000; stroke-width: 1.5;"/><line style="stroke: #000000; stroke-width: 1.5;" x1="350" x2="620" y1="207.2969" y2="207.2969"/><text fill="#000000" font-family="sans-serif" font-size="14" font-weight="bold" lengthAdjust="spacingAndGlyphs" textLength="257" x="354" y="199.9951">mastermind.controllers.graphics</text><!--cluster mastermind.controllers--><polygon fill="#FFFFFF" filter="url(#fzq0ydcfntiyt)" points="22,24,212,24,219,46.2969,1574,46.2969,1574,161,22,161,22,24" style="stroke: #000000; stroke-width: 1.5;"/><line style="stroke: #000000; stroke-width: 1.5;" x1="22" x2="219" y1="46.2969" y2="46.2969"/><text fill="#000000" font-family="sans-serif" font-size="14" font-weight="bold" lengthAdjust="spacingAndGlyphs" textLength="184" x="26" y="38.9951">mastermind.controllers</text><!--cluster mastermind.views.graphics--><polygon fill="#FFFFFF" filter="url(#fzq0ydcfntiyt)" points="695,626,918,626,925,648.2969,1317,648.2969,1317,725,695,725,695,626" style="stroke: #000000; stroke-width: 1.5;"/><line style="stroke: #000000; stroke-width: 1.5;" x1="695" x2="925" y1="648.2969" y2="648.2969"/><text fill="#000000" font-family="sans-serif" font-size="14" font-weight="bold" lengthAdjust="spacingAndGlyphs" textLength="217" x="699" y="640.9951">mastermind.views.graphics</text><!--class mastermind.controllers.graphics.AddProposalControllerImplementation--><a href="AddProposalControllerImplementation.html" target="_top" xlink:actuate="onRequest" xlink:show="new" xlink:title="AddProposalControllerImplementation.html" xlink:type="simple"><rect fill="#FEFECE" filter="url(#fzq0ydcfntiyt)" height="73.6094" id="mastermind.controllers.graphics.AddProposalControllerImplementation" style="stroke: #A80036; stroke-width: 1.5;" width="321" x="1075.5" y="512"/><ellipse cx="1113.9" cy="528" fill="#ADD1B2" rx="11" ry="11" style="stroke: #A80036; stroke-width: 1.0;"/><path d="M1116.8688,533.6406 Q1116.2906,533.9375 1115.65,534.0781 Q1115.0094,534.2344 1114.3063,534.2344 Q1111.8063,534.2344 1110.4781,532.5938 Q1109.1656,530.9375 1109.1656,527.8125 Q1109.1656,524.6875 1110.4781,523.0313 Q1111.8063,521.375 1114.3063,521.375 Q1115.0094,521.375 1115.65,521.5313 Q1116.3063,521.6875 1116.8688,521.9844 L1116.8688,524.7031 Q1116.2438,524.125 1115.65,523.8594 Q1115.0563,523.5781 1114.4313,523.5781 Q1113.0875,523.5781 1112.4,524.6563 Q1111.7125,525.7188 1111.7125,527.8125 Q1111.7125,529.9063 1112.4,530.9844 Q1113.0875,532.0469 1114.4313,532.0469 Q1115.0563,532.0469 1115.65,531.7813 Q1116.2438,531.5 1116.8688,530.9219 L1116.8688,533.6406 Z "/><text fill="#000000" font-family="sans-serif" font-size="12" lengthAdjust="spacingAndGlyphs" textLength="237" x="1133.1" y="532.1543">AddProposalControllerImplementation</text><line style="stroke: #A80036; stroke-width: 1.5;" x1="1076.5" x2="1395.5" y1="544" y2="544"/><line style="stroke: #A80036; stroke-width: 1.5;" x1="1076.5" x2="1395.5" y1="552" y2="552"/><ellipse cx="1086.5" cy="563.9023" fill="#84BE84" rx="3" ry="3" style="stroke: #038048; stroke-width: 1.0;"/><text fill="#000000" font-family="sans-serif" font-size="11" lengthAdjust="spacingAndGlyphs" textLength="295" x="1095.5" y="566.2104">AddProposalControllerImplementation(Game, State)</text><ellipse cx="1086.5" cy="576.707" fill="#84BE84" rx="3" ry="3" style="stroke: #038048; stroke-width: 1.0;"/><text fill="#000000" font-family="sans-serif" font-size="11" lengthAdjust="spacingAndGlyphs" textLength="104" x="1095.5" y="579.0151">createView(): View</text></a><!--class mastermind.controllers.graphics.LogicGraphics--><a href="LogicGraphics.html" target="_top" xlink:actuate="onRequest" xlink:show="new" xlink:title="LogicGraphics.html" xlink:type="simple"><rect fill="#FEFECE" filter="url(#fzq0ydcfntiyt)" height="86.4141" id="mastermind.controllers.graphics.LogicGraphics" style="stroke: #A80036; stroke-width: 1.5;" width="354" x="366" y="220"/><ellipse cx="495.25" cy="236" fill="#ADD1B2" rx="11" ry="11" style="stroke: #A80036; stroke-width: 1.0;"/><path d="M498.2188,241.6406 Q497.6406,241.9375 497,242.0781 Q496.3594,242.2344 495.6563,242.2344 Q493.1563,242.2344 491.8281,240.5938 Q490.5156,238.9375 490.5156,235.8125 Q490.5156,232.6875 491.8281,231.0313 Q493.1563,229.375 495.6563,229.375 Q496.3594,229.375 497,229.5313 Q497.6563,229.6875 498.2188,229.9844 L498.2188,232.7031 Q497.5938,232.125 497,231.8594 Q496.4063,231.5781 495.7813,231.5781 Q494.4375,231.5781 493.75,232.6563 Q493.0625,233.7188 493.0625,235.8125 Q493.0625,237.9063 493.75,238.9844 Q494.4375,240.0469 495.7813,240.0469 Q496.4063,240.0469 497,239.7813 Q497.5938,239.5 498.2188,238.9219 L498.2188,241.6406 Z "/><text fill="#000000" font-family="sans-serif" font-size="12" lengthAdjust="spacingAndGlyphs" textLength="87" x="515.75" y="240.1543">LogicGraphics</text><line style="stroke: #A80036; stroke-width: 1.5;" x1="367" x2="719" y1="252" y2="252"/><line style="stroke: #A80036; stroke-width: 1.5;" x1="367" x2="719" y1="260" y2="260"/><ellipse cx="377" cy="271.9023" fill="#84BE84" rx="3" ry="3" style="stroke: #038048; stroke-width: 1.0;"/><text fill="#000000" font-family="sans-serif" font-size="11" lengthAdjust="spacingAndGlyphs" textLength="292" x="386" y="274.2104">createStartController(Game, State): StartController</text><ellipse cx="377" cy="284.707" fill="#84BE84" rx="3" ry="3" style="stroke: #038048; stroke-width: 1.0;"/><text fill="#000000" font-family="sans-serif" font-size="11" lengthAdjust="spacingAndGlyphs" textLength="282" x="386" y="287.0151">createPlayController(Game, State): PlayController</text><ellipse cx="377" cy="297.5117" fill="#84BE84" rx="3" ry="3" style="stroke: #038048; stroke-width: 1.0;"/><text fill="#000000" font-family="sans-serif" font-size="11" lengthAdjust="spacingAndGlyphs" textLength="328" x="386" y="299.8198">createResumeController(Game, State): ResumeController</text></a><!--class mastermind.controllers.graphics.StartControllerImplementation--><a href="StartControllerImplementation.html" target="_top" xlink:actuate="onRequest" xlink:show="new" xlink:title="StartControllerImplementation.html" xlink:type="simple"><rect fill="#FEFECE" filter="url(#fzq0ydcfntiyt)" height="73.6094" id="mastermind.controllers.graphics.StartControllerImplementation" style="stroke: #A80036; stroke-width: 1.5;" width="278" x="1136" y="372"/><ellipse cx="1176.65" cy="388" fill="#ADD1B2" rx="11" ry="11" style="stroke: #A80036; stroke-width: 1.0;"/><path d="M1179.6188,393.6406 Q1179.0406,393.9375 1178.4,394.0781 Q1177.7594,394.2344 1177.0563,394.2344 Q1174.5563,394.2344 1173.2281,392.5938 Q1171.9156,390.9375 1171.9156,387.8125 Q1171.9156,384.6875 1173.2281,383.0313 Q1174.5563,381.375 1177.0563,381.375 Q1177.7594,381.375 1178.4,381.5313 Q1179.0563,381.6875 1179.6188,381.9844 L1179.6188,384.7031 Q1178.9938,384.125 1178.4,383.8594 Q1177.8063,383.5781 1177.1813,383.5781 Q1175.8375,383.5781 1175.15,384.6563 Q1174.4625,385.7188 1174.4625,387.8125 Q1174.4625,389.9063 1175.15,390.9844 Q1175.8375,392.0469 1177.1813,392.0469 Q1177.8063,392.0469 1178.4,391.7813 Q1178.9938,391.5 1179.6188,390.9219 L1179.6188,393.6406 Z "/><text fill="#000000" font-family="sans-serif" font-size="12" lengthAdjust="spacingAndGlyphs" textLength="189" x="1196.35" y="392.1543">StartControllerImplementation</text><line style="stroke: #A80036; stroke-width: 1.5;" x1="1137" x2="1413" y1="404" y2="404"/><line style="stroke: #A80036; stroke-width: 1.5;" x1="1137" x2="1413" y1="412" y2="412"/><ellipse cx="1147" cy="423.9023" fill="#84BE84" rx="3" ry="3" style="stroke: #038048; stroke-width: 1.0;"/><text fill="#000000" font-family="sans-serif" font-size="11" lengthAdjust="spacingAndGlyphs" textLength="252" x="1156" y="426.2104">StartControllerImplementation(Game, State)</text><ellipse cx="1147" cy="436.707" fill="#84BE84" rx="3" ry="3" style="stroke: #038048; stroke-width: 1.0;"/><text fill="#000000" font-family="sans-serif" font-size="11" lengthAdjust="spacingAndGlyphs" textLength="104" x="1156" y="439.0151">createView(): View</text></a><!--class mastermind.controllers.graphics.PlayControllerImplementation--><a href="PlayControllerImplementation.html" target="_top" xlink:actuate="onRequest" xlink:show="new" xlink:title="PlayControllerImplementation.html" xlink:type="simple"><rect fill="#FEFECE" filter="url(#fzq0ydcfntiyt)" height="86.4141" id="mastermind.controllers.graphics.PlayControllerImplementation" style="stroke: #A80036; stroke-width: 1.5;" width="404" x="697" y="366"/><ellipse cx="803.25" cy="382" fill="#ADD1B2" rx="11" ry="11" style="stroke: #A80036; stroke-width: 1.0;"/><path d="M806.2188,387.6406 Q805.6406,387.9375 805,388.0781 Q804.3594,388.2344 803.6563,388.2344 Q801.1563,388.2344 799.8281,386.5938 Q798.5156,384.9375 798.5156,381.8125 Q798.5156,378.6875 799.8281,377.0313 Q801.1563,375.375 803.6563,375.375 Q804.3594,375.375 805,375.5313 Q805.6563,375.6875 806.2188,375.9844 L806.2188,378.7031 Q805.5938,378.125 805,377.8594 Q804.4063,377.5781 803.7813,377.5781 Q802.4375,377.5781 801.75,378.6563 Q801.0625,379.7188 801.0625,381.8125 Q801.0625,383.9063 801.75,384.9844 Q802.4375,386.0469 803.7813,386.0469 Q804.4063,386.0469 805,385.7813 Q805.5938,385.5 806.2188,384.9219 L806.2188,387.6406 Z "/><text fill="#000000" font-family="sans-serif" font-size="12" lengthAdjust="spacingAndGlyphs" textLength="183" x="823.75" y="386.1543">PlayControllerImplementation</text><line style="stroke: #A80036; stroke-width: 1.5;" x1="698" x2="1100" y1="398" y2="398"/><line style="stroke: #A80036; stroke-width: 1.5;" x1="698" x2="1100" y1="406" y2="406"/><ellipse cx="708" cy="417.9023" fill="#84BE84" rx="3" ry="3" style="stroke: #038048; stroke-width: 1.0;"/><text fill="#000000" font-family="sans-serif" font-size="11" lengthAdjust="spacingAndGlyphs" textLength="247" x="717" y="420.2104">PlayControllerImplementation(Game, State)</text><ellipse cx="708" cy="430.707" fill="#84BE84" rx="3" ry="3" style="stroke: #038048; stroke-width: 1.0;"/><text fill="#000000" font-family="sans-serif" font-size="11" lengthAdjust="spacingAndGlyphs" textLength="104" x="717" y="433.0151">createView(): View</text><ellipse cx="708" cy="443.5117" fill="#84BE84" rx="3" ry="3" style="stroke: #038048; stroke-width: 1.0;"/><text fill="#000000" font-family="sans-serif" font-size="11" lengthAdjust="spacingAndGlyphs" textLength="378" x="717" y="445.8198">createAddProposalController(Game, State): AddProposalController</text></a><!--class mastermind.controllers.graphics.ResumeControllerImplementation--><a href="ResumeControllerImplementation.html" target="_top" xlink:actuate="onRequest" xlink:show="new" xlink:title="ResumeControllerImplementation.html" xlink:type="simple"><rect fill="#FEFECE" filter="url(#fzq0ydcfntiyt)" height="73.6094" id="mastermind.controllers.graphics.ResumeControllerImplementation" style="stroke: #A80036; stroke-width: 1.5;" width="296" x="366" y="372"/><ellipse cx="406.2" cy="388" fill="#ADD1B2" rx="11" ry="11" style="stroke: #A80036; stroke-width: 1.0;"/><path d="M409.1688,393.6406 Q408.5906,393.9375 407.95,394.0781 Q407.3094,394.2344 406.6063,394.2344 Q404.1063,394.2344 402.7781,392.5938 Q401.4656,390.9375 401.4656,387.8125 Q401.4656,384.6875 402.7781,383.0313 Q404.1063,381.375 406.6063,381.375 Q407.3094,381.375 407.95,381.5313 Q408.6063,381.6875 409.1688,381.9844 L409.1688,384.7031 Q408.5438,384.125 407.95,383.8594 Q407.3563,383.5781 406.7313,383.5781 Q405.3875,383.5781 404.7,384.6563 Q404.0125,385.7188 404.0125,387.8125 Q404.0125,389.9063 404.7,390.9844 Q405.3875,392.0469 406.7313,392.0469 Q407.3563,392.0469 407.95,391.7813 Q408.5438,391.5 409.1688,390.9219 L409.1688,393.6406 Z "/><text fill="#000000" font-family="sans-serif" font-size="12" lengthAdjust="spacingAndGlyphs" textLength="208" x="425.8" y="392.1543">ResumeControllerImplementation</text><line style="stroke: #A80036; stroke-width: 1.5;" x1="367" x2="661" y1="404" y2="404"/><line style="stroke: #A80036; stroke-width: 1.5;" x1="367" x2="661" y1="412" y2="412"/><ellipse cx="377" cy="423.9023" fill="#84BE84" rx="3" ry="3" style="stroke: #038048; stroke-width: 1.0;"/><text fill="#000000" font-family="sans-serif" font-size="11" lengthAdjust="spacingAndGlyphs" textLength="270" x="386" y="426.2104">ResumeControllerImplementation(Game, State)</text><ellipse cx="377" cy="436.707" fill="#84BE84" rx="3" ry="3" style="stroke: #038048; stroke-width: 1.0;"/><text fill="#000000" font-family="sans-serif" font-size="11" lengthAdjust="spacingAndGlyphs" textLength="104" x="386" y="439.0151">createView(): View</text></a><!--class mastermind.controllers.AddProposalController--><rect fill="#FEFECE" filter="url(#fzq0ydcfntiyt)" height="48" id="mastermind.controllers.AddProposalController" style="stroke: #A80036; stroke-width: 1.5;" width="170" x="1388" y="78"/><ellipse cx="1403" cy="94" fill="#A9DCDF" rx="11" ry="11" style="stroke: #A80036; stroke-width: 1.0;"/><path d="M1403.1094,89.3438 L1401.9531,94.4219 L1404.2813,94.4219 L1403.1094,89.3438 Z M1401.625,87.1094 L1404.6094,87.1094 L1407.9688,99.5 L1405.5156,99.5 L1404.75,96.4375 L1401.4688,96.4375 L1400.7188,99.5 L1398.2813,99.5 L1401.625,87.1094 Z "/><text fill="#000000" font-family="sans-serif" font-size="12" font-style="italic" lengthAdjust="spacingAndGlyphs" textLength="138" x="1417" y="98.1543">AddProposalController</text><line style="stroke: #A80036; stroke-width: 1.5;" x1="1389" x2="1557" y1="110" y2="110"/><line style="stroke: #A80036; stroke-width: 1.5;" x1="1389" x2="1557" y1="118" y2="118"/><!--class mastermind.controllers.Logic--><rect fill="#FEFECE" filter="url(#fzq0ydcfntiyt)" height="86.4141" id="mastermind.controllers.Logic" style="stroke: #A80036; stroke-width: 1.5;" width="353" x="38.5" y="59"/><ellipse cx="194.25" cy="75" fill="#A9DCDF" rx="11" ry="11" style="stroke: #A80036; stroke-width: 1.0;"/><path d="M194.3594,70.3438 L193.2031,75.4219 L195.5313,75.4219 L194.3594,70.3438 Z M192.875,68.1094 L195.8594,68.1094 L199.2188,80.5 L196.7656,80.5 L196,77.4375 L192.7188,77.4375 L191.9688,80.5 L189.5313,80.5 L192.875,68.1094 Z "/><text fill="#000000" font-family="sans-serif" font-size="12" font-style="italic" lengthAdjust="spacingAndGlyphs" textLength="33" x="214.75" y="79.1543">Logic</text><line style="stroke: #A80036; stroke-width: 1.5;" x1="39.5" x2="390.5" y1="91" y2="91"/><line style="stroke: #A80036; stroke-width: 1.5;" x1="39.5" x2="390.5" y1="99" y2="99"/><ellipse cx="49.5" cy="110.9023" fill="#84BE84" rx="3" ry="3" style="stroke: #038048; stroke-width: 1.0;"/><text fill="#000000" font-family="sans-serif" font-size="11" font-style="italic" lengthAdjust="spacingAndGlyphs" textLength="289" x="58.5" y="113.2104">createStartController(Game, State): StartController</text><ellipse cx="49.5" cy="123.707" fill="#84BE84" rx="3" ry="3" style="stroke: #038048; stroke-width: 1.0;"/><text fill="#000000" font-family="sans-serif" font-size="11" font-style="italic" lengthAdjust="spacingAndGlyphs" textLength="283" x="58.5" y="126.0151">createPlayController(Game, State): PlayController</text><ellipse cx="49.5" cy="136.5117" fill="#84BE84" rx="3" ry="3" style="stroke: #038048; stroke-width: 1.0;"/><text fill="#000000" font-family="sans-serif" font-size="11" font-style="italic" lengthAdjust="spacingAndGlyphs" textLength="327" x="58.5" y="138.8198">createResumeController(Game, State): ResumeController</text><!--class mastermind.controllers.PlayController--><rect fill="#FEFECE" filter="url(#fzq0ydcfntiyt)" height="60.8047" id="mastermind.controllers.PlayController" style="stroke: #A80036; stroke-width: 1.5;" width="591" x="603.5" y="71.5"/><ellipse cx="851.75" cy="87.5" fill="#A9DCDF" rx="11" ry="11" style="stroke: #A80036; stroke-width: 1.0;"/><path d="M851.8594,82.8438 L850.7031,87.9219 L853.0313,87.9219 L851.8594,82.8438 Z M850.375,80.6094 L853.3594,80.6094 L856.7188,93 L854.2656,93 L853.5,89.9375 L850.2188,89.9375 L849.4688,93 L847.0313,93 L850.375,80.6094 Z "/><text fill="#000000" font-family="sans-serif" font-size="12" font-style="italic" lengthAdjust="spacingAndGlyphs" textLength="86" x="872.25" y="91.6543">PlayController</text><line style="stroke: #A80036; stroke-width: 1.5;" x1="604.5" x2="1193.5" y1="103.5" y2="103.5"/><line style="stroke: #A80036; stroke-width: 1.5;" x1="604.5" x2="1193.5" y1="111.5" y2="111.5"/><ellipse cx="614.5" cy="123.4023" fill="#84BE84" rx="3" ry="3" style="stroke: #038048; stroke-width: 1.0;"/><text fill="#000000" font-family="sans-serif" font-size="11" font-style="italic" lengthAdjust="spacingAndGlyphs" textLength="565" x="623.5" y="125.7104">createAddProposalController(Game, State): mastermind.controllers.graphics.AddProposalController</text><!--class mastermind.controllers.ResumeController--><rect fill="#FEFECE" filter="url(#fzq0ydcfntiyt)" height="48" id="mastermind.controllers.ResumeController" style="stroke: #A80036; stroke-width: 1.5;" width="142" x="427" y="78"/><ellipse cx="442" cy="94" fill="#A9DCDF" rx="11" ry="11" style="stroke: #A80036; stroke-width: 1.0;"/><path d="M442.1094,89.3438 L440.9531,94.4219 L443.2813,94.4219 L442.1094,89.3438 Z M440.625,87.1094 L443.6094,87.1094 L446.9688,99.5 L444.5156,99.5 L443.75,96.4375 L440.4688,96.4375 L439.7188,99.5 L437.2813,99.5 L440.625,87.1094 Z "/><text fill="#000000" font-family="sans-serif" font-size="12" font-style="italic" lengthAdjust="spacingAndGlyphs" textLength="110" x="456" y="98.1543">ResumeController</text><line style="stroke: #A80036; stroke-width: 1.5;" x1="428" x2="568" y1="110" y2="110"/><line style="stroke: #A80036; stroke-width: 1.5;" x1="428" x2="568" y1="118" y2="118"/><!--class mastermind.controllers.StartController--><rect fill="#FEFECE" filter="url(#fzq0ydcfntiyt)" height="48" id="mastermind.controllers.StartController" style="stroke: #A80036; stroke-width: 1.5;" width="124" x="1229" y="78"/><ellipse cx="1244" cy="94" fill="#A9DCDF" rx="11" ry="11" style="stroke: #A80036; stroke-width: 1.0;"/><path d="M1244.1094,89.3438 L1242.9531,94.4219 L1245.2813,94.4219 L1244.1094,89.3438 Z M1242.625,87.1094 L1245.6094,87.1094 L1248.9688,99.5 L1246.5156,99.5 L1245.75,96.4375 L1242.4688,96.4375 L1241.7188,99.5 L1239.2813,99.5 L1242.625,87.1094 Z "/><text fill="#000000" font-family="sans-serif" font-size="12" font-style="italic" lengthAdjust="spacingAndGlyphs" textLength="92" x="1258" y="98.1543">StartController</text><line style="stroke: #A80036; stroke-width: 1.5;" x1="1230" x2="1352" y1="110" y2="110"/><line style="stroke: #A80036; stroke-width: 1.5;" x1="1230" x2="1352" y1="118" y2="118"/><!--class mastermind.views.graphics.ProposedCombinationView--><rect fill="#FEFECE" filter="url(#fzq0ydcfntiyt)" height="48" id="mastermind.views.graphics.ProposedCombinationView" style="stroke: #A80036; stroke-width: 1.5;" width="198" x="1103" y="661"/><ellipse cx="1118" cy="677" fill="#ADD1B2" rx="11" ry="11" style="stroke: #A80036; stroke-width: 1.0;"/><path d="M1120.9688,682.6406 Q1120.3906,682.9375 1119.75,683.0781 Q1119.1094,683.2344 1118.4063,683.2344 Q1115.9063,683.2344 1114.5781,681.5938 Q1113.2656,679.9375 1113.2656,676.8125 Q1113.2656,673.6875 1114.5781,672.0313 Q1115.9063,670.375 1118.4063,670.375 Q1119.1094,670.375 1119.75,670.5313 Q1120.4063,670.6875 1120.9688,670.9844 L1120.9688,673.7031 Q1120.3438,673.125 1119.75,672.8594 Q1119.1563,672.5781 1118.5313,672.5781 Q1117.1875,672.5781 1116.5,673.6563 Q1115.8125,674.7188 1115.8125,676.8125 Q1115.8125,678.9063 1116.5,679.9844 Q1117.1875,681.0469 1118.5313,681.0469 Q1119.1563,681.0469 1119.75,680.7813 Q1120.3438,680.5 1120.9688,679.9219 L1120.9688,682.6406 Z "/><text fill="#000000" font-family="sans-serif" font-size="12" lengthAdjust="spacingAndGlyphs" textLength="166" x="1132" y="681.1543">ProposedCombinationView</text><line style="stroke: #A80036; stroke-width: 1.5;" x1="1104" x2="1300" y1="693" y2="693"/><line style="stroke: #A80036; stroke-width: 1.5;" x1="1104" x2="1300" y1="701" y2="701"/><!--class mastermind.views.graphics.PlayView--><rect fill="#FEFECE" filter="url(#fzq0ydcfntiyt)" height="48" id="mastermind.views.graphics.PlayView" style="stroke: #A80036; stroke-width: 1.5;" width="85" x="856.5" y="661"/><ellipse cx="871.5" cy="677" fill="#ADD1B2" rx="11" ry="11" style="stroke: #A80036; stroke-width: 1.0;"/><path d="M874.4688,682.6406 Q873.8906,682.9375 873.25,683.0781 Q872.6094,683.2344 871.9063,683.2344 Q869.4063,683.2344 868.0781,681.5938 Q866.7656,679.9375 866.7656,676.8125 Q866.7656,673.6875 868.0781,672.0313 Q869.4063,670.375 871.9063,670.375 Q872.6094,670.375 873.25,670.5313 Q873.9063,670.6875 874.4688,670.9844 L874.4688,673.7031 Q873.8438,673.125 873.25,672.8594 Q872.6563,672.5781 872.0313,672.5781 Q870.6875,672.5781 870,673.6563 Q869.3125,674.7188 869.3125,676.8125 Q869.3125,678.9063 870,679.9844 Q870.6875,681.0469 872.0313,681.0469 Q872.6563,681.0469 873.25,680.7813 Q873.8438,680.5 874.4688,679.9219 L874.4688,682.6406 Z "/><text fill="#000000" font-family="sans-serif" font-size="12" lengthAdjust="spacingAndGlyphs" textLength="53" x="885.5" y="681.1543">PlayView</text><line style="stroke: #A80036; stroke-width: 1.5;" x1="857.5" x2="940.5" y1="693" y2="693"/><line style="stroke: #A80036; stroke-width: 1.5;" x1="857.5" x2="940.5" y1="701" y2="701"/><!--class mastermind.views.graphics.ResumeView--><rect fill="#FEFECE" filter="url(#fzq0ydcfntiyt)" height="48" id="mastermind.views.graphics.ResumeView" style="stroke: #A80036; stroke-width: 1.5;" width="110" x="711" y="661"/><ellipse cx="726" cy="677" fill="#ADD1B2" rx="11" ry="11" style="stroke: #A80036; stroke-width: 1.0;"/><path d="M728.9688,682.6406 Q728.3906,682.9375 727.75,683.0781 Q727.1094,683.2344 726.4063,683.2344 Q723.9063,683.2344 722.5781,681.5938 Q721.2656,679.9375 721.2656,676.8125 Q721.2656,673.6875 722.5781,672.0313 Q723.9063,670.375 726.4063,670.375 Q727.1094,670.375 727.75,670.5313 Q728.4063,670.6875 728.9688,670.9844 L728.9688,673.7031 Q728.3438,673.125 727.75,672.8594 Q727.1563,672.5781 726.5313,672.5781 Q725.1875,672.5781 724.5,673.6563 Q723.8125,674.7188 723.8125,676.8125 Q723.8125,678.9063 724.5,679.9844 Q725.1875,681.0469 726.5313,681.0469 Q727.1563,681.0469 727.75,680.7813 Q728.3438,680.5 728.9688,679.9219 L728.9688,682.6406 Z "/><text fill="#000000" font-family="sans-serif" font-size="12" lengthAdjust="spacingAndGlyphs" textLength="78" x="740" y="681.1543">ResumeView</text><line style="stroke: #A80036; stroke-width: 1.5;" x1="712" x2="820" y1="693" y2="693"/><line style="stroke: #A80036; stroke-width: 1.5;" x1="712" x2="820" y1="701" y2="701"/><!--class mastermind.views.graphics.StartView--><rect fill="#FEFECE" filter="url(#fzq0ydcfntiyt)" height="48" id="mastermind.views.graphics.StartView" style="stroke: #A80036; stroke-width: 1.5;" width="91" x="976.5" y="661"/><ellipse cx="991.5" cy="677" fill="#ADD1B2" rx="11" ry="11" style="stroke: #A80036; stroke-width: 1.0;"/><path d="M994.4688,682.6406 Q993.8906,682.9375 993.25,683.0781 Q992.6094,683.2344 991.9063,683.2344 Q989.4063,683.2344 988.0781,681.5938 Q986.7656,679.9375 986.7656,676.8125 Q986.7656,673.6875 988.0781,672.0313 Q989.4063,670.375 991.9063,670.375 Q992.6094,670.375 993.25,670.5313 Q993.9063,670.6875 994.4688,670.9844 L994.4688,673.7031 Q993.8438,673.125 993.25,672.8594 Q992.6563,672.5781 992.0313,672.5781 Q990.6875,672.5781 990,673.6563 Q989.3125,674.7188 989.3125,676.8125 Q989.3125,678.9063 990,679.9844 Q990.6875,681.0469 992.0313,681.0469 Q992.6563,681.0469 993.25,680.7813 Q993.8438,680.5 994.4688,679.9219 L994.4688,682.6406 Z "/><text fill="#000000" font-family="sans-serif" font-size="12" lengthAdjust="spacingAndGlyphs" textLength="59" x="1005.5" y="681.1543">StartView</text><line style="stroke: #A80036; stroke-width: 1.5;" x1="977.5" x2="1066.5" y1="693" y2="693"/><line style="stroke: #A80036; stroke-width: 1.5;" x1="977.5" x2="1066.5" y1="701" y2="701"/><!--link mastermind.controllers.AddProposalController to mastermind.controllers.graphics.AddProposalControllerImplementation--><path d="M1480.15,145.91 C1489.48,216.68 1497.68,359.25 1432,452 C1413.39,478.28 1385.53,497.7 1356.61,511.91 " fill="none" id="mastermind.controllers.AddProposalController-mastermind.controllers.graphics.AddProposalControllerImplementation" style="stroke: #A80036; stroke-width: 1.0;"/><polygon fill="none" points="1473.2,146.8,1477.23,126,1487.05,144.78,1473.2,146.8" style="stroke: #A80036; stroke-width: 1.0;"/><!--link mastermind.controllers.graphics.AddProposalControllerImplementation to mastermind.views.graphics.ProposedCombinationView--><path d="M1226.8,586.26 C1221.25,608.13 1214.29,635.57 1209.15,655.8 " fill="none" id="mastermind.controllers.graphics.AddProposalControllerImplementation-mastermind.views.graphics.ProposedCombinationView" style="stroke: #A80036; stroke-width: 1.0; stroke-dasharray: 7.0,7.0;"/><polygon fill="#A80036" points="1207.89,660.78,1213.9748,653.0357,1209.1161,655.9327,1206.2191,651.0739,1207.89,660.78" style="stroke: #A80036; stroke-width: 1.0;"/><!--link mastermind.controllers.Logic to mastermind.controllers.graphics.LogicGraphics--><path d="M320.09,153.94 C363.98,175.22 414.37,199.65 456.13,219.89 " fill="none" id="mastermind.controllers.Logic-mastermind.controllers.graphics.LogicGraphics" style="stroke: #A80036; stroke-width: 1.0;"/><polygon fill="none" points="316.98,160.21,302.04,145.19,323.09,147.62,316.98,160.21" style="stroke: #A80036; stroke-width: 1.0;"/><!--link mastermind.controllers.graphics.LogicGraphics to mastermind.controllers.graphics.StartControllerImplementation--><path d="M720.26,291.26 C834.58,309.86 986.17,336.42 1119,366 C1125.65,367.48 1132.45,369.06 1139.3,370.71 " fill="none" id="mastermind.controllers.graphics.LogicGraphics-mastermind.controllers.graphics.StartControllerImplementation" style="stroke: #A80036; stroke-width: 1.0;"/><polygon fill="#A80036" points="1144.55,371.98,1136.7387,365.9814,1139.6894,370.8077,1134.863,373.7584,1144.55,371.98" style="stroke: #A80036; stroke-width: 1.0;"/><!--link mastermind.controllers.graphics.LogicGraphics to mastermind.controllers.graphics.PlayControllerImplementation--><path d="M646.93,306.04 C691.97,324.26 744.71,345.59 790.28,364.02 " fill="none" id="mastermind.controllers.graphics.LogicGraphics-mastermind.controllers.graphics.PlayControllerImplementation" style="stroke: #A80036; stroke-width: 1.0;"/><polygon fill="#A80036" points="794.94,365.91,788.088,358.8354,790.3026,364.0408,785.0972,366.2553,794.94,365.91" style="stroke: #A80036; stroke-width: 1.0;"/><!--link mastermind.controllers.graphics.LogicGraphics to mastermind.controllers.graphics.ResumeControllerImplementation--><path d="M534.53,306.04 C530.71,325.01 526.21,347.36 522.4,366.29 " fill="none" id="mastermind.controllers.graphics.LogicGraphics-mastermind.controllers.graphics.ResumeControllerImplementation" style="stroke: #A80036; stroke-width: 1.0;"/><polygon fill="#A80036" points="521.34,371.53,527.0364,363.4956,522.3261,366.6282,519.1935,361.9179,521.34,371.53" style="stroke: #A80036; stroke-width: 1.0;"/><!--link mastermind.controllers.PlayController to mastermind.controllers.graphics.PlayControllerImplementation--><path d="M899,152.84 C899,212.17 899,310.2 899,365.89 " fill="none" id="mastermind.controllers.PlayController-mastermind.controllers.graphics.PlayControllerImplementation" style="stroke: #A80036; stroke-width: 1.0;"/><polygon fill="none" points="892,152.52,899,132.52,906,152.52,892,152.52" style="stroke: #A80036; stroke-width: 1.0;"/><!--link mastermind.controllers.graphics.PlayControllerImplementation to mastermind.views.graphics.PlayView--><path d="M899,452.21 C899,508.7 899,607.35 899,655.68 " fill="none" id="mastermind.controllers.graphics.PlayControllerImplementation-mastermind.views.graphics.PlayView" style="stroke: #A80036; stroke-width: 1.0; stroke-dasharray: 7.0,7.0;"/><polygon fill="#A80036" points="899,660.76,903,651.76,899,655.76,895,651.76,899,660.76" style="stroke: #A80036; stroke-width: 1.0;"/><!--link mastermind.controllers.graphics.PlayControllerImplementation to mastermind.controllers.graphics.AddProposalControllerImplementation--><path d="M1001.94,452.15 C1046.95,470.59 1099.35,492.04 1143.15,509.98 " fill="none" id="mastermind.controllers.graphics.PlayControllerImplementation-mastermind.controllers.graphics.AddProposalControllerImplementation" style="stroke: #A80036; stroke-width: 1.0; stroke-dasharray: 7.0,7.0;"/><polygon fill="#A80036" points="1147.9,511.93,1141.0932,504.8119,1143.2745,510.0313,1138.0552,512.2127,1147.9,511.93" style="stroke: #A80036; stroke-width: 1.0;"/><!--link mastermind.controllers.ResumeController to mastermind.controllers.graphics.ResumeControllerImplementation--><path d="M536.25,139.43 C550.73,151.01 568.07,162.49 586,169 C601.79,174.73 725.44,164.81 737,177 C776.45,218.6 767.98,257.76 737,306 C717.9,335.73 687.75,356.91 655.72,371.95 " fill="none" id="mastermind.controllers.ResumeController-mastermind.controllers.graphics.ResumeControllerImplementation" style="stroke: #A80036; stroke-width: 1.0;"/><polygon fill="none" points="531.32,144.42,520.71,126.08,540.44,133.8,531.32,144.42" style="stroke: #A80036; stroke-width: 1.0;"/><!--link mastermind.controllers.graphics.ResumeControllerImplementation to mastermind.views.graphics.ResumeView--><path d="M547.2,446.1 C598.39,501.76 695.44,607.28 741.09,656.91 " fill="none" id="mastermind.controllers.graphics.ResumeControllerImplementation-mastermind.views.graphics.ResumeView" style="stroke: #A80036; stroke-width: 1.0; stroke-dasharray: 7.0,7.0;"/><polygon fill="#A80036" points="744.55,660.68,741.3892,651.3521,741.1604,657.0043,735.5082,656.7755,744.55,660.68" style="stroke: #A80036; stroke-width: 1.0;"/><!--link mastermind.controllers.StartController to mastermind.controllers.graphics.StartControllerImplementation--><path d="M1288.72,146.48 C1285.54,207.05 1279.84,315.71 1276.89,372 " fill="none" id="mastermind.controllers.StartController-mastermind.controllers.graphics.StartControllerImplementation" style="stroke: #A80036; stroke-width: 1.0;"/><polygon fill="none" points="1281.75,145.78,1289.78,126.17,1295.73,146.51,1281.75,145.78" style="stroke: #A80036; stroke-width: 1.0;"/><!--link mastermind.controllers.graphics.StartControllerImplementation to mastermind.views.graphics.StartView--><path d="M1148.63,446.1 C1114.76,461.39 1081.17,482.69 1058,512 C1024.91,553.86 1020.23,618.81 1020.59,655.75 " fill="none" id="mastermind.controllers.graphics.StartControllerImplementation-mastermind.views.graphics.StartView" style="stroke: #A80036; stroke-width: 1.0; stroke-dasharray: 7.0,7.0;"/><polygon fill="#A80036" points="1020.67,661,1024.5151,651.9328,1020.5843,656.0007,1016.5163,652.0699,1020.67,661" style="stroke: #A80036; stroke-width: 1.0;"/><!--
@startuml
class mastermind.controllers.graphics.AddProposalControllerImplementation [[AddProposalControllerImplementation.html]] {
    +AddProposalControllerImplementation(Game, State)
    +createView(): View
}

abstract class mastermind.controllers.AddProposalController
mastermind.controllers.AddProposalController <|- - mastermind.controllers.graphics.AddProposalControllerImplementation
mastermind.controllers.graphics.AddProposalControllerImplementation ..> mastermind.views.graphics.ProposedCombinationView


class mastermind.controllers.graphics.LogicGraphics [[LogicGraphics.html]] {
    +createStartController(Game, State): StartController
    +createPlayController(Game, State): PlayController
    +createResumeController(Game, State): ResumeController
}

abstract class mastermind.controllers.Logic {
    {abstract} +createStartController(Game, State): StartController
    {abstract} +createPlayController(Game, State): PlayController
    {abstract} +createResumeController(Game, State): ResumeController
}

mastermind.controllers.Logic <|- - mastermind.controllers.graphics.LogicGraphics
mastermind.controllers.graphics.LogicGraphics - -> mastermind.controllers.graphics.StartControllerImplementation
mastermind.controllers.graphics.LogicGraphics - -> mastermind.controllers.graphics.PlayControllerImplementation
mastermind.controllers.graphics.LogicGraphics - -> mastermind.controllers.graphics.ResumeControllerImplementation


class mastermind.controllers.graphics.PlayControllerImplementation [[PlayControllerImplementation.html]] {
    +PlayControllerImplementation(Game, State)
    +createView(): View
    +createAddProposalController(Game, State): AddProposalController
}

mastermind.controllers.PlayController <|- - mastermind.controllers.graphics.PlayControllerImplementation
mastermind.controllers.graphics.PlayControllerImplementation ..> mastermind.views.graphics.PlayView
mastermind.controllers.graphics.PlayControllerImplementation ..> mastermind.controllers.graphics.AddProposalControllerImplementation

class mastermind.controllers.graphics.ResumeControllerImplementation [[ResumeControllerImplementation.html]] {
    +ResumeControllerImplementation(Game, State)
    +createView(): View
}

abstract class mastermind.controllers.ResumeController
mastermind.controllers.ResumeController <|- - mastermind.controllers.graphics.ResumeControllerImplementation
mastermind.controllers.graphics.ResumeControllerImplementation ..> mastermind.views.graphics.ResumeView

class mastermind.controllers.graphics.StartControllerImplementation [[StartControllerImplementation.html]] {
    +StartControllerImplementation(Game, State)
    +createView(): View
}

abstract mastermind.controllers.StartController
mastermind.controllers.StartController <|- - mastermind.controllers.graphics.StartControllerImplementation
mastermind.controllers.graphics.StartControllerImplementation ..> mastermind.views.graphics.StartView

abstract class mastermind.controllers.PlayController {
    {abstract} +createAddProposalController(Game, State): mastermind.controllers.graphics.AddProposalController
}

@enduml

PlantUML version 1.2019.05(Sat Apr 20 18:45:36 CEST 2019)
(GPL source distribution)
Java Runtime: OpenJDK Runtime Environment
JVM: OpenJDK 64-Bit Server VM
Java Version: 1.8.0_265-8u265-b01-0ubuntu2~20.04-b01
Operating System: Linux
OS Version: 5.4.0-52-generic
Default Encoding: UTF-8
Language: es
Country: ES
--></g></svg>