<?xml version="1.0" encoding="UTF-8" standalone="no"?><svg xmlns="http://www.w3.org/2000/svg" xmlns:xlink="http://www.w3.org/1999/xlink" contentScriptType="application/ecmascript" contentStyleType="text/css" height="843px" preserveAspectRatio="none" style="width:2163px;height:843px;" version="1.1" viewBox="0 0 2163 843" width="2163px" zoomAndPan="magnify"><defs><filter height="300%" id="f1g4g6dk0sep0p" width="300%" x="-1" y="-1"><feGaussianBlur result="blurOut" stdDeviation="2.0"/><feColorMatrix in="blurOut" result="blurOut2" type="matrix" values="0 0 0 0 0 0 0 0 0 0 0 0 0 0 0 0 0 0 .4 0"/><feOffset dx="4.0" dy="4.0" in="blurOut2" result="blurOut3"/><feBlend in="SourceGraphic" in2="blurOut3" mode="normal"/></filter></defs><g><!--cluster mastermind.controllers--><polygon fill="#FFFFFF" filter="url(#f1g4g6dk0sep0p)" points="22,24,212,24,219,46.2969,1555,46.2969,1555,831,22,831,22,24" style="stroke: #000000; stroke-width: 1.5;"/><line style="stroke: #000000; stroke-width: 1.5;" x1="22" x2="219" y1="46.2969" y2="46.2969"/><text fill="#000000" font-family="sans-serif" font-size="14" font-weight="bold" lengthAdjust="spacingAndGlyphs" textLength="184" x="26" y="38.9951">mastermind.controllers</text><!--cluster mastermind.models--><polygon fill="#FFFFFF" filter="url(#f1g4g6dk0sep0p)" points="1579,636,1740,636,1747,658.2969,2141,658.2969,2141,735,1579,735,1579,636" style="stroke: #000000; stroke-width: 1.5;"/><line style="stroke: #000000; stroke-width: 1.5;" x1="1579" x2="1747" y1="658.2969" y2="658.2969"/><text fill="#000000" font-family="sans-serif" font-size="14" font-weight="bold" lengthAdjust="spacingAndGlyphs" textLength="155" x="1583" y="650.9951">mastermind.models</text><!--class mastermind.controllers.ControllerVisitor--><rect fill="#FEFECE" filter="url(#f1g4g6dk0sep0p)" height="86.4141" id="mastermind.controllers.ControllerVisitor" style="stroke: #A80036; stroke-width: 1.5;" width="294" x="149" y="403"/><ellipse cx="242.25" cy="419" fill="#B4A7E5" rx="11" ry="11" style="stroke: #A80036; stroke-width: 1.0;"/><path d="M238.1719,414.7656 L238.1719,412.6094 L245.5625,412.6094 L245.5625,414.7656 L243.0938,414.7656 L243.0938,422.8438 L245.5625,422.8438 L245.5625,425 L238.1719,425 L238.1719,422.8438 L240.6406,422.8438 L240.6406,414.7656 L238.1719,414.7656 Z "/><text fill="#000000" font-family="sans-serif" font-size="12" font-style="italic" lengthAdjust="spacingAndGlyphs" textLength="99" x="262.75" y="423.1543">ControllerVisitor</text><line style="stroke: #A80036; stroke-width: 1.5;" x1="150" x2="442" y1="435" y2="435"/><line style="stroke: #A80036; stroke-width: 1.5;" x1="150" x2="442" y1="443" y2="443"/><ellipse cx="160" cy="454.9023" fill="#84BE84" rx="3" ry="3" style="stroke: #038048; stroke-width: 1.0;"/><text fill="#000000" font-family="sans-serif" font-size="11" lengthAdjust="spacingAndGlyphs" textLength="233" x="169" y="457.2104">visit(StartController startController): void</text><ellipse cx="160" cy="467.707" fill="#84BE84" rx="3" ry="3" style="stroke: #038048; stroke-width: 1.0;"/><text fill="#000000" font-family="sans-serif" font-size="11" lengthAdjust="spacingAndGlyphs" textLength="224" x="169" y="470.0151">visit(PlayController playController): void</text><ellipse cx="160" cy="480.5117" fill="#84BE84" rx="3" ry="3" style="stroke: #038048; stroke-width: 1.0;"/><text fill="#000000" font-family="sans-serif" font-size="11" lengthAdjust="spacingAndGlyphs" textLength="268" x="169" y="482.8198">visit(ResumeController resumeController): void</text><!--class mastermind.controllers.StartController--><rect fill="#FEFECE" filter="url(#f1g4g6dk0sep0p)" height="73.6094" id="mastermind.controllers.StartController" style="stroke: #A80036; stroke-width: 1.5;" width="288" x="38" y="658"/><ellipse cx="131.75" cy="674" fill="#ADD1B2" rx="11" ry="11" style="stroke: #A80036; stroke-width: 1.0;"/><path d="M134.7188,679.6406 Q134.1406,679.9375 133.5,680.0781 Q132.8594,680.2344 132.1563,680.2344 Q129.6563,680.2344 128.3281,678.5938 Q127.0156,676.9375 127.0156,673.8125 Q127.0156,670.6875 128.3281,669.0313 Q129.6563,667.375 132.1563,667.375 Q132.8594,667.375 133.5,667.5313 Q134.1563,667.6875 134.7188,667.9844 L134.7188,670.7031 Q134.0938,670.125 133.5,669.8594 Q132.9063,669.5781 132.2813,669.5781 Q130.9375,669.5781 130.25,670.6563 Q129.5625,671.7188 129.5625,673.8125 Q129.5625,675.9063 130.25,676.9844 Q130.9375,678.0469 132.2813,678.0469 Q132.9063,678.0469 133.5,677.7813 Q134.0938,677.5 134.7188,676.9219 L134.7188,679.6406 Z "/><text fill="#000000" font-family="sans-serif" font-size="12" lengthAdjust="spacingAndGlyphs" textLength="92" x="152.25" y="678.1543">StartController</text><line style="stroke: #A80036; stroke-width: 1.5;" x1="39" x2="325" y1="690" y2="690"/><line style="stroke: #A80036; stroke-width: 1.5;" x1="39" x2="325" y1="698" y2="698"/><ellipse cx="49" cy="709.9023" fill="#84BE84" rx="3" ry="3" style="stroke: #038048; stroke-width: 1.0;"/><text fill="#000000" font-family="sans-serif" font-size="11" lengthAdjust="spacingAndGlyphs" textLength="187" x="58" y="712.2104">StartController(Session session)</text><ellipse cx="49" cy="722.707" fill="#84BE84" rx="3" ry="3" style="stroke: #038048; stroke-width: 1.0;"/><text fill="#000000" font-family="sans-serif" font-size="11" lengthAdjust="spacingAndGlyphs" textLength="262" x="58" y="725.0151">accept(ControllerVisitor controllerVisitor): void</text><!--class mastermind.controllers.PlayController--><rect fill="#FEFECE" filter="url(#f1g4g6dk0sep0p)" height="240.0703" id="mastermind.controllers.PlayController" style="stroke: #A80036; stroke-width: 1.5;" width="465" x="361.5" y="575"/><ellipse cx="546.75" cy="591" fill="#ADD1B2" rx="11" ry="11" style="stroke: #A80036; stroke-width: 1.0;"/><path d="M549.7188,596.6406 Q549.1406,596.9375 548.5,597.0781 Q547.8594,597.2344 547.1563,597.2344 Q544.6563,597.2344 543.3281,595.5938 Q542.0156,593.9375 542.0156,590.8125 Q542.0156,587.6875 543.3281,586.0313 Q544.6563,584.375 547.1563,584.375 Q547.8594,584.375 548.5,584.5313 Q549.1563,584.6875 549.7188,584.9844 L549.7188,587.7031 Q549.0938,587.125 548.5,586.8594 Q547.9063,586.5781 547.2813,586.5781 Q545.9375,586.5781 545.25,587.6563 Q544.5625,588.7188 544.5625,590.8125 Q544.5625,592.9063 545.25,593.9844 Q545.9375,595.0469 547.2813,595.0469 Q547.9063,595.0469 548.5,594.7813 Q549.0938,594.5 549.7188,593.9219 L549.7188,596.6406 Z "/><text fill="#000000" font-family="sans-serif" font-size="12" lengthAdjust="spacingAndGlyphs" textLength="86" x="567.25" y="595.1543">PlayController</text><line style="stroke: #A80036; stroke-width: 1.5;" x1="362.5" x2="825.5" y1="607" y2="607"/><rect fill="none" height="6" style="stroke: #C82930; stroke-width: 1.0;" width="6" x="369.5" y="615.9023"/><text fill="#000000" font-family="sans-serif" font-size="11" lengthAdjust="spacingAndGlyphs" textLength="248" x="381.5" y="621.2104">final proposalController: ProposalController</text><rect fill="none" height="6" style="stroke: #C82930; stroke-width: 1.0;" width="6" x="369.5" y="628.707"/><text fill="#000000" font-family="sans-serif" font-size="11" lengthAdjust="spacingAndGlyphs" textLength="205" x="381.5" y="634.0151">final undoController: UndoController</text><rect fill="none" height="6" style="stroke: #C82930; stroke-width: 1.0;" width="6" x="369.5" y="641.5117"/><text fill="#000000" font-family="sans-serif" font-size="11" lengthAdjust="spacingAndGlyphs" textLength="202" x="381.5" y="646.8198">final redoController: RedoController</text><line style="stroke: #A80036; stroke-width: 1.5;" x1="362.5" x2="825.5" y1="653.4141" y2="653.4141"/><ellipse cx="372.5" cy="665.3164" fill="#84BE84" rx="3" ry="3" style="stroke: #038048; stroke-width: 1.0;"/><text fill="#000000" font-family="sans-serif" font-size="11" lengthAdjust="spacingAndGlyphs" textLength="133" x="381.5" y="667.6245">PlayController(Session)</text><ellipse cx="372.5" cy="678.1211" fill="#84BE84" rx="3" ry="3" style="stroke: #038048; stroke-width: 1.0;"/><text fill="#000000" font-family="sans-serif" font-size="11" lengthAdjust="spacingAndGlyphs" textLength="439" x="381.5" y="680.4292">addProposedCombination(ProposedCombination proposedCombination): void</text><ellipse cx="372.5" cy="690.9258" fill="#84BE84" rx="3" ry="3" style="stroke: #038048; stroke-width: 1.0;"/><text fill="#000000" font-family="sans-serif" font-size="11" lengthAdjust="spacingAndGlyphs" textLength="99" x="381.5" y="693.2339">getAttempts(): int</text><ellipse cx="372.5" cy="703.7305" fill="#84BE84" rx="3" ry="3" style="stroke: #038048; stroke-width: 1.0;"/><text fill="#000000" font-family="sans-serif" font-size="11" lengthAdjust="spacingAndGlyphs" textLength="347" x="381.5" y="706.0386">getProposedCombination(int position): ProposedCombination</text><ellipse cx="372.5" cy="716.5352" fill="#84BE84" rx="3" ry="3" style="stroke: #038048; stroke-width: 1.0;"/><text fill="#000000" font-family="sans-serif" font-size="11" lengthAdjust="spacingAndGlyphs" textLength="167" x="381.5" y="718.8433">getResult(int position): Result</text><ellipse cx="372.5" cy="729.3398" fill="#84BE84" rx="3" ry="3" style="stroke: #038048; stroke-width: 1.0;"/><text fill="#000000" font-family="sans-serif" font-size="11" lengthAdjust="spacingAndGlyphs" textLength="109" x="381.5" y="731.6479">isWinner(): boolean</text><ellipse cx="372.5" cy="742.1445" fill="#84BE84" rx="3" ry="3" style="stroke: #038048; stroke-width: 1.0;"/><text fill="#000000" font-family="sans-serif" font-size="11" lengthAdjust="spacingAndGlyphs" textLength="110" x="381.5" y="744.4526">isLooser(): boolean</text><ellipse cx="372.5" cy="754.9492" fill="#84BE84" rx="3" ry="3" style="stroke: #038048; stroke-width: 1.0;"/><text fill="#000000" font-family="sans-serif" font-size="11" lengthAdjust="spacingAndGlyphs" textLength="67" x="381.5" y="757.2573">undo(): void</text><ellipse cx="372.5" cy="767.7539" fill="#84BE84" rx="3" ry="3" style="stroke: #038048; stroke-width: 1.0;"/><text fill="#000000" font-family="sans-serif" font-size="11" lengthAdjust="spacingAndGlyphs" textLength="113" x="381.5" y="770.062">undoable(): boolean</text><ellipse cx="372.5" cy="780.5586" fill="#84BE84" rx="3" ry="3" style="stroke: #038048; stroke-width: 1.0;"/><text fill="#000000" font-family="sans-serif" font-size="11" lengthAdjust="spacingAndGlyphs" textLength="65" x="381.5" y="782.8667">redo(): void</text><ellipse cx="372.5" cy="793.3633" fill="#84BE84" rx="3" ry="3" style="stroke: #038048; stroke-width: 1.0;"/><text fill="#000000" font-family="sans-serif" font-size="11" lengthAdjust="spacingAndGlyphs" textLength="111" x="381.5" y="795.6714">redoable(): boolean</text><ellipse cx="372.5" cy="806.168" fill="#84BE84" rx="3" ry="3" style="stroke: #038048; stroke-width: 1.0;"/><text fill="#000000" font-family="sans-serif" font-size="11" lengthAdjust="spacingAndGlyphs" textLength="262" x="381.5" y="808.4761">accept(ControllerVisitor controllerVisitor): void</text><!--class mastermind.controllers.ResumeController--><rect fill="#FEFECE" filter="url(#f1g4g6dk0sep0p)" height="86.4141" id="mastermind.controllers.ResumeController" style="stroke: #A80036; stroke-width: 1.5;" width="288" x="862" y="652"/><ellipse cx="946.25" cy="668" fill="#ADD1B2" rx="11" ry="11" style="stroke: #A80036; stroke-width: 1.0;"/><path d="M949.2188,673.6406 Q948.6406,673.9375 948,674.0781 Q947.3594,674.2344 946.6563,674.2344 Q944.1563,674.2344 942.8281,672.5938 Q941.5156,670.9375 941.5156,667.8125 Q941.5156,664.6875 942.8281,663.0313 Q944.1563,661.375 946.6563,661.375 Q947.3594,661.375 948,661.5313 Q948.6563,661.6875 949.2188,661.9844 L949.2188,664.7031 Q948.5938,664.125 948,663.8594 Q947.4063,663.5781 946.7813,663.5781 Q945.4375,663.5781 944.75,664.6563 Q944.0625,665.7188 944.0625,667.8125 Q944.0625,669.9063 944.75,670.9844 Q945.4375,672.0469 946.7813,672.0469 Q947.4063,672.0469 948,671.7813 Q948.5938,671.5 949.2188,670.9219 L949.2188,673.6406 Z "/><text fill="#000000" font-family="sans-serif" font-size="12" lengthAdjust="spacingAndGlyphs" textLength="111" x="966.75" y="672.1543">ResumeController</text><line style="stroke: #A80036; stroke-width: 1.5;" x1="863" x2="1149" y1="684" y2="684"/><line style="stroke: #A80036; stroke-width: 1.5;" x1="863" x2="1149" y1="692" y2="692"/><ellipse cx="873" cy="703.9023" fill="#84BE84" rx="3" ry="3" style="stroke: #038048; stroke-width: 1.0;"/><text fill="#000000" font-family="sans-serif" font-size="11" lengthAdjust="spacingAndGlyphs" textLength="205" x="882" y="706.2104">ResumeController(Session session)</text><ellipse cx="873" cy="716.707" fill="#84BE84" rx="3" ry="3" style="stroke: #038048; stroke-width: 1.0;"/><text fill="#000000" font-family="sans-serif" font-size="11" lengthAdjust="spacingAndGlyphs" textLength="195" x="882" y="719.0151">resume(boolean isResumed): void</text><ellipse cx="873" cy="729.5117" fill="#84BE84" rx="3" ry="3" style="stroke: #038048; stroke-width: 1.0;"/><text fill="#000000" font-family="sans-serif" font-size="11" lengthAdjust="spacingAndGlyphs" textLength="262" x="882" y="731.8198">accept(ControllerVisitor controllerVisitor): void</text><!--class mastermind.controllers.Logic--><rect fill="#FEFECE" filter="url(#f1g4g6dk0sep0p)" height="99.2188" id="mastermind.controllers.Logic" style="stroke: #A80036; stroke-width: 1.5;" width="338" x="1201" y="59"/><ellipse cx="1349.75" cy="75" fill="#ADD1B2" rx="11" ry="11" style="stroke: #A80036; stroke-width: 1.0;"/><path d="M1352.7188,80.6406 Q1352.1406,80.9375 1351.5,81.0781 Q1350.8594,81.2344 1350.1563,81.2344 Q1347.6563,81.2344 1346.3281,79.5938 Q1345.0156,77.9375 1345.0156,74.8125 Q1345.0156,71.6875 1346.3281,70.0313 Q1347.6563,68.375 1350.1563,68.375 Q1350.8594,68.375 1351.5,68.5313 Q1352.1563,68.6875 1352.7188,68.9844 L1352.7188,71.7031 Q1352.0938,71.125 1351.5,70.8594 Q1350.9063,70.5781 1350.2813,70.5781 Q1348.9375,70.5781 1348.25,71.6563 Q1347.5625,72.7188 1347.5625,74.8125 Q1347.5625,76.9063 1348.25,77.9844 Q1348.9375,79.0469 1350.2813,79.0469 Q1350.9063,79.0469 1351.5,78.7813 Q1352.0938,78.5 1352.7188,77.9219 L1352.7188,80.6406 Z "/><text fill="#000000" font-family="sans-serif" font-size="12" lengthAdjust="spacingAndGlyphs" textLength="32" x="1370.25" y="79.1543">Logic</text><line style="stroke: #A80036; stroke-width: 1.5;" x1="1202" x2="1538" y1="91" y2="91"/><rect fill="none" height="6" style="stroke: #C82930; stroke-width: 1.0;" width="6" x="1209" y="99.9023"/><text fill="#000000" font-family="sans-serif" font-size="11" lengthAdjust="spacingAndGlyphs" textLength="127" x="1221" y="105.2104">final session: Session</text><rect fill="none" height="6" style="stroke: #C82930; stroke-width: 1.0;" width="6" x="1209" y="112.707"/><text fill="#000000" font-family="sans-serif" font-size="11" lengthAdjust="spacingAndGlyphs" textLength="312" x="1221" y="118.0151">final controllers: Map&lt;StateValue, AcceptorController&gt;</text><line style="stroke: #A80036; stroke-width: 1.5;" x1="1202" x2="1538" y1="124.6094" y2="124.6094"/><ellipse cx="1212" cy="136.5117" fill="#84BE84" rx="3" ry="3" style="stroke: #038048; stroke-width: 1.0;"/><text fill="#000000" font-family="sans-serif" font-size="11" lengthAdjust="spacingAndGlyphs" textLength="37" x="1221" y="138.8198">Logic()</text><ellipse cx="1212" cy="149.3164" fill="#84BE84" rx="3" ry="3" style="stroke: #038048; stroke-width: 1.0;"/><text fill="#000000" font-family="sans-serif" font-size="11" lengthAdjust="spacingAndGlyphs" textLength="197" x="1221" y="151.6245">getController(): UseCaseController</text><!--class mastermind.controllers.AcceptorController--><rect fill="#FEFECE" filter="url(#f1g4g6dk0sep0p)" height="73.6094" id="mastermind.controllers.AcceptorController" style="stroke: #A80036; stroke-width: 1.5;" width="288" x="152" y="230.5"/><ellipse cx="233.25" cy="246.5" fill="#B4A7E5" rx="11" ry="11" style="stroke: #A80036; stroke-width: 1.0;"/><path d="M229.1719,242.2656 L229.1719,240.1094 L236.5625,240.1094 L236.5625,242.2656 L234.0938,242.2656 L234.0938,250.3438 L236.5625,250.3438 L236.5625,252.5 L229.1719,252.5 L229.1719,250.3438 L231.6406,250.3438 L231.6406,242.2656 L229.1719,242.2656 Z "/><text fill="#000000" font-family="sans-serif" font-size="12" font-style="italic" lengthAdjust="spacingAndGlyphs" textLength="117" x="253.75" y="250.6543">AcceptorController</text><line style="stroke: #A80036; stroke-width: 1.5;" x1="153" x2="439" y1="262.5" y2="262.5"/><line style="stroke: #A80036; stroke-width: 1.5;" x1="153" x2="439" y1="270.5" y2="270.5"/><ellipse cx="163" cy="282.4023" fill="#84BE84" rx="3" ry="3" style="stroke: #038048; stroke-width: 1.0;"/><text fill="#000000" font-family="sans-serif" font-size="11" lengthAdjust="spacingAndGlyphs" textLength="262" x="172" y="284.7104">accept(ControllerVisitor controllerVisitor): void</text><ellipse cx="163" cy="295.207" fill="#84BE84" rx="3" ry="3" style="stroke: #038048; stroke-width: 1.0;"/><text fill="#000000" font-family="sans-serif" font-size="11" lengthAdjust="spacingAndGlyphs" textLength="63" x="172" y="297.5151">next(): void</text><!--class mastermind.controllers.UseCaseController--><rect fill="#FEFECE" filter="url(#f1g4g6dk0sep0p)" height="99.2188" id="mastermind.controllers.UseCaseController" style="stroke: #A80036; stroke-width: 1.5;" width="236" x="814" y="218"/><ellipse cx="870.75" cy="234" fill="#A9DCDF" rx="11" ry="11" style="stroke: #A80036; stroke-width: 1.0;"/><path d="M870.8594,229.3438 L869.7031,234.4219 L872.0313,234.4219 L870.8594,229.3438 Z M869.375,227.1094 L872.3594,227.1094 L875.7188,239.5 L873.2656,239.5 L872.5,236.4375 L869.2188,236.4375 L868.4688,239.5 L866.0313,239.5 L869.375,227.1094 Z "/><text fill="#000000" font-family="sans-serif" font-size="12" font-style="italic" lengthAdjust="spacingAndGlyphs" textLength="114" x="891.25" y="238.1543">UseCaseController</text><line style="stroke: #A80036; stroke-width: 1.5;" x1="815" x2="1049" y1="250" y2="250"/><polygon fill="none" points="825,256.9023,829,260.9023,825,264.9023,821,260.9023" style="stroke: #B38D22; stroke-width: 1.0;"/><text fill="#000000" font-family="sans-serif" font-size="11" lengthAdjust="spacingAndGlyphs" textLength="127" x="834" y="264.2104">final session: Session</text><polygon fill="none" points="825,269.707,829,273.707,825,277.707,821,273.707" style="stroke: #B38D22; stroke-width: 1.0;"/><text fill="#000000" font-family="sans-serif" font-size="11" lengthAdjust="spacingAndGlyphs" textLength="95" x="834" y="277.0151">final state: State</text><line style="stroke: #A80036; stroke-width: 1.5;" x1="815" x2="1049" y1="283.6094" y2="283.6094"/><text fill="#000000" font-family="sans-serif" font-size="11" lengthAdjust="spacingAndGlyphs" textLength="210" x="834" y="297.8198">UseCaseController(Session session)</text><ellipse cx="825" cy="308.3164" fill="#84BE84" rx="3" ry="3" style="stroke: #038048; stroke-width: 1.0;"/><text fill="#000000" font-family="sans-serif" font-size="11" lengthAdjust="spacingAndGlyphs" textLength="63" x="834" y="310.6245">next(): void</text><!--class mastermind.controllers.ProposalController--><rect fill="#FEFECE" filter="url(#f1g4g6dk0sep0p)" height="137.6328" id="mastermind.controllers.ProposalController" style="stroke: #A80036; stroke-width: 1.5;" width="465" x="1073.5" y="377"/><ellipse cx="1243.75" cy="393" fill="#ADD1B2" rx="11" ry="11" style="stroke: #A80036; stroke-width: 1.0;"/><path d="M1246.7188,398.6406 Q1246.1406,398.9375 1245.5,399.0781 Q1244.8594,399.2344 1244.1563,399.2344 Q1241.6563,399.2344 1240.3281,397.5938 Q1239.0156,395.9375 1239.0156,392.8125 Q1239.0156,389.6875 1240.3281,388.0313 Q1241.6563,386.375 1244.1563,386.375 Q1244.8594,386.375 1245.5,386.5313 Q1246.1563,386.6875 1246.7188,386.9844 L1246.7188,389.7031 Q1246.0938,389.125 1245.5,388.8594 Q1244.9063,388.5781 1244.2813,388.5781 Q1242.9375,388.5781 1242.25,389.6563 Q1241.5625,390.7188 1241.5625,392.8125 Q1241.5625,394.9063 1242.25,395.9844 Q1242.9375,397.0469 1244.2813,397.0469 Q1244.9063,397.0469 1245.5,396.7813 Q1246.0938,396.5 1246.7188,395.9219 L1246.7188,398.6406 Z "/><text fill="#000000" font-family="sans-serif" font-size="12" lengthAdjust="spacingAndGlyphs" textLength="116" x="1264.25" y="397.1543">ProposalController</text><line style="stroke: #A80036; stroke-width: 1.5;" x1="1074.5" x2="1537.5" y1="409" y2="409"/><line style="stroke: #A80036; stroke-width: 1.5;" x1="1074.5" x2="1537.5" y1="417" y2="417"/><ellipse cx="1084.5" cy="428.9023" fill="#84BE84" rx="3" ry="3" style="stroke: #038048; stroke-width: 1.0;"/><text fill="#000000" font-family="sans-serif" font-size="11" lengthAdjust="spacingAndGlyphs" textLength="209" x="1093.5" y="431.2104">ProposalController(Session session)</text><ellipse cx="1084.5" cy="441.707" fill="#84BE84" rx="3" ry="3" style="stroke: #038048; stroke-width: 1.0;"/><text fill="#000000" font-family="sans-serif" font-size="11" lengthAdjust="spacingAndGlyphs" textLength="439" x="1093.5" y="444.0151">addProposedCombination(ProposedCombination proposedCombination): void</text><ellipse cx="1084.5" cy="454.5117" fill="#84BE84" rx="3" ry="3" style="stroke: #038048; stroke-width: 1.0;"/><text fill="#000000" font-family="sans-serif" font-size="11" lengthAdjust="spacingAndGlyphs" textLength="99" x="1093.5" y="456.8198">getAttempts(): int</text><ellipse cx="1084.5" cy="467.3164" fill="#84BE84" rx="3" ry="3" style="stroke: #038048; stroke-width: 1.0;"/><text fill="#000000" font-family="sans-serif" font-size="11" lengthAdjust="spacingAndGlyphs" textLength="347" x="1093.5" y="469.6245">getProposedCombination(int position): ProposedCombination</text><ellipse cx="1084.5" cy="480.1211" fill="#84BE84" rx="3" ry="3" style="stroke: #038048; stroke-width: 1.0;"/><text fill="#000000" font-family="sans-serif" font-size="11" lengthAdjust="spacingAndGlyphs" textLength="167" x="1093.5" y="482.4292">getResult(int position): Result</text><ellipse cx="1084.5" cy="492.9258" fill="#84BE84" rx="3" ry="3" style="stroke: #038048; stroke-width: 1.0;"/><text fill="#000000" font-family="sans-serif" font-size="11" lengthAdjust="spacingAndGlyphs" textLength="109" x="1093.5" y="495.2339">isWinner(): boolean</text><ellipse cx="1084.5" cy="505.7305" fill="#84BE84" rx="3" ry="3" style="stroke: #038048; stroke-width: 1.0;"/><text fill="#000000" font-family="sans-serif" font-size="11" lengthAdjust="spacingAndGlyphs" textLength="110" x="1093.5" y="508.0386">isLooser(): boolean</text><!--class mastermind.controllers.RedoController--><rect fill="#FEFECE" filter="url(#f1g4g6dk0sep0p)" height="86.4141" id="mastermind.controllers.RedoController" style="stroke: #A80036; stroke-width: 1.5;" width="213" x="515.5" y="403"/><ellipse cx="571.25" cy="419" fill="#ADD1B2" rx="11" ry="11" style="stroke: #A80036; stroke-width: 1.0;"/><path d="M574.2188,424.6406 Q573.6406,424.9375 573,425.0781 Q572.3594,425.2344 571.6563,425.2344 Q569.1563,425.2344 567.8281,423.5938 Q566.5156,421.9375 566.5156,418.8125 Q566.5156,415.6875 567.8281,414.0313 Q569.1563,412.375 571.6563,412.375 Q572.3594,412.375 573,412.5313 Q573.6563,412.6875 574.2188,412.9844 L574.2188,415.7031 Q573.5938,415.125 573,414.8594 Q572.4063,414.5781 571.7813,414.5781 Q570.4375,414.5781 569.75,415.6563 Q569.0625,416.7188 569.0625,418.8125 Q569.0625,420.9063 569.75,421.9844 Q570.4375,423.0469 571.7813,423.0469 Q572.4063,423.0469 573,422.7813 Q573.5938,422.5 574.2188,421.9219 L574.2188,424.6406 Z "/><text fill="#000000" font-family="sans-serif" font-size="12" lengthAdjust="spacingAndGlyphs" textLength="93" x="591.75" y="423.1543">RedoController</text><line style="stroke: #A80036; stroke-width: 1.5;" x1="516.5" x2="727.5" y1="435" y2="435"/><line style="stroke: #A80036; stroke-width: 1.5;" x1="516.5" x2="727.5" y1="443" y2="443"/><text fill="#000000" font-family="sans-serif" font-size="11" lengthAdjust="spacingAndGlyphs" textLength="187" x="535.5" y="457.2104">RedoController(Session session)</text><ellipse cx="526.5" cy="467.707" fill="#84BE84" rx="3" ry="3" style="stroke: #038048; stroke-width: 1.0;"/><text fill="#000000" font-family="sans-serif" font-size="11" lengthAdjust="spacingAndGlyphs" textLength="65" x="535.5" y="470.0151">redo(): void</text><ellipse cx="526.5" cy="480.5117" fill="#84BE84" rx="3" ry="3" style="stroke: #038048; stroke-width: 1.0;"/><text fill="#000000" font-family="sans-serif" font-size="11" lengthAdjust="spacingAndGlyphs" textLength="111" x="535.5" y="482.8198">redoable(): boolean</text><!--class mastermind.controllers.UndoController--><rect fill="#FEFECE" filter="url(#f1g4g6dk0sep0p)" height="86.4141" id="mastermind.controllers.UndoController" style="stroke: #A80036; stroke-width: 1.5;" width="200" x="764" y="403"/><ellipse cx="812.75" cy="419" fill="#ADD1B2" rx="11" ry="11" style="stroke: #A80036; stroke-width: 1.0;"/><path d="M815.7188,424.6406 Q815.1406,424.9375 814.5,425.0781 Q813.8594,425.2344 813.1563,425.2344 Q810.6563,425.2344 809.3281,423.5938 Q808.0156,421.9375 808.0156,418.8125 Q808.0156,415.6875 809.3281,414.0313 Q810.6563,412.375 813.1563,412.375 Q813.8594,412.375 814.5,412.5313 Q815.1563,412.6875 815.7188,412.9844 L815.7188,415.7031 Q815.0938,415.125 814.5,414.8594 Q813.9063,414.5781 813.2813,414.5781 Q811.9375,414.5781 811.25,415.6563 Q810.5625,416.7188 810.5625,418.8125 Q810.5625,420.9063 811.25,421.9844 Q811.9375,423.0469 813.2813,423.0469 Q813.9063,423.0469 814.5,422.7813 Q815.0938,422.5 815.7188,421.9219 L815.7188,424.6406 Z "/><text fill="#000000" font-family="sans-serif" font-size="12" lengthAdjust="spacingAndGlyphs" textLength="94" x="833.25" y="423.1543">UndoController</text><line style="stroke: #A80036; stroke-width: 1.5;" x1="765" x2="963" y1="435" y2="435"/><line style="stroke: #A80036; stroke-width: 1.5;" x1="765" x2="963" y1="443" y2="443"/><text fill="#000000" font-family="sans-serif" font-size="11" lengthAdjust="spacingAndGlyphs" textLength="188" x="770" y="457.2104">UndoController(Session session)</text><text fill="#000000" font-family="sans-serif" font-size="11" lengthAdjust="spacingAndGlyphs" textLength="67" x="770" y="470.0151">undo(): void</text><text fill="#000000" font-family="sans-serif" font-size="11" lengthAdjust="spacingAndGlyphs" textLength="113" x="770" y="482.8198">undoable(): boolean</text><!--class mastermind.models.Session--><rect fill="#FEFECE" filter="url(#f1g4g6dk0sep0p)" height="48" id="mastermind.models.Session" style="stroke: #A80036; stroke-width: 1.5;" width="81" x="1907.5" y="671"/><ellipse cx="1922.5" cy="687" fill="#ADD1B2" rx="11" ry="11" style="stroke: #A80036; stroke-width: 1.0;"/><path d="M1925.4688,692.6406 Q1924.8906,692.9375 1924.25,693.0781 Q1923.6094,693.2344 1922.9063,693.2344 Q1920.4063,693.2344 1919.0781,691.5938 Q1917.7656,689.9375 1917.7656,686.8125 Q1917.7656,683.6875 1919.0781,682.0313 Q1920.4063,680.375 1922.9063,680.375 Q1923.6094,680.375 1924.25,680.5313 Q1924.9063,680.6875 1925.4688,680.9844 L1925.4688,683.7031 Q1924.8438,683.125 1924.25,682.8594 Q1923.6563,682.5781 1923.0313,682.5781 Q1921.6875,682.5781 1921,683.6563 Q1920.3125,684.7188 1920.3125,686.8125 Q1920.3125,688.9063 1921,689.9844 Q1921.6875,691.0469 1923.0313,691.0469 Q1923.6563,691.0469 1924.25,690.7813 Q1924.8438,690.5 1925.4688,689.9219 L1925.4688,692.6406 Z "/><text fill="#000000" font-family="sans-serif" font-size="12" lengthAdjust="spacingAndGlyphs" textLength="49" x="1936.5" y="691.1543">Session</text><line style="stroke: #A80036; stroke-width: 1.5;" x1="1908.5" x2="1987.5" y1="703" y2="703"/><line style="stroke: #A80036; stroke-width: 1.5;" x1="1908.5" x2="1987.5" y1="711" y2="711"/><!--class mastermind.models.StateValue--><rect fill="#FEFECE" filter="url(#f1g4g6dk0sep0p)" height="48" id="mastermind.models.StateValue" style="stroke: #A80036; stroke-width: 1.5;" width="101" x="2023.5" y="671"/><ellipse cx="2038.5" cy="687" fill="#ADD1B2" rx="11" ry="11" style="stroke: #A80036; stroke-width: 1.0;"/><path d="M2041.4688,692.6406 Q2040.8906,692.9375 2040.25,693.0781 Q2039.6094,693.2344 2038.9063,693.2344 Q2036.4063,693.2344 2035.0781,691.5938 Q2033.7656,689.9375 2033.7656,686.8125 Q2033.7656,683.6875 2035.0781,682.0313 Q2036.4063,680.375 2038.9063,680.375 Q2039.6094,680.375 2040.25,680.5313 Q2040.9063,680.6875 2041.4688,680.9844 L2041.4688,683.7031 Q2040.8438,683.125 2040.25,682.8594 Q2039.6563,682.5781 2039.0313,682.5781 Q2037.6875,682.5781 2037,683.6563 Q2036.3125,684.7188 2036.3125,686.8125 Q2036.3125,688.9063 2037,689.9844 Q2037.6875,691.0469 2039.0313,691.0469 Q2039.6563,691.0469 2040.25,690.7813 Q2040.8438,690.5 2041.4688,689.9219 L2041.4688,692.6406 Z "/><text fill="#000000" font-family="sans-serif" font-size="12" lengthAdjust="spacingAndGlyphs" textLength="69" x="2052.5" y="691.1543">StateValue</text><line style="stroke: #A80036; stroke-width: 1.5;" x1="2024.5" x2="2123.5" y1="703" y2="703"/><line style="stroke: #A80036; stroke-width: 1.5;" x1="2024.5" x2="2123.5" y1="711" y2="711"/><!--class mastermind.models.ProposedCombination--><rect fill="#FEFECE" filter="url(#f1g4g6dk0sep0p)" height="48" id="mastermind.models.ProposedCombination" style="stroke: #A80036; stroke-width: 1.5;" width="170" x="1702" y="671"/><ellipse cx="1717" cy="687" fill="#ADD1B2" rx="11" ry="11" style="stroke: #A80036; stroke-width: 1.0;"/><path d="M1719.9688,692.6406 Q1719.3906,692.9375 1718.75,693.0781 Q1718.1094,693.2344 1717.4063,693.2344 Q1714.9063,693.2344 1713.5781,691.5938 Q1712.2656,689.9375 1712.2656,686.8125 Q1712.2656,683.6875 1713.5781,682.0313 Q1714.9063,680.375 1717.4063,680.375 Q1718.1094,680.375 1718.75,680.5313 Q1719.4063,680.6875 1719.9688,680.9844 L1719.9688,683.7031 Q1719.3438,683.125 1718.75,682.8594 Q1718.1563,682.5781 1717.5313,682.5781 Q1716.1875,682.5781 1715.5,683.6563 Q1714.8125,684.7188 1714.8125,686.8125 Q1714.8125,688.9063 1715.5,689.9844 Q1716.1875,691.0469 1717.5313,691.0469 Q1718.1563,691.0469 1718.75,690.7813 Q1719.3438,690.5 1719.9688,689.9219 L1719.9688,692.6406 Z "/><text fill="#000000" font-family="sans-serif" font-size="12" lengthAdjust="spacingAndGlyphs" textLength="138" x="1731" y="691.1543">ProposedCombination</text><line style="stroke: #A80036; stroke-width: 1.5;" x1="1703" x2="1871" y1="703" y2="703"/><line style="stroke: #A80036; stroke-width: 1.5;" x1="1703" x2="1871" y1="711" y2="711"/><!--class mastermind.models.Result--><rect fill="#FEFECE" filter="url(#f1g4g6dk0sep0p)" height="48" id="mastermind.models.Result" style="stroke: #A80036; stroke-width: 1.5;" width="71" x="1595.5" y="671"/><ellipse cx="1610.5" cy="687" fill="#ADD1B2" rx="11" ry="11" style="stroke: #A80036; stroke-width: 1.0;"/><path d="M1613.4688,692.6406 Q1612.8906,692.9375 1612.25,693.0781 Q1611.6094,693.2344 1610.9063,693.2344 Q1608.4063,693.2344 1607.0781,691.5938 Q1605.7656,689.9375 1605.7656,686.8125 Q1605.7656,683.6875 1607.0781,682.0313 Q1608.4063,680.375 1610.9063,680.375 Q1611.6094,680.375 1612.25,680.5313 Q1612.9063,680.6875 1613.4688,680.9844 L1613.4688,683.7031 Q1612.8438,683.125 1612.25,682.8594 Q1611.6563,682.5781 1611.0313,682.5781 Q1609.6875,682.5781 1609,683.6563 Q1608.3125,684.7188 1608.3125,686.8125 Q1608.3125,688.9063 1609,689.9844 Q1609.6875,691.0469 1611.0313,691.0469 Q1611.6563,691.0469 1612.25,690.7813 Q1612.8438,690.5 1613.4688,689.9219 L1613.4688,692.6406 Z "/><text fill="#000000" font-family="sans-serif" font-size="12" lengthAdjust="spacingAndGlyphs" textLength="39" x="1624.5" y="691.1543">Result</text><line style="stroke: #A80036; stroke-width: 1.5;" x1="1596.5" x2="1665.5" y1="703" y2="703"/><line style="stroke: #A80036; stroke-width: 1.5;" x1="1596.5" x2="1665.5" y1="711" y2="711"/><!--link mastermind.controllers.ControllerVisitor to mastermind.controllers.StartController--><path d="M266.65,489.18 C241.69,534.91 208.25,607.42 191.23,652.78 " fill="none" id="mastermind.controllers.ControllerVisitor-mastermind.controllers.StartController" style="stroke: #A80036; stroke-width: 1.0; stroke-dasharray: 7.0,7.0;"/><polygon fill="#A80036" points="189.44,657.62,196.3077,650.5606,191.1705,652.929,188.8021,647.7918,189.44,657.62" style="stroke: #A80036; stroke-width: 1.0;"/><!--link mastermind.controllers.ControllerVisitor to mastermind.controllers.StartController--><path d="M285.18,493.99 C267.01,541.6 233.17,614.23 208.69,657.62 " fill="none" id="mastermind.controllers.ControllerVisitor-mastermind.controllers.StartController-1" style="stroke: #A80036; stroke-width: 1.0; stroke-dasharray: 7.0,7.0;"/><polygon fill="#A80036" points="286.99,489.18,280.0588,496.177,285.2172,493.8552,287.539,499.0135,286.99,489.18" style="stroke: #A80036; stroke-width: 1.0;"/><!--link mastermind.controllers.ControllerVisitor to mastermind.controllers.PlayController--><path d="M337.01,489.18 C362.82,512.18 397.78,541.95 433.62,571.64 " fill="none" id="mastermind.controllers.ControllerVisitor-mastermind.controllers.PlayController" style="stroke: #A80036; stroke-width: 1.0; stroke-dasharray: 7.0,7.0;"/><polygon fill="#A80036" points="437.54,574.88,433.148,566.0646,433.6849,571.696,428.0536,572.2328,437.54,574.88" style="stroke: #A80036; stroke-width: 1.0;"/><!--link mastermind.controllers.ControllerVisitor to mastermind.controllers.PlayController--><path d="M361.37,492.29 C391.55,515.69 428.37,545.45 463.78,574.88 " fill="none" id="mastermind.controllers.ControllerVisitor-mastermind.controllers.PlayController-1" style="stroke: #A80036; stroke-width: 1.0; stroke-dasharray: 7.0,7.0;"/><polygon fill="#A80036" points="357.35,489.18,362.0115,497.8559,361.3014,492.2438,366.9135,491.5336,357.35,489.18" style="stroke: #A80036; stroke-width: 1.0;"/><!--link mastermind.controllers.ControllerVisitor to mastermind.controllers.ResumeController--><path d="M376.32,489.03 C400.59,498.64 427.5,508.06 453,515 C615.44,559.22 671.7,510.01 827,575 C868.92,592.54 910.1,623.02 942.69,648.74 " fill="none" id="mastermind.controllers.ControllerVisitor-mastermind.controllers.ResumeController" style="stroke: #A80036; stroke-width: 1.0; stroke-dasharray: 7.0,7.0;"/><polygon fill="#A80036" points="946.63,651.86,942.0426,643.1448,942.7049,648.7627,937.0869,649.425,946.63,651.86" style="stroke: #A80036; stroke-width: 1.0;"/><!--link mastermind.controllers.ControllerVisitor to mastermind.controllers.ResumeController--><path d="M414.97,490.83 C438.95,499.81 464.09,508.49 488,515 C650.44,559.22 706.7,510.01 862,575 C905.62,593.25 948.45,625.52 976.44,651.86 " fill="none" id="mastermind.controllers.ControllerVisitor-mastermind.controllers.ResumeController-1" style="stroke: #A80036; stroke-width: 1.0; stroke-dasharray: 7.0,7.0;"/><polygon fill="#A80036" points="410.19,489.03,417.187,495.9612,414.8652,490.8028,420.0235,488.481,410.19,489.03" style="stroke: #A80036; stroke-width: 1.0;"/><!--link mastermind.models.Session to mastermind.controllers.Logic--><path d="M1934.48,658.37 C1924.23,633.74 1908.74,600.87 1890,575 C1764.46,401.69 1564.63,245.95 1452.77,166.03 " fill="none" id="mastermind.models.Session-mastermind.controllers.Logic" style="stroke: #A80036; stroke-width: 1.0;"/><polygon fill="#A80036" points="1441.9,158.3,1444.4755,165.0355,1451.6835,165.2486,1449.108,158.5132,1441.9,158.3" style="stroke: #A80036; stroke-width: 1.0;"/><polygon fill="#A80036" points="1939.48,670.77,1939.8273,660.9273,1937.6117,666.1322,1932.4068,663.9166,1939.48,670.77" style="stroke: #A80036; stroke-width: 1.0;"/><line style="stroke: #A80036; stroke-width: 1.0;" x1="1937.6117" x2="1934.61" y1="666.1322" y2="658.71"/><!--link mastermind.models.StateValue to mastermind.controllers.Logic--><path d="M2057.38,659.24 C2044.86,634.63 2026.4,601.43 2006,575 C1861.02,387.14 1810.66,343.06 1609,218 C1576.61,197.91 1539.87,179.37 1505.09,163.51 " fill="none" id="mastermind.models.StateValue-mastermind.controllers.Logic" style="stroke: #A80036; stroke-width: 1.0;"/><polygon fill="#A80036" points="1492.87,158.01,1496.6942,164.1235,1503.8084,162.9448,1499.9841,156.8313,1492.87,158.01" style="stroke: #A80036; stroke-width: 1.0;"/><polygon fill="#A80036" points="2063.2,670.91,2062.7625,661.0709,2060.9683,666.4357,2055.6035,664.6415,2063.2,670.91" style="stroke: #A80036; stroke-width: 1.0;"/><line style="stroke: #A80036; stroke-width: 1.0;" x1="2060.9683" x2="2057.4" y1="666.4357" y2="659.28"/><!--link mastermind.controllers.Logic to mastermind.controllers.AcceptorController--><path d="M1187.63,136.16 C981.29,166.32 648.59,214.96 453.23,243.52 " fill="none" id="mastermind.controllers.Logic-mastermind.controllers.AcceptorController" style="stroke: #A80036; stroke-width: 1.0;"/><polygon fill="#A80036" points="440.28,245.41,449.7652,248.0616,445.2271,244.6844,448.6043,240.1463,440.28,245.41" style="stroke: #A80036; stroke-width: 1.0;"/><line style="stroke: #A80036; stroke-width: 1.0;" x1="445.2271" x2="453.14" y1="244.6844" y2="243.53"/><polygon fill="#A80036" points="1200.71,134.25,1194.1931,131.163,1188.837,135.9914,1195.354,139.0783,1200.71,134.25" style="stroke: #A80036; stroke-width: 1.0;"/><!--link mastermind.models.Session to mastermind.controllers.UseCaseController--><path d="M1937.57,658 C1928.54,632.17 1913.22,598.01 1890,575 C1845.94,531.34 1817.98,545.55 1764,515 C1667.45,460.35 1659.07,418.04 1556,377 C1393.66,312.35 1192.41,286.16 1063.11,275.58 " fill="none" id="mastermind.models.Session-mastermind.controllers.UseCaseController" style="stroke: #A80036; stroke-width: 1.0;"/><polygon fill="#A80036" points="1050.05,274.55,1055.7146,279.0123,1062.0124,275.4996,1056.3477,271.0373,1050.05,274.55" style="stroke: #A80036; stroke-width: 1.0;"/><polygon fill="#A80036" points="1941.73,670.65,1942.7229,660.8513,1940.1703,665.8995,1935.1221,663.3468,1941.73,670.65" style="stroke: #A80036; stroke-width: 1.0;"/><line style="stroke: #A80036; stroke-width: 1.0;" x1="1940.1703" x2="1937.665" y1="665.8995" y2="658.3"/><!--link mastermind.controllers.UseCaseController to mastermind.controllers.ControllerVisitor--><path d="M813.89,295.34 C726.23,315.91 604.03,345.95 498,377 C472.76,384.39 445.96,392.92 420.42,401.38 " fill="none" id="mastermind.controllers.UseCaseController-mastermind.controllers.ControllerVisitor" style="stroke: #A80036; stroke-width: 1.0; stroke-dasharray: 7.0,7.0;"/><polygon fill="#A80036" points="415.67,402.96,425.4713,403.9264,420.4163,401.3874,422.9552,396.3324,415.67,402.96" style="stroke: #A80036; stroke-width: 1.0;"/><!--link mastermind.controllers.UseCaseController to mastermind.controllers.PlayController--><path d="M970.26,335.5 C994.78,388.18 1016.06,461.38 981,515 C944.63,570.64 904.46,547.38 844,575 C838.32,577.6 832.56,580.24 826.77,582.91 " fill="none" id="mastermind.controllers.UseCaseController-mastermind.controllers.PlayController" style="stroke: #A80036; stroke-width: 1.0;"/><polygon fill="none" points="963.92,338.47,961.36,317.44,976.48,332.28,963.92,338.47" style="stroke: #A80036; stroke-width: 1.0;"/><!--link mastermind.controllers.AcceptorController to mastermind.controllers.PlayController--><path d="M191.23,315.24 C167.18,331.21 144.68,351.62 131,377 C101.89,430.98 94,466.08 131,515 C190.07,593.1 251.33,540.57 343,575 C349.09,577.29 355.24,579.67 361.43,582.12 " fill="none" id="mastermind.controllers.AcceptorController-mastermind.controllers.PlayController" style="stroke: #A80036; stroke-width: 1.0; stroke-dasharray: 7.0,7.0;"/><polygon fill="none" points="187.76,309.15,208.47,304.64,195.1,321.08,187.76,309.15" style="stroke: #A80036; stroke-width: 1.0;"/><!--link mastermind.controllers.PlayController to mastermind.models.ProposedCombination--><path d="M780.72,574.91 C806.99,562.64 834.33,552.1 861.5,545 C948.04,522.39 1585.84,506.34 1666.5,545 C1718.82,570.08 1755.62,630.19 1773.87,666.24 " fill="none" id="mastermind.controllers.PlayController-mastermind.models.ProposedCombination" style="stroke: #A80036; stroke-width: 1.0; stroke-dasharray: 7.0,7.0;"/><polygon fill="#A80036" points="1776.21,670.94,1775.7754,661.1007,1773.9797,666.465,1768.6154,664.6693,1776.21,670.94" style="stroke: #A80036; stroke-width: 1.0;"/><!--link mastermind.controllers.PlayController to mastermind.models.Result--><path d="M780.72,574.91 C806.99,562.64 834.33,552.1 861.5,545 C934.17,526.02 1471.83,508.55 1537.5,545 C1583.79,570.69 1610.15,629.88 1622.42,665.74 " fill="none" id="mastermind.controllers.PlayController-mastermind.models.Result" style="stroke: #A80036; stroke-width: 1.0; stroke-dasharray: 7.0,7.0;"/><polygon fill="#A80036" points="1624.13,670.86,1625.0698,661.0561,1622.5446,666.118,1617.4826,663.5928,1624.13,670.86" style="stroke: #A80036; stroke-width: 1.0;"/><!--link mastermind.controllers.UseCaseController to mastermind.controllers.ResumeController--><path d="M987.66,333.56 C996.44,347.13 1004.19,361.91 1009,377 C1039.13,471.52 1025.34,590.09 1014.55,651.99 " fill="none" id="mastermind.controllers.UseCaseController-mastermind.controllers.ResumeController" style="stroke: #A80036; stroke-width: 1.0;"/><polygon fill="none" points="981.87,337.5,976.13,317.1,993.34,329.47,981.87,337.5" style="stroke: #A80036; stroke-width: 1.0;"/><!--link mastermind.controllers.AcceptorController to mastermind.controllers.ResumeController--><path d="M391.2,315.16 C416.68,331.61 442.08,352.29 460,377 C497.35,428.5 450.89,472.25 498,515 C613.58,619.88 700.41,513.84 844,575 C887.34,593.46 930.02,625.54 960.69,651.75 " fill="none" id="mastermind.controllers.AcceptorController-mastermind.controllers.ResumeController" style="stroke: #A80036; stroke-width: 1.0; stroke-dasharray: 7.0,7.0;"/><polygon fill="none" points="387.51,321.1,374.09,304.7,394.81,309.16,387.51,321.1" style="stroke: #A80036; stroke-width: 1.0;"/><!--link mastermind.controllers.UseCaseController to mastermind.controllers.StartController--><path d="M793.97,282.47 C570.62,305.72 152.6,352.28 131,377 C61.23,456.86 123.33,593.1 159.83,657.81 " fill="none" id="mastermind.controllers.UseCaseController-mastermind.controllers.StartController" style="stroke: #A80036; stroke-width: 1.0;"/><polygon fill="none" points="793.35,275.49,813.97,280.39,794.8,289.42,793.35,275.49" style="stroke: #A80036; stroke-width: 1.0;"/><!--link mastermind.controllers.AcceptorController to mastermind.controllers.StartController--><path d="M139.39,313.52 C110.67,328.98 84.34,349.6 67,377 C8.3,469.76 97.28,596.69 149.1,657.98 " fill="none" id="mastermind.controllers.AcceptorController-mastermind.controllers.StartController" style="stroke: #A80036; stroke-width: 1.0; stroke-dasharray: 7.0,7.0;"/><polygon fill="none" points="136.49,307.14,157.52,304.54,142.7,319.69,136.49,307.14" style="stroke: #A80036; stroke-width: 1.0;"/><!--link mastermind.controllers.AcceptorController to mastermind.controllers.ControllerVisitor--><path d="M296,304.64 C296,331.42 296,368.16 296,397.34 " fill="none" id="mastermind.controllers.AcceptorController-mastermind.controllers.ControllerVisitor" style="stroke: #A80036; stroke-width: 1.0; stroke-dasharray: 7.0,7.0;"/><polygon fill="#A80036" points="296,402.69,300,393.69,296,397.69,292,393.69,296,402.69" style="stroke: #A80036; stroke-width: 1.0;"/><!--link mastermind.controllers.UseCaseController to mastermind.controllers.ProposalController--><path d="M1053.47,325.82 C1088.06,342.15 1126.06,360.08 1161.86,376.98 " fill="none" id="mastermind.controllers.UseCaseController-mastermind.controllers.ProposalController" style="stroke: #A80036; stroke-width: 1.0;"/><polygon fill="none" points="1050.29,332.06,1035.19,317.2,1056.26,319.4,1050.29,332.06" style="stroke: #A80036; stroke-width: 1.0;"/><!--link mastermind.controllers.ProposalController to mastermind.models.ProposedCombination--><path d="M1538.53,504.1 C1588.9,522.25 1640.16,545.52 1684,575 C1720.16,599.31 1751.24,639.51 1769.53,666.37 " fill="none" id="mastermind.controllers.ProposalController-mastermind.models.ProposedCombination" style="stroke: #A80036; stroke-width: 1.0; stroke-dasharray: 7.0,7.0;"/><polygon fill="#A80036" points="1772.36,670.56,1770.6728,660.8567,1769.5766,666.4063,1764.027,665.3101,1772.36,670.56" style="stroke: #A80036; stroke-width: 1.0;"/><!--link mastermind.controllers.ProposalController to mastermind.models.Result--><path d="M1469.16,515.06 C1499.61,532 1529.75,552.01 1555,575 C1583.5,600.95 1605.65,639.91 1618.51,666.11 " fill="none" id="mastermind.controllers.ProposalController-mastermind.models.Result" style="stroke: #A80036; stroke-width: 1.0; stroke-dasharray: 7.0,7.0;"/><polygon fill="#A80036" points="1620.81,670.85,1620.4759,661.0068,1618.6255,666.3525,1613.2798,664.502,1620.81,670.85" style="stroke: #A80036; stroke-width: 1.0;"/><!--link mastermind.controllers.UseCaseController to mastermind.controllers.RedoController--><path d="M828.88,327.21 C785.37,351.98 735.7,380.27 695.93,402.91 " fill="none" id="mastermind.controllers.UseCaseController-mastermind.controllers.RedoController" style="stroke: #A80036; stroke-width: 1.0;"/><polygon fill="none" points="825.63,321.01,846.47,317.2,832.55,333.18,825.63,321.01" style="stroke: #A80036; stroke-width: 1.0;"/><!--link mastermind.controllers.UseCaseController to mastermind.controllers.UndoController--><path d="M906.04,335.89 C897.38,358.36 887.98,382.75 880.27,402.76 " fill="none" id="mastermind.controllers.UseCaseController-mastermind.controllers.UndoController" style="stroke: #A80036; stroke-width: 1.0;"/><polygon fill="none" points="899.52,333.34,913.24,317.2,912.58,338.38,899.52,333.34" style="stroke: #A80036; stroke-width: 1.0;"/><!--
@startuml

interface mastermind.controllers.ControllerVisitor {
+ visit(StartController startController): void
+ visit(PlayController playController): void
+ visit(ResumeController resumeController): void
}

mastermind.controllers.ControllerVisitor .down.> mastermind.controllers.StartController
mastermind.controllers.ControllerVisitor .down.> mastermind.controllers.PlayController
mastermind.controllers.ControllerVisitor .down.> mastermind.controllers.ResumeController

class mastermind.controllers.Logic {
- final session: Session
- final controllers: Map<StateValue, AcceptorController>
+ Logic()
+ getController(): UseCaseController
}

mastermind.controllers.Logic *-up-> mastermind.models.Session
mastermind.controllers.Logic *-up-> mastermind.models.StateValue
mastermind.controllers.Logic *-down-> mastermind.controllers.AcceptorController

abstract class mastermind.controllers.UseCaseController {
# final session: Session
# final state: State
UseCaseController(Session session)
+ next(): void
}

mastermind.controllers.UseCaseController *-up-> mastermind.models.Session
mastermind.controllers.UseCaseController .down.> mastermind.controllers.ControllerVisitor

class mastermind.controllers.PlayController extends mastermind.controllers.UseCaseController implements mastermind.controllers.AcceptorController{
- final proposalController: ProposalController
- final undoController: UndoController
- final redoController: RedoController

+ PlayController(Session)
+ addProposedCombination(ProposedCombination proposedCombination): void
+ getAttempts(): int
+ getProposedCombination(int position): ProposedCombination
+ getResult(int position): Result
+ isWinner(): boolean
+ isLooser(): boolean
+ undo(): void
+ undoable(): boolean
+ redo(): void
+ redoable(): boolean
+ accept(ControllerVisitor controllerVisitor): void
}

mastermind.controllers.PlayController .up.> mastermind.controllers.ControllerVisitor
mastermind.controllers.PlayController .down.> mastermind.models.ProposedCombination
mastermind.controllers.PlayController .down.> mastermind.models.Result

class mastermind.controllers.ResumeController extends mastermind.controllers.UseCaseController implements mastermind.controllers.AcceptorController {
+ ResumeController(Session session)
+ resume(boolean isResumed): void
+ accept(ControllerVisitor controllerVisitor): void
}

mastermind.controllers.ResumeController .up.> mastermind.controllers.ControllerVisitor

class mastermind.controllers.StartController extends mastermind.controllers.UseCaseController implements mastermind.controllers.AcceptorController {
+StartController(Session session)
+ accept(ControllerVisitor controllerVisitor): void
}

mastermind.controllers.StartController .up.> mastermind.controllers.ControllerVisitor

interface mastermind.controllers.AcceptorController {
+ accept(ControllerVisitor controllerVisitor): void
+ next(): void
}

mastermind.controllers.AcceptorController .down.> mastermind.controllers.ControllerVisitor

class mastermind.controllers.ProposalController extends mastermind.controllers.UseCaseController {
+ ProposalController(Session session)
+ addProposedCombination(ProposedCombination proposedCombination): void
+ getAttempts(): int
+ getProposedCombination(int position): ProposedCombination
+ getResult(int position): Result
+ isWinner(): boolean
+ isLooser(): boolean
}

mastermind.controllers.ProposalController .down.> mastermind.models.ProposedCombination
mastermind.controllers.ProposalController .down.> mastermind.models.Result

class mastermind.controllers.RedoController extends mastermind.controllers.UseCaseController {
RedoController(Session session)
+ redo(): void
+ redoable(): boolean
}

class mastermind.controllers.UndoController extends mastermind.controllers.UseCaseController {
UndoController(Session session)
undo(): void
undoable(): boolean
}
@enduml

PlantUML version 1.2019.05(Sat Apr 20 18:45:36 CEST 2019)
(GPL source distribution)
Java Runtime: OpenJDK Runtime Environment
JVM: OpenJDK 64-Bit Server VM
Java Version: 1.8.0_265-8u265-b01-0ubuntu2~20.04-b01
Operating System: Linux
OS Version: 5.4.0-52-generic
Default Encoding: UTF-8
Language: es
Country: ES
--></g></svg>