<?xml version="1.0" encoding="UTF-8" standalone="no"?><svg xmlns="http://www.w3.org/2000/svg" xmlns:xlink="http://www.w3.org/1999/xlink" contentScriptType="application/ecmascript" contentStyleType="text/css" height="843px" preserveAspectRatio="none" style="width:1147px;height:843px;" version="1.1" viewBox="0 0 1147 843" width="1147px" zoomAndPan="magnify"><defs><filter height="300%" id="f1gyzzt2hnlbqe" width="300%" x="-1" y="-1"><feGaussianBlur result="blurOut" stdDeviation="2.0"/><feColorMatrix in="blurOut" result="blurOut2" type="matrix" values="0 0 0 0 0 0 0 0 0 0 0 0 0 0 0 0 0 0 .4 0"/><feOffset dx="4.0" dy="4.0" in="blurOut2" result="blurOut3"/><feBlend in="SourceGraphic" in2="blurOut3" mode="normal"/></filter></defs><g><!--cluster mastermind.models--><polygon fill="#FFFFFF" filter="url(#f1gyzzt2hnlbqe)" points="22,24,183,24,190,46.2969,1125,46.2969,1125,831,22,831,22,24" style="stroke: #000000; stroke-width: 1.5;"/><line style="stroke: #000000; stroke-width: 1.5;" x1="22" x2="190" y1="46.2969" y2="46.2969"/><text fill="#000000" font-family="sans-serif" font-size="14" font-weight="bold" lengthAdjust="spacingAndGlyphs" textLength="155" x="26" y="38.9951">mastermind.models</text><!--class mastermind.models.Color--><rect fill="#FEFECE" filter="url(#f1gyzzt2hnlbqe)" height="137.6328" id="mastermind.models.Color" style="stroke: #A80036; stroke-width: 1.5;" width="111" x="744.5" y="677"/><ellipse cx="780.65" cy="693" fill="#EB937F" rx="11" ry="11" style="stroke: #A80036; stroke-width: 1.0;"/><path d="M784.7594,699 L777.0406,699 L777.0406,686.6094 L784.7594,686.6094 L784.7594,688.7656 L779.4938,688.7656 L779.4938,691.4375 L784.2594,691.4375 L784.2594,693.5938 L779.4938,693.5938 L779.4938,696.8438 L784.7594,696.8438 L784.7594,699 Z "/><text fill="#000000" font-family="sans-serif" font-size="12" lengthAdjust="spacingAndGlyphs" textLength="32" x="799.35" y="697.1543">Color</text><line style="stroke: #A80036; stroke-width: 1.5;" x1="745.5" x2="854.5" y1="709" y2="709"/><ellipse cx="755.5" cy="720.9023" fill="none" rx="3" ry="3" style="stroke: #038048; stroke-width: 1.0;"/><text fill="#000000" font-family="sans-serif" font-size="11" lengthAdjust="spacingAndGlyphs" text-decoration="underline" textLength="60" x="764.5" y="723.2104">RED: Color</text><ellipse cx="755.5" cy="733.707" fill="none" rx="3" ry="3" style="stroke: #038048; stroke-width: 1.0;"/><text fill="#000000" font-family="sans-serif" font-size="11" lengthAdjust="spacingAndGlyphs" text-decoration="underline" textLength="67" x="764.5" y="736.0151">BLUE: Color</text><ellipse cx="755.5" cy="746.5117" fill="none" rx="3" ry="3" style="stroke: #038048; stroke-width: 1.0;"/><text fill="#000000" font-family="sans-serif" font-size="11" lengthAdjust="spacingAndGlyphs" text-decoration="underline" textLength="82" x="764.5" y="748.8198">YELLOW: Color</text><ellipse cx="755.5" cy="759.3164" fill="none" rx="3" ry="3" style="stroke: #038048; stroke-width: 1.0;"/><text fill="#000000" font-family="sans-serif" font-size="11" lengthAdjust="spacingAndGlyphs" text-decoration="underline" textLength="76" x="764.5" y="761.6245">GREEN: Color</text><ellipse cx="755.5" cy="772.1211" fill="none" rx="3" ry="3" style="stroke: #038048; stroke-width: 1.0;"/><text fill="#000000" font-family="sans-serif" font-size="11" lengthAdjust="spacingAndGlyphs" text-decoration="underline" textLength="85" x="764.5" y="774.4292">ORANGE: Color</text><ellipse cx="755.5" cy="784.9258" fill="none" rx="3" ry="3" style="stroke: #038048; stroke-width: 1.0;"/><text fill="#000000" font-family="sans-serif" font-size="11" lengthAdjust="spacingAndGlyphs" text-decoration="underline" textLength="80" x="764.5" y="787.2339">PURPLE: Color</text><line style="stroke: #A80036; stroke-width: 1.5;" x1="745.5" x2="854.5" y1="793.8281" y2="793.8281"/><text fill="#000000" font-family="sans-serif" font-size="11" lengthAdjust="spacingAndGlyphs" text-decoration="underline" textLength="65" x="750.5" y="808.0386">length(): int</text><!--class mastermind.models.Combination--><rect fill="#FEFECE" filter="url(#f1gyzzt2hnlbqe)" height="99.2188" id="mastermind.models.Combination" style="stroke: #A80036; stroke-width: 1.5;" width="137" x="971.5" y="116.5"/><ellipse cx="998.65" cy="132.5" fill="#A9DCDF" rx="11" ry="11" style="stroke: #A80036; stroke-width: 1.0;"/><path d="M998.7594,127.8438 L997.6031,132.9219 L999.9313,132.9219 L998.7594,127.8438 Z M997.275,125.6094 L1000.2594,125.6094 L1003.6188,138 L1001.1656,138 L1000.4,134.9375 L997.1188,134.9375 L996.3688,138 L993.9313,138 L997.275,125.6094 Z "/><text fill="#000000" font-family="sans-serif" font-size="12" font-style="italic" lengthAdjust="spacingAndGlyphs" textLength="78" x="1015.35" y="136.6543">Combination</text><line style="stroke: #A80036; stroke-width: 1.5;" x1="972.5" x2="1107.5" y1="148.5" y2="148.5"/><rect fill="none" height="6" style="stroke: #C82930; stroke-width: 1.0;" width="6" x="979.5" y="157.4023"/><text fill="#000000" font-family="sans-serif" font-size="11" lengthAdjust="spacingAndGlyphs" text-decoration="underline" textLength="57" x="991.5" y="162.7104">WIDTH: int</text><polygon fill="none" points="982.5,168.207,986.5,172.207,982.5,176.207,978.5,172.207" style="stroke: #B38D22; stroke-width: 1.0;"/><text fill="#000000" font-family="sans-serif" font-size="11" lengthAdjust="spacingAndGlyphs" textLength="111" x="991.5" y="175.5151">colors: List&lt;Color&gt;</text><line style="stroke: #A80036; stroke-width: 1.5;" x1="972.5" x2="1107.5" y1="182.1094" y2="182.1094"/><polygon fill="#FFFF44" points="982.5,189.0117,986.5,193.0117,982.5,197.0117,978.5,193.0117" style="stroke: #B38D22; stroke-width: 1.0;"/><text fill="#000000" font-family="sans-serif" font-size="11" lengthAdjust="spacingAndGlyphs" textLength="79" x="991.5" y="196.3198">Combination()</text><ellipse cx="982.5" cy="206.8164" fill="#84BE84" rx="3" ry="3" style="stroke: #038048; stroke-width: 1.0;"/><text fill="#000000" font-family="sans-serif" font-size="11" lengthAdjust="spacingAndGlyphs" text-decoration="underline" textLength="78" x="991.5" y="209.1245">getWidth(): int</text><!--class mastermind.models.Error--><rect fill="#FEFECE" filter="url(#f1gyzzt2hnlbqe)" height="86.4141" id="mastermind.models.Error" style="stroke: #A80036; stroke-width: 1.5;" width="185" x="751.5" y="123"/><ellipse cx="824.25" cy="139" fill="#EB937F" rx="11" ry="11" style="stroke: #A80036; stroke-width: 1.0;"/><path d="M828.3594,145 L820.6406,145 L820.6406,132.6094 L828.3594,132.6094 L828.3594,134.7656 L823.0938,134.7656 L823.0938,137.4375 L827.8594,137.4375 L827.8594,139.5938 L823.0938,139.5938 L823.0938,142.8438 L828.3594,142.8438 L828.3594,145 Z "/><text fill="#000000" font-family="sans-serif" font-size="12" lengthAdjust="spacingAndGlyphs" textLength="31" x="844.75" y="143.1543">Error</text><line style="stroke: #A80036; stroke-width: 1.5;" x1="752.5" x2="935.5" y1="155" y2="155"/><ellipse cx="762.5" cy="166.9023" fill="none" rx="3" ry="3" style="stroke: #038048; stroke-width: 1.0;"/><text fill="#000000" font-family="sans-serif" font-size="11" lengthAdjust="spacingAndGlyphs" text-decoration="underline" textLength="106" x="771.5" y="169.2104">DUPLICATED: Error</text><ellipse cx="762.5" cy="179.707" fill="none" rx="3" ry="3" style="stroke: #038048; stroke-width: 1.0;"/><text fill="#000000" font-family="sans-serif" font-size="11" lengthAdjust="spacingAndGlyphs" text-decoration="underline" textLength="159" x="771.5" y="182.0151">WRONG_CHARACTERS: Error</text><ellipse cx="762.5" cy="192.5117" fill="none" rx="3" ry="3" style="stroke: #038048; stroke-width: 1.0;"/><text fill="#000000" font-family="sans-serif" font-size="11" lengthAdjust="spacingAndGlyphs" text-decoration="underline" textLength="130" x="771.5" y="194.8198">WRONG_LENGTH: Error</text><line style="stroke: #A80036; stroke-width: 1.5;" x1="752.5" x2="935.5" y1="201.4141" y2="201.4141"/><!--class mastermind.models.Game--><rect fill="#FEFECE" filter="url(#f1gyzzt2hnlbqe)" height="214.4609" id="mastermind.models.Game" style="stroke: #A80036; stroke-width: 1.5;" width="465" x="251.5" y="59"/><ellipse cx="461.75" cy="75" fill="#ADD1B2" rx="11" ry="11" style="stroke: #A80036; stroke-width: 1.0;"/><path d="M464.7188,80.6406 Q464.1406,80.9375 463.5,81.0781 Q462.8594,81.2344 462.1563,81.2344 Q459.6563,81.2344 458.3281,79.5938 Q457.0156,77.9375 457.0156,74.8125 Q457.0156,71.6875 458.3281,70.0313 Q459.6563,68.375 462.1563,68.375 Q462.8594,68.375 463.5,68.5313 Q464.1563,68.6875 464.7188,68.9844 L464.7188,71.7031 Q464.0938,71.125 463.5,70.8594 Q462.9063,70.5781 462.2813,70.5781 Q460.9375,70.5781 460.25,71.6563 Q459.5625,72.7188 459.5625,74.8125 Q459.5625,76.9063 460.25,77.9844 Q460.9375,79.0469 462.2813,79.0469 Q462.9063,79.0469 463.5,78.7813 Q464.0938,78.5 464.7188,77.9219 L464.7188,80.6406 Z "/><text fill="#000000" font-family="sans-serif" font-size="12" lengthAdjust="spacingAndGlyphs" textLength="36" x="482.25" y="79.1543">Game</text><line style="stroke: #A80036; stroke-width: 1.5;" x1="252.5" x2="715.5" y1="91" y2="91"/><rect fill="none" height="6" style="stroke: #C82930; stroke-width: 1.0;" width="6" x="259.5" y="99.9023"/><text fill="#000000" font-family="sans-serif" font-size="11" lengthAdjust="spacingAndGlyphs" text-decoration="underline" textLength="111" x="271.5" y="105.2104">final MAX_LONG: int</text><rect fill="none" height="6" style="stroke: #C82930; stroke-width: 1.0;" width="6" x="259.5" y="112.707"/><text fill="#000000" font-family="sans-serif" font-size="11" lengthAdjust="spacingAndGlyphs" textLength="223" x="271.5" y="118.0151">secretCombination: SecretCombination</text><rect fill="none" height="6" style="stroke: #C82930; stroke-width: 1.0;" width="6" x="259.5" y="125.5117"/><text fill="#000000" font-family="sans-serif" font-size="11" lengthAdjust="spacingAndGlyphs" textLength="303" x="271.5" y="130.8198">proposedCombinations: List&lt;ProposedCombination&gt;</text><rect fill="none" height="6" style="stroke: #C82930; stroke-width: 1.0;" width="6" x="259.5" y="138.3164"/><text fill="#000000" font-family="sans-serif" font-size="11" lengthAdjust="spacingAndGlyphs" textLength="121" x="271.5" y="143.6245">results: List&lt;Result&gt;</text><rect fill="none" height="6" style="stroke: #C82930; stroke-width: 1.0;" width="6" x="259.5" y="151.1211"/><text fill="#000000" font-family="sans-serif" font-size="11" lengthAdjust="spacingAndGlyphs" textLength="73" x="271.5" y="156.4292">attempts: int</text><line style="stroke: #A80036; stroke-width: 1.5;" x1="252.5" x2="715.5" y1="163.0234" y2="163.0234"/><ellipse cx="262.5" cy="174.9258" fill="#84BE84" rx="3" ry="3" style="stroke: #038048; stroke-width: 1.0;"/><text fill="#000000" font-family="sans-serif" font-size="11" lengthAdjust="spacingAndGlyphs" textLength="42" x="271.5" y="177.2339">Game()</text><ellipse cx="262.5" cy="187.7305" fill="#84BE84" rx="3" ry="3" style="stroke: #038048; stroke-width: 1.0;"/><text fill="#000000" font-family="sans-serif" font-size="11" lengthAdjust="spacingAndGlyphs" textLength="67" x="271.5" y="190.0386">clear(): void</text><ellipse cx="262.5" cy="200.5352" fill="#84BE84" rx="3" ry="3" style="stroke: #038048; stroke-width: 1.0;"/><text fill="#000000" font-family="sans-serif" font-size="11" lengthAdjust="spacingAndGlyphs" textLength="439" x="271.5" y="202.8433">addProposedCombination(ProposedCombination proposedCombination): void</text><ellipse cx="262.5" cy="213.3398" fill="#84BE84" rx="3" ry="3" style="stroke: #038048; stroke-width: 1.0;"/><text fill="#000000" font-family="sans-serif" font-size="11" lengthAdjust="spacingAndGlyphs" textLength="110" x="271.5" y="215.6479">isLooser(): boolean</text><ellipse cx="262.5" cy="226.1445" fill="#84BE84" rx="3" ry="3" style="stroke: #038048; stroke-width: 1.0;"/><text fill="#000000" font-family="sans-serif" font-size="11" lengthAdjust="spacingAndGlyphs" textLength="109" x="271.5" y="228.4526">isWinner(): boolean</text><ellipse cx="262.5" cy="238.9492" fill="#84BE84" rx="3" ry="3" style="stroke: #038048; stroke-width: 1.0;"/><text fill="#000000" font-family="sans-serif" font-size="11" lengthAdjust="spacingAndGlyphs" textLength="99" x="271.5" y="241.2573">getAttempts(): int</text><ellipse cx="262.5" cy="251.7539" fill="#84BE84" rx="3" ry="3" style="stroke: #038048; stroke-width: 1.0;"/><text fill="#000000" font-family="sans-serif" font-size="11" lengthAdjust="spacingAndGlyphs" textLength="347" x="271.5" y="254.062">getProposedCombination(int position): ProposedCombination</text><ellipse cx="262.5" cy="264.5586" fill="#84BE84" rx="3" ry="3" style="stroke: #038048; stroke-width: 1.0;"/><text fill="#000000" font-family="sans-serif" font-size="11" lengthAdjust="spacingAndGlyphs" textLength="167" x="271.5" y="266.8667">getResult(int position): Result</text><!--class mastermind.models.SecretCombination--><rect fill="#FEFECE" filter="url(#f1gyzzt2hnlbqe)" height="73.6094" id="mastermind.models.SecretCombination" style="stroke: #A80036; stroke-width: 1.5;" width="241" x="666.5" y="345.5"/><ellipse cx="723.25" cy="361.5" fill="#ADD1B2" rx="11" ry="11" style="stroke: #A80036; stroke-width: 1.0;"/><path d="M726.2188,367.1406 Q725.6406,367.4375 725,367.5781 Q724.3594,367.7344 723.6563,367.7344 Q721.1563,367.7344 719.8281,366.0938 Q718.5156,364.4375 718.5156,361.3125 Q718.5156,358.1875 719.8281,356.5313 Q721.1563,354.875 723.6563,354.875 Q724.3594,354.875 725,355.0313 Q725.6563,355.1875 726.2188,355.4844 L726.2188,358.2031 Q725.5938,357.625 725,357.3594 Q724.4063,357.0781 723.7813,357.0781 Q722.4375,357.0781 721.75,358.1563 Q721.0625,359.2188 721.0625,361.3125 Q721.0625,363.4063 721.75,364.4844 Q722.4375,365.5469 723.7813,365.5469 Q724.4063,365.5469 725,365.2813 Q725.5938,365 726.2188,364.4219 L726.2188,367.1406 Z "/><text fill="#000000" font-family="sans-serif" font-size="12" lengthAdjust="spacingAndGlyphs" textLength="119" x="743.75" y="365.6543">SecretCombination</text><line style="stroke: #A80036; stroke-width: 1.5;" x1="667.5" x2="906.5" y1="377.5" y2="377.5"/><line style="stroke: #A80036; stroke-width: 1.5;" x1="667.5" x2="906.5" y1="385.5" y2="385.5"/><text fill="#000000" font-family="sans-serif" font-size="11" lengthAdjust="spacingAndGlyphs" textLength="116" x="672.5" y="399.7104">SecretCombination()</text><text fill="#000000" font-family="sans-serif" font-size="11" lengthAdjust="spacingAndGlyphs" textLength="229" x="672.5" y="412.5151">getResult(ProposedCombination): Result</text><!--class mastermind.models.Result--><rect fill="#FEFECE" filter="url(#f1gyzzt2hnlbqe)" height="124.8281" id="mastermind.models.Result" style="stroke: #A80036; stroke-width: 1.5;" width="135" x="868.5" y="492"/><ellipse cx="912.3" cy="508" fill="#ADD1B2" rx="11" ry="11" style="stroke: #A80036; stroke-width: 1.0;"/><path d="M915.2688,513.6406 Q914.6906,513.9375 914.05,514.0781 Q913.4094,514.2344 912.7063,514.2344 Q910.2063,514.2344 908.8781,512.5938 Q907.5656,510.9375 907.5656,507.8125 Q907.5656,504.6875 908.8781,503.0313 Q910.2063,501.375 912.7063,501.375 Q913.4094,501.375 914.05,501.5313 Q914.7063,501.6875 915.2688,501.9844 L915.2688,504.7031 Q914.6438,504.125 914.05,503.8594 Q913.4563,503.5781 912.8313,503.5781 Q911.4875,503.5781 910.8,504.6563 Q910.1125,505.7188 910.1125,507.8125 Q910.1125,509.9063 910.8,510.9844 Q911.4875,512.0469 912.8313,512.0469 Q913.4563,512.0469 914.05,511.7813 Q914.6438,511.5 915.2688,510.9219 L915.2688,513.6406 Z "/><text fill="#000000" font-family="sans-serif" font-size="12" lengthAdjust="spacingAndGlyphs" textLength="39" x="932.7" y="512.1543">Result</text><line style="stroke: #A80036; stroke-width: 1.5;" x1="869.5" x2="1002.5" y1="524" y2="524"/><rect fill="none" height="6" style="stroke: #C82930; stroke-width: 1.0;" width="6" x="876.5" y="532.9023"/><text fill="#000000" font-family="sans-serif" font-size="11" lengthAdjust="spacingAndGlyphs" textLength="58" x="888.5" y="538.2104">blacks: int</text><rect fill="none" height="6" style="stroke: #C82930; stroke-width: 1.0;" width="6" x="876.5" y="545.707"/><text fill="#000000" font-family="sans-serif" font-size="11" lengthAdjust="spacingAndGlyphs" textLength="59" x="888.5" y="551.0151">whites: int</text><line style="stroke: #A80036; stroke-width: 1.5;" x1="869.5" x2="1002.5" y1="557.6094" y2="557.6094"/><text fill="#000000" font-family="sans-serif" font-size="11" lengthAdjust="spacingAndGlyphs" textLength="79" x="888.5" y="571.8198">Result(int, int)</text><text fill="#000000" font-family="sans-serif" font-size="11" lengthAdjust="spacingAndGlyphs" textLength="109" x="888.5" y="584.6245">isWinner(): boolean</text><ellipse cx="879.5" cy="595.1211" fill="#84BE84" rx="3" ry="3" style="stroke: #038048; stroke-width: 1.0;"/><text fill="#000000" font-family="sans-serif" font-size="11" lengthAdjust="spacingAndGlyphs" textLength="85" x="888.5" y="597.4292">getBlacks(): int</text><ellipse cx="879.5" cy="607.9258" fill="#84BE84" rx="3" ry="3" style="stroke: #038048; stroke-width: 1.0;"/><text fill="#000000" font-family="sans-serif" font-size="11" lengthAdjust="spacingAndGlyphs" textLength="85" x="888.5" y="610.2339">getWhites(): int</text><!--class mastermind.models.ProposedCombination--><rect fill="#FEFECE" filter="url(#f1gyzzt2hnlbqe)" height="86.4141" id="mastermind.models.ProposedCombination" style="stroke: #A80036; stroke-width: 1.5;" width="268" x="496" y="511.5"/><ellipse cx="556.75" cy="527.5" fill="#ADD1B2" rx="11" ry="11" style="stroke: #A80036; stroke-width: 1.0;"/><path d="M559.7188,533.1406 Q559.1406,533.4375 558.5,533.5781 Q557.8594,533.7344 557.1563,533.7344 Q554.6563,533.7344 553.3281,532.0938 Q552.0156,530.4375 552.0156,527.3125 Q552.0156,524.1875 553.3281,522.5313 Q554.6563,520.875 557.1563,520.875 Q557.8594,520.875 558.5,521.0313 Q559.1563,521.1875 559.7188,521.4844 L559.7188,524.2031 Q559.0938,523.625 558.5,523.3594 Q557.9063,523.0781 557.2813,523.0781 Q555.9375,523.0781 555.25,524.1563 Q554.5625,525.2188 554.5625,527.3125 Q554.5625,529.4063 555.25,530.4844 Q555.9375,531.5469 557.2813,531.5469 Q557.9063,531.5469 558.5,531.2813 Q559.0938,531 559.7188,530.4219 L559.7188,533.1406 Z "/><text fill="#000000" font-family="sans-serif" font-size="12" lengthAdjust="spacingAndGlyphs" textLength="138" x="577.25" y="531.6543">ProposedCombination</text><line style="stroke: #A80036; stroke-width: 1.5;" x1="497" x2="763" y1="543.5" y2="543.5"/><line style="stroke: #A80036; stroke-width: 1.5;" x1="497" x2="763" y1="551.5" y2="551.5"/><text fill="#000000" font-family="sans-serif" font-size="11" lengthAdjust="spacingAndGlyphs" textLength="242" x="516" y="565.7104">contains(Color color, int position): boolean</text><text fill="#000000" font-family="sans-serif" font-size="11" lengthAdjust="spacingAndGlyphs" textLength="171" x="516" y="578.5151">contains(Color color): boolean</text><ellipse cx="507" cy="589.0117" fill="#84BE84" rx="3" ry="3" style="stroke: #038048; stroke-width: 1.0;"/><text fill="#000000" font-family="sans-serif" font-size="11" lengthAdjust="spacingAndGlyphs" textLength="139" x="516" y="591.3198">getColors(): List&lt;Color&gt;</text><!--class mastermind.models.State--><rect fill="#FEFECE" filter="url(#f1gyzzt2hnlbqe)" height="112.0234" id="mastermind.models.State" style="stroke: #A80036; stroke-width: 1.5;" width="178" x="38" y="110"/><ellipse cx="105.75" cy="126" fill="#ADD1B2" rx="11" ry="11" style="stroke: #A80036; stroke-width: 1.0;"/><path d="M108.7188,131.6406 Q108.1406,131.9375 107.5,132.0781 Q106.8594,132.2344 106.1563,132.2344 Q103.6563,132.2344 102.3281,130.5938 Q101.0156,128.9375 101.0156,125.8125 Q101.0156,122.6875 102.3281,121.0313 Q103.6563,119.375 106.1563,119.375 Q106.8594,119.375 107.5,119.5313 Q108.1563,119.6875 108.7188,119.9844 L108.7188,122.7031 Q108.0938,122.125 107.5,121.8594 Q106.9063,121.5781 106.2813,121.5781 Q104.9375,121.5781 104.25,122.6563 Q103.5625,123.7188 103.5625,125.8125 Q103.5625,127.9063 104.25,128.9844 Q104.9375,130.0469 106.2813,130.0469 Q106.9063,130.0469 107.5,129.7813 Q108.0938,129.5 108.7188,128.9219 L108.7188,131.6406 Z "/><text fill="#000000" font-family="sans-serif" font-size="12" lengthAdjust="spacingAndGlyphs" textLength="34" x="126.25" y="130.1543">State</text><line style="stroke: #A80036; stroke-width: 1.5;" x1="39" x2="215" y1="142" y2="142"/><rect fill="none" height="6" style="stroke: #C82930; stroke-width: 1.0;" width="6" x="46" y="150.9023"/><text fill="#000000" font-family="sans-serif" font-size="11" lengthAdjust="spacingAndGlyphs" textLength="129" x="58" y="156.2104">stateValue: StateValue</text><line style="stroke: #A80036; stroke-width: 1.5;" x1="39" x2="215" y1="162.8047" y2="162.8047"/><ellipse cx="49" cy="174.707" fill="#84BE84" rx="3" ry="3" style="stroke: #038048; stroke-width: 1.0;"/><text fill="#000000" font-family="sans-serif" font-size="11" lengthAdjust="spacingAndGlyphs" textLength="38" x="58" y="177.0151">State()</text><ellipse cx="49" cy="187.5117" fill="#84BE84" rx="3" ry="3" style="stroke: #038048; stroke-width: 1.0;"/><text fill="#000000" font-family="sans-serif" font-size="11" lengthAdjust="spacingAndGlyphs" textLength="69" x="58" y="189.8198">reset(): void</text><ellipse cx="49" cy="200.3164" fill="#84BE84" rx="3" ry="3" style="stroke: #038048; stroke-width: 1.0;"/><text fill="#000000" font-family="sans-serif" font-size="11" lengthAdjust="spacingAndGlyphs" textLength="63" x="58" y="202.6245">next(): void</text><ellipse cx="49" cy="213.1211" fill="#84BE84" rx="3" ry="3" style="stroke: #038048; stroke-width: 1.0;"/><text fill="#000000" font-family="sans-serif" font-size="11" lengthAdjust="spacingAndGlyphs" textLength="152" x="58" y="215.4292">getValueState():StateValue</text><!--class mastermind.models.StateValue--><rect fill="#FEFECE" filter="url(#f1gyzzt2hnlbqe)" height="99.2188" id="mastermind.models.StateValue" style="stroke: #A80036; stroke-width: 1.5;" width="144" x="55" y="333"/><ellipse cx="89.35" cy="349" fill="#EB937F" rx="11" ry="11" style="stroke: #A80036; stroke-width: 1.0;"/><path d="M93.4594,355 L85.7406,355 L85.7406,342.6094 L93.4594,342.6094 L93.4594,344.7656 L88.1938,344.7656 L88.1938,347.4375 L92.9594,347.4375 L92.9594,349.5938 L88.1938,349.5938 L88.1938,352.8438 L93.4594,352.8438 L93.4594,355 Z "/><text fill="#000000" font-family="sans-serif" font-size="12" lengthAdjust="spacingAndGlyphs" textLength="69" x="107.65" y="353.1543">StateValue</text><line style="stroke: #A80036; stroke-width: 1.5;" x1="56" x2="198" y1="365" y2="365"/><ellipse cx="66" cy="376.9023" fill="none" rx="3" ry="3" style="stroke: #038048; stroke-width: 1.0;"/><text fill="#000000" font-family="sans-serif" font-size="11" lengthAdjust="spacingAndGlyphs" text-decoration="underline" textLength="106" x="75" y="379.2104">INITIAL: StateValue</text><ellipse cx="66" cy="389.707" fill="none" rx="3" ry="3" style="stroke: #038048; stroke-width: 1.0;"/><text fill="#000000" font-family="sans-serif" font-size="11" lengthAdjust="spacingAndGlyphs" text-decoration="underline" textLength="118" x="75" y="392.0151">IN_GAME: StateValue</text><ellipse cx="66" cy="402.5117" fill="none" rx="3" ry="3" style="stroke: #038048; stroke-width: 1.0;"/><text fill="#000000" font-family="sans-serif" font-size="11" lengthAdjust="spacingAndGlyphs" text-decoration="underline" textLength="115" x="75" y="404.8198">RESUME: StateValue</text><ellipse cx="66" cy="415.3164" fill="none" rx="3" ry="3" style="stroke: #038048; stroke-width: 1.0;"/><text fill="#000000" font-family="sans-serif" font-size="11" lengthAdjust="spacingAndGlyphs" text-decoration="underline" textLength="93" x="75" y="417.6245">EXIT: StateValue</text><line style="stroke: #A80036; stroke-width: 1.5;" x1="56" x2="198" y1="424.2188" y2="424.2188"/><!--link mastermind.models.Combination to mastermind.models.Color--><path d="M1054.82,228.55 C1073.34,320.45 1094.39,495.68 1021,617 C987.4,672.55 919.93,706.43 868.34,725.26 " fill="none" id="mastermind.models.Combination-mastermind.models.Color" style="stroke: #A80036; stroke-width: 1.0;"/><polygon fill="#A80036" points="855.92,729.61,865.7364,730.4087,860.6387,727.9565,863.0909,722.8588,855.92,729.61" style="stroke: #A80036; stroke-width: 1.0;"/><line style="stroke: #A80036; stroke-width: 1.0;" x1="860.6387" x2="868.195" y1="727.9565" y2="725.305"/><polygon fill="#A80036" points="1052.12,215.61,1049.432,222.3014,1054.5748,227.3562,1057.2628,220.6648,1052.12,215.61" style="stroke: #A80036; stroke-width: 1.0;"/><!--link mastermind.models.Game to mastermind.models.SecretCombination--><path d="M644.93,280.93 C673.52,301.16 701.65,321.08 725.24,337.78 " fill="none" id="mastermind.models.Game-mastermind.models.SecretCombination" style="stroke: #A80036; stroke-width: 1.0;"/><polygon fill="#A80036" points="736.1,345.46,731.058,336.9996,732.0165,342.5746,726.4415,343.5331,736.1,345.46" style="stroke: #A80036; stroke-width: 1.0;"/><line style="stroke: #A80036; stroke-width: 1.0;" x1="732.0165" x2="725.485" y1="342.5746" y2="337.955"/><polygon fill="#A80036" points="634.17,273.31,636.7516,280.0432,643.9597,280.2499,641.3781,273.5167,634.17,273.31" style="stroke: #A80036; stroke-width: 1.0;"/><!--link mastermind.models.Game to mastermind.models.Result--><path d="M728.86,271.1 C730.58,271.74 732.29,272.37 734,273 C817.5,303.74 870.58,262.61 925,333 C956.43,373.66 957.96,432.21 952.28,478.76 " fill="none" id="mastermind.models.Game-mastermind.models.Result" style="stroke: #A80036; stroke-width: 1.0;"/><polygon fill="#A80036" points="950.46,491.86,955.6576,483.4943,951.1463,486.9073,947.7333,482.3961,950.46,491.86" style="stroke: #A80036; stroke-width: 1.0;"/><line style="stroke: #A80036; stroke-width: 1.0;" x1="951.1463" x2="952.25" y1="486.9073" y2="478.985"/><polygon fill="#A80036" points="716.59,266.49,720.8005,272.3442,727.8238,270.7093,723.6133,264.855,716.59,266.49" style="stroke: #A80036; stroke-width: 1.0;"/><!--link mastermind.models.Game to mastermind.models.ProposedCombination--><path d="M528.85,285.73 C555.67,356.73 588.48,443.59 609.32,498.74 " fill="none" id="mastermind.models.Game-mastermind.models.ProposedCombination" style="stroke: #A80036; stroke-width: 1.0;"/><polygon fill="#A80036" points="613.96,511.03,614.5161,501.1969,612.1905,506.3536,607.0338,504.028,613.96,511.03" style="stroke: #A80036; stroke-width: 1.0;"/><line style="stroke: #A80036; stroke-width: 1.0;" x1="612.1905" x2="609.365" y1="506.3536" y2="498.87"/><polygon fill="#A80036" points="524.09,273.12,522.465,280.1456,528.3252,284.3478,529.9502,277.3222,524.09,273.12" style="stroke: #A80036; stroke-width: 1.0;"/><!--link mastermind.models.Combination to mastermind.models.ProposedCombination--><path d="M999.24,231.81 C986.53,247.45 971.26,262.62 954,273 C835.63,344.23 741.26,230.17 649,333 C605.64,381.33 611.25,461.95 620.07,511.16 " fill="none" id="mastermind.models.Combination-mastermind.models.ProposedCombination" style="stroke: #A80036; stroke-width: 1.0;"/><polygon fill="none" points="993.89,227.28,1011.53,215.53,1005.07,235.71,993.89,227.28" style="stroke: #A80036; stroke-width: 1.0;"/><!--link mastermind.models.ProposedCombination to mastermind.models.Color--><path d="M667.73,597.56 C689.17,621.46 716.5,651.92 740.75,678.95 " fill="none" id="mastermind.models.ProposedCombination-mastermind.models.Color" style="stroke: #A80036; stroke-width: 1.0; stroke-dasharray: 7.0,7.0;"/><polygon fill="#A80036" points="744.3,682.91,741.2525,673.5445,740.9552,679.1935,735.3061,678.8962,744.3,682.91" style="stroke: #A80036; stroke-width: 1.0;"/><!--link mastermind.models.Result to mastermind.models.Combination--><path d="M952.61,491.75 C972.78,416.8 1006.46,291.64 1025.58,220.58 " fill="none" id="mastermind.models.Result-mastermind.models.Combination" style="stroke: #A80036; stroke-width: 1.0; stroke-dasharray: 7.0,7.0;"/><polygon fill="#A80036" points="1026.93,215.56,1020.7278,223.2106,1025.6301,220.3881,1028.4527,225.2904,1026.93,215.56" style="stroke: #A80036; stroke-width: 1.0;"/><!--link mastermind.models.Combination to mastermind.models.SecretCombination--><path d="M992.9,231.69 C981,246.06 967.7,260.68 954,273 C923.29,300.64 884.86,326.11 852.61,345.42 " fill="none" id="mastermind.models.Combination-mastermind.models.SecretCombination" style="stroke: #A80036; stroke-width: 1.0;"/><polygon fill="none" points="987.72,226.95,1005.67,215.69,998.66,235.69,987.72,226.95" style="stroke: #A80036; stroke-width: 1.0;"/><!--link mastermind.models.SecretCombination to mastermind.models.Result--><path d="M818.6,419.55 C835.96,439.36 858.04,464.55 878.35,487.73 " fill="none" id="mastermind.models.SecretCombination-mastermind.models.Result" style="stroke: #A80036; stroke-width: 1.0; stroke-dasharray: 7.0,7.0;"/><polygon fill="#A80036" points="881.86,491.73,878.9261,482.3283,878.5604,487.9733,872.9154,487.6076,881.86,491.73" style="stroke: #A80036; stroke-width: 1.0;"/><!--link mastermind.models.SecretCombination to mastermind.models.ProposedCombination--><path d="M753.7,419.55 C730.01,445.2 697.99,479.88 672.47,507.52 " fill="none" id="mastermind.models.SecretCombination-mastermind.models.ProposedCombination" style="stroke: #A80036; stroke-width: 1.0; stroke-dasharray: 7.0,7.0;"/><polygon fill="#A80036" points="669.07,511.2,678.1043,507.278,672.4525,507.5178,672.2127,501.866,669.07,511.2" style="stroke: #A80036; stroke-width: 1.0;"/><!--link mastermind.models.SecretCombination to mastermind.models.Color--><path d="M788.31,419.82 C790.41,478.39 794.6,594.88 797.35,671.35 " fill="none" id="mastermind.models.SecretCombination-mastermind.models.Color" style="stroke: #A80036; stroke-width: 1.0; stroke-dasharray: 7.0,7.0;"/><polygon fill="#A80036" points="797.55,676.79,801.2393,667.6582,797.3787,671.7929,793.244,667.9323,797.55,676.79" style="stroke: #A80036; stroke-width: 1.0;"/><!--link mastermind.models.State to mastermind.models.StateValue--><path d="M127,235.44 C127,262.37 127,293.08 127,319.36 " fill="none" id="mastermind.models.State-mastermind.models.StateValue" style="stroke: #A80036; stroke-width: 1.0;"/><polygon fill="#A80036" points="127,332.66,131,323.66,127,327.66,123,323.66,127,332.66" style="stroke: #A80036; stroke-width: 1.0;"/><line style="stroke: #A80036; stroke-width: 1.0;" x1="127" x2="127" y1="327.66" y2="319.66"/><polygon fill="#A80036" points="127,222.24,123,228.24,127,234.24,131,228.24,127,222.24" style="stroke: #A80036; stroke-width: 1.0;"/><!--
@startuml

enum mastermind.models.Color{
+ {static} RED: Color
+ {static} BLUE: Color
+ {static} YELLOW: Color
+ {static} GREEN: Color
+ {static} ORANGE: Color
+ {static} PURPLE: Color
{static} length(): int
}

abstract class mastermind.models.Combination{
- {static} WIDTH: int
# colors: List<Color>
# Combination()
+ {static} getWidth(): int
}
mastermind.models.Combination *-down-> mastermind.models.Color

enum mastermind.models.Error{
+ {static} DUPLICATED: Error
+ {static} WRONG_CHARACTERS: Error
+ {static} WRONG_LENGTH: Error
}

class  mastermind.models.Game{
- {static} final MAX_LONG: int
- secretCombination: SecretCombination
- proposedCombinations: List<ProposedCombination>
- results: List<Result>
- attempts: int
+ Game()
+ clear(): void
+ addProposedCombination(ProposedCombination proposedCombination): void
+ isLooser(): boolean
+ isWinner(): boolean
+ getAttempts(): int
+ getProposedCombination(int position): ProposedCombination
+ getResult(int position): Result
}
mastermind.models.Game *-down-> mastermind.models.SecretCombination
mastermind.models.Game *-down-> mastermind.models.Result
mastermind.models.Game *-down-> mastermind.models.ProposedCombination

class  mastermind.models.ProposedCombination extends mastermind.models.Combination {
contains(Color color, int position): boolean
contains(Color color): boolean
+ getColors(): List<Color>
}

mastermind.models.ProposedCombination .down.> mastermind.models.Color

class mastermind.models.Result{
- blacks: int
- whites: int
Result(int, int)
isWinner(): boolean
+ getBlacks(): int
+ getWhites(): int
}

mastermind.models.Result .down.> mastermind.models.Combination

class  mastermind.models.SecretCombination extends mastermind.models.Combination{
SecretCombination()
getResult(ProposedCombination): Result
}

mastermind.models.SecretCombination .down.> mastermind.models.Result
mastermind.models.SecretCombination .down.> mastermind.models.ProposedCombination
mastermind.models.SecretCombination .down.> mastermind.models.Color

class mastermind.models.State {
- stateValue: StateValue
+ State()
+ reset(): void
+ next(): void
+ getValueState():StateValue
}

mastermind.models.State *-down-> mastermind.models.StateValue

enum mastermind.models.StateValue {
+ {static} INITIAL: StateValue
+ {static} IN_GAME: StateValue
+ {static} RESUME: StateValue
+ {static} EXIT: StateValue
}
@enduml

PlantUML version 1.2019.05(Sat Apr 20 18:45:36 CEST 2019)
(GPL source distribution)
Java Runtime: OpenJDK Runtime Environment
JVM: OpenJDK 64-Bit Server VM
Java Version: 1.8.0_265-8u265-b01-0ubuntu2~20.04-b01
Operating System: Linux
OS Version: 5.4.0-51-generic
Default Encoding: UTF-8
Language: es
Country: ES
--></g></svg>