<?xml version="1.0" encoding="UTF-8" standalone="no"?><svg xmlns="http://www.w3.org/2000/svg" xmlns:xlink="http://www.w3.org/1999/xlink" contentScriptType="application/ecmascript" contentStyleType="text/css" height="753px" preserveAspectRatio="none" style="width:1008px;height:753px;" version="1.1" viewBox="0 0 1008 753" width="1008px" zoomAndPan="magnify"><defs><filter height="300%" id="f8rhvsk8gdvno" width="300%" x="-1" y="-1"><feGaussianBlur result="blurOut" stdDeviation="2.0"/><feColorMatrix in="blurOut" result="blurOut2" type="matrix" values="0 0 0 0 0 0 0 0 0 0 0 0 0 0 0 0 0 0 .4 0"/><feOffset dx="4.0" dy="4.0" in="blurOut2" result="blurOut3"/><feBlend in="SourceGraphic" in2="blurOut3" mode="normal"/></filter></defs><g><!--cluster mastermind--><polygon fill="#FFFFFF" filter="url(#f8rhvsk8gdvno)" points="433,24,532,24,539,46.2969,816,46.2969,816,295,433,295,433,24" style="stroke: #000000; stroke-width: 1.5;"/><line style="stroke: #000000; stroke-width: 1.5;" x1="433" x2="539" y1="46.2969" y2="46.2969"/><text fill="#000000" font-family="sans-serif" font-size="14" font-weight="bold" lengthAdjust="spacingAndGlyphs" textLength="93" x="437" y="38.9951">mastermind</text><!--cluster mastermind.controllers--><polygon fill="#FFFFFF" filter="url(#f8rhvsk8gdvno)" points="22,319,212,319,219,341.2969,589,341.2969,589,495,22,495,22,319" style="stroke: #000000; stroke-width: 1.5;"/><line style="stroke: #000000; stroke-width: 1.5;" x1="22" x2="219" y1="341.2969" y2="341.2969"/><text fill="#000000" font-family="sans-serif" font-size="14" font-weight="bold" lengthAdjust="spacingAndGlyphs" textLength="184" x="26" y="333.9951">mastermind.controllers</text><!--cluster mastermind.views.console--><polygon fill="#FFFFFF" filter="url(#f8rhvsk8gdvno)" points="496,642,713,642,720,664.2969,723,664.2969,723,741,496,741,496,642" style="stroke: #000000; stroke-width: 1.5;"/><line style="stroke: #000000; stroke-width: 1.5;" x1="496" x2="720" y1="664.2969" y2="664.2969"/><text fill="#000000" font-family="sans-serif" font-size="14" font-weight="bold" lengthAdjust="spacingAndGlyphs" textLength="211" x="500" y="656.9951">mastermind.views.console</text><!--cluster mastermind.views.graphics--><polygon fill="#FFFFFF" filter="url(#f8rhvsk8gdvno)" points="753,642,976,642,983,664.2969,986,664.2969,986,741,753,741,753,642" style="stroke: #000000; stroke-width: 1.5;"/><line style="stroke: #000000; stroke-width: 1.5;" x1="753" x2="983" y1="664.2969" y2="664.2969"/><text fill="#000000" font-family="sans-serif" font-size="14" font-weight="bold" lengthAdjust="spacingAndGlyphs" textLength="217" x="757" y="656.9951">mastermind.views.graphics</text><!--cluster mastermind.views--><polygon fill="#FFFFFF" filter="url(#f8rhvsk8gdvno)" points="660,519,810,519,817,541.2969,820,541.2969,820,618,660,618,660,519" style="stroke: #000000; stroke-width: 1.5;"/><line style="stroke: #000000; stroke-width: 1.5;" x1="660" x2="817" y1="541.2969" y2="541.2969"/><text fill="#000000" font-family="sans-serif" font-size="14" font-weight="bold" lengthAdjust="spacingAndGlyphs" textLength="144" x="664" y="533.9951">mastermind.views</text><!--class mastermind.Mastermind--><a href="Mastermind.html" target="_top" xlink:actuate="onRequest" xlink:show="new" xlink:title="Mastermind.html" xlink:type="simple"><rect fill="#FEFECE" filter="url(#f8rhvsk8gdvno)" height="86.4141" id="mastermind.Mastermind" style="stroke: #A80036; stroke-width: 1.5;" width="136" x="454" y="59"/><ellipse cx="483.4" cy="75" fill="#A9DCDF" rx="11" ry="11" style="stroke: #A80036; stroke-width: 1.0;"/><path d="M483.5094,70.3438 L482.3531,75.4219 L484.6813,75.4219 L483.5094,70.3438 Z M482.025,68.1094 L485.0094,68.1094 L488.3688,80.5 L485.9156,80.5 L485.15,77.4375 L481.8688,77.4375 L481.1188,80.5 L478.6813,80.5 L482.025,68.1094 Z "/><text fill="#000000" font-family="sans-serif" font-size="12" font-style="italic" lengthAdjust="spacingAndGlyphs" textLength="72" x="500.6" y="79.1543">Mastermind</text><line style="stroke: #A80036; stroke-width: 1.5;" x1="455" x2="589" y1="91" y2="91"/><polygon fill="none" points="465,97.9023,469,101.9023,465,105.9023,461,101.9023" style="stroke: #B38D22; stroke-width: 1.0;"/><text fill="#000000" font-family="sans-serif" font-size="11" lengthAdjust="spacingAndGlyphs" textLength="63" x="474" y="105.2104">logic: Logic</text><line style="stroke: #A80036; stroke-width: 1.5;" x1="455" x2="589" y1="111.8047" y2="111.8047"/><polygon fill="#FFFF44" points="465,118.707,469,122.707,465,126.707,461,122.707" style="stroke: #B38D22; stroke-width: 1.0;"/><text fill="#000000" font-family="sans-serif" font-size="11" lengthAdjust="spacingAndGlyphs" textLength="62" x="474" y="126.0151">play(): void</text><polygon fill="#FFFF44" points="465,131.5117,469,135.5117,465,139.5117,461,135.5117" style="stroke: #B38D22; stroke-width: 1.0;"/><text fill="#000000" font-family="sans-serif" font-size="11" font-style="italic" lengthAdjust="spacingAndGlyphs" textLength="110" x="474" y="138.8198">createLogic(): Logic</text></a><!--class mastermind.ConsoleMastermind--><a href="ConsoleMastermind.html" target="_top" xlink:actuate="onRequest" xlink:show="new" xlink:title="ConsoleMastermind.html" xlink:type="simple"><rect fill="#FEFECE" filter="url(#f8rhvsk8gdvno)" height="73.6094" id="mastermind.ConsoleMastermind" style="stroke: #A80036; stroke-width: 1.5;" width="155" x="449.5" y="205"/><ellipse cx="464.5" cy="221" fill="#ADD1B2" rx="11" ry="11" style="stroke: #A80036; stroke-width: 1.0;"/><path d="M467.4688,226.6406 Q466.8906,226.9375 466.25,227.0781 Q465.6094,227.2344 464.9063,227.2344 Q462.4063,227.2344 461.0781,225.5938 Q459.7656,223.9375 459.7656,220.8125 Q459.7656,217.6875 461.0781,216.0313 Q462.4063,214.375 464.9063,214.375 Q465.6094,214.375 466.25,214.5313 Q466.9063,214.6875 467.4688,214.9844 L467.4688,217.7031 Q466.8438,217.125 466.25,216.8594 Q465.6563,216.5781 465.0313,216.5781 Q463.6875,216.5781 463,217.6563 Q462.3125,218.7188 462.3125,220.8125 Q462.3125,222.9063 463,223.9844 Q463.6875,225.0469 465.0313,225.0469 Q465.6563,225.0469 466.25,224.7813 Q466.8438,224.5 467.4688,223.9219 L467.4688,226.6406 Z "/><text fill="#000000" font-family="sans-serif" font-size="12" lengthAdjust="spacingAndGlyphs" textLength="123" x="478.5" y="225.1543">ConsoleMastermind</text><line style="stroke: #A80036; stroke-width: 1.5;" x1="450.5" x2="603.5" y1="237" y2="237"/><line style="stroke: #A80036; stroke-width: 1.5;" x1="450.5" x2="603.5" y1="245" y2="245"/><polygon fill="#FFFF44" points="460.5,251.9023,464.5,255.9023,460.5,259.9023,456.5,255.9023" style="stroke: #B38D22; stroke-width: 1.0;"/><text fill="#000000" font-family="sans-serif" font-size="11" lengthAdjust="spacingAndGlyphs" textLength="110" x="469.5" y="259.2104">createLogic(): Logic</text><ellipse cx="460.5" cy="269.707" fill="#84BE84" rx="3" ry="3" style="stroke: #038048; stroke-width: 1.0;"/><text fill="#000000" font-family="sans-serif" font-size="11" lengthAdjust="spacingAndGlyphs" text-decoration="underline" textLength="109" x="469.5" y="272.0151">main(String[]): void</text></a><!--class mastermind.GraphicsMastermind--><a href="GraphicsMastermind.html" target="_top" xlink:actuate="onRequest" xlink:show="new" xlink:title="GraphicsMastermind.html" xlink:type="simple"><rect fill="#FEFECE" filter="url(#f8rhvsk8gdvno)" height="73.6094" id="mastermind.GraphicsMastermind" style="stroke: #A80036; stroke-width: 1.5;" width="160" x="640" y="205"/><ellipse cx="655" cy="221" fill="#ADD1B2" rx="11" ry="11" style="stroke: #A80036; stroke-width: 1.0;"/><path d="M657.9688,226.6406 Q657.3906,226.9375 656.75,227.0781 Q656.1094,227.2344 655.4063,227.2344 Q652.9063,227.2344 651.5781,225.5938 Q650.2656,223.9375 650.2656,220.8125 Q650.2656,217.6875 651.5781,216.0313 Q652.9063,214.375 655.4063,214.375 Q656.1094,214.375 656.75,214.5313 Q657.4063,214.6875 657.9688,214.9844 L657.9688,217.7031 Q657.3438,217.125 656.75,216.8594 Q656.1563,216.5781 655.5313,216.5781 Q654.1875,216.5781 653.5,217.6563 Q652.8125,218.7188 652.8125,220.8125 Q652.8125,222.9063 653.5,223.9844 Q654.1875,225.0469 655.5313,225.0469 Q656.1563,225.0469 656.75,224.7813 Q657.3438,224.5 657.9688,223.9219 L657.9688,226.6406 Z "/><text fill="#000000" font-family="sans-serif" font-size="12" lengthAdjust="spacingAndGlyphs" textLength="128" x="669" y="225.1543">GraphicsMastermind</text><line style="stroke: #A80036; stroke-width: 1.5;" x1="641" x2="799" y1="237" y2="237"/><line style="stroke: #A80036; stroke-width: 1.5;" x1="641" x2="799" y1="245" y2="245"/><polygon fill="#FFFF44" points="651,251.9023,655,255.9023,651,259.9023,647,255.9023" style="stroke: #B38D22; stroke-width: 1.0;"/><text fill="#000000" font-family="sans-serif" font-size="11" lengthAdjust="spacingAndGlyphs" textLength="110" x="660" y="259.2104">createLogic(): Logic</text><ellipse cx="651" cy="269.707" fill="#84BE84" rx="3" ry="3" style="stroke: #038048; stroke-width: 1.0;"/><text fill="#000000" font-family="sans-serif" font-size="11" lengthAdjust="spacingAndGlyphs" text-decoration="underline" textLength="109" x="660" y="272.0151">main(String[]): void</text></a><!--class mastermind.controllers.Logic--><a href="Logic.html" target="_top" xlink:actuate="onRequest" xlink:show="new" xlink:title="Logic.html" xlink:type="simple"><rect fill="#FEFECE" filter="url(#f8rhvsk8gdvno)" height="99.2188" id="mastermind.controllers.Logic" style="stroke: #A80036; stroke-width: 1.5;" width="353" x="219.5" y="367"/><ellipse cx="375.25" cy="383" fill="#A9DCDF" rx="11" ry="11" style="stroke: #A80036; stroke-width: 1.0;"/><path d="M375.3594,378.3438 L374.2031,383.4219 L376.5313,383.4219 L375.3594,378.3438 Z M373.875,376.1094 L376.8594,376.1094 L380.2188,388.5 L377.7656,388.5 L377,385.4375 L373.7188,385.4375 L372.9688,388.5 L370.5313,388.5 L373.875,376.1094 Z "/><text fill="#000000" font-family="sans-serif" font-size="12" font-style="italic" lengthAdjust="spacingAndGlyphs" textLength="33" x="395.75" y="387.1543">Logic</text><line style="stroke: #A80036; stroke-width: 1.5;" x1="220.5" x2="571.5" y1="399" y2="399"/><line style="stroke: #A80036; stroke-width: 1.5;" x1="220.5" x2="571.5" y1="407" y2="407"/><ellipse cx="230.5" cy="418.9023" fill="#84BE84" rx="3" ry="3" style="stroke: #038048; stroke-width: 1.0;"/><text fill="#000000" font-family="sans-serif" font-size="11" lengthAdjust="spacingAndGlyphs" textLength="197" x="239.5" y="421.2104">getController(): UseCaseController</text><ellipse cx="230.5" cy="431.707" fill="#84BE84" rx="3" ry="3" style="stroke: #038048; stroke-width: 1.0;"/><text fill="#000000" font-family="sans-serif" font-size="11" font-style="italic" lengthAdjust="spacingAndGlyphs" textLength="289" x="239.5" y="434.0151">createStartController(Game, State): StartController</text><ellipse cx="230.5" cy="444.5117" fill="#84BE84" rx="3" ry="3" style="stroke: #038048; stroke-width: 1.0;"/><text fill="#000000" font-family="sans-serif" font-size="11" font-style="italic" lengthAdjust="spacingAndGlyphs" textLength="283" x="239.5" y="446.8198">createPlayController(Game, State): PlayController</text><ellipse cx="230.5" cy="457.3164" fill="#84BE84" rx="3" ry="3" style="stroke: #038048; stroke-width: 1.0;"/><text fill="#000000" font-family="sans-serif" font-size="11" font-style="italic" lengthAdjust="spacingAndGlyphs" textLength="327" x="239.5" y="459.6245">createResumeController(Game, State): ResumeController</text></a><!--class mastermind.controllers.UseCaseController--><a href="UseCaseController.html" target="_top" xlink:actuate="onRequest" xlink:show="new" xlink:title="UseCaseController.html" xlink:type="simple"><rect fill="#FEFECE" filter="url(#f8rhvsk8gdvno)" height="124.8281" id="mastermind.controllers.UseCaseController" style="stroke: #A80036; stroke-width: 1.5;" width="146" x="38" y="354"/><ellipse cx="53" cy="370" fill="#A9DCDF" rx="11" ry="11" style="stroke: #A80036; stroke-width: 1.0;"/><path d="M53.1094,365.3438 L51.9531,370.4219 L54.2813,370.4219 L53.1094,365.3438 Z M51.625,363.1094 L54.6094,363.1094 L57.9688,375.5 L55.5156,375.5 L54.75,372.4375 L51.4688,372.4375 L50.7188,375.5 L48.2813,375.5 L51.625,363.1094 Z "/><text fill="#000000" font-family="sans-serif" font-size="12" font-style="italic" lengthAdjust="spacingAndGlyphs" textLength="114" x="67" y="374.1543">UseCaseController</text><line style="stroke: #A80036; stroke-width: 1.5;" x1="39" x2="183" y1="386" y2="386"/><polygon fill="none" points="49,392.9023,53,396.9023,49,400.9023,45,396.9023" style="stroke: #B38D22; stroke-width: 1.0;"/><text fill="#000000" font-family="sans-serif" font-size="11" lengthAdjust="spacingAndGlyphs" textLength="74" x="58" y="400.2104">game: Game</text><polygon fill="none" points="49,405.707,53,409.707,49,413.707,45,409.707" style="stroke: #B38D22; stroke-width: 1.0;"/><text fill="#000000" font-family="sans-serif" font-size="11" lengthAdjust="spacingAndGlyphs" textLength="67" x="58" y="413.0151">state: State</text><polygon fill="none" points="49,418.5117,53,422.5117,49,426.5117,45,422.5117" style="stroke: #B38D22; stroke-width: 1.0;"/><text fill="#000000" font-family="sans-serif" font-size="11" lengthAdjust="spacingAndGlyphs" textLength="59" x="58" y="425.8198">view: View</text><line style="stroke: #A80036; stroke-width: 1.5;" x1="39" x2="183" y1="432.4141" y2="432.4141"/><ellipse cx="49" cy="444.3164" fill="#84BE84" rx="3" ry="3" style="stroke: #038048; stroke-width: 1.0;"/><text fill="#000000" font-family="sans-serif" font-size="11" lengthAdjust="spacingAndGlyphs" textLength="63" x="58" y="446.6245">next(): void</text><ellipse cx="49" cy="457.1211" fill="#84BE84" rx="3" ry="3" style="stroke: #038048; stroke-width: 1.0;"/><text fill="#000000" font-family="sans-serif" font-size="11" font-style="italic" lengthAdjust="spacingAndGlyphs" textLength="106" x="58" y="459.4292">createView(): View</text><ellipse cx="49" cy="469.9258" fill="#84BE84" rx="3" ry="3" style="stroke: #038048; stroke-width: 1.0;"/><text fill="#000000" font-family="sans-serif" font-size="11" font-style="italic" lengthAdjust="spacingAndGlyphs" textLength="85" x="58" y="472.2339">execute(): void</text></a><!--class mastermind.views.console.ConsoleViewFactory--><rect fill="#FEFECE" filter="url(#f8rhvsk8gdvno)" height="48" id="mastermind.views.console.ConsoleViewFactory" style="stroke: #A80036; stroke-width: 1.5;" width="156" x="549" y="677"/><ellipse cx="564" cy="693" fill="#ADD1B2" rx="11" ry="11" style="stroke: #A80036; stroke-width: 1.0;"/><path d="M566.9688,698.6406 Q566.3906,698.9375 565.75,699.0781 Q565.1094,699.2344 564.4063,699.2344 Q561.9063,699.2344 560.5781,697.5938 Q559.2656,695.9375 559.2656,692.8125 Q559.2656,689.6875 560.5781,688.0313 Q561.9063,686.375 564.4063,686.375 Q565.1094,686.375 565.75,686.5313 Q566.4063,686.6875 566.9688,686.9844 L566.9688,689.7031 Q566.3438,689.125 565.75,688.8594 Q565.1563,688.5781 564.5313,688.5781 Q563.1875,688.5781 562.5,689.6563 Q561.8125,690.7188 561.8125,692.8125 Q561.8125,694.9063 562.5,695.9844 Q563.1875,697.0469 564.5313,697.0469 Q565.1563,697.0469 565.75,696.7813 Q566.3438,696.5 566.9688,695.9219 L566.9688,698.6406 Z "/><text fill="#000000" font-family="sans-serif" font-size="12" lengthAdjust="spacingAndGlyphs" textLength="124" x="578" y="697.1543">ConsoleViewFactory</text><line style="stroke: #A80036; stroke-width: 1.5;" x1="550" x2="704" y1="709" y2="709"/><line style="stroke: #A80036; stroke-width: 1.5;" x1="550" x2="704" y1="717" y2="717"/><!--class mastermind.views.graphics.GraphicsViewFactory--><rect fill="#FEFECE" filter="url(#f8rhvsk8gdvno)" height="48" id="mastermind.views.graphics.GraphicsViewFactory" style="stroke: #A80036; stroke-width: 1.5;" width="161" x="772.5" y="677"/><ellipse cx="787.5" cy="693" fill="#ADD1B2" rx="11" ry="11" style="stroke: #A80036; stroke-width: 1.0;"/><path d="M790.4688,698.6406 Q789.8906,698.9375 789.25,699.0781 Q788.6094,699.2344 787.9063,699.2344 Q785.4063,699.2344 784.0781,697.5938 Q782.7656,695.9375 782.7656,692.8125 Q782.7656,689.6875 784.0781,688.0313 Q785.4063,686.375 787.9063,686.375 Q788.6094,686.375 789.25,686.5313 Q789.9063,686.6875 790.4688,686.9844 L790.4688,689.7031 Q789.8438,689.125 789.25,688.8594 Q788.6563,688.5781 788.0313,688.5781 Q786.6875,688.5781 786,689.6563 Q785.3125,690.7188 785.3125,692.8125 Q785.3125,694.9063 786,695.9844 Q786.6875,697.0469 788.0313,697.0469 Q788.6563,697.0469 789.25,696.7813 Q789.8438,696.5 790.4688,695.9219 L790.4688,698.6406 Z "/><text fill="#000000" font-family="sans-serif" font-size="12" lengthAdjust="spacingAndGlyphs" textLength="129" x="801.5" y="697.1543">GraphicsViewFactory</text><line style="stroke: #A80036; stroke-width: 1.5;" x1="773.5" x2="932.5" y1="709" y2="709"/><line style="stroke: #A80036; stroke-width: 1.5;" x1="773.5" x2="932.5" y1="717" y2="717"/><!--class mastermind.views.ViewFactory--><rect fill="#FEFECE" filter="url(#f8rhvsk8gdvno)" height="48" id="mastermind.views.ViewFactory" style="stroke: #A80036; stroke-width: 1.5;" width="106" x="679" y="554"/><ellipse cx="694" cy="570" fill="#ADD1B2" rx="11" ry="11" style="stroke: #A80036; stroke-width: 1.0;"/><path d="M696.9688,575.6406 Q696.3906,575.9375 695.75,576.0781 Q695.1094,576.2344 694.4063,576.2344 Q691.9063,576.2344 690.5781,574.5938 Q689.2656,572.9375 689.2656,569.8125 Q689.2656,566.6875 690.5781,565.0313 Q691.9063,563.375 694.4063,563.375 Q695.1094,563.375 695.75,563.5313 Q696.4063,563.6875 696.9688,563.9844 L696.9688,566.7031 Q696.3438,566.125 695.75,565.8594 Q695.1563,565.5781 694.5313,565.5781 Q693.1875,565.5781 692.5,566.6563 Q691.8125,567.7188 691.8125,569.8125 Q691.8125,571.9063 692.5,572.9844 Q693.1875,574.0469 694.5313,574.0469 Q695.1563,574.0469 695.75,573.7813 Q696.3438,573.5 696.9688,572.9219 L696.9688,575.6406 Z "/><text fill="#000000" font-family="sans-serif" font-size="12" lengthAdjust="spacingAndGlyphs" textLength="74" x="708" y="574.1543">ViewFactory</text><line style="stroke: #A80036; stroke-width: 1.5;" x1="680" x2="784" y1="586" y2="586"/><line style="stroke: #A80036; stroke-width: 1.5;" x1="680" x2="784" y1="594" y2="594"/><!--link mastermind.Mastermind to mastermind.controllers.Logic--><path d="M466.16,155.19 C453.1,170.1 440.53,187.17 432,205 C409.6,251.83 400.93,310.4 397.68,353.86 " fill="none" id="mastermind.Mastermind-mastermind.controllers.Logic" style="stroke: #A80036; stroke-width: 1.0;"/><polygon fill="#A80036" points="396.83,366.84,401.4052,358.1183,397.1542,361.8505,393.422,357.5996,396.83,366.84" style="stroke: #A80036; stroke-width: 1.0;"/><line style="stroke: #A80036; stroke-width: 1.0;" x1="397.1542" x2="397.68" y1="361.8505" y2="353.865"/><polygon fill="#A80036" points="475.23,145.24,468.2325,146.9822,467.1494,154.1115,474.1469,152.3693,475.23,145.24" style="stroke: #A80036; stroke-width: 1.0;"/><!--link mastermind.Mastermind to mastermind.controllers.UseCaseController--><path d="M453.88,139.84 C386.36,178 281.78,241.68 202,311 C188.47,322.75 175.11,336.52 162.97,350.12 " fill="none" id="mastermind.Mastermind-mastermind.controllers.UseCaseController" style="stroke: #A80036; stroke-width: 1.0; stroke-dasharray: 7.0,7.0;"/><polygon fill="#A80036" points="159.57,353.96,168.5312,349.8738,162.8847,350.2167,162.5418,344.5702,159.57,353.96" style="stroke: #A80036; stroke-width: 1.0;"/><!--link mastermind.Mastermind to mastermind.ConsoleMastermind--><path d="M524.25,165.15 C524.74,178.68 525.25,192.56 525.68,204.7 " fill="none" id="mastermind.Mastermind-mastermind.ConsoleMastermind" style="stroke: #A80036; stroke-width: 1.0;"/><polygon fill="none" points="517.26,165.39,523.53,145.15,531.25,164.89,517.26,165.39" style="stroke: #A80036; stroke-width: 1.0;"/><!--link mastermind.Mastermind to mastermind.GraphicsMastermind--><path d="M599,156.67 C622.2,172.84 647.1,190.19 668.24,204.93 " fill="none" id="mastermind.Mastermind-mastermind.GraphicsMastermind" style="stroke: #A80036; stroke-width: 1.0;"/><polygon fill="none" points="594.89,162.33,582.48,145.15,602.89,150.85,594.89,162.33" style="stroke: #A80036; stroke-width: 1.0;"/><!--link mastermind.ConsoleMastermind to mastermind.controllers.Logic--><path d="M499.54,279.16 C481.16,303.36 456.68,335.6 436.13,362.65 " fill="none" id="mastermind.ConsoleMastermind-mastermind.controllers.Logic" style="stroke: #A80036; stroke-width: 1.0; stroke-dasharray: 7.0,7.0;"/><polygon fill="#A80036" points="432.87,366.95,441.5,362.2041,435.8951,362.9689,435.1302,357.364,432.87,366.95" style="stroke: #A80036; stroke-width: 1.0;"/><!--link mastermind.ConsoleMastermind to mastermind.views.console.ConsoleViewFactory--><path d="M567.58,279.03 C576.01,288.58 583.87,299.47 589,311 C644.5,435.84 636.21,604.93 630.13,671.44 " fill="none" id="mastermind.ConsoleMastermind-mastermind.views.console.ConsoleViewFactory" style="stroke: #A80036; stroke-width: 1.0; stroke-dasharray: 7.0,7.0;"/><polygon fill="#A80036" points="629.63,676.81,634.4351,668.2128,630.0865,671.8309,626.4685,667.4824,629.63,676.81" style="stroke: #A80036; stroke-width: 1.0;"/><!--link mastermind.GraphicsMastermind to mastermind.views.graphics.GraphicsViewFactory--><path d="M731.29,279.33 C747.22,330.78 777.01,427.87 801,511 C817.42,567.87 835.53,634.72 845.46,671.73 " fill="none" id="mastermind.GraphicsMastermind-mastermind.views.graphics.GraphicsViewFactory" style="stroke: #A80036; stroke-width: 1.0; stroke-dasharray: 7.0,7.0;"/><polygon fill="#A80036" points="846.86,676.96,848.3827,667.2296,845.5601,672.1319,840.6578,669.3094,846.86,676.96" style="stroke: #A80036; stroke-width: 1.0;"/><!--link mastermind.controllers.Logic to mastermind.views.ViewFactory--><path d="M498.18,466 C557.66,494.24 630.21,528.68 678.57,551.64 " fill="none" id="mastermind.controllers.Logic-mastermind.views.ViewFactory" style="stroke: #A80036; stroke-width: 1.0; stroke-dasharray: 7.0,7.0;"/><polygon fill="#A80036" points="683.17,553.82,676.7548,546.347,678.6531,551.6759,673.3242,553.5741,683.17,553.82" style="stroke: #A80036; stroke-width: 1.0;"/><!--link mastermind.views.ViewFactory to mastermind.views.graphics.GraphicsViewFactory--><path d="M769.47,616.47 C789.12,636.12 812.58,659.58 829.63,676.63 " fill="none" id="mastermind.views.ViewFactory-mastermind.views.graphics.GraphicsViewFactory" style="stroke: #A80036; stroke-width: 1.0; stroke-dasharray: 7.0,7.0;"/><polygon fill="none" points="764.24,621.14,755.04,602.04,774.14,611.24,764.24,621.14" style="stroke: #A80036; stroke-width: 1.0;"/><!--link mastermind.views.ViewFactory to mastermind.views.console.ConsoleViewFactory--><path d="M698.72,617.35 C681.83,636.82 661.85,659.83 647.28,676.63 " fill="none" id="mastermind.views.ViewFactory-mastermind.views.console.ConsoleViewFactory" style="stroke: #A80036; stroke-width: 1.0; stroke-dasharray: 7.0,7.0;"/><polygon fill="none" points="693.61,612.56,712,602.04,704.18,621.74,693.61,612.56" style="stroke: #A80036; stroke-width: 1.0;"/><!--
@startuml

abstract class mastermind.Mastermind [[Mastermind.html]] {
    #logic: Logic
    #play(): void
    {abstract} #createLogic(): Logic
}

class mastermind.ConsoleMastermind [[ConsoleMastermind.html]] {
    #createLogic(): Logic
    {static} +main(String[]): void
}

class mastermind.GraphicsMastermind [[GraphicsMastermind.html]] {
    #createLogic(): Logic
    {static} +main(String[]): void
}

mastermind.Mastermind *- -> mastermind.controllers.Logic

mastermind.Mastermind ..> mastermind.controllers.UseCaseController

mastermind.Mastermind <|- - mastermind.ConsoleMastermind

mastermind.Mastermind <|- - mastermind.GraphicsMastermind

mastermind.ConsoleMastermind ..> mastermind.controllers.Logic
mastermind.ConsoleMastermind ..> mastermind.views.console.ConsoleViewFactory

mastermind.GraphicsMastermind ..> mastermind.views.graphics.GraphicsViewFactory


abstract class mastermind.controllers.Logic [[Logic.html]] {
+getController(): UseCaseController
{abstract} +createStartController(Game, State): StartController
{abstract} +createPlayController(Game, State): PlayController
{abstract} +createResumeController(Game, State): ResumeController
}
mastermind.controllers.Logic ..> mastermind.views.ViewFactory
mastermind.views.ViewFactory <|..  mastermind.views.graphics.GraphicsViewFactory
mastermind.views.ViewFactory <|..  mastermind.views.console.ConsoleViewFactory

abstract class mastermind.controllers.UseCaseController [[UseCaseController.html]] {
    #game: Game
    #state: State
    #view: View
    +next(): void
    {abstract} +createView(): View
    {abstract} +execute(): void
}

@enduml

PlantUML version 1.2019.05(Sat Apr 20 18:45:36 CEST 2019)
(GPL source distribution)
Java Runtime: OpenJDK Runtime Environment
JVM: OpenJDK 64-Bit Server VM
Java Version: 1.8.0_265-8u265-b01-0ubuntu2~20.04-b01
Operating System: Linux
OS Version: 5.4.0-52-generic
Default Encoding: UTF-8
Language: es
Country: ES
--></g></svg>