<?xml version="1.0" encoding="UTF-8" standalone="no"?><svg xmlns="http://www.w3.org/2000/svg" xmlns:xlink="http://www.w3.org/1999/xlink" contentScriptType="application/ecmascript" contentStyleType="text/css" height="456px" preserveAspectRatio="none" style="width:998px;height:456px;" version="1.1" viewBox="0 0 998 456" width="998px" zoomAndPan="magnify"><defs><filter height="300%" id="f17dz1c9hywng" width="300%" x="-1" y="-1"><feGaussianBlur result="blurOut" stdDeviation="2.0"/><feColorMatrix in="blurOut" result="blurOut2" type="matrix" values="0 0 0 0 0 0 0 0 0 0 0 0 0 0 0 0 0 0 .4 0"/><feOffset dx="4.0" dy="4.0" in="blurOut2" result="blurOut3"/><feBlend in="SourceGraphic" in2="blurOut3" mode="normal"/></filter></defs><g><!--cluster mastermind--><polygon fill="#FFFFFF" filter="url(#f17dz1c9hywng)" points="129,24,228,24,235,46.2969,527,46.2969,527,321,129,321,129,24" style="stroke: #000000; stroke-width: 1.5;"/><line style="stroke: #000000; stroke-width: 1.5;" x1="129" x2="235" y1="46.2969" y2="46.2969"/><text fill="#000000" font-family="sans-serif" font-size="14" font-weight="bold" lengthAdjust="spacingAndGlyphs" textLength="93" x="133" y="38.9951">mastermind</text><!--cluster mastermind.views--><polygon fill="#FFFFFF" filter="url(#f17dz1c9hywng)" points="551,209,701,209,708,231.2969,711,231.2969,711,308,551,308,551,209" style="stroke: #000000; stroke-width: 1.5;"/><line style="stroke: #000000; stroke-width: 1.5;" x1="551" x2="708" y1="231.2969" y2="231.2969"/><text fill="#000000" font-family="sans-serif" font-size="14" font-weight="bold" lengthAdjust="spacingAndGlyphs" textLength="144" x="555" y="223.9951">mastermind.views</text><!--cluster mastermind.controllers--><polygon fill="#FFFFFF" filter="url(#f17dz1c9hywng)" points="530,345,720,345,727,367.2969,976,367.2969,976,444,530,444,530,345" style="stroke: #000000; stroke-width: 1.5;"/><line style="stroke: #000000; stroke-width: 1.5;" x1="530" x2="727" y1="367.2969" y2="367.2969"/><text fill="#000000" font-family="sans-serif" font-size="14" font-weight="bold" lengthAdjust="spacingAndGlyphs" textLength="184" x="534" y="359.9951">mastermind.controllers</text><!--cluster mastermind.views.graphics--><polygon fill="#FFFFFF" filter="url(#f17dz1c9hywng)" points="22,345,245,345,252,367.2969,255,367.2969,255,444,22,444,22,345" style="stroke: #000000; stroke-width: 1.5;"/><line style="stroke: #000000; stroke-width: 1.5;" x1="22" x2="252" y1="367.2969" y2="367.2969"/><text fill="#000000" font-family="sans-serif" font-size="14" font-weight="bold" lengthAdjust="spacingAndGlyphs" textLength="217" x="26" y="359.9951">mastermind.views.graphics</text><!--cluster mastermind.views.console--><polygon fill="#FFFFFF" filter="url(#f17dz1c9hywng)" points="279,345,496,345,503,367.2969,506,367.2969,506,444,279,444,279,345" style="stroke: #000000; stroke-width: 1.5;"/><line style="stroke: #000000; stroke-width: 1.5;" x1="279" x2="503" y1="367.2969" y2="367.2969"/><text fill="#000000" font-family="sans-serif" font-size="14" font-weight="bold" lengthAdjust="spacingAndGlyphs" textLength="211" x="283" y="359.9951">mastermind.views.console</text><!--class mastermind.Mastermind--><rect fill="#FEFECE" filter="url(#f17dz1c9hywng)" height="112.0234" id="mastermind.Mastermind" style="stroke: #A80036; stroke-width: 1.5;" width="132" x="379" y="59"/><ellipse cx="406.6" cy="75" fill="#A9DCDF" rx="11" ry="11" style="stroke: #A80036; stroke-width: 1.0;"/><path d="M406.7094,70.3438 L405.5531,75.4219 L407.8813,75.4219 L406.7094,70.3438 Z M405.225,68.1094 L408.2094,68.1094 L411.5688,80.5 L409.1156,80.5 L408.35,77.4375 L405.0688,77.4375 L404.3188,80.5 L401.8813,80.5 L405.225,68.1094 Z "/><text fill="#000000" font-family="sans-serif" font-size="12" font-style="italic" lengthAdjust="spacingAndGlyphs" textLength="72" x="423.4" y="79.1543">Mastermind</text><line style="stroke: #A80036; stroke-width: 1.5;" x1="380" x2="510" y1="91" y2="91"/><rect fill="none" height="6" style="stroke: #C82930; stroke-width: 1.0;" width="6" x="387" y="99.9023"/><text fill="#000000" font-family="sans-serif" font-size="11" lengthAdjust="spacingAndGlyphs" textLength="91" x="399" y="105.2104">final logic: Logic</text><rect fill="none" height="6" style="stroke: #C82930; stroke-width: 1.0;" width="6" x="387" y="112.707"/><text fill="#000000" font-family="sans-serif" font-size="11" lengthAdjust="spacingAndGlyphs" textLength="87" x="399" y="118.0151">final view: View</text><line style="stroke: #A80036; stroke-width: 1.5;" x1="380" x2="510" y1="124.6094" y2="124.6094"/><polygon fill="#FFFF44" points="390,131.5117,394,135.5117,390,139.5117,386,135.5117" style="stroke: #B38D22; stroke-width: 1.0;"/><text fill="#000000" font-family="sans-serif" font-size="11" lengthAdjust="spacingAndGlyphs" textLength="75" x="399" y="138.8198">Mastermind()</text><polygon fill="#FFFF44" points="390,144.3164,394,148.3164,390,152.3164,386,148.3164" style="stroke: #B38D22; stroke-width: 1.0;"/><text fill="#000000" font-family="sans-serif" font-size="11" font-style="italic" lengthAdjust="spacingAndGlyphs" textLength="106" x="399" y="151.6245">createView(): View</text><polygon fill="#FFFF44" points="390,157.1211,394,161.1211,390,165.1211,386,161.1211" style="stroke: #B38D22; stroke-width: 1.0;"/><text fill="#000000" font-family="sans-serif" font-size="11" lengthAdjust="spacingAndGlyphs" textLength="62" x="399" y="164.4292">play(): void</text><!--class mastermind.ConsoleMastermind--><rect fill="#FEFECE" filter="url(#f17dz1c9hywng)" height="73.6094" id="mastermind.ConsoleMastermind" style="stroke: #A80036; stroke-width: 1.5;" width="165" x="345.5" y="231"/><ellipse cx="365" cy="247" fill="#ADD1B2" rx="11" ry="11" style="stroke: #A80036; stroke-width: 1.0;"/><path d="M367.9688,252.6406 Q367.3906,252.9375 366.75,253.0781 Q366.1094,253.2344 365.4063,253.2344 Q362.9063,253.2344 361.5781,251.5938 Q360.2656,249.9375 360.2656,246.8125 Q360.2656,243.6875 361.5781,242.0313 Q362.9063,240.375 365.4063,240.375 Q366.1094,240.375 366.75,240.5313 Q367.4063,240.6875 367.9688,240.9844 L367.9688,243.7031 Q367.3438,243.125 366.75,242.8594 Q366.1563,242.5781 365.5313,242.5781 Q364.1875,242.5781 363.5,243.6563 Q362.8125,244.7188 362.8125,246.8125 Q362.8125,248.9063 363.5,249.9844 Q364.1875,251.0469 365.5313,251.0469 Q366.1563,251.0469 366.75,250.7813 Q367.3438,250.5 367.9688,249.9219 L367.9688,252.6406 Z "/><text fill="#000000" font-family="sans-serif" font-size="12" lengthAdjust="spacingAndGlyphs" textLength="123" x="380" y="251.1543">ConsoleMastermind</text><line style="stroke: #A80036; stroke-width: 1.5;" x1="346.5" x2="509.5" y1="263" y2="263"/><line style="stroke: #A80036; stroke-width: 1.5;" x1="346.5" x2="509.5" y1="271" y2="271"/><polygon fill="#FFFF44" points="356.5,277.9023,360.5,281.9023,356.5,285.9023,352.5,281.9023" style="stroke: #B38D22; stroke-width: 1.0;"/><text fill="#000000" font-family="sans-serif" font-size="11" lengthAdjust="spacingAndGlyphs" textLength="104" x="365.5" y="285.2104">createView(): View</text><ellipse cx="356.5" cy="295.707" fill="#84BE84" rx="3" ry="3" style="stroke: #038048; stroke-width: 1.0;"/><text fill="#000000" font-family="sans-serif" font-size="11" lengthAdjust="spacingAndGlyphs" text-decoration="underline" textLength="139" x="365.5" y="298.0151">main(String[] args): void</text><!--class mastermind.GraphicsMastermind--><rect fill="#FEFECE" filter="url(#f17dz1c9hywng)" height="73.6094" id="mastermind.GraphicsMastermind" style="stroke: #A80036; stroke-width: 1.5;" width="165" x="145.5" y="231"/><ellipse cx="162.75" cy="247" fill="#ADD1B2" rx="11" ry="11" style="stroke: #A80036; stroke-width: 1.0;"/><path d="M165.7188,252.6406 Q165.1406,252.9375 164.5,253.0781 Q163.8594,253.2344 163.1563,253.2344 Q160.6563,253.2344 159.3281,251.5938 Q158.0156,249.9375 158.0156,246.8125 Q158.0156,243.6875 159.3281,242.0313 Q160.6563,240.375 163.1563,240.375 Q163.8594,240.375 164.5,240.5313 Q165.1563,240.6875 165.7188,240.9844 L165.7188,243.7031 Q165.0938,243.125 164.5,242.8594 Q163.9063,242.5781 163.2813,242.5781 Q161.9375,242.5781 161.25,243.6563 Q160.5625,244.7188 160.5625,246.8125 Q160.5625,248.9063 161.25,249.9844 Q161.9375,251.0469 163.2813,251.0469 Q163.9063,251.0469 164.5,250.7813 Q165.0938,250.5 165.7188,249.9219 L165.7188,252.6406 Z "/><text fill="#000000" font-family="sans-serif" font-size="12" lengthAdjust="spacingAndGlyphs" textLength="128" x="177.25" y="251.1543">GraphicsMastermind</text><line style="stroke: #A80036; stroke-width: 1.5;" x1="146.5" x2="309.5" y1="263" y2="263"/><line style="stroke: #A80036; stroke-width: 1.5;" x1="146.5" x2="309.5" y1="271" y2="271"/><polygon fill="#FFFF44" points="156.5,277.9023,160.5,281.9023,156.5,285.9023,152.5,281.9023" style="stroke: #B38D22; stroke-width: 1.0;"/><text fill="#000000" font-family="sans-serif" font-size="11" lengthAdjust="spacingAndGlyphs" textLength="104" x="165.5" y="285.2104">createView(): View</text><ellipse cx="156.5" cy="295.707" fill="#84BE84" rx="3" ry="3" style="stroke: #038048; stroke-width: 1.0;"/><text fill="#000000" font-family="sans-serif" font-size="11" lengthAdjust="spacingAndGlyphs" text-decoration="underline" textLength="139" x="165.5" y="298.0151">main(String[] args): void</text><!--class mastermind.views.View--><rect fill="#FEFECE" filter="url(#f17dz1c9hywng)" height="48" id="mastermind.views.View" style="stroke: #A80036; stroke-width: 1.5;" width="60" x="567" y="244"/><ellipse cx="582" cy="260" fill="#ADD1B2" rx="11" ry="11" style="stroke: #A80036; stroke-width: 1.0;"/><path d="M584.9688,265.6406 Q584.3906,265.9375 583.75,266.0781 Q583.1094,266.2344 582.4063,266.2344 Q579.9063,266.2344 578.5781,264.5938 Q577.2656,262.9375 577.2656,259.8125 Q577.2656,256.6875 578.5781,255.0313 Q579.9063,253.375 582.4063,253.375 Q583.1094,253.375 583.75,253.5313 Q584.4063,253.6875 584.9688,253.9844 L584.9688,256.7031 Q584.3438,256.125 583.75,255.8594 Q583.1563,255.5781 582.5313,255.5781 Q581.1875,255.5781 580.5,256.6563 Q579.8125,257.7188 579.8125,259.8125 Q579.8125,261.9063 580.5,262.9844 Q581.1875,264.0469 582.5313,264.0469 Q583.1563,264.0469 583.75,263.7813 Q584.3438,263.5 584.9688,262.9219 L584.9688,265.6406 Z "/><text fill="#000000" font-family="sans-serif" font-size="12" lengthAdjust="spacingAndGlyphs" textLength="28" x="596" y="264.1543">View</text><line style="stroke: #A80036; stroke-width: 1.5;" x1="568" x2="626" y1="276" y2="276"/><line style="stroke: #A80036; stroke-width: 1.5;" x1="568" x2="626" y1="284" y2="284"/><!--class mastermind.controllers.Logic--><rect fill="#FEFECE" filter="url(#f17dz1c9hywng)" height="48" id="mastermind.controllers.Logic" style="stroke: #A80036; stroke-width: 1.5;" width="64" x="713" y="380"/><ellipse cx="728" cy="396" fill="#ADD1B2" rx="11" ry="11" style="stroke: #A80036; stroke-width: 1.0;"/><path d="M730.9688,401.6406 Q730.3906,401.9375 729.75,402.0781 Q729.1094,402.2344 728.4063,402.2344 Q725.9063,402.2344 724.5781,400.5938 Q723.2656,398.9375 723.2656,395.8125 Q723.2656,392.6875 724.5781,391.0313 Q725.9063,389.375 728.4063,389.375 Q729.1094,389.375 729.75,389.5313 Q730.4063,389.6875 730.9688,389.9844 L730.9688,392.7031 Q730.3438,392.125 729.75,391.8594 Q729.1563,391.5781 728.5313,391.5781 Q727.1875,391.5781 726.5,392.6563 Q725.8125,393.7188 725.8125,395.8125 Q725.8125,397.9063 726.5,398.9844 Q727.1875,400.0469 728.5313,400.0469 Q729.1563,400.0469 729.75,399.7813 Q730.3438,399.5 730.9688,398.9219 L730.9688,401.6406 Z "/><text fill="#000000" font-family="sans-serif" font-size="12" lengthAdjust="spacingAndGlyphs" textLength="32" x="742" y="400.1543">Logic</text><line style="stroke: #A80036; stroke-width: 1.5;" x1="714" x2="776" y1="412" y2="412"/><line style="stroke: #A80036; stroke-width: 1.5;" x1="714" x2="776" y1="420" y2="420"/><!--class mastermind.controllers.UseCaseController--><rect fill="#FEFECE" filter="url(#f17dz1c9hywng)" height="48" id="mastermind.controllers.UseCaseController" style="stroke: #A80036; stroke-width: 1.5;" width="148" x="812" y="380"/><ellipse cx="827" cy="396" fill="#ADD1B2" rx="11" ry="11" style="stroke: #A80036; stroke-width: 1.0;"/><path d="M829.9688,401.6406 Q829.3906,401.9375 828.75,402.0781 Q828.1094,402.2344 827.4063,402.2344 Q824.9063,402.2344 823.5781,400.5938 Q822.2656,398.9375 822.2656,395.8125 Q822.2656,392.6875 823.5781,391.0313 Q824.9063,389.375 827.4063,389.375 Q828.1094,389.375 828.75,389.5313 Q829.4063,389.6875 829.9688,389.9844 L829.9688,392.7031 Q829.3438,392.125 828.75,391.8594 Q828.1563,391.5781 827.5313,391.5781 Q826.1875,391.5781 825.5,392.6563 Q824.8125,393.7188 824.8125,395.8125 Q824.8125,397.9063 825.5,398.9844 Q826.1875,400.0469 827.5313,400.0469 Q828.1563,400.0469 828.75,399.7813 Q829.3438,399.5 829.9688,398.9219 L829.9688,401.6406 Z "/><text fill="#000000" font-family="sans-serif" font-size="12" lengthAdjust="spacingAndGlyphs" textLength="116" x="841" y="400.1543">UseCaseController</text><line style="stroke: #A80036; stroke-width: 1.5;" x1="813" x2="959" y1="412" y2="412"/><line style="stroke: #A80036; stroke-width: 1.5;" x1="813" x2="959" y1="420" y2="420"/><!--class mastermind.controllers.ControllerVisitor--><rect fill="#FEFECE" filter="url(#f17dz1c9hywng)" height="48" id="mastermind.controllers.ControllerVisitor" style="stroke: #A80036; stroke-width: 1.5;" width="132" x="546" y="380"/><ellipse cx="561" cy="396" fill="#ADD1B2" rx="11" ry="11" style="stroke: #A80036; stroke-width: 1.0;"/><path d="M563.9688,401.6406 Q563.3906,401.9375 562.75,402.0781 Q562.1094,402.2344 561.4063,402.2344 Q558.9063,402.2344 557.5781,400.5938 Q556.2656,398.9375 556.2656,395.8125 Q556.2656,392.6875 557.5781,391.0313 Q558.9063,389.375 561.4063,389.375 Q562.1094,389.375 562.75,389.5313 Q563.4063,389.6875 563.9688,389.9844 L563.9688,392.7031 Q563.3438,392.125 562.75,391.8594 Q562.1563,391.5781 561.5313,391.5781 Q560.1875,391.5781 559.5,392.6563 Q558.8125,393.7188 558.8125,395.8125 Q558.8125,397.9063 559.5,398.9844 Q560.1875,400.0469 561.5313,400.0469 Q562.1563,400.0469 562.75,399.7813 Q563.3438,399.5 563.9688,398.9219 L563.9688,401.6406 Z "/><text fill="#000000" font-family="sans-serif" font-size="12" lengthAdjust="spacingAndGlyphs" textLength="100" x="575" y="400.1543">ControllerVisitor</text><line style="stroke: #A80036; stroke-width: 1.5;" x1="547" x2="677" y1="412" y2="412"/><line style="stroke: #A80036; stroke-width: 1.5;" x1="547" x2="677" y1="420" y2="420"/><!--class mastermind.views.graphics.View--><rect fill="#FEFECE" filter="url(#f17dz1c9hywng)" height="48" id="mastermind.views.graphics.View" style="stroke: #A80036; stroke-width: 1.5;" width="60" x="179" y="380"/><ellipse cx="194" cy="396" fill="#ADD1B2" rx="11" ry="11" style="stroke: #A80036; stroke-width: 1.0;"/><path d="M196.9688,401.6406 Q196.3906,401.9375 195.75,402.0781 Q195.1094,402.2344 194.4063,402.2344 Q191.9063,402.2344 190.5781,400.5938 Q189.2656,398.9375 189.2656,395.8125 Q189.2656,392.6875 190.5781,391.0313 Q191.9063,389.375 194.4063,389.375 Q195.1094,389.375 195.75,389.5313 Q196.4063,389.6875 196.9688,389.9844 L196.9688,392.7031 Q196.3438,392.125 195.75,391.8594 Q195.1563,391.5781 194.5313,391.5781 Q193.1875,391.5781 192.5,392.6563 Q191.8125,393.7188 191.8125,395.8125 Q191.8125,397.9063 192.5,398.9844 Q193.1875,400.0469 194.5313,400.0469 Q195.1563,400.0469 195.75,399.7813 Q196.3438,399.5 196.9688,398.9219 L196.9688,401.6406 Z "/><text fill="#000000" font-family="sans-serif" font-size="12" lengthAdjust="spacingAndGlyphs" textLength="28" x="208" y="400.1543">View</text><line style="stroke: #A80036; stroke-width: 1.5;" x1="180" x2="238" y1="412" y2="412"/><line style="stroke: #A80036; stroke-width: 1.5;" x1="180" x2="238" y1="420" y2="420"/><!--class mastermind.views.console.View--><rect fill="#FEFECE" filter="url(#f17dz1c9hywng)" height="48" id="mastermind.views.console.View" style="stroke: #A80036; stroke-width: 1.5;" width="60" x="414" y="380"/><ellipse cx="429" cy="396" fill="#ADD1B2" rx="11" ry="11" style="stroke: #A80036; stroke-width: 1.0;"/><path d="M431.9688,401.6406 Q431.3906,401.9375 430.75,402.0781 Q430.1094,402.2344 429.4063,402.2344 Q426.9063,402.2344 425.5781,400.5938 Q424.2656,398.9375 424.2656,395.8125 Q424.2656,392.6875 425.5781,391.0313 Q426.9063,389.375 429.4063,389.375 Q430.1094,389.375 430.75,389.5313 Q431.4063,389.6875 431.9688,389.9844 L431.9688,392.7031 Q431.3438,392.125 430.75,391.8594 Q430.1563,391.5781 429.5313,391.5781 Q428.1875,391.5781 427.5,392.6563 Q426.8125,393.7188 426.8125,395.8125 Q426.8125,397.9063 427.5,398.9844 Q428.1875,400.0469 429.5313,400.0469 Q430.1563,400.0469 430.75,399.7813 Q431.3438,399.5 431.9688,398.9219 L431.9688,401.6406 Z "/><text fill="#000000" font-family="sans-serif" font-size="12" lengthAdjust="spacingAndGlyphs" textLength="28" x="443" y="400.1543">View</text><line style="stroke: #A80036; stroke-width: 1.5;" x1="415" x2="473" y1="412" y2="412"/><line style="stroke: #A80036; stroke-width: 1.5;" x1="415" x2="473" y1="420" y2="420"/><!--link mastermind.Mastermind to mastermind.ConsoleMastermind--><path d="M436.52,191.36 C434.96,205.15 433.41,218.95 432.06,230.91 " fill="none" id="mastermind.Mastermind-mastermind.ConsoleMastermind" style="stroke: #A80036; stroke-width: 1.0;"/><polygon fill="none" points="429.57,190.46,438.77,171.37,443.48,192.03,429.57,190.46" style="stroke: #A80036; stroke-width: 1.0;"/><!--link mastermind.Mastermind to mastermind.GraphicsMastermind--><path d="M362.28,173.56 C334.55,192.86 304.44,213.81 279.77,230.97 " fill="none" id="mastermind.Mastermind-mastermind.GraphicsMastermind" style="stroke: #A80036; stroke-width: 1.0;"/><polygon fill="none" points="358.3,167.8,378.71,162.13,366.3,179.29,358.3,167.8" style="stroke: #A80036; stroke-width: 1.0;"/><!--link mastermind.Mastermind to mastermind.views.View--><path d="M510.03,180.6 C528.84,199.29 548.57,218.89 564.47,234.69 " fill="none" id="mastermind.Mastermind-mastermind.views.View" style="stroke: #A80036; stroke-width: 1.0;"/><polygon fill="#A80036" points="573.84,243.99,570.2688,234.8114,570.2908,240.4682,564.6339,240.4902,573.84,243.99" style="stroke: #A80036; stroke-width: 1.0;"/><line style="stroke: #A80036; stroke-width: 1.0;" x1="570.2908" x2="564.615" y1="240.4682" y2="234.83"/><polygon fill="#A80036" points="500.74,171.37,502.1762,178.4366,509.2516,179.8289,507.8154,172.7622,500.74,171.37" style="stroke: #A80036; stroke-width: 1.0;"/><!--link mastermind.Mastermind to mastermind.controllers.Logic--><path d="M523.8,135.86 C563.36,149.04 609.79,169.79 643,201 C692.3,247.33 721.42,322.72 735.21,367.12 " fill="none" id="mastermind.Mastermind-mastermind.controllers.Logic" style="stroke: #A80036; stroke-width: 1.0;"/><polygon fill="#A80036" points="739,379.84,740.2616,370.0723,737.5713,375.0485,732.5952,372.3582,739,379.84" style="stroke: #A80036; stroke-width: 1.0;"/><line style="stroke: #A80036; stroke-width: 1.0;" x1="737.5713" x2="735.29" y1="375.0485" y2="367.38"/><polygon fill="#A80036" points="511.22,131.84,515.718,137.4763,522.6508,135.492,518.1527,129.8558,511.22,131.84" style="stroke: #A80036; stroke-width: 1.0;"/><!--link mastermind.Mastermind to mastermind.controllers.UseCaseController--><path d="M511.14,127.02 C567.31,138.67 648.24,161.07 709,201 C780.77,248.16 840.88,332.02 868.97,375.36 " fill="none" id="mastermind.Mastermind-mastermind.controllers.UseCaseController" style="stroke: #A80036; stroke-width: 1.0; stroke-dasharray: 7.0,7.0;"/><polygon fill="#A80036" points="871.75,379.68,870.2245,369.95,869.0361,375.4806,863.5055,374.2922,871.75,379.68" style="stroke: #A80036; stroke-width: 1.0;"/><!--link mastermind.GraphicsMastermind to mastermind.views.graphics.View--><path d="M222.86,305.26 C219.76,327.13 215.87,354.57 213,374.8 " fill="none" id="mastermind.GraphicsMastermind-mastermind.views.graphics.View" style="stroke: #A80036; stroke-width: 1.0; stroke-dasharray: 7.0,7.0;"/><polygon fill="#A80036" points="212.29,379.78,217.5091,371.4277,212.9891,374.8291,209.5877,370.3091,212.29,379.78" style="stroke: #A80036; stroke-width: 1.0;"/><!--link mastermind.ConsoleMastermind to mastermind.views.console.View--><path d="M432.33,305.26 C434.94,327.13 438.22,354.57 440.63,374.8 " fill="none" id="mastermind.ConsoleMastermind-mastermind.views.console.View" style="stroke: #A80036; stroke-width: 1.0; stroke-dasharray: 7.0,7.0;"/><polygon fill="#A80036" points="441.23,379.78,444.1196,370.3646,440.6292,374.8162,436.1775,371.3259,441.23,379.78" style="stroke: #A80036; stroke-width: 1.0;"/><!--link mastermind.views.View to mastermind.controllers.ControllerVisitor--><path d="M601.81,311.95 C603.52,327.26 605.45,344.5 607.17,359.82 " fill="none" id="mastermind.views.View-mastermind.controllers.ControllerVisitor" style="stroke: #A80036; stroke-width: 1.0; stroke-dasharray: 7.0,7.0;"/><polygon fill="#A80036" points="609.4,379.82,612.3728,370.4305,608.8431,374.8511,604.4225,371.3215,609.4,379.82" style="stroke: #A80036; stroke-width: 1.0;"/><line style="stroke: #A80036; stroke-width: 1.0;" x1="608.8431" x2="607.18" y1="374.8511" y2="359.94"/><polygon fill="none" points="594.85,312.69,599.58,292.04,608.76,311.13,594.85,312.69" style="stroke: #A80036; stroke-width: 1.0;"/><!--link mastermind.views.View to mastermind.views.console.View--><path d="M555.37,305.46 C533.7,324.44 507.28,347.58 485.61,366.55 " fill="none" id="mastermind.views.View-mastermind.views.console.View" style="stroke: #A80036; stroke-width: 1.0;"/><polygon fill="#A80036" points="470.47,379.82,479.876,376.9,474.2316,376.526,474.6056,370.8815,470.47,379.82" style="stroke: #A80036; stroke-width: 1.0;"/><line style="stroke: #A80036; stroke-width: 1.0;" x1="474.2316" x2="485.515" y1="376.526" y2="366.64"/><polygon fill="none" points="551.04,299.95,570.7,292.04,560.26,310.48,551.04,299.95" style="stroke: #A80036; stroke-width: 1.0;"/><!--link mastermind.views.View to mastermind.views.graphics.View--><path d="M562.87,305.87 C552.31,315.03 540,323.73 527,329 C500.38,339.79 426.16,331.32 398,337 C348.9,346.9 295.2,366.57 257.62,381.87 " fill="none" id="mastermind.views.View-mastermind.views.graphics.View" style="stroke: #A80036; stroke-width: 1.0;"/><polygon fill="#A80036" points="239.05,389.61,248.8962,389.8391,243.6651,387.6862,245.8181,382.455,239.05,389.61" style="stroke: #A80036; stroke-width: 1.0;"/><line style="stroke: #A80036; stroke-width: 1.0;" x1="243.6651" x2="257.505" y1="387.6862" y2="381.915"/><polygon fill="none" points="558.11,300.73,577.42,292.01,567.77,310.87,558.11,300.73" style="stroke: #A80036; stroke-width: 1.0;"/><!--
@startuml

abstract class  mastermind.Mastermind{
- final logic: Logic
- final view: View
# Mastermind()
# {abstract} createView(): View
# play(): void
}

class mastermind.ConsoleMastermind extends mastermind.Mastermind{
# createView(): View
+ {static} main(String[] args): void
}

class mastermind.GraphicsMastermind extends mastermind.Mastermind{
# createView(): View
+ {static} main(String[] args): void
}

mastermind.Mastermind *-down-> mastermind.views.View
mastermind.Mastermind *-down-> mastermind.controllers.Logic
mastermind.Mastermind .down.> mastermind.controllers.UseCaseController

mastermind.GraphicsMastermind .down.> mastermind.views.graphics.View

mastermind.ConsoleMastermind .down.> mastermind.views.console.View

mastermind.views.View <|.down.> mastermind.controllers.ControllerVisitor
mastermind.views.View <|-down-> mastermind.views.console.View
mastermind.views.View <|-down-> mastermind.views.graphics.View
@enduml

PlantUML version 1.2019.05(Sat Apr 20 18:45:36 CEST 2019)
(GPL source distribution)
Java Runtime: OpenJDK Runtime Environment
JVM: OpenJDK 64-Bit Server VM
Java Version: 1.8.0_265-8u265-b01-0ubuntu2~20.04-b01
Operating System: Linux
OS Version: 5.4.0-51-generic
Default Encoding: UTF-8
Language: es
Country: ES
--></g></svg>