<?xml version="1.0" encoding="UTF-8" standalone="no"?><svg xmlns="http://www.w3.org/2000/svg" xmlns:xlink="http://www.w3.org/1999/xlink" contentScriptType="application/ecmascript" contentStyleType="text/css" height="578px" preserveAspectRatio="none" style="width:800px;height:578px;" version="1.1" viewBox="0 0 800 578" width="800px" zoomAndPan="magnify"><defs><filter height="300%" id="f4n0ecgn818bs" width="300%" x="-1" y="-1"><feGaussianBlur result="blurOut" stdDeviation="2.0"/><feColorMatrix in="blurOut" result="blurOut2" type="matrix" values="0 0 0 0 0 0 0 0 0 0 0 0 0 0 0 0 0 0 .4 0"/><feOffset dx="4.0" dy="4.0" in="blurOut2" result="blurOut3"/><feBlend in="SourceGraphic" in2="blurOut3" mode="normal"/></filter></defs><g><!--cluster mastermind.controllers--><polygon fill="#DDDDDD" filter="url(#f4n0ecgn818bs)" points="126.5,85,316.5,85,323.5,107.2969,777.5,107.2969,777.5,205,126.5,205,126.5,85" style="stroke: #000000; stroke-width: 1.5;"/><line style="stroke: #000000; stroke-width: 1.5;" x1="126.5" x2="323.5" y1="107.2969" y2="107.2969"/><text fill="#000000" font-family="sans-serif" font-size="14" font-weight="bold" lengthAdjust="spacingAndGlyphs" textLength="184" x="130.5" y="99.9951">mastermind.controllers</text><!--cluster mastermind.views--><polygon fill="#DDDDDD" filter="url(#f4n0ecgn818bs)" points="208.5,245,358.5,245,365.5,267.2969,778.5,267.2969,778.5,365,208.5,365,208.5,245" style="stroke: #000000; stroke-width: 1.5;"/><line style="stroke: #000000; stroke-width: 1.5;" x1="208.5" x2="365.5" y1="267.2969" y2="267.2969"/><text fill="#000000" font-family="sans-serif" font-size="14" font-weight="bold" lengthAdjust="spacingAndGlyphs" textLength="144" x="212.5" y="259.9951">mastermind.views</text><polygon fill="#DDDDDD" filter="url(#f4n0ecgn818bs)" points="78,8,177,8,184,30.2969,191,30.2969,191,60.5938,78,60.5938,78,8" style="stroke: #000000; stroke-width: 1.5;"/><line style="stroke: #000000; stroke-width: 1.5;" x1="78" x2="184" y1="30.2969" y2="30.2969"/><text fill="#000000" font-family="sans-serif" font-size="14" font-weight="bold" lengthAdjust="spacingAndGlyphs" textLength="93" x="82" y="22.9951">mastermind</text><polygon fill="#FFFFFF" filter="url(#f4n0ecgn818bs)" points="482,128,739,128,746,150.2969,753,150.2969,753,180.5938,482,180.5938,482,128" style="stroke: #000000; stroke-width: 1.5;"/><line style="stroke: #000000; stroke-width: 1.5;" x1="482" x2="746" y1="150.2969" y2="150.2969"/><text fill="#000000" font-family="sans-serif" font-size="14" font-weight="bold" lengthAdjust="spacingAndGlyphs" textLength="251" x="486" y="142.9951">mastermind.controllers.console</text><polygon fill="#FFFFFF" filter="url(#f4n0ecgn818bs)" points="170,128,433,128,440,150.2969,447,150.2969,447,180.5938,170,180.5938,170,128" style="stroke: #000000; stroke-width: 1.5;"/><line style="stroke: #000000; stroke-width: 1.5;" x1="170" x2="440" y1="150.2969" y2="150.2969"/><text fill="#000000" font-family="sans-serif" font-size="14" font-weight="bold" lengthAdjust="spacingAndGlyphs" textLength="257" x="174" y="142.9951">mastermind.controllers.graphics</text><polygon fill="#DDDDDD" filter="url(#f4n0ecgn818bs)" points="6,288,167,288,174,310.2969,181,310.2969,181,340.5938,6,340.5938,6,288" style="stroke: #000000; stroke-width: 1.5;"/><line style="stroke: #000000; stroke-width: 1.5;" x1="6" x2="174" y1="310.2969" y2="310.2969"/><text fill="#000000" font-family="sans-serif" font-size="14" font-weight="bold" lengthAdjust="spacingAndGlyphs" textLength="155" x="10" y="302.9951">mastermind.models</text><polygon fill="#FFFFFF" filter="url(#f4n0ecgn818bs)" points="53.5,401,119.5,401,126.5,423.2969,133.5,423.2969,133.5,453.5938,53.5,453.5938,53.5,401" style="stroke: #000000; stroke-width: 1.5;"/><line style="stroke: #000000; stroke-width: 1.5;" x1="53.5" x2="126.5" y1="423.2969" y2="423.2969"/><text fill="#000000" font-family="sans-serif" font-size="14" font-weight="bold" lengthAdjust="spacingAndGlyphs" textLength="60" x="57.5" y="415.9951">java.util</text><polygon fill="#DDDDDD" filter="url(#f4n0ecgn818bs)" points="564,401,701,401,708,423.2969,715,423.2969,715,453.5938,564,453.5938,564,401" style="stroke: #000000; stroke-width: 1.5;"/><line style="stroke: #000000; stroke-width: 1.5;" x1="564" x2="708" y1="423.2969" y2="423.2969"/><text fill="#000000" font-family="sans-serif" font-size="14" font-weight="bold" lengthAdjust="spacingAndGlyphs" textLength="131" x="568" y="415.9951">mastermind.utils</text><polygon fill="#FFFFFF" filter="url(#f4n0ecgn818bs)" points="604.5,514,660.5,514,667.5,536.2969,674.5,536.2969,674.5,566.5938,604.5,566.5938,604.5,514" style="stroke: #000000; stroke-width: 1.5;"/><line style="stroke: #000000; stroke-width: 1.5;" x1="604.5" x2="667.5" y1="536.2969" y2="536.2969"/><text fill="#000000" font-family="sans-serif" font-size="14" font-weight="bold" lengthAdjust="spacingAndGlyphs" textLength="50" x="608.5" y="528.9951">java.io</text><polygon fill="#FFFFFF" filter="url(#f4n0ecgn818bs)" points="524,288,741,288,748,310.2969,755,310.2969,755,340.5938,524,340.5938,524,288" style="stroke: #000000; stroke-width: 1.5;"/><line style="stroke: #000000; stroke-width: 1.5;" x1="524" x2="748" y1="310.2969" y2="310.2969"/><text fill="#000000" font-family="sans-serif" font-size="14" font-weight="bold" lengthAdjust="spacingAndGlyphs" textLength="211" x="528" y="302.9951">mastermind.views.console</text><polygon fill="#FFFFFF" filter="url(#f4n0ecgn818bs)" points="252,288,475,288,482,310.2969,489,310.2969,489,340.5938,252,340.5938,252,288" style="stroke: #000000; stroke-width: 1.5;"/><line style="stroke: #000000; stroke-width: 1.5;" x1="252" x2="482" y1="310.2969" y2="310.2969"/><text fill="#000000" font-family="sans-serif" font-size="14" font-weight="bold" lengthAdjust="spacingAndGlyphs" textLength="217" x="256" y="302.9951">mastermind.views.graphics</text><!--link mastermind to mastermind.controllers--><path d="M134.5,61.1 C134.5,65.3025 134.5,69.8422 134.5,74.5758 C134.5,76.9425 134.5,79.3578 134.5,81.8036 C134.5,82.4151 134.5,83.0284 134.5,83.6434 C134.5,83.9509 134.5,84.2588 134.5,84.5671 " fill="none" id="mastermind-mastermind.controllers" style="stroke: #A80036; stroke-width: 1.0; stroke-dasharray: 7.0,7.0;"/><polygon fill="#A80036" points="134.5,84.5671,138.5,75.5671,134.5,79.5671,130.5,75.5671,134.5,84.5671" style="stroke: #A80036; stroke-width: 1.0;"/><!--link mastermind.controllers to mastermind.models--><path d="M126.4494,186.5301 C126.3579,186.8825 126.266,187.2369 126.1735,187.5933 C125.9885,188.3062 125.8015,189.0271 125.6125,189.7555 C125.2344,191.2124 124.8485,192.6995 124.4556,194.2136 C123.6699,197.2418 122.8561,200.3778 122.0213,203.595 C115.3425,229.3325 107.315,260.265 101.48,282.75 " fill="none" id="mastermind.controllers-mastermind.models" style="stroke: #A80036; stroke-width: 1.0; stroke-dasharray: 7.0,7.0;"/><polygon fill="#A80036" points="100.17,287.79,106.303,280.0838,101.4263,282.9504,98.5597,278.0737,100.17,287.79" style="stroke: #A80036; stroke-width: 1.0;"/><!--link mastermind.controllers to mastermind.views--><path d="M142.2551,205.1063 C142.3031,205.2114 142.3513,205.3163 142.3998,205.4211 C142.7879,206.2596 143.1941,207.0888 143.6194,207.9068 C144.4698,209.5427 145.3961,211.1339 146.4049,212.6647 C148.4225,215.7263 150.77,218.5463 153.5,221 C168.61,234.58 183.89,214.88 198.5,229 C201.8438,232.2313 204.6416,235.9191 206.9766,239.9055 C207.5604,240.9021 208.1153,241.9173 208.6425,242.9488 C208.9061,243.4645 209.1628,243.9843 209.4128,244.5078 C209.4753,244.6387 209.5373,244.7698 209.599,244.9011 " fill="none" id="mastermind.controllers-mastermind.views" style="stroke: #A80036; stroke-width: 1.0; stroke-dasharray: 7.0,7.0;"/><polygon fill="#A80036" points="209.599,244.9011,209.3957,235.0544,207.4744,240.375,202.1538,238.4537,209.599,244.9011" style="stroke: #A80036; stroke-width: 1.0;"/><!--link mastermind.models to java.util--><path d="M93.5,341.24 C93.5,357.5 93.5,378.58 93.5,395.71 " fill="none" id="mastermind.models-java.util" style="stroke: #A80036; stroke-width: 1.0; stroke-dasharray: 7.0,7.0;"/><polygon fill="#A80036" points="93.5,400.89,97.5257,391.9015,93.5143,395.89,89.5257,391.8786,93.5,400.89" style="stroke: #A80036; stroke-width: 1.0;"/><!--link mastermind.utils to java.io--><path d="M639.5,454.24 C639.5,470.5 639.5,491.58 639.5,508.71 " fill="none" id="mastermind.utils-java.io" style="stroke: #A80036; stroke-width: 1.0; stroke-dasharray: 7.0,7.0;"/><polygon fill="#A80036" points="639.5,513.89,643.5257,504.9015,639.5143,508.89,635.5257,504.8786,639.5,513.89" style="stroke: #A80036; stroke-width: 1.0;"/><!--link mastermind.views.console to mastermind.utils--><path d="M639.5,341.24 C639.5,357.5 639.5,378.58 639.5,395.71 " fill="none" id="mastermind.views.console-mastermind.utils" style="stroke: #A80036; stroke-width: 1.0; stroke-dasharray: 7.0,7.0;"/><polygon fill="#A80036" points="639.5,400.89,643.5257,391.9015,639.5143,395.89,635.5257,391.8786,639.5,400.89" style="stroke: #A80036; stroke-width: 1.0;"/><!--
@startuml

package mastermind #DDDDDD { }
mastermind .down.> mastermind.controllers

package mastermind.controllers #DDDDDD {
    package mastermind.controllers.console {}
    package mastermind.controllers.graphics {}
}
mastermind.controllers .down.> mastermind.models
mastermind.controllers .down.> mastermind.views

package mastermind.models #DDDDDD { }
package java.util{ }
mastermind.models .down.> java.util

package mastermind.utils #DDDDDD { }
package java.io{ }
mastermind.utils .down.> java.io

package mastermind.views #DDDDDD {
    package mastermind.views.console {}
    package mastermind.views.graphics {}
}
mastermind.views.console .down.> mastermind.utils

@enduml

PlantUML version 1.2019.05(Sat Apr 20 18:45:36 CEST 2019)
(GPL source distribution)
Java Runtime: OpenJDK Runtime Environment
JVM: OpenJDK 64-Bit Server VM
Java Version: 1.8.0_265-8u265-b01-0ubuntu2~20.04-b01
Operating System: Linux
OS Version: 5.4.0-52-generic
Default Encoding: UTF-8
Language: es
Country: ES
--></g></svg>