<?xml version="1.0" encoding="UTF-8" standalone="no"?><svg xmlns="http://www.w3.org/2000/svg" xmlns:xlink="http://www.w3.org/1999/xlink" contentScriptType="application/ecmascript" contentStyleType="text/css" height="494px" preserveAspectRatio="none" style="width:740px;height:494px;" version="1.1" viewBox="0 0 740 494" width="740px" zoomAndPan="magnify"><defs><filter height="300%" id="fbmbnd3tezfxf" width="300%" x="-1" y="-1"><feGaussianBlur result="blurOut" stdDeviation="2.0"/><feColorMatrix in="blurOut" result="blurOut2" type="matrix" values="0 0 0 0 0 0 0 0 0 0 0 0 0 0 0 0 0 0 .4 0"/><feOffset dx="4.0" dy="4.0" in="blurOut2" result="blurOut3"/><feBlend in="SourceGraphic" in2="blurOut3" mode="normal"/></filter></defs><g><!--cluster mastermind--><polygon fill="#FFFFFF" filter="url(#fbmbnd3tezfxf)" points="22,24,121,24,128,46.2969,230,46.2969,230,321,22,321,22,24" style="stroke: #000000; stroke-width: 1.5;"/><line style="stroke: #000000; stroke-width: 1.5;" x1="22" x2="128" y1="46.2969" y2="46.2969"/><text fill="#000000" font-family="sans-serif" font-size="14" font-weight="bold" lengthAdjust="spacingAndGlyphs" textLength="93" x="26" y="38.9951">mastermind</text><!--cluster mastermind.views--><polygon fill="#FFFFFF" filter="url(#fbmbnd3tezfxf)" points="254,209,404,209,411,231.2969,414,231.2969,414,308,254,308,254,209" style="stroke: #000000; stroke-width: 1.5;"/><line style="stroke: #000000; stroke-width: 1.5;" x1="254" x2="411" y1="231.2969" y2="231.2969"/><text fill="#000000" font-family="sans-serif" font-size="14" font-weight="bold" lengthAdjust="spacingAndGlyphs" textLength="144" x="258" y="223.9951">mastermind.views</text><!--cluster mastermind.controllers--><polygon fill="#FFFFFF" filter="url(#fbmbnd3tezfxf)" points="438,209,628,209,635,231.2969,718,231.2969,718,308,438,308,438,209" style="stroke: #000000; stroke-width: 1.5;"/><line style="stroke: #000000; stroke-width: 1.5;" x1="438" x2="635" y1="231.2969" y2="231.2969"/><text fill="#000000" font-family="sans-serif" font-size="14" font-weight="bold" lengthAdjust="spacingAndGlyphs" textLength="184" x="442" y="223.9951">mastermind.controllers</text><!--cluster mastermind.controllers.implementation--><polygon fill="#FFFFFF" filter="url(#fbmbnd3tezfxf)" points="118,345,434,345,441,367.2969,562,367.2969,562,482,118,482,118,345" style="stroke: #000000; stroke-width: 1.5;"/><line style="stroke: #000000; stroke-width: 1.5;" x1="118" x2="441" y1="367.2969" y2="367.2969"/><text fill="#000000" font-family="sans-serif" font-size="14" font-weight="bold" lengthAdjust="spacingAndGlyphs" textLength="310" x="122" y="359.9951">mastermind.controllers.implementation</text><!--class mastermind.Mastermind--><rect fill="#FEFECE" filter="url(#fbmbnd3tezfxf)" height="112.0234" id="mastermind.Mastermind" style="stroke: #A80036; stroke-width: 1.5;" width="132" x="82" y="59"/><ellipse cx="109.6" cy="75" fill="#A9DCDF" rx="11" ry="11" style="stroke: #A80036; stroke-width: 1.0;"/><path d="M109.7094,70.3438 L108.5531,75.4219 L110.8813,75.4219 L109.7094,70.3438 Z M108.225,68.1094 L111.2094,68.1094 L114.5688,80.5 L112.1156,80.5 L111.35,77.4375 L108.0688,77.4375 L107.3188,80.5 L104.8813,80.5 L108.225,68.1094 Z "/><text fill="#000000" font-family="sans-serif" font-size="12" font-style="italic" lengthAdjust="spacingAndGlyphs" textLength="72" x="126.4" y="79.1543">Mastermind</text><line style="stroke: #A80036; stroke-width: 1.5;" x1="83" x2="213" y1="91" y2="91"/><rect fill="none" height="6" style="stroke: #C82930; stroke-width: 1.0;" width="6" x="90" y="99.9023"/><text fill="#000000" font-family="sans-serif" font-size="11" lengthAdjust="spacingAndGlyphs" textLength="91" x="102" y="105.2104">final logic: Logic</text><rect fill="none" height="6" style="stroke: #C82930; stroke-width: 1.0;" width="6" x="90" y="112.707"/><text fill="#000000" font-family="sans-serif" font-size="11" lengthAdjust="spacingAndGlyphs" textLength="87" x="102" y="118.0151">final view: View</text><line style="stroke: #A80036; stroke-width: 1.5;" x1="83" x2="213" y1="124.6094" y2="124.6094"/><polygon fill="#FFFF44" points="93,131.5117,97,135.5117,93,139.5117,89,135.5117" style="stroke: #B38D22; stroke-width: 1.0;"/><text fill="#000000" font-family="sans-serif" font-size="11" lengthAdjust="spacingAndGlyphs" textLength="75" x="102" y="138.8198">Mastermind()</text><polygon fill="#FFFF44" points="93,144.3164,97,148.3164,93,152.3164,89,148.3164" style="stroke: #B38D22; stroke-width: 1.0;"/><text fill="#000000" font-family="sans-serif" font-size="11" font-style="italic" lengthAdjust="spacingAndGlyphs" textLength="106" x="102" y="151.6245">createView(): View</text><polygon fill="#FFFF44" points="93,157.1211,97,161.1211,93,165.1211,89,161.1211" style="stroke: #B38D22; stroke-width: 1.0;"/><text fill="#000000" font-family="sans-serif" font-size="11" lengthAdjust="spacingAndGlyphs" textLength="62" x="102" y="164.4292">play(): void</text><!--class mastermind.MastermindStandalone--><rect fill="#FEFECE" filter="url(#fbmbnd3tezfxf)" height="73.6094" id="mastermind.MastermindStandalone" style="stroke: #A80036; stroke-width: 1.5;" width="177" x="37.5" y="231"/><ellipse cx="52.5" cy="247" fill="#ADD1B2" rx="11" ry="11" style="stroke: #A80036; stroke-width: 1.0;"/><path d="M55.4688,252.6406 Q54.8906,252.9375 54.25,253.0781 Q53.6094,253.2344 52.9063,253.2344 Q50.4063,253.2344 49.0781,251.5938 Q47.7656,249.9375 47.7656,246.8125 Q47.7656,243.6875 49.0781,242.0313 Q50.4063,240.375 52.9063,240.375 Q53.6094,240.375 54.25,240.5313 Q54.9063,240.6875 55.4688,240.9844 L55.4688,243.7031 Q54.8438,243.125 54.25,242.8594 Q53.6563,242.5781 53.0313,242.5781 Q51.6875,242.5781 51,243.6563 Q50.3125,244.7188 50.3125,246.8125 Q50.3125,248.9063 51,249.9844 Q51.6875,251.0469 53.0313,251.0469 Q53.6563,251.0469 54.25,250.7813 Q54.8438,250.5 55.4688,249.9219 L55.4688,252.6406 Z "/><text fill="#000000" font-family="sans-serif" font-size="12" lengthAdjust="spacingAndGlyphs" textLength="145" x="66.5" y="251.1543">MastermindStandalone</text><line style="stroke: #A80036; stroke-width: 1.5;" x1="38.5" x2="213.5" y1="263" y2="263"/><line style="stroke: #A80036; stroke-width: 1.5;" x1="38.5" x2="213.5" y1="271" y2="271"/><polygon fill="#FFFF44" points="48.5,277.9023,52.5,281.9023,48.5,285.9023,44.5,281.9023" style="stroke: #B38D22; stroke-width: 1.0;"/><text fill="#000000" font-family="sans-serif" font-size="11" lengthAdjust="spacingAndGlyphs" textLength="110" x="57.5" y="285.2104">createLogic(): Logic</text><ellipse cx="48.5" cy="295.707" fill="#84BE84" rx="3" ry="3" style="stroke: #038048; stroke-width: 1.0;"/><text fill="#000000" font-family="sans-serif" font-size="11" lengthAdjust="spacingAndGlyphs" text-decoration="underline" textLength="109" x="57.5" y="298.0151">main(String[]): void</text><!--class mastermind.views.View--><rect fill="#FEFECE" filter="url(#fbmbnd3tezfxf)" height="48" id="mastermind.views.View" style="stroke: #A80036; stroke-width: 1.5;" width="60" x="270" y="244"/><ellipse cx="285" cy="260" fill="#ADD1B2" rx="11" ry="11" style="stroke: #A80036; stroke-width: 1.0;"/><path d="M287.9688,265.6406 Q287.3906,265.9375 286.75,266.0781 Q286.1094,266.2344 285.4063,266.2344 Q282.9063,266.2344 281.5781,264.5938 Q280.2656,262.9375 280.2656,259.8125 Q280.2656,256.6875 281.5781,255.0313 Q282.9063,253.375 285.4063,253.375 Q286.1094,253.375 286.75,253.5313 Q287.4063,253.6875 287.9688,253.9844 L287.9688,256.7031 Q287.3438,256.125 286.75,255.8594 Q286.1563,255.5781 285.5313,255.5781 Q284.1875,255.5781 283.5,256.6563 Q282.8125,257.7188 282.8125,259.8125 Q282.8125,261.9063 283.5,262.9844 Q284.1875,264.0469 285.5313,264.0469 Q286.1563,264.0469 286.75,263.7813 Q287.3438,263.5 287.9688,262.9219 L287.9688,265.6406 Z "/><text fill="#000000" font-family="sans-serif" font-size="12" lengthAdjust="spacingAndGlyphs" textLength="28" x="299" y="264.1543">View</text><line style="stroke: #A80036; stroke-width: 1.5;" x1="271" x2="329" y1="276" y2="276"/><line style="stroke: #A80036; stroke-width: 1.5;" x1="271" x2="329" y1="284" y2="284"/><!--class mastermind.controllers.Logic--><rect fill="#FEFECE" filter="url(#fbmbnd3tezfxf)" height="48" id="mastermind.controllers.Logic" style="stroke: #A80036; stroke-width: 1.5;" width="64" x="638" y="244"/><ellipse cx="653" cy="260" fill="#ADD1B2" rx="11" ry="11" style="stroke: #A80036; stroke-width: 1.0;"/><path d="M655.9688,265.6406 Q655.3906,265.9375 654.75,266.0781 Q654.1094,266.2344 653.4063,266.2344 Q650.9063,266.2344 649.5781,264.5938 Q648.2656,262.9375 648.2656,259.8125 Q648.2656,256.6875 649.5781,255.0313 Q650.9063,253.375 653.4063,253.375 Q654.1094,253.375 654.75,253.5313 Q655.4063,253.6875 655.9688,253.9844 L655.9688,256.7031 Q655.3438,256.125 654.75,255.8594 Q654.1563,255.5781 653.5313,255.5781 Q652.1875,255.5781 651.5,256.6563 Q650.8125,257.7188 650.8125,259.8125 Q650.8125,261.9063 651.5,262.9844 Q652.1875,264.0469 653.5313,264.0469 Q654.1563,264.0469 654.75,263.7813 Q655.3438,263.5 655.9688,262.9219 L655.9688,265.6406 Z "/><text fill="#000000" font-family="sans-serif" font-size="12" lengthAdjust="spacingAndGlyphs" textLength="32" x="667" y="264.1543">Logic</text><line style="stroke: #A80036; stroke-width: 1.5;" x1="639" x2="701" y1="276" y2="276"/><line style="stroke: #A80036; stroke-width: 1.5;" x1="639" x2="701" y1="284" y2="284"/><!--class mastermind.controllers.AcceptorController--><rect fill="#FEFECE" filter="url(#fbmbnd3tezfxf)" height="48" id="mastermind.controllers.AcceptorController" style="stroke: #A80036; stroke-width: 1.5;" width="149" x="453.5" y="244"/><ellipse cx="468.5" cy="260" fill="#ADD1B2" rx="11" ry="11" style="stroke: #A80036; stroke-width: 1.0;"/><path d="M471.4688,265.6406 Q470.8906,265.9375 470.25,266.0781 Q469.6094,266.2344 468.9063,266.2344 Q466.4063,266.2344 465.0781,264.5938 Q463.7656,262.9375 463.7656,259.8125 Q463.7656,256.6875 465.0781,255.0313 Q466.4063,253.375 468.9063,253.375 Q469.6094,253.375 470.25,253.5313 Q470.9063,253.6875 471.4688,253.9844 L471.4688,256.7031 Q470.8438,256.125 470.25,255.8594 Q469.6563,255.5781 469.0313,255.5781 Q467.6875,255.5781 467,256.6563 Q466.3125,257.7188 466.3125,259.8125 Q466.3125,261.9063 467,262.9844 Q467.6875,264.0469 469.0313,264.0469 Q469.6563,264.0469 470.25,263.7813 Q470.8438,263.5 471.4688,262.9219 L471.4688,265.6406 Z "/><text fill="#000000" font-family="sans-serif" font-size="12" lengthAdjust="spacingAndGlyphs" textLength="117" x="482.5" y="264.1543">AcceptorController</text><line style="stroke: #A80036; stroke-width: 1.5;" x1="454.5" x2="601.5" y1="276" y2="276"/><line style="stroke: #A80036; stroke-width: 1.5;" x1="454.5" x2="601.5" y1="284" y2="284"/><!--class mastermind.controllers.implementation.LogicImplementation--><rect fill="#FEFECE" filter="url(#fbmbnd3tezfxf)" height="86.4141" id="mastermind.controllers.implementation.LogicImplementation" style="stroke: #A80036; stroke-width: 1.5;" width="412" x="134" y="380"/><ellipse cx="271.25" cy="396" fill="#ADD1B2" rx="11" ry="11" style="stroke: #A80036; stroke-width: 1.0;"/><path d="M274.2188,401.6406 Q273.6406,401.9375 273,402.0781 Q272.3594,402.2344 271.6563,402.2344 Q269.1563,402.2344 267.8281,400.5938 Q266.5156,398.9375 266.5156,395.8125 Q266.5156,392.6875 267.8281,391.0313 Q269.1563,389.375 271.6563,389.375 Q272.3594,389.375 273,389.5313 Q273.6563,389.6875 274.2188,389.9844 L274.2188,392.7031 Q273.5938,392.125 273,391.8594 Q272.4063,391.5781 271.7813,391.5781 Q270.4375,391.5781 269.75,392.6563 Q269.0625,393.7188 269.0625,395.8125 Q269.0625,397.9063 269.75,398.9844 Q270.4375,400.0469 271.7813,400.0469 Q272.4063,400.0469 273,399.7813 Q273.5938,399.5 274.2188,398.9219 L274.2188,401.6406 Z "/><text fill="#000000" font-family="sans-serif" font-size="12" lengthAdjust="spacingAndGlyphs" textLength="129" x="291.75" y="400.1543">LogicImplementation</text><line style="stroke: #A80036; stroke-width: 1.5;" x1="135" x2="545" y1="412" y2="412"/><polygon fill="none" points="145,418.9023,149,422.9023,145,426.9023,141,422.9023" style="stroke: #B38D22; stroke-width: 1.0;"/><text fill="#000000" font-family="sans-serif" font-size="11" lengthAdjust="spacingAndGlyphs" textLength="351" x="154" y="426.2104">startControllerImplementation: StartControllerImplementation</text><polygon fill="none" points="145,431.707,149,435.707,145,439.707,141,435.707" style="stroke: #B38D22; stroke-width: 1.0;"/><text fill="#000000" font-family="sans-serif" font-size="11" lengthAdjust="spacingAndGlyphs" textLength="342" x="154" y="439.0151">playControllerImplementation: PlayControllerImplementation</text><polygon fill="none" points="145,444.5117,149,448.5117,145,452.5117,141,448.5117" style="stroke: #B38D22; stroke-width: 1.0;"/><text fill="#000000" font-family="sans-serif" font-size="11" lengthAdjust="spacingAndGlyphs" textLength="386" x="154" y="451.8198">resumeControllerImplementation: ResumeControllerImplementation</text><line style="stroke: #A80036; stroke-width: 1.5;" x1="135" x2="545" y1="458.4141" y2="458.4141"/><!--link mastermind.Mastermind to mastermind.views.View--><path d="M213.03,180.6 C231.84,199.29 251.57,218.89 267.47,234.69 " fill="none" id="mastermind.Mastermind-mastermind.views.View" style="stroke: #A80036; stroke-width: 1.0;"/><polygon fill="#A80036" points="276.84,243.99,273.2688,234.8114,273.2908,240.4682,267.6339,240.4902,276.84,243.99" style="stroke: #A80036; stroke-width: 1.0;"/><line style="stroke: #A80036; stroke-width: 1.0;" x1="273.2908" x2="267.615" y1="240.4682" y2="234.83"/><polygon fill="#A80036" points="203.74,171.37,205.1762,178.4366,212.2516,179.8289,210.8154,172.7622,203.74,171.37" style="stroke: #A80036; stroke-width: 1.0;"/><!--link mastermind.Mastermind to mastermind.controllers.Logic--><path d="M227.35,123.27 C344.13,135.13 555.42,161.38 620,201 C632.63,208.75 643.19,220.95 651.31,232.77 " fill="none" id="mastermind.Mastermind-mastermind.controllers.Logic" style="stroke: #A80036; stroke-width: 1.0;"/><polygon fill="#A80036" points="658.33,243.83,656.8884,234.0872,655.6524,239.6074,650.1322,238.3714,658.33,243.83" style="stroke: #A80036; stroke-width: 1.0;"/><line style="stroke: #A80036; stroke-width: 1.0;" x1="655.6524" x2="651.36" y1="239.6074" y2="232.855"/><polygon fill="#A80036" points="214.29,121.96,219.8602,126.5396,226.2299,123.1593,220.6597,118.5797,214.29,121.96" style="stroke: #A80036; stroke-width: 1.0;"/><!--link mastermind.Mastermind to mastermind.controllers.AcceptorController--><path d="M214.19,142.3 C284.79,170.36 395.8,214.47 465.11,242.01 " fill="none" id="mastermind.Mastermind-mastermind.controllers.AcceptorController" style="stroke: #A80036; stroke-width: 1.0; stroke-dasharray: 7.0,7.0;"/><polygon fill="#A80036" points="470.03,243.96,463.1593,236.9036,465.3876,242.103,460.1881,244.3314,470.03,243.96" style="stroke: #A80036; stroke-width: 1.0;"/><!--link mastermind.Mastermind to mastermind.MastermindStandalone--><path d="M137.02,191.36 C135.01,205.15 133,218.95 131.26,230.91 " fill="none" id="mastermind.Mastermind-mastermind.MastermindStandalone" style="stroke: #A80036; stroke-width: 1.0;"/><polygon fill="none" points="130.12,190.15,139.93,171.37,143.98,192.17,130.12,190.15" style="stroke: #A80036; stroke-width: 1.0;"/><!--link mastermind.MastermindStandalone to mastermind.controllers.implementation.LogicImplementation--><path d="M176.44,305.07 C206.48,326.54 244.87,353.98 276.9,376.89 " fill="none" id="mastermind.MastermindStandalone-mastermind.controllers.implementation.LogicImplementation" style="stroke: #A80036; stroke-width: 1.0; stroke-dasharray: 7.0,7.0;"/><polygon fill="#A80036" points="281.17,379.94,276.1601,371.4606,277.0975,377.0392,271.5188,377.9766,281.17,379.94" style="stroke: #A80036; stroke-width: 1.0;"/><!--link mastermind.controllers.Logic to mastermind.controllers.implementation.LogicImplementation--><path d="M642.91,308.04 C636.13,315.79 628.38,323.29 620,329 C588.89,350.21 552.57,366.9 516.58,379.93 " fill="none" id="mastermind.controllers.Logic-mastermind.controllers.implementation.LogicImplementation" style="stroke: #A80036; stroke-width: 1.0;"/><polygon fill="none" points="637.46,303.64,655.33,292.26,648.46,312.3,637.46,303.64" style="stroke: #A80036; stroke-width: 1.0;"/><!--
@startuml

abstract class  mastermind.Mastermind{
- final logic: Logic
- final view: View
# Mastermind()
# {abstract} createView(): View
# play(): void
}

mastermind.Mastermind *-down-> mastermind.views.View
mastermind.Mastermind *-down-> mastermind.controllers.Logic
mastermind.Mastermind .down.> mastermind.controllers.AcceptorController

class mastermind.MastermindStandalone extends mastermind.Mastermind {
    #createLogic(): Logic
    {static} +main(String[]): void
}
mastermind.MastermindStandalone ..> mastermind.controllers.implementation.LogicImplementation


class mastermind.controllers.implementation.LogicImplementation extends mastermind.controllers.Logic{
    #startControllerImplementation: StartControllerImplementation
    #playControllerImplementation: PlayControllerImplementation
    #resumeControllerImplementation: ResumeControllerImplementation
}
@enduml

PlantUML version 1.2019.05(Sat Apr 20 18:45:36 CEST 2019)
(GPL source distribution)
Java Runtime: OpenJDK Runtime Environment
JVM: OpenJDK 64-Bit Server VM
Java Version: 1.8.0_265-8u265-b01-0ubuntu2~20.04-b01
Operating System: Linux
OS Version: 5.4.0-52-generic
Default Encoding: UTF-8
Language: es
Country: ES
--></g></svg>