<?xml version="1.0" encoding="UTF-8" standalone="no"?><svg xmlns="http://www.w3.org/2000/svg" xmlns:xlink="http://www.w3.org/1999/xlink" contentScriptType="application/ecmascript" contentStyleType="text/css" height="579px" preserveAspectRatio="none" style="width:782px;height:579px;" version="1.1" viewBox="0 0 782 579" width="782px" zoomAndPan="magnify"><defs><filter height="300%" id="f1l3cplof5nsa9" width="300%" x="-1" y="-1"><feGaussianBlur result="blurOut" stdDeviation="2.0"/><feColorMatrix in="blurOut" result="blurOut2" type="matrix" values="0 0 0 0 0 0 0 0 0 0 0 0 0 0 0 0 0 0 .4 0"/><feOffset dx="4.0" dy="4.0" in="blurOut2" result="blurOut3"/><feBlend in="SourceGraphic" in2="blurOut3" mode="normal"/></filter></defs><g><!--cluster mastermind--><polygon fill="#FFFFFF" filter="url(#f1l3cplof5nsa9)" points="178,24,277,24,284,46.2969,576,46.2969,576,321,178,321,178,24" style="stroke: #000000; stroke-width: 1.5;"/><line style="stroke: #000000; stroke-width: 1.5;" x1="178" x2="284" y1="46.2969" y2="46.2969"/><text fill="#000000" font-family="sans-serif" font-size="14" font-weight="bold" lengthAdjust="spacingAndGlyphs" textLength="93" x="182" y="38.9951">mastermind</text><!--cluster mastermind.views--><polygon fill="#FFFFFF" filter="url(#f1l3cplof5nsa9)" points="600,209,750,209,757,231.2969,760,231.2969,760,308,600,308,600,209" style="stroke: #000000; stroke-width: 1.5;"/><line style="stroke: #000000; stroke-width: 1.5;" x1="600" x2="757" y1="231.2969" y2="231.2969"/><text fill="#000000" font-family="sans-serif" font-size="14" font-weight="bold" lengthAdjust="spacingAndGlyphs" textLength="144" x="604" y="223.9951">mastermind.views</text><!--cluster mastermind.controllers--><polygon fill="#FFFFFF" filter="url(#f1l3cplof5nsa9)" points="22,468,212,468,219,490.2969,470,490.2969,470,567,22,567,22,468" style="stroke: #000000; stroke-width: 1.5;"/><line style="stroke: #000000; stroke-width: 1.5;" x1="22" x2="219" y1="490.2969" y2="490.2969"/><text fill="#000000" font-family="sans-serif" font-size="14" font-weight="bold" lengthAdjust="spacingAndGlyphs" textLength="184" x="26" y="482.9951">mastermind.controllers</text><!--cluster mastermind.views.graphics--><polygon fill="#FFFFFF" filter="url(#f1l3cplof5nsa9)" points="175,345,398,345,405,367.2969,408,367.2969,408,444,175,444,175,345" style="stroke: #000000; stroke-width: 1.5;"/><line style="stroke: #000000; stroke-width: 1.5;" x1="175" x2="405" y1="367.2969" y2="367.2969"/><text fill="#000000" font-family="sans-serif" font-size="14" font-weight="bold" lengthAdjust="spacingAndGlyphs" textLength="217" x="179" y="359.9951">mastermind.views.graphics</text><!--cluster mastermind.views.console--><polygon fill="#FFFFFF" filter="url(#f1l3cplof5nsa9)" points="432,345,649,345,656,367.2969,659,367.2969,659,444,432,444,432,345" style="stroke: #000000; stroke-width: 1.5;"/><line style="stroke: #000000; stroke-width: 1.5;" x1="432" x2="656" y1="367.2969" y2="367.2969"/><text fill="#000000" font-family="sans-serif" font-size="14" font-weight="bold" lengthAdjust="spacingAndGlyphs" textLength="211" x="436" y="359.9951">mastermind.views.console</text><!--class mastermind.Mastermind--><rect fill="#FEFECE" filter="url(#f1l3cplof5nsa9)" height="112.0234" id="mastermind.Mastermind" style="stroke: #A80036; stroke-width: 1.5;" width="132" x="211" y="59"/><ellipse cx="238.6" cy="75" fill="#A9DCDF" rx="11" ry="11" style="stroke: #A80036; stroke-width: 1.0;"/><path d="M238.7094,70.3438 L237.5531,75.4219 L239.8813,75.4219 L238.7094,70.3438 Z M237.225,68.1094 L240.2094,68.1094 L243.5688,80.5 L241.1156,80.5 L240.35,77.4375 L237.0688,77.4375 L236.3188,80.5 L233.8813,80.5 L237.225,68.1094 Z "/><text fill="#000000" font-family="sans-serif" font-size="12" font-style="italic" lengthAdjust="spacingAndGlyphs" textLength="72" x="255.4" y="79.1543">Mastermind</text><line style="stroke: #A80036; stroke-width: 1.5;" x1="212" x2="342" y1="91" y2="91"/><rect fill="none" height="6" style="stroke: #C82930; stroke-width: 1.0;" width="6" x="219" y="99.9023"/><text fill="#000000" font-family="sans-serif" font-size="11" lengthAdjust="spacingAndGlyphs" textLength="91" x="231" y="105.2104">final logic: Logic</text><rect fill="none" height="6" style="stroke: #C82930; stroke-width: 1.0;" width="6" x="219" y="112.707"/><text fill="#000000" font-family="sans-serif" font-size="11" lengthAdjust="spacingAndGlyphs" textLength="87" x="231" y="118.0151">final view: View</text><line style="stroke: #A80036; stroke-width: 1.5;" x1="212" x2="342" y1="124.6094" y2="124.6094"/><polygon fill="#FFFF44" points="222,131.5117,226,135.5117,222,139.5117,218,135.5117" style="stroke: #B38D22; stroke-width: 1.0;"/><text fill="#000000" font-family="sans-serif" font-size="11" lengthAdjust="spacingAndGlyphs" textLength="75" x="231" y="138.8198">Mastermind()</text><polygon fill="#FFFF44" points="222,144.3164,226,148.3164,222,152.3164,218,148.3164" style="stroke: #B38D22; stroke-width: 1.0;"/><text fill="#000000" font-family="sans-serif" font-size="11" font-style="italic" lengthAdjust="spacingAndGlyphs" textLength="106" x="231" y="151.6245">createView(): View</text><polygon fill="#FFFF44" points="222,157.1211,226,161.1211,222,165.1211,218,161.1211" style="stroke: #B38D22; stroke-width: 1.0;"/><text fill="#000000" font-family="sans-serif" font-size="11" lengthAdjust="spacingAndGlyphs" textLength="62" x="231" y="164.4292">play(): void</text><!--class mastermind.ConsoleMastermind--><rect fill="#FEFECE" filter="url(#f1l3cplof5nsa9)" height="73.6094" id="mastermind.ConsoleMastermind" style="stroke: #A80036; stroke-width: 1.5;" width="165" x="394.5" y="231"/><ellipse cx="414" cy="247" fill="#ADD1B2" rx="11" ry="11" style="stroke: #A80036; stroke-width: 1.0;"/><path d="M416.9688,252.6406 Q416.3906,252.9375 415.75,253.0781 Q415.1094,253.2344 414.4063,253.2344 Q411.9063,253.2344 410.5781,251.5938 Q409.2656,249.9375 409.2656,246.8125 Q409.2656,243.6875 410.5781,242.0313 Q411.9063,240.375 414.4063,240.375 Q415.1094,240.375 415.75,240.5313 Q416.4063,240.6875 416.9688,240.9844 L416.9688,243.7031 Q416.3438,243.125 415.75,242.8594 Q415.1563,242.5781 414.5313,242.5781 Q413.1875,242.5781 412.5,243.6563 Q411.8125,244.7188 411.8125,246.8125 Q411.8125,248.9063 412.5,249.9844 Q413.1875,251.0469 414.5313,251.0469 Q415.1563,251.0469 415.75,250.7813 Q416.3438,250.5 416.9688,249.9219 L416.9688,252.6406 Z "/><text fill="#000000" font-family="sans-serif" font-size="12" lengthAdjust="spacingAndGlyphs" textLength="123" x="429" y="251.1543">ConsoleMastermind</text><line style="stroke: #A80036; stroke-width: 1.5;" x1="395.5" x2="558.5" y1="263" y2="263"/><line style="stroke: #A80036; stroke-width: 1.5;" x1="395.5" x2="558.5" y1="271" y2="271"/><polygon fill="#FFFF44" points="405.5,277.9023,409.5,281.9023,405.5,285.9023,401.5,281.9023" style="stroke: #B38D22; stroke-width: 1.0;"/><text fill="#000000" font-family="sans-serif" font-size="11" lengthAdjust="spacingAndGlyphs" textLength="104" x="414.5" y="285.2104">createView(): View</text><ellipse cx="405.5" cy="295.707" fill="#84BE84" rx="3" ry="3" style="stroke: #038048; stroke-width: 1.0;"/><text fill="#000000" font-family="sans-serif" font-size="11" lengthAdjust="spacingAndGlyphs" text-decoration="underline" textLength="139" x="414.5" y="298.0151">main(String[] args): void</text><!--class mastermind.GraphicsMastermind--><rect fill="#FEFECE" filter="url(#f1l3cplof5nsa9)" height="73.6094" id="mastermind.GraphicsMastermind" style="stroke: #A80036; stroke-width: 1.5;" width="165" x="194.5" y="231"/><ellipse cx="211.75" cy="247" fill="#ADD1B2" rx="11" ry="11" style="stroke: #A80036; stroke-width: 1.0;"/><path d="M214.7188,252.6406 Q214.1406,252.9375 213.5,253.0781 Q212.8594,253.2344 212.1563,253.2344 Q209.6563,253.2344 208.3281,251.5938 Q207.0156,249.9375 207.0156,246.8125 Q207.0156,243.6875 208.3281,242.0313 Q209.6563,240.375 212.1563,240.375 Q212.8594,240.375 213.5,240.5313 Q214.1563,240.6875 214.7188,240.9844 L214.7188,243.7031 Q214.0938,243.125 213.5,242.8594 Q212.9063,242.5781 212.2813,242.5781 Q210.9375,242.5781 210.25,243.6563 Q209.5625,244.7188 209.5625,246.8125 Q209.5625,248.9063 210.25,249.9844 Q210.9375,251.0469 212.2813,251.0469 Q212.9063,251.0469 213.5,250.7813 Q214.0938,250.5 214.7188,249.9219 L214.7188,252.6406 Z "/><text fill="#000000" font-family="sans-serif" font-size="12" lengthAdjust="spacingAndGlyphs" textLength="128" x="226.25" y="251.1543">GraphicsMastermind</text><line style="stroke: #A80036; stroke-width: 1.5;" x1="195.5" x2="358.5" y1="263" y2="263"/><line style="stroke: #A80036; stroke-width: 1.5;" x1="195.5" x2="358.5" y1="271" y2="271"/><polygon fill="#FFFF44" points="205.5,277.9023,209.5,281.9023,205.5,285.9023,201.5,281.9023" style="stroke: #B38D22; stroke-width: 1.0;"/><text fill="#000000" font-family="sans-serif" font-size="11" lengthAdjust="spacingAndGlyphs" textLength="104" x="214.5" y="285.2104">createView(): View</text><ellipse cx="205.5" cy="295.707" fill="#84BE84" rx="3" ry="3" style="stroke: #038048; stroke-width: 1.0;"/><text fill="#000000" font-family="sans-serif" font-size="11" lengthAdjust="spacingAndGlyphs" text-decoration="underline" textLength="139" x="214.5" y="298.0151">main(String[] args): void</text><!--class mastermind.views.View--><rect fill="#FEFECE" filter="url(#f1l3cplof5nsa9)" height="48" id="mastermind.views.View" style="stroke: #A80036; stroke-width: 1.5;" width="60" x="616" y="244"/><ellipse cx="631" cy="260" fill="#ADD1B2" rx="11" ry="11" style="stroke: #A80036; stroke-width: 1.0;"/><path d="M633.9688,265.6406 Q633.3906,265.9375 632.75,266.0781 Q632.1094,266.2344 631.4063,266.2344 Q628.9063,266.2344 627.5781,264.5938 Q626.2656,262.9375 626.2656,259.8125 Q626.2656,256.6875 627.5781,255.0313 Q628.9063,253.375 631.4063,253.375 Q632.1094,253.375 632.75,253.5313 Q633.4063,253.6875 633.9688,253.9844 L633.9688,256.7031 Q633.3438,256.125 632.75,255.8594 Q632.1563,255.5781 631.5313,255.5781 Q630.1875,255.5781 629.5,256.6563 Q628.8125,257.7188 628.8125,259.8125 Q628.8125,261.9063 629.5,262.9844 Q630.1875,264.0469 631.5313,264.0469 Q632.1563,264.0469 632.75,263.7813 Q633.3438,263.5 633.9688,262.9219 L633.9688,265.6406 Z "/><text fill="#000000" font-family="sans-serif" font-size="12" lengthAdjust="spacingAndGlyphs" textLength="28" x="645" y="264.1543">View</text><line style="stroke: #A80036; stroke-width: 1.5;" x1="617" x2="675" y1="276" y2="276"/><line style="stroke: #A80036; stroke-width: 1.5;" x1="617" x2="675" y1="284" y2="284"/><!--class mastermind.controllers.Logic--><rect fill="#FEFECE" filter="url(#f1l3cplof5nsa9)" height="48" id="mastermind.controllers.Logic" style="stroke: #A80036; stroke-width: 1.5;" width="64" x="38" y="503"/><ellipse cx="53" cy="519" fill="#ADD1B2" rx="11" ry="11" style="stroke: #A80036; stroke-width: 1.0;"/><path d="M55.9688,524.6406 Q55.3906,524.9375 54.75,525.0781 Q54.1094,525.2344 53.4063,525.2344 Q50.9063,525.2344 49.5781,523.5938 Q48.2656,521.9375 48.2656,518.8125 Q48.2656,515.6875 49.5781,514.0313 Q50.9063,512.375 53.4063,512.375 Q54.1094,512.375 54.75,512.5313 Q55.4063,512.6875 55.9688,512.9844 L55.9688,515.7031 Q55.3438,515.125 54.75,514.8594 Q54.1563,514.5781 53.5313,514.5781 Q52.1875,514.5781 51.5,515.6563 Q50.8125,516.7188 50.8125,518.8125 Q50.8125,520.9063 51.5,521.9844 Q52.1875,523.0469 53.5313,523.0469 Q54.1563,523.0469 54.75,522.7813 Q55.3438,522.5 55.9688,521.9219 L55.9688,524.6406 Z "/><text fill="#000000" font-family="sans-serif" font-size="12" lengthAdjust="spacingAndGlyphs" textLength="32" x="67" y="523.1543">Logic</text><line style="stroke: #A80036; stroke-width: 1.5;" x1="39" x2="101" y1="535" y2="535"/><line style="stroke: #A80036; stroke-width: 1.5;" x1="39" x2="101" y1="543" y2="543"/><!--class mastermind.controllers.AcceptorController--><rect fill="#FEFECE" filter="url(#f1l3cplof5nsa9)" height="48" id="mastermind.controllers.AcceptorController" style="stroke: #A80036; stroke-width: 1.5;" width="149" x="137.5" y="503"/><ellipse cx="152.5" cy="519" fill="#ADD1B2" rx="11" ry="11" style="stroke: #A80036; stroke-width: 1.0;"/><path d="M155.4688,524.6406 Q154.8906,524.9375 154.25,525.0781 Q153.6094,525.2344 152.9063,525.2344 Q150.4063,525.2344 149.0781,523.5938 Q147.7656,521.9375 147.7656,518.8125 Q147.7656,515.6875 149.0781,514.0313 Q150.4063,512.375 152.9063,512.375 Q153.6094,512.375 154.25,512.5313 Q154.9063,512.6875 155.4688,512.9844 L155.4688,515.7031 Q154.8438,515.125 154.25,514.8594 Q153.6563,514.5781 153.0313,514.5781 Q151.6875,514.5781 151,515.6563 Q150.3125,516.7188 150.3125,518.8125 Q150.3125,520.9063 151,521.9844 Q151.6875,523.0469 153.0313,523.0469 Q153.6563,523.0469 154.25,522.7813 Q154.8438,522.5 155.4688,521.9219 L155.4688,524.6406 Z "/><text fill="#000000" font-family="sans-serif" font-size="12" lengthAdjust="spacingAndGlyphs" textLength="117" x="166.5" y="523.1543">AcceptorController</text><line style="stroke: #A80036; stroke-width: 1.5;" x1="138.5" x2="285.5" y1="535" y2="535"/><line style="stroke: #A80036; stroke-width: 1.5;" x1="138.5" x2="285.5" y1="543" y2="543"/><!--class mastermind.controllers.ControllerVisitor--><rect fill="#FEFECE" filter="url(#f1l3cplof5nsa9)" height="48" id="mastermind.controllers.ControllerVisitor" style="stroke: #A80036; stroke-width: 1.5;" width="132" x="322" y="503"/><ellipse cx="337" cy="519" fill="#ADD1B2" rx="11" ry="11" style="stroke: #A80036; stroke-width: 1.0;"/><path d="M339.9688,524.6406 Q339.3906,524.9375 338.75,525.0781 Q338.1094,525.2344 337.4063,525.2344 Q334.9063,525.2344 333.5781,523.5938 Q332.2656,521.9375 332.2656,518.8125 Q332.2656,515.6875 333.5781,514.0313 Q334.9063,512.375 337.4063,512.375 Q338.1094,512.375 338.75,512.5313 Q339.4063,512.6875 339.9688,512.9844 L339.9688,515.7031 Q339.3438,515.125 338.75,514.8594 Q338.1563,514.5781 337.5313,514.5781 Q336.1875,514.5781 335.5,515.6563 Q334.8125,516.7188 334.8125,518.8125 Q334.8125,520.9063 335.5,521.9844 Q336.1875,523.0469 337.5313,523.0469 Q338.1563,523.0469 338.75,522.7813 Q339.3438,522.5 339.9688,521.9219 L339.9688,524.6406 Z "/><text fill="#000000" font-family="sans-serif" font-size="12" lengthAdjust="spacingAndGlyphs" textLength="100" x="351" y="523.1543">ControllerVisitor</text><line style="stroke: #A80036; stroke-width: 1.5;" x1="323" x2="453" y1="535" y2="535"/><line style="stroke: #A80036; stroke-width: 1.5;" x1="323" x2="453" y1="543" y2="543"/><!--class mastermind.views.graphics.View--><rect fill="#FEFECE" filter="url(#f1l3cplof5nsa9)" height="48" id="mastermind.views.graphics.View" style="stroke: #A80036; stroke-width: 1.5;" width="60" x="289" y="380"/><ellipse cx="304" cy="396" fill="#ADD1B2" rx="11" ry="11" style="stroke: #A80036; stroke-width: 1.0;"/><path d="M306.9688,401.6406 Q306.3906,401.9375 305.75,402.0781 Q305.1094,402.2344 304.4063,402.2344 Q301.9063,402.2344 300.5781,400.5938 Q299.2656,398.9375 299.2656,395.8125 Q299.2656,392.6875 300.5781,391.0313 Q301.9063,389.375 304.4063,389.375 Q305.1094,389.375 305.75,389.5313 Q306.4063,389.6875 306.9688,389.9844 L306.9688,392.7031 Q306.3438,392.125 305.75,391.8594 Q305.1563,391.5781 304.5313,391.5781 Q303.1875,391.5781 302.5,392.6563 Q301.8125,393.7188 301.8125,395.8125 Q301.8125,397.9063 302.5,398.9844 Q303.1875,400.0469 304.5313,400.0469 Q305.1563,400.0469 305.75,399.7813 Q306.3438,399.5 306.9688,398.9219 L306.9688,401.6406 Z "/><text fill="#000000" font-family="sans-serif" font-size="12" lengthAdjust="spacingAndGlyphs" textLength="28" x="318" y="400.1543">View</text><line style="stroke: #A80036; stroke-width: 1.5;" x1="290" x2="348" y1="412" y2="412"/><line style="stroke: #A80036; stroke-width: 1.5;" x1="290" x2="348" y1="420" y2="420"/><!--class mastermind.views.console.View--><rect fill="#FEFECE" filter="url(#f1l3cplof5nsa9)" height="48" id="mastermind.views.console.View" style="stroke: #A80036; stroke-width: 1.5;" width="60" x="448" y="380"/><ellipse cx="463" cy="396" fill="#ADD1B2" rx="11" ry="11" style="stroke: #A80036; stroke-width: 1.0;"/><path d="M465.9688,401.6406 Q465.3906,401.9375 464.75,402.0781 Q464.1094,402.2344 463.4063,402.2344 Q460.9063,402.2344 459.5781,400.5938 Q458.2656,398.9375 458.2656,395.8125 Q458.2656,392.6875 459.5781,391.0313 Q460.9063,389.375 463.4063,389.375 Q464.1094,389.375 464.75,389.5313 Q465.4063,389.6875 465.9688,389.9844 L465.9688,392.7031 Q465.3438,392.125 464.75,391.8594 Q464.1563,391.5781 463.5313,391.5781 Q462.1875,391.5781 461.5,392.6563 Q460.8125,393.7188 460.8125,395.8125 Q460.8125,397.9063 461.5,398.9844 Q462.1875,400.0469 463.5313,400.0469 Q464.1563,400.0469 464.75,399.7813 Q465.3438,399.5 465.9688,398.9219 L465.9688,401.6406 Z "/><text fill="#000000" font-family="sans-serif" font-size="12" lengthAdjust="spacingAndGlyphs" textLength="28" x="477" y="400.1543">View</text><line style="stroke: #A80036; stroke-width: 1.5;" x1="449" x2="507" y1="412" y2="412"/><line style="stroke: #A80036; stroke-width: 1.5;" x1="449" x2="507" y1="420" y2="420"/><!--link mastermind.Mastermind to mastermind.ConsoleMastermind--><path d="M359.21,178.07 C382.98,196.02 408.14,215.01 429.08,230.82 " fill="none" id="mastermind.Mastermind-mastermind.ConsoleMastermind" style="stroke: #A80036; stroke-width: 1.0;"/><polygon fill="none" points="354.79,183.5,343.04,165.86,363.22,172.33,354.79,183.5" style="stroke: #A80036; stroke-width: 1.0;"/><!--link mastermind.Mastermind to mastermind.GraphicsMastermind--><path d="M277,191.84 C277,205.47 277,219.09 277,230.91 " fill="none" id="mastermind.Mastermind-mastermind.GraphicsMastermind" style="stroke: #A80036; stroke-width: 1.0;"/><polygon fill="none" points="270,191.37,277,171.37,284,191.37,270,191.37" style="stroke: #A80036; stroke-width: 1.0;"/><!--link mastermind.Mastermind to mastermind.views.View--><path d="M356.19,127.85 C418.9,139.67 507.11,161.88 576,201 C591.2,209.63 605.68,222.24 617.48,234.13 " fill="none" id="mastermind.Mastermind-mastermind.views.View" style="stroke: #A80036; stroke-width: 1.0;"/><polygon fill="#A80036" points="626.72,243.85,623.4213,234.57,623.2763,240.225,617.6213,240.08,626.72,243.85" style="stroke: #A80036; stroke-width: 1.0;"/><line style="stroke: #A80036; stroke-width: 1.0;" x1="623.2763" x2="617.76" y1="240.225" y2="234.425"/><polygon fill="#A80036" points="343.21,125.48,348.3962,130.4903,355.0158,127.6301,349.8296,122.6198,343.21,125.48" style="stroke: #A80036; stroke-width: 1.0;"/><!--link mastermind.Mastermind to mastermind.controllers.Logic--><path d="M199.76,153.47 C180.38,166.15 161.33,182.01 148,201 C84.94,290.86 72.49,425.41 70.28,489.51 " fill="none" id="mastermind.Mastermind-mastermind.controllers.Logic" style="stroke: #A80036; stroke-width: 1.0;"/><polygon fill="#A80036" points="69.94,502.8,74.1759,493.9086,70.0718,497.8017,66.1787,493.6977,69.94,502.8" style="stroke: #A80036; stroke-width: 1.0;"/><line style="stroke: #A80036; stroke-width: 1.0;" x1="70.0718" x2="70.27" y1="497.8017" y2="489.8"/><polygon fill="#A80036" points="210.85,146.56,203.6424,146.3337,200.6615,152.8998,207.869,153.1261,210.85,146.56" style="stroke: #A80036; stroke-width: 1.0;"/><!--link mastermind.Mastermind to mastermind.controllers.AcceptorController--><path d="M210.78,158.05 C197.13,170.13 184.6,184.56 177,201 C130.2,302.2 175.85,439.5 199.61,497.87 " fill="none" id="mastermind.Mastermind-mastermind.controllers.AcceptorController" style="stroke: #A80036; stroke-width: 1.0; stroke-dasharray: 7.0,7.0;"/><polygon fill="#A80036" points="201.56,502.61,201.8427,492.7652,199.6613,497.9845,194.4419,495.8032,201.56,502.61" style="stroke: #A80036; stroke-width: 1.0;"/><!--link mastermind.GraphicsMastermind to mastermind.views.graphics.View--><path d="M288.37,305.26 C295.22,327.13 303.82,354.57 310.16,374.8 " fill="none" id="mastermind.GraphicsMastermind-mastermind.views.graphics.View" style="stroke: #A80036; stroke-width: 1.0; stroke-dasharray: 7.0,7.0;"/><polygon fill="#A80036" points="311.72,379.78,312.8368,369.9947,310.2205,375.0101,305.205,372.3939,311.72,379.78" style="stroke: #A80036; stroke-width: 1.0;"/><!--link mastermind.ConsoleMastermind to mastermind.views.console.View--><path d="M477.27,305.26 C477.43,327.03 477.64,354.34 477.79,374.55 " fill="none" id="mastermind.ConsoleMastermind-mastermind.views.console.View" style="stroke: #A80036; stroke-width: 1.0; stroke-dasharray: 7.0,7.0;"/><polygon fill="#A80036" points="477.83,379.78,481.7527,370.746,477.7871,374.7802,473.753,370.8146,477.83,379.78" style="stroke: #A80036; stroke-width: 1.0;"/><!--link mastermind.views.console.View to mastermind.controllers.ControllerVisitor--><path d="M448.82,444.23 C438.74,457.78 427.44,472.97 417.35,486.54 " fill="none" id="mastermind.views.console.View-mastermind.controllers.ControllerVisitor" style="stroke: #A80036; stroke-width: 1.0; stroke-dasharray: 7.0,7.0;"/><polygon fill="#A80036" points="405.38,502.63,413.9607,497.7957,408.364,498.618,407.5416,493.0213,405.38,502.63" style="stroke: #A80036; stroke-width: 1.0;"/><line style="stroke: #A80036; stroke-width: 1.0;" x1="408.364" x2="417.32" y1="498.618" y2="486.58"/><polygon fill="none" points="443.31,439.91,460.86,428.04,454.54,448.27,443.31,439.91" style="stroke: #A80036; stroke-width: 1.0;"/><!--link mastermind.views.View to mastermind.views.console.View--><path d="M604.41,305.38 C595.15,313.28 585.31,321.51 576,329 C559.48,342.29 541.01,356.43 524.59,368.74 " fill="none" id="mastermind.views.View-mastermind.views.console.View" style="stroke: #A80036; stroke-width: 1.0;"/><polygon fill="#A80036" points="508.39,380.8,517.9966,378.6288,512.399,377.812,513.2158,372.2144,508.39,380.8" style="stroke: #A80036; stroke-width: 1.0;"/><line style="stroke: #A80036; stroke-width: 1.0;" x1="512.399" x2="524.435" y1="377.812" y2="368.855"/><polygon fill="none" points="600.01,299.93,619.73,292.18,609.15,310.54,600.01,299.93" style="stroke: #A80036; stroke-width: 1.0;"/><!--link mastermind.views.View to mastermind.views.graphics.View--><path d="M611.89,305.93 C601.33,315.09 589.02,323.77 576,329 C546.26,340.95 462.69,327.77 432,337 C408.85,343.96 385.41,356.54 365.94,368.86 " fill="none" id="mastermind.views.View-mastermind.views.graphics.View" style="stroke: #A80036; stroke-width: 1.0;"/><polygon fill="#A80036" points="349.28,379.94,358.9889,378.2855,353.443,377.1706,354.5579,371.6247,349.28,379.94" style="stroke: #A80036; stroke-width: 1.0;"/><line style="stroke: #A80036; stroke-width: 1.0;" x1="353.443" x2="365.935" y1="377.1706" y2="368.865"/><polygon fill="none" points="607.14,300.79,626.44,292.05,616.8,310.92,607.14,300.79" style="stroke: #A80036; stroke-width: 1.0;"/><!--
@startuml

abstract class  mastermind.Mastermind{
- final logic: Logic
- final view: View
# Mastermind()
# {abstract} createView(): View
# play(): void
}

class mastermind.ConsoleMastermind extends mastermind.Mastermind{
# createView(): View
+ {static} main(String[] args): void
}

class mastermind.GraphicsMastermind extends mastermind.Mastermind{
# createView(): View
+ {static} main(String[] args): void
}

mastermind.Mastermind *-down-> mastermind.views.View
mastermind.Mastermind *-down-> mastermind.controllers.Logic
mastermind.Mastermind .down.> mastermind.controllers.AcceptorController

mastermind.GraphicsMastermind .down.> mastermind.views.graphics.View

mastermind.ConsoleMastermind .down.> mastermind.views.console.View

mastermind.views.console.View <|.down.> mastermind.controllers.ControllerVisitor
mastermind.views.View <|-down-> mastermind.views.console.View
mastermind.views.View <|-down-> mastermind.views.graphics.View
@enduml

PlantUML version 1.2019.05(Sat Apr 20 18:45:36 CEST 2019)
(GPL source distribution)
Java Runtime: OpenJDK Runtime Environment
JVM: OpenJDK 64-Bit Server VM
Java Version: 1.8.0_265-8u265-b01-0ubuntu2~20.04-b01
Operating System: Linux
OS Version: 5.4.0-52-generic
Default Encoding: UTF-8
Language: es
Country: ES
--></g></svg>