<?xml version="1.0" encoding="UTF-8" standalone="no"?><svg xmlns="http://www.w3.org/2000/svg" xmlns:xlink="http://www.w3.org/1999/xlink" contentScriptType="application/ecmascript" contentStyleType="text/css" height="531px" preserveAspectRatio="none" style="width:754px;height:531px;" version="1.1" viewBox="0 0 754 531" width="754px" zoomAndPan="magnify"><defs><filter height="300%" id="f8qbgdsub1dnr" width="300%" x="-1" y="-1"><feGaussianBlur result="blurOut" stdDeviation="2.0"/><feColorMatrix in="blurOut" result="blurOut2" type="matrix" values="0 0 0 0 0 0 0 0 0 0 0 0 0 0 0 0 0 0 .4 0"/><feOffset dx="4.0" dy="4.0" in="blurOut2" result="blurOut3"/><feBlend in="SourceGraphic" in2="blurOut3" mode="normal"/></filter></defs><g><!--cluster mastermind.views--><polygon fill="#DDDDDD" filter="url(#f8qbgdsub1dnr)" points="162.5,85,312.5,85,319.5,107.2969,732.5,107.2969,732.5,205,162.5,205,162.5,85" style="stroke: #000000; stroke-width: 1.5;"/><line style="stroke: #000000; stroke-width: 1.5;" x1="162.5" x2="319.5" y1="107.2969" y2="107.2969"/><text fill="#000000" font-family="sans-serif" font-size="14" font-weight="bold" lengthAdjust="spacingAndGlyphs" textLength="144" x="166.5" y="99.9951">mastermind.views</text><polygon fill="#DDDDDD" filter="url(#f8qbgdsub1dnr)" points="61,8,160,8,167,30.2969,174,30.2969,174,60.5938,61,60.5938,61,8" style="stroke: #000000; stroke-width: 1.5;"/><line style="stroke: #000000; stroke-width: 1.5;" x1="61" x2="167" y1="30.2969" y2="30.2969"/><text fill="#000000" font-family="sans-serif" font-size="14" font-weight="bold" lengthAdjust="spacingAndGlyphs" textLength="93" x="65" y="22.9951">mastermind</text><polygon fill="#DDDDDD" filter="url(#f8qbgdsub1dnr)" points="68.5,241,258.5,241,265.5,263.2969,272.5,263.2969,272.5,293.5938,68.5,293.5938,68.5,241" style="stroke: #000000; stroke-width: 1.5;"/><line style="stroke: #000000; stroke-width: 1.5;" x1="68.5" x2="265.5" y1="263.2969" y2="263.2969"/><text fill="#000000" font-family="sans-serif" font-size="14" font-weight="bold" lengthAdjust="spacingAndGlyphs" textLength="184" x="72.5" y="255.9951">mastermind.controllers</text><polygon fill="#DDDDDD" filter="url(#f8qbgdsub1dnr)" points="6,354,167,354,174,376.2969,181,376.2969,181,406.5938,6,406.5938,6,354" style="stroke: #000000; stroke-width: 1.5;"/><line style="stroke: #000000; stroke-width: 1.5;" x1="6" x2="174" y1="376.2969" y2="376.2969"/><text fill="#000000" font-family="sans-serif" font-size="14" font-weight="bold" lengthAdjust="spacingAndGlyphs" textLength="155" x="10" y="368.9951">mastermind.models</text><polygon fill="#FFFFFF" filter="url(#f8qbgdsub1dnr)" points="53.5,467,119.5,467,126.5,489.2969,133.5,489.2969,133.5,519.5938,53.5,519.5938,53.5,467" style="stroke: #000000; stroke-width: 1.5;"/><line style="stroke: #000000; stroke-width: 1.5;" x1="53.5" x2="126.5" y1="489.2969" y2="489.2969"/><text fill="#000000" font-family="sans-serif" font-size="14" font-weight="bold" lengthAdjust="spacingAndGlyphs" textLength="60" x="57.5" y="481.9951">java.util</text><polygon fill="#DDDDDD" filter="url(#f8qbgdsub1dnr)" points="518,241,655,241,662,263.2969,669,263.2969,669,293.5938,518,293.5938,518,241" style="stroke: #000000; stroke-width: 1.5;"/><line style="stroke: #000000; stroke-width: 1.5;" x1="518" x2="662" y1="263.2969" y2="263.2969"/><text fill="#000000" font-family="sans-serif" font-size="14" font-weight="bold" lengthAdjust="spacingAndGlyphs" textLength="131" x="522" y="255.9951">mastermind.utils</text><polygon fill="#FFFFFF" filter="url(#f8qbgdsub1dnr)" points="558.5,354,614.5,354,621.5,376.2969,628.5,376.2969,628.5,406.5938,558.5,406.5938,558.5,354" style="stroke: #000000; stroke-width: 1.5;"/><line style="stroke: #000000; stroke-width: 1.5;" x1="558.5" x2="621.5" y1="376.2969" y2="376.2969"/><text fill="#000000" font-family="sans-serif" font-size="14" font-weight="bold" lengthAdjust="spacingAndGlyphs" textLength="50" x="562.5" y="368.9951">java.io</text><polygon fill="#FFFFFF" filter="url(#f8qbgdsub1dnr)" points="478,128,695,128,702,150.2969,709,150.2969,709,180.5938,478,180.5938,478,128" style="stroke: #000000; stroke-width: 1.5;"/><line style="stroke: #000000; stroke-width: 1.5;" x1="478" x2="702" y1="150.2969" y2="150.2969"/><text fill="#000000" font-family="sans-serif" font-size="14" font-weight="bold" lengthAdjust="spacingAndGlyphs" textLength="211" x="482" y="142.9951">mastermind.views.console</text><polygon fill="#FFFFFF" filter="url(#f8qbgdsub1dnr)" points="206,128,429,128,436,150.2969,443,150.2969,443,180.5938,206,180.5938,206,128" style="stroke: #000000; stroke-width: 1.5;"/><line style="stroke: #000000; stroke-width: 1.5;" x1="206" x2="436" y1="150.2969" y2="150.2969"/><text fill="#000000" font-family="sans-serif" font-size="14" font-weight="bold" lengthAdjust="spacingAndGlyphs" textLength="217" x="210" y="142.9951">mastermind.views.graphics</text><!--link mastermind to mastermind.controllers--><path d="M121.46,61.27 C127.26,97.34 139.09,164.78 154.5,221 C155.83,225.85 157.41,230.92 159.06,235.85 " fill="none" id="mastermind-mastermind.controllers" style="stroke: #A80036; stroke-width: 1.0; stroke-dasharray: 7.0,7.0;"/><polygon fill="#A80036" points="160.72,240.71,161.5978,230.9003,159.1046,235.9781,154.0268,233.485,160.72,240.71" style="stroke: #A80036; stroke-width: 1.0;"/><!--link mastermind to mastermind.models--><path d="M102.63,61.09 C77.59,107.41 31.58,208.28 51.5,294 C56.02,313.44 65.6,333.54 74.48,349.37 " fill="none" id="mastermind-mastermind.models" style="stroke: #A80036; stroke-width: 1.0; stroke-dasharray: 7.0,7.0;"/><polygon fill="#A80036" points="76.96,353.72,75.9851,343.9195,74.487,349.3744,69.0321,347.8763,76.96,353.72" style="stroke: #A80036; stroke-width: 1.0;"/><!--link mastermind to mastermind.views--><path d="M138.86,61.24 C140.55,63.78 142.13,66.39 143.5,69 C147.9475,77.45 151.8244,86.7631 155.1461,96.0258 C156.807,100.6571 158.329,105.2758 159.7142,109.7677 C160.4068,112.0137 161.0652,114.2279 161.6897,116.3962 C161.8458,116.9382 161.9997,117.4774 162.1516,118.0135 C162.2275,118.2816 162.3029,118.5488 162.3778,118.8153 C162.4153,118.9486 162.4526,119.0816 162.4897,119.2144 " fill="none" id="mastermind-mastermind.views" style="stroke: #A80036; stroke-width: 1.0; stroke-dasharray: 7.0,7.0;"/><polygon fill="#A80036" points="162.4897,119.2144,163.9164,109.4694,161.1423,114.3994,156.2123,111.6253,162.4897,119.2144" style="stroke: #A80036; stroke-width: 1.0;"/><!--link mastermind.controllers to mastermind.models--><path d="M152.64,294.24 C141.17,310.78 126.24,332.31 114.24,349.6 " fill="none" id="mastermind.controllers-mastermind.models" style="stroke: #A80036; stroke-width: 1.0; stroke-dasharray: 7.0,7.0;"/><polygon fill="#A80036" points="111.26,353.89,119.667,348.7595,114.1023,349.7765,113.0854,344.2118,111.26,353.89" style="stroke: #A80036; stroke-width: 1.0;"/><!--link mastermind.models to java.util--><path d="M93.5,407.24 C93.5,423.5 93.5,444.58 93.5,461.71 " fill="none" id="mastermind.models-java.util" style="stroke: #A80036; stroke-width: 1.0; stroke-dasharray: 7.0,7.0;"/><polygon fill="#A80036" points="93.5,466.89,97.5257,457.9015,93.5143,461.89,89.5257,457.8786,93.5,466.89" style="stroke: #A80036; stroke-width: 1.0;"/><!--link mastermind.utils to java.io--><path d="M593.5,294.24 C593.5,310.5 593.5,331.58 593.5,348.71 " fill="none" id="mastermind.utils-java.io" style="stroke: #A80036; stroke-width: 1.0; stroke-dasharray: 7.0,7.0;"/><polygon fill="#A80036" points="593.5,353.89,597.5257,344.9015,593.5143,348.89,589.5257,344.8786,593.5,353.89" style="stroke: #A80036; stroke-width: 1.0;"/><!--link mastermind.views to mastermind.controllers--><path d="M170.5,205.1384 C170.5,205.6896 170.5,206.2416 170.5,206.7941 C170.5,207.8992 170.5,209.0066 170.5,210.1144 C170.5,218.9769 170.5,227.87 170.5,235.89 " fill="none" id="mastermind.views-mastermind.controllers" style="stroke: #A80036; stroke-width: 1.0; stroke-dasharray: 7.0,7.0;"/><polygon fill="#A80036" points="170.5,240.9,174.5,231.9,170.5,235.9,166.5,231.9,170.5,240.9" style="stroke: #A80036; stroke-width: 1.0;"/><!--link mastermind.views.console to mastermind.utils--><path d="M593.5,181.24 C593.5,197.5 593.5,218.58 593.5,235.71 " fill="none" id="mastermind.views.console-mastermind.utils" style="stroke: #A80036; stroke-width: 1.0; stroke-dasharray: 7.0,7.0;"/><polygon fill="#A80036" points="593.5,240.89,597.5257,231.9015,593.5143,235.89,589.5257,231.8786,593.5,240.89" style="stroke: #A80036; stroke-width: 1.0;"/><!--
@startuml

package mastermind #DDDDDD { }
mastermind .down.> mastermind.controllers
mastermind .down.> mastermind.models
mastermind .down.> mastermind.views

package mastermind.controllers #DDDDDD { }
mastermind.controllers .down.> mastermind.models

package mastermind.models #DDDDDD { }
package java.util{ }
mastermind.models .down.> java.util

package mastermind.utils #DDDDDD { }
package java.io{ }
mastermind.utils .down.> java.io

package mastermind.views #DDDDDD {
    package mastermind.views.console {}
    package mastermind.views.graphics {}
}
mastermind.views .down.> mastermind.controllers
mastermind.views.console .down.> mastermind.utils

@enduml

PlantUML version 1.2019.05(Sat Apr 20 18:45:36 CEST 2019)
(GPL source distribution)
Java Runtime: OpenJDK Runtime Environment
JVM: OpenJDK 64-Bit Server VM
Java Version: 1.8.0_265-8u265-b01-0ubuntu2~20.04-b01
Operating System: Linux
OS Version: 5.4.0-51-generic
Default Encoding: UTF-8
Language: es
Country: ES
--></g></svg>