<?xml version="1.0" encoding="UTF-8" standalone="no"?><svg xmlns="http://www.w3.org/2000/svg" xmlns:xlink="http://www.w3.org/1999/xlink" contentScriptType="application/ecmascript" contentStyleType="text/css" height="531px" preserveAspectRatio="none" style="width:800px;height:531px;" version="1.1" viewBox="0 0 800 531" width="800px" zoomAndPan="magnify"><defs><filter height="300%" id="f3d4cxgor1527" width="300%" x="-1" y="-1"><feGaussianBlur result="blurOut" stdDeviation="2.0"/><feColorMatrix in="blurOut" result="blurOut2" type="matrix" values="0 0 0 0 0 0 0 0 0 0 0 0 0 0 0 0 0 0 .4 0"/><feOffset dx="4.0" dy="4.0" in="blurOut2" result="blurOut3"/><feBlend in="SourceGraphic" in2="blurOut3" mode="normal"/></filter></defs><g><!--cluster mastermind.views--><polygon fill="#DDDDDD" filter="url(#f3d4cxgor1527)" points="208.5,198,358.5,198,365.5,220.2969,778.5,220.2969,778.5,318,208.5,318,208.5,198" style="stroke: #000000; stroke-width: 1.5;"/><line style="stroke: #000000; stroke-width: 1.5;" x1="208.5" x2="365.5" y1="220.2969" y2="220.2969"/><text fill="#000000" font-family="sans-serif" font-size="14" font-weight="bold" lengthAdjust="spacingAndGlyphs" textLength="144" x="212.5" y="212.9951">mastermind.views</text><polygon fill="#DDDDDD" filter="url(#f3d4cxgor1527)" points="98,8,197,8,204,30.2969,211,30.2969,211,60.5938,98,60.5938,98,8" style="stroke: #000000; stroke-width: 1.5;"/><line style="stroke: #000000; stroke-width: 1.5;" x1="98" x2="204" y1="30.2969" y2="30.2969"/><text fill="#000000" font-family="sans-serif" font-size="14" font-weight="bold" lengthAdjust="spacingAndGlyphs" textLength="93" x="102" y="22.9951">mastermind</text><polygon fill="#DDDDDD" filter="url(#f3d4cxgor1527)" points="52.5,121,242.5,121,249.5,143.2969,256.5,143.2969,256.5,173.5938,52.5,173.5938,52.5,121" style="stroke: #000000; stroke-width: 1.5;"/><line style="stroke: #000000; stroke-width: 1.5;" x1="52.5" x2="249.5" y1="143.2969" y2="143.2969"/><text fill="#000000" font-family="sans-serif" font-size="14" font-weight="bold" lengthAdjust="spacingAndGlyphs" textLength="184" x="56.5" y="135.9951">mastermind.controllers</text><polygon fill="#DDDDDD" filter="url(#f3d4cxgor1527)" points="6,241,167,241,174,263.2969,181,263.2969,181,293.5938,6,293.5938,6,241" style="stroke: #000000; stroke-width: 1.5;"/><line style="stroke: #000000; stroke-width: 1.5;" x1="6" x2="174" y1="263.2969" y2="263.2969"/><text fill="#000000" font-family="sans-serif" font-size="14" font-weight="bold" lengthAdjust="spacingAndGlyphs" textLength="155" x="10" y="255.9951">mastermind.models</text><polygon fill="#FFFFFF" filter="url(#f3d4cxgor1527)" points="53.5,354,119.5,354,126.5,376.2969,133.5,376.2969,133.5,406.5938,53.5,406.5938,53.5,354" style="stroke: #000000; stroke-width: 1.5;"/><line style="stroke: #000000; stroke-width: 1.5;" x1="53.5" x2="126.5" y1="376.2969" y2="376.2969"/><text fill="#000000" font-family="sans-serif" font-size="14" font-weight="bold" lengthAdjust="spacingAndGlyphs" textLength="60" x="57.5" y="368.9951">java.util</text><polygon fill="#DDDDDD" filter="url(#f3d4cxgor1527)" points="564,354,701,354,708,376.2969,715,376.2969,715,406.5938,564,406.5938,564,354" style="stroke: #000000; stroke-width: 1.5;"/><line style="stroke: #000000; stroke-width: 1.5;" x1="564" x2="708" y1="376.2969" y2="376.2969"/><text fill="#000000" font-family="sans-serif" font-size="14" font-weight="bold" lengthAdjust="spacingAndGlyphs" textLength="131" x="568" y="368.9951">mastermind.utils</text><polygon fill="#FFFFFF" filter="url(#f3d4cxgor1527)" points="604.5,467,660.5,467,667.5,489.2969,674.5,489.2969,674.5,519.5938,604.5,519.5938,604.5,467" style="stroke: #000000; stroke-width: 1.5;"/><line style="stroke: #000000; stroke-width: 1.5;" x1="604.5" x2="667.5" y1="489.2969" y2="489.2969"/><text fill="#000000" font-family="sans-serif" font-size="14" font-weight="bold" lengthAdjust="spacingAndGlyphs" textLength="50" x="608.5" y="481.9951">java.io</text><polygon fill="#FFFFFF" filter="url(#f3d4cxgor1527)" points="524,241,741,241,748,263.2969,755,263.2969,755,293.5938,524,293.5938,524,241" style="stroke: #000000; stroke-width: 1.5;"/><line style="stroke: #000000; stroke-width: 1.5;" x1="524" x2="748" y1="263.2969" y2="263.2969"/><text fill="#000000" font-family="sans-serif" font-size="14" font-weight="bold" lengthAdjust="spacingAndGlyphs" textLength="211" x="528" y="255.9951">mastermind.views.console</text><polygon fill="#FFFFFF" filter="url(#f3d4cxgor1527)" points="252,241,475,241,482,263.2969,489,263.2969,489,293.5938,252,293.5938,252,241" style="stroke: #000000; stroke-width: 1.5;"/><line style="stroke: #000000; stroke-width: 1.5;" x1="252" x2="482" y1="263.2969" y2="263.2969"/><text fill="#000000" font-family="sans-serif" font-size="14" font-weight="bold" lengthAdjust="spacingAndGlyphs" textLength="217" x="256" y="255.9951">mastermind.views.graphics</text><!--link mastermind to mastermind.controllers--><path d="M154.5,61.24 C154.5,77.5 154.5,98.58 154.5,115.71 " fill="none" id="mastermind-mastermind.controllers" style="stroke: #A80036; stroke-width: 1.0; stroke-dasharray: 7.0,7.0;"/><polygon fill="#A80036" points="154.5,120.89,158.5257,111.9015,154.5143,115.89,150.5257,111.8786,154.5,120.89" style="stroke: #A80036; stroke-width: 1.0;"/><!--link mastermind.controllers to mastermind.models--><path d="M141.26,174.1 C131.83,192.35 119.11,216.95 109.17,236.18 " fill="none" id="mastermind.controllers-mastermind.models" style="stroke: #A80036; stroke-width: 1.0; stroke-dasharray: 7.0,7.0;"/><polygon fill="#A80036" points="106.71,240.95,114.3998,234.7964,109.0087,236.5097,107.2954,231.1186,106.71,240.95" style="stroke: #A80036; stroke-width: 1.0;"/><!--link mastermind.controllers to mastermind.views--><path d="M192.43,174.16 C194.69,176.63 196.75,179.24 198.5,182 C200.99,185.9275 203.1409,190.1428 204.9984,194.5187 C205.9272,196.7066 206.7825,198.9346 207.5702,201.1869 C207.7672,201.75 207.9599,202.3145 208.1484,202.8804 C208.2427,203.1633 208.336,203.4466 208.4282,203.7301 " fill="none" id="mastermind.controllers-mastermind.views" style="stroke: #A80036; stroke-width: 1.0; stroke-dasharray: 7.0,7.0;"/><polygon fill="#A80036" points="208.4282,203.7301,209.4482,193.9342,206.8816,198.9753,201.8405,196.4087,208.4282,203.7301" style="stroke: #A80036; stroke-width: 1.0;"/><!--link mastermind.models to java.util--><path d="M93.5,294.24 C93.5,310.5 93.5,331.58 93.5,348.71 " fill="none" id="mastermind.models-java.util" style="stroke: #A80036; stroke-width: 1.0; stroke-dasharray: 7.0,7.0;"/><polygon fill="#A80036" points="93.5,353.89,97.5257,344.9015,93.5143,348.89,89.5257,344.8786,93.5,353.89" style="stroke: #A80036; stroke-width: 1.0;"/><!--link mastermind.utils to java.io--><path d="M639.5,407.24 C639.5,423.5 639.5,444.58 639.5,461.71 " fill="none" id="mastermind.utils-java.io" style="stroke: #A80036; stroke-width: 1.0; stroke-dasharray: 7.0,7.0;"/><polygon fill="#A80036" points="639.5,466.89,643.5257,457.9015,639.5143,461.89,635.5257,457.8786,639.5,466.89" style="stroke: #A80036; stroke-width: 1.0;"/><!--link mastermind.views.console to mastermind.utils--><path d="M639.5,294.24 C639.5,310.5 639.5,331.58 639.5,348.71 " fill="none" id="mastermind.views.console-mastermind.utils" style="stroke: #A80036; stroke-width: 1.0; stroke-dasharray: 7.0,7.0;"/><polygon fill="#A80036" points="639.5,353.89,643.5257,344.9015,639.5143,348.89,635.5257,344.8786,639.5,353.89" style="stroke: #A80036; stroke-width: 1.0;"/><!--
@startuml

package mastermind #DDDDDD { }
mastermind .down.> mastermind.controllers

package mastermind.controllers #DDDDDD {}
mastermind.controllers .down.> mastermind.models
mastermind.controllers .down.> mastermind.views

package mastermind.models #DDDDDD { }
package java.util{ }
mastermind.models .down.> java.util

package mastermind.utils #DDDDDD { }
package java.io{ }
mastermind.utils .down.> java.io

package mastermind.views #DDDDDD {
    package mastermind.views.console {}
    package mastermind.views.graphics {}
}
mastermind.views.console .down.> mastermind.utils

@enduml

PlantUML version 1.2019.05(Sat Apr 20 18:45:36 CEST 2019)
(GPL source distribution)
Java Runtime: OpenJDK Runtime Environment
JVM: OpenJDK 64-Bit Server VM
Java Version: 1.8.0_265-8u265-b01-0ubuntu2~20.04-b01
Operating System: Linux
OS Version: 5.4.0-52-generic
Default Encoding: UTF-8
Language: es
Country: ES
--></g></svg>