<?xml version="1.0" encoding="UTF-8" standalone="no"?><svg xmlns="http://www.w3.org/2000/svg" xmlns:xlink="http://www.w3.org/1999/xlink" contentScriptType="application/ecmascript" contentStyleType="text/css" height="456px" preserveAspectRatio="none" style="width:929px;height:456px;" version="1.1" viewBox="0 0 929 456" width="929px" zoomAndPan="magnify"><defs><filter height="300%" id="f1v5qo8czbymdq" width="300%" x="-1" y="-1"><feGaussianBlur result="blurOut" stdDeviation="2.0"/><feColorMatrix in="blurOut" result="blurOut2" type="matrix" values="0 0 0 0 0 0 0 0 0 0 0 0 0 0 0 0 0 0 .4 0"/><feOffset dx="4.0" dy="4.0" in="blurOut2" result="blurOut3"/><feBlend in="SourceGraphic" in2="blurOut3" mode="normal"/></filter></defs><g><!--cluster mastermind--><polygon fill="#FFFFFF" filter="url(#f1v5qo8czbymdq)" points="22,24,121,24,128,46.2969,420,46.2969,420,321,22,321,22,24" style="stroke: #000000; stroke-width: 1.5;"/><line style="stroke: #000000; stroke-width: 1.5;" x1="22" x2="128" y1="46.2969" y2="46.2969"/><text fill="#000000" font-family="sans-serif" font-size="14" font-weight="bold" lengthAdjust="spacingAndGlyphs" textLength="93" x="26" y="38.9951">mastermind</text><!--cluster mastermind.controllers--><polygon fill="#FFFFFF" filter="url(#f1v5qo8czbymdq)" points="444,209,634,209,641,231.2969,723,231.2969,723,308,444,308,444,209" style="stroke: #000000; stroke-width: 1.5;"/><line style="stroke: #000000; stroke-width: 1.5;" x1="444" x2="641" y1="231.2969" y2="231.2969"/><text fill="#000000" font-family="sans-serif" font-size="14" font-weight="bold" lengthAdjust="spacingAndGlyphs" textLength="184" x="448" y="223.9951">mastermind.controllers</text><!--cluster mastermind.views--><polygon fill="#FFFFFF" filter="url(#f1v5qo8czbymdq)" points="747,209,897,209,904,231.2969,907,231.2969,907,308,747,308,747,209" style="stroke: #000000; stroke-width: 1.5;"/><line style="stroke: #000000; stroke-width: 1.5;" x1="747" x2="904" y1="231.2969" y2="231.2969"/><text fill="#000000" font-family="sans-serif" font-size="14" font-weight="bold" lengthAdjust="spacingAndGlyphs" textLength="144" x="751" y="223.9951">mastermind.views</text><!--cluster mastermind.views.graphics--><polygon fill="#FFFFFF" filter="url(#f1v5qo8czbymdq)" points="275,345,498,345,505,367.2969,508,367.2969,508,444,275,444,275,345" style="stroke: #000000; stroke-width: 1.5;"/><line style="stroke: #000000; stroke-width: 1.5;" x1="275" x2="505" y1="367.2969" y2="367.2969"/><text fill="#000000" font-family="sans-serif" font-size="14" font-weight="bold" lengthAdjust="spacingAndGlyphs" textLength="217" x="279" y="359.9951">mastermind.views.graphics</text><!--cluster mastermind.views.console--><polygon fill="#FFFFFF" filter="url(#f1v5qo8czbymdq)" points="23,345,240,345,247,367.2969,250,367.2969,250,444,23,444,23,345" style="stroke: #000000; stroke-width: 1.5;"/><line style="stroke: #000000; stroke-width: 1.5;" x1="23" x2="247" y1="367.2969" y2="367.2969"/><text fill="#000000" font-family="sans-serif" font-size="14" font-weight="bold" lengthAdjust="spacingAndGlyphs" textLength="211" x="27" y="359.9951">mastermind.views.console</text><!--class mastermind.Mastermind--><rect fill="#FEFECE" filter="url(#f1v5qo8czbymdq)" height="112.0234" id="mastermind.Mastermind" style="stroke: #A80036; stroke-width: 1.5;" width="132" x="272" y="59"/><ellipse cx="299.6" cy="75" fill="#A9DCDF" rx="11" ry="11" style="stroke: #A80036; stroke-width: 1.0;"/><path d="M299.7094,70.3438 L298.5531,75.4219 L300.8813,75.4219 L299.7094,70.3438 Z M298.225,68.1094 L301.2094,68.1094 L304.5688,80.5 L302.1156,80.5 L301.35,77.4375 L298.0688,77.4375 L297.3188,80.5 L294.8813,80.5 L298.225,68.1094 Z "/><text fill="#000000" font-family="sans-serif" font-size="12" font-style="italic" lengthAdjust="spacingAndGlyphs" textLength="72" x="316.4" y="79.1543">Mastermind</text><line style="stroke: #A80036; stroke-width: 1.5;" x1="273" x2="403" y1="91" y2="91"/><rect fill="none" height="6" style="stroke: #C82930; stroke-width: 1.0;" width="6" x="280" y="99.9023"/><text fill="#000000" font-family="sans-serif" font-size="11" lengthAdjust="spacingAndGlyphs" textLength="91" x="292" y="105.2104">final logic: Logic</text><rect fill="none" height="6" style="stroke: #C82930; stroke-width: 1.0;" width="6" x="280" y="112.707"/><text fill="#000000" font-family="sans-serif" font-size="11" lengthAdjust="spacingAndGlyphs" textLength="87" x="292" y="118.0151">final view: View</text><line style="stroke: #A80036; stroke-width: 1.5;" x1="273" x2="403" y1="124.6094" y2="124.6094"/><polygon fill="#FFFF44" points="283,131.5117,287,135.5117,283,139.5117,279,135.5117" style="stroke: #B38D22; stroke-width: 1.0;"/><text fill="#000000" font-family="sans-serif" font-size="11" lengthAdjust="spacingAndGlyphs" textLength="75" x="292" y="138.8198">Mastermind()</text><polygon fill="#FFFF44" points="283,144.3164,287,148.3164,283,152.3164,279,148.3164" style="stroke: #B38D22; stroke-width: 1.0;"/><text fill="#000000" font-family="sans-serif" font-size="11" font-style="italic" lengthAdjust="spacingAndGlyphs" textLength="106" x="292" y="151.6245">createView(): View</text><polygon fill="#FFFF44" points="283,157.1211,287,161.1211,283,165.1211,279,161.1211" style="stroke: #B38D22; stroke-width: 1.0;"/><text fill="#000000" font-family="sans-serif" font-size="11" lengthAdjust="spacingAndGlyphs" textLength="62" x="292" y="164.4292">play(): void</text><!--class mastermind.ConsoleMastermind--><rect fill="#FEFECE" filter="url(#f1v5qo8czbymdq)" height="73.6094" id="mastermind.ConsoleMastermind" style="stroke: #A80036; stroke-width: 1.5;" width="165" x="38.5" y="231"/><ellipse cx="58" cy="247" fill="#ADD1B2" rx="11" ry="11" style="stroke: #A80036; stroke-width: 1.0;"/><path d="M60.9688,252.6406 Q60.3906,252.9375 59.75,253.0781 Q59.1094,253.2344 58.4063,253.2344 Q55.9063,253.2344 54.5781,251.5938 Q53.2656,249.9375 53.2656,246.8125 Q53.2656,243.6875 54.5781,242.0313 Q55.9063,240.375 58.4063,240.375 Q59.1094,240.375 59.75,240.5313 Q60.4063,240.6875 60.9688,240.9844 L60.9688,243.7031 Q60.3438,243.125 59.75,242.8594 Q59.1563,242.5781 58.5313,242.5781 Q57.1875,242.5781 56.5,243.6563 Q55.8125,244.7188 55.8125,246.8125 Q55.8125,248.9063 56.5,249.9844 Q57.1875,251.0469 58.5313,251.0469 Q59.1563,251.0469 59.75,250.7813 Q60.3438,250.5 60.9688,249.9219 L60.9688,252.6406 Z "/><text fill="#000000" font-family="sans-serif" font-size="12" lengthAdjust="spacingAndGlyphs" textLength="123" x="73" y="251.1543">ConsoleMastermind</text><line style="stroke: #A80036; stroke-width: 1.5;" x1="39.5" x2="202.5" y1="263" y2="263"/><line style="stroke: #A80036; stroke-width: 1.5;" x1="39.5" x2="202.5" y1="271" y2="271"/><polygon fill="#FFFF44" points="49.5,277.9023,53.5,281.9023,49.5,285.9023,45.5,281.9023" style="stroke: #B38D22; stroke-width: 1.0;"/><text fill="#000000" font-family="sans-serif" font-size="11" lengthAdjust="spacingAndGlyphs" textLength="104" x="58.5" y="285.2104">createView(): View</text><ellipse cx="49.5" cy="295.707" fill="#84BE84" rx="3" ry="3" style="stroke: #038048; stroke-width: 1.0;"/><text fill="#000000" font-family="sans-serif" font-size="11" lengthAdjust="spacingAndGlyphs" text-decoration="underline" textLength="139" x="58.5" y="298.0151">main(String[] args): void</text><!--class mastermind.GraphicsMastermind--><rect fill="#FEFECE" filter="url(#f1v5qo8czbymdq)" height="73.6094" id="mastermind.GraphicsMastermind" style="stroke: #A80036; stroke-width: 1.5;" width="165" x="238.5" y="231"/><ellipse cx="255.75" cy="247" fill="#ADD1B2" rx="11" ry="11" style="stroke: #A80036; stroke-width: 1.0;"/><path d="M258.7188,252.6406 Q258.1406,252.9375 257.5,253.0781 Q256.8594,253.2344 256.1563,253.2344 Q253.6563,253.2344 252.3281,251.5938 Q251.0156,249.9375 251.0156,246.8125 Q251.0156,243.6875 252.3281,242.0313 Q253.6563,240.375 256.1563,240.375 Q256.8594,240.375 257.5,240.5313 Q258.1563,240.6875 258.7188,240.9844 L258.7188,243.7031 Q258.0938,243.125 257.5,242.8594 Q256.9063,242.5781 256.2813,242.5781 Q254.9375,242.5781 254.25,243.6563 Q253.5625,244.7188 253.5625,246.8125 Q253.5625,248.9063 254.25,249.9844 Q254.9375,251.0469 256.2813,251.0469 Q256.9063,251.0469 257.5,250.7813 Q258.0938,250.5 258.7188,249.9219 L258.7188,252.6406 Z "/><text fill="#000000" font-family="sans-serif" font-size="12" lengthAdjust="spacingAndGlyphs" textLength="128" x="270.25" y="251.1543">GraphicsMastermind</text><line style="stroke: #A80036; stroke-width: 1.5;" x1="239.5" x2="402.5" y1="263" y2="263"/><line style="stroke: #A80036; stroke-width: 1.5;" x1="239.5" x2="402.5" y1="271" y2="271"/><polygon fill="#FFFF44" points="249.5,277.9023,253.5,281.9023,249.5,285.9023,245.5,281.9023" style="stroke: #B38D22; stroke-width: 1.0;"/><text fill="#000000" font-family="sans-serif" font-size="11" lengthAdjust="spacingAndGlyphs" textLength="104" x="258.5" y="285.2104">createView(): View</text><ellipse cx="249.5" cy="295.707" fill="#84BE84" rx="3" ry="3" style="stroke: #038048; stroke-width: 1.0;"/><text fill="#000000" font-family="sans-serif" font-size="11" lengthAdjust="spacingAndGlyphs" text-decoration="underline" textLength="139" x="258.5" y="298.0151">main(String[] args): void</text><!--class mastermind.controllers.Logic--><rect fill="#FEFECE" filter="url(#f1v5qo8czbymdq)" height="48" id="mastermind.controllers.Logic" style="stroke: #A80036; stroke-width: 1.5;" width="64" x="643" y="244"/><ellipse cx="658" cy="260" fill="#ADD1B2" rx="11" ry="11" style="stroke: #A80036; stroke-width: 1.0;"/><path d="M660.9688,265.6406 Q660.3906,265.9375 659.75,266.0781 Q659.1094,266.2344 658.4063,266.2344 Q655.9063,266.2344 654.5781,264.5938 Q653.2656,262.9375 653.2656,259.8125 Q653.2656,256.6875 654.5781,255.0313 Q655.9063,253.375 658.4063,253.375 Q659.1094,253.375 659.75,253.5313 Q660.4063,253.6875 660.9688,253.9844 L660.9688,256.7031 Q660.3438,256.125 659.75,255.8594 Q659.1563,255.5781 658.5313,255.5781 Q657.1875,255.5781 656.5,256.6563 Q655.8125,257.7188 655.8125,259.8125 Q655.8125,261.9063 656.5,262.9844 Q657.1875,264.0469 658.5313,264.0469 Q659.1563,264.0469 659.75,263.7813 Q660.3438,263.5 660.9688,262.9219 L660.9688,265.6406 Z "/><text fill="#000000" font-family="sans-serif" font-size="12" lengthAdjust="spacingAndGlyphs" textLength="32" x="672" y="264.1543">Logic</text><line style="stroke: #A80036; stroke-width: 1.5;" x1="644" x2="706" y1="276" y2="276"/><line style="stroke: #A80036; stroke-width: 1.5;" x1="644" x2="706" y1="284" y2="284"/><!--class mastermind.controllers.UseCaseController--><rect fill="#FEFECE" filter="url(#f1v5qo8czbymdq)" height="48" id="mastermind.controllers.UseCaseController" style="stroke: #A80036; stroke-width: 1.5;" width="148" x="460" y="244"/><ellipse cx="475" cy="260" fill="#ADD1B2" rx="11" ry="11" style="stroke: #A80036; stroke-width: 1.0;"/><path d="M477.9688,265.6406 Q477.3906,265.9375 476.75,266.0781 Q476.1094,266.2344 475.4063,266.2344 Q472.9063,266.2344 471.5781,264.5938 Q470.2656,262.9375 470.2656,259.8125 Q470.2656,256.6875 471.5781,255.0313 Q472.9063,253.375 475.4063,253.375 Q476.1094,253.375 476.75,253.5313 Q477.4063,253.6875 477.9688,253.9844 L477.9688,256.7031 Q477.3438,256.125 476.75,255.8594 Q476.1563,255.5781 475.5313,255.5781 Q474.1875,255.5781 473.5,256.6563 Q472.8125,257.7188 472.8125,259.8125 Q472.8125,261.9063 473.5,262.9844 Q474.1875,264.0469 475.5313,264.0469 Q476.1563,264.0469 476.75,263.7813 Q477.3438,263.5 477.9688,262.9219 L477.9688,265.6406 Z "/><text fill="#000000" font-family="sans-serif" font-size="12" lengthAdjust="spacingAndGlyphs" textLength="116" x="489" y="264.1543">UseCaseController</text><line style="stroke: #A80036; stroke-width: 1.5;" x1="461" x2="607" y1="276" y2="276"/><line style="stroke: #A80036; stroke-width: 1.5;" x1="461" x2="607" y1="284" y2="284"/><!--class mastermind.views.View--><rect fill="#FEFECE" filter="url(#f1v5qo8czbymdq)" height="48" id="mastermind.views.View" style="stroke: #A80036; stroke-width: 1.5;" width="60" x="763" y="244"/><ellipse cx="778" cy="260" fill="#ADD1B2" rx="11" ry="11" style="stroke: #A80036; stroke-width: 1.0;"/><path d="M780.9688,265.6406 Q780.3906,265.9375 779.75,266.0781 Q779.1094,266.2344 778.4063,266.2344 Q775.9063,266.2344 774.5781,264.5938 Q773.2656,262.9375 773.2656,259.8125 Q773.2656,256.6875 774.5781,255.0313 Q775.9063,253.375 778.4063,253.375 Q779.1094,253.375 779.75,253.5313 Q780.4063,253.6875 780.9688,253.9844 L780.9688,256.7031 Q780.3438,256.125 779.75,255.8594 Q779.1563,255.5781 778.5313,255.5781 Q777.1875,255.5781 776.5,256.6563 Q775.8125,257.7188 775.8125,259.8125 Q775.8125,261.9063 776.5,262.9844 Q777.1875,264.0469 778.5313,264.0469 Q779.1563,264.0469 779.75,263.7813 Q780.3438,263.5 780.9688,262.9219 L780.9688,265.6406 Z "/><text fill="#000000" font-family="sans-serif" font-size="12" lengthAdjust="spacingAndGlyphs" textLength="28" x="792" y="264.1543">View</text><line style="stroke: #A80036; stroke-width: 1.5;" x1="764" x2="822" y1="276" y2="276"/><line style="stroke: #A80036; stroke-width: 1.5;" x1="764" x2="822" y1="284" y2="284"/><!--class mastermind.views.graphics.View--><rect fill="#FEFECE" filter="url(#f1v5qo8czbymdq)" height="48" id="mastermind.views.graphics.View" style="stroke: #A80036; stroke-width: 1.5;" width="60" x="291" y="380"/><ellipse cx="306" cy="396" fill="#ADD1B2" rx="11" ry="11" style="stroke: #A80036; stroke-width: 1.0;"/><path d="M308.9688,401.6406 Q308.3906,401.9375 307.75,402.0781 Q307.1094,402.2344 306.4063,402.2344 Q303.9063,402.2344 302.5781,400.5938 Q301.2656,398.9375 301.2656,395.8125 Q301.2656,392.6875 302.5781,391.0313 Q303.9063,389.375 306.4063,389.375 Q307.1094,389.375 307.75,389.5313 Q308.4063,389.6875 308.9688,389.9844 L308.9688,392.7031 Q308.3438,392.125 307.75,391.8594 Q307.1563,391.5781 306.5313,391.5781 Q305.1875,391.5781 304.5,392.6563 Q303.8125,393.7188 303.8125,395.8125 Q303.8125,397.9063 304.5,398.9844 Q305.1875,400.0469 306.5313,400.0469 Q307.1563,400.0469 307.75,399.7813 Q308.3438,399.5 308.9688,398.9219 L308.9688,401.6406 Z "/><text fill="#000000" font-family="sans-serif" font-size="12" lengthAdjust="spacingAndGlyphs" textLength="28" x="320" y="400.1543">View</text><line style="stroke: #A80036; stroke-width: 1.5;" x1="292" x2="350" y1="412" y2="412"/><line style="stroke: #A80036; stroke-width: 1.5;" x1="292" x2="350" y1="420" y2="420"/><!--class mastermind.views.console.View--><rect fill="#FEFECE" filter="url(#f1v5qo8czbymdq)" height="48" id="mastermind.views.console.View" style="stroke: #A80036; stroke-width: 1.5;" width="60" x="91" y="380"/><ellipse cx="106" cy="396" fill="#ADD1B2" rx="11" ry="11" style="stroke: #A80036; stroke-width: 1.0;"/><path d="M108.9688,401.6406 Q108.3906,401.9375 107.75,402.0781 Q107.1094,402.2344 106.4063,402.2344 Q103.9063,402.2344 102.5781,400.5938 Q101.2656,398.9375 101.2656,395.8125 Q101.2656,392.6875 102.5781,391.0313 Q103.9063,389.375 106.4063,389.375 Q107.1094,389.375 107.75,389.5313 Q108.4063,389.6875 108.9688,389.9844 L108.9688,392.7031 Q108.3438,392.125 107.75,391.8594 Q107.1563,391.5781 106.5313,391.5781 Q105.1875,391.5781 104.5,392.6563 Q103.8125,393.7188 103.8125,395.8125 Q103.8125,397.9063 104.5,398.9844 Q105.1875,400.0469 106.5313,400.0469 Q107.1563,400.0469 107.75,399.7813 Q108.3438,399.5 108.9688,398.9219 L108.9688,401.6406 Z "/><text fill="#000000" font-family="sans-serif" font-size="12" lengthAdjust="spacingAndGlyphs" textLength="28" x="120" y="400.1543">View</text><line style="stroke: #A80036; stroke-width: 1.5;" x1="92" x2="150" y1="412" y2="412"/><line style="stroke: #A80036; stroke-width: 1.5;" x1="92" x2="150" y1="420" y2="420"/><!--link mastermind.Mastermind to mastermind.ConsoleMastermind--><path d="M255.28,173.56 C227.55,192.86 197.44,213.81 172.77,230.97 " fill="none" id="mastermind.Mastermind-mastermind.ConsoleMastermind" style="stroke: #A80036; stroke-width: 1.0;"/><polygon fill="none" points="251.3,167.8,271.71,162.13,259.3,179.29,251.3,167.8" style="stroke: #A80036; stroke-width: 1.0;"/><!--link mastermind.Mastermind to mastermind.GraphicsMastermind--><path d="M329.52,191.36 C327.96,205.15 326.41,218.95 325.06,230.91 " fill="none" id="mastermind.Mastermind-mastermind.GraphicsMastermind" style="stroke: #A80036; stroke-width: 1.0;"/><polygon fill="none" points="322.57,190.46,331.77,171.37,336.48,192.03,322.57,190.46" style="stroke: #A80036; stroke-width: 1.0;"/><!--link mastermind.Mastermind to mastermind.controllers.Logic--><path d="M417.22,125.45 C478.66,135.89 563.58,157.41 626,201 C637.76,209.21 647.84,221.15 655.74,232.62 " fill="none" id="mastermind.Mastermind-mastermind.controllers.Logic" style="stroke: #A80036; stroke-width: 1.0;"/><polygon fill="#A80036" points="662.9,243.78,661.4108,234.0444,660.2018,239.5705,654.6756,238.3616,662.9,243.78" style="stroke: #A80036; stroke-width: 1.0;"/><line style="stroke: #A80036; stroke-width: 1.0;" x1="660.2018" x2="655.88" y1="239.5705" y2="232.835"/><polygon fill="#A80036" points="404.09,123.33,409.3703,128.241,415.9345,125.2557,410.6541,120.3447,404.09,123.33" style="stroke: #A80036; stroke-width: 1.0;"/><!--link mastermind.Mastermind to mastermind.views.View--><path d="M417.41,121.13 C498.37,129.12 625.57,149.45 723,201 C738.57,209.24 753.19,221.89 765.01,233.92 " fill="none" id="mastermind.Mastermind-mastermind.views.View" style="stroke: #A80036; stroke-width: 1.0;"/><polygon fill="#A80036" points="774.23,243.77,770.9964,234.4671,770.8118,240.1209,765.1579,239.9363,774.23,243.77" style="stroke: #A80036; stroke-width: 1.0;"/><line style="stroke: #A80036; stroke-width: 1.0;" x1="770.8118" x2="765.34" y1="240.1209" y2="234.28"/><polygon fill="#A80036" points="404.33,119.91,409.9301,124.453,416.2775,121.0309,410.6774,116.4879,404.33,119.91" style="stroke: #A80036; stroke-width: 1.0;"/><!--link mastermind.Mastermind to mastermind.controllers.UseCaseController--><path d="M404.08,166.91 C436.26,191.7 473.59,220.46 499.95,240.77 " fill="none" id="mastermind.Mastermind-mastermind.controllers.UseCaseController" style="stroke: #A80036; stroke-width: 1.0; stroke-dasharray: 7.0,7.0;"/><polygon fill="#A80036" points="504.09,243.95,499.3937,235.2929,500.1263,240.9021,494.5171,241.6348,504.09,243.95" style="stroke: #A80036; stroke-width: 1.0;"/><!--link mastermind.GraphicsMastermind to mastermind.views.graphics.View--><path d="M321,305.26 C321,327.03 321,354.34 321,374.55 " fill="none" id="mastermind.GraphicsMastermind-mastermind.views.graphics.View" style="stroke: #A80036; stroke-width: 1.0; stroke-dasharray: 7.0,7.0;"/><polygon fill="#A80036" points="321,379.78,325,370.78,321,374.78,317,370.78,321,379.78" style="stroke: #A80036; stroke-width: 1.0;"/><!--link mastermind.ConsoleMastermind to mastermind.views.console.View--><path d="M121,305.26 C121,327.03 121,354.34 121,374.55 " fill="none" id="mastermind.ConsoleMastermind-mastermind.views.console.View" style="stroke: #A80036; stroke-width: 1.0; stroke-dasharray: 7.0,7.0;"/><polygon fill="#A80036" points="121,379.78,125,370.78,121,374.78,117,370.78,121,379.78" style="stroke: #A80036; stroke-width: 1.0;"/><!--
@startuml

abstract class  mastermind.Mastermind{
- final logic: Logic
- final view: View
# Mastermind()
# {abstract} createView(): View
# play(): void
}

class mastermind.ConsoleMastermind extends mastermind.Mastermind{
# createView(): View
+ {static} main(String[] args): void
}

class mastermind.GraphicsMastermind extends mastermind.Mastermind{
# createView(): View
+ {static} main(String[] args): void
}

mastermind.Mastermind *-down-> mastermind.controllers.Logic
mastermind.Mastermind *-down-> mastermind.views.View
mastermind.Mastermind .down.> mastermind.controllers.UseCaseController

mastermind.GraphicsMastermind .down.> mastermind.views.graphics.View

mastermind.ConsoleMastermind .down.> mastermind.views.console.View
@enduml

PlantUML version 1.2019.05(Sat Apr 20 18:45:36 CEST 2019)
(GPL source distribution)
Java Runtime: OpenJDK Runtime Environment
JVM: OpenJDK 64-Bit Server VM
Java Version: 1.8.0_265-8u265-b01-0ubuntu2~20.04-b01
Operating System: Linux
OS Version: 5.4.0-51-generic
Default Encoding: UTF-8
Language: es
Country: ES
--></g></svg>