<?xml version="1.0" encoding="UTF-8" standalone="no"?><svg xmlns="http://www.w3.org/2000/svg" xmlns:xlink="http://www.w3.org/1999/xlink" contentScriptType="application/ecmascript" contentStyleType="text/css" height="519px" preserveAspectRatio="none" style="width:1018px;height:519px;" version="1.1" viewBox="0 0 1018 519" width="1018px" zoomAndPan="magnify"><defs><filter height="300%" id="fqgmwqge09c8l" width="300%" x="-1" y="-1"><feGaussianBlur result="blurOut" stdDeviation="2.0"/><feColorMatrix in="blurOut" result="blurOut2" type="matrix" values="0 0 0 0 0 0 0 0 0 0 0 0 0 0 0 0 0 0 .4 0"/><feOffset dx="4.0" dy="4.0" in="blurOut2" result="blurOut3"/><feBlend in="SourceGraphic" in2="blurOut3" mode="normal"/></filter></defs><g><!--cluster mastermind--><polygon fill="#FFFFFF" filter="url(#fqgmwqge09c8l)" points="22,24,121,24,128,46.2969,405,46.2969,405,320.5,22,320.5,22,24" style="stroke: #000000; stroke-width: 1.5;"/><line style="stroke: #000000; stroke-width: 1.5;" x1="22" x2="128" y1="46.2969" y2="46.2969"/><text fill="#000000" font-family="sans-serif" font-size="14" font-weight="bold" lengthAdjust="spacingAndGlyphs" textLength="93" x="26" y="38.9951">mastermind</text><!--cluster mastermind.controllers--><polygon fill="#FFFFFF" filter="url(#fqgmwqge09c8l)" points="429,170,619,170,626,192.2969,996,192.2969,996,346,429,346,429,170" style="stroke: #000000; stroke-width: 1.5;"/><line style="stroke: #000000; stroke-width: 1.5;" x1="429" x2="626" y1="192.2969" y2="192.2969"/><text fill="#000000" font-family="sans-serif" font-size="14" font-weight="bold" lengthAdjust="spacingAndGlyphs" textLength="184" x="433" y="184.9951">mastermind.controllers</text><!--cluster mastermind.controllers.console--><polygon fill="#FFFFFF" filter="url(#fqgmwqge09c8l)" points="86,370,343,370,350,392.2969,472,392.2969,472,507,86,507,86,370" style="stroke: #000000; stroke-width: 1.5;"/><line style="stroke: #000000; stroke-width: 1.5;" x1="86" x2="350" y1="392.2969" y2="392.2969"/><text fill="#000000" font-family="sans-serif" font-size="14" font-weight="bold" lengthAdjust="spacingAndGlyphs" textLength="251" x="90" y="384.9951">mastermind.controllers.console</text><!--cluster mastermind.controllers.graphics--><polygon fill="#FFFFFF" filter="url(#fqgmwqge09c8l)" points="553,370,816,370,823,392.2969,939,392.2969,939,507,553,507,553,370" style="stroke: #000000; stroke-width: 1.5;"/><line style="stroke: #000000; stroke-width: 1.5;" x1="553" x2="823" y1="392.2969" y2="392.2969"/><text fill="#000000" font-family="sans-serif" font-size="14" font-weight="bold" lengthAdjust="spacingAndGlyphs" textLength="257" x="557" y="384.9951">mastermind.controllers.graphics</text><!--class mastermind.Mastermind--><a href="Mastermind.html" target="_top" xlink:actuate="onRequest" xlink:show="new" xlink:title="Mastermind.html" xlink:type="simple"><rect fill="#FEFECE" filter="url(#fqgmwqge09c8l)" height="86.4141" id="mastermind.Mastermind" style="stroke: #A80036; stroke-width: 1.5;" width="136" x="247" y="59"/><ellipse cx="276.4" cy="75" fill="#A9DCDF" rx="11" ry="11" style="stroke: #A80036; stroke-width: 1.0;"/><path d="M276.5094,70.3438 L275.3531,75.4219 L277.6813,75.4219 L276.5094,70.3438 Z M275.025,68.1094 L278.0094,68.1094 L281.3688,80.5 L278.9156,80.5 L278.15,77.4375 L274.8688,77.4375 L274.1188,80.5 L271.6813,80.5 L275.025,68.1094 Z "/><text fill="#000000" font-family="sans-serif" font-size="12" font-style="italic" lengthAdjust="spacingAndGlyphs" textLength="72" x="293.6" y="79.1543">Mastermind</text><line style="stroke: #A80036; stroke-width: 1.5;" x1="248" x2="382" y1="91" y2="91"/><polygon fill="none" points="258,97.9023,262,101.9023,258,105.9023,254,101.9023" style="stroke: #B38D22; stroke-width: 1.0;"/><text fill="#000000" font-family="sans-serif" font-size="11" lengthAdjust="spacingAndGlyphs" textLength="63" x="267" y="105.2104">logic: Logic</text><line style="stroke: #A80036; stroke-width: 1.5;" x1="248" x2="382" y1="111.8047" y2="111.8047"/><polygon fill="#FFFF44" points="258,118.707,262,122.707,258,126.707,254,122.707" style="stroke: #B38D22; stroke-width: 1.0;"/><text fill="#000000" font-family="sans-serif" font-size="11" lengthAdjust="spacingAndGlyphs" textLength="62" x="267" y="126.0151">play(): void</text><polygon fill="#FFFF44" points="258,131.5117,262,135.5117,258,139.5117,254,135.5117" style="stroke: #B38D22; stroke-width: 1.0;"/><text fill="#000000" font-family="sans-serif" font-size="11" font-style="italic" lengthAdjust="spacingAndGlyphs" textLength="110" x="267" y="138.8198">createLogic(): Logic</text></a><!--class mastermind.ConsoleMastermind--><a href="ConsoleMastermind.html" target="_top" xlink:actuate="onRequest" xlink:show="new" xlink:title="ConsoleMastermind.html" xlink:type="simple"><rect fill="#FEFECE" filter="url(#fqgmwqge09c8l)" height="73.6094" id="mastermind.ConsoleMastermind" style="stroke: #A80036; stroke-width: 1.5;" width="155" x="38.5" y="230.5"/><ellipse cx="53.5" cy="246.5" fill="#ADD1B2" rx="11" ry="11" style="stroke: #A80036; stroke-width: 1.0;"/><path d="M56.4688,252.1406 Q55.8906,252.4375 55.25,252.5781 Q54.6094,252.7344 53.9063,252.7344 Q51.4063,252.7344 50.0781,251.0938 Q48.7656,249.4375 48.7656,246.3125 Q48.7656,243.1875 50.0781,241.5313 Q51.4063,239.875 53.9063,239.875 Q54.6094,239.875 55.25,240.0313 Q55.9063,240.1875 56.4688,240.4844 L56.4688,243.2031 Q55.8438,242.625 55.25,242.3594 Q54.6563,242.0781 54.0313,242.0781 Q52.6875,242.0781 52,243.1563 Q51.3125,244.2188 51.3125,246.3125 Q51.3125,248.4063 52,249.4844 Q52.6875,250.5469 54.0313,250.5469 Q54.6563,250.5469 55.25,250.2813 Q55.8438,250 56.4688,249.4219 L56.4688,252.1406 Z "/><text fill="#000000" font-family="sans-serif" font-size="12" lengthAdjust="spacingAndGlyphs" textLength="123" x="67.5" y="250.6543">ConsoleMastermind</text><line style="stroke: #A80036; stroke-width: 1.5;" x1="39.5" x2="192.5" y1="262.5" y2="262.5"/><line style="stroke: #A80036; stroke-width: 1.5;" x1="39.5" x2="192.5" y1="270.5" y2="270.5"/><polygon fill="#FFFF44" points="49.5,277.4023,53.5,281.4023,49.5,285.4023,45.5,281.4023" style="stroke: #B38D22; stroke-width: 1.0;"/><text fill="#000000" font-family="sans-serif" font-size="11" lengthAdjust="spacingAndGlyphs" textLength="110" x="58.5" y="284.7104">createLogic(): Logic</text><ellipse cx="49.5" cy="295.207" fill="#84BE84" rx="3" ry="3" style="stroke: #038048; stroke-width: 1.0;"/><text fill="#000000" font-family="sans-serif" font-size="11" lengthAdjust="spacingAndGlyphs" text-decoration="underline" textLength="109" x="58.5" y="297.5151">main(String[]): void</text></a><!--class mastermind.GraphicsMastermind--><a href="GraphicsMastermind.html" target="_top" xlink:actuate="onRequest" xlink:show="new" xlink:title="GraphicsMastermind.html" xlink:type="simple"><rect fill="#FEFECE" filter="url(#fqgmwqge09c8l)" height="73.6094" id="mastermind.GraphicsMastermind" style="stroke: #A80036; stroke-width: 1.5;" width="160" x="229" y="230.5"/><ellipse cx="244" cy="246.5" fill="#ADD1B2" rx="11" ry="11" style="stroke: #A80036; stroke-width: 1.0;"/><path d="M246.9688,252.1406 Q246.3906,252.4375 245.75,252.5781 Q245.1094,252.7344 244.4063,252.7344 Q241.9063,252.7344 240.5781,251.0938 Q239.2656,249.4375 239.2656,246.3125 Q239.2656,243.1875 240.5781,241.5313 Q241.9063,239.875 244.4063,239.875 Q245.1094,239.875 245.75,240.0313 Q246.4063,240.1875 246.9688,240.4844 L246.9688,243.2031 Q246.3438,242.625 245.75,242.3594 Q245.1563,242.0781 244.5313,242.0781 Q243.1875,242.0781 242.5,243.1563 Q241.8125,244.2188 241.8125,246.3125 Q241.8125,248.4063 242.5,249.4844 Q243.1875,250.5469 244.5313,250.5469 Q245.1563,250.5469 245.75,250.2813 Q246.3438,250 246.9688,249.4219 L246.9688,252.1406 Z "/><text fill="#000000" font-family="sans-serif" font-size="12" lengthAdjust="spacingAndGlyphs" textLength="128" x="258" y="250.6543">GraphicsMastermind</text><line style="stroke: #A80036; stroke-width: 1.5;" x1="230" x2="388" y1="262.5" y2="262.5"/><line style="stroke: #A80036; stroke-width: 1.5;" x1="230" x2="388" y1="270.5" y2="270.5"/><polygon fill="#FFFF44" points="240,277.4023,244,281.4023,240,285.4023,236,281.4023" style="stroke: #B38D22; stroke-width: 1.0;"/><text fill="#000000" font-family="sans-serif" font-size="11" lengthAdjust="spacingAndGlyphs" textLength="110" x="249" y="284.7104">createLogic(): Logic</text><ellipse cx="240" cy="295.207" fill="#84BE84" rx="3" ry="3" style="stroke: #038048; stroke-width: 1.0;"/><text fill="#000000" font-family="sans-serif" font-size="11" lengthAdjust="spacingAndGlyphs" text-decoration="underline" textLength="109" x="249" y="297.5151">main(String[]): void</text></a><!--class mastermind.controllers.Logic--><a href="Logic.html" target="_top" xlink:actuate="onRequest" xlink:show="new" xlink:title="Logic.html" xlink:type="simple"><rect fill="#FEFECE" filter="url(#fqgmwqge09c8l)" height="99.2188" id="mastermind.controllers.Logic" style="stroke: #A80036; stroke-width: 1.5;" width="353" x="626.5" y="218"/><ellipse cx="782.25" cy="234" fill="#A9DCDF" rx="11" ry="11" style="stroke: #A80036; stroke-width: 1.0;"/><path d="M782.3594,229.3438 L781.2031,234.4219 L783.5313,234.4219 L782.3594,229.3438 Z M780.875,227.1094 L783.8594,227.1094 L787.2188,239.5 L784.7656,239.5 L784,236.4375 L780.7188,236.4375 L779.9688,239.5 L777.5313,239.5 L780.875,227.1094 Z "/><text fill="#000000" font-family="sans-serif" font-size="12" font-style="italic" lengthAdjust="spacingAndGlyphs" textLength="33" x="802.75" y="238.1543">Logic</text><line style="stroke: #A80036; stroke-width: 1.5;" x1="627.5" x2="978.5" y1="250" y2="250"/><line style="stroke: #A80036; stroke-width: 1.5;" x1="627.5" x2="978.5" y1="258" y2="258"/><ellipse cx="637.5" cy="269.9023" fill="#84BE84" rx="3" ry="3" style="stroke: #038048; stroke-width: 1.0;"/><text fill="#000000" font-family="sans-serif" font-size="11" lengthAdjust="spacingAndGlyphs" textLength="197" x="646.5" y="272.2104">getController(): UseCaseController</text><ellipse cx="637.5" cy="282.707" fill="#84BE84" rx="3" ry="3" style="stroke: #038048; stroke-width: 1.0;"/><text fill="#000000" font-family="sans-serif" font-size="11" font-style="italic" lengthAdjust="spacingAndGlyphs" textLength="289" x="646.5" y="285.0151">createStartController(Game, State): StartController</text><ellipse cx="637.5" cy="295.5117" fill="#84BE84" rx="3" ry="3" style="stroke: #038048; stroke-width: 1.0;"/><text fill="#000000" font-family="sans-serif" font-size="11" font-style="italic" lengthAdjust="spacingAndGlyphs" textLength="283" x="646.5" y="297.8198">createPlayController(Game, State): PlayController</text><ellipse cx="637.5" cy="308.3164" fill="#84BE84" rx="3" ry="3" style="stroke: #038048; stroke-width: 1.0;"/><text fill="#000000" font-family="sans-serif" font-size="11" font-style="italic" lengthAdjust="spacingAndGlyphs" textLength="327" x="646.5" y="310.6245">createResumeController(Game, State): ResumeController</text></a><!--class mastermind.controllers.UseCaseController--><a href="UseCaseController.html" target="_top" xlink:actuate="onRequest" xlink:show="new" xlink:title="UseCaseController.html" xlink:type="simple"><rect fill="#FEFECE" filter="url(#fqgmwqge09c8l)" height="124.8281" id="mastermind.controllers.UseCaseController" style="stroke: #A80036; stroke-width: 1.5;" width="146" x="445" y="205"/><ellipse cx="460" cy="221" fill="#A9DCDF" rx="11" ry="11" style="stroke: #A80036; stroke-width: 1.0;"/><path d="M460.1094,216.3438 L458.9531,221.4219 L461.2813,221.4219 L460.1094,216.3438 Z M458.625,214.1094 L461.6094,214.1094 L464.9688,226.5 L462.5156,226.5 L461.75,223.4375 L458.4688,223.4375 L457.7188,226.5 L455.2813,226.5 L458.625,214.1094 Z "/><text fill="#000000" font-family="sans-serif" font-size="12" font-style="italic" lengthAdjust="spacingAndGlyphs" textLength="114" x="474" y="225.1543">UseCaseController</text><line style="stroke: #A80036; stroke-width: 1.5;" x1="446" x2="590" y1="237" y2="237"/><polygon fill="none" points="456,243.9023,460,247.9023,456,251.9023,452,247.9023" style="stroke: #B38D22; stroke-width: 1.0;"/><text fill="#000000" font-family="sans-serif" font-size="11" lengthAdjust="spacingAndGlyphs" textLength="74" x="465" y="251.2104">game: Game</text><polygon fill="none" points="456,256.707,460,260.707,456,264.707,452,260.707" style="stroke: #B38D22; stroke-width: 1.0;"/><text fill="#000000" font-family="sans-serif" font-size="11" lengthAdjust="spacingAndGlyphs" textLength="67" x="465" y="264.0151">state: State</text><polygon fill="none" points="456,269.5117,460,273.5117,456,277.5117,452,273.5117" style="stroke: #B38D22; stroke-width: 1.0;"/><text fill="#000000" font-family="sans-serif" font-size="11" lengthAdjust="spacingAndGlyphs" textLength="59" x="465" y="276.8198">view: View</text><line style="stroke: #A80036; stroke-width: 1.5;" x1="446" x2="590" y1="283.4141" y2="283.4141"/><ellipse cx="456" cy="295.3164" fill="#84BE84" rx="3" ry="3" style="stroke: #038048; stroke-width: 1.0;"/><text fill="#000000" font-family="sans-serif" font-size="11" lengthAdjust="spacingAndGlyphs" textLength="63" x="465" y="297.6245">next(): void</text><ellipse cx="456" cy="308.1211" fill="#84BE84" rx="3" ry="3" style="stroke: #038048; stroke-width: 1.0;"/><text fill="#000000" font-family="sans-serif" font-size="11" font-style="italic" lengthAdjust="spacingAndGlyphs" textLength="106" x="465" y="310.4292">createView(): View</text><ellipse cx="456" cy="320.9258" fill="#84BE84" rx="3" ry="3" style="stroke: #038048; stroke-width: 1.0;"/><text fill="#000000" font-family="sans-serif" font-size="11" font-style="italic" lengthAdjust="spacingAndGlyphs" textLength="85" x="465" y="323.2339">execute(): void</text></a><!--class mastermind.controllers.console.LogicConsole--><a href="LogicConsole.html" target="_top" xlink:actuate="onRequest" xlink:show="new" xlink:title="LogicConsole.html" xlink:type="simple"><rect fill="#FEFECE" filter="url(#fqgmwqge09c8l)" height="86.4141" id="mastermind.controllers.console.LogicConsole" style="stroke: #A80036; stroke-width: 1.5;" width="354" x="102" y="405"/><ellipse cx="233.75" cy="421" fill="#ADD1B2" rx="11" ry="11" style="stroke: #A80036; stroke-width: 1.0;"/><path d="M236.7188,426.6406 Q236.1406,426.9375 235.5,427.0781 Q234.8594,427.2344 234.1563,427.2344 Q231.6563,427.2344 230.3281,425.5938 Q229.0156,423.9375 229.0156,420.8125 Q229.0156,417.6875 230.3281,416.0313 Q231.6563,414.375 234.1563,414.375 Q234.8594,414.375 235.5,414.5313 Q236.1563,414.6875 236.7188,414.9844 L236.7188,417.7031 Q236.0938,417.125 235.5,416.8594 Q234.9063,416.5781 234.2813,416.5781 Q232.9375,416.5781 232.25,417.6563 Q231.5625,418.7188 231.5625,420.8125 Q231.5625,422.9063 232.25,423.9844 Q232.9375,425.0469 234.2813,425.0469 Q234.9063,425.0469 235.5,424.7813 Q236.0938,424.5 236.7188,423.9219 L236.7188,426.6406 Z "/><text fill="#000000" font-family="sans-serif" font-size="12" lengthAdjust="spacingAndGlyphs" textLength="82" x="254.25" y="425.1543">LogicConsole</text><line style="stroke: #A80036; stroke-width: 1.5;" x1="103" x2="455" y1="437" y2="437"/><line style="stroke: #A80036; stroke-width: 1.5;" x1="103" x2="455" y1="445" y2="445"/><ellipse cx="113" cy="456.9023" fill="#84BE84" rx="3" ry="3" style="stroke: #038048; stroke-width: 1.0;"/><text fill="#000000" font-family="sans-serif" font-size="11" lengthAdjust="spacingAndGlyphs" textLength="292" x="122" y="459.2104">createStartController(Game, State): StartController</text><ellipse cx="113" cy="469.707" fill="#84BE84" rx="3" ry="3" style="stroke: #038048; stroke-width: 1.0;"/><text fill="#000000" font-family="sans-serif" font-size="11" lengthAdjust="spacingAndGlyphs" textLength="282" x="122" y="472.0151">createPlayController(Game, State): PlayController</text><ellipse cx="113" cy="482.5117" fill="#84BE84" rx="3" ry="3" style="stroke: #038048; stroke-width: 1.0;"/><text fill="#000000" font-family="sans-serif" font-size="11" lengthAdjust="spacingAndGlyphs" textLength="328" x="122" y="484.8198">createResumeController(Game, State): ResumeController</text></a><!--class mastermind.controllers.graphics.LogicGraphics--><a href="LogicGraphics.html" target="_top" xlink:actuate="onRequest" xlink:show="new" xlink:title="LogicGraphics.html" xlink:type="simple"><rect fill="#FEFECE" filter="url(#fqgmwqge09c8l)" height="86.4141" id="mastermind.controllers.graphics.LogicGraphics" style="stroke: #A80036; stroke-width: 1.5;" width="354" x="569" y="405"/><ellipse cx="698.25" cy="421" fill="#ADD1B2" rx="11" ry="11" style="stroke: #A80036; stroke-width: 1.0;"/><path d="M701.2188,426.6406 Q700.6406,426.9375 700,427.0781 Q699.3594,427.2344 698.6563,427.2344 Q696.1563,427.2344 694.8281,425.5938 Q693.5156,423.9375 693.5156,420.8125 Q693.5156,417.6875 694.8281,416.0313 Q696.1563,414.375 698.6563,414.375 Q699.3594,414.375 700,414.5313 Q700.6563,414.6875 701.2188,414.9844 L701.2188,417.7031 Q700.5938,417.125 700,416.8594 Q699.4063,416.5781 698.7813,416.5781 Q697.4375,416.5781 696.75,417.6563 Q696.0625,418.7188 696.0625,420.8125 Q696.0625,422.9063 696.75,423.9844 Q697.4375,425.0469 698.7813,425.0469 Q699.4063,425.0469 700,424.7813 Q700.5938,424.5 701.2188,423.9219 L701.2188,426.6406 Z "/><text fill="#000000" font-family="sans-serif" font-size="12" lengthAdjust="spacingAndGlyphs" textLength="87" x="718.75" y="425.1543">LogicGraphics</text><line style="stroke: #A80036; stroke-width: 1.5;" x1="570" x2="922" y1="437" y2="437"/><line style="stroke: #A80036; stroke-width: 1.5;" x1="570" x2="922" y1="445" y2="445"/><ellipse cx="580" cy="456.9023" fill="#84BE84" rx="3" ry="3" style="stroke: #038048; stroke-width: 1.0;"/><text fill="#000000" font-family="sans-serif" font-size="11" lengthAdjust="spacingAndGlyphs" textLength="292" x="589" y="459.2104">createStartController(Game, State): StartController</text><ellipse cx="580" cy="469.707" fill="#84BE84" rx="3" ry="3" style="stroke: #038048; stroke-width: 1.0;"/><text fill="#000000" font-family="sans-serif" font-size="11" lengthAdjust="spacingAndGlyphs" textLength="282" x="589" y="472.0151">createPlayController(Game, State): PlayController</text><ellipse cx="580" cy="482.5117" fill="#84BE84" rx="3" ry="3" style="stroke: #038048; stroke-width: 1.0;"/><text fill="#000000" font-family="sans-serif" font-size="11" lengthAdjust="spacingAndGlyphs" textLength="328" x="589" y="484.8198">createResumeController(Game, State): ResumeController</text></a><!--link mastermind.Mastermind to mastermind.controllers.Logic--><path d="M396.3,112.72 C456.32,121.46 539.34,136.88 609,162 C644.58,174.83 681.61,193.33 713.66,211.22 " fill="none" id="mastermind.Mastermind-mastermind.controllers.Logic" style="stroke: #A80036; stroke-width: 1.0;"/><polygon fill="#A80036" points="725.24,217.77,719.3758,209.8573,720.888,215.3083,715.437,216.8205,725.24,217.77" style="stroke: #A80036; stroke-width: 1.0;"/><line style="stroke: #A80036; stroke-width: 1.0;" x1="720.888" x2="713.92" y1="215.3083" y2="211.36"/><polygon fill="#A80036" points="383.09,110.85,388.473,115.6483,394.9725,112.5249,389.5896,107.7266,383.09,110.85" style="stroke: #A80036; stroke-width: 1.0;"/><!--link mastermind.Mastermind to mastermind.controllers.UseCaseController--><path d="M382.22,145.29 C390.04,150.72 397.79,156.36 405,162 C420.53,174.13 436.49,187.95 451.34,201.47 " fill="none" id="mastermind.Mastermind-mastermind.controllers.UseCaseController" style="stroke: #A80036; stroke-width: 1.0; stroke-dasharray: 7.0,7.0;"/><polygon fill="#A80036" points="455.09,204.9,451.149,195.874,451.4007,201.5253,445.7494,201.7769,455.09,204.9" style="stroke: #A80036; stroke-width: 1.0;"/><!--link mastermind.Mastermind to mastermind.ConsoleMastermind--><path d="M229.75,149 C223.59,153.17 217.6,157.52 212,162 C186.78,182.14 162.24,209.03 144.28,230.49 " fill="none" id="mastermind.Mastermind-mastermind.ConsoleMastermind" style="stroke: #A80036; stroke-width: 1.0;"/><polygon fill="none" points="226.22,142.94,246.84,138.07,233.76,154.74,226.22,142.94" style="stroke: #A80036; stroke-width: 1.0;"/><!--link mastermind.Mastermind to mastermind.GraphicsMastermind--><path d="M312.71,165.34 C311.91,187.32 311.03,211.28 310.33,230.36 " fill="none" id="mastermind.Mastermind-mastermind.GraphicsMastermind" style="stroke: #A80036; stroke-width: 1.0;"/><polygon fill="none" points="305.73,164.84,313.45,145.11,319.72,165.35,305.73,164.84" style="stroke: #A80036; stroke-width: 1.0;"/><!--link mastermind.ConsoleMastermind to mastermind.controllers.console.LogicConsole--><path d="M148.99,304.62 C174.36,332.41 209.6,371 236.99,400.99 " fill="none" id="mastermind.ConsoleMastermind-mastermind.controllers.console.LogicConsole" style="stroke: #A80036; stroke-width: 1.0; stroke-dasharray: 7.0,7.0;"/><polygon fill="#A80036" points="240.63,404.98,237.5249,395.6334,237.2624,401.2842,231.6116,401.0216,240.63,404.98" style="stroke: #A80036; stroke-width: 1.0;"/><!--link mastermind.GraphicsMastermind to mastermind.controllers.graphics.LogicGraphics--><path d="M350.15,304.66 C372.14,322.14 400.51,341.9 429,354 C446.89,361.6 453.13,357.33 472,362 C519.58,373.76 571.08,389.05 616.44,403.4 " fill="none" id="mastermind.GraphicsMastermind-mastermind.controllers.graphics.LogicGraphics" style="stroke: #A80036; stroke-width: 1.0; stroke-dasharray: 7.0,7.0;"/><polygon fill="#A80036" points="621.37,404.97,614.0073,398.4286,616.6056,403.4534,611.5807,406.0517,621.37,404.97" style="stroke: #A80036; stroke-width: 1.0;"/><!--link mastermind.controllers.Logic to mastermind.controllers.console.LogicConsole--><path d="M688.41,325.15 C662.76,336.09 635.34,346.47 609,354 C584.83,360.91 577.53,356.48 553,362 C502.22,373.43 447.24,389.69 399.95,404.93 " fill="none" id="mastermind.controllers.Logic-mastermind.controllers.console.LogicConsole" style="stroke: #A80036; stroke-width: 1.0;"/><polygon fill="none" points="685.61,318.74,706.74,317.12,691.23,331.56,685.61,318.74" style="stroke: #A80036; stroke-width: 1.0;"/><!--link mastermind.controllers.Logic to mastermind.controllers.graphics.LogicGraphics--><path d="M781.31,336.42 C773.95,359.47 765.95,384.53 759.43,404.95 " fill="none" id="mastermind.controllers.Logic-mastermind.controllers.graphics.LogicGraphics" style="stroke: #A80036; stroke-width: 1.0;"/><polygon fill="none" points="774.67,334.2,787.42,317.28,788.01,338.46,774.67,334.2" style="stroke: #A80036; stroke-width: 1.0;"/><!--
@startuml

abstract class mastermind.Mastermind [[Mastermind.html]] {
    #logic: Logic
    #play(): void
    {abstract} #createLogic(): Logic
}

class mastermind.ConsoleMastermind [[ConsoleMastermind.html]] {
    #createLogic(): Logic
    {static} +main(String[]): void
}

class mastermind.GraphicsMastermind [[GraphicsMastermind.html]] {
    #createLogic(): Logic
    {static} +main(String[]): void
}

mastermind.Mastermind *- -> mastermind.controllers.Logic

mastermind.Mastermind ..> mastermind.controllers.UseCaseController

mastermind.Mastermind <|- - mastermind.ConsoleMastermind

mastermind.Mastermind <|- - mastermind.GraphicsMastermind

class mastermind.controllers.console.LogicConsole [[LogicConsole.html]] {
    +createStartController(Game, State): StartController
    +createPlayController(Game, State): PlayController
    +createResumeController(Game, State): ResumeController
}

mastermind.ConsoleMastermind ..> mastermind.controllers.console.LogicConsole

class mastermind.controllers.graphics.LogicGraphics [[LogicGraphics.html]] {
    +createStartController(Game, State): StartController
    +createPlayController(Game, State): PlayController
    +createResumeController(Game, State): ResumeController
}

mastermind.GraphicsMastermind ..> mastermind.controllers.graphics.LogicGraphics


abstract class mastermind.controllers.Logic [[Logic.html]] {
+getController(): UseCaseController
{abstract} +createStartController(Game, State): StartController
{abstract} +createPlayController(Game, State): PlayController
{abstract} +createResumeController(Game, State): ResumeController
}

mastermind.controllers.Logic <|- - mastermind.controllers.console.LogicConsole
mastermind.controllers.Logic <|- - mastermind.controllers.graphics.LogicGraphics

abstract class mastermind.controllers.UseCaseController [[UseCaseController.html]] {
    #game: Game
    #state: State
    #view: View
    +next(): void
    {abstract} +createView(): View
    {abstract} +execute(): void
}

@enduml

PlantUML version 1.2019.05(Sat Apr 20 18:45:36 CEST 2019)
(GPL source distribution)
Java Runtime: OpenJDK Runtime Environment
JVM: OpenJDK 64-Bit Server VM
Java Version: 1.8.0_265-8u265-b01-0ubuntu2~20.04-b01
Operating System: Linux
OS Version: 5.4.0-52-generic
Default Encoding: UTF-8
Language: es
Country: ES
--></g></svg>