<?xml version="1.0" encoding="UTF-8" standalone="no"?><svg xmlns="http://www.w3.org/2000/svg" xmlns:xlink="http://www.w3.org/1999/xlink" contentScriptType="application/ecmascript" contentStyleType="text/css" height="766px" preserveAspectRatio="none" style="width:810px;height:766px;" version="1.1" viewBox="0 0 810 766" width="810px" zoomAndPan="magnify"><defs><filter height="300%" id="fj1wi94qbcf1z" width="300%" x="-1" y="-1"><feGaussianBlur result="blurOut" stdDeviation="2.0"/><feColorMatrix in="blurOut" result="blurOut2" type="matrix" values="0 0 0 0 0 0 0 0 0 0 0 0 0 0 0 0 0 0 .4 0"/><feOffset dx="4.0" dy="4.0" in="blurOut2" result="blurOut3"/><feBlend in="SourceGraphic" in2="blurOut3" mode="normal"/></filter></defs><g><!--cluster mastermind.controllers--><polygon fill="#DDDDDD" filter="url(#fj1wi94qbcf1z)" points="85.5,433,275.5,433,282.5,455.2969,482.5,455.2969,482.5,553,85.5,553,85.5,433" style="stroke: #000000; stroke-width: 1.5;"/><line style="stroke: #000000; stroke-width: 1.5;" x1="85.5" x2="282.5" y1="455.2969" y2="455.2969"/><text fill="#000000" font-family="sans-serif" font-size="14" font-weight="bold" lengthAdjust="spacingAndGlyphs" textLength="184" x="89.5" y="447.9951">mastermind.controllers</text><!--cluster mastermind.distributed--><polygon fill="#DDDDDD" filter="url(#fj1wi94qbcf1z)" points="300.5,32,490.5,32,497.5,54.2969,788.5,54.2969,788.5,219,300.5,219,300.5,32" style="stroke: #000000; stroke-width: 1.5;"/><line style="stroke: #000000; stroke-width: 1.5;" x1="300.5" x2="497.5" y1="54.2969" y2="54.2969"/><text fill="#000000" font-family="sans-serif" font-size="14" font-weight="bold" lengthAdjust="spacingAndGlyphs" textLength="184" x="304.5" y="46.9951">mastermind.distributed</text><!--cluster mastermind.distributed.dispatchers--><polygon fill="#DDDDDD" filter="url(#fj1wi94qbcf1z)" points="340.5,83,628.5,83,635.5,105.2969,756.5,105.2969,756.5,187,340.5,187,340.5,83" style="stroke: #000000; stroke-width: 1.5;"/><line style="stroke: #000000; stroke-width: 1.5;" x1="340.5" x2="635.5" y1="105.2969" y2="105.2969"/><text fill="#000000" font-family="sans-serif" font-size="14" font-weight="bold" lengthAdjust="spacingAndGlyphs" textLength="282" x="344.5" y="97.9951">mastermind.distributed.dispatchers</text><polygon fill="#DDDDDD" filter="url(#fj1wi94qbcf1z)" points="252,243,351,243,358,265.2969,365,265.2969,365,295.5938,252,295.5938,252,243" style="stroke: #000000; stroke-width: 1.5;"/><line style="stroke: #000000; stroke-width: 1.5;" x1="252" x2="358" y1="265.2969" y2="265.2969"/><text fill="#000000" font-family="sans-serif" font-size="14" font-weight="bold" lengthAdjust="spacingAndGlyphs" textLength="93" x="256" y="257.9951">mastermind</text><polygon fill="#FFFFFF" filter="url(#fj1wi94qbcf1z)" points="128.5,476,444.5,476,451.5,498.2969,458.5,498.2969,458.5,528.5938,128.5,528.5938,128.5,476" style="stroke: #000000; stroke-width: 1.5;"/><line style="stroke: #000000; stroke-width: 1.5;" x1="128.5" x2="451.5" y1="498.2969" y2="498.2969"/><text fill="#000000" font-family="sans-serif" font-size="14" font-weight="bold" lengthAdjust="spacingAndGlyphs" textLength="310" x="132.5" y="490.9951">mastermind.controllers.implementation</text><polygon fill="#FFFFFF" filter="url(#fj1wi94qbcf1z)" points="356.5,118,726.5,118,733.5,140.2969,740.5,140.2969,740.5,170.5938,356.5,170.5938,356.5,118" style="stroke: #000000; stroke-width: 1.5;"/><line style="stroke: #000000; stroke-width: 1.5;" x1="356.5" x2="733.5" y1="140.2969" y2="140.2969"/><text fill="#000000" font-family="sans-serif" font-size="14" font-weight="bold" lengthAdjust="spacingAndGlyphs" textLength="364" x="360.5" y="132.9951">mastermind.distributed.dispatchers.undoredo</text><polygon fill="#DDDDDD" filter="url(#fj1wi94qbcf1z)" points="6,589,167,589,174,611.2969,181,611.2969,181,641.5938,6,641.5938,6,589" style="stroke: #000000; stroke-width: 1.5;"/><line style="stroke: #000000; stroke-width: 1.5;" x1="6" x2="174" y1="611.2969" y2="611.2969"/><text fill="#000000" font-family="sans-serif" font-size="14" font-weight="bold" lengthAdjust="spacingAndGlyphs" textLength="155" x="10" y="603.9951">mastermind.models</text><polygon fill="#FFFFFF" filter="url(#fj1wi94qbcf1z)" points="53.5,702,119.5,702,126.5,724.2969,133.5,724.2969,133.5,754.5938,53.5,754.5938,53.5,702" style="stroke: #000000; stroke-width: 1.5;"/><line style="stroke: #000000; stroke-width: 1.5;" x1="53.5" x2="126.5" y1="724.2969" y2="724.2969"/><text fill="#000000" font-family="sans-serif" font-size="14" font-weight="bold" lengthAdjust="spacingAndGlyphs" textLength="60" x="57.5" y="716.9951">java.util</text><polygon fill="#DDDDDD" filter="url(#fj1wi94qbcf1z)" points="578,476,617,476,624,498.2969,631,498.2969,631,528.5938,578,528.5938,578,476" style="stroke: #000000; stroke-width: 1.5;"/><line style="stroke: #000000; stroke-width: 1.5;" x1="578" x2="624" y1="498.2969" y2="498.2969"/><text fill="#000000" font-family="sans-serif" font-size="14" font-weight="bold" lengthAdjust="spacingAndGlyphs" textLength="33" x="582" y="490.9951">utils</text><polygon fill="#FFFFFF" filter="url(#fj1wi94qbcf1z)" points="569.5,589,625.5,589,632.5,611.2969,639.5,611.2969,639.5,641.5938,569.5,641.5938,569.5,589" style="stroke: #000000; stroke-width: 1.5;"/><line style="stroke: #000000; stroke-width: 1.5;" x1="569.5" x2="632.5" y1="611.2969" y2="611.2969"/><text fill="#000000" font-family="sans-serif" font-size="14" font-weight="bold" lengthAdjust="spacingAndGlyphs" textLength="50" x="573.5" y="603.9951">java.io</text><polygon fill="#FFFFFF" filter="url(#fj1wi94qbcf1z)" points="368.5,356,518.5,356,525.5,378.2969,532.5,378.2969,532.5,408.5938,368.5,408.5938,368.5,356" style="stroke: #000000; stroke-width: 1.5;"/><line style="stroke: #000000; stroke-width: 1.5;" x1="368.5" x2="525.5" y1="378.2969" y2="378.2969"/><text fill="#000000" font-family="sans-serif" font-size="14" font-weight="bold" lengthAdjust="spacingAndGlyphs" textLength="144" x="372.5" y="370.9951">mastermind.views</text><!--link mastermind to mastermind.controllers--><path d="M256.01,296.07 C210.96,320.78 147.85,362.46 112.5,417 C109.965,420.9113 107.7653,425.1144 105.8569,429.4813 C105.3798,430.5731 104.9209,431.675 104.4795,432.7853 " fill="none" id="mastermind-mastermind.controllers" style="stroke: #A80036; stroke-width: 1.0; stroke-dasharray: 7.0,7.0;"/><polygon fill="#A80036" points="104.4795,432.7853,111.5215,425.8997,106.3267,428.139,104.0874,422.9442,104.4795,432.7853" style="stroke: #A80036; stroke-width: 1.0;"/><!--link mastermind.distributed to mastermind--><path d="M308.5,219.0251 C308.5,219.3357 308.5,219.6459 308.5,219.9556 C308.5,221.1945 308.5,222.426 308.5,223.6481 C308.5,228.5363 308.5,233.2725 308.5,237.72 " fill="none" id="mastermind.distributed-mastermind" style="stroke: #A80036; stroke-width: 1.0; stroke-dasharray: 7.0,7.0;"/><polygon fill="#A80036" points="308.5,242.83,312.5,233.83,308.5,237.83,304.5,233.83,308.5,242.83" style="stroke: #A80036; stroke-width: 1.0;"/><!--link mastermind.controllers to mastermind.models--><path d="M85.4311,514.7219 C85.4051,514.8105 85.3793,514.8994 85.3535,514.9889 C85.2504,515.3465 85.1491,515.7109 85.0495,516.0819 C84.6511,517.5659 84.2804,519.1549 83.9374,520.8343 C83.2513,524.193 82.6759,527.9134 82.2112,531.8788 C80.3525,547.74 80.265,567.52 81.95,583.75 " fill="none" id="mastermind.controllers-mastermind.models" style="stroke: #A80036; stroke-width: 1.0; stroke-dasharray: 7.0,7.0;"/><polygon fill="#A80036" points="82.55,588.83,85.4663,579.4228,81.9633,583.8645,77.5216,580.3615,82.55,588.83" style="stroke: #A80036; stroke-width: 1.0;"/><!--link mastermind.controllers to mastermind.models--><path d="M106.9342,553.0668 C106.9374,553.206 106.9405,553.3454 106.9436,553.4847 C106.9496,553.7634 106.9551,554.0424 106.9603,554.3214 C106.9807,555.4377 106.9938,556.5565 106.9995,557.6761 C107.0456,566.6325 106.6225,575.635 105.73,583.75 " fill="none" id="mastermind.controllers-mastermind.models-1" style="stroke: #A80036; stroke-width: 1.0; stroke-dasharray: 7.0,7.0;"/><polygon fill="#A80036" points="105.09,588.83,110.1664,580.3902,105.7049,583.868,102.2272,579.4064,105.09,588.83" style="stroke: #A80036; stroke-width: 1.0;"/><!--link mastermind.views to mastermind.models--><path d="M471.26,409.37 C472.56,411.85 473.67,414.41 474.5,417 C495.16,481.32 519.35,518.48 474.5,569 C455.64,590.24 292.82,603.37 186.22,609.78 " fill="none" id="mastermind.views-mastermind.models" style="stroke: #A80036; stroke-width: 1.0; stroke-dasharray: 7.0,7.0;"/><polygon fill="#A80036" points="181.19,610.07,190.414,613.5222,186.181,609.7697,189.9335,605.5367,181.19,610.07" style="stroke: #A80036; stroke-width: 1.0;"/><!--link mastermind.views to utils--><path d="M532.61,405.69 C538.96,408.97 545.02,412.72 550.5,417 C568.72,431.22 582.56,453.41 591.67,471.49 " fill="none" id="mastermind.views-utils" style="stroke: #A80036; stroke-width: 1.0; stroke-dasharray: 7.0,7.0;"/><polygon fill="#A80036" points="593.88,475.99,593.5083,466.1482,591.6783,471.5008,586.3256,469.6709,593.88,475.99" style="stroke: #A80036; stroke-width: 1.0;"/><!--link mastermind to mastermind.views--><path d="M341.43,296.24 C363.03,313.13 391.3,335.22 413.64,352.69 " fill="none" id="mastermind-mastermind.views" style="stroke: #A80036; stroke-width: 1.0; stroke-dasharray: 7.0,7.0;"/><polygon fill="#A80036" points="417.74,355.89,413.1134,347.1955,413.801,352.8104,408.186,353.4979,417.74,355.89" style="stroke: #A80036; stroke-width: 1.0;"/><!--link mastermind.models to java.util--><path d="M93.5,642.24 C93.5,658.5 93.5,679.58 93.5,696.71 " fill="none" id="mastermind.models-java.util" style="stroke: #A80036; stroke-width: 1.0; stroke-dasharray: 7.0,7.0;"/><polygon fill="#A80036" points="93.5,701.89,97.5257,692.9015,93.5143,696.89,89.5257,692.8786,93.5,701.89" style="stroke: #A80036; stroke-width: 1.0;"/><!--link utils to java.io--><path d="M604.5,529.24 C604.5,545.5 604.5,566.58 604.5,583.71 " fill="none" id="utils-java.io" style="stroke: #A80036; stroke-width: 1.0; stroke-dasharray: 7.0,7.0;"/><polygon fill="#A80036" points="604.5,588.89,608.5257,579.9015,604.5143,583.89,600.5257,579.8786,604.5,588.89" style="stroke: #A80036; stroke-width: 1.0;"/><!--link mastermind.views to mastermind.controllers--><path d="M368.24,396.51 C336.79,401.08 300.55,405.85 267.5,409 C250.33,410.64 125.68,405.88 112.5,417 C108.8788,420.0538 105.8609,423.6353 103.3529,427.5686 C102.7259,428.5519 102.1307,429.5572 101.566,430.5817 C101.2836,431.094 101.0088,431.611 100.7415,432.1326 C100.6078,432.3933 100.4759,432.6552 100.346,432.9182 " fill="none" id="mastermind.views-mastermind.controllers" style="stroke: #A80036; stroke-width: 1.0; stroke-dasharray: 7.0,7.0;"/><polygon fill="#A80036" points="100.346,432.9182,107.9202,426.6229,102.5618,428.436,100.7487,423.0776,100.346,432.9182" style="stroke: #A80036; stroke-width: 1.0;"/><!--
@startuml

package mastermind #DDDDDD { }
mastermind .down.> mastermind.controllers
mastermind.distributed .down.> mastermind
mastermind.controllers .down.> mastermind.models
mastermind.views .down.> mastermind.models
mastermind.views .down.> utils
mastermind .down.> mastermind.views

package mastermind.controllers #DDDDDD {
    package mastermind.controllers.implementation {}
}
mastermind.controllers .down.> mastermind.models

package mastermind.distributed #DDDDDD {
    package mastermind.distributed.dispatchers {
        package mastermind.distributed.dispatchers.undoredo{}
    }
}

package mastermind.models #DDDDDD { }
package java.util{ }
mastermind.models .down.> java.util

package utils #DDDDDD { }
package java.io{ }
utils .down.> java.io

package mastermind.views{}
mastermind.views .down.> mastermind.controllers

@enduml

PlantUML version 1.2019.05(Sat Apr 20 18:45:36 CEST 2019)
(GPL source distribution)
Java Runtime: OpenJDK Runtime Environment
JVM: OpenJDK 64-Bit Server VM
Java Version: 1.8.0_265-8u265-b01-0ubuntu2~20.04-b01
Operating System: Linux
OS Version: 5.4.0-52-generic
Default Encoding: UTF-8
Language: es
Country: ES
--></g></svg>